G04 #@! TF.GenerationSoftware,KiCad,Pcbnew,(5.1.0)-1*
G04 #@! TF.CreationDate,2019-10-16T14:10:11+11:00*
G04 #@! TF.ProjectId,APPS,41505053-2e6b-4696-9361-645f70636258,rev?*
G04 #@! TF.SameCoordinates,Original*
G04 #@! TF.FileFunction,Soldermask,Bot*
G04 #@! TF.FilePolarity,Negative*
%FSLAX46Y46*%
G04 Gerber Fmt 4.6, Leading zero omitted, Abs format (unit mm)*
G04 Created by KiCad (PCBNEW (5.1.0)-1) date 2019-10-16 14:10:11*
%MOMM*%
%LPD*%
G04 APERTURE LIST*
%ADD10C,0.100000*%
G04 APERTURE END LIST*
D10*
G36*
X130409564Y-111511389D02*
G01*
X130525451Y-111559391D01*
X130600835Y-111590616D01*
X130772973Y-111705635D01*
X130919365Y-111852027D01*
X131034385Y-112024167D01*
X131113611Y-112215436D01*
X131154000Y-112418484D01*
X131154000Y-112625516D01*
X131113611Y-112828564D01*
X131040771Y-113004415D01*
X131034384Y-113019835D01*
X130919365Y-113191973D01*
X130772973Y-113338365D01*
X130600835Y-113453384D01*
X130600834Y-113453385D01*
X130600833Y-113453385D01*
X130409564Y-113532611D01*
X130206516Y-113573000D01*
X129999484Y-113573000D01*
X129796436Y-113532611D01*
X129605167Y-113453385D01*
X129605166Y-113453385D01*
X129605165Y-113453384D01*
X129433027Y-113338365D01*
X129286635Y-113191973D01*
X129171616Y-113019835D01*
X129165229Y-113004415D01*
X129092389Y-112828564D01*
X129052000Y-112625516D01*
X129052000Y-112418484D01*
X129092389Y-112215436D01*
X129171615Y-112024167D01*
X129286635Y-111852027D01*
X129433027Y-111705635D01*
X129605165Y-111590616D01*
X129680549Y-111559391D01*
X129796436Y-111511389D01*
X129999484Y-111471000D01*
X130206516Y-111471000D01*
X130409564Y-111511389D01*
X130409564Y-111511389D01*
G37*
G36*
X125909564Y-111511389D02*
G01*
X126025451Y-111559391D01*
X126100835Y-111590616D01*
X126272973Y-111705635D01*
X126419365Y-111852027D01*
X126534385Y-112024167D01*
X126613611Y-112215436D01*
X126654000Y-112418484D01*
X126654000Y-112625516D01*
X126613611Y-112828564D01*
X126540771Y-113004415D01*
X126534384Y-113019835D01*
X126419365Y-113191973D01*
X126272973Y-113338365D01*
X126100835Y-113453384D01*
X126100834Y-113453385D01*
X126100833Y-113453385D01*
X125909564Y-113532611D01*
X125706516Y-113573000D01*
X125499484Y-113573000D01*
X125296436Y-113532611D01*
X125105167Y-113453385D01*
X125105166Y-113453385D01*
X125105165Y-113453384D01*
X124933027Y-113338365D01*
X124786635Y-113191973D01*
X124671616Y-113019835D01*
X124665229Y-113004415D01*
X124592389Y-112828564D01*
X124552000Y-112625516D01*
X124552000Y-112418484D01*
X124592389Y-112215436D01*
X124671615Y-112024167D01*
X124786635Y-111852027D01*
X124933027Y-111705635D01*
X125105165Y-111590616D01*
X125180549Y-111559391D01*
X125296436Y-111511389D01*
X125499484Y-111471000D01*
X125706516Y-111471000D01*
X125909564Y-111511389D01*
X125909564Y-111511389D01*
G37*
G36*
X156178856Y-110113298D02*
G01*
X156285179Y-110134447D01*
X156585642Y-110258903D01*
X156856051Y-110439585D01*
X157086015Y-110669549D01*
X157266697Y-110939958D01*
X157391153Y-111240421D01*
X157454600Y-111559391D01*
X157454600Y-111884609D01*
X157391153Y-112203579D01*
X157303150Y-112416037D01*
X157302136Y-112418486D01*
X157266697Y-112504042D01*
X157086015Y-112774451D01*
X156856051Y-113004415D01*
X156585642Y-113185097D01*
X156285179Y-113309553D01*
X156178856Y-113330702D01*
X155966211Y-113373000D01*
X155640989Y-113373000D01*
X155428344Y-113330702D01*
X155322021Y-113309553D01*
X155021558Y-113185097D01*
X154751149Y-113004415D01*
X154521185Y-112774451D01*
X154340503Y-112504042D01*
X154305065Y-112418486D01*
X154304050Y-112416037D01*
X154216047Y-112203579D01*
X154152600Y-111884609D01*
X154152600Y-111559391D01*
X154216047Y-111240421D01*
X154340503Y-110939958D01*
X154521185Y-110669549D01*
X154751149Y-110439585D01*
X155021558Y-110258903D01*
X155322021Y-110134447D01*
X155428344Y-110113298D01*
X155640989Y-110071000D01*
X155966211Y-110071000D01*
X156178856Y-110113298D01*
X156178856Y-110113298D01*
G37*
G36*
X106178856Y-110113298D02*
G01*
X106285179Y-110134447D01*
X106585642Y-110258903D01*
X106856051Y-110439585D01*
X107086015Y-110669549D01*
X107266697Y-110939958D01*
X107391153Y-111240421D01*
X107454600Y-111559391D01*
X107454600Y-111884609D01*
X107391153Y-112203579D01*
X107303150Y-112416037D01*
X107302136Y-112418486D01*
X107266697Y-112504042D01*
X107086015Y-112774451D01*
X106856051Y-113004415D01*
X106585642Y-113185097D01*
X106285179Y-113309553D01*
X106178856Y-113330702D01*
X105966211Y-113373000D01*
X105640989Y-113373000D01*
X105428344Y-113330702D01*
X105322021Y-113309553D01*
X105021558Y-113185097D01*
X104751149Y-113004415D01*
X104521185Y-112774451D01*
X104340503Y-112504042D01*
X104305065Y-112418486D01*
X104304050Y-112416037D01*
X104216047Y-112203579D01*
X104152600Y-111884609D01*
X104152600Y-111559391D01*
X104216047Y-111240421D01*
X104340503Y-110939958D01*
X104521185Y-110669549D01*
X104751149Y-110439585D01*
X105021558Y-110258903D01*
X105322021Y-110134447D01*
X105428344Y-110113298D01*
X105640989Y-110071000D01*
X105966211Y-110071000D01*
X106178856Y-110113298D01*
X106178856Y-110113298D01*
G37*
G36*
X149318185Y-108072660D02*
G01*
X149430948Y-108095090D01*
X149562941Y-108149763D01*
X149749608Y-108227083D01*
X150036396Y-108418709D01*
X150280291Y-108662604D01*
X150471917Y-108949392D01*
X150603910Y-109268053D01*
X150671200Y-109606340D01*
X150671200Y-109951260D01*
X150603910Y-110289547D01*
X150471917Y-110608208D01*
X150280291Y-110894996D01*
X150036396Y-111138891D01*
X149749608Y-111330517D01*
X149562941Y-111407837D01*
X149430948Y-111462510D01*
X149318185Y-111484940D01*
X149092660Y-111529800D01*
X148747740Y-111529800D01*
X148522215Y-111484940D01*
X148409452Y-111462510D01*
X148277459Y-111407837D01*
X148090792Y-111330517D01*
X147804004Y-111138891D01*
X147560109Y-110894996D01*
X147368483Y-110608208D01*
X147236490Y-110289547D01*
X147169200Y-109951260D01*
X147169200Y-109606340D01*
X147236490Y-109268053D01*
X147368483Y-108949392D01*
X147560109Y-108662604D01*
X147804004Y-108418709D01*
X148090792Y-108227083D01*
X148277459Y-108149763D01*
X148409452Y-108095090D01*
X148522215Y-108072660D01*
X148747740Y-108027800D01*
X149092660Y-108027800D01*
X149318185Y-108072660D01*
X149318185Y-108072660D01*
G37*
G36*
X138700985Y-107920260D02*
G01*
X138813748Y-107942690D01*
X138945741Y-107997363D01*
X139132408Y-108074683D01*
X139419196Y-108266309D01*
X139663091Y-108510204D01*
X139854717Y-108796992D01*
X139986710Y-109115653D01*
X140054000Y-109453940D01*
X140054000Y-109798860D01*
X139986710Y-110137147D01*
X139854717Y-110455808D01*
X139663091Y-110742596D01*
X139419196Y-110986491D01*
X139132408Y-111178117D01*
X138945741Y-111255437D01*
X138813748Y-111310110D01*
X138711160Y-111330516D01*
X138475460Y-111377400D01*
X138130540Y-111377400D01*
X137894840Y-111330516D01*
X137792252Y-111310110D01*
X137660259Y-111255437D01*
X137473592Y-111178117D01*
X137186804Y-110986491D01*
X136942909Y-110742596D01*
X136751283Y-110455808D01*
X136619290Y-110137147D01*
X136552000Y-109798860D01*
X136552000Y-109453940D01*
X136619290Y-109115653D01*
X136751283Y-108796992D01*
X136942909Y-108510204D01*
X137186804Y-108266309D01*
X137473592Y-108074683D01*
X137660259Y-107997363D01*
X137792252Y-107942690D01*
X137905015Y-107920260D01*
X138130540Y-107875400D01*
X138475460Y-107875400D01*
X138700985Y-107920260D01*
X138700985Y-107920260D01*
G37*
G36*
X111951362Y-108271781D02*
G01*
X111986281Y-108282374D01*
X112018463Y-108299576D01*
X112046673Y-108322727D01*
X112069824Y-108350937D01*
X112087026Y-108383119D01*
X112097619Y-108418038D01*
X112101800Y-108460495D01*
X112101800Y-109601705D01*
X112097619Y-109644162D01*
X112087026Y-109679081D01*
X112069824Y-109711263D01*
X112046673Y-109739473D01*
X112018463Y-109762624D01*
X111986281Y-109779826D01*
X111951362Y-109790419D01*
X111908905Y-109794600D01*
X110442695Y-109794600D01*
X110400238Y-109790419D01*
X110365319Y-109779826D01*
X110333137Y-109762624D01*
X110304927Y-109739473D01*
X110281776Y-109711263D01*
X110264574Y-109679081D01*
X110253981Y-109644162D01*
X110249800Y-109601705D01*
X110249800Y-108460495D01*
X110253981Y-108418038D01*
X110264574Y-108383119D01*
X110281776Y-108350937D01*
X110304927Y-108322727D01*
X110333137Y-108299576D01*
X110365319Y-108282374D01*
X110400238Y-108271781D01*
X110442695Y-108267600D01*
X111908905Y-108267600D01*
X111951362Y-108271781D01*
X111951362Y-108271781D01*
G37*
G36*
X114999362Y-108220981D02*
G01*
X115034281Y-108231574D01*
X115066463Y-108248776D01*
X115094673Y-108271927D01*
X115117824Y-108300137D01*
X115135026Y-108332319D01*
X115145619Y-108367238D01*
X115149800Y-108409695D01*
X115149800Y-109550905D01*
X115145619Y-109593362D01*
X115135026Y-109628281D01*
X115117824Y-109660463D01*
X115094673Y-109688673D01*
X115066463Y-109711824D01*
X115034281Y-109729026D01*
X114999362Y-109739619D01*
X114956905Y-109743800D01*
X113490695Y-109743800D01*
X113448238Y-109739619D01*
X113413319Y-109729026D01*
X113381137Y-109711824D01*
X113352927Y-109688673D01*
X113329776Y-109660463D01*
X113312574Y-109628281D01*
X113301981Y-109593362D01*
X113297800Y-109550905D01*
X113297800Y-108409695D01*
X113301981Y-108367238D01*
X113312574Y-108332319D01*
X113329776Y-108300137D01*
X113352927Y-108271927D01*
X113381137Y-108248776D01*
X113413319Y-108231574D01*
X113448238Y-108220981D01*
X113490695Y-108216800D01*
X114956905Y-108216800D01*
X114999362Y-108220981D01*
X114999362Y-108220981D01*
G37*
G36*
X117945762Y-108220981D02*
G01*
X117980681Y-108231574D01*
X118012863Y-108248776D01*
X118041073Y-108271927D01*
X118064224Y-108300137D01*
X118081426Y-108332319D01*
X118092019Y-108367238D01*
X118096200Y-108409695D01*
X118096200Y-109550905D01*
X118092019Y-109593362D01*
X118081426Y-109628281D01*
X118064224Y-109660463D01*
X118041073Y-109688673D01*
X118012863Y-109711824D01*
X117980681Y-109729026D01*
X117945762Y-109739619D01*
X117903305Y-109743800D01*
X116437095Y-109743800D01*
X116394638Y-109739619D01*
X116359719Y-109729026D01*
X116327537Y-109711824D01*
X116299327Y-109688673D01*
X116276176Y-109660463D01*
X116258974Y-109628281D01*
X116248381Y-109593362D01*
X116244200Y-109550905D01*
X116244200Y-108409695D01*
X116248381Y-108367238D01*
X116258974Y-108332319D01*
X116276176Y-108300137D01*
X116299327Y-108271927D01*
X116327537Y-108248776D01*
X116359719Y-108231574D01*
X116394638Y-108220981D01*
X116437095Y-108216800D01*
X117903305Y-108216800D01*
X117945762Y-108220981D01*
X117945762Y-108220981D01*
G37*
G36*
X120892162Y-108220981D02*
G01*
X120927081Y-108231574D01*
X120959263Y-108248776D01*
X120987473Y-108271927D01*
X121010624Y-108300137D01*
X121027826Y-108332319D01*
X121038419Y-108367238D01*
X121042600Y-108409695D01*
X121042600Y-109550905D01*
X121038419Y-109593362D01*
X121027826Y-109628281D01*
X121010624Y-109660463D01*
X120987473Y-109688673D01*
X120959263Y-109711824D01*
X120927081Y-109729026D01*
X120892162Y-109739619D01*
X120849705Y-109743800D01*
X119383495Y-109743800D01*
X119341038Y-109739619D01*
X119306119Y-109729026D01*
X119273937Y-109711824D01*
X119245727Y-109688673D01*
X119222576Y-109660463D01*
X119205374Y-109628281D01*
X119194781Y-109593362D01*
X119190600Y-109550905D01*
X119190600Y-108409695D01*
X119194781Y-108367238D01*
X119205374Y-108332319D01*
X119222576Y-108300137D01*
X119245727Y-108271927D01*
X119273937Y-108248776D01*
X119306119Y-108231574D01*
X119341038Y-108220981D01*
X119383495Y-108216800D01*
X120849705Y-108216800D01*
X120892162Y-108220981D01*
X120892162Y-108220981D01*
G37*
G36*
X125909564Y-105011389D02*
G01*
X126100833Y-105090615D01*
X126100835Y-105090616D01*
X126272973Y-105205635D01*
X126419365Y-105352027D01*
X126508546Y-105485495D01*
X126534385Y-105524167D01*
X126613611Y-105715436D01*
X126654000Y-105918484D01*
X126654000Y-106125516D01*
X126613611Y-106328564D01*
X126542225Y-106500905D01*
X126534384Y-106519835D01*
X126419365Y-106691973D01*
X126272973Y-106838365D01*
X126100835Y-106953384D01*
X126100834Y-106953385D01*
X126100833Y-106953385D01*
X125909564Y-107032611D01*
X125706516Y-107073000D01*
X125499484Y-107073000D01*
X125296436Y-107032611D01*
X125105167Y-106953385D01*
X125105166Y-106953385D01*
X125105165Y-106953384D01*
X124933027Y-106838365D01*
X124786635Y-106691973D01*
X124671616Y-106519835D01*
X124663775Y-106500905D01*
X124592389Y-106328564D01*
X124552000Y-106125516D01*
X124552000Y-105918484D01*
X124592389Y-105715436D01*
X124671615Y-105524167D01*
X124697455Y-105485495D01*
X124786635Y-105352027D01*
X124933027Y-105205635D01*
X125105165Y-105090616D01*
X125105167Y-105090615D01*
X125296436Y-105011389D01*
X125499484Y-104971000D01*
X125706516Y-104971000D01*
X125909564Y-105011389D01*
X125909564Y-105011389D01*
G37*
G36*
X130409564Y-105011389D02*
G01*
X130600833Y-105090615D01*
X130600835Y-105090616D01*
X130772973Y-105205635D01*
X130919365Y-105352027D01*
X131008546Y-105485495D01*
X131034385Y-105524167D01*
X131113611Y-105715436D01*
X131154000Y-105918484D01*
X131154000Y-106125516D01*
X131113611Y-106328564D01*
X131042225Y-106500905D01*
X131034384Y-106519835D01*
X130919365Y-106691973D01*
X130772973Y-106838365D01*
X130600835Y-106953384D01*
X130600834Y-106953385D01*
X130600833Y-106953385D01*
X130409564Y-107032611D01*
X130206516Y-107073000D01*
X129999484Y-107073000D01*
X129796436Y-107032611D01*
X129605167Y-106953385D01*
X129605166Y-106953385D01*
X129605165Y-106953384D01*
X129433027Y-106838365D01*
X129286635Y-106691973D01*
X129171616Y-106519835D01*
X129163775Y-106500905D01*
X129092389Y-106328564D01*
X129052000Y-106125516D01*
X129052000Y-105918484D01*
X129092389Y-105715436D01*
X129171615Y-105524167D01*
X129197455Y-105485495D01*
X129286635Y-105352027D01*
X129433027Y-105205635D01*
X129605165Y-105090616D01*
X129605167Y-105090615D01*
X129796436Y-105011389D01*
X129999484Y-104971000D01*
X130206516Y-104971000D01*
X130409564Y-105011389D01*
X130409564Y-105011389D01*
G37*
G36*
X111951362Y-105296781D02*
G01*
X111986281Y-105307374D01*
X112018463Y-105324576D01*
X112046673Y-105347727D01*
X112069824Y-105375937D01*
X112087026Y-105408119D01*
X112097619Y-105443038D01*
X112101800Y-105485495D01*
X112101800Y-106626705D01*
X112097619Y-106669162D01*
X112087026Y-106704081D01*
X112069824Y-106736263D01*
X112046673Y-106764473D01*
X112018463Y-106787624D01*
X111986281Y-106804826D01*
X111951362Y-106815419D01*
X111908905Y-106819600D01*
X110442695Y-106819600D01*
X110400238Y-106815419D01*
X110365319Y-106804826D01*
X110333137Y-106787624D01*
X110304927Y-106764473D01*
X110281776Y-106736263D01*
X110264574Y-106704081D01*
X110253981Y-106669162D01*
X110249800Y-106626705D01*
X110249800Y-105485495D01*
X110253981Y-105443038D01*
X110264574Y-105408119D01*
X110281776Y-105375937D01*
X110304927Y-105347727D01*
X110333137Y-105324576D01*
X110365319Y-105307374D01*
X110400238Y-105296781D01*
X110442695Y-105292600D01*
X111908905Y-105292600D01*
X111951362Y-105296781D01*
X111951362Y-105296781D01*
G37*
G36*
X117945762Y-105245981D02*
G01*
X117980681Y-105256574D01*
X118012863Y-105273776D01*
X118041073Y-105296927D01*
X118064224Y-105325137D01*
X118081426Y-105357319D01*
X118092019Y-105392238D01*
X118096200Y-105434695D01*
X118096200Y-106575905D01*
X118092019Y-106618362D01*
X118081426Y-106653281D01*
X118064224Y-106685463D01*
X118041073Y-106713673D01*
X118012863Y-106736824D01*
X117980681Y-106754026D01*
X117945762Y-106764619D01*
X117903305Y-106768800D01*
X116437095Y-106768800D01*
X116394638Y-106764619D01*
X116359719Y-106754026D01*
X116327537Y-106736824D01*
X116299327Y-106713673D01*
X116276176Y-106685463D01*
X116258974Y-106653281D01*
X116248381Y-106618362D01*
X116244200Y-106575905D01*
X116244200Y-105434695D01*
X116248381Y-105392238D01*
X116258974Y-105357319D01*
X116276176Y-105325137D01*
X116299327Y-105296927D01*
X116327537Y-105273776D01*
X116359719Y-105256574D01*
X116394638Y-105245981D01*
X116437095Y-105241800D01*
X117903305Y-105241800D01*
X117945762Y-105245981D01*
X117945762Y-105245981D01*
G37*
G36*
X114999362Y-105245981D02*
G01*
X115034281Y-105256574D01*
X115066463Y-105273776D01*
X115094673Y-105296927D01*
X115117824Y-105325137D01*
X115135026Y-105357319D01*
X115145619Y-105392238D01*
X115149800Y-105434695D01*
X115149800Y-106575905D01*
X115145619Y-106618362D01*
X115135026Y-106653281D01*
X115117824Y-106685463D01*
X115094673Y-106713673D01*
X115066463Y-106736824D01*
X115034281Y-106754026D01*
X114999362Y-106764619D01*
X114956905Y-106768800D01*
X113490695Y-106768800D01*
X113448238Y-106764619D01*
X113413319Y-106754026D01*
X113381137Y-106736824D01*
X113352927Y-106713673D01*
X113329776Y-106685463D01*
X113312574Y-106653281D01*
X113301981Y-106618362D01*
X113297800Y-106575905D01*
X113297800Y-105434695D01*
X113301981Y-105392238D01*
X113312574Y-105357319D01*
X113329776Y-105325137D01*
X113352927Y-105296927D01*
X113381137Y-105273776D01*
X113413319Y-105256574D01*
X113448238Y-105245981D01*
X113490695Y-105241800D01*
X114956905Y-105241800D01*
X114999362Y-105245981D01*
X114999362Y-105245981D01*
G37*
G36*
X120892162Y-105245981D02*
G01*
X120927081Y-105256574D01*
X120959263Y-105273776D01*
X120987473Y-105296927D01*
X121010624Y-105325137D01*
X121027826Y-105357319D01*
X121038419Y-105392238D01*
X121042600Y-105434695D01*
X121042600Y-106575905D01*
X121038419Y-106618362D01*
X121027826Y-106653281D01*
X121010624Y-106685463D01*
X120987473Y-106713673D01*
X120959263Y-106736824D01*
X120927081Y-106754026D01*
X120892162Y-106764619D01*
X120849705Y-106768800D01*
X119383495Y-106768800D01*
X119341038Y-106764619D01*
X119306119Y-106754026D01*
X119273937Y-106736824D01*
X119245727Y-106713673D01*
X119222576Y-106685463D01*
X119205374Y-106653281D01*
X119194781Y-106618362D01*
X119190600Y-106575905D01*
X119190600Y-105434695D01*
X119194781Y-105392238D01*
X119205374Y-105357319D01*
X119222576Y-105325137D01*
X119245727Y-105296927D01*
X119273937Y-105273776D01*
X119306119Y-105256574D01*
X119341038Y-105245981D01*
X119383495Y-105241800D01*
X120849705Y-105241800D01*
X120892162Y-105245981D01*
X120892162Y-105245981D01*
G37*
G36*
X151575331Y-99982136D02*
G01*
X151678244Y-99992272D01*
X151855776Y-100046126D01*
X151942337Y-100072384D01*
X152171802Y-100195036D01*
X152185720Y-100202475D01*
X152241291Y-100248082D01*
X152399050Y-100377550D01*
X152484686Y-100481899D01*
X152574125Y-100590880D01*
X152574126Y-100590882D01*
X152704216Y-100834263D01*
X152704217Y-100834267D01*
X152784328Y-101098356D01*
X152811378Y-101373000D01*
X152784328Y-101647644D01*
X152725062Y-101843017D01*
X152704216Y-101911737D01*
X152581564Y-102141202D01*
X152574125Y-102155120D01*
X152528518Y-102210691D01*
X152399050Y-102368450D01*
X152241291Y-102497918D01*
X152185720Y-102543525D01*
X152185718Y-102543526D01*
X151942337Y-102673616D01*
X151873617Y-102694462D01*
X151678244Y-102753728D01*
X151575331Y-102763864D01*
X151472420Y-102774000D01*
X150734780Y-102774000D01*
X150631869Y-102763864D01*
X150528956Y-102753728D01*
X150333583Y-102694462D01*
X150264863Y-102673616D01*
X150021482Y-102543526D01*
X150021480Y-102543525D01*
X149965909Y-102497918D01*
X149808150Y-102368450D01*
X149678682Y-102210691D01*
X149633075Y-102155120D01*
X149625636Y-102141202D01*
X149502984Y-101911737D01*
X149482138Y-101843017D01*
X149422872Y-101647644D01*
X149395822Y-101373000D01*
X149422872Y-101098356D01*
X149502983Y-100834267D01*
X149502984Y-100834263D01*
X149633074Y-100590882D01*
X149633075Y-100590880D01*
X149722514Y-100481899D01*
X149808150Y-100377550D01*
X149965909Y-100248082D01*
X150021480Y-100202475D01*
X150035398Y-100195036D01*
X150264863Y-100072384D01*
X150351424Y-100046126D01*
X150528956Y-99992272D01*
X150631869Y-99982136D01*
X150734780Y-99972000D01*
X151472420Y-99972000D01*
X151575331Y-99982136D01*
X151575331Y-99982136D01*
G37*
G36*
X157075331Y-99982136D02*
G01*
X157178244Y-99992272D01*
X157355776Y-100046126D01*
X157442337Y-100072384D01*
X157671802Y-100195036D01*
X157685720Y-100202475D01*
X157741291Y-100248082D01*
X157899050Y-100377550D01*
X157984686Y-100481899D01*
X158074125Y-100590880D01*
X158074126Y-100590882D01*
X158204216Y-100834263D01*
X158204217Y-100834267D01*
X158284328Y-101098356D01*
X158311378Y-101373000D01*
X158284328Y-101647644D01*
X158225062Y-101843017D01*
X158204216Y-101911737D01*
X158081564Y-102141202D01*
X158074125Y-102155120D01*
X158028518Y-102210691D01*
X157899050Y-102368450D01*
X157741291Y-102497918D01*
X157685720Y-102543525D01*
X157685718Y-102543526D01*
X157442337Y-102673616D01*
X157373617Y-102694462D01*
X157178244Y-102753728D01*
X157075331Y-102763864D01*
X156972420Y-102774000D01*
X156234780Y-102774000D01*
X156131869Y-102763864D01*
X156028956Y-102753728D01*
X155833583Y-102694462D01*
X155764863Y-102673616D01*
X155521482Y-102543526D01*
X155521480Y-102543525D01*
X155465909Y-102497918D01*
X155308150Y-102368450D01*
X155178682Y-102210691D01*
X155133075Y-102155120D01*
X155125636Y-102141202D01*
X155002984Y-101911737D01*
X154982138Y-101843017D01*
X154922872Y-101647644D01*
X154895822Y-101373000D01*
X154922872Y-101098356D01*
X155002983Y-100834267D01*
X155002984Y-100834263D01*
X155133074Y-100590882D01*
X155133075Y-100590880D01*
X155222514Y-100481899D01*
X155308150Y-100377550D01*
X155465909Y-100248082D01*
X155521480Y-100202475D01*
X155535398Y-100195036D01*
X155764863Y-100072384D01*
X155851424Y-100046126D01*
X156028956Y-99992272D01*
X156131869Y-99982136D01*
X156234780Y-99972000D01*
X156972420Y-99972000D01*
X157075331Y-99982136D01*
X157075331Y-99982136D01*
G37*
G36*
X108487874Y-100470465D02*
G01*
X108525567Y-100481899D01*
X108560303Y-100500466D01*
X108590748Y-100525452D01*
X108615734Y-100555897D01*
X108634301Y-100590633D01*
X108645735Y-100628326D01*
X108650200Y-100673661D01*
X108650200Y-101510339D01*
X108645735Y-101555674D01*
X108634301Y-101593367D01*
X108615734Y-101628103D01*
X108590748Y-101658548D01*
X108560303Y-101683534D01*
X108525567Y-101702101D01*
X108487874Y-101713535D01*
X108442539Y-101718000D01*
X107355861Y-101718000D01*
X107310526Y-101713535D01*
X107272833Y-101702101D01*
X107238097Y-101683534D01*
X107207652Y-101658548D01*
X107182666Y-101628103D01*
X107164099Y-101593367D01*
X107152665Y-101555674D01*
X107148200Y-101510339D01*
X107148200Y-100673661D01*
X107152665Y-100628326D01*
X107164099Y-100590633D01*
X107182666Y-100555897D01*
X107207652Y-100525452D01*
X107238097Y-100500466D01*
X107272833Y-100481899D01*
X107310526Y-100470465D01*
X107355861Y-100466000D01*
X108442539Y-100466000D01*
X108487874Y-100470465D01*
X108487874Y-100470465D01*
G37*
G36*
X116880874Y-99888265D02*
G01*
X116918567Y-99899699D01*
X116953303Y-99918266D01*
X116983748Y-99943252D01*
X117008734Y-99973697D01*
X117027301Y-100008433D01*
X117038735Y-100046126D01*
X117043200Y-100091461D01*
X117043200Y-101178139D01*
X117038735Y-101223474D01*
X117027301Y-101261167D01*
X117008734Y-101295903D01*
X116983748Y-101326348D01*
X116953303Y-101351334D01*
X116918567Y-101369901D01*
X116880874Y-101381335D01*
X116835539Y-101385800D01*
X115998861Y-101385800D01*
X115953526Y-101381335D01*
X115915833Y-101369901D01*
X115881097Y-101351334D01*
X115850652Y-101326348D01*
X115825666Y-101295903D01*
X115807099Y-101261167D01*
X115795665Y-101223474D01*
X115791200Y-101178139D01*
X115791200Y-100091461D01*
X115795665Y-100046126D01*
X115807099Y-100008433D01*
X115825666Y-99973697D01*
X115850652Y-99943252D01*
X115881097Y-99918266D01*
X115915833Y-99899699D01*
X115953526Y-99888265D01*
X115998861Y-99883800D01*
X116835539Y-99883800D01*
X116880874Y-99888265D01*
X116880874Y-99888265D01*
G37*
G36*
X114830874Y-99888265D02*
G01*
X114868567Y-99899699D01*
X114903303Y-99918266D01*
X114933748Y-99943252D01*
X114958734Y-99973697D01*
X114977301Y-100008433D01*
X114988735Y-100046126D01*
X114993200Y-100091461D01*
X114993200Y-101178139D01*
X114988735Y-101223474D01*
X114977301Y-101261167D01*
X114958734Y-101295903D01*
X114933748Y-101326348D01*
X114903303Y-101351334D01*
X114868567Y-101369901D01*
X114830874Y-101381335D01*
X114785539Y-101385800D01*
X113948861Y-101385800D01*
X113903526Y-101381335D01*
X113865833Y-101369901D01*
X113831097Y-101351334D01*
X113800652Y-101326348D01*
X113775666Y-101295903D01*
X113757099Y-101261167D01*
X113745665Y-101223474D01*
X113741200Y-101178139D01*
X113741200Y-100091461D01*
X113745665Y-100046126D01*
X113757099Y-100008433D01*
X113775666Y-99973697D01*
X113800652Y-99943252D01*
X113831097Y-99918266D01*
X113865833Y-99899699D01*
X113903526Y-99888265D01*
X113948861Y-99883800D01*
X114785539Y-99883800D01*
X114830874Y-99888265D01*
X114830874Y-99888265D01*
G37*
G36*
X121130074Y-99634265D02*
G01*
X121167767Y-99645699D01*
X121202503Y-99664266D01*
X121232948Y-99689252D01*
X121257934Y-99719697D01*
X121276501Y-99754433D01*
X121287935Y-99792126D01*
X121292400Y-99837461D01*
X121292400Y-100924139D01*
X121287935Y-100969474D01*
X121276501Y-101007167D01*
X121257934Y-101041903D01*
X121232948Y-101072348D01*
X121202503Y-101097334D01*
X121167767Y-101115901D01*
X121130074Y-101127335D01*
X121084739Y-101131800D01*
X120248061Y-101131800D01*
X120202726Y-101127335D01*
X120165033Y-101115901D01*
X120130297Y-101097334D01*
X120099852Y-101072348D01*
X120074866Y-101041903D01*
X120056299Y-101007167D01*
X120044865Y-100969474D01*
X120040400Y-100924139D01*
X120040400Y-99837461D01*
X120044865Y-99792126D01*
X120056299Y-99754433D01*
X120074866Y-99719697D01*
X120099852Y-99689252D01*
X120130297Y-99664266D01*
X120165033Y-99645699D01*
X120202726Y-99634265D01*
X120248061Y-99629800D01*
X121084739Y-99629800D01*
X121130074Y-99634265D01*
X121130074Y-99634265D01*
G37*
G36*
X123180074Y-99634265D02*
G01*
X123217767Y-99645699D01*
X123252503Y-99664266D01*
X123282948Y-99689252D01*
X123307934Y-99719697D01*
X123326501Y-99754433D01*
X123337935Y-99792126D01*
X123342400Y-99837461D01*
X123342400Y-100924139D01*
X123337935Y-100969474D01*
X123326501Y-101007167D01*
X123307934Y-101041903D01*
X123282948Y-101072348D01*
X123252503Y-101097334D01*
X123217767Y-101115901D01*
X123180074Y-101127335D01*
X123134739Y-101131800D01*
X122298061Y-101131800D01*
X122252726Y-101127335D01*
X122215033Y-101115901D01*
X122180297Y-101097334D01*
X122149852Y-101072348D01*
X122124866Y-101041903D01*
X122106299Y-101007167D01*
X122094865Y-100969474D01*
X122090400Y-100924139D01*
X122090400Y-99837461D01*
X122094865Y-99792126D01*
X122106299Y-99754433D01*
X122124866Y-99719697D01*
X122149852Y-99689252D01*
X122180297Y-99664266D01*
X122215033Y-99645699D01*
X122252726Y-99634265D01*
X122298061Y-99629800D01*
X123134739Y-99629800D01*
X123180074Y-99634265D01*
X123180074Y-99634265D01*
G37*
G36*
X130190474Y-98211865D02*
G01*
X130228167Y-98223299D01*
X130262903Y-98241866D01*
X130293348Y-98266852D01*
X130318334Y-98297297D01*
X130336901Y-98332033D01*
X130348335Y-98369726D01*
X130352800Y-98415061D01*
X130352800Y-99501739D01*
X130348335Y-99547074D01*
X130336901Y-99584767D01*
X130318334Y-99619503D01*
X130293348Y-99649948D01*
X130262903Y-99674934D01*
X130228167Y-99693501D01*
X130190474Y-99704935D01*
X130145139Y-99709400D01*
X129308461Y-99709400D01*
X129263126Y-99704935D01*
X129225433Y-99693501D01*
X129190697Y-99674934D01*
X129160252Y-99649948D01*
X129135266Y-99619503D01*
X129116699Y-99584767D01*
X129105265Y-99547074D01*
X129100800Y-99501739D01*
X129100800Y-98415061D01*
X129105265Y-98369726D01*
X129116699Y-98332033D01*
X129135266Y-98297297D01*
X129160252Y-98266852D01*
X129190697Y-98241866D01*
X129225433Y-98223299D01*
X129263126Y-98211865D01*
X129308461Y-98207400D01*
X130145139Y-98207400D01*
X130190474Y-98211865D01*
X130190474Y-98211865D01*
G37*
G36*
X128140474Y-98211865D02*
G01*
X128178167Y-98223299D01*
X128212903Y-98241866D01*
X128243348Y-98266852D01*
X128268334Y-98297297D01*
X128286901Y-98332033D01*
X128298335Y-98369726D01*
X128302800Y-98415061D01*
X128302800Y-99501739D01*
X128298335Y-99547074D01*
X128286901Y-99584767D01*
X128268334Y-99619503D01*
X128243348Y-99649948D01*
X128212903Y-99674934D01*
X128178167Y-99693501D01*
X128140474Y-99704935D01*
X128095139Y-99709400D01*
X127258461Y-99709400D01*
X127213126Y-99704935D01*
X127175433Y-99693501D01*
X127140697Y-99674934D01*
X127110252Y-99649948D01*
X127085266Y-99619503D01*
X127066699Y-99584767D01*
X127055265Y-99547074D01*
X127050800Y-99501739D01*
X127050800Y-98415061D01*
X127055265Y-98369726D01*
X127066699Y-98332033D01*
X127085266Y-98297297D01*
X127110252Y-98266852D01*
X127140697Y-98241866D01*
X127175433Y-98223299D01*
X127213126Y-98211865D01*
X127258461Y-98207400D01*
X128095139Y-98207400D01*
X128140474Y-98211865D01*
X128140474Y-98211865D01*
G37*
G36*
X108487874Y-98420465D02*
G01*
X108525567Y-98431899D01*
X108560303Y-98450466D01*
X108590748Y-98475452D01*
X108615734Y-98505897D01*
X108634301Y-98540633D01*
X108645735Y-98578326D01*
X108650200Y-98623661D01*
X108650200Y-99460339D01*
X108645735Y-99505674D01*
X108634301Y-99543367D01*
X108615734Y-99578103D01*
X108590748Y-99608548D01*
X108560303Y-99633534D01*
X108525567Y-99652101D01*
X108487874Y-99663535D01*
X108442539Y-99668000D01*
X107355861Y-99668000D01*
X107310526Y-99663535D01*
X107272833Y-99652101D01*
X107238097Y-99633534D01*
X107207652Y-99608548D01*
X107182666Y-99578103D01*
X107164099Y-99543367D01*
X107152665Y-99505674D01*
X107148200Y-99460339D01*
X107148200Y-98623661D01*
X107152665Y-98578326D01*
X107164099Y-98540633D01*
X107182666Y-98505897D01*
X107207652Y-98475452D01*
X107238097Y-98450466D01*
X107272833Y-98431899D01*
X107310526Y-98420465D01*
X107355861Y-98416000D01*
X108442539Y-98416000D01*
X108487874Y-98420465D01*
X108487874Y-98420465D01*
G37*
G36*
X138828174Y-97406065D02*
G01*
X138865867Y-97417499D01*
X138900603Y-97436066D01*
X138931048Y-97461052D01*
X138956034Y-97491497D01*
X138974601Y-97526233D01*
X138986035Y-97563926D01*
X138990500Y-97609261D01*
X138990500Y-98445939D01*
X138986035Y-98491274D01*
X138974601Y-98528967D01*
X138956034Y-98563703D01*
X138931048Y-98594148D01*
X138900603Y-98619134D01*
X138865867Y-98637701D01*
X138828174Y-98649135D01*
X138782839Y-98653600D01*
X137696161Y-98653600D01*
X137650826Y-98649135D01*
X137613133Y-98637701D01*
X137578397Y-98619134D01*
X137547952Y-98594148D01*
X137522966Y-98563703D01*
X137504399Y-98528967D01*
X137492965Y-98491274D01*
X137488500Y-98445939D01*
X137488500Y-97609261D01*
X137492965Y-97563926D01*
X137504399Y-97526233D01*
X137522966Y-97491497D01*
X137547952Y-97461052D01*
X137578397Y-97436066D01*
X137613133Y-97417499D01*
X137650826Y-97406065D01*
X137696161Y-97401600D01*
X138782839Y-97401600D01*
X138828174Y-97406065D01*
X138828174Y-97406065D01*
G37*
G36*
X157075331Y-95782136D02*
G01*
X157178244Y-95792272D01*
X157373617Y-95851538D01*
X157442337Y-95872384D01*
X157671802Y-95995036D01*
X157685720Y-96002475D01*
X157741291Y-96048082D01*
X157899050Y-96177550D01*
X157980569Y-96276882D01*
X158074125Y-96390880D01*
X158074126Y-96390882D01*
X158204216Y-96634263D01*
X158204217Y-96634267D01*
X158284328Y-96898356D01*
X158311378Y-97173000D01*
X158284328Y-97447644D01*
X158235302Y-97609261D01*
X158204216Y-97711737D01*
X158081564Y-97941202D01*
X158074125Y-97955120D01*
X158028518Y-98010691D01*
X157899050Y-98168450D01*
X157779146Y-98266852D01*
X157685720Y-98343525D01*
X157685718Y-98343526D01*
X157442337Y-98473616D01*
X157436284Y-98475452D01*
X157178244Y-98553728D01*
X157076966Y-98563703D01*
X156972420Y-98574000D01*
X156234780Y-98574000D01*
X156130234Y-98563703D01*
X156028956Y-98553728D01*
X155770916Y-98475452D01*
X155764863Y-98473616D01*
X155521482Y-98343526D01*
X155521480Y-98343525D01*
X155428054Y-98266852D01*
X155308150Y-98168450D01*
X155178682Y-98010691D01*
X155133075Y-97955120D01*
X155125636Y-97941202D01*
X155002984Y-97711737D01*
X154971898Y-97609261D01*
X154922872Y-97447644D01*
X154895822Y-97173000D01*
X154922872Y-96898356D01*
X155002983Y-96634267D01*
X155002984Y-96634263D01*
X155133074Y-96390882D01*
X155133075Y-96390880D01*
X155226631Y-96276882D01*
X155308150Y-96177550D01*
X155465909Y-96048082D01*
X155521480Y-96002475D01*
X155535398Y-95995036D01*
X155764863Y-95872384D01*
X155833583Y-95851538D01*
X156028956Y-95792272D01*
X156131869Y-95782136D01*
X156234780Y-95772000D01*
X156972420Y-95772000D01*
X157075331Y-95782136D01*
X157075331Y-95782136D01*
G37*
G36*
X151575331Y-95782136D02*
G01*
X151678244Y-95792272D01*
X151873617Y-95851538D01*
X151942337Y-95872384D01*
X152171802Y-95995036D01*
X152185720Y-96002475D01*
X152241291Y-96048082D01*
X152399050Y-96177550D01*
X152480569Y-96276882D01*
X152574125Y-96390880D01*
X152574126Y-96390882D01*
X152704216Y-96634263D01*
X152704217Y-96634267D01*
X152784328Y-96898356D01*
X152811378Y-97173000D01*
X152784328Y-97447644D01*
X152735302Y-97609261D01*
X152704216Y-97711737D01*
X152581564Y-97941202D01*
X152574125Y-97955120D01*
X152528518Y-98010691D01*
X152399050Y-98168450D01*
X152279146Y-98266852D01*
X152185720Y-98343525D01*
X152185718Y-98343526D01*
X151942337Y-98473616D01*
X151936284Y-98475452D01*
X151678244Y-98553728D01*
X151576966Y-98563703D01*
X151472420Y-98574000D01*
X150734780Y-98574000D01*
X150630234Y-98563703D01*
X150528956Y-98553728D01*
X150270916Y-98475452D01*
X150264863Y-98473616D01*
X150021482Y-98343526D01*
X150021480Y-98343525D01*
X149928054Y-98266852D01*
X149808150Y-98168450D01*
X149678682Y-98010691D01*
X149633075Y-97955120D01*
X149625636Y-97941202D01*
X149502984Y-97711737D01*
X149471898Y-97609261D01*
X149422872Y-97447644D01*
X149395822Y-97173000D01*
X149422872Y-96898356D01*
X149502983Y-96634267D01*
X149502984Y-96634263D01*
X149633074Y-96390882D01*
X149633075Y-96390880D01*
X149726631Y-96276882D01*
X149808150Y-96177550D01*
X149965909Y-96048082D01*
X150021480Y-96002475D01*
X150035398Y-95995036D01*
X150264863Y-95872384D01*
X150333583Y-95851538D01*
X150528956Y-95792272D01*
X150631869Y-95782136D01*
X150734780Y-95772000D01*
X151472420Y-95772000D01*
X151575331Y-95782136D01*
X151575331Y-95782136D01*
G37*
G36*
X138828174Y-95356065D02*
G01*
X138865867Y-95367499D01*
X138900603Y-95386066D01*
X138931048Y-95411052D01*
X138956034Y-95441497D01*
X138974601Y-95476233D01*
X138986035Y-95513926D01*
X138990500Y-95559261D01*
X138990500Y-96395939D01*
X138986035Y-96441274D01*
X138974601Y-96478967D01*
X138956034Y-96513703D01*
X138931048Y-96544148D01*
X138900603Y-96569134D01*
X138865867Y-96587701D01*
X138828174Y-96599135D01*
X138782839Y-96603600D01*
X137696161Y-96603600D01*
X137650826Y-96599135D01*
X137613133Y-96587701D01*
X137578397Y-96569134D01*
X137547952Y-96544148D01*
X137522966Y-96513703D01*
X137504399Y-96478967D01*
X137492965Y-96441274D01*
X137488500Y-96395939D01*
X137488500Y-95559261D01*
X137492965Y-95513926D01*
X137504399Y-95476233D01*
X137522966Y-95441497D01*
X137547952Y-95411052D01*
X137578397Y-95386066D01*
X137613133Y-95367499D01*
X137650826Y-95356065D01*
X137696161Y-95351600D01*
X138782839Y-95351600D01*
X138828174Y-95356065D01*
X138828174Y-95356065D01*
G37*
G36*
X142631174Y-94859065D02*
G01*
X142668867Y-94870499D01*
X142703603Y-94889066D01*
X142734048Y-94914052D01*
X142759034Y-94944497D01*
X142777601Y-94979233D01*
X142789035Y-95016926D01*
X142793500Y-95062261D01*
X142793500Y-96148939D01*
X142789035Y-96194274D01*
X142777601Y-96231967D01*
X142759034Y-96266703D01*
X142734048Y-96297148D01*
X142703603Y-96322134D01*
X142668867Y-96340701D01*
X142631174Y-96352135D01*
X142585839Y-96356600D01*
X141749161Y-96356600D01*
X141703826Y-96352135D01*
X141666133Y-96340701D01*
X141631397Y-96322134D01*
X141600952Y-96297148D01*
X141575966Y-96266703D01*
X141557399Y-96231967D01*
X141545965Y-96194274D01*
X141541500Y-96148939D01*
X141541500Y-95062261D01*
X141545965Y-95016926D01*
X141557399Y-94979233D01*
X141575966Y-94944497D01*
X141600952Y-94914052D01*
X141631397Y-94889066D01*
X141666133Y-94870499D01*
X141703826Y-94859065D01*
X141749161Y-94854600D01*
X142585839Y-94854600D01*
X142631174Y-94859065D01*
X142631174Y-94859065D01*
G37*
G36*
X144681174Y-94859065D02*
G01*
X144718867Y-94870499D01*
X144753603Y-94889066D01*
X144784048Y-94914052D01*
X144809034Y-94944497D01*
X144827601Y-94979233D01*
X144839035Y-95016926D01*
X144843500Y-95062261D01*
X144843500Y-96148939D01*
X144839035Y-96194274D01*
X144827601Y-96231967D01*
X144809034Y-96266703D01*
X144784048Y-96297148D01*
X144753603Y-96322134D01*
X144718867Y-96340701D01*
X144681174Y-96352135D01*
X144635839Y-96356600D01*
X143799161Y-96356600D01*
X143753826Y-96352135D01*
X143716133Y-96340701D01*
X143681397Y-96322134D01*
X143650952Y-96297148D01*
X143625966Y-96266703D01*
X143607399Y-96231967D01*
X143595965Y-96194274D01*
X143591500Y-96148939D01*
X143591500Y-95062261D01*
X143595965Y-95016926D01*
X143607399Y-94979233D01*
X143625966Y-94944497D01*
X143650952Y-94914052D01*
X143681397Y-94889066D01*
X143716133Y-94870499D01*
X143753826Y-94859065D01*
X143799161Y-94854600D01*
X144635839Y-94854600D01*
X144681174Y-94859065D01*
X144681174Y-94859065D01*
G37*
G36*
X151575331Y-91582136D02*
G01*
X151678244Y-91592272D01*
X151873617Y-91651538D01*
X151942337Y-91672384D01*
X152134563Y-91775131D01*
X152185720Y-91802475D01*
X152241291Y-91848082D01*
X152399050Y-91977550D01*
X152528518Y-92135309D01*
X152574125Y-92190880D01*
X152574126Y-92190882D01*
X152704216Y-92434263D01*
X152704217Y-92434267D01*
X152784328Y-92698356D01*
X152811378Y-92973000D01*
X152784328Y-93247644D01*
X152725062Y-93443017D01*
X152704216Y-93511737D01*
X152581564Y-93741202D01*
X152574125Y-93755120D01*
X152528518Y-93810691D01*
X152399050Y-93968450D01*
X152241291Y-94097918D01*
X152185720Y-94143525D01*
X152185718Y-94143526D01*
X151942337Y-94273616D01*
X151873617Y-94294462D01*
X151678244Y-94353728D01*
X151575331Y-94363864D01*
X151472420Y-94374000D01*
X150734780Y-94374000D01*
X150631869Y-94363864D01*
X150528956Y-94353728D01*
X150333583Y-94294462D01*
X150264863Y-94273616D01*
X150021482Y-94143526D01*
X150021480Y-94143525D01*
X149965909Y-94097918D01*
X149808150Y-93968450D01*
X149678682Y-93810691D01*
X149633075Y-93755120D01*
X149625636Y-93741202D01*
X149502984Y-93511737D01*
X149482138Y-93443017D01*
X149422872Y-93247644D01*
X149395822Y-92973000D01*
X149422872Y-92698356D01*
X149502983Y-92434267D01*
X149502984Y-92434263D01*
X149633074Y-92190882D01*
X149633075Y-92190880D01*
X149678682Y-92135309D01*
X149808150Y-91977550D01*
X149965909Y-91848082D01*
X150021480Y-91802475D01*
X150072637Y-91775131D01*
X150264863Y-91672384D01*
X150333583Y-91651538D01*
X150528956Y-91592272D01*
X150631869Y-91582136D01*
X150734780Y-91572000D01*
X151472420Y-91572000D01*
X151575331Y-91582136D01*
X151575331Y-91582136D01*
G37*
G36*
X157075331Y-91582136D02*
G01*
X157178244Y-91592272D01*
X157373617Y-91651538D01*
X157442337Y-91672384D01*
X157634563Y-91775131D01*
X157685720Y-91802475D01*
X157741291Y-91848082D01*
X157899050Y-91977550D01*
X158028518Y-92135309D01*
X158074125Y-92190880D01*
X158074126Y-92190882D01*
X158204216Y-92434263D01*
X158204217Y-92434267D01*
X158284328Y-92698356D01*
X158311378Y-92973000D01*
X158284328Y-93247644D01*
X158225062Y-93443017D01*
X158204216Y-93511737D01*
X158081564Y-93741202D01*
X158074125Y-93755120D01*
X158028518Y-93810691D01*
X157899050Y-93968450D01*
X157741291Y-94097918D01*
X157685720Y-94143525D01*
X157685718Y-94143526D01*
X157442337Y-94273616D01*
X157373617Y-94294462D01*
X157178244Y-94353728D01*
X157075331Y-94363864D01*
X156972420Y-94374000D01*
X156234780Y-94374000D01*
X156131869Y-94363864D01*
X156028956Y-94353728D01*
X155833583Y-94294462D01*
X155764863Y-94273616D01*
X155521482Y-94143526D01*
X155521480Y-94143525D01*
X155465909Y-94097918D01*
X155308150Y-93968450D01*
X155178682Y-93810691D01*
X155133075Y-93755120D01*
X155125636Y-93741202D01*
X155002984Y-93511737D01*
X154982138Y-93443017D01*
X154922872Y-93247644D01*
X154895822Y-92973000D01*
X154922872Y-92698356D01*
X155002983Y-92434267D01*
X155002984Y-92434263D01*
X155133074Y-92190882D01*
X155133075Y-92190880D01*
X155178682Y-92135309D01*
X155308150Y-91977550D01*
X155465909Y-91848082D01*
X155521480Y-91802475D01*
X155572637Y-91775131D01*
X155764863Y-91672384D01*
X155833583Y-91651538D01*
X156028956Y-91592272D01*
X156131869Y-91582136D01*
X156234780Y-91572000D01*
X156972420Y-91572000D01*
X157075331Y-91582136D01*
X157075331Y-91582136D01*
G37*
G36*
X108437074Y-90573465D02*
G01*
X108474767Y-90584899D01*
X108509503Y-90603466D01*
X108539948Y-90628452D01*
X108564934Y-90658897D01*
X108583501Y-90693633D01*
X108594935Y-90731326D01*
X108599400Y-90776661D01*
X108599400Y-91613339D01*
X108594935Y-91658674D01*
X108583501Y-91696367D01*
X108564934Y-91731103D01*
X108539948Y-91761548D01*
X108509503Y-91786534D01*
X108474767Y-91805101D01*
X108437074Y-91816535D01*
X108391739Y-91821000D01*
X107305061Y-91821000D01*
X107259726Y-91816535D01*
X107222033Y-91805101D01*
X107187297Y-91786534D01*
X107156852Y-91761548D01*
X107131866Y-91731103D01*
X107113299Y-91696367D01*
X107101865Y-91658674D01*
X107097400Y-91613339D01*
X107097400Y-90776661D01*
X107101865Y-90731326D01*
X107113299Y-90693633D01*
X107131866Y-90658897D01*
X107156852Y-90628452D01*
X107187297Y-90603466D01*
X107222033Y-90584899D01*
X107259726Y-90573465D01*
X107305061Y-90569000D01*
X108391739Y-90569000D01*
X108437074Y-90573465D01*
X108437074Y-90573465D01*
G37*
G36*
X151575331Y-87382136D02*
G01*
X151678244Y-87392272D01*
X151873617Y-87451538D01*
X151942337Y-87472384D01*
X152145225Y-87580830D01*
X152185720Y-87602475D01*
X152241291Y-87648082D01*
X152399050Y-87777550D01*
X152528518Y-87935309D01*
X152574125Y-87990880D01*
X152574126Y-87990882D01*
X152704216Y-88234263D01*
X152704217Y-88234267D01*
X152784328Y-88498356D01*
X152811378Y-88773000D01*
X152784328Y-89047644D01*
X152725062Y-89243017D01*
X152704216Y-89311737D01*
X152604214Y-89498827D01*
X152574125Y-89555120D01*
X152530174Y-89608674D01*
X152399050Y-89768450D01*
X152241291Y-89897918D01*
X152185720Y-89943525D01*
X152185718Y-89943526D01*
X151942337Y-90073616D01*
X151873617Y-90094462D01*
X151678244Y-90153728D01*
X151575331Y-90163864D01*
X151472420Y-90174000D01*
X150734780Y-90174000D01*
X150631869Y-90163864D01*
X150528956Y-90153728D01*
X150333583Y-90094462D01*
X150264863Y-90073616D01*
X150021482Y-89943526D01*
X150021480Y-89943525D01*
X149965909Y-89897918D01*
X149808150Y-89768450D01*
X149677026Y-89608674D01*
X149633075Y-89555120D01*
X149602986Y-89498827D01*
X149502984Y-89311737D01*
X149482138Y-89243017D01*
X149422872Y-89047644D01*
X149395822Y-88773000D01*
X149422872Y-88498356D01*
X149502983Y-88234267D01*
X149502984Y-88234263D01*
X149633074Y-87990882D01*
X149633075Y-87990880D01*
X149678682Y-87935309D01*
X149808150Y-87777550D01*
X149965909Y-87648082D01*
X150021480Y-87602475D01*
X150061975Y-87580830D01*
X150264863Y-87472384D01*
X150333583Y-87451538D01*
X150528956Y-87392272D01*
X150631869Y-87382136D01*
X150734780Y-87372000D01*
X151472420Y-87372000D01*
X151575331Y-87382136D01*
X151575331Y-87382136D01*
G37*
G36*
X158177631Y-87375621D02*
G01*
X158207086Y-87384556D01*
X158234223Y-87399062D01*
X158258014Y-87418586D01*
X158277538Y-87442377D01*
X158292044Y-87469514D01*
X158300979Y-87498969D01*
X158304600Y-87535734D01*
X158304600Y-90010266D01*
X158300979Y-90047031D01*
X158292044Y-90076486D01*
X158277538Y-90103623D01*
X158258014Y-90127414D01*
X158234223Y-90146938D01*
X158207086Y-90161444D01*
X158177631Y-90170379D01*
X158140866Y-90174000D01*
X155066334Y-90174000D01*
X155029569Y-90170379D01*
X155000114Y-90161444D01*
X154972977Y-90146938D01*
X154949186Y-90127414D01*
X154929662Y-90103623D01*
X154915156Y-90076486D01*
X154906221Y-90047031D01*
X154902600Y-90010266D01*
X154902600Y-87535734D01*
X154906221Y-87498969D01*
X154915156Y-87469514D01*
X154929662Y-87442377D01*
X154949186Y-87418586D01*
X154972977Y-87399062D01*
X155000114Y-87384556D01*
X155029569Y-87375621D01*
X155066334Y-87372000D01*
X158140866Y-87372000D01*
X158177631Y-87375621D01*
X158177631Y-87375621D01*
G37*
G36*
X108437074Y-88523465D02*
G01*
X108474767Y-88534899D01*
X108509503Y-88553466D01*
X108539948Y-88578452D01*
X108564934Y-88608897D01*
X108583501Y-88643633D01*
X108594935Y-88681326D01*
X108599400Y-88726661D01*
X108599400Y-89563339D01*
X108594935Y-89608674D01*
X108583501Y-89646367D01*
X108564934Y-89681103D01*
X108539948Y-89711548D01*
X108509503Y-89736534D01*
X108474767Y-89755101D01*
X108437074Y-89766535D01*
X108391739Y-89771000D01*
X107305061Y-89771000D01*
X107259726Y-89766535D01*
X107222033Y-89755101D01*
X107187297Y-89736534D01*
X107156852Y-89711548D01*
X107131866Y-89681103D01*
X107113299Y-89646367D01*
X107101865Y-89608674D01*
X107097400Y-89563339D01*
X107097400Y-88726661D01*
X107101865Y-88681326D01*
X107113299Y-88643633D01*
X107131866Y-88608897D01*
X107156852Y-88578452D01*
X107187297Y-88553466D01*
X107222033Y-88534899D01*
X107259726Y-88523465D01*
X107305061Y-88519000D01*
X108391739Y-88519000D01*
X108437074Y-88523465D01*
X108437074Y-88523465D01*
G37*
G36*
X132832074Y-87137465D02*
G01*
X132869767Y-87148899D01*
X132904503Y-87167466D01*
X132934948Y-87192452D01*
X132959934Y-87222897D01*
X132978501Y-87257633D01*
X132989935Y-87295326D01*
X132994400Y-87340661D01*
X132994400Y-88427339D01*
X132989935Y-88472674D01*
X132978501Y-88510367D01*
X132959934Y-88545103D01*
X132934948Y-88575548D01*
X132904503Y-88600534D01*
X132869767Y-88619101D01*
X132832074Y-88630535D01*
X132786739Y-88635000D01*
X131950061Y-88635000D01*
X131904726Y-88630535D01*
X131867033Y-88619101D01*
X131832297Y-88600534D01*
X131801852Y-88575548D01*
X131776866Y-88545103D01*
X131758299Y-88510367D01*
X131746865Y-88472674D01*
X131742400Y-88427339D01*
X131742400Y-87340661D01*
X131746865Y-87295326D01*
X131758299Y-87257633D01*
X131776866Y-87222897D01*
X131801852Y-87192452D01*
X131832297Y-87167466D01*
X131867033Y-87148899D01*
X131904726Y-87137465D01*
X131950061Y-87133000D01*
X132786739Y-87133000D01*
X132832074Y-87137465D01*
X132832074Y-87137465D01*
G37*
G36*
X130782074Y-87137465D02*
G01*
X130819767Y-87148899D01*
X130854503Y-87167466D01*
X130884948Y-87192452D01*
X130909934Y-87222897D01*
X130928501Y-87257633D01*
X130939935Y-87295326D01*
X130944400Y-87340661D01*
X130944400Y-88427339D01*
X130939935Y-88472674D01*
X130928501Y-88510367D01*
X130909934Y-88545103D01*
X130884948Y-88575548D01*
X130854503Y-88600534D01*
X130819767Y-88619101D01*
X130782074Y-88630535D01*
X130736739Y-88635000D01*
X129900061Y-88635000D01*
X129854726Y-88630535D01*
X129817033Y-88619101D01*
X129782297Y-88600534D01*
X129751852Y-88575548D01*
X129726866Y-88545103D01*
X129708299Y-88510367D01*
X129696865Y-88472674D01*
X129692400Y-88427339D01*
X129692400Y-87340661D01*
X129696865Y-87295326D01*
X129708299Y-87257633D01*
X129726866Y-87222897D01*
X129751852Y-87192452D01*
X129782297Y-87167466D01*
X129817033Y-87148899D01*
X129854726Y-87137465D01*
X129900061Y-87133000D01*
X130736739Y-87133000D01*
X130782074Y-87137465D01*
X130782074Y-87137465D01*
G37*
G36*
X141749174Y-85776565D02*
G01*
X141786867Y-85787999D01*
X141821603Y-85806566D01*
X141852048Y-85831552D01*
X141877034Y-85861997D01*
X141895601Y-85896733D01*
X141907035Y-85934426D01*
X141911500Y-85979761D01*
X141911500Y-86816439D01*
X141907035Y-86861774D01*
X141895601Y-86899467D01*
X141877034Y-86934203D01*
X141852048Y-86964648D01*
X141821603Y-86989634D01*
X141786867Y-87008201D01*
X141749174Y-87019635D01*
X141703839Y-87024100D01*
X140617161Y-87024100D01*
X140571826Y-87019635D01*
X140534133Y-87008201D01*
X140499397Y-86989634D01*
X140468952Y-86964648D01*
X140443966Y-86934203D01*
X140425399Y-86899467D01*
X140413965Y-86861774D01*
X140409500Y-86816439D01*
X140409500Y-85979761D01*
X140413965Y-85934426D01*
X140425399Y-85896733D01*
X140443966Y-85861997D01*
X140468952Y-85831552D01*
X140499397Y-85806566D01*
X140534133Y-85787999D01*
X140571826Y-85776565D01*
X140617161Y-85772100D01*
X141703839Y-85772100D01*
X141749174Y-85776565D01*
X141749174Y-85776565D01*
G37*
G36*
X146748662Y-84930181D02*
G01*
X146783581Y-84940774D01*
X146815763Y-84957976D01*
X146843973Y-84981127D01*
X146867124Y-85009337D01*
X146884326Y-85041519D01*
X146894919Y-85076438D01*
X146899100Y-85118895D01*
X146899100Y-86585105D01*
X146894919Y-86627562D01*
X146884326Y-86662481D01*
X146867124Y-86694663D01*
X146843973Y-86722873D01*
X146815763Y-86746024D01*
X146783581Y-86763226D01*
X146748662Y-86773819D01*
X146706205Y-86778000D01*
X145564995Y-86778000D01*
X145522538Y-86773819D01*
X145487619Y-86763226D01*
X145455437Y-86746024D01*
X145427227Y-86722873D01*
X145404076Y-86694663D01*
X145386874Y-86662481D01*
X145376281Y-86627562D01*
X145372100Y-86585105D01*
X145372100Y-85118895D01*
X145376281Y-85076438D01*
X145386874Y-85041519D01*
X145404076Y-85009337D01*
X145427227Y-84981127D01*
X145455437Y-84957976D01*
X145487619Y-84940774D01*
X145522538Y-84930181D01*
X145564995Y-84926000D01*
X146706205Y-84926000D01*
X146748662Y-84930181D01*
X146748662Y-84930181D01*
G37*
G36*
X154857662Y-84930181D02*
G01*
X154892581Y-84940774D01*
X154924763Y-84957976D01*
X154952973Y-84981127D01*
X154976124Y-85009337D01*
X154993326Y-85041519D01*
X155003919Y-85076438D01*
X155008100Y-85118895D01*
X155008100Y-86585105D01*
X155003919Y-86627562D01*
X154993326Y-86662481D01*
X154976124Y-86694663D01*
X154952973Y-86722873D01*
X154924763Y-86746024D01*
X154892581Y-86763226D01*
X154857662Y-86773819D01*
X154815205Y-86778000D01*
X153673995Y-86778000D01*
X153631538Y-86773819D01*
X153596619Y-86763226D01*
X153564437Y-86746024D01*
X153536227Y-86722873D01*
X153513076Y-86694663D01*
X153495874Y-86662481D01*
X153485281Y-86627562D01*
X153481100Y-86585105D01*
X153481100Y-85118895D01*
X153485281Y-85076438D01*
X153495874Y-85041519D01*
X153513076Y-85009337D01*
X153536227Y-84981127D01*
X153564437Y-84957976D01*
X153596619Y-84940774D01*
X153631538Y-84930181D01*
X153673995Y-84926000D01*
X154815205Y-84926000D01*
X154857662Y-84930181D01*
X154857662Y-84930181D01*
G37*
G36*
X149723662Y-84930181D02*
G01*
X149758581Y-84940774D01*
X149790763Y-84957976D01*
X149818973Y-84981127D01*
X149842124Y-85009337D01*
X149859326Y-85041519D01*
X149869919Y-85076438D01*
X149874100Y-85118895D01*
X149874100Y-86585105D01*
X149869919Y-86627562D01*
X149859326Y-86662481D01*
X149842124Y-86694663D01*
X149818973Y-86722873D01*
X149790763Y-86746024D01*
X149758581Y-86763226D01*
X149723662Y-86773819D01*
X149681205Y-86778000D01*
X148539995Y-86778000D01*
X148497538Y-86773819D01*
X148462619Y-86763226D01*
X148430437Y-86746024D01*
X148402227Y-86722873D01*
X148379076Y-86694663D01*
X148361874Y-86662481D01*
X148351281Y-86627562D01*
X148347100Y-86585105D01*
X148347100Y-85118895D01*
X148351281Y-85076438D01*
X148361874Y-85041519D01*
X148379076Y-85009337D01*
X148402227Y-84981127D01*
X148430437Y-84957976D01*
X148462619Y-84940774D01*
X148497538Y-84930181D01*
X148539995Y-84926000D01*
X149681205Y-84926000D01*
X149723662Y-84930181D01*
X149723662Y-84930181D01*
G37*
G36*
X151882662Y-84930181D02*
G01*
X151917581Y-84940774D01*
X151949763Y-84957976D01*
X151977973Y-84981127D01*
X152001124Y-85009337D01*
X152018326Y-85041519D01*
X152028919Y-85076438D01*
X152033100Y-85118895D01*
X152033100Y-86585105D01*
X152028919Y-86627562D01*
X152018326Y-86662481D01*
X152001124Y-86694663D01*
X151977973Y-86722873D01*
X151949763Y-86746024D01*
X151917581Y-86763226D01*
X151882662Y-86773819D01*
X151840205Y-86778000D01*
X150698995Y-86778000D01*
X150656538Y-86773819D01*
X150621619Y-86763226D01*
X150589437Y-86746024D01*
X150561227Y-86722873D01*
X150538076Y-86694663D01*
X150520874Y-86662481D01*
X150510281Y-86627562D01*
X150506100Y-86585105D01*
X150506100Y-85118895D01*
X150510281Y-85076438D01*
X150520874Y-85041519D01*
X150538076Y-85009337D01*
X150561227Y-84981127D01*
X150589437Y-84957976D01*
X150621619Y-84940774D01*
X150656538Y-84930181D01*
X150698995Y-84926000D01*
X151840205Y-84926000D01*
X151882662Y-84930181D01*
X151882662Y-84930181D01*
G37*
G36*
X141749174Y-83726565D02*
G01*
X141786867Y-83737999D01*
X141821603Y-83756566D01*
X141852048Y-83781552D01*
X141877034Y-83811997D01*
X141895601Y-83846733D01*
X141907035Y-83884426D01*
X141911500Y-83929761D01*
X141911500Y-84766439D01*
X141907035Y-84811774D01*
X141895601Y-84849467D01*
X141877034Y-84884203D01*
X141852048Y-84914648D01*
X141821603Y-84939634D01*
X141786867Y-84958201D01*
X141749174Y-84969635D01*
X141703839Y-84974100D01*
X140617161Y-84974100D01*
X140571826Y-84969635D01*
X140534133Y-84958201D01*
X140499397Y-84939634D01*
X140468952Y-84914648D01*
X140443966Y-84884203D01*
X140425399Y-84849467D01*
X140413965Y-84811774D01*
X140409500Y-84766439D01*
X140409500Y-83929761D01*
X140413965Y-83884426D01*
X140425399Y-83846733D01*
X140443966Y-83811997D01*
X140468952Y-83781552D01*
X140499397Y-83756566D01*
X140534133Y-83737999D01*
X140571826Y-83726565D01*
X140617161Y-83722100D01*
X141703839Y-83722100D01*
X141749174Y-83726565D01*
X141749174Y-83726565D01*
G37*
G36*
X149687162Y-82390181D02*
G01*
X149722081Y-82400774D01*
X149754263Y-82417976D01*
X149782473Y-82441127D01*
X149805624Y-82469337D01*
X149822826Y-82501519D01*
X149833419Y-82536438D01*
X149837600Y-82578895D01*
X149837600Y-84045105D01*
X149833419Y-84087562D01*
X149822826Y-84122481D01*
X149805624Y-84154663D01*
X149782473Y-84182873D01*
X149754263Y-84206024D01*
X149722081Y-84223226D01*
X149687162Y-84233819D01*
X149644705Y-84238000D01*
X148503495Y-84238000D01*
X148461038Y-84233819D01*
X148426119Y-84223226D01*
X148393937Y-84206024D01*
X148365727Y-84182873D01*
X148342576Y-84154663D01*
X148325374Y-84122481D01*
X148314781Y-84087562D01*
X148310600Y-84045105D01*
X148310600Y-82578895D01*
X148314781Y-82536438D01*
X148325374Y-82501519D01*
X148342576Y-82469337D01*
X148365727Y-82441127D01*
X148393937Y-82417976D01*
X148426119Y-82400774D01*
X148461038Y-82390181D01*
X148503495Y-82386000D01*
X149644705Y-82386000D01*
X149687162Y-82390181D01*
X149687162Y-82390181D01*
G37*
G36*
X151882662Y-82390181D02*
G01*
X151917581Y-82400774D01*
X151949763Y-82417976D01*
X151977973Y-82441127D01*
X152001124Y-82469337D01*
X152018326Y-82501519D01*
X152028919Y-82536438D01*
X152033100Y-82578895D01*
X152033100Y-84045105D01*
X152028919Y-84087562D01*
X152018326Y-84122481D01*
X152001124Y-84154663D01*
X151977973Y-84182873D01*
X151949763Y-84206024D01*
X151917581Y-84223226D01*
X151882662Y-84233819D01*
X151840205Y-84238000D01*
X150698995Y-84238000D01*
X150656538Y-84233819D01*
X150621619Y-84223226D01*
X150589437Y-84206024D01*
X150561227Y-84182873D01*
X150538076Y-84154663D01*
X150520874Y-84122481D01*
X150510281Y-84087562D01*
X150506100Y-84045105D01*
X150506100Y-82578895D01*
X150510281Y-82536438D01*
X150520874Y-82501519D01*
X150538076Y-82469337D01*
X150561227Y-82441127D01*
X150589437Y-82417976D01*
X150621619Y-82400774D01*
X150656538Y-82390181D01*
X150698995Y-82386000D01*
X151840205Y-82386000D01*
X151882662Y-82390181D01*
X151882662Y-82390181D01*
G37*
G36*
X154857662Y-82390181D02*
G01*
X154892581Y-82400774D01*
X154924763Y-82417976D01*
X154952973Y-82441127D01*
X154976124Y-82469337D01*
X154993326Y-82501519D01*
X155003919Y-82536438D01*
X155008100Y-82578895D01*
X155008100Y-84045105D01*
X155003919Y-84087562D01*
X154993326Y-84122481D01*
X154976124Y-84154663D01*
X154952973Y-84182873D01*
X154924763Y-84206024D01*
X154892581Y-84223226D01*
X154857662Y-84233819D01*
X154815205Y-84238000D01*
X153673995Y-84238000D01*
X153631538Y-84233819D01*
X153596619Y-84223226D01*
X153564437Y-84206024D01*
X153536227Y-84182873D01*
X153513076Y-84154663D01*
X153495874Y-84122481D01*
X153485281Y-84087562D01*
X153481100Y-84045105D01*
X153481100Y-82578895D01*
X153485281Y-82536438D01*
X153495874Y-82501519D01*
X153513076Y-82469337D01*
X153536227Y-82441127D01*
X153564437Y-82417976D01*
X153596619Y-82400774D01*
X153631538Y-82390181D01*
X153673995Y-82386000D01*
X154815205Y-82386000D01*
X154857662Y-82390181D01*
X154857662Y-82390181D01*
G37*
G36*
X146712162Y-82390181D02*
G01*
X146747081Y-82400774D01*
X146779263Y-82417976D01*
X146807473Y-82441127D01*
X146830624Y-82469337D01*
X146847826Y-82501519D01*
X146858419Y-82536438D01*
X146862600Y-82578895D01*
X146862600Y-84045105D01*
X146858419Y-84087562D01*
X146847826Y-84122481D01*
X146830624Y-84154663D01*
X146807473Y-84182873D01*
X146779263Y-84206024D01*
X146747081Y-84223226D01*
X146712162Y-84233819D01*
X146669705Y-84238000D01*
X145528495Y-84238000D01*
X145486038Y-84233819D01*
X145451119Y-84223226D01*
X145418937Y-84206024D01*
X145390727Y-84182873D01*
X145367576Y-84154663D01*
X145350374Y-84122481D01*
X145339781Y-84087562D01*
X145335600Y-84045105D01*
X145335600Y-82578895D01*
X145339781Y-82536438D01*
X145350374Y-82501519D01*
X145367576Y-82469337D01*
X145390727Y-82441127D01*
X145418937Y-82417976D01*
X145451119Y-82400774D01*
X145486038Y-82390181D01*
X145528495Y-82386000D01*
X146669705Y-82386000D01*
X146712162Y-82390181D01*
X146712162Y-82390181D01*
G37*
G36*
X153647274Y-80279465D02*
G01*
X153684967Y-80290899D01*
X153719703Y-80309466D01*
X153750148Y-80334452D01*
X153775134Y-80364897D01*
X153793701Y-80399633D01*
X153805135Y-80437326D01*
X153809600Y-80482661D01*
X153809600Y-81569339D01*
X153805135Y-81614674D01*
X153793701Y-81652367D01*
X153775134Y-81687103D01*
X153750148Y-81717548D01*
X153719703Y-81742534D01*
X153684967Y-81761101D01*
X153647274Y-81772535D01*
X153601939Y-81777000D01*
X152765261Y-81777000D01*
X152719926Y-81772535D01*
X152682233Y-81761101D01*
X152647497Y-81742534D01*
X152617052Y-81717548D01*
X152592066Y-81687103D01*
X152573499Y-81652367D01*
X152562065Y-81614674D01*
X152557600Y-81569339D01*
X152557600Y-80482661D01*
X152562065Y-80437326D01*
X152573499Y-80399633D01*
X152592066Y-80364897D01*
X152617052Y-80334452D01*
X152647497Y-80309466D01*
X152682233Y-80290899D01*
X152719926Y-80279465D01*
X152765261Y-80275000D01*
X153601939Y-80275000D01*
X153647274Y-80279465D01*
X153647274Y-80279465D01*
G37*
G36*
X149710274Y-80279465D02*
G01*
X149747967Y-80290899D01*
X149782703Y-80309466D01*
X149813148Y-80334452D01*
X149838134Y-80364897D01*
X149856701Y-80399633D01*
X149868135Y-80437326D01*
X149872600Y-80482661D01*
X149872600Y-81569339D01*
X149868135Y-81614674D01*
X149856701Y-81652367D01*
X149838134Y-81687103D01*
X149813148Y-81717548D01*
X149782703Y-81742534D01*
X149747967Y-81761101D01*
X149710274Y-81772535D01*
X149664939Y-81777000D01*
X148828261Y-81777000D01*
X148782926Y-81772535D01*
X148745233Y-81761101D01*
X148710497Y-81742534D01*
X148680052Y-81717548D01*
X148655066Y-81687103D01*
X148636499Y-81652367D01*
X148625065Y-81614674D01*
X148620600Y-81569339D01*
X148620600Y-80482661D01*
X148625065Y-80437326D01*
X148636499Y-80399633D01*
X148655066Y-80364897D01*
X148680052Y-80334452D01*
X148710497Y-80309466D01*
X148745233Y-80290899D01*
X148782926Y-80279465D01*
X148828261Y-80275000D01*
X149664939Y-80275000D01*
X149710274Y-80279465D01*
X149710274Y-80279465D01*
G37*
G36*
X151597274Y-80279465D02*
G01*
X151634967Y-80290899D01*
X151669703Y-80309466D01*
X151700148Y-80334452D01*
X151725134Y-80364897D01*
X151743701Y-80399633D01*
X151755135Y-80437326D01*
X151759600Y-80482661D01*
X151759600Y-81569339D01*
X151755135Y-81614674D01*
X151743701Y-81652367D01*
X151725134Y-81687103D01*
X151700148Y-81717548D01*
X151669703Y-81742534D01*
X151634967Y-81761101D01*
X151597274Y-81772535D01*
X151551939Y-81777000D01*
X150715261Y-81777000D01*
X150669926Y-81772535D01*
X150632233Y-81761101D01*
X150597497Y-81742534D01*
X150567052Y-81717548D01*
X150542066Y-81687103D01*
X150523499Y-81652367D01*
X150512065Y-81614674D01*
X150507600Y-81569339D01*
X150507600Y-80482661D01*
X150512065Y-80437326D01*
X150523499Y-80399633D01*
X150542066Y-80364897D01*
X150567052Y-80334452D01*
X150597497Y-80309466D01*
X150632233Y-80290899D01*
X150669926Y-80279465D01*
X150715261Y-80275000D01*
X151551939Y-80275000D01*
X151597274Y-80279465D01*
X151597274Y-80279465D01*
G37*
G36*
X147660274Y-80279465D02*
G01*
X147697967Y-80290899D01*
X147732703Y-80309466D01*
X147763148Y-80334452D01*
X147788134Y-80364897D01*
X147806701Y-80399633D01*
X147818135Y-80437326D01*
X147822600Y-80482661D01*
X147822600Y-81569339D01*
X147818135Y-81614674D01*
X147806701Y-81652367D01*
X147788134Y-81687103D01*
X147763148Y-81717548D01*
X147732703Y-81742534D01*
X147697967Y-81761101D01*
X147660274Y-81772535D01*
X147614939Y-81777000D01*
X146778261Y-81777000D01*
X146732926Y-81772535D01*
X146695233Y-81761101D01*
X146660497Y-81742534D01*
X146630052Y-81717548D01*
X146605066Y-81687103D01*
X146586499Y-81652367D01*
X146575065Y-81614674D01*
X146570600Y-81569339D01*
X146570600Y-80482661D01*
X146575065Y-80437326D01*
X146586499Y-80399633D01*
X146605066Y-80364897D01*
X146630052Y-80334452D01*
X146660497Y-80309466D01*
X146695233Y-80290899D01*
X146732926Y-80279465D01*
X146778261Y-80275000D01*
X147614939Y-80275000D01*
X147660274Y-80279465D01*
X147660274Y-80279465D01*
G37*
G36*
X140716762Y-79671381D02*
G01*
X140751681Y-79681974D01*
X140783863Y-79699176D01*
X140812073Y-79722327D01*
X140835224Y-79750537D01*
X140852426Y-79782719D01*
X140863019Y-79817638D01*
X140867200Y-79860095D01*
X140867200Y-81001305D01*
X140863019Y-81043762D01*
X140852426Y-81078681D01*
X140835224Y-81110863D01*
X140812073Y-81139073D01*
X140783863Y-81162224D01*
X140751681Y-81179426D01*
X140716762Y-81190019D01*
X140674305Y-81194200D01*
X139208095Y-81194200D01*
X139165638Y-81190019D01*
X139130719Y-81179426D01*
X139098537Y-81162224D01*
X139070327Y-81139073D01*
X139047176Y-81110863D01*
X139029974Y-81078681D01*
X139019381Y-81043762D01*
X139015200Y-81001305D01*
X139015200Y-79860095D01*
X139019381Y-79817638D01*
X139029974Y-79782719D01*
X139047176Y-79750537D01*
X139070327Y-79722327D01*
X139098537Y-79699176D01*
X139130719Y-79681974D01*
X139165638Y-79671381D01*
X139208095Y-79667200D01*
X140674305Y-79667200D01*
X140716762Y-79671381D01*
X140716762Y-79671381D01*
G37*
G36*
X143193362Y-79657081D02*
G01*
X143228281Y-79667674D01*
X143260463Y-79684876D01*
X143288673Y-79708027D01*
X143311824Y-79736237D01*
X143329026Y-79768419D01*
X143339619Y-79803338D01*
X143343800Y-79845795D01*
X143343800Y-80987005D01*
X143339619Y-81029462D01*
X143329026Y-81064381D01*
X143311824Y-81096563D01*
X143288673Y-81124773D01*
X143260463Y-81147924D01*
X143228281Y-81165126D01*
X143193362Y-81175719D01*
X143150905Y-81179900D01*
X141684695Y-81179900D01*
X141642238Y-81175719D01*
X141607319Y-81165126D01*
X141575137Y-81147924D01*
X141546927Y-81124773D01*
X141523776Y-81096563D01*
X141506574Y-81064381D01*
X141495981Y-81029462D01*
X141491800Y-80987005D01*
X141491800Y-79845795D01*
X141495981Y-79803338D01*
X141506574Y-79768419D01*
X141523776Y-79736237D01*
X141546927Y-79708027D01*
X141575137Y-79684876D01*
X141607319Y-79667674D01*
X141642238Y-79657081D01*
X141684695Y-79652900D01*
X143150905Y-79652900D01*
X143193362Y-79657081D01*
X143193362Y-79657081D01*
G37*
G36*
X157491200Y-80653400D02*
G01*
X155589200Y-80653400D01*
X155589200Y-77051400D01*
X157491200Y-77051400D01*
X157491200Y-80653400D01*
X157491200Y-80653400D01*
G37*
G36*
X116862874Y-76774265D02*
G01*
X116900567Y-76785699D01*
X116935303Y-76804266D01*
X116965748Y-76829252D01*
X116990734Y-76859697D01*
X117009301Y-76894433D01*
X117020735Y-76932126D01*
X117025200Y-76977461D01*
X117025200Y-78064139D01*
X117020735Y-78109474D01*
X117009301Y-78147167D01*
X116990734Y-78181903D01*
X116965748Y-78212348D01*
X116935303Y-78237334D01*
X116900567Y-78255901D01*
X116862874Y-78267335D01*
X116817539Y-78271800D01*
X115980861Y-78271800D01*
X115935526Y-78267335D01*
X115897833Y-78255901D01*
X115863097Y-78237334D01*
X115832652Y-78212348D01*
X115807666Y-78181903D01*
X115789099Y-78147167D01*
X115777665Y-78109474D01*
X115773200Y-78064139D01*
X115773200Y-76977461D01*
X115777665Y-76932126D01*
X115789099Y-76894433D01*
X115807666Y-76859697D01*
X115832652Y-76829252D01*
X115863097Y-76804266D01*
X115897833Y-76785699D01*
X115935526Y-76774265D01*
X115980861Y-76769800D01*
X116817539Y-76769800D01*
X116862874Y-76774265D01*
X116862874Y-76774265D01*
G37*
G36*
X118912874Y-76774265D02*
G01*
X118950567Y-76785699D01*
X118985303Y-76804266D01*
X119015748Y-76829252D01*
X119040734Y-76859697D01*
X119059301Y-76894433D01*
X119070735Y-76932126D01*
X119075200Y-76977461D01*
X119075200Y-78064139D01*
X119070735Y-78109474D01*
X119059301Y-78147167D01*
X119040734Y-78181903D01*
X119015748Y-78212348D01*
X118985303Y-78237334D01*
X118950567Y-78255901D01*
X118912874Y-78267335D01*
X118867539Y-78271800D01*
X118030861Y-78271800D01*
X117985526Y-78267335D01*
X117947833Y-78255901D01*
X117913097Y-78237334D01*
X117882652Y-78212348D01*
X117857666Y-78181903D01*
X117839099Y-78147167D01*
X117827665Y-78109474D01*
X117823200Y-78064139D01*
X117823200Y-76977461D01*
X117827665Y-76932126D01*
X117839099Y-76894433D01*
X117857666Y-76859697D01*
X117882652Y-76829252D01*
X117913097Y-76804266D01*
X117947833Y-76785699D01*
X117985526Y-76774265D01*
X118030861Y-76769800D01*
X118867539Y-76769800D01*
X118912874Y-76774265D01*
X118912874Y-76774265D01*
G37*
G36*
X140716762Y-76696381D02*
G01*
X140751681Y-76706974D01*
X140783863Y-76724176D01*
X140812073Y-76747327D01*
X140835224Y-76775537D01*
X140852426Y-76807719D01*
X140863019Y-76842638D01*
X140867200Y-76885095D01*
X140867200Y-78026305D01*
X140863019Y-78068762D01*
X140852426Y-78103681D01*
X140835224Y-78135863D01*
X140812073Y-78164073D01*
X140783863Y-78187224D01*
X140751681Y-78204426D01*
X140716762Y-78215019D01*
X140674305Y-78219200D01*
X139208095Y-78219200D01*
X139165638Y-78215019D01*
X139130719Y-78204426D01*
X139098537Y-78187224D01*
X139070327Y-78164073D01*
X139047176Y-78135863D01*
X139029974Y-78103681D01*
X139019381Y-78068762D01*
X139015200Y-78026305D01*
X139015200Y-76885095D01*
X139019381Y-76842638D01*
X139029974Y-76807719D01*
X139047176Y-76775537D01*
X139070327Y-76747327D01*
X139098537Y-76724176D01*
X139130719Y-76706974D01*
X139165638Y-76696381D01*
X139208095Y-76692200D01*
X140674305Y-76692200D01*
X140716762Y-76696381D01*
X140716762Y-76696381D01*
G37*
G36*
X143193362Y-76682081D02*
G01*
X143228281Y-76692674D01*
X143260463Y-76709876D01*
X143288673Y-76733027D01*
X143311824Y-76761237D01*
X143329026Y-76793419D01*
X143339619Y-76828338D01*
X143343800Y-76870795D01*
X143343800Y-78012005D01*
X143339619Y-78054462D01*
X143329026Y-78089381D01*
X143311824Y-78121563D01*
X143288673Y-78149773D01*
X143260463Y-78172924D01*
X143228281Y-78190126D01*
X143193362Y-78200719D01*
X143150905Y-78204900D01*
X141684695Y-78204900D01*
X141642238Y-78200719D01*
X141607319Y-78190126D01*
X141575137Y-78172924D01*
X141546927Y-78149773D01*
X141523776Y-78121563D01*
X141506574Y-78089381D01*
X141495981Y-78054462D01*
X141491800Y-78012005D01*
X141491800Y-76870795D01*
X141495981Y-76828338D01*
X141506574Y-76793419D01*
X141523776Y-76761237D01*
X141546927Y-76733027D01*
X141575137Y-76709876D01*
X141607319Y-76692674D01*
X141642238Y-76682081D01*
X141684695Y-76677900D01*
X143150905Y-76677900D01*
X143193362Y-76682081D01*
X143193362Y-76682081D01*
G37*
G36*
X153618274Y-75453465D02*
G01*
X153655967Y-75464899D01*
X153690703Y-75483466D01*
X153721148Y-75508452D01*
X153746134Y-75538897D01*
X153764701Y-75573633D01*
X153776135Y-75611326D01*
X153780600Y-75656661D01*
X153780600Y-76743339D01*
X153776135Y-76788674D01*
X153764701Y-76826367D01*
X153746134Y-76861103D01*
X153721148Y-76891548D01*
X153690703Y-76916534D01*
X153655967Y-76935101D01*
X153618274Y-76946535D01*
X153572939Y-76951000D01*
X152736261Y-76951000D01*
X152690926Y-76946535D01*
X152653233Y-76935101D01*
X152618497Y-76916534D01*
X152588052Y-76891548D01*
X152563066Y-76861103D01*
X152544499Y-76826367D01*
X152533065Y-76788674D01*
X152528600Y-76743339D01*
X152528600Y-75656661D01*
X152533065Y-75611326D01*
X152544499Y-75573633D01*
X152563066Y-75538897D01*
X152588052Y-75508452D01*
X152618497Y-75483466D01*
X152653233Y-75464899D01*
X152690926Y-75453465D01*
X152736261Y-75449000D01*
X153572939Y-75449000D01*
X153618274Y-75453465D01*
X153618274Y-75453465D01*
G37*
G36*
X151568274Y-75453465D02*
G01*
X151605967Y-75464899D01*
X151640703Y-75483466D01*
X151671148Y-75508452D01*
X151696134Y-75538897D01*
X151714701Y-75573633D01*
X151726135Y-75611326D01*
X151730600Y-75656661D01*
X151730600Y-76743339D01*
X151726135Y-76788674D01*
X151714701Y-76826367D01*
X151696134Y-76861103D01*
X151671148Y-76891548D01*
X151640703Y-76916534D01*
X151605967Y-76935101D01*
X151568274Y-76946535D01*
X151522939Y-76951000D01*
X150686261Y-76951000D01*
X150640926Y-76946535D01*
X150603233Y-76935101D01*
X150568497Y-76916534D01*
X150538052Y-76891548D01*
X150513066Y-76861103D01*
X150494499Y-76826367D01*
X150483065Y-76788674D01*
X150478600Y-76743339D01*
X150478600Y-75656661D01*
X150483065Y-75611326D01*
X150494499Y-75573633D01*
X150513066Y-75538897D01*
X150538052Y-75508452D01*
X150568497Y-75483466D01*
X150603233Y-75464899D01*
X150640926Y-75453465D01*
X150686261Y-75449000D01*
X151522939Y-75449000D01*
X151568274Y-75453465D01*
X151568274Y-75453465D01*
G37*
G36*
X157491200Y-75653400D02*
G01*
X155589200Y-75653400D01*
X155589200Y-72051400D01*
X157491200Y-72051400D01*
X157491200Y-75653400D01*
X157491200Y-75653400D01*
G37*
G36*
X153609274Y-72049865D02*
G01*
X153646967Y-72061299D01*
X153681703Y-72079866D01*
X153712148Y-72104852D01*
X153737134Y-72135297D01*
X153755701Y-72170033D01*
X153767135Y-72207726D01*
X153771600Y-72253061D01*
X153771600Y-73339739D01*
X153767135Y-73385074D01*
X153755701Y-73422767D01*
X153737134Y-73457503D01*
X153712148Y-73487948D01*
X153681703Y-73512934D01*
X153646967Y-73531501D01*
X153609274Y-73542935D01*
X153563939Y-73547400D01*
X152727261Y-73547400D01*
X152681926Y-73542935D01*
X152644233Y-73531501D01*
X152609497Y-73512934D01*
X152579052Y-73487948D01*
X152554066Y-73457503D01*
X152535499Y-73422767D01*
X152524065Y-73385074D01*
X152519600Y-73339739D01*
X152519600Y-72253061D01*
X152524065Y-72207726D01*
X152535499Y-72170033D01*
X152554066Y-72135297D01*
X152579052Y-72104852D01*
X152609497Y-72079866D01*
X152644233Y-72061299D01*
X152681926Y-72049865D01*
X152727261Y-72045400D01*
X153563939Y-72045400D01*
X153609274Y-72049865D01*
X153609274Y-72049865D01*
G37*
G36*
X151559274Y-72049865D02*
G01*
X151596967Y-72061299D01*
X151631703Y-72079866D01*
X151662148Y-72104852D01*
X151687134Y-72135297D01*
X151705701Y-72170033D01*
X151717135Y-72207726D01*
X151721600Y-72253061D01*
X151721600Y-73339739D01*
X151717135Y-73385074D01*
X151705701Y-73422767D01*
X151687134Y-73457503D01*
X151662148Y-73487948D01*
X151631703Y-73512934D01*
X151596967Y-73531501D01*
X151559274Y-73542935D01*
X151513939Y-73547400D01*
X150677261Y-73547400D01*
X150631926Y-73542935D01*
X150594233Y-73531501D01*
X150559497Y-73512934D01*
X150529052Y-73487948D01*
X150504066Y-73457503D01*
X150485499Y-73422767D01*
X150474065Y-73385074D01*
X150469600Y-73339739D01*
X150469600Y-72253061D01*
X150474065Y-72207726D01*
X150485499Y-72170033D01*
X150504066Y-72135297D01*
X150529052Y-72104852D01*
X150559497Y-72079866D01*
X150594233Y-72061299D01*
X150631926Y-72049865D01*
X150677261Y-72045400D01*
X151513939Y-72045400D01*
X151559274Y-72049865D01*
X151559274Y-72049865D01*
G37*
G36*
X141711074Y-69808965D02*
G01*
X141748767Y-69820399D01*
X141783503Y-69838966D01*
X141813948Y-69863952D01*
X141838934Y-69894397D01*
X141857501Y-69929133D01*
X141868935Y-69966826D01*
X141873400Y-70012161D01*
X141873400Y-70848839D01*
X141868935Y-70894174D01*
X141857501Y-70931867D01*
X141838934Y-70966603D01*
X141813948Y-70997048D01*
X141783503Y-71022034D01*
X141748767Y-71040601D01*
X141711074Y-71052035D01*
X141665739Y-71056500D01*
X140579061Y-71056500D01*
X140533726Y-71052035D01*
X140496033Y-71040601D01*
X140461297Y-71022034D01*
X140430852Y-70997048D01*
X140405866Y-70966603D01*
X140387299Y-70931867D01*
X140375865Y-70894174D01*
X140371400Y-70848839D01*
X140371400Y-70012161D01*
X140375865Y-69966826D01*
X140387299Y-69929133D01*
X140405866Y-69894397D01*
X140430852Y-69863952D01*
X140461297Y-69838966D01*
X140496033Y-69820399D01*
X140533726Y-69808965D01*
X140579061Y-69804500D01*
X141665739Y-69804500D01*
X141711074Y-69808965D01*
X141711074Y-69808965D01*
G37*
G36*
X151575331Y-67951136D02*
G01*
X151678244Y-67961272D01*
X151873617Y-68020538D01*
X151942337Y-68041384D01*
X152145225Y-68149830D01*
X152185720Y-68171475D01*
X152241291Y-68217082D01*
X152399050Y-68346550D01*
X152528518Y-68504309D01*
X152574125Y-68559880D01*
X152574126Y-68559882D01*
X152704216Y-68803263D01*
X152704217Y-68803267D01*
X152784328Y-69067356D01*
X152811378Y-69342000D01*
X152784328Y-69616644D01*
X152727342Y-69804500D01*
X152704216Y-69880737D01*
X152588123Y-70097931D01*
X152574125Y-70124120D01*
X152528518Y-70179691D01*
X152399050Y-70337450D01*
X152241291Y-70466918D01*
X152185720Y-70512525D01*
X152185718Y-70512526D01*
X151942337Y-70642616D01*
X151873617Y-70663462D01*
X151678244Y-70722728D01*
X151575331Y-70732864D01*
X151472420Y-70743000D01*
X150734780Y-70743000D01*
X150631869Y-70732864D01*
X150528956Y-70722728D01*
X150333583Y-70663462D01*
X150264863Y-70642616D01*
X150021482Y-70512526D01*
X150021480Y-70512525D01*
X149965909Y-70466918D01*
X149808150Y-70337450D01*
X149678682Y-70179691D01*
X149633075Y-70124120D01*
X149619077Y-70097931D01*
X149502984Y-69880737D01*
X149479858Y-69804500D01*
X149422872Y-69616644D01*
X149395822Y-69342000D01*
X149422872Y-69067356D01*
X149502983Y-68803267D01*
X149502984Y-68803263D01*
X149633074Y-68559882D01*
X149633075Y-68559880D01*
X149678682Y-68504309D01*
X149808150Y-68346550D01*
X149965909Y-68217082D01*
X150021480Y-68171475D01*
X150061975Y-68149830D01*
X150264863Y-68041384D01*
X150333583Y-68020538D01*
X150528956Y-67961272D01*
X150631869Y-67951136D01*
X150734780Y-67941000D01*
X151472420Y-67941000D01*
X151575331Y-67951136D01*
X151575331Y-67951136D01*
G37*
G36*
X158177631Y-67944621D02*
G01*
X158207086Y-67953556D01*
X158234223Y-67968062D01*
X158258014Y-67987586D01*
X158277538Y-68011377D01*
X158292044Y-68038514D01*
X158300979Y-68067969D01*
X158304600Y-68104734D01*
X158304600Y-70579266D01*
X158300979Y-70616031D01*
X158292044Y-70645486D01*
X158277538Y-70672623D01*
X158258014Y-70696414D01*
X158234223Y-70715938D01*
X158207086Y-70730444D01*
X158177631Y-70739379D01*
X158140866Y-70743000D01*
X155066334Y-70743000D01*
X155029569Y-70739379D01*
X155000114Y-70730444D01*
X154972977Y-70715938D01*
X154949186Y-70696414D01*
X154929662Y-70672623D01*
X154915156Y-70645486D01*
X154906221Y-70616031D01*
X154902600Y-70579266D01*
X154902600Y-68104734D01*
X154906221Y-68067969D01*
X154915156Y-68038514D01*
X154929662Y-68011377D01*
X154949186Y-67987586D01*
X154972977Y-67968062D01*
X155000114Y-67953556D01*
X155029569Y-67944621D01*
X155066334Y-67941000D01*
X158140866Y-67941000D01*
X158177631Y-67944621D01*
X158177631Y-67944621D01*
G37*
G36*
X133390874Y-68646265D02*
G01*
X133428567Y-68657699D01*
X133463303Y-68676266D01*
X133493748Y-68701252D01*
X133518734Y-68731697D01*
X133537301Y-68766433D01*
X133548735Y-68804126D01*
X133553200Y-68849461D01*
X133553200Y-69936139D01*
X133548735Y-69981474D01*
X133537301Y-70019167D01*
X133518734Y-70053903D01*
X133493748Y-70084348D01*
X133463303Y-70109334D01*
X133428567Y-70127901D01*
X133390874Y-70139335D01*
X133345539Y-70143800D01*
X132508861Y-70143800D01*
X132463526Y-70139335D01*
X132425833Y-70127901D01*
X132391097Y-70109334D01*
X132360652Y-70084348D01*
X132335666Y-70053903D01*
X132317099Y-70019167D01*
X132305665Y-69981474D01*
X132301200Y-69936139D01*
X132301200Y-68849461D01*
X132305665Y-68804126D01*
X132317099Y-68766433D01*
X132335666Y-68731697D01*
X132360652Y-68701252D01*
X132391097Y-68676266D01*
X132425833Y-68657699D01*
X132463526Y-68646265D01*
X132508861Y-68641800D01*
X133345539Y-68641800D01*
X133390874Y-68646265D01*
X133390874Y-68646265D01*
G37*
G36*
X131340874Y-68646265D02*
G01*
X131378567Y-68657699D01*
X131413303Y-68676266D01*
X131443748Y-68701252D01*
X131468734Y-68731697D01*
X131487301Y-68766433D01*
X131498735Y-68804126D01*
X131503200Y-68849461D01*
X131503200Y-69936139D01*
X131498735Y-69981474D01*
X131487301Y-70019167D01*
X131468734Y-70053903D01*
X131443748Y-70084348D01*
X131413303Y-70109334D01*
X131378567Y-70127901D01*
X131340874Y-70139335D01*
X131295539Y-70143800D01*
X130458861Y-70143800D01*
X130413526Y-70139335D01*
X130375833Y-70127901D01*
X130341097Y-70109334D01*
X130310652Y-70084348D01*
X130285666Y-70053903D01*
X130267099Y-70019167D01*
X130255665Y-69981474D01*
X130251200Y-69936139D01*
X130251200Y-68849461D01*
X130255665Y-68804126D01*
X130267099Y-68766433D01*
X130285666Y-68731697D01*
X130310652Y-68701252D01*
X130341097Y-68676266D01*
X130375833Y-68657699D01*
X130413526Y-68646265D01*
X130458861Y-68641800D01*
X131295539Y-68641800D01*
X131340874Y-68646265D01*
X131340874Y-68646265D01*
G37*
G36*
X127752074Y-68646265D02*
G01*
X127789767Y-68657699D01*
X127824503Y-68676266D01*
X127854948Y-68701252D01*
X127879934Y-68731697D01*
X127898501Y-68766433D01*
X127909935Y-68804126D01*
X127914400Y-68849461D01*
X127914400Y-69936139D01*
X127909935Y-69981474D01*
X127898501Y-70019167D01*
X127879934Y-70053903D01*
X127854948Y-70084348D01*
X127824503Y-70109334D01*
X127789767Y-70127901D01*
X127752074Y-70139335D01*
X127706739Y-70143800D01*
X126870061Y-70143800D01*
X126824726Y-70139335D01*
X126787033Y-70127901D01*
X126752297Y-70109334D01*
X126721852Y-70084348D01*
X126696866Y-70053903D01*
X126678299Y-70019167D01*
X126666865Y-69981474D01*
X126662400Y-69936139D01*
X126662400Y-68849461D01*
X126666865Y-68804126D01*
X126678299Y-68766433D01*
X126696866Y-68731697D01*
X126721852Y-68701252D01*
X126752297Y-68676266D01*
X126787033Y-68657699D01*
X126824726Y-68646265D01*
X126870061Y-68641800D01*
X127706739Y-68641800D01*
X127752074Y-68646265D01*
X127752074Y-68646265D01*
G37*
G36*
X125702074Y-68646265D02*
G01*
X125739767Y-68657699D01*
X125774503Y-68676266D01*
X125804948Y-68701252D01*
X125829934Y-68731697D01*
X125848501Y-68766433D01*
X125859935Y-68804126D01*
X125864400Y-68849461D01*
X125864400Y-69936139D01*
X125859935Y-69981474D01*
X125848501Y-70019167D01*
X125829934Y-70053903D01*
X125804948Y-70084348D01*
X125774503Y-70109334D01*
X125739767Y-70127901D01*
X125702074Y-70139335D01*
X125656739Y-70143800D01*
X124820061Y-70143800D01*
X124774726Y-70139335D01*
X124737033Y-70127901D01*
X124702297Y-70109334D01*
X124671852Y-70084348D01*
X124646866Y-70053903D01*
X124628299Y-70019167D01*
X124616865Y-69981474D01*
X124612400Y-69936139D01*
X124612400Y-68849461D01*
X124616865Y-68804126D01*
X124628299Y-68766433D01*
X124646866Y-68731697D01*
X124671852Y-68701252D01*
X124702297Y-68676266D01*
X124737033Y-68657699D01*
X124774726Y-68646265D01*
X124820061Y-68641800D01*
X125656739Y-68641800D01*
X125702074Y-68646265D01*
X125702074Y-68646265D01*
G37*
G36*
X141711074Y-67758965D02*
G01*
X141748767Y-67770399D01*
X141783503Y-67788966D01*
X141813948Y-67813952D01*
X141838934Y-67844397D01*
X141857501Y-67879133D01*
X141868935Y-67916826D01*
X141873400Y-67962161D01*
X141873400Y-68798839D01*
X141868935Y-68844174D01*
X141857501Y-68881867D01*
X141838934Y-68916603D01*
X141813948Y-68947048D01*
X141783503Y-68972034D01*
X141748767Y-68990601D01*
X141711074Y-69002035D01*
X141665739Y-69006500D01*
X140579061Y-69006500D01*
X140533726Y-69002035D01*
X140496033Y-68990601D01*
X140461297Y-68972034D01*
X140430852Y-68947048D01*
X140405866Y-68916603D01*
X140387299Y-68881867D01*
X140375865Y-68844174D01*
X140371400Y-68798839D01*
X140371400Y-67962161D01*
X140375865Y-67916826D01*
X140387299Y-67879133D01*
X140405866Y-67844397D01*
X140430852Y-67813952D01*
X140461297Y-67788966D01*
X140496033Y-67770399D01*
X140533726Y-67758965D01*
X140579061Y-67754500D01*
X141665739Y-67754500D01*
X141711074Y-67758965D01*
X141711074Y-67758965D01*
G37*
G36*
X119014474Y-66207865D02*
G01*
X119052167Y-66219299D01*
X119086903Y-66237866D01*
X119117348Y-66262852D01*
X119142334Y-66293297D01*
X119160901Y-66328033D01*
X119172335Y-66365726D01*
X119176800Y-66411061D01*
X119176800Y-67497739D01*
X119172335Y-67543074D01*
X119160901Y-67580767D01*
X119142334Y-67615503D01*
X119117348Y-67645948D01*
X119086903Y-67670934D01*
X119052167Y-67689501D01*
X119014474Y-67700935D01*
X118969139Y-67705400D01*
X118132461Y-67705400D01*
X118087126Y-67700935D01*
X118049433Y-67689501D01*
X118014697Y-67670934D01*
X117984252Y-67645948D01*
X117959266Y-67615503D01*
X117940699Y-67580767D01*
X117929265Y-67543074D01*
X117924800Y-67497739D01*
X117924800Y-66411061D01*
X117929265Y-66365726D01*
X117940699Y-66328033D01*
X117959266Y-66293297D01*
X117984252Y-66262852D01*
X118014697Y-66237866D01*
X118049433Y-66219299D01*
X118087126Y-66207865D01*
X118132461Y-66203400D01*
X118969139Y-66203400D01*
X119014474Y-66207865D01*
X119014474Y-66207865D01*
G37*
G36*
X116964474Y-66207865D02*
G01*
X117002167Y-66219299D01*
X117036903Y-66237866D01*
X117067348Y-66262852D01*
X117092334Y-66293297D01*
X117110901Y-66328033D01*
X117122335Y-66365726D01*
X117126800Y-66411061D01*
X117126800Y-67497739D01*
X117122335Y-67543074D01*
X117110901Y-67580767D01*
X117092334Y-67615503D01*
X117067348Y-67645948D01*
X117036903Y-67670934D01*
X117002167Y-67689501D01*
X116964474Y-67700935D01*
X116919139Y-67705400D01*
X116082461Y-67705400D01*
X116037126Y-67700935D01*
X115999433Y-67689501D01*
X115964697Y-67670934D01*
X115934252Y-67645948D01*
X115909266Y-67615503D01*
X115890699Y-67580767D01*
X115879265Y-67543074D01*
X115874800Y-67497739D01*
X115874800Y-66411061D01*
X115879265Y-66365726D01*
X115890699Y-66328033D01*
X115909266Y-66293297D01*
X115934252Y-66262852D01*
X115964697Y-66237866D01*
X115999433Y-66219299D01*
X116037126Y-66207865D01*
X116082461Y-66203400D01*
X116919139Y-66203400D01*
X116964474Y-66207865D01*
X116964474Y-66207865D01*
G37*
G36*
X136919462Y-63288481D02*
G01*
X136954381Y-63299074D01*
X136986563Y-63316276D01*
X137014773Y-63339427D01*
X137037924Y-63367637D01*
X137055126Y-63399819D01*
X137065719Y-63434738D01*
X137069900Y-63477195D01*
X137069900Y-64618405D01*
X137065719Y-64660862D01*
X137055126Y-64695781D01*
X137037924Y-64727963D01*
X137014773Y-64756173D01*
X136986563Y-64779324D01*
X136954381Y-64796526D01*
X136919462Y-64807119D01*
X136877005Y-64811300D01*
X135410795Y-64811300D01*
X135368338Y-64807119D01*
X135333419Y-64796526D01*
X135301237Y-64779324D01*
X135273027Y-64756173D01*
X135249876Y-64727963D01*
X135232674Y-64695781D01*
X135222081Y-64660862D01*
X135217900Y-64618405D01*
X135217900Y-63477195D01*
X135222081Y-63434738D01*
X135232674Y-63399819D01*
X135249876Y-63367637D01*
X135273027Y-63339427D01*
X135301237Y-63316276D01*
X135333419Y-63299074D01*
X135368338Y-63288481D01*
X135410795Y-63284300D01*
X136877005Y-63284300D01*
X136919462Y-63288481D01*
X136919462Y-63288481D01*
G37*
G36*
X139357862Y-63288481D02*
G01*
X139392781Y-63299074D01*
X139424963Y-63316276D01*
X139453173Y-63339427D01*
X139476324Y-63367637D01*
X139493526Y-63399819D01*
X139504119Y-63434738D01*
X139508300Y-63477195D01*
X139508300Y-64618405D01*
X139504119Y-64660862D01*
X139493526Y-64695781D01*
X139476324Y-64727963D01*
X139453173Y-64756173D01*
X139424963Y-64779324D01*
X139392781Y-64796526D01*
X139357862Y-64807119D01*
X139315405Y-64811300D01*
X137849195Y-64811300D01*
X137806738Y-64807119D01*
X137771819Y-64796526D01*
X137739637Y-64779324D01*
X137711427Y-64756173D01*
X137688276Y-64727963D01*
X137671074Y-64695781D01*
X137660481Y-64660862D01*
X137656300Y-64618405D01*
X137656300Y-63477195D01*
X137660481Y-63434738D01*
X137671074Y-63399819D01*
X137688276Y-63367637D01*
X137711427Y-63339427D01*
X137739637Y-63316276D01*
X137771819Y-63299074D01*
X137806738Y-63288481D01*
X137849195Y-63284300D01*
X139315405Y-63284300D01*
X139357862Y-63288481D01*
X139357862Y-63288481D01*
G37*
G36*
X141720062Y-63288481D02*
G01*
X141754981Y-63299074D01*
X141787163Y-63316276D01*
X141815373Y-63339427D01*
X141838524Y-63367637D01*
X141855726Y-63399819D01*
X141866319Y-63434738D01*
X141870500Y-63477195D01*
X141870500Y-64618405D01*
X141866319Y-64660862D01*
X141855726Y-64695781D01*
X141838524Y-64727963D01*
X141815373Y-64756173D01*
X141787163Y-64779324D01*
X141754981Y-64796526D01*
X141720062Y-64807119D01*
X141677605Y-64811300D01*
X140211395Y-64811300D01*
X140168938Y-64807119D01*
X140134019Y-64796526D01*
X140101837Y-64779324D01*
X140073627Y-64756173D01*
X140050476Y-64727963D01*
X140033274Y-64695781D01*
X140022681Y-64660862D01*
X140018500Y-64618405D01*
X140018500Y-63477195D01*
X140022681Y-63434738D01*
X140033274Y-63399819D01*
X140050476Y-63367637D01*
X140073627Y-63339427D01*
X140101837Y-63316276D01*
X140134019Y-63299074D01*
X140168938Y-63288481D01*
X140211395Y-63284300D01*
X141677605Y-63284300D01*
X141720062Y-63288481D01*
X141720062Y-63288481D01*
G37*
G36*
X146660362Y-63262981D02*
G01*
X146695281Y-63273574D01*
X146727463Y-63290776D01*
X146755673Y-63313927D01*
X146778824Y-63342137D01*
X146796026Y-63374319D01*
X146806619Y-63409238D01*
X146810800Y-63451695D01*
X146810800Y-64592905D01*
X146806619Y-64635362D01*
X146796026Y-64670281D01*
X146778824Y-64702463D01*
X146755673Y-64730673D01*
X146727463Y-64753824D01*
X146695281Y-64771026D01*
X146660362Y-64781619D01*
X146617905Y-64785800D01*
X145151695Y-64785800D01*
X145109238Y-64781619D01*
X145074319Y-64771026D01*
X145042137Y-64753824D01*
X145013927Y-64730673D01*
X144990776Y-64702463D01*
X144973574Y-64670281D01*
X144962981Y-64635362D01*
X144958800Y-64592905D01*
X144958800Y-63451695D01*
X144962981Y-63409238D01*
X144973574Y-63374319D01*
X144990776Y-63342137D01*
X145013927Y-63313927D01*
X145042137Y-63290776D01*
X145074319Y-63273574D01*
X145109238Y-63262981D01*
X145151695Y-63258800D01*
X146617905Y-63258800D01*
X146660362Y-63262981D01*
X146660362Y-63262981D01*
G37*
G36*
X144183862Y-63261481D02*
G01*
X144218781Y-63272074D01*
X144250963Y-63289276D01*
X144279173Y-63312427D01*
X144302324Y-63340637D01*
X144319526Y-63372819D01*
X144330119Y-63407738D01*
X144334300Y-63450195D01*
X144334300Y-64591405D01*
X144330119Y-64633862D01*
X144319526Y-64668781D01*
X144302324Y-64700963D01*
X144279173Y-64729173D01*
X144250963Y-64752324D01*
X144218781Y-64769526D01*
X144183862Y-64780119D01*
X144141405Y-64784300D01*
X142675195Y-64784300D01*
X142632738Y-64780119D01*
X142597819Y-64769526D01*
X142565637Y-64752324D01*
X142537427Y-64729173D01*
X142514276Y-64700963D01*
X142497074Y-64668781D01*
X142486481Y-64633862D01*
X142482300Y-64591405D01*
X142482300Y-63450195D01*
X142486481Y-63407738D01*
X142497074Y-63372819D01*
X142514276Y-63340637D01*
X142537427Y-63312427D01*
X142565637Y-63289276D01*
X142597819Y-63272074D01*
X142632738Y-63261481D01*
X142675195Y-63257300D01*
X144141405Y-63257300D01*
X144183862Y-63261481D01*
X144183862Y-63261481D01*
G37*
G36*
X149991185Y-60269860D02*
G01*
X150103948Y-60292290D01*
X150192448Y-60328948D01*
X150422608Y-60424283D01*
X150709396Y-60615909D01*
X150953291Y-60859804D01*
X151144917Y-61146592D01*
X151276910Y-61465253D01*
X151341736Y-61791152D01*
X151344200Y-61803542D01*
X151344200Y-62148458D01*
X151276910Y-62486748D01*
X151222237Y-62618741D01*
X151144917Y-62805408D01*
X150953291Y-63092196D01*
X150709396Y-63336091D01*
X150422608Y-63527717D01*
X150235941Y-63605037D01*
X150103948Y-63659710D01*
X149991185Y-63682140D01*
X149765660Y-63727000D01*
X149420740Y-63727000D01*
X149195215Y-63682140D01*
X149082452Y-63659710D01*
X148950459Y-63605037D01*
X148763792Y-63527717D01*
X148477004Y-63336091D01*
X148233109Y-63092196D01*
X148041483Y-62805408D01*
X147964163Y-62618741D01*
X147909490Y-62486748D01*
X147842200Y-62148458D01*
X147842200Y-61803542D01*
X147844665Y-61791152D01*
X147909490Y-61465253D01*
X148041483Y-61146592D01*
X148233109Y-60859804D01*
X148477004Y-60615909D01*
X148763792Y-60424283D01*
X148993952Y-60328948D01*
X149082452Y-60292290D01*
X149195215Y-60269860D01*
X149420740Y-60225000D01*
X149765660Y-60225000D01*
X149991185Y-60269860D01*
X149991185Y-60269860D01*
G37*
G36*
X106178856Y-60113298D02*
G01*
X106285179Y-60134447D01*
X106585642Y-60258903D01*
X106856051Y-60439585D01*
X107086015Y-60669549D01*
X107266697Y-60939958D01*
X107352288Y-61146592D01*
X107391153Y-61240422D01*
X107454600Y-61559389D01*
X107454600Y-61884611D01*
X107391153Y-62203578D01*
X107273861Y-62486748D01*
X107266697Y-62504042D01*
X107086015Y-62774451D01*
X106856051Y-63004415D01*
X106585642Y-63185097D01*
X106285179Y-63309553D01*
X106185160Y-63329448D01*
X105966211Y-63373000D01*
X105640989Y-63373000D01*
X105422040Y-63329448D01*
X105322021Y-63309553D01*
X105021558Y-63185097D01*
X104751149Y-63004415D01*
X104521185Y-62774451D01*
X104340503Y-62504042D01*
X104333340Y-62486748D01*
X104216047Y-62203578D01*
X104152600Y-61884611D01*
X104152600Y-61559389D01*
X104216047Y-61240422D01*
X104254913Y-61146592D01*
X104340503Y-60939958D01*
X104521185Y-60669549D01*
X104751149Y-60439585D01*
X105021558Y-60258903D01*
X105322021Y-60134447D01*
X105428344Y-60113298D01*
X105640989Y-60071000D01*
X105966211Y-60071000D01*
X106178856Y-60113298D01*
X106178856Y-60113298D01*
G37*
G36*
X156178856Y-60113298D02*
G01*
X156285179Y-60134447D01*
X156585642Y-60258903D01*
X156856051Y-60439585D01*
X157086015Y-60669549D01*
X157266697Y-60939958D01*
X157352288Y-61146592D01*
X157391153Y-61240422D01*
X157454600Y-61559389D01*
X157454600Y-61884611D01*
X157391153Y-62203578D01*
X157273861Y-62486748D01*
X157266697Y-62504042D01*
X157086015Y-62774451D01*
X156856051Y-63004415D01*
X156585642Y-63185097D01*
X156285179Y-63309553D01*
X156185160Y-63329448D01*
X155966211Y-63373000D01*
X155640989Y-63373000D01*
X155422040Y-63329448D01*
X155322021Y-63309553D01*
X155021558Y-63185097D01*
X154751149Y-63004415D01*
X154521185Y-62774451D01*
X154340503Y-62504042D01*
X154333340Y-62486748D01*
X154216047Y-62203578D01*
X154152600Y-61884611D01*
X154152600Y-61559389D01*
X154216047Y-61240422D01*
X154254913Y-61146592D01*
X154340503Y-60939958D01*
X154521185Y-60669549D01*
X154751149Y-60439585D01*
X155021558Y-60258903D01*
X155322021Y-60134447D01*
X155428344Y-60113298D01*
X155640989Y-60071000D01*
X155966211Y-60071000D01*
X156178856Y-60113298D01*
X156178856Y-60113298D01*
G37*
G36*
X117885585Y-58745860D02*
G01*
X117998348Y-58768290D01*
X118130341Y-58822963D01*
X118317008Y-58900283D01*
X118603796Y-59091909D01*
X118847691Y-59335804D01*
X119039317Y-59622592D01*
X119171310Y-59941253D01*
X119238600Y-60279540D01*
X119238600Y-60624460D01*
X119171310Y-60962747D01*
X119039317Y-61281408D01*
X118847691Y-61568196D01*
X118603796Y-61812091D01*
X118317008Y-62003717D01*
X118130341Y-62081037D01*
X117998348Y-62135710D01*
X117934259Y-62148458D01*
X117660060Y-62203000D01*
X117315140Y-62203000D01*
X117040941Y-62148458D01*
X116976852Y-62135710D01*
X116844859Y-62081037D01*
X116658192Y-62003717D01*
X116371404Y-61812091D01*
X116127509Y-61568196D01*
X115935883Y-61281408D01*
X115803890Y-60962747D01*
X115736600Y-60624460D01*
X115736600Y-60279540D01*
X115803890Y-59941253D01*
X115935883Y-59622592D01*
X116127509Y-59335804D01*
X116371404Y-59091909D01*
X116658192Y-58900283D01*
X116844859Y-58822963D01*
X116976852Y-58768290D01*
X117089615Y-58745860D01*
X117315140Y-58701000D01*
X117660060Y-58701000D01*
X117885585Y-58745860D01*
X117885585Y-58745860D01*
G37*
G36*
X127791585Y-58745860D02*
G01*
X127904348Y-58768290D01*
X128036341Y-58822963D01*
X128223008Y-58900283D01*
X128509796Y-59091909D01*
X128753691Y-59335804D01*
X128945317Y-59622592D01*
X129077310Y-59941253D01*
X129144600Y-60279540D01*
X129144600Y-60624460D01*
X129077310Y-60962747D01*
X128945317Y-61281408D01*
X128753691Y-61568196D01*
X128509796Y-61812091D01*
X128223008Y-62003717D01*
X128036341Y-62081037D01*
X127904348Y-62135710D01*
X127840259Y-62148458D01*
X127566060Y-62203000D01*
X127221140Y-62203000D01*
X126946941Y-62148458D01*
X126882852Y-62135710D01*
X126750859Y-62081037D01*
X126564192Y-62003717D01*
X126277404Y-61812091D01*
X126033509Y-61568196D01*
X125841883Y-61281408D01*
X125709890Y-60962747D01*
X125642600Y-60624460D01*
X125642600Y-60279540D01*
X125709890Y-59941253D01*
X125841883Y-59622592D01*
X126033509Y-59335804D01*
X126277404Y-59091909D01*
X126564192Y-58900283D01*
X126750859Y-58822963D01*
X126882852Y-58768290D01*
X126995615Y-58745860D01*
X127221140Y-58701000D01*
X127566060Y-58701000D01*
X127791585Y-58745860D01*
X127791585Y-58745860D01*
G37*
G36*
X141720062Y-60313481D02*
G01*
X141754981Y-60324074D01*
X141787163Y-60341276D01*
X141815373Y-60364427D01*
X141838524Y-60392637D01*
X141855726Y-60424819D01*
X141866319Y-60459738D01*
X141870500Y-60502195D01*
X141870500Y-61643405D01*
X141866319Y-61685862D01*
X141855726Y-61720781D01*
X141838524Y-61752963D01*
X141815373Y-61781173D01*
X141787163Y-61804324D01*
X141754981Y-61821526D01*
X141720062Y-61832119D01*
X141677605Y-61836300D01*
X140211395Y-61836300D01*
X140168938Y-61832119D01*
X140134019Y-61821526D01*
X140101837Y-61804324D01*
X140073627Y-61781173D01*
X140050476Y-61752963D01*
X140033274Y-61720781D01*
X140022681Y-61685862D01*
X140018500Y-61643405D01*
X140018500Y-60502195D01*
X140022681Y-60459738D01*
X140033274Y-60424819D01*
X140050476Y-60392637D01*
X140073627Y-60364427D01*
X140101837Y-60341276D01*
X140134019Y-60324074D01*
X140168938Y-60313481D01*
X140211395Y-60309300D01*
X141677605Y-60309300D01*
X141720062Y-60313481D01*
X141720062Y-60313481D01*
G37*
G36*
X139357862Y-60313481D02*
G01*
X139392781Y-60324074D01*
X139424963Y-60341276D01*
X139453173Y-60364427D01*
X139476324Y-60392637D01*
X139493526Y-60424819D01*
X139504119Y-60459738D01*
X139508300Y-60502195D01*
X139508300Y-61643405D01*
X139504119Y-61685862D01*
X139493526Y-61720781D01*
X139476324Y-61752963D01*
X139453173Y-61781173D01*
X139424963Y-61804324D01*
X139392781Y-61821526D01*
X139357862Y-61832119D01*
X139315405Y-61836300D01*
X137849195Y-61836300D01*
X137806738Y-61832119D01*
X137771819Y-61821526D01*
X137739637Y-61804324D01*
X137711427Y-61781173D01*
X137688276Y-61752963D01*
X137671074Y-61720781D01*
X137660481Y-61685862D01*
X137656300Y-61643405D01*
X137656300Y-60502195D01*
X137660481Y-60459738D01*
X137671074Y-60424819D01*
X137688276Y-60392637D01*
X137711427Y-60364427D01*
X137739637Y-60341276D01*
X137771819Y-60324074D01*
X137806738Y-60313481D01*
X137849195Y-60309300D01*
X139315405Y-60309300D01*
X139357862Y-60313481D01*
X139357862Y-60313481D01*
G37*
G36*
X136919462Y-60313481D02*
G01*
X136954381Y-60324074D01*
X136986563Y-60341276D01*
X137014773Y-60364427D01*
X137037924Y-60392637D01*
X137055126Y-60424819D01*
X137065719Y-60459738D01*
X137069900Y-60502195D01*
X137069900Y-61643405D01*
X137065719Y-61685862D01*
X137055126Y-61720781D01*
X137037924Y-61752963D01*
X137014773Y-61781173D01*
X136986563Y-61804324D01*
X136954381Y-61821526D01*
X136919462Y-61832119D01*
X136877005Y-61836300D01*
X135410795Y-61836300D01*
X135368338Y-61832119D01*
X135333419Y-61821526D01*
X135301237Y-61804324D01*
X135273027Y-61781173D01*
X135249876Y-61752963D01*
X135232674Y-61720781D01*
X135222081Y-61685862D01*
X135217900Y-61643405D01*
X135217900Y-60502195D01*
X135222081Y-60459738D01*
X135232674Y-60424819D01*
X135249876Y-60392637D01*
X135273027Y-60364427D01*
X135301237Y-60341276D01*
X135333419Y-60324074D01*
X135368338Y-60313481D01*
X135410795Y-60309300D01*
X136877005Y-60309300D01*
X136919462Y-60313481D01*
X136919462Y-60313481D01*
G37*
G36*
X146660362Y-60287981D02*
G01*
X146695281Y-60298574D01*
X146727463Y-60315776D01*
X146755673Y-60338927D01*
X146778824Y-60367137D01*
X146796026Y-60399319D01*
X146806619Y-60434238D01*
X146810800Y-60476695D01*
X146810800Y-61617905D01*
X146806619Y-61660362D01*
X146796026Y-61695281D01*
X146778824Y-61727463D01*
X146755673Y-61755673D01*
X146727463Y-61778824D01*
X146695281Y-61796026D01*
X146660362Y-61806619D01*
X146617905Y-61810800D01*
X145151695Y-61810800D01*
X145109238Y-61806619D01*
X145074319Y-61796026D01*
X145042137Y-61778824D01*
X145013927Y-61755673D01*
X144990776Y-61727463D01*
X144973574Y-61695281D01*
X144962981Y-61660362D01*
X144958800Y-61617905D01*
X144958800Y-60476695D01*
X144962981Y-60434238D01*
X144973574Y-60399319D01*
X144990776Y-60367137D01*
X145013927Y-60338927D01*
X145042137Y-60315776D01*
X145074319Y-60298574D01*
X145109238Y-60287981D01*
X145151695Y-60283800D01*
X146617905Y-60283800D01*
X146660362Y-60287981D01*
X146660362Y-60287981D01*
G37*
G36*
X144183862Y-60286481D02*
G01*
X144218781Y-60297074D01*
X144250963Y-60314276D01*
X144279173Y-60337427D01*
X144302324Y-60365637D01*
X144319526Y-60397819D01*
X144330119Y-60432738D01*
X144334300Y-60475195D01*
X144334300Y-61616405D01*
X144330119Y-61658862D01*
X144319526Y-61693781D01*
X144302324Y-61725963D01*
X144279173Y-61754173D01*
X144250963Y-61777324D01*
X144218781Y-61794526D01*
X144183862Y-61805119D01*
X144141405Y-61809300D01*
X142675195Y-61809300D01*
X142632738Y-61805119D01*
X142597819Y-61794526D01*
X142565637Y-61777324D01*
X142537427Y-61754173D01*
X142514276Y-61725963D01*
X142497074Y-61693781D01*
X142486481Y-61658862D01*
X142482300Y-61616405D01*
X142482300Y-60475195D01*
X142486481Y-60432738D01*
X142497074Y-60397819D01*
X142514276Y-60365637D01*
X142537427Y-60337427D01*
X142565637Y-60314276D01*
X142597819Y-60297074D01*
X142632738Y-60286481D01*
X142675195Y-60282300D01*
X144141405Y-60282300D01*
X144183862Y-60286481D01*
X144183862Y-60286481D01*
G37*
M02*
