G04 #@! TF.GenerationSoftware,KiCad,Pcbnew,(5.1.0)-1*
G04 #@! TF.CreationDate,2019-11-07T12:18:48+11:00*
G04 #@! TF.ProjectId,APPS,41505053-2e6b-4696-9361-645f70636258,rev?*
G04 #@! TF.SameCoordinates,Original*
G04 #@! TF.FileFunction,Legend,Bot*
G04 #@! TF.FilePolarity,Positive*
%FSLAX46Y46*%
G04 Gerber Fmt 4.6, Leading zero omitted, Abs format (unit mm)*
G04 Created by KiCad (PCBNEW (5.1.0)-1) date 2019-11-07 12:18:48*
%MOMM*%
%LPD*%
G04 APERTURE LIST*
%ADD10C,0.120000*%
G04 APERTURE END LIST*
D10*
X130125600Y-108220000D02*
X128725600Y-108220000D01*
X128025600Y-108920000D02*
X128025600Y-109520000D01*
X128725600Y-110220000D02*
X130125600Y-110220000D01*
X130825600Y-109520000D02*
X130825600Y-108920000D01*
X130825600Y-108920000D02*
G75*
G03X130125600Y-108220000I-700000J0D01*
G01*
X130125600Y-110220000D02*
G75*
G03X130825600Y-109520000I0J700000D01*
G01*
X128025600Y-109520000D02*
G75*
G03X128725600Y-110220000I700000J0D01*
G01*
X128725600Y-108220000D02*
G75*
G03X128025600Y-108920000I0J-700000D01*
G01*
X145727236Y-77283900D02*
X146931364Y-77283900D01*
X145727236Y-79103900D02*
X146931364Y-79103900D01*
X146891664Y-86977900D02*
X145687536Y-86977900D01*
X146891664Y-85157900D02*
X145687536Y-85157900D01*
X145905800Y-81289136D02*
X145905800Y-82493264D01*
X144085800Y-81289136D02*
X144085800Y-82493264D01*
X148534700Y-89161536D02*
X148534700Y-90365664D01*
X146714700Y-89161536D02*
X146714700Y-90365664D01*
X147877500Y-81040448D02*
X147877500Y-81562952D01*
X146457500Y-81040448D02*
X146457500Y-81562952D01*
X146150300Y-88914448D02*
X146150300Y-89436952D01*
X144730300Y-88914448D02*
X144730300Y-89436952D01*
X132163452Y-70102800D02*
X131640948Y-70102800D01*
X132163452Y-68682800D02*
X131640948Y-68682800D01*
X126524652Y-68682800D02*
X126002148Y-68682800D01*
X126524652Y-70102800D02*
X126002148Y-70102800D01*
X107189200Y-99805748D02*
X107189200Y-100328252D01*
X108609200Y-99805748D02*
X108609200Y-100328252D01*
X149947600Y-73667252D02*
X149947600Y-73144748D01*
X148527600Y-73667252D02*
X148527600Y-73144748D01*
X117787052Y-66244400D02*
X117264548Y-66244400D01*
X117787052Y-67664400D02*
X117264548Y-67664400D01*
X141832400Y-69144248D02*
X141832400Y-69666752D01*
X140412400Y-69144248D02*
X140412400Y-69666752D01*
X140450500Y-85111848D02*
X140450500Y-85634352D01*
X141870500Y-85111848D02*
X141870500Y-85634352D01*
X117685452Y-78230800D02*
X117162948Y-78230800D01*
X117685452Y-76810800D02*
X117162948Y-76810800D01*
X143453752Y-94895600D02*
X142931248Y-94895600D01*
X143453752Y-96315600D02*
X142931248Y-96315600D01*
X108558400Y-89908748D02*
X108558400Y-90431252D01*
X107138400Y-89908748D02*
X107138400Y-90431252D01*
X137529500Y-97263852D02*
X137529500Y-96741348D01*
X138949500Y-97263852D02*
X138949500Y-96741348D01*
X131604652Y-88594000D02*
X131082148Y-88594000D01*
X131604652Y-87174000D02*
X131082148Y-87174000D01*
X121952652Y-99670800D02*
X121430148Y-99670800D01*
X121952652Y-101090800D02*
X121430148Y-101090800D01*
X128963052Y-99668400D02*
X128440548Y-99668400D01*
X128963052Y-98248400D02*
X128440548Y-98248400D01*
X115653452Y-101344800D02*
X115130948Y-101344800D01*
X115653452Y-99924800D02*
X115130948Y-99924800D01*
X159225600Y-71756000D02*
X159225600Y-75056000D01*
X159225600Y-75056000D02*
X152325600Y-75056000D01*
X159225600Y-71756000D02*
X152325600Y-71756000D01*
X150425600Y-78612000D02*
X157325600Y-78612000D01*
X150425600Y-75312000D02*
X157325600Y-75312000D01*
X150425600Y-78612000D02*
X150425600Y-75312000D01*
X135233900Y-63162364D02*
X135233900Y-61958236D01*
X137053900Y-63162364D02*
X137053900Y-61958236D01*
X137672300Y-63162364D02*
X137672300Y-61958236D01*
X139492300Y-63162364D02*
X139492300Y-61958236D01*
X140034500Y-63162364D02*
X140034500Y-61958236D01*
X141854500Y-63162364D02*
X141854500Y-61958236D01*
X142498300Y-63135364D02*
X142498300Y-61931236D01*
X144318300Y-63135364D02*
X144318300Y-61931236D01*
X144974800Y-63136864D02*
X144974800Y-61932736D01*
X146794800Y-63136864D02*
X146794800Y-61932736D01*
X110265800Y-106941536D02*
X110265800Y-108145664D01*
X112085800Y-106941536D02*
X112085800Y-108145664D01*
X121026600Y-106890736D02*
X121026600Y-108094864D01*
X119206600Y-106890736D02*
X119206600Y-108094864D01*
X116260200Y-106890736D02*
X116260200Y-108094864D01*
X118080200Y-106890736D02*
X118080200Y-108094864D01*
X113313800Y-108094864D02*
X113313800Y-106890736D01*
X115133800Y-108094864D02*
X115133800Y-106890736D01*
X143327800Y-78326836D02*
X143327800Y-79530964D01*
X141507800Y-78326836D02*
X141507800Y-79530964D01*
X140851200Y-78341136D02*
X140851200Y-79545264D01*
X139031200Y-78341136D02*
X139031200Y-79545264D01*
M02*
