G04 #@! TF.GenerationSoftware,KiCad,Pcbnew,(5.1.6)-1*
G04 #@! TF.CreationDate,2021-06-24T15:04:22+10:00*
G04 #@! TF.ProjectId,BSPD_Accumulator,42535044-5f41-4636-9375-6d756c61746f,rev?*
G04 #@! TF.SameCoordinates,Original*
G04 #@! TF.FileFunction,Soldermask,Top*
G04 #@! TF.FilePolarity,Negative*
%FSLAX46Y46*%
G04 Gerber Fmt 4.6, Leading zero omitted, Abs format (unit mm)*
G04 Created by KiCad (PCBNEW (5.1.6)-1) date 2021-06-24 15:04:22*
%MOMM*%
%LPD*%
G01*
G04 APERTURE LIST*
%ADD10C,1.100000*%
%ADD11C,1.600000*%
%ADD12C,3.300000*%
%ADD13R,0.900000X1.000000*%
%ADD14C,1.540000*%
%ADD15R,2.100000X3.900000*%
%ADD16R,2.100000X1.600000*%
%ADD17C,2.100000*%
G04 APERTURE END LIST*
D10*
X82344000Y-49660000D03*
X94344000Y-49660000D03*
G36*
G01*
X84544000Y-46253333D02*
X84544000Y-45186667D01*
G75*
G02*
X84810667Y-44920000I266667J0D01*
G01*
X85877333Y-44920000D01*
G75*
G02*
X86144000Y-45186667I0J-266667D01*
G01*
X86144000Y-46253333D01*
G75*
G02*
X85877333Y-46520000I-266667J0D01*
G01*
X84810667Y-46520000D01*
G75*
G02*
X84544000Y-46253333I0J266667D01*
G01*
G37*
D11*
X88344000Y-45720000D03*
X91344000Y-45720000D03*
X85344000Y-48720000D03*
X88344000Y-48720000D03*
X91344000Y-48720000D03*
D12*
X73025000Y-76355000D03*
X103025000Y-76355000D03*
X103025000Y-46355000D03*
X73025000Y-46355000D03*
G36*
G01*
X71747000Y-55983000D02*
X70747000Y-55983000D01*
G75*
G02*
X70472000Y-55708000I0J275000D01*
G01*
X70472000Y-55158000D01*
G75*
G02*
X70747000Y-54883000I275000J0D01*
G01*
X71747000Y-54883000D01*
G75*
G02*
X72022000Y-55158000I0J-275000D01*
G01*
X72022000Y-55708000D01*
G75*
G02*
X71747000Y-55983000I-275000J0D01*
G01*
G37*
G36*
G01*
X71747000Y-54083000D02*
X70747000Y-54083000D01*
G75*
G02*
X70472000Y-53808000I0J275000D01*
G01*
X70472000Y-53258000D01*
G75*
G02*
X70747000Y-52983000I275000J0D01*
G01*
X71747000Y-52983000D01*
G75*
G02*
X72022000Y-53258000I0J-275000D01*
G01*
X72022000Y-53808000D01*
G75*
G02*
X71747000Y-54083000I-275000J0D01*
G01*
G37*
G36*
G01*
X77843000Y-54083000D02*
X76843000Y-54083000D01*
G75*
G02*
X76568000Y-53808000I0J275000D01*
G01*
X76568000Y-53258000D01*
G75*
G02*
X76843000Y-52983000I275000J0D01*
G01*
X77843000Y-52983000D01*
G75*
G02*
X78118000Y-53258000I0J-275000D01*
G01*
X78118000Y-53808000D01*
G75*
G02*
X77843000Y-54083000I-275000J0D01*
G01*
G37*
G36*
G01*
X77843000Y-55983000D02*
X76843000Y-55983000D01*
G75*
G02*
X76568000Y-55708000I0J275000D01*
G01*
X76568000Y-55158000D01*
G75*
G02*
X76843000Y-54883000I275000J0D01*
G01*
X77843000Y-54883000D01*
G75*
G02*
X78118000Y-55158000I0J-275000D01*
G01*
X78118000Y-55708000D01*
G75*
G02*
X77843000Y-55983000I-275000J0D01*
G01*
G37*
G36*
G01*
X81075000Y-74903250D02*
X81075000Y-73940750D01*
G75*
G02*
X81343750Y-73672000I268750J0D01*
G01*
X81881250Y-73672000D01*
G75*
G02*
X82150000Y-73940750I0J-268750D01*
G01*
X82150000Y-74903250D01*
G75*
G02*
X81881250Y-75172000I-268750J0D01*
G01*
X81343750Y-75172000D01*
G75*
G02*
X81075000Y-74903250I0J268750D01*
G01*
G37*
G36*
G01*
X82950000Y-74903250D02*
X82950000Y-73940750D01*
G75*
G02*
X83218750Y-73672000I268750J0D01*
G01*
X83756250Y-73672000D01*
G75*
G02*
X84025000Y-73940750I0J-268750D01*
G01*
X84025000Y-74903250D01*
G75*
G02*
X83756250Y-75172000I-268750J0D01*
G01*
X83218750Y-75172000D01*
G75*
G02*
X82950000Y-74903250I0J268750D01*
G01*
G37*
G36*
G01*
X83028500Y-77951250D02*
X83028500Y-76988750D01*
G75*
G02*
X83297250Y-76720000I268750J0D01*
G01*
X83834750Y-76720000D01*
G75*
G02*
X84103500Y-76988750I0J-268750D01*
G01*
X84103500Y-77951250D01*
G75*
G02*
X83834750Y-78220000I-268750J0D01*
G01*
X83297250Y-78220000D01*
G75*
G02*
X83028500Y-77951250I0J268750D01*
G01*
G37*
G36*
G01*
X81153500Y-77951250D02*
X81153500Y-76988750D01*
G75*
G02*
X81422250Y-76720000I268750J0D01*
G01*
X81959750Y-76720000D01*
G75*
G02*
X82228500Y-76988750I0J-268750D01*
G01*
X82228500Y-77951250D01*
G75*
G02*
X81959750Y-78220000I-268750J0D01*
G01*
X81422250Y-78220000D01*
G75*
G02*
X81153500Y-77951250I0J268750D01*
G01*
G37*
D13*
X75245000Y-53483000D03*
X73345000Y-53483000D03*
X74295000Y-55483000D03*
G36*
G01*
X101744779Y-60241000D02*
X100439221Y-60241000D01*
G75*
G02*
X100167000Y-59968779I0J272221D01*
G01*
X100167000Y-59288221D01*
G75*
G02*
X100439221Y-59016000I272221J0D01*
G01*
X101744779Y-59016000D01*
G75*
G02*
X102017000Y-59288221I0J-272221D01*
G01*
X102017000Y-59968779D01*
G75*
G02*
X101744779Y-60241000I-272221J0D01*
G01*
G37*
G36*
G01*
X101744779Y-57316000D02*
X100439221Y-57316000D01*
G75*
G02*
X100167000Y-57043779I0J272221D01*
G01*
X100167000Y-56363221D01*
G75*
G02*
X100439221Y-56091000I272221J0D01*
G01*
X101744779Y-56091000D01*
G75*
G02*
X102017000Y-56363221I0J-272221D01*
G01*
X102017000Y-57043779D01*
G75*
G02*
X101744779Y-57316000I-272221J0D01*
G01*
G37*
G36*
G01*
X100439221Y-63715000D02*
X101744779Y-63715000D01*
G75*
G02*
X102017000Y-63987221I0J-272221D01*
G01*
X102017000Y-64667779D01*
G75*
G02*
X101744779Y-64940000I-272221J0D01*
G01*
X100439221Y-64940000D01*
G75*
G02*
X100167000Y-64667779I0J272221D01*
G01*
X100167000Y-63987221D01*
G75*
G02*
X100439221Y-63715000I272221J0D01*
G01*
G37*
G36*
G01*
X100439221Y-60790000D02*
X101744779Y-60790000D01*
G75*
G02*
X102017000Y-61062221I0J-272221D01*
G01*
X102017000Y-61742779D01*
G75*
G02*
X101744779Y-62015000I-272221J0D01*
G01*
X100439221Y-62015000D01*
G75*
G02*
X100167000Y-61742779I0J272221D01*
G01*
X100167000Y-61062221D01*
G75*
G02*
X100439221Y-60790000I272221J0D01*
G01*
G37*
G36*
G01*
X102852221Y-56091000D02*
X104157779Y-56091000D01*
G75*
G02*
X104430000Y-56363221I0J-272221D01*
G01*
X104430000Y-57043779D01*
G75*
G02*
X104157779Y-57316000I-272221J0D01*
G01*
X102852221Y-57316000D01*
G75*
G02*
X102580000Y-57043779I0J272221D01*
G01*
X102580000Y-56363221D01*
G75*
G02*
X102852221Y-56091000I272221J0D01*
G01*
G37*
G36*
G01*
X102852221Y-59016000D02*
X104157779Y-59016000D01*
G75*
G02*
X104430000Y-59288221I0J-272221D01*
G01*
X104430000Y-59968779D01*
G75*
G02*
X104157779Y-60241000I-272221J0D01*
G01*
X102852221Y-60241000D01*
G75*
G02*
X102580000Y-59968779I0J272221D01*
G01*
X102580000Y-59288221D01*
G75*
G02*
X102852221Y-59016000I272221J0D01*
G01*
G37*
G36*
G01*
X102852221Y-63715000D02*
X104157779Y-63715000D01*
G75*
G02*
X104430000Y-63987221I0J-272221D01*
G01*
X104430000Y-64667779D01*
G75*
G02*
X104157779Y-64940000I-272221J0D01*
G01*
X102852221Y-64940000D01*
G75*
G02*
X102580000Y-64667779I0J272221D01*
G01*
X102580000Y-63987221D01*
G75*
G02*
X102852221Y-63715000I272221J0D01*
G01*
G37*
G36*
G01*
X102852221Y-60790000D02*
X104157779Y-60790000D01*
G75*
G02*
X104430000Y-61062221I0J-272221D01*
G01*
X104430000Y-61742779D01*
G75*
G02*
X104157779Y-62015000I-272221J0D01*
G01*
X102852221Y-62015000D01*
G75*
G02*
X102580000Y-61742779I0J272221D01*
G01*
X102580000Y-61062221D01*
G75*
G02*
X102852221Y-60790000I272221J0D01*
G01*
G37*
G36*
G01*
X82659221Y-66505000D02*
X83964779Y-66505000D01*
G75*
G02*
X84237000Y-66777221I0J-272221D01*
G01*
X84237000Y-67457779D01*
G75*
G02*
X83964779Y-67730000I-272221J0D01*
G01*
X82659221Y-67730000D01*
G75*
G02*
X82387000Y-67457779I0J272221D01*
G01*
X82387000Y-66777221D01*
G75*
G02*
X82659221Y-66505000I272221J0D01*
G01*
G37*
G36*
G01*
X82659221Y-69430000D02*
X83964779Y-69430000D01*
G75*
G02*
X84237000Y-69702221I0J-272221D01*
G01*
X84237000Y-70382779D01*
G75*
G02*
X83964779Y-70655000I-272221J0D01*
G01*
X82659221Y-70655000D01*
G75*
G02*
X82387000Y-70382779I0J272221D01*
G01*
X82387000Y-69702221D01*
G75*
G02*
X82659221Y-69430000I272221J0D01*
G01*
G37*
G36*
G01*
X94124779Y-67730000D02*
X92819221Y-67730000D01*
G75*
G02*
X92547000Y-67457779I0J272221D01*
G01*
X92547000Y-66777221D01*
G75*
G02*
X92819221Y-66505000I272221J0D01*
G01*
X94124779Y-66505000D01*
G75*
G02*
X94397000Y-66777221I0J-272221D01*
G01*
X94397000Y-67457779D01*
G75*
G02*
X94124779Y-67730000I-272221J0D01*
G01*
G37*
G36*
G01*
X94124779Y-70655000D02*
X92819221Y-70655000D01*
G75*
G02*
X92547000Y-70382779I0J272221D01*
G01*
X92547000Y-69702221D01*
G75*
G02*
X92819221Y-69430000I272221J0D01*
G01*
X94124779Y-69430000D01*
G75*
G02*
X94397000Y-69702221I0J-272221D01*
G01*
X94397000Y-70382779D01*
G75*
G02*
X94124779Y-70655000I-272221J0D01*
G01*
G37*
D14*
X91186000Y-57912000D03*
X88646000Y-60452000D03*
X86106000Y-57912000D03*
G36*
G01*
X89849501Y-66844501D02*
X89849501Y-66494501D01*
G75*
G02*
X90024501Y-66319501I175000J0D01*
G01*
X91724501Y-66319501D01*
G75*
G02*
X91899501Y-66494501I0J-175000D01*
G01*
X91899501Y-66844501D01*
G75*
G02*
X91724501Y-67019501I-175000J0D01*
G01*
X90024501Y-67019501D01*
G75*
G02*
X89849501Y-66844501I0J175000D01*
G01*
G37*
G36*
G01*
X89849501Y-68114501D02*
X89849501Y-67764501D01*
G75*
G02*
X90024501Y-67589501I175000J0D01*
G01*
X91724501Y-67589501D01*
G75*
G02*
X91899501Y-67764501I0J-175000D01*
G01*
X91899501Y-68114501D01*
G75*
G02*
X91724501Y-68289501I-175000J0D01*
G01*
X90024501Y-68289501D01*
G75*
G02*
X89849501Y-68114501I0J175000D01*
G01*
G37*
G36*
G01*
X89849501Y-69384501D02*
X89849501Y-69034501D01*
G75*
G02*
X90024501Y-68859501I175000J0D01*
G01*
X91724501Y-68859501D01*
G75*
G02*
X91899501Y-69034501I0J-175000D01*
G01*
X91899501Y-69384501D01*
G75*
G02*
X91724501Y-69559501I-175000J0D01*
G01*
X90024501Y-69559501D01*
G75*
G02*
X89849501Y-69384501I0J175000D01*
G01*
G37*
G36*
G01*
X89849501Y-70654501D02*
X89849501Y-70304501D01*
G75*
G02*
X90024501Y-70129501I175000J0D01*
G01*
X91724501Y-70129501D01*
G75*
G02*
X91899501Y-70304501I0J-175000D01*
G01*
X91899501Y-70654501D01*
G75*
G02*
X91724501Y-70829501I-175000J0D01*
G01*
X90024501Y-70829501D01*
G75*
G02*
X89849501Y-70654501I0J175000D01*
G01*
G37*
G36*
G01*
X84899501Y-70654501D02*
X84899501Y-70304501D01*
G75*
G02*
X85074501Y-70129501I175000J0D01*
G01*
X86774501Y-70129501D01*
G75*
G02*
X86949501Y-70304501I0J-175000D01*
G01*
X86949501Y-70654501D01*
G75*
G02*
X86774501Y-70829501I-175000J0D01*
G01*
X85074501Y-70829501D01*
G75*
G02*
X84899501Y-70654501I0J175000D01*
G01*
G37*
G36*
G01*
X84899501Y-69384501D02*
X84899501Y-69034501D01*
G75*
G02*
X85074501Y-68859501I175000J0D01*
G01*
X86774501Y-68859501D01*
G75*
G02*
X86949501Y-69034501I0J-175000D01*
G01*
X86949501Y-69384501D01*
G75*
G02*
X86774501Y-69559501I-175000J0D01*
G01*
X85074501Y-69559501D01*
G75*
G02*
X84899501Y-69384501I0J175000D01*
G01*
G37*
G36*
G01*
X84899501Y-68114501D02*
X84899501Y-67764501D01*
G75*
G02*
X85074501Y-67589501I175000J0D01*
G01*
X86774501Y-67589501D01*
G75*
G02*
X86949501Y-67764501I0J-175000D01*
G01*
X86949501Y-68114501D01*
G75*
G02*
X86774501Y-68289501I-175000J0D01*
G01*
X85074501Y-68289501D01*
G75*
G02*
X84899501Y-68114501I0J175000D01*
G01*
G37*
G36*
G01*
X84899501Y-66844501D02*
X84899501Y-66494501D01*
G75*
G02*
X85074501Y-66319501I175000J0D01*
G01*
X86774501Y-66319501D01*
G75*
G02*
X86949501Y-66494501I0J-175000D01*
G01*
X86949501Y-66844501D01*
G75*
G02*
X86774501Y-67019501I-175000J0D01*
G01*
X85074501Y-67019501D01*
G75*
G02*
X84899501Y-66844501I0J175000D01*
G01*
G37*
G36*
G01*
X95052000Y-66850000D02*
X95052000Y-66500000D01*
G75*
G02*
X95227000Y-66325000I175000J0D01*
G01*
X96927000Y-66325000D01*
G75*
G02*
X97102000Y-66500000I0J-175000D01*
G01*
X97102000Y-66850000D01*
G75*
G02*
X96927000Y-67025000I-175000J0D01*
G01*
X95227000Y-67025000D01*
G75*
G02*
X95052000Y-66850000I0J175000D01*
G01*
G37*
G36*
G01*
X95052000Y-68120000D02*
X95052000Y-67770000D01*
G75*
G02*
X95227000Y-67595000I175000J0D01*
G01*
X96927000Y-67595000D01*
G75*
G02*
X97102000Y-67770000I0J-175000D01*
G01*
X97102000Y-68120000D01*
G75*
G02*
X96927000Y-68295000I-175000J0D01*
G01*
X95227000Y-68295000D01*
G75*
G02*
X95052000Y-68120000I0J175000D01*
G01*
G37*
G36*
G01*
X95052000Y-69390000D02*
X95052000Y-69040000D01*
G75*
G02*
X95227000Y-68865000I175000J0D01*
G01*
X96927000Y-68865000D01*
G75*
G02*
X97102000Y-69040000I0J-175000D01*
G01*
X97102000Y-69390000D01*
G75*
G02*
X96927000Y-69565000I-175000J0D01*
G01*
X95227000Y-69565000D01*
G75*
G02*
X95052000Y-69390000I0J175000D01*
G01*
G37*
G36*
G01*
X95052000Y-70660000D02*
X95052000Y-70310000D01*
G75*
G02*
X95227000Y-70135000I175000J0D01*
G01*
X96927000Y-70135000D01*
G75*
G02*
X97102000Y-70310000I0J-175000D01*
G01*
X97102000Y-70660000D01*
G75*
G02*
X96927000Y-70835000I-175000J0D01*
G01*
X95227000Y-70835000D01*
G75*
G02*
X95052000Y-70660000I0J175000D01*
G01*
G37*
G36*
G01*
X100002000Y-70660000D02*
X100002000Y-70310000D01*
G75*
G02*
X100177000Y-70135000I175000J0D01*
G01*
X101877000Y-70135000D01*
G75*
G02*
X102052000Y-70310000I0J-175000D01*
G01*
X102052000Y-70660000D01*
G75*
G02*
X101877000Y-70835000I-175000J0D01*
G01*
X100177000Y-70835000D01*
G75*
G02*
X100002000Y-70660000I0J175000D01*
G01*
G37*
G36*
G01*
X100002000Y-69390000D02*
X100002000Y-69040000D01*
G75*
G02*
X100177000Y-68865000I175000J0D01*
G01*
X101877000Y-68865000D01*
G75*
G02*
X102052000Y-69040000I0J-175000D01*
G01*
X102052000Y-69390000D01*
G75*
G02*
X101877000Y-69565000I-175000J0D01*
G01*
X100177000Y-69565000D01*
G75*
G02*
X100002000Y-69390000I0J175000D01*
G01*
G37*
G36*
G01*
X100002000Y-68120000D02*
X100002000Y-67770000D01*
G75*
G02*
X100177000Y-67595000I175000J0D01*
G01*
X101877000Y-67595000D01*
G75*
G02*
X102052000Y-67770000I0J-175000D01*
G01*
X102052000Y-68120000D01*
G75*
G02*
X101877000Y-68295000I-175000J0D01*
G01*
X100177000Y-68295000D01*
G75*
G02*
X100002000Y-68120000I0J175000D01*
G01*
G37*
G36*
G01*
X100002000Y-66850000D02*
X100002000Y-66500000D01*
G75*
G02*
X100177000Y-66325000I175000J0D01*
G01*
X101877000Y-66325000D01*
G75*
G02*
X102052000Y-66500000I0J-175000D01*
G01*
X102052000Y-66850000D01*
G75*
G02*
X101877000Y-67025000I-175000J0D01*
G01*
X100177000Y-67025000D01*
G75*
G02*
X100002000Y-66850000I0J175000D01*
G01*
G37*
D15*
X77470000Y-60198000D03*
D16*
X71170000Y-60198000D03*
X71170000Y-62498000D03*
X71170000Y-57898000D03*
G36*
G01*
X74797000Y-66850000D02*
X74797000Y-66500000D01*
G75*
G02*
X74972000Y-66325000I175000J0D01*
G01*
X76672000Y-66325000D01*
G75*
G02*
X76847000Y-66500000I0J-175000D01*
G01*
X76847000Y-66850000D01*
G75*
G02*
X76672000Y-67025000I-175000J0D01*
G01*
X74972000Y-67025000D01*
G75*
G02*
X74797000Y-66850000I0J175000D01*
G01*
G37*
G36*
G01*
X74797000Y-68120000D02*
X74797000Y-67770000D01*
G75*
G02*
X74972000Y-67595000I175000J0D01*
G01*
X76672000Y-67595000D01*
G75*
G02*
X76847000Y-67770000I0J-175000D01*
G01*
X76847000Y-68120000D01*
G75*
G02*
X76672000Y-68295000I-175000J0D01*
G01*
X74972000Y-68295000D01*
G75*
G02*
X74797000Y-68120000I0J175000D01*
G01*
G37*
G36*
G01*
X74797000Y-69390000D02*
X74797000Y-69040000D01*
G75*
G02*
X74972000Y-68865000I175000J0D01*
G01*
X76672000Y-68865000D01*
G75*
G02*
X76847000Y-69040000I0J-175000D01*
G01*
X76847000Y-69390000D01*
G75*
G02*
X76672000Y-69565000I-175000J0D01*
G01*
X74972000Y-69565000D01*
G75*
G02*
X74797000Y-69390000I0J175000D01*
G01*
G37*
G36*
G01*
X74797000Y-70660000D02*
X74797000Y-70310000D01*
G75*
G02*
X74972000Y-70135000I175000J0D01*
G01*
X76672000Y-70135000D01*
G75*
G02*
X76847000Y-70310000I0J-175000D01*
G01*
X76847000Y-70660000D01*
G75*
G02*
X76672000Y-70835000I-175000J0D01*
G01*
X74972000Y-70835000D01*
G75*
G02*
X74797000Y-70660000I0J175000D01*
G01*
G37*
G36*
G01*
X79747000Y-70660000D02*
X79747000Y-70310000D01*
G75*
G02*
X79922000Y-70135000I175000J0D01*
G01*
X81622000Y-70135000D01*
G75*
G02*
X81797000Y-70310000I0J-175000D01*
G01*
X81797000Y-70660000D01*
G75*
G02*
X81622000Y-70835000I-175000J0D01*
G01*
X79922000Y-70835000D01*
G75*
G02*
X79747000Y-70660000I0J175000D01*
G01*
G37*
G36*
G01*
X79747000Y-69390000D02*
X79747000Y-69040000D01*
G75*
G02*
X79922000Y-68865000I175000J0D01*
G01*
X81622000Y-68865000D01*
G75*
G02*
X81797000Y-69040000I0J-175000D01*
G01*
X81797000Y-69390000D01*
G75*
G02*
X81622000Y-69565000I-175000J0D01*
G01*
X79922000Y-69565000D01*
G75*
G02*
X79747000Y-69390000I0J175000D01*
G01*
G37*
G36*
G01*
X79747000Y-68120000D02*
X79747000Y-67770000D01*
G75*
G02*
X79922000Y-67595000I175000J0D01*
G01*
X81622000Y-67595000D01*
G75*
G02*
X81797000Y-67770000I0J-175000D01*
G01*
X81797000Y-68120000D01*
G75*
G02*
X81622000Y-68295000I-175000J0D01*
G01*
X79922000Y-68295000D01*
G75*
G02*
X79747000Y-68120000I0J175000D01*
G01*
G37*
G36*
G01*
X79747000Y-66850000D02*
X79747000Y-66500000D01*
G75*
G02*
X79922000Y-66325000I175000J0D01*
G01*
X81622000Y-66325000D01*
G75*
G02*
X81797000Y-66500000I0J-175000D01*
G01*
X81797000Y-66850000D01*
G75*
G02*
X81622000Y-67025000I-175000J0D01*
G01*
X79922000Y-67025000D01*
G75*
G02*
X79747000Y-66850000I0J175000D01*
G01*
G37*
D17*
X96266000Y-58420000D03*
X81026000Y-58420000D03*
M02*
