M48
INCH,TZ
T1C0.0157
T2C0.0315
T3C0.0394
%
G90
G05
T1
X29851Y-26250
X29900Y-27700
X30500Y-23700
X30800Y-26701
X31800Y-26750
X32024Y-29300
X32024Y-30500
X32500Y-28300
X33829Y-27248
X34201Y-27701
X35752Y-27708
X35777Y-26248
X37800Y-27800
X37826Y-26750
X39774Y-26250
X39800Y-25326
T2
X33900Y-22800
X34900Y-23800
X35900Y-22800
T3
X37900Y-23000
X33600Y-18000
X33600Y-19181
X34781Y-18000
X34781Y-19181
X35962Y-18000
X35962Y-19181
X31900Y-23000
T0
M30
