G04 #@! TF.GenerationSoftware,KiCad,Pcbnew,(5.1.6)-1*
G04 #@! TF.CreationDate,2021-06-24T15:04:22+10:00*
G04 #@! TF.ProjectId,BSPD_Accumulator,42535044-5f41-4636-9375-6d756c61746f,rev?*
G04 #@! TF.SameCoordinates,Original*
G04 #@! TF.FileFunction,Soldermask,Bot*
G04 #@! TF.FilePolarity,Negative*
%FSLAX46Y46*%
G04 Gerber Fmt 4.6, Leading zero omitted, Abs format (unit mm)*
G04 Created by KiCad (PCBNEW (5.1.6)-1) date 2021-06-24 15:04:22*
%MOMM*%
%LPD*%
G01*
G04 APERTURE LIST*
%ADD10C,1.100000*%
%ADD11C,1.600000*%
%ADD12C,3.300000*%
%ADD13C,1.540000*%
%ADD14C,2.100000*%
G04 APERTURE END LIST*
D10*
X82344000Y-49660000D03*
X94344000Y-49660000D03*
G36*
G01*
X84544000Y-46253333D02*
X84544000Y-45186667D01*
G75*
G02*
X84810667Y-44920000I266667J0D01*
G01*
X85877333Y-44920000D01*
G75*
G02*
X86144000Y-45186667I0J-266667D01*
G01*
X86144000Y-46253333D01*
G75*
G02*
X85877333Y-46520000I-266667J0D01*
G01*
X84810667Y-46520000D01*
G75*
G02*
X84544000Y-46253333I0J266667D01*
G01*
G37*
D11*
X88344000Y-45720000D03*
X91344000Y-45720000D03*
X85344000Y-48720000D03*
X88344000Y-48720000D03*
X91344000Y-48720000D03*
D12*
X73025000Y-76355000D03*
X103025000Y-76355000D03*
X103025000Y-46355000D03*
X73025000Y-46355000D03*
G36*
G01*
X87892000Y-69107000D02*
X88892000Y-69107000D01*
G75*
G02*
X89167000Y-69382000I0J-275000D01*
G01*
X89167000Y-69932000D01*
G75*
G02*
X88892000Y-70207000I-275000J0D01*
G01*
X87892000Y-70207000D01*
G75*
G02*
X87617000Y-69932000I0J275000D01*
G01*
X87617000Y-69382000D01*
G75*
G02*
X87892000Y-69107000I275000J0D01*
G01*
G37*
G36*
G01*
X87892000Y-67207000D02*
X88892000Y-67207000D01*
G75*
G02*
X89167000Y-67482000I0J-275000D01*
G01*
X89167000Y-68032000D01*
G75*
G02*
X88892000Y-68307000I-275000J0D01*
G01*
X87892000Y-68307000D01*
G75*
G02*
X87617000Y-68032000I0J275000D01*
G01*
X87617000Y-67482000D01*
G75*
G02*
X87892000Y-67207000I275000J0D01*
G01*
G37*
G36*
G01*
X98052000Y-67016500D02*
X99052000Y-67016500D01*
G75*
G02*
X99327000Y-67291500I0J-275000D01*
G01*
X99327000Y-67841500D01*
G75*
G02*
X99052000Y-68116500I-275000J0D01*
G01*
X98052000Y-68116500D01*
G75*
G02*
X97777000Y-67841500I0J275000D01*
G01*
X97777000Y-67291500D01*
G75*
G02*
X98052000Y-67016500I275000J0D01*
G01*
G37*
G36*
G01*
X98052000Y-68916500D02*
X99052000Y-68916500D01*
G75*
G02*
X99327000Y-69191500I0J-275000D01*
G01*
X99327000Y-69741500D01*
G75*
G02*
X99052000Y-70016500I-275000J0D01*
G01*
X98052000Y-70016500D01*
G75*
G02*
X97777000Y-69741500I0J275000D01*
G01*
X97777000Y-69191500D01*
G75*
G02*
X98052000Y-68916500I275000J0D01*
G01*
G37*
G36*
G01*
X77732000Y-67270500D02*
X78732000Y-67270500D01*
G75*
G02*
X79007000Y-67545500I0J-275000D01*
G01*
X79007000Y-68095500D01*
G75*
G02*
X78732000Y-68370500I-275000J0D01*
G01*
X77732000Y-68370500D01*
G75*
G02*
X77457000Y-68095500I0J275000D01*
G01*
X77457000Y-67545500D01*
G75*
G02*
X77732000Y-67270500I275000J0D01*
G01*
G37*
G36*
G01*
X77732000Y-69170500D02*
X78732000Y-69170500D01*
G75*
G02*
X79007000Y-69445500I0J-275000D01*
G01*
X79007000Y-69995500D01*
G75*
G02*
X78732000Y-70270500I-275000J0D01*
G01*
X77732000Y-70270500D01*
G75*
G02*
X77457000Y-69995500I0J275000D01*
G01*
X77457000Y-69445500D01*
G75*
G02*
X77732000Y-69170500I275000J0D01*
G01*
G37*
G36*
G01*
X83269000Y-61104779D02*
X83269000Y-59799221D01*
G75*
G02*
X83541221Y-59527000I272221J0D01*
G01*
X84221779Y-59527000D01*
G75*
G02*
X84494000Y-59799221I0J-272221D01*
G01*
X84494000Y-61104779D01*
G75*
G02*
X84221779Y-61377000I-272221J0D01*
G01*
X83541221Y-61377000D01*
G75*
G02*
X83269000Y-61104779I0J272221D01*
G01*
G37*
G36*
G01*
X86194000Y-61104779D02*
X86194000Y-59799221D01*
G75*
G02*
X86466221Y-59527000I272221J0D01*
G01*
X87146779Y-59527000D01*
G75*
G02*
X87419000Y-59799221I0J-272221D01*
G01*
X87419000Y-61104779D01*
G75*
G02*
X87146779Y-61377000I-272221J0D01*
G01*
X86466221Y-61377000D01*
G75*
G02*
X86194000Y-61104779I0J272221D01*
G01*
G37*
G36*
G01*
X83654000Y-75074779D02*
X83654000Y-73769221D01*
G75*
G02*
X83926221Y-73497000I272221J0D01*
G01*
X84606779Y-73497000D01*
G75*
G02*
X84879000Y-73769221I0J-272221D01*
G01*
X84879000Y-75074779D01*
G75*
G02*
X84606779Y-75347000I-272221J0D01*
G01*
X83926221Y-75347000D01*
G75*
G02*
X83654000Y-75074779I0J272221D01*
G01*
G37*
G36*
G01*
X80729000Y-75074779D02*
X80729000Y-73769221D01*
G75*
G02*
X81001221Y-73497000I272221J0D01*
G01*
X81681779Y-73497000D01*
G75*
G02*
X81954000Y-73769221I0J-272221D01*
G01*
X81954000Y-75074779D01*
G75*
G02*
X81681779Y-75347000I-272221J0D01*
G01*
X81001221Y-75347000D01*
G75*
G02*
X80729000Y-75074779I0J272221D01*
G01*
G37*
G36*
G01*
X80729000Y-78122779D02*
X80729000Y-76817221D01*
G75*
G02*
X81001221Y-76545000I272221J0D01*
G01*
X81681779Y-76545000D01*
G75*
G02*
X81954000Y-76817221I0J-272221D01*
G01*
X81954000Y-78122779D01*
G75*
G02*
X81681779Y-78395000I-272221J0D01*
G01*
X81001221Y-78395000D01*
G75*
G02*
X80729000Y-78122779I0J272221D01*
G01*
G37*
G36*
G01*
X83654000Y-78122779D02*
X83654000Y-76817221D01*
G75*
G02*
X83926221Y-76545000I272221J0D01*
G01*
X84606779Y-76545000D01*
G75*
G02*
X84879000Y-76817221I0J-272221D01*
G01*
X84879000Y-78122779D01*
G75*
G02*
X84606779Y-78395000I-272221J0D01*
G01*
X83926221Y-78395000D01*
G75*
G02*
X83654000Y-78122779I0J272221D01*
G01*
G37*
D13*
X91186000Y-57912000D03*
X88646000Y-60452000D03*
X86106000Y-57912000D03*
D14*
X96266000Y-58420000D03*
X81026000Y-58420000D03*
M02*
