G04 #@! TF.GenerationSoftware,KiCad,Pcbnew,(5.1.6)-1*
G04 #@! TF.CreationDate,2021-06-24T15:04:22+10:00*
G04 #@! TF.ProjectId,BSPD_Accumulator,42535044-5f41-4636-9375-6d756c61746f,rev?*
G04 #@! TF.SameCoordinates,Original*
G04 #@! TF.FileFunction,Legend,Bot*
G04 #@! TF.FilePolarity,Positive*
%FSLAX46Y46*%
G04 Gerber Fmt 4.6, Leading zero omitted, Abs format (unit mm)*
G04 Created by KiCad (PCBNEW (5.1.6)-1) date 2021-06-24 15:04:22*
%MOMM*%
%LPD*%
G01*
G04 APERTURE LIST*
%ADD10C,0.150000*%
%ADD11C,0.120000*%
G04 APERTURE END LIST*
D10*
X99153071Y-74478571D02*
X99010214Y-74526190D01*
X98962595Y-74573809D01*
X98914976Y-74669047D01*
X98914976Y-74811904D01*
X98962595Y-74907142D01*
X99010214Y-74954761D01*
X99105452Y-75002380D01*
X99486404Y-75002380D01*
X99486404Y-74002380D01*
X99153071Y-74002380D01*
X99057833Y-74050000D01*
X99010214Y-74097619D01*
X98962595Y-74192857D01*
X98962595Y-74288095D01*
X99010214Y-74383333D01*
X99057833Y-74430952D01*
X99153071Y-74478571D01*
X99486404Y-74478571D01*
X98534023Y-74954761D02*
X98391166Y-75002380D01*
X98153071Y-75002380D01*
X98057833Y-74954761D01*
X98010214Y-74907142D01*
X97962595Y-74811904D01*
X97962595Y-74716666D01*
X98010214Y-74621428D01*
X98057833Y-74573809D01*
X98153071Y-74526190D01*
X98343547Y-74478571D01*
X98438785Y-74430952D01*
X98486404Y-74383333D01*
X98534023Y-74288095D01*
X98534023Y-74192857D01*
X98486404Y-74097619D01*
X98438785Y-74050000D01*
X98343547Y-74002380D01*
X98105452Y-74002380D01*
X97962595Y-74050000D01*
X97534023Y-75002380D02*
X97534023Y-74002380D01*
X97153071Y-74002380D01*
X97057833Y-74050000D01*
X97010214Y-74097619D01*
X96962595Y-74192857D01*
X96962595Y-74335714D01*
X97010214Y-74430952D01*
X97057833Y-74478571D01*
X97153071Y-74526190D01*
X97534023Y-74526190D01*
X96534023Y-75002380D02*
X96534023Y-74002380D01*
X96295928Y-74002380D01*
X96153071Y-74050000D01*
X96057833Y-74145238D01*
X96010214Y-74240476D01*
X95962595Y-74430952D01*
X95962595Y-74573809D01*
X96010214Y-74764285D01*
X96057833Y-74859523D01*
X96153071Y-74954761D01*
X96295928Y-75002380D01*
X96534023Y-75002380D01*
X95534023Y-74621428D02*
X94772119Y-74621428D01*
X94391166Y-74002380D02*
X93772119Y-74002380D01*
X94105452Y-74383333D01*
X93962595Y-74383333D01*
X93867357Y-74430952D01*
X93819738Y-74478571D01*
X93772119Y-74573809D01*
X93772119Y-74811904D01*
X93819738Y-74907142D01*
X93867357Y-74954761D01*
X93962595Y-75002380D01*
X94248309Y-75002380D01*
X94343547Y-74954761D01*
X94391166Y-74907142D01*
X93343547Y-74621428D02*
X92581642Y-74621428D01*
X91581642Y-75002380D02*
X92153071Y-75002380D01*
X91867357Y-75002380D02*
X91867357Y-74002380D01*
X91962595Y-74145238D01*
X92057833Y-74240476D01*
X92153071Y-74288095D01*
X91153071Y-74907142D02*
X91105452Y-74954761D01*
X91153071Y-75002380D01*
X91200690Y-74954761D01*
X91153071Y-74907142D01*
X91153071Y-75002380D01*
X90486404Y-74002380D02*
X90391166Y-74002380D01*
X90295928Y-74050000D01*
X90248309Y-74097619D01*
X90200690Y-74192857D01*
X90153071Y-74383333D01*
X90153071Y-74621428D01*
X90200690Y-74811904D01*
X90248309Y-74907142D01*
X90295928Y-74954761D01*
X90391166Y-75002380D01*
X90486404Y-75002380D01*
X90581642Y-74954761D01*
X90629261Y-74907142D01*
X90676880Y-74811904D01*
X90724500Y-74621428D01*
X90724500Y-74383333D01*
X90676880Y-74192857D01*
X90629261Y-74097619D01*
X90581642Y-74050000D01*
X90486404Y-74002380D01*
X89724500Y-74907142D02*
X89676880Y-74954761D01*
X89724500Y-75002380D01*
X89772119Y-74954761D01*
X89724500Y-74907142D01*
X89724500Y-75002380D01*
X89057833Y-74002380D02*
X88962595Y-74002380D01*
X88867357Y-74050000D01*
X88819738Y-74097619D01*
X88772119Y-74192857D01*
X88724500Y-74383333D01*
X88724500Y-74621428D01*
X88772119Y-74811904D01*
X88819738Y-74907142D01*
X88867357Y-74954761D01*
X88962595Y-75002380D01*
X89057833Y-75002380D01*
X89153071Y-74954761D01*
X89200690Y-74907142D01*
X89248309Y-74811904D01*
X89295928Y-74621428D01*
X89295928Y-74383333D01*
X89248309Y-74192857D01*
X89200690Y-74097619D01*
X89153071Y-74050000D01*
X89057833Y-74002380D01*
X99486404Y-76652380D02*
X99486404Y-75652380D01*
X98914976Y-76652380D01*
X98914976Y-75652380D01*
X98438785Y-75652380D02*
X98438785Y-76461904D01*
X98391166Y-76557142D01*
X98343547Y-76604761D01*
X98248309Y-76652380D01*
X98057833Y-76652380D01*
X97962595Y-76604761D01*
X97914976Y-76557142D01*
X97867357Y-76461904D01*
X97867357Y-75652380D01*
X96819738Y-76652380D02*
X97153071Y-76176190D01*
X97391166Y-76652380D02*
X97391166Y-75652380D01*
X97010214Y-75652380D01*
X96914976Y-75700000D01*
X96867357Y-75747619D01*
X96819738Y-75842857D01*
X96819738Y-75985714D01*
X96867357Y-76080952D01*
X96914976Y-76128571D01*
X97010214Y-76176190D01*
X97391166Y-76176190D01*
X95962595Y-76652380D02*
X95962595Y-76128571D01*
X96010214Y-76033333D01*
X96105452Y-75985714D01*
X96295928Y-75985714D01*
X96391166Y-76033333D01*
X95962595Y-76604761D02*
X96057833Y-76652380D01*
X96295928Y-76652380D01*
X96391166Y-76604761D01*
X96438785Y-76509523D01*
X96438785Y-76414285D01*
X96391166Y-76319047D01*
X96295928Y-76271428D01*
X96057833Y-76271428D01*
X95962595Y-76223809D01*
X95057833Y-76604761D02*
X95153071Y-76652380D01*
X95343547Y-76652380D01*
X95438785Y-76604761D01*
X95486404Y-76557142D01*
X95534023Y-76461904D01*
X95534023Y-76176190D01*
X95486404Y-76080952D01*
X95438785Y-76033333D01*
X95343547Y-75985714D01*
X95153071Y-75985714D01*
X95057833Y-76033333D01*
X94629261Y-76652380D02*
X94629261Y-75985714D01*
X94629261Y-75652380D02*
X94676880Y-75700000D01*
X94629261Y-75747619D01*
X94581642Y-75700000D01*
X94629261Y-75652380D01*
X94629261Y-75747619D01*
X94153071Y-75985714D02*
X94153071Y-76652380D01*
X94153071Y-76080952D02*
X94105452Y-76033333D01*
X94010214Y-75985714D01*
X93867357Y-75985714D01*
X93772119Y-76033333D01*
X93724500Y-76128571D01*
X93724500Y-76652380D01*
X92819738Y-75985714D02*
X92819738Y-76795238D01*
X92867357Y-76890476D01*
X92914976Y-76938095D01*
X93010214Y-76985714D01*
X93153071Y-76985714D01*
X93248309Y-76938095D01*
X92819738Y-76604761D02*
X92914976Y-76652380D01*
X93105452Y-76652380D01*
X93200690Y-76604761D01*
X93248309Y-76557142D01*
X93295928Y-76461904D01*
X93295928Y-76176190D01*
X93248309Y-76080952D01*
X93200690Y-76033333D01*
X93105452Y-75985714D01*
X92914976Y-75985714D01*
X92819738Y-76033333D01*
X99486404Y-78302380D02*
X99486404Y-77302380D01*
X99153071Y-78016666D01*
X98819738Y-77302380D01*
X98819738Y-78302380D01*
X97676880Y-77302380D02*
X97438785Y-78302380D01*
X97248309Y-77588095D01*
X97057833Y-78302380D01*
X96819738Y-77302380D01*
X96438785Y-78302380D02*
X96438785Y-77302380D01*
X96010214Y-78302380D02*
X96010214Y-77778571D01*
X96057833Y-77683333D01*
X96153071Y-77635714D01*
X96295928Y-77635714D01*
X96391166Y-77683333D01*
X96438785Y-77730952D01*
X95534023Y-78302380D02*
X95534023Y-77635714D01*
X95534023Y-77302380D02*
X95581642Y-77350000D01*
X95534023Y-77397619D01*
X95486404Y-77350000D01*
X95534023Y-77302380D01*
X95534023Y-77397619D01*
X95200690Y-77635714D02*
X94819738Y-77635714D01*
X95057833Y-77302380D02*
X95057833Y-78159523D01*
X95010214Y-78254761D01*
X94914976Y-78302380D01*
X94819738Y-78302380D01*
X94581642Y-77635714D02*
X94391166Y-78302380D01*
X94200690Y-77826190D01*
X94010214Y-78302380D01*
X93819738Y-77635714D01*
X93295928Y-78302380D02*
X93391166Y-78254761D01*
X93438785Y-78207142D01*
X93486404Y-78111904D01*
X93486404Y-77826190D01*
X93438785Y-77730952D01*
X93391166Y-77683333D01*
X93295928Y-77635714D01*
X93153071Y-77635714D01*
X93057833Y-77683333D01*
X93010214Y-77730952D01*
X92962595Y-77826190D01*
X92962595Y-78111904D01*
X93010214Y-78207142D01*
X93057833Y-78254761D01*
X93153071Y-78302380D01*
X93295928Y-78302380D01*
X92534023Y-78302380D02*
X92534023Y-77635714D01*
X92534023Y-77826190D02*
X92486404Y-77730952D01*
X92438785Y-77683333D01*
X92343547Y-77635714D01*
X92248309Y-77635714D01*
X92057833Y-77635714D02*
X91676880Y-77635714D01*
X91914976Y-77302380D02*
X91914976Y-78159523D01*
X91867357Y-78254761D01*
X91772119Y-78302380D01*
X91676880Y-78302380D01*
X91343547Y-78302380D02*
X91343547Y-77302380D01*
X90914976Y-78302380D02*
X90914976Y-77778571D01*
X90962595Y-77683333D01*
X91057833Y-77635714D01*
X91200690Y-77635714D01*
X91295928Y-77683333D01*
X91343547Y-77730952D01*
D11*
X89127000Y-68445748D02*
X89127000Y-68968252D01*
X87657000Y-68445748D02*
X87657000Y-68968252D01*
X97817000Y-68255248D02*
X97817000Y-68777752D01*
X99287000Y-68255248D02*
X99287000Y-68777752D01*
X77497000Y-68509248D02*
X77497000Y-69031752D01*
X78967000Y-68509248D02*
X78967000Y-69031752D01*
X84616936Y-61362000D02*
X86071064Y-61362000D01*
X84616936Y-59542000D02*
X86071064Y-59542000D01*
X82076936Y-73512000D02*
X83531064Y-73512000D01*
X82076936Y-75332000D02*
X83531064Y-75332000D01*
X82076936Y-78380000D02*
X83531064Y-78380000D01*
X82076936Y-76560000D02*
X83531064Y-76560000D01*
D10*
X85510666Y-60904380D02*
X85844000Y-60428190D01*
X86082095Y-60904380D02*
X86082095Y-59904380D01*
X85701142Y-59904380D01*
X85605904Y-59952000D01*
X85558285Y-59999619D01*
X85510666Y-60094857D01*
X85510666Y-60237714D01*
X85558285Y-60332952D01*
X85605904Y-60380571D01*
X85701142Y-60428190D01*
X86082095Y-60428190D01*
X84605904Y-59904380D02*
X85082095Y-59904380D01*
X85129714Y-60380571D01*
X85082095Y-60332952D01*
X84986857Y-60285333D01*
X84748761Y-60285333D01*
X84653523Y-60332952D01*
X84605904Y-60380571D01*
X84558285Y-60475809D01*
X84558285Y-60713904D01*
X84605904Y-60809142D01*
X84653523Y-60856761D01*
X84748761Y-60904380D01*
X84986857Y-60904380D01*
X85082095Y-60856761D01*
X85129714Y-60809142D01*
X82970666Y-74874380D02*
X83304000Y-74398190D01*
X83542095Y-74874380D02*
X83542095Y-73874380D01*
X83161142Y-73874380D01*
X83065904Y-73922000D01*
X83018285Y-73969619D01*
X82970666Y-74064857D01*
X82970666Y-74207714D01*
X83018285Y-74302952D01*
X83065904Y-74350571D01*
X83161142Y-74398190D01*
X83542095Y-74398190D01*
X82399238Y-74302952D02*
X82494476Y-74255333D01*
X82542095Y-74207714D01*
X82589714Y-74112476D01*
X82589714Y-74064857D01*
X82542095Y-73969619D01*
X82494476Y-73922000D01*
X82399238Y-73874380D01*
X82208761Y-73874380D01*
X82113523Y-73922000D01*
X82065904Y-73969619D01*
X82018285Y-74064857D01*
X82018285Y-74112476D01*
X82065904Y-74207714D01*
X82113523Y-74255333D01*
X82208761Y-74302952D01*
X82399238Y-74302952D01*
X82494476Y-74350571D01*
X82542095Y-74398190D01*
X82589714Y-74493428D01*
X82589714Y-74683904D01*
X82542095Y-74779142D01*
X82494476Y-74826761D01*
X82399238Y-74874380D01*
X82208761Y-74874380D01*
X82113523Y-74826761D01*
X82065904Y-74779142D01*
X82018285Y-74683904D01*
X82018285Y-74493428D01*
X82065904Y-74398190D01*
X82113523Y-74350571D01*
X82208761Y-74302952D01*
X82970666Y-77922380D02*
X83304000Y-77446190D01*
X83542095Y-77922380D02*
X83542095Y-76922380D01*
X83161142Y-76922380D01*
X83065904Y-76970000D01*
X83018285Y-77017619D01*
X82970666Y-77112857D01*
X82970666Y-77255714D01*
X83018285Y-77350952D01*
X83065904Y-77398571D01*
X83161142Y-77446190D01*
X83542095Y-77446190D01*
X82494476Y-77922380D02*
X82304000Y-77922380D01*
X82208761Y-77874761D01*
X82161142Y-77827142D01*
X82065904Y-77684285D01*
X82018285Y-77493809D01*
X82018285Y-77112857D01*
X82065904Y-77017619D01*
X82113523Y-76970000D01*
X82208761Y-76922380D01*
X82399238Y-76922380D01*
X82494476Y-76970000D01*
X82542095Y-77017619D01*
X82589714Y-77112857D01*
X82589714Y-77350952D01*
X82542095Y-77446190D01*
X82494476Y-77493809D01*
X82399238Y-77541428D01*
X82208761Y-77541428D01*
X82113523Y-77493809D01*
X82065904Y-77446190D01*
X82018285Y-77350952D01*
M02*
