G04 #@! TF.GenerationSoftware,KiCad,Pcbnew,(5.1.6)-1*
G04 #@! TF.CreationDate,2021-06-24T15:04:22+10:00*
G04 #@! TF.ProjectId,BSPD_Accumulator,42535044-5f41-4636-9375-6d756c61746f,rev?*
G04 #@! TF.SameCoordinates,Original*
G04 #@! TF.FileFunction,Legend,Top*
G04 #@! TF.FilePolarity,Positive*
%FSLAX46Y46*%
G04 Gerber Fmt 4.6, Leading zero omitted, Abs format (unit mm)*
G04 Created by KiCad (PCBNEW (5.1.6)-1) date 2021-06-24 15:04:22*
%MOMM*%
%LPD*%
G01*
G04 APERTURE LIST*
%ADD10C,0.150000*%
%ADD11C,0.010000*%
%ADD12C,0.120000*%
G04 APERTURE END LIST*
D10*
X70969428Y-52173142D02*
X70921809Y-52220761D01*
X70778952Y-52268380D01*
X70683714Y-52268380D01*
X70540857Y-52220761D01*
X70445619Y-52125523D01*
X70398000Y-52030285D01*
X70350380Y-51839809D01*
X70350380Y-51696952D01*
X70398000Y-51506476D01*
X70445619Y-51411238D01*
X70540857Y-51316000D01*
X70683714Y-51268380D01*
X70778952Y-51268380D01*
X70921809Y-51316000D01*
X70969428Y-51363619D01*
X71826571Y-51601714D02*
X71826571Y-52268380D01*
X71398000Y-51601714D02*
X71398000Y-52125523D01*
X71445619Y-52220761D01*
X71540857Y-52268380D01*
X71683714Y-52268380D01*
X71778952Y-52220761D01*
X71826571Y-52173142D01*
X72302761Y-52268380D02*
X72302761Y-51601714D01*
X72302761Y-51792190D02*
X72350380Y-51696952D01*
X72398000Y-51649333D01*
X72493238Y-51601714D01*
X72588476Y-51601714D01*
X72921809Y-52268380D02*
X72921809Y-51601714D01*
X72921809Y-51792190D02*
X72969428Y-51696952D01*
X73017047Y-51649333D01*
X73112285Y-51601714D01*
X73207523Y-51601714D01*
X73921809Y-52220761D02*
X73826571Y-52268380D01*
X73636095Y-52268380D01*
X73540857Y-52220761D01*
X73493238Y-52125523D01*
X73493238Y-51744571D01*
X73540857Y-51649333D01*
X73636095Y-51601714D01*
X73826571Y-51601714D01*
X73921809Y-51649333D01*
X73969428Y-51744571D01*
X73969428Y-51839809D01*
X73493238Y-51935047D01*
X74398000Y-51601714D02*
X74398000Y-52268380D01*
X74398000Y-51696952D02*
X74445619Y-51649333D01*
X74540857Y-51601714D01*
X74683714Y-51601714D01*
X74778952Y-51649333D01*
X74826571Y-51744571D01*
X74826571Y-52268380D01*
X75159904Y-51601714D02*
X75540857Y-51601714D01*
X75302761Y-51268380D02*
X75302761Y-52125523D01*
X75350380Y-52220761D01*
X75445619Y-52268380D01*
X75540857Y-52268380D01*
X70731238Y-50474571D02*
X70874095Y-50522190D01*
X70921714Y-50569809D01*
X70969333Y-50665047D01*
X70969333Y-50807904D01*
X70921714Y-50903142D01*
X70874095Y-50950761D01*
X70778857Y-50998380D01*
X70397904Y-50998380D01*
X70397904Y-49998380D01*
X70731238Y-49998380D01*
X70826476Y-50046000D01*
X70874095Y-50093619D01*
X70921714Y-50188857D01*
X70921714Y-50284095D01*
X70874095Y-50379333D01*
X70826476Y-50426952D01*
X70731238Y-50474571D01*
X70397904Y-50474571D01*
X71350285Y-50950761D02*
X71493142Y-50998380D01*
X71731238Y-50998380D01*
X71826476Y-50950761D01*
X71874095Y-50903142D01*
X71921714Y-50807904D01*
X71921714Y-50712666D01*
X71874095Y-50617428D01*
X71826476Y-50569809D01*
X71731238Y-50522190D01*
X71540761Y-50474571D01*
X71445523Y-50426952D01*
X71397904Y-50379333D01*
X71350285Y-50284095D01*
X71350285Y-50188857D01*
X71397904Y-50093619D01*
X71445523Y-50046000D01*
X71540761Y-49998380D01*
X71778857Y-49998380D01*
X71921714Y-50046000D01*
X72350285Y-50998380D02*
X72350285Y-49998380D01*
X72731238Y-49998380D01*
X72826476Y-50046000D01*
X72874095Y-50093619D01*
X72921714Y-50188857D01*
X72921714Y-50331714D01*
X72874095Y-50426952D01*
X72826476Y-50474571D01*
X72731238Y-50522190D01*
X72350285Y-50522190D01*
X73350285Y-50998380D02*
X73350285Y-49998380D01*
X73588380Y-49998380D01*
X73731238Y-50046000D01*
X73826476Y-50141238D01*
X73874095Y-50236476D01*
X73921714Y-50426952D01*
X73921714Y-50569809D01*
X73874095Y-50760285D01*
X73826476Y-50855523D01*
X73731238Y-50950761D01*
X73588380Y-50998380D01*
X73350285Y-50998380D01*
D11*
G36*
X105466985Y-50396081D02*
G01*
X105506978Y-50405360D01*
X105511600Y-50411393D01*
X105501218Y-50437538D01*
X105471576Y-50504763D01*
X105424932Y-50608128D01*
X105363543Y-50742695D01*
X105289665Y-50903524D01*
X105205555Y-51085676D01*
X105113470Y-51284212D01*
X105073450Y-51370243D01*
X104953705Y-51626466D01*
X104852178Y-51840552D01*
X104766177Y-52016661D01*
X104693011Y-52158954D01*
X104629988Y-52271591D01*
X104574415Y-52358732D01*
X104523603Y-52424538D01*
X104474858Y-52473168D01*
X104425490Y-52508784D01*
X104372806Y-52535544D01*
X104314115Y-52557611D01*
X104302807Y-52561372D01*
X104160318Y-52596578D01*
X104008588Y-52615087D01*
X103869252Y-52614949D01*
X103805636Y-52606196D01*
X103677992Y-52561884D01*
X103590461Y-52492912D01*
X103545880Y-52403024D01*
X103547087Y-52295967D01*
X103553083Y-52272791D01*
X103569639Y-52230135D01*
X103605326Y-52147166D01*
X103657598Y-52029513D01*
X103723908Y-51882805D01*
X103801708Y-51712672D01*
X103888452Y-51524742D01*
X103981594Y-51324646D01*
X103995510Y-51294891D01*
X104411342Y-50406300D01*
X104593171Y-50398837D01*
X104697977Y-50397724D01*
X104757097Y-50405356D01*
X104775000Y-50421552D01*
X104764577Y-50450562D01*
X104734857Y-50520395D01*
X104688167Y-50625903D01*
X104626828Y-50761941D01*
X104553167Y-50923361D01*
X104469508Y-51105017D01*
X104378174Y-51301761D01*
X104355900Y-51349520D01*
X104263260Y-51548291D01*
X104177721Y-51732446D01*
X104101594Y-51896962D01*
X104037191Y-52036813D01*
X103986825Y-52146975D01*
X103952808Y-52222423D01*
X103937452Y-52258133D01*
X103936800Y-52260254D01*
X103959655Y-52267651D01*
X104018072Y-52272337D01*
X104063399Y-52273200D01*
X104152079Y-52266983D01*
X104214728Y-52242793D01*
X104263787Y-52203350D01*
X104299176Y-52155439D01*
X104353771Y-52060540D01*
X104427553Y-51918687D01*
X104520507Y-51729914D01*
X104632613Y-51494255D01*
X104725304Y-51295300D01*
X104814916Y-51102148D01*
X104898555Y-50922965D01*
X104973668Y-50763138D01*
X105037700Y-50628057D01*
X105088098Y-50523108D01*
X105122308Y-50453681D01*
X105137627Y-50425350D01*
X105170543Y-50411281D01*
X105234999Y-50400757D01*
X105315933Y-50394342D01*
X105398282Y-50392595D01*
X105466985Y-50396081D01*
G37*
X105466985Y-50396081D02*
X105506978Y-50405360D01*
X105511600Y-50411393D01*
X105501218Y-50437538D01*
X105471576Y-50504763D01*
X105424932Y-50608128D01*
X105363543Y-50742695D01*
X105289665Y-50903524D01*
X105205555Y-51085676D01*
X105113470Y-51284212D01*
X105073450Y-51370243D01*
X104953705Y-51626466D01*
X104852178Y-51840552D01*
X104766177Y-52016661D01*
X104693011Y-52158954D01*
X104629988Y-52271591D01*
X104574415Y-52358732D01*
X104523603Y-52424538D01*
X104474858Y-52473168D01*
X104425490Y-52508784D01*
X104372806Y-52535544D01*
X104314115Y-52557611D01*
X104302807Y-52561372D01*
X104160318Y-52596578D01*
X104008588Y-52615087D01*
X103869252Y-52614949D01*
X103805636Y-52606196D01*
X103677992Y-52561884D01*
X103590461Y-52492912D01*
X103545880Y-52403024D01*
X103547087Y-52295967D01*
X103553083Y-52272791D01*
X103569639Y-52230135D01*
X103605326Y-52147166D01*
X103657598Y-52029513D01*
X103723908Y-51882805D01*
X103801708Y-51712672D01*
X103888452Y-51524742D01*
X103981594Y-51324646D01*
X103995510Y-51294891D01*
X104411342Y-50406300D01*
X104593171Y-50398837D01*
X104697977Y-50397724D01*
X104757097Y-50405356D01*
X104775000Y-50421552D01*
X104764577Y-50450562D01*
X104734857Y-50520395D01*
X104688167Y-50625903D01*
X104626828Y-50761941D01*
X104553167Y-50923361D01*
X104469508Y-51105017D01*
X104378174Y-51301761D01*
X104355900Y-51349520D01*
X104263260Y-51548291D01*
X104177721Y-51732446D01*
X104101594Y-51896962D01*
X104037191Y-52036813D01*
X103986825Y-52146975D01*
X103952808Y-52222423D01*
X103937452Y-52258133D01*
X103936800Y-52260254D01*
X103959655Y-52267651D01*
X104018072Y-52272337D01*
X104063399Y-52273200D01*
X104152079Y-52266983D01*
X104214728Y-52242793D01*
X104263787Y-52203350D01*
X104299176Y-52155439D01*
X104353771Y-52060540D01*
X104427553Y-51918687D01*
X104520507Y-51729914D01*
X104632613Y-51494255D01*
X104725304Y-51295300D01*
X104814916Y-51102148D01*
X104898555Y-50922965D01*
X104973668Y-50763138D01*
X105037700Y-50628057D01*
X105088098Y-50523108D01*
X105122308Y-50453681D01*
X105137627Y-50425350D01*
X105170543Y-50411281D01*
X105234999Y-50400757D01*
X105315933Y-50394342D01*
X105398282Y-50392595D01*
X105466985Y-50396081D01*
G36*
X103774596Y-50418760D02*
G01*
X103899569Y-50454414D01*
X103983600Y-50516148D01*
X104028769Y-50605319D01*
X104038400Y-50689003D01*
X104028035Y-50722517D01*
X103998797Y-50795878D01*
X103953470Y-50902980D01*
X103894838Y-51037717D01*
X103825685Y-51193985D01*
X103748794Y-51365676D01*
X103666950Y-51546687D01*
X103582937Y-51730911D01*
X103499538Y-51912242D01*
X103419538Y-52084575D01*
X103345721Y-52241805D01*
X103280870Y-52377826D01*
X103227769Y-52486532D01*
X103189203Y-52561818D01*
X103168386Y-52597050D01*
X103135004Y-52611345D01*
X103070299Y-52621864D01*
X102989291Y-52628095D01*
X102907002Y-52629531D01*
X102838450Y-52625660D01*
X102798658Y-52615973D01*
X102794129Y-52609750D01*
X102804615Y-52583294D01*
X102834390Y-52515871D01*
X102881155Y-52412499D01*
X102942611Y-52278195D01*
X103016459Y-52117978D01*
X103100400Y-51936864D01*
X103192136Y-51739872D01*
X103221827Y-51676300D01*
X103649195Y-50761900D01*
X103521648Y-50754061D01*
X103421581Y-50756251D01*
X103350857Y-50780153D01*
X103331327Y-50793091D01*
X103301728Y-50830118D01*
X103254011Y-50910781D01*
X103187864Y-51035695D01*
X103102971Y-51205476D01*
X102999020Y-51420738D01*
X102875696Y-51682097D01*
X102854240Y-51728030D01*
X102439929Y-52616100D01*
X102246076Y-52623563D01*
X102152506Y-52624421D01*
X102087394Y-52619543D01*
X102060973Y-52609803D01*
X102061062Y-52607737D01*
X102073417Y-52580392D01*
X102105018Y-52512008D01*
X102153551Y-52407548D01*
X102216704Y-52271972D01*
X102292167Y-52110242D01*
X102377625Y-51927319D01*
X102470769Y-51728164D01*
X102512566Y-51638861D01*
X102647812Y-51352344D01*
X102763538Y-51112291D01*
X102859707Y-50918771D01*
X102936284Y-50771856D01*
X102993232Y-50671615D01*
X103030516Y-50618121D01*
X103033112Y-50615395D01*
X103176207Y-50507214D01*
X103350007Y-50438565D01*
X103555470Y-50409100D01*
X103606600Y-50407833D01*
X103774596Y-50418760D01*
G37*
X103774596Y-50418760D02*
X103899569Y-50454414D01*
X103983600Y-50516148D01*
X104028769Y-50605319D01*
X104038400Y-50689003D01*
X104028035Y-50722517D01*
X103998797Y-50795878D01*
X103953470Y-50902980D01*
X103894838Y-51037717D01*
X103825685Y-51193985D01*
X103748794Y-51365676D01*
X103666950Y-51546687D01*
X103582937Y-51730911D01*
X103499538Y-51912242D01*
X103419538Y-52084575D01*
X103345721Y-52241805D01*
X103280870Y-52377826D01*
X103227769Y-52486532D01*
X103189203Y-52561818D01*
X103168386Y-52597050D01*
X103135004Y-52611345D01*
X103070299Y-52621864D01*
X102989291Y-52628095D01*
X102907002Y-52629531D01*
X102838450Y-52625660D01*
X102798658Y-52615973D01*
X102794129Y-52609750D01*
X102804615Y-52583294D01*
X102834390Y-52515871D01*
X102881155Y-52412499D01*
X102942611Y-52278195D01*
X103016459Y-52117978D01*
X103100400Y-51936864D01*
X103192136Y-51739872D01*
X103221827Y-51676300D01*
X103649195Y-50761900D01*
X103521648Y-50754061D01*
X103421581Y-50756251D01*
X103350857Y-50780153D01*
X103331327Y-50793091D01*
X103301728Y-50830118D01*
X103254011Y-50910781D01*
X103187864Y-51035695D01*
X103102971Y-51205476D01*
X102999020Y-51420738D01*
X102875696Y-51682097D01*
X102854240Y-51728030D01*
X102439929Y-52616100D01*
X102246076Y-52623563D01*
X102152506Y-52624421D01*
X102087394Y-52619543D01*
X102060973Y-52609803D01*
X102061062Y-52607737D01*
X102073417Y-52580392D01*
X102105018Y-52512008D01*
X102153551Y-52407548D01*
X102216704Y-52271972D01*
X102292167Y-52110242D01*
X102377625Y-51927319D01*
X102470769Y-51728164D01*
X102512566Y-51638861D01*
X102647812Y-51352344D01*
X102763538Y-51112291D01*
X102859707Y-50918771D01*
X102936284Y-50771856D01*
X102993232Y-50671615D01*
X103030516Y-50618121D01*
X103033112Y-50615395D01*
X103176207Y-50507214D01*
X103350007Y-50438565D01*
X103555470Y-50409100D01*
X103606600Y-50407833D01*
X103774596Y-50418760D01*
G36*
X104171875Y-52811845D02*
G01*
X104271077Y-52818178D01*
X104329553Y-52828922D01*
X104357341Y-52846678D01*
X104363399Y-52861445D01*
X104362051Y-52882037D01*
X104341849Y-52893126D01*
X104293312Y-52896066D01*
X104206958Y-52892214D01*
X104166818Y-52889565D01*
X104072227Y-52884590D01*
X104000806Y-52883705D01*
X103964475Y-52886956D01*
X103962200Y-52888768D01*
X103953283Y-52918555D01*
X103931132Y-52976106D01*
X103923759Y-52993998D01*
X103885318Y-53086000D01*
X104038059Y-53086000D01*
X104126662Y-53083085D01*
X104174282Y-53072751D01*
X104190482Y-53052611D01*
X104190800Y-53047900D01*
X104168719Y-53017257D01*
X104127300Y-53009800D01*
X104079565Y-53001105D01*
X104063800Y-52984400D01*
X104086644Y-52969910D01*
X104145052Y-52960714D01*
X104190800Y-52959000D01*
X104263237Y-52962427D01*
X104309176Y-52971190D01*
X104317705Y-52978050D01*
X104305510Y-53010320D01*
X104275481Y-53065943D01*
X104267278Y-53079650D01*
X104216946Y-53162200D01*
X104000673Y-53162200D01*
X103890314Y-53160242D01*
X103822828Y-53153529D01*
X103790410Y-53140803D01*
X103784400Y-53127328D01*
X103797293Y-53067867D01*
X103829634Y-52989934D01*
X103871909Y-52911836D01*
X103914608Y-52851881D01*
X103938233Y-52831232D01*
X103987923Y-52818836D01*
X104070640Y-52811845D01*
X104168767Y-52811723D01*
X104171875Y-52811845D01*
G37*
X104171875Y-52811845D02*
X104271077Y-52818178D01*
X104329553Y-52828922D01*
X104357341Y-52846678D01*
X104363399Y-52861445D01*
X104362051Y-52882037D01*
X104341849Y-52893126D01*
X104293312Y-52896066D01*
X104206958Y-52892214D01*
X104166818Y-52889565D01*
X104072227Y-52884590D01*
X104000806Y-52883705D01*
X103964475Y-52886956D01*
X103962200Y-52888768D01*
X103953283Y-52918555D01*
X103931132Y-52976106D01*
X103923759Y-52993998D01*
X103885318Y-53086000D01*
X104038059Y-53086000D01*
X104126662Y-53083085D01*
X104174282Y-53072751D01*
X104190482Y-53052611D01*
X104190800Y-53047900D01*
X104168719Y-53017257D01*
X104127300Y-53009800D01*
X104079565Y-53001105D01*
X104063800Y-52984400D01*
X104086644Y-52969910D01*
X104145052Y-52960714D01*
X104190800Y-52959000D01*
X104263237Y-52962427D01*
X104309176Y-52971190D01*
X104317705Y-52978050D01*
X104305510Y-53010320D01*
X104275481Y-53065943D01*
X104267278Y-53079650D01*
X104216946Y-53162200D01*
X104000673Y-53162200D01*
X103890314Y-53160242D01*
X103822828Y-53153529D01*
X103790410Y-53140803D01*
X103784400Y-53127328D01*
X103797293Y-53067867D01*
X103829634Y-52989934D01*
X103871909Y-52911836D01*
X103914608Y-52851881D01*
X103938233Y-52831232D01*
X103987923Y-52818836D01*
X104070640Y-52811845D01*
X104168767Y-52811723D01*
X104171875Y-52811845D01*
G36*
X103733515Y-52828824D02*
G01*
X103733600Y-52832724D01*
X103721668Y-52877904D01*
X103691201Y-52945573D01*
X103650189Y-53021778D01*
X103606622Y-53092567D01*
X103568493Y-53143988D01*
X103544893Y-53162200D01*
X103510264Y-53144294D01*
X103456442Y-53097802D01*
X103406465Y-53045354D01*
X103303613Y-52928508D01*
X103246845Y-53045354D01*
X103206834Y-53112345D01*
X103167533Y-53154412D01*
X103137192Y-53165459D01*
X103124061Y-53139396D01*
X103124000Y-53136075D01*
X103134805Y-53099099D01*
X103162344Y-53036170D01*
X103199300Y-52961391D01*
X103238356Y-52888863D01*
X103272196Y-52832688D01*
X103293502Y-52806971D01*
X103294943Y-52806600D01*
X103320797Y-52823141D01*
X103371159Y-52866428D01*
X103432727Y-52924768D01*
X103552700Y-53042937D01*
X103610111Y-52924768D01*
X103650312Y-52857253D01*
X103689714Y-52814706D01*
X103720166Y-52803204D01*
X103733515Y-52828824D01*
G37*
X103733515Y-52828824D02*
X103733600Y-52832724D01*
X103721668Y-52877904D01*
X103691201Y-52945573D01*
X103650189Y-53021778D01*
X103606622Y-53092567D01*
X103568493Y-53143988D01*
X103544893Y-53162200D01*
X103510264Y-53144294D01*
X103456442Y-53097802D01*
X103406465Y-53045354D01*
X103303613Y-52928508D01*
X103246845Y-53045354D01*
X103206834Y-53112345D01*
X103167533Y-53154412D01*
X103137192Y-53165459D01*
X103124061Y-53139396D01*
X103124000Y-53136075D01*
X103134805Y-53099099D01*
X103162344Y-53036170D01*
X103199300Y-52961391D01*
X103238356Y-52888863D01*
X103272196Y-52832688D01*
X103293502Y-52806971D01*
X103294943Y-52806600D01*
X103320797Y-52823141D01*
X103371159Y-52866428D01*
X103432727Y-52924768D01*
X103552700Y-53042937D01*
X103610111Y-52924768D01*
X103650312Y-52857253D01*
X103689714Y-52814706D01*
X103720166Y-52803204D01*
X103733515Y-52828824D01*
G36*
X103075460Y-52811003D02*
G01*
X103080040Y-52831038D01*
X103065236Y-52876940D01*
X103032438Y-52952650D01*
X102995898Y-53034493D01*
X102967009Y-53099913D01*
X102953841Y-53130450D01*
X102927463Y-53151719D01*
X102885054Y-53162887D01*
X102850971Y-53159598D01*
X102844600Y-53149980D01*
X102855035Y-53122860D01*
X102882547Y-53062719D01*
X102921445Y-52981949D01*
X102926251Y-52972180D01*
X102983547Y-52869341D01*
X103029916Y-52815543D01*
X103052931Y-52806600D01*
X103075460Y-52811003D01*
G37*
X103075460Y-52811003D02*
X103080040Y-52831038D01*
X103065236Y-52876940D01*
X103032438Y-52952650D01*
X102995898Y-53034493D01*
X102967009Y-53099913D01*
X102953841Y-53130450D01*
X102927463Y-53151719D01*
X102885054Y-53162887D01*
X102850971Y-53159598D01*
X102844600Y-53149980D01*
X102855035Y-53122860D01*
X102882547Y-53062719D01*
X102921445Y-52981949D01*
X102926251Y-52972180D01*
X102983547Y-52869341D01*
X103029916Y-52815543D01*
X103052931Y-52806600D01*
X103075460Y-52811003D01*
G36*
X102655158Y-52811524D02*
G01*
X102740264Y-52818024D01*
X102786094Y-52829338D01*
X102804172Y-52849928D01*
X102806500Y-52870100D01*
X102786035Y-52915128D01*
X102746530Y-52929386D01*
X102704843Y-52927511D01*
X102703579Y-52910336D01*
X102692897Y-52892244D01*
X102632518Y-52883613D01*
X102592751Y-52882800D01*
X102514274Y-52885888D01*
X102468904Y-52900424D01*
X102439068Y-52934309D01*
X102426152Y-52957738D01*
X102399312Y-53017114D01*
X102387432Y-53058186D01*
X102387400Y-53059338D01*
X102409199Y-53077783D01*
X102462900Y-53085285D01*
X102530960Y-53082549D01*
X102595834Y-53070281D01*
X102639977Y-53049187D01*
X102639980Y-53049184D01*
X102688742Y-53023520D01*
X102718664Y-53037288D01*
X102717695Y-53079577D01*
X102703068Y-53106307D01*
X102676428Y-53135612D01*
X102638951Y-53152523D01*
X102577419Y-53160299D01*
X102478614Y-53162199D01*
X102476358Y-53162200D01*
X102383641Y-53159337D01*
X102312326Y-53151785D01*
X102276194Y-53141091D01*
X102274788Y-53139532D01*
X102276921Y-53105988D01*
X102296621Y-53041745D01*
X102323488Y-52975066D01*
X102363830Y-52893868D01*
X102406044Y-52843098D01*
X102462535Y-52816640D01*
X102545706Y-52808378D01*
X102655158Y-52811524D01*
G37*
X102655158Y-52811524D02*
X102740264Y-52818024D01*
X102786094Y-52829338D01*
X102804172Y-52849928D01*
X102806500Y-52870100D01*
X102786035Y-52915128D01*
X102746530Y-52929386D01*
X102704843Y-52927511D01*
X102703579Y-52910336D01*
X102692897Y-52892244D01*
X102632518Y-52883613D01*
X102592751Y-52882800D01*
X102514274Y-52885888D01*
X102468904Y-52900424D01*
X102439068Y-52934309D01*
X102426152Y-52957738D01*
X102399312Y-53017114D01*
X102387432Y-53058186D01*
X102387400Y-53059338D01*
X102409199Y-53077783D01*
X102462900Y-53085285D01*
X102530960Y-53082549D01*
X102595834Y-53070281D01*
X102639977Y-53049187D01*
X102639980Y-53049184D01*
X102688742Y-53023520D01*
X102718664Y-53037288D01*
X102717695Y-53079577D01*
X102703068Y-53106307D01*
X102676428Y-53135612D01*
X102638951Y-53152523D01*
X102577419Y-53160299D01*
X102478614Y-53162199D01*
X102476358Y-53162200D01*
X102383641Y-53159337D01*
X102312326Y-53151785D01*
X102276194Y-53141091D01*
X102274788Y-53139532D01*
X102276921Y-53105988D01*
X102296621Y-53041745D01*
X102323488Y-52975066D01*
X102363830Y-52893868D01*
X102406044Y-52843098D01*
X102462535Y-52816640D01*
X102545706Y-52808378D01*
X102655158Y-52811524D01*
G36*
X102068179Y-52825835D02*
G01*
X102093510Y-52887088D01*
X102109182Y-52951998D01*
X102127687Y-53036647D01*
X102143889Y-53103108D01*
X102151801Y-53129798D01*
X102142302Y-53156101D01*
X102109920Y-53162200D01*
X102059925Y-53146426D01*
X102040985Y-53124100D01*
X102012284Y-53099152D01*
X101945742Y-53087483D01*
X101892492Y-53086000D01*
X101789124Y-53094645D01*
X101730693Y-53120135D01*
X101727000Y-53124100D01*
X101676777Y-53155313D01*
X101641339Y-53161286D01*
X101608091Y-53158201D01*
X101609753Y-53143991D01*
X101648519Y-53108689D01*
X101653904Y-53104136D01*
X101707421Y-53058527D01*
X101764143Y-53009800D01*
X101870544Y-53009800D01*
X101938472Y-53009800D01*
X101989013Y-53000832D01*
X102005713Y-52964446D01*
X102006400Y-52946300D01*
X102003559Y-52898504D01*
X101998127Y-52882800D01*
X101977076Y-52899302D01*
X101936452Y-52939692D01*
X101930200Y-52946300D01*
X101870544Y-53009800D01*
X101764143Y-53009800D01*
X101782631Y-52993919D01*
X101859842Y-52927250D01*
X101933767Y-52867760D01*
X101997282Y-52824665D01*
X102037419Y-52806691D01*
X102039087Y-52806600D01*
X102068179Y-52825835D01*
G37*
X102068179Y-52825835D02*
X102093510Y-52887088D01*
X102109182Y-52951998D01*
X102127687Y-53036647D01*
X102143889Y-53103108D01*
X102151801Y-53129798D01*
X102142302Y-53156101D01*
X102109920Y-53162200D01*
X102059925Y-53146426D01*
X102040985Y-53124100D01*
X102012284Y-53099152D01*
X101945742Y-53087483D01*
X101892492Y-53086000D01*
X101789124Y-53094645D01*
X101730693Y-53120135D01*
X101727000Y-53124100D01*
X101676777Y-53155313D01*
X101641339Y-53161286D01*
X101608091Y-53158201D01*
X101609753Y-53143991D01*
X101648519Y-53108689D01*
X101653904Y-53104136D01*
X101707421Y-53058527D01*
X101764143Y-53009800D01*
X101870544Y-53009800D01*
X101938472Y-53009800D01*
X101989013Y-53000832D01*
X102005713Y-52964446D01*
X102006400Y-52946300D01*
X102003559Y-52898504D01*
X101998127Y-52882800D01*
X101977076Y-52899302D01*
X101936452Y-52939692D01*
X101930200Y-52946300D01*
X101870544Y-53009800D01*
X101764143Y-53009800D01*
X101782631Y-52993919D01*
X101859842Y-52927250D01*
X101933767Y-52867760D01*
X101997282Y-52824665D01*
X102037419Y-52806691D01*
X102039087Y-52806600D01*
X102068179Y-52825835D01*
G36*
X101503155Y-52810000D02*
G01*
X101575682Y-52819026D01*
X101612357Y-52831917D01*
X101613592Y-52833443D01*
X101623017Y-52891488D01*
X101596848Y-52955729D01*
X101544061Y-53007988D01*
X101521536Y-53019843D01*
X101472298Y-53044341D01*
X101464924Y-53064559D01*
X101484321Y-53084855D01*
X101520327Y-53127685D01*
X101508708Y-53154396D01*
X101460885Y-53162200D01*
X101393772Y-53138615D01*
X101356364Y-53098700D01*
X101311162Y-53052744D01*
X101266334Y-53035200D01*
X101220235Y-53056525D01*
X101188978Y-53098700D01*
X101152064Y-53145787D01*
X101113322Y-53162200D01*
X101074236Y-53158031D01*
X101066600Y-53153013D01*
X101076315Y-53127118D01*
X101101940Y-53067336D01*
X101138194Y-52985946D01*
X101143052Y-52975213D01*
X101156727Y-52945053D01*
X101258928Y-52945053D01*
X101285166Y-52955198D01*
X101348842Y-52955396D01*
X101376045Y-52953967D01*
X101457020Y-52943504D01*
X101507777Y-52925365D01*
X101517570Y-52914550D01*
X101504149Y-52893333D01*
X101457256Y-52882263D01*
X101393092Y-52880859D01*
X101327859Y-52888636D01*
X101277761Y-52905113D01*
X101260109Y-52922217D01*
X101258928Y-52945053D01*
X101156727Y-52945053D01*
X101219505Y-52806600D01*
X101408253Y-52806600D01*
X101503155Y-52810000D01*
G37*
X101503155Y-52810000D02*
X101575682Y-52819026D01*
X101612357Y-52831917D01*
X101613592Y-52833443D01*
X101623017Y-52891488D01*
X101596848Y-52955729D01*
X101544061Y-53007988D01*
X101521536Y-53019843D01*
X101472298Y-53044341D01*
X101464924Y-53064559D01*
X101484321Y-53084855D01*
X101520327Y-53127685D01*
X101508708Y-53154396D01*
X101460885Y-53162200D01*
X101393772Y-53138615D01*
X101356364Y-53098700D01*
X101311162Y-53052744D01*
X101266334Y-53035200D01*
X101220235Y-53056525D01*
X101188978Y-53098700D01*
X101152064Y-53145787D01*
X101113322Y-53162200D01*
X101074236Y-53158031D01*
X101066600Y-53153013D01*
X101076315Y-53127118D01*
X101101940Y-53067336D01*
X101138194Y-52985946D01*
X101143052Y-52975213D01*
X101156727Y-52945053D01*
X101258928Y-52945053D01*
X101285166Y-52955198D01*
X101348842Y-52955396D01*
X101376045Y-52953967D01*
X101457020Y-52943504D01*
X101507777Y-52925365D01*
X101517570Y-52914550D01*
X101504149Y-52893333D01*
X101457256Y-52882263D01*
X101393092Y-52880859D01*
X101327859Y-52888636D01*
X101277761Y-52905113D01*
X101260109Y-52922217D01*
X101258928Y-52945053D01*
X101156727Y-52945053D01*
X101219505Y-52806600D01*
X101408253Y-52806600D01*
X101503155Y-52810000D01*
G36*
X101339679Y-49789393D02*
G01*
X101557501Y-49796700D01*
X101587438Y-49885600D01*
X101617374Y-49974500D01*
X101651889Y-49879249D01*
X101676576Y-49820684D01*
X101706279Y-49793194D01*
X101759129Y-49785448D01*
X101801952Y-49785463D01*
X101901251Y-49790724D01*
X102000300Y-49801876D01*
X102018358Y-49804824D01*
X102081713Y-49819950D01*
X102115250Y-49846489D01*
X102134207Y-49900549D01*
X102141400Y-49934899D01*
X102163584Y-50047078D01*
X102216984Y-49953639D01*
X102249329Y-49902642D01*
X102282153Y-49874477D01*
X102326902Y-49867817D01*
X102395021Y-49881337D01*
X102497957Y-49913713D01*
X102514400Y-49919206D01*
X102679500Y-49974500D01*
X102687476Y-50085855D01*
X102695453Y-50197211D01*
X102776846Y-50118323D01*
X102858238Y-50039434D01*
X103092719Y-50169907D01*
X103188994Y-50224906D01*
X103266110Y-50271680D01*
X103314835Y-50304457D01*
X103327200Y-50316487D01*
X103305753Y-50334400D01*
X103252281Y-50359316D01*
X103232040Y-50367004D01*
X103168513Y-50401907D01*
X103086545Y-50463259D01*
X103001334Y-50539444D01*
X102984390Y-50556301D01*
X102909470Y-50637500D01*
X102848719Y-50717882D01*
X102793100Y-50811686D01*
X102733574Y-50933150D01*
X102704900Y-50996590D01*
X102651563Y-51115080D01*
X102613958Y-51193111D01*
X102587739Y-51236887D01*
X102568565Y-51252615D01*
X102552092Y-51246500D01*
X102539800Y-51232491D01*
X102459313Y-51166945D01*
X102342256Y-51124883D01*
X102197730Y-51107542D01*
X102034836Y-51116162D01*
X101891086Y-51144209D01*
X101812195Y-51167371D01*
X101750751Y-51189970D01*
X101713956Y-51208227D01*
X101709010Y-51218364D01*
X101743116Y-51216603D01*
X101758199Y-51213935D01*
X101812694Y-51211651D01*
X101899317Y-51216497D01*
X102000058Y-51227423D01*
X102007775Y-51228471D01*
X102111399Y-51245425D01*
X102179904Y-51265588D01*
X102228878Y-51295221D01*
X102266749Y-51332482D01*
X102318482Y-51411766D01*
X102334178Y-51500034D01*
X102313670Y-51606151D01*
X102259147Y-51734282D01*
X102167824Y-51876697D01*
X102036266Y-52025145D01*
X101873080Y-52171696D01*
X101686875Y-52308419D01*
X101536468Y-52400200D01*
X101319275Y-52535722D01*
X101146707Y-52676492D01*
X101012594Y-52828522D01*
X100910765Y-52997827D01*
X100899954Y-53020602D01*
X100851101Y-53120461D01*
X100810808Y-53184497D01*
X100769810Y-53224454D01*
X100718841Y-53252081D01*
X100716592Y-53253042D01*
X100600287Y-53289156D01*
X100479187Y-53305096D01*
X100370707Y-53299857D01*
X100299872Y-53277132D01*
X100231645Y-53238478D01*
X100301716Y-53087183D01*
X100436768Y-53087183D01*
X100446398Y-53148813D01*
X100446618Y-53149693D01*
X100461359Y-53194717D01*
X100476232Y-53194872D01*
X100487960Y-53176761D01*
X100495053Y-53121308D01*
X100480786Y-53096756D01*
X100448579Y-53069292D01*
X100436768Y-53087183D01*
X100301716Y-53087183D01*
X100328715Y-53028889D01*
X100360018Y-52961538D01*
X100410101Y-52854081D01*
X100476207Y-52712419D01*
X100555579Y-52542455D01*
X100645460Y-52350090D01*
X100743095Y-52141226D01*
X100845726Y-51921766D01*
X100911609Y-51780931D01*
X101006089Y-51578508D01*
X101244400Y-51578508D01*
X101262107Y-51571884D01*
X101307526Y-51540685D01*
X101346000Y-51511200D01*
X101404175Y-51459689D01*
X101440769Y-51416826D01*
X101447253Y-51401115D01*
X101439286Y-51343179D01*
X101421522Y-51288581D01*
X101401312Y-51258448D01*
X101397157Y-51257200D01*
X101380265Y-51278218D01*
X101350729Y-51331576D01*
X101315463Y-51402731D01*
X101281382Y-51477140D01*
X101255399Y-51540258D01*
X101244430Y-51577542D01*
X101244400Y-51578508D01*
X101006089Y-51578508D01*
X101028441Y-51530620D01*
X101124930Y-51322322D01*
X101202676Y-51152236D01*
X101263278Y-51016558D01*
X101308334Y-50911484D01*
X101339444Y-50833212D01*
X101358206Y-50777939D01*
X101366220Y-50741862D01*
X101365084Y-50721176D01*
X101360129Y-50714131D01*
X101187476Y-50581583D01*
X101021811Y-50452598D01*
X100942967Y-50390329D01*
X101804624Y-50390329D01*
X101811286Y-50476382D01*
X101824817Y-50547084D01*
X101829310Y-50560569D01*
X101851490Y-50605353D01*
X101868121Y-50616545D01*
X101869249Y-50586383D01*
X101854710Y-50535169D01*
X101837236Y-50467736D01*
X101829671Y-50394181D01*
X101832188Y-50331109D01*
X101844963Y-50295125D01*
X101852150Y-50292000D01*
X101880989Y-50309879D01*
X101928034Y-50355392D01*
X101956382Y-50387250D01*
X102000221Y-50435933D01*
X102015280Y-50444128D01*
X102005844Y-50419000D01*
X101961993Y-50342172D01*
X101912328Y-50273087D01*
X101866149Y-50222915D01*
X101832755Y-50202825D01*
X101826944Y-50204123D01*
X101812344Y-50237794D01*
X101804941Y-50305331D01*
X101804624Y-50390329D01*
X100942967Y-50390329D01*
X100867675Y-50330866D01*
X100729610Y-50220081D01*
X100612155Y-50123933D01*
X100519854Y-50046113D01*
X100457247Y-49990314D01*
X100428876Y-49960227D01*
X100427942Y-49956375D01*
X100458430Y-49943132D01*
X100527124Y-49921819D01*
X100622724Y-49895763D01*
X100698644Y-49876714D01*
X100952300Y-49815176D01*
X101006614Y-49903350D01*
X101043812Y-49956885D01*
X101068532Y-49967458D01*
X101087486Y-49932465D01*
X101103941Y-49865593D01*
X101121856Y-49782087D01*
X101339679Y-49789393D01*
G37*
X101339679Y-49789393D02*
X101557501Y-49796700D01*
X101587438Y-49885600D01*
X101617374Y-49974500D01*
X101651889Y-49879249D01*
X101676576Y-49820684D01*
X101706279Y-49793194D01*
X101759129Y-49785448D01*
X101801952Y-49785463D01*
X101901251Y-49790724D01*
X102000300Y-49801876D01*
X102018358Y-49804824D01*
X102081713Y-49819950D01*
X102115250Y-49846489D01*
X102134207Y-49900549D01*
X102141400Y-49934899D01*
X102163584Y-50047078D01*
X102216984Y-49953639D01*
X102249329Y-49902642D01*
X102282153Y-49874477D01*
X102326902Y-49867817D01*
X102395021Y-49881337D01*
X102497957Y-49913713D01*
X102514400Y-49919206D01*
X102679500Y-49974500D01*
X102687476Y-50085855D01*
X102695453Y-50197211D01*
X102776846Y-50118323D01*
X102858238Y-50039434D01*
X103092719Y-50169907D01*
X103188994Y-50224906D01*
X103266110Y-50271680D01*
X103314835Y-50304457D01*
X103327200Y-50316487D01*
X103305753Y-50334400D01*
X103252281Y-50359316D01*
X103232040Y-50367004D01*
X103168513Y-50401907D01*
X103086545Y-50463259D01*
X103001334Y-50539444D01*
X102984390Y-50556301D01*
X102909470Y-50637500D01*
X102848719Y-50717882D01*
X102793100Y-50811686D01*
X102733574Y-50933150D01*
X102704900Y-50996590D01*
X102651563Y-51115080D01*
X102613958Y-51193111D01*
X102587739Y-51236887D01*
X102568565Y-51252615D01*
X102552092Y-51246500D01*
X102539800Y-51232491D01*
X102459313Y-51166945D01*
X102342256Y-51124883D01*
X102197730Y-51107542D01*
X102034836Y-51116162D01*
X101891086Y-51144209D01*
X101812195Y-51167371D01*
X101750751Y-51189970D01*
X101713956Y-51208227D01*
X101709010Y-51218364D01*
X101743116Y-51216603D01*
X101758199Y-51213935D01*
X101812694Y-51211651D01*
X101899317Y-51216497D01*
X102000058Y-51227423D01*
X102007775Y-51228471D01*
X102111399Y-51245425D01*
X102179904Y-51265588D01*
X102228878Y-51295221D01*
X102266749Y-51332482D01*
X102318482Y-51411766D01*
X102334178Y-51500034D01*
X102313670Y-51606151D01*
X102259147Y-51734282D01*
X102167824Y-51876697D01*
X102036266Y-52025145D01*
X101873080Y-52171696D01*
X101686875Y-52308419D01*
X101536468Y-52400200D01*
X101319275Y-52535722D01*
X101146707Y-52676492D01*
X101012594Y-52828522D01*
X100910765Y-52997827D01*
X100899954Y-53020602D01*
X100851101Y-53120461D01*
X100810808Y-53184497D01*
X100769810Y-53224454D01*
X100718841Y-53252081D01*
X100716592Y-53253042D01*
X100600287Y-53289156D01*
X100479187Y-53305096D01*
X100370707Y-53299857D01*
X100299872Y-53277132D01*
X100231645Y-53238478D01*
X100301716Y-53087183D01*
X100436768Y-53087183D01*
X100446398Y-53148813D01*
X100446618Y-53149693D01*
X100461359Y-53194717D01*
X100476232Y-53194872D01*
X100487960Y-53176761D01*
X100495053Y-53121308D01*
X100480786Y-53096756D01*
X100448579Y-53069292D01*
X100436768Y-53087183D01*
X100301716Y-53087183D01*
X100328715Y-53028889D01*
X100360018Y-52961538D01*
X100410101Y-52854081D01*
X100476207Y-52712419D01*
X100555579Y-52542455D01*
X100645460Y-52350090D01*
X100743095Y-52141226D01*
X100845726Y-51921766D01*
X100911609Y-51780931D01*
X101006089Y-51578508D01*
X101244400Y-51578508D01*
X101262107Y-51571884D01*
X101307526Y-51540685D01*
X101346000Y-51511200D01*
X101404175Y-51459689D01*
X101440769Y-51416826D01*
X101447253Y-51401115D01*
X101439286Y-51343179D01*
X101421522Y-51288581D01*
X101401312Y-51258448D01*
X101397157Y-51257200D01*
X101380265Y-51278218D01*
X101350729Y-51331576D01*
X101315463Y-51402731D01*
X101281382Y-51477140D01*
X101255399Y-51540258D01*
X101244430Y-51577542D01*
X101244400Y-51578508D01*
X101006089Y-51578508D01*
X101028441Y-51530620D01*
X101124930Y-51322322D01*
X101202676Y-51152236D01*
X101263278Y-51016558D01*
X101308334Y-50911484D01*
X101339444Y-50833212D01*
X101358206Y-50777939D01*
X101366220Y-50741862D01*
X101365084Y-50721176D01*
X101360129Y-50714131D01*
X101187476Y-50581583D01*
X101021811Y-50452598D01*
X100942967Y-50390329D01*
X101804624Y-50390329D01*
X101811286Y-50476382D01*
X101824817Y-50547084D01*
X101829310Y-50560569D01*
X101851490Y-50605353D01*
X101868121Y-50616545D01*
X101869249Y-50586383D01*
X101854710Y-50535169D01*
X101837236Y-50467736D01*
X101829671Y-50394181D01*
X101832188Y-50331109D01*
X101844963Y-50295125D01*
X101852150Y-50292000D01*
X101880989Y-50309879D01*
X101928034Y-50355392D01*
X101956382Y-50387250D01*
X102000221Y-50435933D01*
X102015280Y-50444128D01*
X102005844Y-50419000D01*
X101961993Y-50342172D01*
X101912328Y-50273087D01*
X101866149Y-50222915D01*
X101832755Y-50202825D01*
X101826944Y-50204123D01*
X101812344Y-50237794D01*
X101804941Y-50305331D01*
X101804624Y-50390329D01*
X100942967Y-50390329D01*
X100867675Y-50330866D01*
X100729610Y-50220081D01*
X100612155Y-50123933D01*
X100519854Y-50046113D01*
X100457247Y-49990314D01*
X100428876Y-49960227D01*
X100427942Y-49956375D01*
X100458430Y-49943132D01*
X100527124Y-49921819D01*
X100622724Y-49895763D01*
X100698644Y-49876714D01*
X100952300Y-49815176D01*
X101006614Y-49903350D01*
X101043812Y-49956885D01*
X101068532Y-49967458D01*
X101087486Y-49932465D01*
X101103941Y-49865593D01*
X101121856Y-49782087D01*
X101339679Y-49789393D01*
D12*
X81909000Y-50420000D02*
X81909000Y-50730000D01*
X81909000Y-50730000D02*
X94779000Y-50730000D01*
X94779000Y-50730000D02*
X94779000Y-50420000D01*
X81909000Y-48900000D02*
X81909000Y-43140000D01*
X81909000Y-43140000D02*
X83329000Y-43140000D01*
X83329000Y-43140000D02*
X83329000Y-43640000D01*
X83329000Y-43640000D02*
X93359000Y-43640000D01*
X93359000Y-43640000D02*
X93359000Y-43140000D01*
X93359000Y-43140000D02*
X94779000Y-43140000D01*
X94779000Y-43140000D02*
X94779000Y-48900000D01*
X70512000Y-54744252D02*
X70512000Y-54221748D01*
X71982000Y-54744252D02*
X71982000Y-54221748D01*
X78078000Y-54744252D02*
X78078000Y-54221748D01*
X76608000Y-54744252D02*
X76608000Y-54221748D01*
X83550000Y-73462000D02*
X80865000Y-73462000D01*
X80865000Y-73462000D02*
X80865000Y-75382000D01*
X80865000Y-75382000D02*
X83550000Y-75382000D01*
X80943500Y-78430000D02*
X83628500Y-78430000D01*
X80943500Y-76510000D02*
X80943500Y-78430000D01*
X83628500Y-76510000D02*
X80943500Y-76510000D01*
X72715000Y-55243000D02*
X73645000Y-55243000D01*
X75875000Y-55243000D02*
X74945000Y-55243000D01*
X75875000Y-55243000D02*
X75875000Y-53083000D01*
X72715000Y-55243000D02*
X72715000Y-53783000D01*
X100182000Y-58893064D02*
X100182000Y-57438936D01*
X102002000Y-58893064D02*
X102002000Y-57438936D01*
X100182000Y-62137936D02*
X100182000Y-63592064D01*
X102002000Y-62137936D02*
X102002000Y-63592064D01*
X104415000Y-57438936D02*
X104415000Y-58893064D01*
X102595000Y-57438936D02*
X102595000Y-58893064D01*
X102595000Y-62137936D02*
X102595000Y-63592064D01*
X104415000Y-62137936D02*
X104415000Y-63592064D01*
X84222000Y-67852936D02*
X84222000Y-69307064D01*
X82402000Y-67852936D02*
X82402000Y-69307064D01*
X94382000Y-69307064D02*
X94382000Y-67852936D01*
X92562000Y-69307064D02*
X92562000Y-67852936D01*
X83761000Y-56652000D02*
X93531000Y-56652000D01*
X83761000Y-61722000D02*
X93531000Y-61722000D01*
X83761000Y-56652000D02*
X83761000Y-61722000D01*
X93531000Y-56652000D02*
X93531000Y-61722000D01*
X88399501Y-66014501D02*
X84949501Y-66014501D01*
X88399501Y-66014501D02*
X90349501Y-66014501D01*
X88399501Y-71134501D02*
X86449501Y-71134501D01*
X88399501Y-71134501D02*
X90349501Y-71134501D01*
X98552000Y-71140000D02*
X100502000Y-71140000D01*
X98552000Y-71140000D02*
X96602000Y-71140000D01*
X98552000Y-66020000D02*
X100502000Y-66020000D01*
X98552000Y-66020000D02*
X95102000Y-66020000D01*
X76230000Y-63608000D02*
X76230000Y-62348000D01*
X76230000Y-56788000D02*
X76230000Y-58048000D01*
X72470000Y-63608000D02*
X76230000Y-63608000D01*
X70220000Y-56788000D02*
X76230000Y-56788000D01*
X78297000Y-71140000D02*
X80247000Y-71140000D01*
X78297000Y-71140000D02*
X76347000Y-71140000D01*
X78297000Y-66020000D02*
X80247000Y-66020000D01*
X78297000Y-66020000D02*
X74847000Y-66020000D01*
X97766000Y-58420000D02*
G75*
G03*
X97766000Y-58420000I-1500000J0D01*
G01*
X82526000Y-58420000D02*
G75*
G03*
X82526000Y-58420000I-1500000J0D01*
G01*
D10*
X82978666Y-44410380D02*
X82978666Y-45124666D01*
X82931047Y-45267523D01*
X82835809Y-45362761D01*
X82692952Y-45410380D01*
X82597714Y-45410380D01*
X83978666Y-45410380D02*
X83407238Y-45410380D01*
X83692952Y-45410380D02*
X83692952Y-44410380D01*
X83597714Y-44553238D01*
X83502476Y-44648476D01*
X83407238Y-44696095D01*
X82065904Y-74874380D02*
X82065904Y-73874380D01*
X82304000Y-73874380D01*
X82446857Y-73922000D01*
X82542095Y-74017238D01*
X82589714Y-74112476D01*
X82637333Y-74302952D01*
X82637333Y-74445809D01*
X82589714Y-74636285D01*
X82542095Y-74731523D01*
X82446857Y-74826761D01*
X82304000Y-74874380D01*
X82065904Y-74874380D01*
X83589714Y-74874380D02*
X83018285Y-74874380D01*
X83304000Y-74874380D02*
X83304000Y-73874380D01*
X83208761Y-74017238D01*
X83113523Y-74112476D01*
X83018285Y-74160095D01*
X85598904Y-74779142D02*
X85551285Y-74826761D01*
X85408428Y-74874380D01*
X85313190Y-74874380D01*
X85170333Y-74826761D01*
X85075095Y-74731523D01*
X85027476Y-74636285D01*
X84979857Y-74445809D01*
X84979857Y-74302952D01*
X85027476Y-74112476D01*
X85075095Y-74017238D01*
X85170333Y-73922000D01*
X85313190Y-73874380D01*
X85408428Y-73874380D01*
X85551285Y-73922000D01*
X85598904Y-73969619D01*
X86027476Y-73874380D02*
X86027476Y-74683904D01*
X86075095Y-74779142D01*
X86122714Y-74826761D01*
X86217952Y-74874380D01*
X86408428Y-74874380D01*
X86503666Y-74826761D01*
X86551285Y-74779142D01*
X86598904Y-74683904D01*
X86598904Y-73874380D01*
X87646523Y-74874380D02*
X87313190Y-74398190D01*
X87075095Y-74874380D02*
X87075095Y-73874380D01*
X87456047Y-73874380D01*
X87551285Y-73922000D01*
X87598904Y-73969619D01*
X87646523Y-74064857D01*
X87646523Y-74207714D01*
X87598904Y-74302952D01*
X87551285Y-74350571D01*
X87456047Y-74398190D01*
X87075095Y-74398190D01*
X88646523Y-74874380D02*
X88313190Y-74398190D01*
X88075095Y-74874380D02*
X88075095Y-73874380D01*
X88456047Y-73874380D01*
X88551285Y-73922000D01*
X88598904Y-73969619D01*
X88646523Y-74064857D01*
X88646523Y-74207714D01*
X88598904Y-74302952D01*
X88551285Y-74350571D01*
X88456047Y-74398190D01*
X88075095Y-74398190D01*
X89075095Y-74350571D02*
X89408428Y-74350571D01*
X89551285Y-74874380D02*
X89075095Y-74874380D01*
X89075095Y-73874380D01*
X89551285Y-73874380D01*
X89979857Y-74874380D02*
X89979857Y-73874380D01*
X90551285Y-74874380D01*
X90551285Y-73874380D01*
X90884619Y-73874380D02*
X91456047Y-73874380D01*
X91170333Y-74874380D02*
X91170333Y-73874380D01*
X92408428Y-73874380D02*
X92979857Y-73874380D01*
X92694142Y-74874380D02*
X92694142Y-73874380D01*
X93313190Y-74874380D02*
X93313190Y-73874380D01*
X93313190Y-74350571D02*
X93884619Y-74350571D01*
X93884619Y-74874380D02*
X93884619Y-73874380D01*
X94932238Y-74874380D02*
X94598904Y-74398190D01*
X94360809Y-74874380D02*
X94360809Y-73874380D01*
X94741761Y-73874380D01*
X94837000Y-73922000D01*
X94884619Y-73969619D01*
X94932238Y-74064857D01*
X94932238Y-74207714D01*
X94884619Y-74302952D01*
X94837000Y-74350571D01*
X94741761Y-74398190D01*
X94360809Y-74398190D01*
X95360809Y-74350571D02*
X95694142Y-74350571D01*
X95837000Y-74874380D02*
X95360809Y-74874380D01*
X95360809Y-73874380D01*
X95837000Y-73874380D01*
X96217952Y-74826761D02*
X96360809Y-74874380D01*
X96598904Y-74874380D01*
X96694142Y-74826761D01*
X96741761Y-74779142D01*
X96789380Y-74683904D01*
X96789380Y-74588666D01*
X96741761Y-74493428D01*
X96694142Y-74445809D01*
X96598904Y-74398190D01*
X96408428Y-74350571D01*
X96313190Y-74302952D01*
X96265571Y-74255333D01*
X96217952Y-74160095D01*
X96217952Y-74064857D01*
X96265571Y-73969619D01*
X96313190Y-73922000D01*
X96408428Y-73874380D01*
X96646523Y-73874380D01*
X96789380Y-73922000D01*
X97217952Y-74874380D02*
X97217952Y-73874380D01*
X97217952Y-74350571D02*
X97789380Y-74350571D01*
X97789380Y-74874380D02*
X97789380Y-73874380D01*
X98456047Y-73874380D02*
X98646523Y-73874380D01*
X98741761Y-73922000D01*
X98837000Y-74017238D01*
X98884619Y-74207714D01*
X98884619Y-74541047D01*
X98837000Y-74731523D01*
X98741761Y-74826761D01*
X98646523Y-74874380D01*
X98456047Y-74874380D01*
X98360809Y-74826761D01*
X98265571Y-74731523D01*
X98217952Y-74541047D01*
X98217952Y-74207714D01*
X98265571Y-74017238D01*
X98360809Y-73922000D01*
X98456047Y-73874380D01*
X99789380Y-74874380D02*
X99313190Y-74874380D01*
X99313190Y-73874380D01*
X100122714Y-74874380D02*
X100122714Y-73874380D01*
X100360809Y-73874380D01*
X100503666Y-73922000D01*
X100598904Y-74017238D01*
X100646523Y-74112476D01*
X100694142Y-74302952D01*
X100694142Y-74445809D01*
X100646523Y-74636285D01*
X100598904Y-74731523D01*
X100503666Y-74826761D01*
X100360809Y-74874380D01*
X100122714Y-74874380D01*
X82065904Y-77922380D02*
X82065904Y-76922380D01*
X82304000Y-76922380D01*
X82446857Y-76970000D01*
X82542095Y-77065238D01*
X82589714Y-77160476D01*
X82637333Y-77350952D01*
X82637333Y-77493809D01*
X82589714Y-77684285D01*
X82542095Y-77779523D01*
X82446857Y-77874761D01*
X82304000Y-77922380D01*
X82065904Y-77922380D01*
X83018285Y-77017619D02*
X83065904Y-76970000D01*
X83161142Y-76922380D01*
X83399238Y-76922380D01*
X83494476Y-76970000D01*
X83542095Y-77017619D01*
X83589714Y-77112857D01*
X83589714Y-77208095D01*
X83542095Y-77350952D01*
X82970666Y-77922380D01*
X83589714Y-77922380D01*
X85598619Y-77827142D02*
X85551000Y-77874761D01*
X85408142Y-77922380D01*
X85312904Y-77922380D01*
X85170047Y-77874761D01*
X85074809Y-77779523D01*
X85027190Y-77684285D01*
X84979571Y-77493809D01*
X84979571Y-77350952D01*
X85027190Y-77160476D01*
X85074809Y-77065238D01*
X85170047Y-76970000D01*
X85312904Y-76922380D01*
X85408142Y-76922380D01*
X85551000Y-76970000D01*
X85598619Y-77017619D01*
X86027190Y-76922380D02*
X86027190Y-77731904D01*
X86074809Y-77827142D01*
X86122428Y-77874761D01*
X86217666Y-77922380D01*
X86408142Y-77922380D01*
X86503380Y-77874761D01*
X86551000Y-77827142D01*
X86598619Y-77731904D01*
X86598619Y-76922380D01*
X87646238Y-77922380D02*
X87312904Y-77446190D01*
X87074809Y-77922380D02*
X87074809Y-76922380D01*
X87455761Y-76922380D01*
X87551000Y-76970000D01*
X87598619Y-77017619D01*
X87646238Y-77112857D01*
X87646238Y-77255714D01*
X87598619Y-77350952D01*
X87551000Y-77398571D01*
X87455761Y-77446190D01*
X87074809Y-77446190D01*
X88646238Y-77922380D02*
X88312904Y-77446190D01*
X88074809Y-77922380D02*
X88074809Y-76922380D01*
X88455761Y-76922380D01*
X88551000Y-76970000D01*
X88598619Y-77017619D01*
X88646238Y-77112857D01*
X88646238Y-77255714D01*
X88598619Y-77350952D01*
X88551000Y-77398571D01*
X88455761Y-77446190D01*
X88074809Y-77446190D01*
X89074809Y-77398571D02*
X89408142Y-77398571D01*
X89551000Y-77922380D02*
X89074809Y-77922380D01*
X89074809Y-76922380D01*
X89551000Y-76922380D01*
X89979571Y-77922380D02*
X89979571Y-76922380D01*
X90551000Y-77922380D01*
X90551000Y-76922380D01*
X90884333Y-76922380D02*
X91455761Y-76922380D01*
X91170047Y-77922380D02*
X91170047Y-76922380D01*
X92312904Y-76555000D02*
X93360523Y-76555000D01*
X92741476Y-76922380D02*
X92931952Y-76922380D01*
X93027190Y-76970000D01*
X93122428Y-77065238D01*
X93170047Y-77255714D01*
X93170047Y-77589047D01*
X93122428Y-77779523D01*
X93027190Y-77874761D01*
X92931952Y-77922380D01*
X92741476Y-77922380D01*
X92646238Y-77874761D01*
X92551000Y-77779523D01*
X92503380Y-77589047D01*
X92503380Y-77255714D01*
X92551000Y-77065238D01*
X92646238Y-76970000D01*
X92741476Y-76922380D01*
X93360523Y-76555000D02*
X94360523Y-76555000D01*
X94170047Y-77827142D02*
X94122428Y-77874761D01*
X93979571Y-77922380D01*
X93884333Y-77922380D01*
X93741476Y-77874761D01*
X93646238Y-77779523D01*
X93598619Y-77684285D01*
X93551000Y-77493809D01*
X93551000Y-77350952D01*
X93598619Y-77160476D01*
X93646238Y-77065238D01*
X93741476Y-76970000D01*
X93884333Y-76922380D01*
X93979571Y-76922380D01*
X94122428Y-76970000D01*
X94170047Y-77017619D01*
X94360523Y-76555000D02*
X95312904Y-76555000D01*
X94551000Y-77874761D02*
X94693857Y-77922380D01*
X94931952Y-77922380D01*
X95027190Y-77874761D01*
X95074809Y-77827142D01*
X95122428Y-77731904D01*
X95122428Y-77636666D01*
X95074809Y-77541428D01*
X95027190Y-77493809D01*
X94931952Y-77446190D01*
X94741476Y-77398571D01*
X94646238Y-77350952D01*
X94598619Y-77303333D01*
X94551000Y-77208095D01*
X94551000Y-77112857D01*
X94598619Y-77017619D01*
X94646238Y-76970000D01*
X94741476Y-76922380D01*
X94979571Y-76922380D01*
X95122428Y-76970000D01*
X95312904Y-76555000D02*
X96312904Y-76555000D01*
X96122428Y-77827142D02*
X96074809Y-77874761D01*
X95931952Y-77922380D01*
X95836714Y-77922380D01*
X95693857Y-77874761D01*
X95598619Y-77779523D01*
X95551000Y-77684285D01*
X95503380Y-77493809D01*
X95503380Y-77350952D01*
X95551000Y-77160476D01*
X95598619Y-77065238D01*
X95693857Y-76970000D01*
X95836714Y-76922380D01*
X95931952Y-76922380D01*
X96074809Y-76970000D01*
X96122428Y-77017619D01*
X101544380Y-58332666D02*
X101068190Y-58666000D01*
X101544380Y-58904095D02*
X100544380Y-58904095D01*
X100544380Y-58523142D01*
X100592000Y-58427904D01*
X100639619Y-58380285D01*
X100734857Y-58332666D01*
X100877714Y-58332666D01*
X100972952Y-58380285D01*
X101020571Y-58427904D01*
X101068190Y-58523142D01*
X101068190Y-58904095D01*
X101544380Y-57380285D02*
X101544380Y-57951714D01*
X101544380Y-57666000D02*
X100544380Y-57666000D01*
X100687238Y-57761238D01*
X100782476Y-57856476D01*
X100830095Y-57951714D01*
X101544380Y-63031666D02*
X101068190Y-63365000D01*
X101544380Y-63603095D02*
X100544380Y-63603095D01*
X100544380Y-63222142D01*
X100592000Y-63126904D01*
X100639619Y-63079285D01*
X100734857Y-63031666D01*
X100877714Y-63031666D01*
X100972952Y-63079285D01*
X101020571Y-63126904D01*
X101068190Y-63222142D01*
X101068190Y-63603095D01*
X100639619Y-62650714D02*
X100592000Y-62603095D01*
X100544380Y-62507857D01*
X100544380Y-62269761D01*
X100592000Y-62174523D01*
X100639619Y-62126904D01*
X100734857Y-62079285D01*
X100830095Y-62079285D01*
X100972952Y-62126904D01*
X101544380Y-62698333D01*
X101544380Y-62079285D01*
X104084380Y-58332666D02*
X103608190Y-58666000D01*
X104084380Y-58904095D02*
X103084380Y-58904095D01*
X103084380Y-58523142D01*
X103132000Y-58427904D01*
X103179619Y-58380285D01*
X103274857Y-58332666D01*
X103417714Y-58332666D01*
X103512952Y-58380285D01*
X103560571Y-58427904D01*
X103608190Y-58523142D01*
X103608190Y-58904095D01*
X103084380Y-57999333D02*
X103084380Y-57380285D01*
X103465333Y-57713619D01*
X103465333Y-57570761D01*
X103512952Y-57475523D01*
X103560571Y-57427904D01*
X103655809Y-57380285D01*
X103893904Y-57380285D01*
X103989142Y-57427904D01*
X104036761Y-57475523D01*
X104084380Y-57570761D01*
X104084380Y-57856476D01*
X104036761Y-57951714D01*
X103989142Y-57999333D01*
X104084380Y-63031666D02*
X103608190Y-63365000D01*
X104084380Y-63603095D02*
X103084380Y-63603095D01*
X103084380Y-63222142D01*
X103132000Y-63126904D01*
X103179619Y-63079285D01*
X103274857Y-63031666D01*
X103417714Y-63031666D01*
X103512952Y-63079285D01*
X103560571Y-63126904D01*
X103608190Y-63222142D01*
X103608190Y-63603095D01*
X103417714Y-62174523D02*
X104084380Y-62174523D01*
X103036761Y-62412619D02*
X103751047Y-62650714D01*
X103751047Y-62031666D01*
X83764380Y-68746666D02*
X83288190Y-69080000D01*
X83764380Y-69318095D02*
X82764380Y-69318095D01*
X82764380Y-68937142D01*
X82812000Y-68841904D01*
X82859619Y-68794285D01*
X82954857Y-68746666D01*
X83097714Y-68746666D01*
X83192952Y-68794285D01*
X83240571Y-68841904D01*
X83288190Y-68937142D01*
X83288190Y-69318095D01*
X82764380Y-67889523D02*
X82764380Y-68080000D01*
X82812000Y-68175238D01*
X82859619Y-68222857D01*
X83002476Y-68318095D01*
X83192952Y-68365714D01*
X83573904Y-68365714D01*
X83669142Y-68318095D01*
X83716761Y-68270476D01*
X83764380Y-68175238D01*
X83764380Y-67984761D01*
X83716761Y-67889523D01*
X83669142Y-67841904D01*
X83573904Y-67794285D01*
X83335809Y-67794285D01*
X83240571Y-67841904D01*
X83192952Y-67889523D01*
X83145333Y-67984761D01*
X83145333Y-68175238D01*
X83192952Y-68270476D01*
X83240571Y-68318095D01*
X83335809Y-68365714D01*
X93924380Y-68746666D02*
X93448190Y-69080000D01*
X93924380Y-69318095D02*
X92924380Y-69318095D01*
X92924380Y-68937142D01*
X92972000Y-68841904D01*
X93019619Y-68794285D01*
X93114857Y-68746666D01*
X93257714Y-68746666D01*
X93352952Y-68794285D01*
X93400571Y-68841904D01*
X93448190Y-68937142D01*
X93448190Y-69318095D01*
X92924380Y-68413333D02*
X92924380Y-67746666D01*
X93924380Y-68175238D01*
X88050761Y-58364380D02*
X87717428Y-57888190D01*
X87479333Y-58364380D02*
X87479333Y-57364380D01*
X87860285Y-57364380D01*
X87955523Y-57412000D01*
X88003142Y-57459619D01*
X88050761Y-57554857D01*
X88050761Y-57697714D01*
X88003142Y-57792952D01*
X87955523Y-57840571D01*
X87860285Y-57888190D01*
X87479333Y-57888190D01*
X88336476Y-57364380D02*
X88669809Y-58364380D01*
X89003142Y-57364380D01*
X89860285Y-58364380D02*
X89288857Y-58364380D01*
X89574571Y-58364380D02*
X89574571Y-57364380D01*
X89479333Y-57507238D01*
X89384095Y-57602476D01*
X89288857Y-57650095D01*
X87630095Y-68032380D02*
X87630095Y-68841904D01*
X87677714Y-68937142D01*
X87725333Y-68984761D01*
X87820571Y-69032380D01*
X88011047Y-69032380D01*
X88106285Y-68984761D01*
X88153904Y-68937142D01*
X88201523Y-68841904D01*
X88201523Y-68032380D01*
X89201523Y-69032380D02*
X88630095Y-69032380D01*
X88915809Y-69032380D02*
X88915809Y-68032380D01*
X88820571Y-68175238D01*
X88725333Y-68270476D01*
X88630095Y-68318095D01*
X97790095Y-68032380D02*
X97790095Y-68841904D01*
X97837714Y-68937142D01*
X97885333Y-68984761D01*
X97980571Y-69032380D01*
X98171047Y-69032380D01*
X98266285Y-68984761D01*
X98313904Y-68937142D01*
X98361523Y-68841904D01*
X98361523Y-68032380D01*
X98790095Y-68127619D02*
X98837714Y-68080000D01*
X98932952Y-68032380D01*
X99171047Y-68032380D01*
X99266285Y-68080000D01*
X99313904Y-68127619D01*
X99361523Y-68222857D01*
X99361523Y-68318095D01*
X99313904Y-68460952D01*
X98742476Y-69032380D01*
X99361523Y-69032380D01*
X73558095Y-59517879D02*
X73558095Y-60327403D01*
X73605714Y-60422641D01*
X73653333Y-60470260D01*
X73748571Y-60517879D01*
X73939047Y-60517879D01*
X74034285Y-60470260D01*
X74081904Y-60422641D01*
X74129523Y-60327403D01*
X74129523Y-59517879D01*
X74510476Y-59517879D02*
X75129523Y-59517879D01*
X74796190Y-59898832D01*
X74939047Y-59898832D01*
X75034285Y-59946451D01*
X75081904Y-59994070D01*
X75129523Y-60089308D01*
X75129523Y-60327403D01*
X75081904Y-60422641D01*
X75034285Y-60470260D01*
X74939047Y-60517879D01*
X74653333Y-60517879D01*
X74558095Y-60470260D01*
X74510476Y-60422641D01*
X77535095Y-68032380D02*
X77535095Y-68841904D01*
X77582714Y-68937142D01*
X77630333Y-68984761D01*
X77725571Y-69032380D01*
X77916047Y-69032380D01*
X78011285Y-68984761D01*
X78058904Y-68937142D01*
X78106523Y-68841904D01*
X78106523Y-68032380D01*
X79011285Y-68365714D02*
X79011285Y-69032380D01*
X78773190Y-67984761D02*
X78535095Y-68699047D01*
X79154142Y-68699047D01*
X94813619Y-61571142D02*
X94766000Y-61618761D01*
X94623142Y-61666380D01*
X94527904Y-61666380D01*
X94385047Y-61618761D01*
X94289809Y-61523523D01*
X94242190Y-61428285D01*
X94194571Y-61237809D01*
X94194571Y-61094952D01*
X94242190Y-60904476D01*
X94289809Y-60809238D01*
X94385047Y-60714000D01*
X94527904Y-60666380D01*
X94623142Y-60666380D01*
X94766000Y-60714000D01*
X94813619Y-60761619D01*
X95004095Y-61761619D02*
X95766000Y-61761619D01*
X96575523Y-61666380D02*
X96242190Y-61190190D01*
X96004095Y-61666380D02*
X96004095Y-60666380D01*
X96385047Y-60666380D01*
X96480285Y-60714000D01*
X96527904Y-60761619D01*
X96575523Y-60856857D01*
X96575523Y-60999714D01*
X96527904Y-61094952D01*
X96480285Y-61142571D01*
X96385047Y-61190190D01*
X96004095Y-61190190D01*
X97004095Y-61142571D02*
X97337428Y-61142571D01*
X97480285Y-61666380D02*
X97004095Y-61666380D01*
X97004095Y-60666380D01*
X97480285Y-60666380D01*
X98242190Y-61142571D02*
X97908857Y-61142571D01*
X97908857Y-61666380D02*
X97908857Y-60666380D01*
X98385047Y-60666380D01*
X79740285Y-61571142D02*
X79692666Y-61618761D01*
X79549809Y-61666380D01*
X79454571Y-61666380D01*
X79311714Y-61618761D01*
X79216476Y-61523523D01*
X79168857Y-61428285D01*
X79121238Y-61237809D01*
X79121238Y-61094952D01*
X79168857Y-60904476D01*
X79216476Y-60809238D01*
X79311714Y-60714000D01*
X79454571Y-60666380D01*
X79549809Y-60666380D01*
X79692666Y-60714000D01*
X79740285Y-60761619D01*
X79930761Y-61761619D02*
X80692666Y-61761619D01*
X80883142Y-61618761D02*
X81026000Y-61666380D01*
X81264095Y-61666380D01*
X81359333Y-61618761D01*
X81406952Y-61571142D01*
X81454571Y-61475904D01*
X81454571Y-61380666D01*
X81406952Y-61285428D01*
X81359333Y-61237809D01*
X81264095Y-61190190D01*
X81073619Y-61142571D01*
X80978380Y-61094952D01*
X80930761Y-61047333D01*
X80883142Y-60952095D01*
X80883142Y-60856857D01*
X80930761Y-60761619D01*
X80978380Y-60714000D01*
X81073619Y-60666380D01*
X81311714Y-60666380D01*
X81454571Y-60714000D01*
X81883142Y-61666380D02*
X81883142Y-60666380D01*
X82883142Y-60714000D02*
X82787904Y-60666380D01*
X82645047Y-60666380D01*
X82502190Y-60714000D01*
X82406952Y-60809238D01*
X82359333Y-60904476D01*
X82311714Y-61094952D01*
X82311714Y-61237809D01*
X82359333Y-61428285D01*
X82406952Y-61523523D01*
X82502190Y-61618761D01*
X82645047Y-61666380D01*
X82740285Y-61666380D01*
X82883142Y-61618761D01*
X82930761Y-61571142D01*
X82930761Y-61237809D01*
X82740285Y-61237809D01*
M02*
