G04 #@! TF.GenerationSoftware,KiCad,Pcbnew,(5.1.6)-1*
G04 #@! TF.CreationDate,2021-06-24T15:04:22+10:00*
G04 #@! TF.ProjectId,BSPD_Accumulator,42535044-5f41-4636-9375-6d756c61746f,rev?*
G04 #@! TF.SameCoordinates,Original*
G04 #@! TF.FileFunction,Copper,L1,Top*
G04 #@! TF.FilePolarity,Positive*
%FSLAX46Y46*%
G04 Gerber Fmt 4.6, Leading zero omitted, Abs format (unit mm)*
G04 Created by KiCad (PCBNEW (5.1.6)-1) date 2021-06-24 15:04:22*
%MOMM*%
%LPD*%
G01*
G04 APERTURE LIST*
G04 #@! TA.AperFunction,ComponentPad*
%ADD10C,1.500000*%
G04 #@! TD*
G04 #@! TA.AperFunction,SMDPad,CuDef*
%ADD11R,0.800000X0.900000*%
G04 #@! TD*
G04 #@! TA.AperFunction,ComponentPad*
%ADD12C,1.440000*%
G04 #@! TD*
G04 #@! TA.AperFunction,SMDPad,CuDef*
%ADD13R,2.000000X3.800000*%
G04 #@! TD*
G04 #@! TA.AperFunction,SMDPad,CuDef*
%ADD14R,2.000000X1.500000*%
G04 #@! TD*
G04 #@! TA.AperFunction,ComponentPad*
%ADD15C,2.000000*%
G04 #@! TD*
G04 #@! TA.AperFunction,ViaPad*
%ADD16C,0.800000*%
G04 #@! TD*
G04 #@! TA.AperFunction,Conductor*
%ADD17C,0.250000*%
G04 #@! TD*
G04 APERTURE END LIST*
G04 #@! TA.AperFunction,ComponentPad*
G36*
G01*
X84594000Y-46220000D02*
X84594000Y-45220000D01*
G75*
G02*
X84844000Y-44970000I250000J0D01*
G01*
X85844000Y-44970000D01*
G75*
G02*
X86094000Y-45220000I0J-250000D01*
G01*
X86094000Y-46220000D01*
G75*
G02*
X85844000Y-46470000I-250000J0D01*
G01*
X84844000Y-46470000D01*
G75*
G02*
X84594000Y-46220000I0J250000D01*
G01*
G37*
G04 #@! TD.AperFunction*
D10*
X88344000Y-45720000D03*
X91344000Y-45720000D03*
X85344000Y-48720000D03*
X88344000Y-48720000D03*
X91344000Y-48720000D03*
G04 #@! TA.AperFunction,SMDPad,CuDef*
G36*
G01*
X71722000Y-55933000D02*
X70772000Y-55933000D01*
G75*
G02*
X70522000Y-55683000I0J250000D01*
G01*
X70522000Y-55183000D01*
G75*
G02*
X70772000Y-54933000I250000J0D01*
G01*
X71722000Y-54933000D01*
G75*
G02*
X71972000Y-55183000I0J-250000D01*
G01*
X71972000Y-55683000D01*
G75*
G02*
X71722000Y-55933000I-250000J0D01*
G01*
G37*
G04 #@! TD.AperFunction*
G04 #@! TA.AperFunction,SMDPad,CuDef*
G36*
G01*
X71722000Y-54033000D02*
X70772000Y-54033000D01*
G75*
G02*
X70522000Y-53783000I0J250000D01*
G01*
X70522000Y-53283000D01*
G75*
G02*
X70772000Y-53033000I250000J0D01*
G01*
X71722000Y-53033000D01*
G75*
G02*
X71972000Y-53283000I0J-250000D01*
G01*
X71972000Y-53783000D01*
G75*
G02*
X71722000Y-54033000I-250000J0D01*
G01*
G37*
G04 #@! TD.AperFunction*
G04 #@! TA.AperFunction,SMDPad,CuDef*
G36*
G01*
X77818000Y-54033000D02*
X76868000Y-54033000D01*
G75*
G02*
X76618000Y-53783000I0J250000D01*
G01*
X76618000Y-53283000D01*
G75*
G02*
X76868000Y-53033000I250000J0D01*
G01*
X77818000Y-53033000D01*
G75*
G02*
X78068000Y-53283000I0J-250000D01*
G01*
X78068000Y-53783000D01*
G75*
G02*
X77818000Y-54033000I-250000J0D01*
G01*
G37*
G04 #@! TD.AperFunction*
G04 #@! TA.AperFunction,SMDPad,CuDef*
G36*
G01*
X77818000Y-55933000D02*
X76868000Y-55933000D01*
G75*
G02*
X76618000Y-55683000I0J250000D01*
G01*
X76618000Y-55183000D01*
G75*
G02*
X76868000Y-54933000I250000J0D01*
G01*
X77818000Y-54933000D01*
G75*
G02*
X78068000Y-55183000I0J-250000D01*
G01*
X78068000Y-55683000D01*
G75*
G02*
X77818000Y-55933000I-250000J0D01*
G01*
G37*
G04 #@! TD.AperFunction*
G04 #@! TA.AperFunction,SMDPad,CuDef*
G36*
G01*
X81125000Y-74878250D02*
X81125000Y-73965750D01*
G75*
G02*
X81368750Y-73722000I243750J0D01*
G01*
X81856250Y-73722000D01*
G75*
G02*
X82100000Y-73965750I0J-243750D01*
G01*
X82100000Y-74878250D01*
G75*
G02*
X81856250Y-75122000I-243750J0D01*
G01*
X81368750Y-75122000D01*
G75*
G02*
X81125000Y-74878250I0J243750D01*
G01*
G37*
G04 #@! TD.AperFunction*
G04 #@! TA.AperFunction,SMDPad,CuDef*
G36*
G01*
X83000000Y-74878250D02*
X83000000Y-73965750D01*
G75*
G02*
X83243750Y-73722000I243750J0D01*
G01*
X83731250Y-73722000D01*
G75*
G02*
X83975000Y-73965750I0J-243750D01*
G01*
X83975000Y-74878250D01*
G75*
G02*
X83731250Y-75122000I-243750J0D01*
G01*
X83243750Y-75122000D01*
G75*
G02*
X83000000Y-74878250I0J243750D01*
G01*
G37*
G04 #@! TD.AperFunction*
G04 #@! TA.AperFunction,SMDPad,CuDef*
G36*
G01*
X83078500Y-77926250D02*
X83078500Y-77013750D01*
G75*
G02*
X83322250Y-76770000I243750J0D01*
G01*
X83809750Y-76770000D01*
G75*
G02*
X84053500Y-77013750I0J-243750D01*
G01*
X84053500Y-77926250D01*
G75*
G02*
X83809750Y-78170000I-243750J0D01*
G01*
X83322250Y-78170000D01*
G75*
G02*
X83078500Y-77926250I0J243750D01*
G01*
G37*
G04 #@! TD.AperFunction*
G04 #@! TA.AperFunction,SMDPad,CuDef*
G36*
G01*
X81203500Y-77926250D02*
X81203500Y-77013750D01*
G75*
G02*
X81447250Y-76770000I243750J0D01*
G01*
X81934750Y-76770000D01*
G75*
G02*
X82178500Y-77013750I0J-243750D01*
G01*
X82178500Y-77926250D01*
G75*
G02*
X81934750Y-78170000I-243750J0D01*
G01*
X81447250Y-78170000D01*
G75*
G02*
X81203500Y-77926250I0J243750D01*
G01*
G37*
G04 #@! TD.AperFunction*
D11*
X75245000Y-53483000D03*
X73345000Y-53483000D03*
X74295000Y-55483000D03*
G04 #@! TA.AperFunction,SMDPad,CuDef*
G36*
G01*
X101717001Y-60191000D02*
X100466999Y-60191000D01*
G75*
G02*
X100217000Y-59941001I0J249999D01*
G01*
X100217000Y-59315999D01*
G75*
G02*
X100466999Y-59066000I249999J0D01*
G01*
X101717001Y-59066000D01*
G75*
G02*
X101967000Y-59315999I0J-249999D01*
G01*
X101967000Y-59941001D01*
G75*
G02*
X101717001Y-60191000I-249999J0D01*
G01*
G37*
G04 #@! TD.AperFunction*
G04 #@! TA.AperFunction,SMDPad,CuDef*
G36*
G01*
X101717001Y-57266000D02*
X100466999Y-57266000D01*
G75*
G02*
X100217000Y-57016001I0J249999D01*
G01*
X100217000Y-56390999D01*
G75*
G02*
X100466999Y-56141000I249999J0D01*
G01*
X101717001Y-56141000D01*
G75*
G02*
X101967000Y-56390999I0J-249999D01*
G01*
X101967000Y-57016001D01*
G75*
G02*
X101717001Y-57266000I-249999J0D01*
G01*
G37*
G04 #@! TD.AperFunction*
G04 #@! TA.AperFunction,SMDPad,CuDef*
G36*
G01*
X100466999Y-63765000D02*
X101717001Y-63765000D01*
G75*
G02*
X101967000Y-64014999I0J-249999D01*
G01*
X101967000Y-64640001D01*
G75*
G02*
X101717001Y-64890000I-249999J0D01*
G01*
X100466999Y-64890000D01*
G75*
G02*
X100217000Y-64640001I0J249999D01*
G01*
X100217000Y-64014999D01*
G75*
G02*
X100466999Y-63765000I249999J0D01*
G01*
G37*
G04 #@! TD.AperFunction*
G04 #@! TA.AperFunction,SMDPad,CuDef*
G36*
G01*
X100466999Y-60840000D02*
X101717001Y-60840000D01*
G75*
G02*
X101967000Y-61089999I0J-249999D01*
G01*
X101967000Y-61715001D01*
G75*
G02*
X101717001Y-61965000I-249999J0D01*
G01*
X100466999Y-61965000D01*
G75*
G02*
X100217000Y-61715001I0J249999D01*
G01*
X100217000Y-61089999D01*
G75*
G02*
X100466999Y-60840000I249999J0D01*
G01*
G37*
G04 #@! TD.AperFunction*
G04 #@! TA.AperFunction,SMDPad,CuDef*
G36*
G01*
X102879999Y-56141000D02*
X104130001Y-56141000D01*
G75*
G02*
X104380000Y-56390999I0J-249999D01*
G01*
X104380000Y-57016001D01*
G75*
G02*
X104130001Y-57266000I-249999J0D01*
G01*
X102879999Y-57266000D01*
G75*
G02*
X102630000Y-57016001I0J249999D01*
G01*
X102630000Y-56390999D01*
G75*
G02*
X102879999Y-56141000I249999J0D01*
G01*
G37*
G04 #@! TD.AperFunction*
G04 #@! TA.AperFunction,SMDPad,CuDef*
G36*
G01*
X102879999Y-59066000D02*
X104130001Y-59066000D01*
G75*
G02*
X104380000Y-59315999I0J-249999D01*
G01*
X104380000Y-59941001D01*
G75*
G02*
X104130001Y-60191000I-249999J0D01*
G01*
X102879999Y-60191000D01*
G75*
G02*
X102630000Y-59941001I0J249999D01*
G01*
X102630000Y-59315999D01*
G75*
G02*
X102879999Y-59066000I249999J0D01*
G01*
G37*
G04 #@! TD.AperFunction*
G04 #@! TA.AperFunction,SMDPad,CuDef*
G36*
G01*
X102879999Y-63765000D02*
X104130001Y-63765000D01*
G75*
G02*
X104380000Y-64014999I0J-249999D01*
G01*
X104380000Y-64640001D01*
G75*
G02*
X104130001Y-64890000I-249999J0D01*
G01*
X102879999Y-64890000D01*
G75*
G02*
X102630000Y-64640001I0J249999D01*
G01*
X102630000Y-64014999D01*
G75*
G02*
X102879999Y-63765000I249999J0D01*
G01*
G37*
G04 #@! TD.AperFunction*
G04 #@! TA.AperFunction,SMDPad,CuDef*
G36*
G01*
X102879999Y-60840000D02*
X104130001Y-60840000D01*
G75*
G02*
X104380000Y-61089999I0J-249999D01*
G01*
X104380000Y-61715001D01*
G75*
G02*
X104130001Y-61965000I-249999J0D01*
G01*
X102879999Y-61965000D01*
G75*
G02*
X102630000Y-61715001I0J249999D01*
G01*
X102630000Y-61089999D01*
G75*
G02*
X102879999Y-60840000I249999J0D01*
G01*
G37*
G04 #@! TD.AperFunction*
G04 #@! TA.AperFunction,SMDPad,CuDef*
G36*
G01*
X82686999Y-66555000D02*
X83937001Y-66555000D01*
G75*
G02*
X84187000Y-66804999I0J-249999D01*
G01*
X84187000Y-67430001D01*
G75*
G02*
X83937001Y-67680000I-249999J0D01*
G01*
X82686999Y-67680000D01*
G75*
G02*
X82437000Y-67430001I0J249999D01*
G01*
X82437000Y-66804999D01*
G75*
G02*
X82686999Y-66555000I249999J0D01*
G01*
G37*
G04 #@! TD.AperFunction*
G04 #@! TA.AperFunction,SMDPad,CuDef*
G36*
G01*
X82686999Y-69480000D02*
X83937001Y-69480000D01*
G75*
G02*
X84187000Y-69729999I0J-249999D01*
G01*
X84187000Y-70355001D01*
G75*
G02*
X83937001Y-70605000I-249999J0D01*
G01*
X82686999Y-70605000D01*
G75*
G02*
X82437000Y-70355001I0J249999D01*
G01*
X82437000Y-69729999D01*
G75*
G02*
X82686999Y-69480000I249999J0D01*
G01*
G37*
G04 #@! TD.AperFunction*
G04 #@! TA.AperFunction,SMDPad,CuDef*
G36*
G01*
X94097001Y-67680000D02*
X92846999Y-67680000D01*
G75*
G02*
X92597000Y-67430001I0J249999D01*
G01*
X92597000Y-66804999D01*
G75*
G02*
X92846999Y-66555000I249999J0D01*
G01*
X94097001Y-66555000D01*
G75*
G02*
X94347000Y-66804999I0J-249999D01*
G01*
X94347000Y-67430001D01*
G75*
G02*
X94097001Y-67680000I-249999J0D01*
G01*
G37*
G04 #@! TD.AperFunction*
G04 #@! TA.AperFunction,SMDPad,CuDef*
G36*
G01*
X94097001Y-70605000D02*
X92846999Y-70605000D01*
G75*
G02*
X92597000Y-70355001I0J249999D01*
G01*
X92597000Y-69729999D01*
G75*
G02*
X92846999Y-69480000I249999J0D01*
G01*
X94097001Y-69480000D01*
G75*
G02*
X94347000Y-69729999I0J-249999D01*
G01*
X94347000Y-70355001D01*
G75*
G02*
X94097001Y-70605000I-249999J0D01*
G01*
G37*
G04 #@! TD.AperFunction*
D12*
X91186000Y-57912000D03*
X88646000Y-60452000D03*
X86106000Y-57912000D03*
G04 #@! TA.AperFunction,SMDPad,CuDef*
G36*
G01*
X89899501Y-66819501D02*
X89899501Y-66519501D01*
G75*
G02*
X90049501Y-66369501I150000J0D01*
G01*
X91699501Y-66369501D01*
G75*
G02*
X91849501Y-66519501I0J-150000D01*
G01*
X91849501Y-66819501D01*
G75*
G02*
X91699501Y-66969501I-150000J0D01*
G01*
X90049501Y-66969501D01*
G75*
G02*
X89899501Y-66819501I0J150000D01*
G01*
G37*
G04 #@! TD.AperFunction*
G04 #@! TA.AperFunction,SMDPad,CuDef*
G36*
G01*
X89899501Y-68089501D02*
X89899501Y-67789501D01*
G75*
G02*
X90049501Y-67639501I150000J0D01*
G01*
X91699501Y-67639501D01*
G75*
G02*
X91849501Y-67789501I0J-150000D01*
G01*
X91849501Y-68089501D01*
G75*
G02*
X91699501Y-68239501I-150000J0D01*
G01*
X90049501Y-68239501D01*
G75*
G02*
X89899501Y-68089501I0J150000D01*
G01*
G37*
G04 #@! TD.AperFunction*
G04 #@! TA.AperFunction,SMDPad,CuDef*
G36*
G01*
X89899501Y-69359501D02*
X89899501Y-69059501D01*
G75*
G02*
X90049501Y-68909501I150000J0D01*
G01*
X91699501Y-68909501D01*
G75*
G02*
X91849501Y-69059501I0J-150000D01*
G01*
X91849501Y-69359501D01*
G75*
G02*
X91699501Y-69509501I-150000J0D01*
G01*
X90049501Y-69509501D01*
G75*
G02*
X89899501Y-69359501I0J150000D01*
G01*
G37*
G04 #@! TD.AperFunction*
G04 #@! TA.AperFunction,SMDPad,CuDef*
G36*
G01*
X89899501Y-70629501D02*
X89899501Y-70329501D01*
G75*
G02*
X90049501Y-70179501I150000J0D01*
G01*
X91699501Y-70179501D01*
G75*
G02*
X91849501Y-70329501I0J-150000D01*
G01*
X91849501Y-70629501D01*
G75*
G02*
X91699501Y-70779501I-150000J0D01*
G01*
X90049501Y-70779501D01*
G75*
G02*
X89899501Y-70629501I0J150000D01*
G01*
G37*
G04 #@! TD.AperFunction*
G04 #@! TA.AperFunction,SMDPad,CuDef*
G36*
G01*
X84949501Y-70629501D02*
X84949501Y-70329501D01*
G75*
G02*
X85099501Y-70179501I150000J0D01*
G01*
X86749501Y-70179501D01*
G75*
G02*
X86899501Y-70329501I0J-150000D01*
G01*
X86899501Y-70629501D01*
G75*
G02*
X86749501Y-70779501I-150000J0D01*
G01*
X85099501Y-70779501D01*
G75*
G02*
X84949501Y-70629501I0J150000D01*
G01*
G37*
G04 #@! TD.AperFunction*
G04 #@! TA.AperFunction,SMDPad,CuDef*
G36*
G01*
X84949501Y-69359501D02*
X84949501Y-69059501D01*
G75*
G02*
X85099501Y-68909501I150000J0D01*
G01*
X86749501Y-68909501D01*
G75*
G02*
X86899501Y-69059501I0J-150000D01*
G01*
X86899501Y-69359501D01*
G75*
G02*
X86749501Y-69509501I-150000J0D01*
G01*
X85099501Y-69509501D01*
G75*
G02*
X84949501Y-69359501I0J150000D01*
G01*
G37*
G04 #@! TD.AperFunction*
G04 #@! TA.AperFunction,SMDPad,CuDef*
G36*
G01*
X84949501Y-68089501D02*
X84949501Y-67789501D01*
G75*
G02*
X85099501Y-67639501I150000J0D01*
G01*
X86749501Y-67639501D01*
G75*
G02*
X86899501Y-67789501I0J-150000D01*
G01*
X86899501Y-68089501D01*
G75*
G02*
X86749501Y-68239501I-150000J0D01*
G01*
X85099501Y-68239501D01*
G75*
G02*
X84949501Y-68089501I0J150000D01*
G01*
G37*
G04 #@! TD.AperFunction*
G04 #@! TA.AperFunction,SMDPad,CuDef*
G36*
G01*
X84949501Y-66819501D02*
X84949501Y-66519501D01*
G75*
G02*
X85099501Y-66369501I150000J0D01*
G01*
X86749501Y-66369501D01*
G75*
G02*
X86899501Y-66519501I0J-150000D01*
G01*
X86899501Y-66819501D01*
G75*
G02*
X86749501Y-66969501I-150000J0D01*
G01*
X85099501Y-66969501D01*
G75*
G02*
X84949501Y-66819501I0J150000D01*
G01*
G37*
G04 #@! TD.AperFunction*
G04 #@! TA.AperFunction,SMDPad,CuDef*
G36*
G01*
X95102000Y-66825000D02*
X95102000Y-66525000D01*
G75*
G02*
X95252000Y-66375000I150000J0D01*
G01*
X96902000Y-66375000D01*
G75*
G02*
X97052000Y-66525000I0J-150000D01*
G01*
X97052000Y-66825000D01*
G75*
G02*
X96902000Y-66975000I-150000J0D01*
G01*
X95252000Y-66975000D01*
G75*
G02*
X95102000Y-66825000I0J150000D01*
G01*
G37*
G04 #@! TD.AperFunction*
G04 #@! TA.AperFunction,SMDPad,CuDef*
G36*
G01*
X95102000Y-68095000D02*
X95102000Y-67795000D01*
G75*
G02*
X95252000Y-67645000I150000J0D01*
G01*
X96902000Y-67645000D01*
G75*
G02*
X97052000Y-67795000I0J-150000D01*
G01*
X97052000Y-68095000D01*
G75*
G02*
X96902000Y-68245000I-150000J0D01*
G01*
X95252000Y-68245000D01*
G75*
G02*
X95102000Y-68095000I0J150000D01*
G01*
G37*
G04 #@! TD.AperFunction*
G04 #@! TA.AperFunction,SMDPad,CuDef*
G36*
G01*
X95102000Y-69365000D02*
X95102000Y-69065000D01*
G75*
G02*
X95252000Y-68915000I150000J0D01*
G01*
X96902000Y-68915000D01*
G75*
G02*
X97052000Y-69065000I0J-150000D01*
G01*
X97052000Y-69365000D01*
G75*
G02*
X96902000Y-69515000I-150000J0D01*
G01*
X95252000Y-69515000D01*
G75*
G02*
X95102000Y-69365000I0J150000D01*
G01*
G37*
G04 #@! TD.AperFunction*
G04 #@! TA.AperFunction,SMDPad,CuDef*
G36*
G01*
X95102000Y-70635000D02*
X95102000Y-70335000D01*
G75*
G02*
X95252000Y-70185000I150000J0D01*
G01*
X96902000Y-70185000D01*
G75*
G02*
X97052000Y-70335000I0J-150000D01*
G01*
X97052000Y-70635000D01*
G75*
G02*
X96902000Y-70785000I-150000J0D01*
G01*
X95252000Y-70785000D01*
G75*
G02*
X95102000Y-70635000I0J150000D01*
G01*
G37*
G04 #@! TD.AperFunction*
G04 #@! TA.AperFunction,SMDPad,CuDef*
G36*
G01*
X100052000Y-70635000D02*
X100052000Y-70335000D01*
G75*
G02*
X100202000Y-70185000I150000J0D01*
G01*
X101852000Y-70185000D01*
G75*
G02*
X102002000Y-70335000I0J-150000D01*
G01*
X102002000Y-70635000D01*
G75*
G02*
X101852000Y-70785000I-150000J0D01*
G01*
X100202000Y-70785000D01*
G75*
G02*
X100052000Y-70635000I0J150000D01*
G01*
G37*
G04 #@! TD.AperFunction*
G04 #@! TA.AperFunction,SMDPad,CuDef*
G36*
G01*
X100052000Y-69365000D02*
X100052000Y-69065000D01*
G75*
G02*
X100202000Y-68915000I150000J0D01*
G01*
X101852000Y-68915000D01*
G75*
G02*
X102002000Y-69065000I0J-150000D01*
G01*
X102002000Y-69365000D01*
G75*
G02*
X101852000Y-69515000I-150000J0D01*
G01*
X100202000Y-69515000D01*
G75*
G02*
X100052000Y-69365000I0J150000D01*
G01*
G37*
G04 #@! TD.AperFunction*
G04 #@! TA.AperFunction,SMDPad,CuDef*
G36*
G01*
X100052000Y-68095000D02*
X100052000Y-67795000D01*
G75*
G02*
X100202000Y-67645000I150000J0D01*
G01*
X101852000Y-67645000D01*
G75*
G02*
X102002000Y-67795000I0J-150000D01*
G01*
X102002000Y-68095000D01*
G75*
G02*
X101852000Y-68245000I-150000J0D01*
G01*
X100202000Y-68245000D01*
G75*
G02*
X100052000Y-68095000I0J150000D01*
G01*
G37*
G04 #@! TD.AperFunction*
G04 #@! TA.AperFunction,SMDPad,CuDef*
G36*
G01*
X100052000Y-66825000D02*
X100052000Y-66525000D01*
G75*
G02*
X100202000Y-66375000I150000J0D01*
G01*
X101852000Y-66375000D01*
G75*
G02*
X102002000Y-66525000I0J-150000D01*
G01*
X102002000Y-66825000D01*
G75*
G02*
X101852000Y-66975000I-150000J0D01*
G01*
X100202000Y-66975000D01*
G75*
G02*
X100052000Y-66825000I0J150000D01*
G01*
G37*
G04 #@! TD.AperFunction*
D13*
X77470000Y-60198000D03*
D14*
X71170000Y-60198000D03*
X71170000Y-62498000D03*
X71170000Y-57898000D03*
G04 #@! TA.AperFunction,SMDPad,CuDef*
G36*
G01*
X74847000Y-66825000D02*
X74847000Y-66525000D01*
G75*
G02*
X74997000Y-66375000I150000J0D01*
G01*
X76647000Y-66375000D01*
G75*
G02*
X76797000Y-66525000I0J-150000D01*
G01*
X76797000Y-66825000D01*
G75*
G02*
X76647000Y-66975000I-150000J0D01*
G01*
X74997000Y-66975000D01*
G75*
G02*
X74847000Y-66825000I0J150000D01*
G01*
G37*
G04 #@! TD.AperFunction*
G04 #@! TA.AperFunction,SMDPad,CuDef*
G36*
G01*
X74847000Y-68095000D02*
X74847000Y-67795000D01*
G75*
G02*
X74997000Y-67645000I150000J0D01*
G01*
X76647000Y-67645000D01*
G75*
G02*
X76797000Y-67795000I0J-150000D01*
G01*
X76797000Y-68095000D01*
G75*
G02*
X76647000Y-68245000I-150000J0D01*
G01*
X74997000Y-68245000D01*
G75*
G02*
X74847000Y-68095000I0J150000D01*
G01*
G37*
G04 #@! TD.AperFunction*
G04 #@! TA.AperFunction,SMDPad,CuDef*
G36*
G01*
X74847000Y-69365000D02*
X74847000Y-69065000D01*
G75*
G02*
X74997000Y-68915000I150000J0D01*
G01*
X76647000Y-68915000D01*
G75*
G02*
X76797000Y-69065000I0J-150000D01*
G01*
X76797000Y-69365000D01*
G75*
G02*
X76647000Y-69515000I-150000J0D01*
G01*
X74997000Y-69515000D01*
G75*
G02*
X74847000Y-69365000I0J150000D01*
G01*
G37*
G04 #@! TD.AperFunction*
G04 #@! TA.AperFunction,SMDPad,CuDef*
G36*
G01*
X74847000Y-70635000D02*
X74847000Y-70335000D01*
G75*
G02*
X74997000Y-70185000I150000J0D01*
G01*
X76647000Y-70185000D01*
G75*
G02*
X76797000Y-70335000I0J-150000D01*
G01*
X76797000Y-70635000D01*
G75*
G02*
X76647000Y-70785000I-150000J0D01*
G01*
X74997000Y-70785000D01*
G75*
G02*
X74847000Y-70635000I0J150000D01*
G01*
G37*
G04 #@! TD.AperFunction*
G04 #@! TA.AperFunction,SMDPad,CuDef*
G36*
G01*
X79797000Y-70635000D02*
X79797000Y-70335000D01*
G75*
G02*
X79947000Y-70185000I150000J0D01*
G01*
X81597000Y-70185000D01*
G75*
G02*
X81747000Y-70335000I0J-150000D01*
G01*
X81747000Y-70635000D01*
G75*
G02*
X81597000Y-70785000I-150000J0D01*
G01*
X79947000Y-70785000D01*
G75*
G02*
X79797000Y-70635000I0J150000D01*
G01*
G37*
G04 #@! TD.AperFunction*
G04 #@! TA.AperFunction,SMDPad,CuDef*
G36*
G01*
X79797000Y-69365000D02*
X79797000Y-69065000D01*
G75*
G02*
X79947000Y-68915000I150000J0D01*
G01*
X81597000Y-68915000D01*
G75*
G02*
X81747000Y-69065000I0J-150000D01*
G01*
X81747000Y-69365000D01*
G75*
G02*
X81597000Y-69515000I-150000J0D01*
G01*
X79947000Y-69515000D01*
G75*
G02*
X79797000Y-69365000I0J150000D01*
G01*
G37*
G04 #@! TD.AperFunction*
G04 #@! TA.AperFunction,SMDPad,CuDef*
G36*
G01*
X79797000Y-68095000D02*
X79797000Y-67795000D01*
G75*
G02*
X79947000Y-67645000I150000J0D01*
G01*
X81597000Y-67645000D01*
G75*
G02*
X81747000Y-67795000I0J-150000D01*
G01*
X81747000Y-68095000D01*
G75*
G02*
X81597000Y-68245000I-150000J0D01*
G01*
X79947000Y-68245000D01*
G75*
G02*
X79797000Y-68095000I0J150000D01*
G01*
G37*
G04 #@! TD.AperFunction*
G04 #@! TA.AperFunction,SMDPad,CuDef*
G36*
G01*
X79797000Y-66825000D02*
X79797000Y-66525000D01*
G75*
G02*
X79947000Y-66375000I150000J0D01*
G01*
X81597000Y-66375000D01*
G75*
G02*
X81747000Y-66525000I0J-150000D01*
G01*
X81747000Y-66825000D01*
G75*
G02*
X81597000Y-66975000I-150000J0D01*
G01*
X79947000Y-66975000D01*
G75*
G02*
X79797000Y-66825000I0J150000D01*
G01*
G37*
G04 #@! TD.AperFunction*
D15*
X96266000Y-58420000D03*
X81026000Y-58420000D03*
D16*
X96012000Y-70612000D03*
X75946000Y-70358000D03*
X86871155Y-70361155D03*
X101092000Y-64327500D03*
X78232000Y-67820500D03*
X77470000Y-60198000D03*
X90874501Y-66669501D03*
X101027000Y-66675000D03*
X81341500Y-74422000D03*
X75822000Y-66675000D03*
X80772000Y-67945000D03*
X82550000Y-71882000D03*
X81341500Y-77470000D03*
X90810499Y-70379511D03*
X96077000Y-67945000D03*
X85924501Y-69209501D03*
D17*
X75020001Y-54772999D02*
X73730002Y-53483000D01*
X75020001Y-56193001D02*
X75020001Y-54772999D01*
X73442002Y-57898000D02*
X75020001Y-56320001D01*
X73730002Y-53483000D02*
X73345000Y-53483000D01*
X71170000Y-57898000D02*
X73442002Y-57898000D01*
X73295000Y-53533000D02*
X73345000Y-53483000D01*
X71247000Y-53533000D02*
X73295000Y-53533000D01*
X77343000Y-53533000D02*
X76139000Y-54737000D01*
X75056000Y-54737000D02*
X75020001Y-54772999D01*
X76139000Y-54737000D02*
X75056000Y-54737000D01*
X103505000Y-64327500D02*
X101092000Y-64327500D01*
X85924501Y-70479501D02*
X86752809Y-70479501D01*
X86752809Y-70479501D02*
X86871155Y-70361155D01*
X101092000Y-64327500D02*
X101092000Y-64327500D01*
X81994999Y-47644999D02*
X77343000Y-52296998D01*
X77343000Y-52296998D02*
X77343000Y-53533000D01*
X88344000Y-45720000D02*
X86419001Y-47644999D01*
X86419001Y-47644999D02*
X81994999Y-47644999D01*
X75020001Y-56320001D02*
X75020001Y-56193001D01*
X71170000Y-60198000D02*
X77470000Y-60198000D01*
X77470000Y-55687000D02*
X77343000Y-55560000D01*
X77470000Y-60198000D02*
X77470000Y-55687000D01*
X103505000Y-56703500D02*
X101092000Y-56703500D01*
X92394500Y-56703500D02*
X91186000Y-57912000D01*
X101092000Y-56703500D02*
X92394500Y-56703500D01*
X80772000Y-66675000D02*
X79377500Y-66675000D01*
X79377500Y-66675000D02*
X78232000Y-67820500D01*
X80772000Y-63500000D02*
X77470000Y-60198000D01*
X80772000Y-66675000D02*
X80772000Y-64516000D01*
X82869500Y-66675000D02*
X83312000Y-67117500D01*
X80772000Y-66675000D02*
X82869500Y-66675000D01*
X91322500Y-67117500D02*
X90874501Y-66669501D01*
X93472000Y-67117500D02*
X91322500Y-67117500D01*
X80772000Y-63500000D02*
X80772000Y-64516000D01*
X69844999Y-56962001D02*
X71247000Y-55560000D01*
X69844999Y-62422999D02*
X69844999Y-56962001D01*
X69920000Y-62498000D02*
X69844999Y-62422999D01*
X71170000Y-62498000D02*
X69920000Y-62498000D01*
X74245000Y-55560000D02*
X74295000Y-55610000D01*
X71247000Y-55560000D02*
X74245000Y-55560000D01*
X81612500Y-74422000D02*
X81341500Y-74422000D01*
X75822000Y-66675000D02*
X75822000Y-67945000D01*
X74521990Y-68270010D02*
X74847000Y-67945000D01*
X74800242Y-71110010D02*
X74521990Y-70831758D01*
X74847000Y-67945000D02*
X75822000Y-67945000D01*
X74521990Y-70831758D02*
X74521990Y-68270010D01*
X80175510Y-71110010D02*
X74800242Y-71110010D01*
X83487500Y-74422000D02*
X80175510Y-71110010D01*
X80772000Y-69215000D02*
X80772000Y-67945000D01*
X84300010Y-73632010D02*
X82550000Y-71882000D01*
X83566000Y-77470000D02*
X84300010Y-76735990D01*
X84300010Y-76735990D02*
X84300010Y-73632010D01*
X81691000Y-77470000D02*
X81341500Y-77470000D01*
X83008000Y-45720000D02*
X84328000Y-45720000D01*
X75245000Y-53483000D02*
X83008000Y-45720000D01*
X85344000Y-45720000D02*
X84328000Y-45720000D01*
X84328000Y-45720000D02*
X84151000Y-45720000D01*
X86301269Y-67939501D02*
X85924501Y-67939501D01*
X88841269Y-70479501D02*
X86301269Y-67939501D01*
X90874501Y-70479501D02*
X88841269Y-70479501D01*
X87224511Y-64618511D02*
X81026000Y-58420000D01*
X87224511Y-67614491D02*
X87224511Y-64618511D01*
X86899501Y-67939501D02*
X87224511Y-67614491D01*
X85924501Y-67939501D02*
X86899501Y-67939501D01*
X90874501Y-70479501D02*
X90874501Y-70443513D01*
X90874501Y-70443513D02*
X90810499Y-70379511D01*
X85344000Y-54102000D02*
X81026000Y-58420000D01*
X85344000Y-48720000D02*
X85344000Y-54102000D01*
X101092000Y-61402500D02*
X101092000Y-59628500D01*
X97377010Y-68291758D02*
X96453768Y-69215000D01*
X97377010Y-65117490D02*
X97377010Y-68291758D01*
X96453768Y-69215000D02*
X96077000Y-69215000D01*
X101092000Y-61402500D02*
X97377010Y-65117490D01*
X103505000Y-61402500D02*
X103505000Y-59628500D01*
X102617490Y-58740990D02*
X103505000Y-59628500D01*
X100228820Y-58740990D02*
X102617490Y-58740990D01*
X98517810Y-60452000D02*
X100228820Y-58740990D01*
X95445234Y-60452000D02*
X98517810Y-60452000D01*
X89574491Y-68884491D02*
X89574491Y-66322743D01*
X89574491Y-66322743D02*
X95445234Y-60452000D01*
X89899501Y-69209501D02*
X89574491Y-68884491D01*
X90874501Y-69209501D02*
X89899501Y-69209501D01*
X77441990Y-69859990D02*
X83129490Y-69859990D01*
X76797000Y-69215000D02*
X77441990Y-69859990D01*
X83129490Y-69859990D02*
X83312000Y-70042500D01*
X75822000Y-69215000D02*
X76797000Y-69215000D01*
X84949501Y-66669501D02*
X85924501Y-66669501D01*
X84512010Y-67106992D02*
X84949501Y-66669501D01*
X84512010Y-68842490D02*
X84512010Y-67106992D01*
X83312000Y-70042500D02*
X84512010Y-68842490D01*
X91369001Y-67939501D02*
X90874501Y-67939501D01*
X93472000Y-70042500D02*
X91369001Y-67939501D01*
X95700232Y-66675000D02*
X96077000Y-66675000D01*
X93472000Y-68903232D02*
X95700232Y-66675000D01*
X93472000Y-70042500D02*
X93472000Y-68903232D01*
X81391511Y-71104511D02*
X80772000Y-70485000D01*
X93472000Y-70042500D02*
X92409989Y-71104511D01*
X92409989Y-71104511D02*
X81391511Y-71104511D01*
X94234000Y-60452000D02*
X96266000Y-58420000D01*
X88646000Y-60452000D02*
X94234000Y-60452000D01*
M02*
