G04 #@! TF.GenerationSoftware,KiCad,Pcbnew,(5.1.6)-1*
G04 #@! TF.CreationDate,2021-06-25T13:56:25+10:00*
G04 #@! TF.ProjectId,Fan Controller,46616e20-436f-46e7-9472-6f6c6c65722e,rev?*
G04 #@! TF.SameCoordinates,Original*
G04 #@! TF.FileFunction,Soldermask,Top*
G04 #@! TF.FilePolarity,Negative*
%FSLAX46Y46*%
G04 Gerber Fmt 4.6, Leading zero omitted, Abs format (unit mm)*
G04 Created by KiCad (PCBNEW (5.1.6)-1) date 2021-06-25 13:56:25*
%MOMM*%
%LPD*%
G01*
G04 APERTURE LIST*
%ADD10C,1.600000*%
%ADD11C,3.100000*%
%ADD12C,3.300000*%
%ADD13C,4.100000*%
%ADD14R,4.900000X4.600000*%
%ADD15R,0.900000X1.000000*%
G04 APERTURE END LIST*
D10*
X138365000Y-91011000D03*
X135365000Y-91011000D03*
X132365000Y-91011000D03*
X129365000Y-91011000D03*
X126365000Y-91011000D03*
X138365000Y-88011000D03*
X135365000Y-88011000D03*
X132365000Y-88011000D03*
X129365000Y-88011000D03*
G36*
G01*
X125565000Y-88544333D02*
X125565000Y-87477667D01*
G75*
G02*
X125831667Y-87211000I266667J0D01*
G01*
X126898333Y-87211000D01*
G75*
G02*
X127165000Y-87477667I0J-266667D01*
G01*
X127165000Y-88544333D01*
G75*
G02*
X126898333Y-88811000I-266667J0D01*
G01*
X125831667Y-88811000D01*
G75*
G02*
X125565000Y-88544333I0J266667D01*
G01*
G37*
D11*
X136225000Y-83691000D03*
X128525000Y-83691000D03*
D12*
X150316000Y-106788000D03*
X150316000Y-81788000D03*
X115316000Y-106788000D03*
X115316000Y-121788000D03*
X155316000Y-121788000D03*
X155316000Y-81788000D03*
X115316000Y-81788000D03*
D13*
X146032000Y-116473000D03*
X124572000Y-116473000D03*
D14*
X140302000Y-116123000D03*
X130302000Y-116123000D03*
X140302000Y-120523000D03*
X130302000Y-120523000D03*
D15*
X144846000Y-90281000D03*
X146746000Y-90281000D03*
X145796000Y-88281000D03*
G36*
G01*
X146413221Y-91462500D02*
X147718779Y-91462500D01*
G75*
G02*
X147991000Y-91734721I0J-272221D01*
G01*
X147991000Y-92415279D01*
G75*
G02*
X147718779Y-92687500I-272221J0D01*
G01*
X146413221Y-92687500D01*
G75*
G02*
X146141000Y-92415279I0J272221D01*
G01*
X146141000Y-91734721D01*
G75*
G02*
X146413221Y-91462500I272221J0D01*
G01*
G37*
G36*
G01*
X146413221Y-94387500D02*
X147718779Y-94387500D01*
G75*
G02*
X147991000Y-94659721I0J-272221D01*
G01*
X147991000Y-95340279D01*
G75*
G02*
X147718779Y-95612500I-272221J0D01*
G01*
X146413221Y-95612500D01*
G75*
G02*
X146141000Y-95340279I0J272221D01*
G01*
X146141000Y-94659721D01*
G75*
G02*
X146413221Y-94387500I272221J0D01*
G01*
G37*
G36*
G01*
X143873221Y-94387500D02*
X145178779Y-94387500D01*
G75*
G02*
X145451000Y-94659721I0J-272221D01*
G01*
X145451000Y-95340279D01*
G75*
G02*
X145178779Y-95612500I-272221J0D01*
G01*
X143873221Y-95612500D01*
G75*
G02*
X143601000Y-95340279I0J272221D01*
G01*
X143601000Y-94659721D01*
G75*
G02*
X143873221Y-94387500I272221J0D01*
G01*
G37*
G36*
G01*
X143873221Y-91462500D02*
X145178779Y-91462500D01*
G75*
G02*
X145451000Y-91734721I0J-272221D01*
G01*
X145451000Y-92415279D01*
G75*
G02*
X145178779Y-92687500I-272221J0D01*
G01*
X143873221Y-92687500D01*
G75*
G02*
X143601000Y-92415279I0J272221D01*
G01*
X143601000Y-91734721D01*
G75*
G02*
X143873221Y-91462500I272221J0D01*
G01*
G37*
M02*
