G04 #@! TF.GenerationSoftware,KiCad,Pcbnew,(5.1.6)-1*
G04 #@! TF.CreationDate,2021-06-25T13:56:25+10:00*
G04 #@! TF.ProjectId,Fan Controller,46616e20-436f-46e7-9472-6f6c6c65722e,rev?*
G04 #@! TF.SameCoordinates,Original*
G04 #@! TF.FileFunction,Legend,Top*
G04 #@! TF.FilePolarity,Positive*
%FSLAX46Y46*%
G04 Gerber Fmt 4.6, Leading zero omitted, Abs format (unit mm)*
G04 Created by KiCad (PCBNEW (5.1.6)-1) date 2021-06-25 13:56:25*
%MOMM*%
%LPD*%
G01*
G04 APERTURE LIST*
%ADD10C,0.150000*%
%ADD11C,0.010000*%
%ADD12C,0.120000*%
G04 APERTURE END LIST*
D10*
X156788428Y-88552928D02*
X156788428Y-88219595D01*
X156264619Y-88219595D02*
X157264619Y-88219595D01*
X157264619Y-88695785D01*
X156264619Y-89505309D02*
X156788428Y-89505309D01*
X156883666Y-89457690D01*
X156931285Y-89362452D01*
X156931285Y-89171976D01*
X156883666Y-89076738D01*
X156312238Y-89505309D02*
X156264619Y-89410071D01*
X156264619Y-89171976D01*
X156312238Y-89076738D01*
X156407476Y-89029119D01*
X156502714Y-89029119D01*
X156597952Y-89076738D01*
X156645571Y-89171976D01*
X156645571Y-89410071D01*
X156693190Y-89505309D01*
X156931285Y-89981500D02*
X156264619Y-89981500D01*
X156836047Y-89981500D02*
X156883666Y-90029119D01*
X156931285Y-90124357D01*
X156931285Y-90267214D01*
X156883666Y-90362452D01*
X156788428Y-90410071D01*
X156264619Y-90410071D01*
X156359857Y-92219595D02*
X156312238Y-92171976D01*
X156264619Y-92029119D01*
X156264619Y-91933880D01*
X156312238Y-91791023D01*
X156407476Y-91695785D01*
X156502714Y-91648166D01*
X156693190Y-91600547D01*
X156836047Y-91600547D01*
X157026523Y-91648166D01*
X157121761Y-91695785D01*
X157217000Y-91791023D01*
X157264619Y-91933880D01*
X157264619Y-92029119D01*
X157217000Y-92171976D01*
X157169380Y-92219595D01*
X156264619Y-92791023D02*
X156312238Y-92695785D01*
X156359857Y-92648166D01*
X156455095Y-92600547D01*
X156740809Y-92600547D01*
X156836047Y-92648166D01*
X156883666Y-92695785D01*
X156931285Y-92791023D01*
X156931285Y-92933880D01*
X156883666Y-93029119D01*
X156836047Y-93076738D01*
X156740809Y-93124357D01*
X156455095Y-93124357D01*
X156359857Y-93076738D01*
X156312238Y-93029119D01*
X156264619Y-92933880D01*
X156264619Y-92791023D01*
X156931285Y-93552928D02*
X156264619Y-93552928D01*
X156836047Y-93552928D02*
X156883666Y-93600547D01*
X156931285Y-93695785D01*
X156931285Y-93838642D01*
X156883666Y-93933880D01*
X156788428Y-93981500D01*
X156264619Y-93981500D01*
X156931285Y-94314833D02*
X156931285Y-94695785D01*
X157264619Y-94457690D02*
X156407476Y-94457690D01*
X156312238Y-94505309D01*
X156264619Y-94600547D01*
X156264619Y-94695785D01*
X156264619Y-95029119D02*
X156931285Y-95029119D01*
X156740809Y-95029119D02*
X156836047Y-95076738D01*
X156883666Y-95124357D01*
X156931285Y-95219595D01*
X156931285Y-95314833D01*
X156264619Y-95791023D02*
X156312238Y-95695785D01*
X156359857Y-95648166D01*
X156455095Y-95600547D01*
X156740809Y-95600547D01*
X156836047Y-95648166D01*
X156883666Y-95695785D01*
X156931285Y-95791023D01*
X156931285Y-95933880D01*
X156883666Y-96029119D01*
X156836047Y-96076738D01*
X156740809Y-96124357D01*
X156455095Y-96124357D01*
X156359857Y-96076738D01*
X156312238Y-96029119D01*
X156264619Y-95933880D01*
X156264619Y-95791023D01*
X156264619Y-96695785D02*
X156312238Y-96600547D01*
X156407476Y-96552928D01*
X157264619Y-96552928D01*
X156264619Y-97219595D02*
X156312238Y-97124357D01*
X156407476Y-97076738D01*
X157264619Y-97076738D01*
X156312238Y-97981500D02*
X156264619Y-97886261D01*
X156264619Y-97695785D01*
X156312238Y-97600547D01*
X156407476Y-97552928D01*
X156788428Y-97552928D01*
X156883666Y-97600547D01*
X156931285Y-97695785D01*
X156931285Y-97886261D01*
X156883666Y-97981500D01*
X156788428Y-98029119D01*
X156693190Y-98029119D01*
X156597952Y-97552928D01*
X156264619Y-98457690D02*
X156931285Y-98457690D01*
X156740809Y-98457690D02*
X156836047Y-98505309D01*
X156883666Y-98552928D01*
X156931285Y-98648166D01*
X156931285Y-98743404D01*
X157264619Y-99695785D02*
X156264619Y-100029119D01*
X157264619Y-100362452D01*
X156264619Y-101219595D02*
X156264619Y-100648166D01*
X156264619Y-100933880D02*
X157264619Y-100933880D01*
X157121761Y-100838642D01*
X157026523Y-100743404D01*
X156978904Y-100648166D01*
X156359857Y-101648166D02*
X156312238Y-101695785D01*
X156264619Y-101648166D01*
X156312238Y-101600547D01*
X156359857Y-101648166D01*
X156264619Y-101648166D01*
X157264619Y-102314833D02*
X157264619Y-102410071D01*
X157217000Y-102505309D01*
X157169380Y-102552928D01*
X157074142Y-102600547D01*
X156883666Y-102648166D01*
X156645571Y-102648166D01*
X156455095Y-102600547D01*
X156359857Y-102552928D01*
X156312238Y-102505309D01*
X156264619Y-102410071D01*
X156264619Y-102314833D01*
X156312238Y-102219595D01*
X156359857Y-102171976D01*
X156455095Y-102124357D01*
X156645571Y-102076738D01*
X156883666Y-102076738D01*
X157074142Y-102124357D01*
X157169380Y-102171976D01*
X157217000Y-102219595D01*
X157264619Y-102314833D01*
X154614619Y-88219595D02*
X155614619Y-88219595D01*
X154614619Y-88791023D01*
X155614619Y-88791023D01*
X155614619Y-89267214D02*
X154805095Y-89267214D01*
X154709857Y-89314833D01*
X154662238Y-89362452D01*
X154614619Y-89457690D01*
X154614619Y-89648166D01*
X154662238Y-89743404D01*
X154709857Y-89791023D01*
X154805095Y-89838642D01*
X155614619Y-89838642D01*
X154614619Y-90886261D02*
X155090809Y-90552928D01*
X154614619Y-90314833D02*
X155614619Y-90314833D01*
X155614619Y-90695785D01*
X155567000Y-90791023D01*
X155519380Y-90838642D01*
X155424142Y-90886261D01*
X155281285Y-90886261D01*
X155186047Y-90838642D01*
X155138428Y-90791023D01*
X155090809Y-90695785D01*
X155090809Y-90314833D01*
X154614619Y-91743404D02*
X155138428Y-91743404D01*
X155233666Y-91695785D01*
X155281285Y-91600547D01*
X155281285Y-91410071D01*
X155233666Y-91314833D01*
X154662238Y-91743404D02*
X154614619Y-91648166D01*
X154614619Y-91410071D01*
X154662238Y-91314833D01*
X154757476Y-91267214D01*
X154852714Y-91267214D01*
X154947952Y-91314833D01*
X154995571Y-91410071D01*
X154995571Y-91648166D01*
X155043190Y-91743404D01*
X154662238Y-92648166D02*
X154614619Y-92552928D01*
X154614619Y-92362452D01*
X154662238Y-92267214D01*
X154709857Y-92219595D01*
X154805095Y-92171976D01*
X155090809Y-92171976D01*
X155186047Y-92219595D01*
X155233666Y-92267214D01*
X155281285Y-92362452D01*
X155281285Y-92552928D01*
X155233666Y-92648166D01*
X154614619Y-93076738D02*
X155281285Y-93076738D01*
X155614619Y-93076738D02*
X155567000Y-93029119D01*
X155519380Y-93076738D01*
X155567000Y-93124357D01*
X155614619Y-93076738D01*
X155519380Y-93076738D01*
X155281285Y-93552928D02*
X154614619Y-93552928D01*
X155186047Y-93552928D02*
X155233666Y-93600547D01*
X155281285Y-93695785D01*
X155281285Y-93838642D01*
X155233666Y-93933880D01*
X155138428Y-93981500D01*
X154614619Y-93981500D01*
X155281285Y-94886261D02*
X154471761Y-94886261D01*
X154376523Y-94838642D01*
X154328904Y-94791023D01*
X154281285Y-94695785D01*
X154281285Y-94552928D01*
X154328904Y-94457690D01*
X154662238Y-94886261D02*
X154614619Y-94791023D01*
X154614619Y-94600547D01*
X154662238Y-94505309D01*
X154709857Y-94457690D01*
X154805095Y-94410071D01*
X155090809Y-94410071D01*
X155186047Y-94457690D01*
X155233666Y-94505309D01*
X155281285Y-94600547D01*
X155281285Y-94791023D01*
X155233666Y-94886261D01*
X152964619Y-88219595D02*
X153964619Y-88219595D01*
X153250333Y-88552928D01*
X153964619Y-88886261D01*
X152964619Y-88886261D01*
X153964619Y-90029119D02*
X152964619Y-90267214D01*
X153678904Y-90457690D01*
X152964619Y-90648166D01*
X153964619Y-90886261D01*
X152964619Y-91267214D02*
X153964619Y-91267214D01*
X152964619Y-91695785D02*
X153488428Y-91695785D01*
X153583666Y-91648166D01*
X153631285Y-91552928D01*
X153631285Y-91410071D01*
X153583666Y-91314833D01*
X153536047Y-91267214D01*
X152964619Y-92171976D02*
X153631285Y-92171976D01*
X153964619Y-92171976D02*
X153917000Y-92124357D01*
X153869380Y-92171976D01*
X153917000Y-92219595D01*
X153964619Y-92171976D01*
X153869380Y-92171976D01*
X153631285Y-92505309D02*
X153631285Y-92886261D01*
X153964619Y-92648166D02*
X153107476Y-92648166D01*
X153012238Y-92695785D01*
X152964619Y-92791023D01*
X152964619Y-92886261D01*
X153631285Y-93124357D02*
X152964619Y-93314833D01*
X153440809Y-93505309D01*
X152964619Y-93695785D01*
X153631285Y-93886261D01*
X152964619Y-94410071D02*
X153012238Y-94314833D01*
X153059857Y-94267214D01*
X153155095Y-94219595D01*
X153440809Y-94219595D01*
X153536047Y-94267214D01*
X153583666Y-94314833D01*
X153631285Y-94410071D01*
X153631285Y-94552928D01*
X153583666Y-94648166D01*
X153536047Y-94695785D01*
X153440809Y-94743404D01*
X153155095Y-94743404D01*
X153059857Y-94695785D01*
X153012238Y-94648166D01*
X152964619Y-94552928D01*
X152964619Y-94410071D01*
X152964619Y-95171976D02*
X153631285Y-95171976D01*
X153440809Y-95171976D02*
X153536047Y-95219595D01*
X153583666Y-95267214D01*
X153631285Y-95362452D01*
X153631285Y-95457690D01*
X153631285Y-95648166D02*
X153631285Y-96029119D01*
X153964619Y-95791023D02*
X153107476Y-95791023D01*
X153012238Y-95838642D01*
X152964619Y-95933880D01*
X152964619Y-96029119D01*
X152964619Y-96362452D02*
X153964619Y-96362452D01*
X152964619Y-96791023D02*
X153488428Y-96791023D01*
X153583666Y-96743404D01*
X153631285Y-96648166D01*
X153631285Y-96505309D01*
X153583666Y-96410071D01*
X153536047Y-96362452D01*
D11*
G36*
X118893167Y-92300503D02*
G01*
X118596833Y-92400291D01*
X118755584Y-92457816D01*
X118853193Y-92498960D01*
X118899010Y-92548465D01*
X118911920Y-92636549D01*
X118911894Y-92707921D01*
X118903126Y-92873419D01*
X118884539Y-93038501D01*
X118879627Y-93068597D01*
X118854417Y-93174188D01*
X118810185Y-93230084D01*
X118720085Y-93261679D01*
X118662835Y-93273667D01*
X118475870Y-93310641D01*
X118631602Y-93399641D01*
X118716595Y-93453549D01*
X118763538Y-93508255D01*
X118774638Y-93582837D01*
X118752104Y-93696369D01*
X118698144Y-93867929D01*
X118688989Y-93895333D01*
X118596833Y-94170500D01*
X118411240Y-94183795D01*
X118225647Y-94197089D01*
X118488609Y-94468397D01*
X118271155Y-94859199D01*
X118179489Y-95019657D01*
X118101533Y-95148184D01*
X118046905Y-95229393D01*
X118026855Y-95250000D01*
X117997000Y-95214256D01*
X117955473Y-95125136D01*
X117942659Y-95091401D01*
X117884487Y-94985522D01*
X117782234Y-94848908D01*
X117655260Y-94706891D01*
X117627164Y-94678651D01*
X117491832Y-94553784D01*
X117357862Y-94452533D01*
X117201523Y-94359835D01*
X116999082Y-94260624D01*
X116893349Y-94212833D01*
X116695865Y-94123940D01*
X116565814Y-94061263D01*
X116492854Y-94017566D01*
X116466641Y-93985609D01*
X116476833Y-93958154D01*
X116500181Y-93937667D01*
X116609424Y-93803522D01*
X116679528Y-93608427D01*
X116708429Y-93367550D01*
X116694063Y-93096060D01*
X116647317Y-92856477D01*
X116608714Y-92724992D01*
X116571050Y-92622586D01*
X116540621Y-92561261D01*
X116523726Y-92553018D01*
X116526661Y-92609860D01*
X116531107Y-92634999D01*
X116534914Y-92725824D01*
X116526838Y-92870195D01*
X116508627Y-93038098D01*
X116506880Y-93050959D01*
X116478624Y-93223666D01*
X116445020Y-93337841D01*
X116395631Y-93419464D01*
X116333529Y-93482583D01*
X116201390Y-93568804D01*
X116054277Y-93594964D01*
X115877415Y-93560784D01*
X115663862Y-93469912D01*
X115426505Y-93317707D01*
X115179091Y-93098443D01*
X114934839Y-92826467D01*
X114706968Y-92516125D01*
X114554000Y-92265447D01*
X114328129Y-91903460D01*
X114093513Y-91615846D01*
X113840129Y-91392324D01*
X113557954Y-91222610D01*
X113519995Y-91204591D01*
X113353564Y-91123169D01*
X113246838Y-91056014D01*
X113180242Y-90987685D01*
X113134198Y-90902736D01*
X113132596Y-90898987D01*
X113072407Y-90705146D01*
X113045839Y-90503312D01*
X113054571Y-90322512D01*
X113092446Y-90204455D01*
X113156870Y-90090743D01*
X113409028Y-90207528D01*
X113409028Y-90432615D01*
X113306310Y-90448663D01*
X113304844Y-90449030D01*
X113229804Y-90473599D01*
X113229546Y-90498387D01*
X113259732Y-90517935D01*
X113352153Y-90529756D01*
X113393073Y-90505978D01*
X113438845Y-90452298D01*
X113409028Y-90432615D01*
X113409028Y-90207528D01*
X113506185Y-90252526D01*
X113618435Y-90304698D01*
X113797531Y-90388169D01*
X114033634Y-90498345D01*
X114316908Y-90630632D01*
X114637517Y-90780435D01*
X114985623Y-90943159D01*
X115351390Y-91114210D01*
X115586114Y-91224016D01*
X115923486Y-91381482D01*
X115923486Y-91778667D01*
X115934526Y-91808179D01*
X115986524Y-91883878D01*
X116035667Y-91948000D01*
X116121517Y-92044958D01*
X116192956Y-92105950D01*
X116219141Y-92116755D01*
X116315701Y-92103478D01*
X116406698Y-92073870D01*
X116456919Y-92040188D01*
X116459000Y-92033263D01*
X116423970Y-92005109D01*
X116335039Y-91955882D01*
X116216447Y-91897106D01*
X116092433Y-91840303D01*
X115987237Y-91796999D01*
X115925097Y-91778717D01*
X115923486Y-91778667D01*
X115923486Y-91381482D01*
X116003300Y-91418735D01*
X116350462Y-91579551D01*
X116633939Y-91709127D01*
X116860070Y-91810130D01*
X117035192Y-91885224D01*
X117165645Y-91937073D01*
X117257767Y-91968344D01*
X117317897Y-91981701D01*
X117352372Y-91979808D01*
X117364114Y-91971549D01*
X117585027Y-91683795D01*
X117800003Y-91407686D01*
X117903785Y-91276278D01*
X117903785Y-92712375D01*
X117760363Y-92723478D01*
X117642526Y-92746030D01*
X117620052Y-92753518D01*
X117545410Y-92790485D01*
X117526758Y-92818202D01*
X117577027Y-92820083D01*
X117662385Y-92795851D01*
X117774773Y-92766728D01*
X117897364Y-92754118D01*
X118002484Y-92758314D01*
X118062457Y-92779605D01*
X118067667Y-92791584D01*
X118037868Y-92839650D01*
X117962013Y-92918058D01*
X117908917Y-92965304D01*
X117827778Y-93038370D01*
X117814119Y-93063467D01*
X117856000Y-93047741D01*
X117984046Y-92974656D01*
X118099187Y-92891881D01*
X118182808Y-92814915D01*
X118216291Y-92759258D01*
X118214128Y-92749574D01*
X118158010Y-92725241D01*
X118045448Y-92712902D01*
X117903785Y-92712375D01*
X117903785Y-91276278D01*
X118002889Y-91150793D01*
X118187531Y-90920683D01*
X118347778Y-90724926D01*
X118477477Y-90571091D01*
X118570475Y-90466746D01*
X118620620Y-90419461D01*
X118627040Y-90417903D01*
X118649113Y-90468717D01*
X118684634Y-90583207D01*
X118728062Y-90742540D01*
X118759810Y-90869073D01*
X118862373Y-91291833D01*
X118715417Y-91382358D01*
X118626191Y-91444355D01*
X118608569Y-91485554D01*
X118666891Y-91517144D01*
X118778344Y-91544569D01*
X118917521Y-91574427D01*
X118893167Y-92300503D01*
G37*
X118893167Y-92300503D02*
X118596833Y-92400291D01*
X118755584Y-92457816D01*
X118853193Y-92498960D01*
X118899010Y-92548465D01*
X118911920Y-92636549D01*
X118911894Y-92707921D01*
X118903126Y-92873419D01*
X118884539Y-93038501D01*
X118879627Y-93068597D01*
X118854417Y-93174188D01*
X118810185Y-93230084D01*
X118720085Y-93261679D01*
X118662835Y-93273667D01*
X118475870Y-93310641D01*
X118631602Y-93399641D01*
X118716595Y-93453549D01*
X118763538Y-93508255D01*
X118774638Y-93582837D01*
X118752104Y-93696369D01*
X118698144Y-93867929D01*
X118688989Y-93895333D01*
X118596833Y-94170500D01*
X118411240Y-94183795D01*
X118225647Y-94197089D01*
X118488609Y-94468397D01*
X118271155Y-94859199D01*
X118179489Y-95019657D01*
X118101533Y-95148184D01*
X118046905Y-95229393D01*
X118026855Y-95250000D01*
X117997000Y-95214256D01*
X117955473Y-95125136D01*
X117942659Y-95091401D01*
X117884487Y-94985522D01*
X117782234Y-94848908D01*
X117655260Y-94706891D01*
X117627164Y-94678651D01*
X117491832Y-94553784D01*
X117357862Y-94452533D01*
X117201523Y-94359835D01*
X116999082Y-94260624D01*
X116893349Y-94212833D01*
X116695865Y-94123940D01*
X116565814Y-94061263D01*
X116492854Y-94017566D01*
X116466641Y-93985609D01*
X116476833Y-93958154D01*
X116500181Y-93937667D01*
X116609424Y-93803522D01*
X116679528Y-93608427D01*
X116708429Y-93367550D01*
X116694063Y-93096060D01*
X116647317Y-92856477D01*
X116608714Y-92724992D01*
X116571050Y-92622586D01*
X116540621Y-92561261D01*
X116523726Y-92553018D01*
X116526661Y-92609860D01*
X116531107Y-92634999D01*
X116534914Y-92725824D01*
X116526838Y-92870195D01*
X116508627Y-93038098D01*
X116506880Y-93050959D01*
X116478624Y-93223666D01*
X116445020Y-93337841D01*
X116395631Y-93419464D01*
X116333529Y-93482583D01*
X116201390Y-93568804D01*
X116054277Y-93594964D01*
X115877415Y-93560784D01*
X115663862Y-93469912D01*
X115426505Y-93317707D01*
X115179091Y-93098443D01*
X114934839Y-92826467D01*
X114706968Y-92516125D01*
X114554000Y-92265447D01*
X114328129Y-91903460D01*
X114093513Y-91615846D01*
X113840129Y-91392324D01*
X113557954Y-91222610D01*
X113519995Y-91204591D01*
X113353564Y-91123169D01*
X113246838Y-91056014D01*
X113180242Y-90987685D01*
X113134198Y-90902736D01*
X113132596Y-90898987D01*
X113072407Y-90705146D01*
X113045839Y-90503312D01*
X113054571Y-90322512D01*
X113092446Y-90204455D01*
X113156870Y-90090743D01*
X113409028Y-90207528D01*
X113409028Y-90432615D01*
X113306310Y-90448663D01*
X113304844Y-90449030D01*
X113229804Y-90473599D01*
X113229546Y-90498387D01*
X113259732Y-90517935D01*
X113352153Y-90529756D01*
X113393073Y-90505978D01*
X113438845Y-90452298D01*
X113409028Y-90432615D01*
X113409028Y-90207528D01*
X113506185Y-90252526D01*
X113618435Y-90304698D01*
X113797531Y-90388169D01*
X114033634Y-90498345D01*
X114316908Y-90630632D01*
X114637517Y-90780435D01*
X114985623Y-90943159D01*
X115351390Y-91114210D01*
X115586114Y-91224016D01*
X115923486Y-91381482D01*
X115923486Y-91778667D01*
X115934526Y-91808179D01*
X115986524Y-91883878D01*
X116035667Y-91948000D01*
X116121517Y-92044958D01*
X116192956Y-92105950D01*
X116219141Y-92116755D01*
X116315701Y-92103478D01*
X116406698Y-92073870D01*
X116456919Y-92040188D01*
X116459000Y-92033263D01*
X116423970Y-92005109D01*
X116335039Y-91955882D01*
X116216447Y-91897106D01*
X116092433Y-91840303D01*
X115987237Y-91796999D01*
X115925097Y-91778717D01*
X115923486Y-91778667D01*
X115923486Y-91381482D01*
X116003300Y-91418735D01*
X116350462Y-91579551D01*
X116633939Y-91709127D01*
X116860070Y-91810130D01*
X117035192Y-91885224D01*
X117165645Y-91937073D01*
X117257767Y-91968344D01*
X117317897Y-91981701D01*
X117352372Y-91979808D01*
X117364114Y-91971549D01*
X117585027Y-91683795D01*
X117800003Y-91407686D01*
X117903785Y-91276278D01*
X117903785Y-92712375D01*
X117760363Y-92723478D01*
X117642526Y-92746030D01*
X117620052Y-92753518D01*
X117545410Y-92790485D01*
X117526758Y-92818202D01*
X117577027Y-92820083D01*
X117662385Y-92795851D01*
X117774773Y-92766728D01*
X117897364Y-92754118D01*
X118002484Y-92758314D01*
X118062457Y-92779605D01*
X118067667Y-92791584D01*
X118037868Y-92839650D01*
X117962013Y-92918058D01*
X117908917Y-92965304D01*
X117827778Y-93038370D01*
X117814119Y-93063467D01*
X117856000Y-93047741D01*
X117984046Y-92974656D01*
X118099187Y-92891881D01*
X118182808Y-92814915D01*
X118216291Y-92759258D01*
X118214128Y-92749574D01*
X118158010Y-92725241D01*
X118045448Y-92712902D01*
X117903785Y-92712375D01*
X117903785Y-91276278D01*
X118002889Y-91150793D01*
X118187531Y-90920683D01*
X118347778Y-90724926D01*
X118477477Y-90571091D01*
X118570475Y-90466746D01*
X118620620Y-90419461D01*
X118627040Y-90417903D01*
X118649113Y-90468717D01*
X118684634Y-90583207D01*
X118728062Y-90742540D01*
X118759810Y-90869073D01*
X118862373Y-91291833D01*
X118715417Y-91382358D01*
X118626191Y-91444355D01*
X118608569Y-91485554D01*
X118666891Y-91517144D01*
X118778344Y-91544569D01*
X118917521Y-91574427D01*
X118893167Y-92300503D01*
G36*
X113871000Y-92209925D02*
G01*
X113855956Y-92330803D01*
X113834472Y-92391928D01*
X113831927Y-92393987D01*
X113735185Y-92409695D01*
X113628117Y-92366080D01*
X113541019Y-92278103D01*
X113521260Y-92240560D01*
X113480430Y-92158498D01*
X113446734Y-92146208D01*
X113412907Y-92178535D01*
X113341524Y-92238546D01*
X113297007Y-92219181D01*
X113284000Y-92139476D01*
X113323308Y-92027621D01*
X113389833Y-91965274D01*
X113466426Y-91889938D01*
X113495667Y-91815224D01*
X113460125Y-91738392D01*
X113389833Y-91686297D01*
X113311354Y-91624774D01*
X113284000Y-91560205D01*
X113290948Y-91495061D01*
X113299311Y-91482333D01*
X113342469Y-91498525D01*
X113442107Y-91541234D01*
X113577757Y-91601658D01*
X113595645Y-91609755D01*
X113645910Y-91632546D01*
X113645910Y-91802881D01*
X113629002Y-91846611D01*
X113628673Y-91952738D01*
X113631055Y-91998075D01*
X113648492Y-92133034D01*
X113678725Y-92217629D01*
X113696750Y-92233950D01*
X113732111Y-92211583D01*
X113750560Y-92133427D01*
X113752902Y-92026487D01*
X113739939Y-91917766D01*
X113712477Y-91834268D01*
X113683971Y-91804849D01*
X113645910Y-91802881D01*
X113645910Y-91632546D01*
X113876667Y-91737176D01*
X113876667Y-92051756D01*
X113871000Y-92209925D01*
G37*
X113871000Y-92209925D02*
X113855956Y-92330803D01*
X113834472Y-92391928D01*
X113831927Y-92393987D01*
X113735185Y-92409695D01*
X113628117Y-92366080D01*
X113541019Y-92278103D01*
X113521260Y-92240560D01*
X113480430Y-92158498D01*
X113446734Y-92146208D01*
X113412907Y-92178535D01*
X113341524Y-92238546D01*
X113297007Y-92219181D01*
X113284000Y-92139476D01*
X113323308Y-92027621D01*
X113389833Y-91965274D01*
X113466426Y-91889938D01*
X113495667Y-91815224D01*
X113460125Y-91738392D01*
X113389833Y-91686297D01*
X113311354Y-91624774D01*
X113284000Y-91560205D01*
X113290948Y-91495061D01*
X113299311Y-91482333D01*
X113342469Y-91498525D01*
X113442107Y-91541234D01*
X113577757Y-91601658D01*
X113595645Y-91609755D01*
X113645910Y-91632546D01*
X113645910Y-91802881D01*
X113629002Y-91846611D01*
X113628673Y-91952738D01*
X113631055Y-91998075D01*
X113648492Y-92133034D01*
X113678725Y-92217629D01*
X113696750Y-92233950D01*
X113732111Y-92211583D01*
X113750560Y-92133427D01*
X113752902Y-92026487D01*
X113739939Y-91917766D01*
X113712477Y-91834268D01*
X113683971Y-91804849D01*
X113645910Y-91802881D01*
X113645910Y-91632546D01*
X113876667Y-91737176D01*
X113876667Y-92051756D01*
X113871000Y-92209925D01*
G36*
X113844608Y-93151632D02*
G01*
X113742519Y-93193851D01*
X113634337Y-93219971D01*
X113493255Y-93250812D01*
X113382486Y-93277815D01*
X113338003Y-93291002D01*
X113294164Y-93275170D01*
X113284000Y-93221200D01*
X113310289Y-93137875D01*
X113347500Y-93106309D01*
X113389079Y-93058475D01*
X113408527Y-92947571D01*
X113411000Y-92858821D01*
X113396591Y-92686541D01*
X113354108Y-92589155D01*
X113347500Y-92583000D01*
X113295478Y-92499295D01*
X113285523Y-92440233D01*
X113290664Y-92384818D01*
X113314348Y-92387590D01*
X113373184Y-92452199D01*
X113380773Y-92461173D01*
X113456787Y-92550369D01*
X113538000Y-92644909D01*
X113538000Y-92822241D01*
X113538000Y-92935454D01*
X113552946Y-93019689D01*
X113613589Y-93047523D01*
X113643833Y-93048667D01*
X113723493Y-93043932D01*
X113749667Y-93034879D01*
X113722163Y-92999794D01*
X113654847Y-92932087D01*
X113643833Y-92921667D01*
X113538000Y-92822241D01*
X113538000Y-92644909D01*
X113564467Y-92675720D01*
X113675583Y-92804404D01*
X113774732Y-92927613D01*
X113846558Y-93033471D01*
X113876514Y-93100365D01*
X113876667Y-93103146D01*
X113844608Y-93151632D01*
G37*
X113844608Y-93151632D02*
X113742519Y-93193851D01*
X113634337Y-93219971D01*
X113493255Y-93250812D01*
X113382486Y-93277815D01*
X113338003Y-93291002D01*
X113294164Y-93275170D01*
X113284000Y-93221200D01*
X113310289Y-93137875D01*
X113347500Y-93106309D01*
X113389079Y-93058475D01*
X113408527Y-92947571D01*
X113411000Y-92858821D01*
X113396591Y-92686541D01*
X113354108Y-92589155D01*
X113347500Y-92583000D01*
X113295478Y-92499295D01*
X113285523Y-92440233D01*
X113290664Y-92384818D01*
X113314348Y-92387590D01*
X113373184Y-92452199D01*
X113380773Y-92461173D01*
X113456787Y-92550369D01*
X113538000Y-92644909D01*
X113538000Y-92822241D01*
X113538000Y-92935454D01*
X113552946Y-93019689D01*
X113613589Y-93047523D01*
X113643833Y-93048667D01*
X113723493Y-93043932D01*
X113749667Y-93034879D01*
X113722163Y-92999794D01*
X113654847Y-92932087D01*
X113643833Y-92921667D01*
X113538000Y-92822241D01*
X113538000Y-92644909D01*
X113564467Y-92675720D01*
X113675583Y-92804404D01*
X113774732Y-92927613D01*
X113846558Y-93033471D01*
X113876514Y-93100365D01*
X113876667Y-93103146D01*
X113844608Y-93151632D01*
G36*
X113868459Y-94129930D02*
G01*
X113857627Y-94271774D01*
X113838769Y-94348158D01*
X113804453Y-94378288D01*
X113770833Y-94382167D01*
X113695786Y-94348058D01*
X113672023Y-94282218D01*
X113675148Y-94212739D01*
X113703773Y-94210633D01*
X113733926Y-94192829D01*
X113748311Y-94092197D01*
X113749667Y-94025919D01*
X113744519Y-93895125D01*
X113720293Y-93819507D01*
X113663818Y-93769780D01*
X113624769Y-93748254D01*
X113525809Y-93703521D01*
X113457356Y-93683720D01*
X113455436Y-93683667D01*
X113424695Y-93719999D01*
X113412192Y-93809501D01*
X113416751Y-93922934D01*
X113437197Y-94031057D01*
X113472355Y-94104630D01*
X113472359Y-94104633D01*
X113515133Y-94185903D01*
X113492186Y-94235774D01*
X113421704Y-94234159D01*
X113377155Y-94209780D01*
X113328313Y-94165380D01*
X113300127Y-94102919D01*
X113287167Y-94000366D01*
X113284001Y-93835691D01*
X113284000Y-93831931D01*
X113288770Y-93677403D01*
X113301358Y-93558543D01*
X113319181Y-93498324D01*
X113321780Y-93495981D01*
X113377686Y-93499536D01*
X113484758Y-93532369D01*
X113595889Y-93577147D01*
X113731219Y-93644383D01*
X113815836Y-93714741D01*
X113859933Y-93808893D01*
X113873703Y-93947510D01*
X113868459Y-94129930D01*
G37*
X113868459Y-94129930D02*
X113857627Y-94271774D01*
X113838769Y-94348158D01*
X113804453Y-94378288D01*
X113770833Y-94382167D01*
X113695786Y-94348058D01*
X113672023Y-94282218D01*
X113675148Y-94212739D01*
X113703773Y-94210633D01*
X113733926Y-94192829D01*
X113748311Y-94092197D01*
X113749667Y-94025919D01*
X113744519Y-93895125D01*
X113720293Y-93819507D01*
X113663818Y-93769780D01*
X113624769Y-93748254D01*
X113525809Y-93703521D01*
X113457356Y-93683720D01*
X113455436Y-93683667D01*
X113424695Y-93719999D01*
X113412192Y-93809501D01*
X113416751Y-93922934D01*
X113437197Y-94031057D01*
X113472355Y-94104630D01*
X113472359Y-94104633D01*
X113515133Y-94185903D01*
X113492186Y-94235774D01*
X113421704Y-94234159D01*
X113377155Y-94209780D01*
X113328313Y-94165380D01*
X113300127Y-94102919D01*
X113287167Y-94000366D01*
X113284001Y-93835691D01*
X113284000Y-93831931D01*
X113288770Y-93677403D01*
X113301358Y-93558543D01*
X113319181Y-93498324D01*
X113321780Y-93495981D01*
X113377686Y-93499536D01*
X113484758Y-93532369D01*
X113595889Y-93577147D01*
X113731219Y-93644383D01*
X113815836Y-93714741D01*
X113859933Y-93808893D01*
X113873703Y-93947510D01*
X113868459Y-94129930D01*
G36*
X113869327Y-94830434D02*
G01*
X113835936Y-94838068D01*
X113759432Y-94813394D01*
X113633250Y-94758731D01*
X113496844Y-94697831D01*
X113387811Y-94649683D01*
X113336917Y-94627736D01*
X113301467Y-94583773D01*
X113282854Y-94513090D01*
X113288335Y-94456285D01*
X113304365Y-94445667D01*
X113349565Y-94463058D01*
X113449800Y-94508912D01*
X113584418Y-94573742D01*
X113600699Y-94581753D01*
X113772098Y-94677246D01*
X113861762Y-94754528D01*
X113876667Y-94792885D01*
X113869327Y-94830434D01*
G37*
X113869327Y-94830434D02*
X113835936Y-94838068D01*
X113759432Y-94813394D01*
X113633250Y-94758731D01*
X113496844Y-94697831D01*
X113387811Y-94649683D01*
X113336917Y-94627736D01*
X113301467Y-94583773D01*
X113282854Y-94513090D01*
X113288335Y-94456285D01*
X113304365Y-94445667D01*
X113349565Y-94463058D01*
X113449800Y-94508912D01*
X113584418Y-94573742D01*
X113600699Y-94581753D01*
X113772098Y-94677246D01*
X113861762Y-94754528D01*
X113876667Y-94792885D01*
X113869327Y-94830434D01*
G36*
X113839627Y-95927192D02*
G01*
X113833126Y-95927333D01*
X113757825Y-95907447D01*
X113645044Y-95856668D01*
X113518037Y-95788315D01*
X113400055Y-95715705D01*
X113314353Y-95652156D01*
X113284000Y-95612822D01*
X113313843Y-95555107D01*
X113391329Y-95465404D01*
X113478743Y-95382109D01*
X113673487Y-95210689D01*
X113478743Y-95116076D01*
X113367090Y-95049391D01*
X113296980Y-94983889D01*
X113278567Y-94933321D01*
X113322006Y-94911436D01*
X113327541Y-94911333D01*
X113389167Y-94929343D01*
X113494049Y-94975241D01*
X113618681Y-95036835D01*
X113739562Y-95101928D01*
X113833185Y-95158327D01*
X113876048Y-95193837D01*
X113876667Y-95196238D01*
X113849098Y-95239329D01*
X113776953Y-95323265D01*
X113679719Y-95425880D01*
X113482770Y-95625835D01*
X113679719Y-95721520D01*
X113792245Y-95788521D01*
X113863156Y-95854191D01*
X113882326Y-95904944D01*
X113839627Y-95927192D01*
G37*
X113839627Y-95927192D02*
X113833126Y-95927333D01*
X113757825Y-95907447D01*
X113645044Y-95856668D01*
X113518037Y-95788315D01*
X113400055Y-95715705D01*
X113314353Y-95652156D01*
X113284000Y-95612822D01*
X113313843Y-95555107D01*
X113391329Y-95465404D01*
X113478743Y-95382109D01*
X113673487Y-95210689D01*
X113478743Y-95116076D01*
X113367090Y-95049391D01*
X113296980Y-94983889D01*
X113278567Y-94933321D01*
X113322006Y-94911436D01*
X113327541Y-94911333D01*
X113389167Y-94929343D01*
X113494049Y-94975241D01*
X113618681Y-95036835D01*
X113739562Y-95101928D01*
X113833185Y-95158327D01*
X113876048Y-95193837D01*
X113876667Y-95196238D01*
X113849098Y-95239329D01*
X113776953Y-95323265D01*
X113679719Y-95425880D01*
X113482770Y-95625835D01*
X113679719Y-95721520D01*
X113792245Y-95788521D01*
X113863156Y-95854191D01*
X113882326Y-95904944D01*
X113839627Y-95927192D01*
G36*
X113867925Y-96657792D02*
G01*
X113857370Y-96823130D01*
X113839463Y-96920589D01*
X113809869Y-96966903D01*
X113785258Y-96976999D01*
X113750937Y-96974753D01*
X113732457Y-96941083D01*
X113727556Y-96860187D01*
X113733976Y-96716264D01*
X113738390Y-96649364D01*
X113746683Y-96491712D01*
X113748158Y-96372677D01*
X113742739Y-96312125D01*
X113739719Y-96308333D01*
X113690075Y-96293473D01*
X113594157Y-96256553D01*
X113564337Y-96244265D01*
X113411000Y-96180197D01*
X113411000Y-96434765D01*
X113415858Y-96582438D01*
X113433081Y-96661804D01*
X113466647Y-96688804D01*
X113474500Y-96689333D01*
X113525572Y-96652533D01*
X113538000Y-96583500D01*
X113552491Y-96503942D01*
X113580333Y-96477667D01*
X113604482Y-96515740D01*
X113619810Y-96613088D01*
X113622667Y-96689333D01*
X113616954Y-96810062D01*
X113602349Y-96886627D01*
X113590917Y-96900842D01*
X113537133Y-96880517D01*
X113444428Y-96830469D01*
X113421583Y-96816797D01*
X113284000Y-96732911D01*
X113284000Y-96372455D01*
X113287263Y-96188524D01*
X113298451Y-96076048D01*
X113319661Y-96022017D01*
X113342119Y-96012000D01*
X113441221Y-96033490D01*
X113571110Y-96087390D01*
X113701273Y-96157849D01*
X113801197Y-96229014D01*
X113835612Y-96268390D01*
X113856273Y-96351205D01*
X113867924Y-96489067D01*
X113868128Y-96652613D01*
X113867925Y-96657792D01*
G37*
X113867925Y-96657792D02*
X113857370Y-96823130D01*
X113839463Y-96920589D01*
X113809869Y-96966903D01*
X113785258Y-96976999D01*
X113750937Y-96974753D01*
X113732457Y-96941083D01*
X113727556Y-96860187D01*
X113733976Y-96716264D01*
X113738390Y-96649364D01*
X113746683Y-96491712D01*
X113748158Y-96372677D01*
X113742739Y-96312125D01*
X113739719Y-96308333D01*
X113690075Y-96293473D01*
X113594157Y-96256553D01*
X113564337Y-96244265D01*
X113411000Y-96180197D01*
X113411000Y-96434765D01*
X113415858Y-96582438D01*
X113433081Y-96661804D01*
X113466647Y-96688804D01*
X113474500Y-96689333D01*
X113525572Y-96652533D01*
X113538000Y-96583500D01*
X113552491Y-96503942D01*
X113580333Y-96477667D01*
X113604482Y-96515740D01*
X113619810Y-96613088D01*
X113622667Y-96689333D01*
X113616954Y-96810062D01*
X113602349Y-96886627D01*
X113590917Y-96900842D01*
X113537133Y-96880517D01*
X113444428Y-96830469D01*
X113421583Y-96816797D01*
X113284000Y-96732911D01*
X113284000Y-96372455D01*
X113287263Y-96188524D01*
X113298451Y-96076048D01*
X113319661Y-96022017D01*
X113342119Y-96012000D01*
X113441221Y-96033490D01*
X113571110Y-96087390D01*
X113701273Y-96157849D01*
X113801197Y-96229014D01*
X113835612Y-96268390D01*
X113856273Y-96351205D01*
X113867924Y-96489067D01*
X113868128Y-96652613D01*
X113867925Y-96657792D01*
G36*
X117856399Y-95995661D02*
G01*
X117796976Y-96203949D01*
X117694086Y-96344000D01*
X117545468Y-96419282D01*
X117405994Y-96435333D01*
X117350137Y-96418059D01*
X117227869Y-96369329D01*
X117049366Y-96293785D01*
X116824804Y-96196064D01*
X116564358Y-96080809D01*
X116278205Y-95952658D01*
X115976521Y-95816251D01*
X115669482Y-95676229D01*
X115367263Y-95537231D01*
X115080040Y-95403898D01*
X114817990Y-95280868D01*
X114591289Y-95172783D01*
X114410112Y-95084282D01*
X114284635Y-95020005D01*
X114225917Y-94985310D01*
X114202091Y-94929673D01*
X114184560Y-94821832D01*
X114174174Y-94686820D01*
X114171782Y-94549670D01*
X114178233Y-94435418D01*
X114194378Y-94369097D01*
X114204750Y-94361550D01*
X114248843Y-94379025D01*
X114361214Y-94428650D01*
X114533501Y-94506592D01*
X114757340Y-94609018D01*
X115024369Y-94732099D01*
X115326226Y-94872001D01*
X115654546Y-95024893D01*
X115760500Y-95074379D01*
X117284500Y-95786659D01*
X117297565Y-95574081D01*
X117293914Y-95407303D01*
X117254078Y-95289429D01*
X117232514Y-95256878D01*
X117170803Y-95207547D01*
X117036364Y-95128019D01*
X116828174Y-95017773D01*
X116545206Y-94876286D01*
X116186436Y-94703034D01*
X115750838Y-94497494D01*
X115674283Y-94461734D01*
X114194167Y-93771216D01*
X114181728Y-93448128D01*
X114180297Y-93292177D01*
X114188428Y-93183657D01*
X114204661Y-93139623D01*
X114208105Y-93139770D01*
X114253680Y-93160363D01*
X114367652Y-93213030D01*
X114541752Y-93293919D01*
X114767712Y-93399175D01*
X115037262Y-93524945D01*
X115342134Y-93667376D01*
X115674059Y-93822615D01*
X115822898Y-93892278D01*
X116300426Y-94117688D01*
X116700514Y-94310563D01*
X117023047Y-94470845D01*
X117267906Y-94598473D01*
X117434974Y-94693387D01*
X117524132Y-94755528D01*
X117528674Y-94759853D01*
X117708975Y-94998345D01*
X117823391Y-95288012D01*
X117872499Y-95630451D01*
X117874612Y-95715667D01*
X117856399Y-95995661D01*
G37*
X117856399Y-95995661D02*
X117796976Y-96203949D01*
X117694086Y-96344000D01*
X117545468Y-96419282D01*
X117405994Y-96435333D01*
X117350137Y-96418059D01*
X117227869Y-96369329D01*
X117049366Y-96293785D01*
X116824804Y-96196064D01*
X116564358Y-96080809D01*
X116278205Y-95952658D01*
X115976521Y-95816251D01*
X115669482Y-95676229D01*
X115367263Y-95537231D01*
X115080040Y-95403898D01*
X114817990Y-95280868D01*
X114591289Y-95172783D01*
X114410112Y-95084282D01*
X114284635Y-95020005D01*
X114225917Y-94985310D01*
X114202091Y-94929673D01*
X114184560Y-94821832D01*
X114174174Y-94686820D01*
X114171782Y-94549670D01*
X114178233Y-94435418D01*
X114194378Y-94369097D01*
X114204750Y-94361550D01*
X114248843Y-94379025D01*
X114361214Y-94428650D01*
X114533501Y-94506592D01*
X114757340Y-94609018D01*
X115024369Y-94732099D01*
X115326226Y-94872001D01*
X115654546Y-95024893D01*
X115760500Y-95074379D01*
X117284500Y-95786659D01*
X117297565Y-95574081D01*
X117293914Y-95407303D01*
X117254078Y-95289429D01*
X117232514Y-95256878D01*
X117170803Y-95207547D01*
X117036364Y-95128019D01*
X116828174Y-95017773D01*
X116545206Y-94876286D01*
X116186436Y-94703034D01*
X115750838Y-94497494D01*
X115674283Y-94461734D01*
X114194167Y-93771216D01*
X114181728Y-93448128D01*
X114180297Y-93292177D01*
X114188428Y-93183657D01*
X114204661Y-93139623D01*
X114208105Y-93139770D01*
X114253680Y-93160363D01*
X114367652Y-93213030D01*
X114541752Y-93293919D01*
X114767712Y-93399175D01*
X115037262Y-93524945D01*
X115342134Y-93667376D01*
X115674059Y-93822615D01*
X115822898Y-93892278D01*
X116300426Y-94117688D01*
X116700514Y-94310563D01*
X117023047Y-94470845D01*
X117267906Y-94598473D01*
X117434974Y-94693387D01*
X117524132Y-94755528D01*
X117528674Y-94759853D01*
X117708975Y-94998345D01*
X117823391Y-95288012D01*
X117872499Y-95630451D01*
X117874612Y-95715667D01*
X117856399Y-95995661D01*
G36*
X117894198Y-98816309D02*
G01*
X117878733Y-98882965D01*
X117868678Y-98890667D01*
X117825102Y-98873363D01*
X117713061Y-98823961D01*
X117540785Y-98746221D01*
X117316508Y-98643906D01*
X117048460Y-98520776D01*
X116744873Y-98380593D01*
X116413979Y-98227118D01*
X116270594Y-98160417D01*
X115843556Y-97960842D01*
X115486746Y-97791631D01*
X115193231Y-97648296D01*
X114956076Y-97526352D01*
X114768348Y-97421313D01*
X114623112Y-97328693D01*
X114513436Y-97244006D01*
X114432386Y-97162764D01*
X114373027Y-97080484D01*
X114328425Y-96992678D01*
X114291648Y-96894860D01*
X114285379Y-96876012D01*
X114226702Y-96638530D01*
X114195854Y-96385648D01*
X114196085Y-96153421D01*
X114210673Y-96047394D01*
X114284525Y-95834654D01*
X114399480Y-95688769D01*
X114549293Y-95614467D01*
X114727720Y-95616479D01*
X114766348Y-95626472D01*
X114837441Y-95654066D01*
X114975723Y-95713545D01*
X115171812Y-95800664D01*
X115416325Y-95911180D01*
X115699880Y-96040847D01*
X116013096Y-96185421D01*
X116346589Y-96340658D01*
X116396181Y-96363851D01*
X117877167Y-97056903D01*
X117889605Y-97359952D01*
X117891460Y-97534630D01*
X117878740Y-97633163D01*
X117851745Y-97663000D01*
X117803396Y-97645628D01*
X117687008Y-97596096D01*
X117511161Y-97518278D01*
X117284431Y-97416048D01*
X117015398Y-97293279D01*
X116712638Y-97153847D01*
X116384730Y-97001624D01*
X116305133Y-96964500D01*
X115973848Y-96810101D01*
X115666922Y-96667536D01*
X115392729Y-96540658D01*
X115159644Y-96433320D01*
X114976041Y-96349376D01*
X114850294Y-96292681D01*
X114790778Y-96267087D01*
X114787242Y-96266000D01*
X114774914Y-96304093D01*
X114767105Y-96401454D01*
X114765667Y-96476999D01*
X114776028Y-96624799D01*
X114816344Y-96729213D01*
X114882083Y-96810978D01*
X114961934Y-96869960D01*
X115120099Y-96960952D01*
X115356521Y-97083923D01*
X115671142Y-97238845D01*
X116063907Y-97425690D01*
X116395500Y-97580175D01*
X116717419Y-97729527D01*
X117016058Y-97868926D01*
X117282436Y-97994113D01*
X117507572Y-98100833D01*
X117682486Y-98184830D01*
X117798197Y-98241847D01*
X117845417Y-98267379D01*
X117868865Y-98322239D01*
X117886404Y-98429666D01*
X117897097Y-98564556D01*
X117900007Y-98701805D01*
X117894198Y-98816309D01*
G37*
X117894198Y-98816309D02*
X117878733Y-98882965D01*
X117868678Y-98890667D01*
X117825102Y-98873363D01*
X117713061Y-98823961D01*
X117540785Y-98746221D01*
X117316508Y-98643906D01*
X117048460Y-98520776D01*
X116744873Y-98380593D01*
X116413979Y-98227118D01*
X116270594Y-98160417D01*
X115843556Y-97960842D01*
X115486746Y-97791631D01*
X115193231Y-97648296D01*
X114956076Y-97526352D01*
X114768348Y-97421313D01*
X114623112Y-97328693D01*
X114513436Y-97244006D01*
X114432386Y-97162764D01*
X114373027Y-97080484D01*
X114328425Y-96992678D01*
X114291648Y-96894860D01*
X114285379Y-96876012D01*
X114226702Y-96638530D01*
X114195854Y-96385648D01*
X114196085Y-96153421D01*
X114210673Y-96047394D01*
X114284525Y-95834654D01*
X114399480Y-95688769D01*
X114549293Y-95614467D01*
X114727720Y-95616479D01*
X114766348Y-95626472D01*
X114837441Y-95654066D01*
X114975723Y-95713545D01*
X115171812Y-95800664D01*
X115416325Y-95911180D01*
X115699880Y-96040847D01*
X116013096Y-96185421D01*
X116346589Y-96340658D01*
X116396181Y-96363851D01*
X117877167Y-97056903D01*
X117889605Y-97359952D01*
X117891460Y-97534630D01*
X117878740Y-97633163D01*
X117851745Y-97663000D01*
X117803396Y-97645628D01*
X117687008Y-97596096D01*
X117511161Y-97518278D01*
X117284431Y-97416048D01*
X117015398Y-97293279D01*
X116712638Y-97153847D01*
X116384730Y-97001624D01*
X116305133Y-96964500D01*
X115973848Y-96810101D01*
X115666922Y-96667536D01*
X115392729Y-96540658D01*
X115159644Y-96433320D01*
X114976041Y-96349376D01*
X114850294Y-96292681D01*
X114790778Y-96267087D01*
X114787242Y-96266000D01*
X114774914Y-96304093D01*
X114767105Y-96401454D01*
X114765667Y-96476999D01*
X114776028Y-96624799D01*
X114816344Y-96729213D01*
X114882083Y-96810978D01*
X114961934Y-96869960D01*
X115120099Y-96960952D01*
X115356521Y-97083923D01*
X115671142Y-97238845D01*
X116063907Y-97425690D01*
X116395500Y-97580175D01*
X116717419Y-97729527D01*
X117016058Y-97868926D01*
X117282436Y-97994113D01*
X117507572Y-98100833D01*
X117682486Y-98184830D01*
X117798197Y-98241847D01*
X117845417Y-98267379D01*
X117868865Y-98322239D01*
X117886404Y-98429666D01*
X117897097Y-98564556D01*
X117900007Y-98701805D01*
X117894198Y-98816309D01*
D12*
X122680000Y-89111000D02*
X122680000Y-79981000D01*
X122680000Y-79981000D02*
X123680000Y-78981000D01*
X123680000Y-78981000D02*
X141050000Y-78981000D01*
X141050000Y-78981000D02*
X142050000Y-79981000D01*
X142050000Y-79981000D02*
X142050000Y-89111000D01*
X142050000Y-89111000D02*
X122680000Y-89111000D01*
X127642000Y-121973000D02*
X123282000Y-121973000D01*
X123282000Y-121973000D02*
X123282000Y-118473000D01*
X142962000Y-121973000D02*
X147322000Y-121973000D01*
X147322000Y-121973000D02*
X147322000Y-118473000D01*
X123282000Y-114473000D02*
X123282000Y-112553000D01*
X123282000Y-112553000D02*
X135302000Y-112553000D01*
X147322000Y-114473000D02*
X147322000Y-112553000D01*
X147322000Y-112553000D02*
X135302000Y-112553000D01*
X132962000Y-121973000D02*
X137642000Y-121973000D01*
X129392000Y-112553000D02*
X129392000Y-110953000D01*
X129392000Y-110953000D02*
X131212000Y-110953000D01*
X131212000Y-110953000D02*
X131212000Y-112553000D01*
X139392000Y-112553000D02*
X139392000Y-110953000D01*
X139392000Y-110953000D02*
X141212000Y-110953000D01*
X141212000Y-110953000D02*
X141212000Y-112553000D01*
X133392000Y-123773000D02*
X133392000Y-125273000D01*
X133392000Y-125273000D02*
X137212000Y-125273000D01*
X137212000Y-125273000D02*
X137212000Y-123773000D01*
X130302000Y-123033000D02*
X129902000Y-123833000D01*
X129902000Y-123833000D02*
X130702000Y-123833000D01*
X130702000Y-123833000D02*
X130302000Y-123033000D01*
X147376000Y-88521000D02*
X147376000Y-89981000D01*
X144216000Y-88521000D02*
X144216000Y-90681000D01*
X144216000Y-88521000D02*
X145146000Y-88521000D01*
X147376000Y-88521000D02*
X146446000Y-88521000D01*
X146156000Y-92810436D02*
X146156000Y-94264564D01*
X147976000Y-92810436D02*
X147976000Y-94264564D01*
X145436000Y-92810436D02*
X145436000Y-94264564D01*
X143616000Y-92810436D02*
X143616000Y-94264564D01*
D10*
X132031666Y-82891380D02*
X132031666Y-83605666D01*
X131984047Y-83748523D01*
X131888809Y-83843761D01*
X131745952Y-83891380D01*
X131650714Y-83891380D01*
X132460238Y-82986619D02*
X132507857Y-82939000D01*
X132603095Y-82891380D01*
X132841190Y-82891380D01*
X132936428Y-82939000D01*
X132984047Y-82986619D01*
X133031666Y-83081857D01*
X133031666Y-83177095D01*
X132984047Y-83319952D01*
X132412619Y-83891380D01*
X133031666Y-83891380D01*
X134961380Y-118189333D02*
X135675666Y-118189333D01*
X135818523Y-118236952D01*
X135913761Y-118332190D01*
X135961380Y-118475047D01*
X135961380Y-118570285D01*
X135961380Y-117189333D02*
X135961380Y-117760761D01*
X135961380Y-117475047D02*
X134961380Y-117475047D01*
X135104238Y-117570285D01*
X135199476Y-117665523D01*
X135247095Y-117760761D01*
X143748380Y-90019095D02*
X142748380Y-90019095D01*
X142748380Y-89781000D01*
X142796000Y-89638142D01*
X142891238Y-89542904D01*
X142986476Y-89495285D01*
X143176952Y-89447666D01*
X143319809Y-89447666D01*
X143510285Y-89495285D01*
X143605523Y-89542904D01*
X143700761Y-89638142D01*
X143748380Y-89781000D01*
X143748380Y-90019095D01*
X143748380Y-88495285D02*
X143748380Y-89066714D01*
X143748380Y-88781000D02*
X142748380Y-88781000D01*
X142891238Y-88876238D01*
X142986476Y-88971476D01*
X143034095Y-89066714D01*
X147518380Y-93704166D02*
X147042190Y-94037500D01*
X147518380Y-94275595D02*
X146518380Y-94275595D01*
X146518380Y-93894642D01*
X146566000Y-93799404D01*
X146613619Y-93751785D01*
X146708857Y-93704166D01*
X146851714Y-93704166D01*
X146946952Y-93751785D01*
X146994571Y-93799404D01*
X147042190Y-93894642D01*
X147042190Y-94275595D01*
X147518380Y-92751785D02*
X147518380Y-93323214D01*
X147518380Y-93037500D02*
X146518380Y-93037500D01*
X146661238Y-93132738D01*
X146756476Y-93227976D01*
X146804095Y-93323214D01*
X144978380Y-93704166D02*
X144502190Y-94037500D01*
X144978380Y-94275595D02*
X143978380Y-94275595D01*
X143978380Y-93894642D01*
X144026000Y-93799404D01*
X144073619Y-93751785D01*
X144168857Y-93704166D01*
X144311714Y-93704166D01*
X144406952Y-93751785D01*
X144454571Y-93799404D01*
X144502190Y-93894642D01*
X144502190Y-94275595D01*
X144073619Y-93323214D02*
X144026000Y-93275595D01*
X143978380Y-93180357D01*
X143978380Y-92942261D01*
X144026000Y-92847023D01*
X144073619Y-92799404D01*
X144168857Y-92751785D01*
X144264095Y-92751785D01*
X144406952Y-92799404D01*
X144978380Y-93370833D01*
X144978380Y-92751785D01*
M02*
