G04 #@! TF.GenerationSoftware,KiCad,Pcbnew,(5.1.6)-1*
G04 #@! TF.CreationDate,2021-06-25T13:56:25+10:00*
G04 #@! TF.ProjectId,Fan Controller,46616e20-436f-46e7-9472-6f6c6c65722e,rev?*
G04 #@! TF.SameCoordinates,Original*
G04 #@! TF.FileFunction,Copper,L1,Top*
G04 #@! TF.FilePolarity,Positive*
%FSLAX46Y46*%
G04 Gerber Fmt 4.6, Leading zero omitted, Abs format (unit mm)*
G04 Created by KiCad (PCBNEW (5.1.6)-1) date 2021-06-25 13:56:25*
%MOMM*%
%LPD*%
G01*
G04 APERTURE LIST*
G04 #@! TA.AperFunction,ComponentPad*
%ADD10C,1.500000*%
G04 #@! TD*
G04 #@! TA.AperFunction,ComponentPad*
%ADD11C,4.000000*%
G04 #@! TD*
G04 #@! TA.AperFunction,ComponentPad*
%ADD12R,4.800000X4.500000*%
G04 #@! TD*
G04 #@! TA.AperFunction,SMDPad,CuDef*
%ADD13R,0.800000X0.900000*%
G04 #@! TD*
G04 #@! TA.AperFunction,ViaPad*
%ADD14C,0.800000*%
G04 #@! TD*
G04 #@! TA.AperFunction,Conductor*
%ADD15C,0.250000*%
G04 #@! TD*
G04 #@! TA.AperFunction,Conductor*
%ADD16C,3.000000*%
G04 #@! TD*
G04 #@! TA.AperFunction,Conductor*
%ADD17C,4.250000*%
G04 #@! TD*
G04 #@! TA.AperFunction,Conductor*
%ADD18C,2.000000*%
G04 #@! TD*
G04 #@! TA.AperFunction,Conductor*
%ADD19C,0.254000*%
G04 #@! TD*
G04 APERTURE END LIST*
D10*
X138365000Y-91011000D03*
X135365000Y-91011000D03*
X132365000Y-91011000D03*
X129365000Y-91011000D03*
X126365000Y-91011000D03*
X138365000Y-88011000D03*
X135365000Y-88011000D03*
X132365000Y-88011000D03*
X129365000Y-88011000D03*
G04 #@! TA.AperFunction,ComponentPad*
G36*
G01*
X125615000Y-88511000D02*
X125615000Y-87511000D01*
G75*
G02*
X125865000Y-87261000I250000J0D01*
G01*
X126865000Y-87261000D01*
G75*
G02*
X127115000Y-87511000I0J-250000D01*
G01*
X127115000Y-88511000D01*
G75*
G02*
X126865000Y-88761000I-250000J0D01*
G01*
X125865000Y-88761000D01*
G75*
G02*
X125615000Y-88511000I0J250000D01*
G01*
G37*
G04 #@! TD.AperFunction*
D11*
X146032000Y-116473000D03*
X124572000Y-116473000D03*
D12*
X140302000Y-116123000D03*
X130302000Y-116123000D03*
X140302000Y-120523000D03*
X130302000Y-120523000D03*
D13*
X144846000Y-90281000D03*
X146746000Y-90281000D03*
X145796000Y-88281000D03*
G04 #@! TA.AperFunction,SMDPad,CuDef*
G36*
G01*
X146440999Y-91512500D02*
X147691001Y-91512500D01*
G75*
G02*
X147941000Y-91762499I0J-249999D01*
G01*
X147941000Y-92387501D01*
G75*
G02*
X147691001Y-92637500I-249999J0D01*
G01*
X146440999Y-92637500D01*
G75*
G02*
X146191000Y-92387501I0J249999D01*
G01*
X146191000Y-91762499D01*
G75*
G02*
X146440999Y-91512500I249999J0D01*
G01*
G37*
G04 #@! TD.AperFunction*
G04 #@! TA.AperFunction,SMDPad,CuDef*
G36*
G01*
X146440999Y-94437500D02*
X147691001Y-94437500D01*
G75*
G02*
X147941000Y-94687499I0J-249999D01*
G01*
X147941000Y-95312501D01*
G75*
G02*
X147691001Y-95562500I-249999J0D01*
G01*
X146440999Y-95562500D01*
G75*
G02*
X146191000Y-95312501I0J249999D01*
G01*
X146191000Y-94687499D01*
G75*
G02*
X146440999Y-94437500I249999J0D01*
G01*
G37*
G04 #@! TD.AperFunction*
G04 #@! TA.AperFunction,SMDPad,CuDef*
G36*
G01*
X143900999Y-94437500D02*
X145151001Y-94437500D01*
G75*
G02*
X145401000Y-94687499I0J-249999D01*
G01*
X145401000Y-95312501D01*
G75*
G02*
X145151001Y-95562500I-249999J0D01*
G01*
X143900999Y-95562500D01*
G75*
G02*
X143651000Y-95312501I0J249999D01*
G01*
X143651000Y-94687499D01*
G75*
G02*
X143900999Y-94437500I249999J0D01*
G01*
G37*
G04 #@! TD.AperFunction*
G04 #@! TA.AperFunction,SMDPad,CuDef*
G36*
G01*
X143900999Y-91512500D02*
X145151001Y-91512500D01*
G75*
G02*
X145401000Y-91762499I0J-249999D01*
G01*
X145401000Y-92387501D01*
G75*
G02*
X145151001Y-92637500I-249999J0D01*
G01*
X143900999Y-92637500D01*
G75*
G02*
X143651000Y-92387501I0J249999D01*
G01*
X143651000Y-91762499D01*
G75*
G02*
X143900999Y-91512500I249999J0D01*
G01*
G37*
G04 #@! TD.AperFunction*
D14*
X146812000Y-90297000D03*
D15*
X147066000Y-92075000D02*
X144526000Y-92075000D01*
X144526000Y-90601000D02*
X144846000Y-90281000D01*
X144526000Y-92075000D02*
X144526000Y-90601000D01*
D16*
X132365000Y-91011000D02*
X132365000Y-88310999D01*
D17*
X140302000Y-120523000D02*
X140302000Y-116123000D01*
X131620000Y-107441000D02*
X131620000Y-91011000D01*
X140302000Y-116123000D02*
X131620000Y-107441000D01*
D16*
X129365000Y-91011000D02*
X131620000Y-91011000D01*
X131620000Y-91011000D02*
X132365000Y-91011000D01*
D18*
X126365000Y-91011000D02*
X126365000Y-88011000D01*
X126365000Y-88011000D02*
X129413000Y-88011000D01*
X125778000Y-91011000D02*
X125603000Y-91186000D01*
X126365000Y-91011000D02*
X125778000Y-91011000D01*
X124968000Y-89614000D02*
X124968000Y-89281000D01*
X126365000Y-91011000D02*
X124968000Y-89614000D01*
X124968000Y-87122000D02*
X125349000Y-86741000D01*
X124968000Y-89614000D02*
X124968000Y-87122000D01*
X127254000Y-86614000D02*
X129667000Y-86614000D01*
X124968000Y-87122000D02*
X126746000Y-87122000D01*
X126746000Y-87122000D02*
X127254000Y-86614000D01*
X128546610Y-88011000D02*
X129365000Y-88011000D01*
X126365000Y-90192610D02*
X128546610Y-88011000D01*
X126365000Y-91011000D02*
X126365000Y-90192610D01*
X126365000Y-91011000D02*
X126365000Y-92456000D01*
D15*
X142354000Y-95000000D02*
X138365000Y-91011000D01*
X144526000Y-95000000D02*
X142354000Y-95000000D01*
X138365000Y-91011000D02*
X135365000Y-91011000D01*
X138365000Y-91011000D02*
X138365000Y-88011000D01*
X138365000Y-91011000D02*
X135365000Y-88011000D01*
D19*
G36*
X155932222Y-78828096D02*
G01*
X156520164Y-79005606D01*
X157062436Y-79293937D01*
X157538364Y-79682094D01*
X157929845Y-80155314D01*
X158221951Y-80695552D01*
X158403563Y-81282244D01*
X158471001Y-81923888D01*
X158471000Y-121887721D01*
X158407904Y-122531221D01*
X158230394Y-123119164D01*
X157942063Y-123661436D01*
X157553906Y-124137364D01*
X157080686Y-124528845D01*
X156540449Y-124820950D01*
X155953756Y-125002563D01*
X155312414Y-125069970D01*
X115349330Y-124943103D01*
X114704779Y-124879904D01*
X114116836Y-124702394D01*
X113574564Y-124414063D01*
X113098636Y-124025906D01*
X112707155Y-123552686D01*
X112415050Y-123012449D01*
X112233437Y-122425756D01*
X112166000Y-121784130D01*
X112166000Y-121567872D01*
X113081000Y-121567872D01*
X113081000Y-122008128D01*
X113166890Y-122439925D01*
X113335369Y-122846669D01*
X113579962Y-123212729D01*
X113891271Y-123524038D01*
X114257331Y-123768631D01*
X114664075Y-123937110D01*
X115095872Y-124023000D01*
X115536128Y-124023000D01*
X115967925Y-123937110D01*
X116374669Y-123768631D01*
X116740729Y-123524038D01*
X117052038Y-123212729D01*
X117296631Y-122846669D01*
X117327145Y-122773000D01*
X127263928Y-122773000D01*
X127276188Y-122897482D01*
X127312498Y-123017180D01*
X127371463Y-123127494D01*
X127450815Y-123224185D01*
X127547506Y-123303537D01*
X127657820Y-123362502D01*
X127777518Y-123398812D01*
X127902000Y-123411072D01*
X130016250Y-123408000D01*
X130175000Y-123249250D01*
X130175000Y-120650000D01*
X130429000Y-120650000D01*
X130429000Y-123249250D01*
X130587750Y-123408000D01*
X132702000Y-123411072D01*
X132826482Y-123398812D01*
X132946180Y-123362502D01*
X133056494Y-123303537D01*
X133153185Y-123224185D01*
X133232537Y-123127494D01*
X133291502Y-123017180D01*
X133327812Y-122897482D01*
X133340072Y-122773000D01*
X133337000Y-120808750D01*
X133178250Y-120650000D01*
X130429000Y-120650000D01*
X130175000Y-120650000D01*
X127425750Y-120650000D01*
X127267000Y-120808750D01*
X127263928Y-122773000D01*
X117327145Y-122773000D01*
X117465110Y-122439925D01*
X117551000Y-122008128D01*
X117551000Y-121567872D01*
X117465110Y-121136075D01*
X117296631Y-120729331D01*
X117052038Y-120363271D01*
X116740729Y-120051962D01*
X116374669Y-119807369D01*
X115967925Y-119638890D01*
X115536128Y-119553000D01*
X115095872Y-119553000D01*
X114664075Y-119638890D01*
X114257331Y-119807369D01*
X113891271Y-120051962D01*
X113579962Y-120363271D01*
X113335369Y-120729331D01*
X113166890Y-121136075D01*
X113081000Y-121567872D01*
X112166000Y-121567872D01*
X112166000Y-116213475D01*
X121937000Y-116213475D01*
X121937000Y-116732525D01*
X122038261Y-117241601D01*
X122236893Y-117721141D01*
X122525262Y-118152715D01*
X122892285Y-118519738D01*
X123323859Y-118808107D01*
X123803399Y-119006739D01*
X124312475Y-119108000D01*
X124831525Y-119108000D01*
X125340601Y-119006739D01*
X125820141Y-118808107D01*
X126251715Y-118519738D01*
X126498453Y-118273000D01*
X127263928Y-118273000D01*
X127264006Y-118323000D01*
X127263928Y-118373000D01*
X127264087Y-118374614D01*
X127267000Y-120237250D01*
X127425750Y-120396000D01*
X130175000Y-120396000D01*
X130175000Y-116250000D01*
X130429000Y-116250000D01*
X130429000Y-120396000D01*
X133178250Y-120396000D01*
X133337000Y-120237250D01*
X133339913Y-118374614D01*
X133340072Y-118373000D01*
X133339994Y-118323000D01*
X133340072Y-118273000D01*
X133339913Y-118271386D01*
X133337000Y-116408750D01*
X133178250Y-116250000D01*
X130429000Y-116250000D01*
X130175000Y-116250000D01*
X127425750Y-116250000D01*
X127267000Y-116408750D01*
X127264087Y-118271386D01*
X127263928Y-118273000D01*
X126498453Y-118273000D01*
X126618738Y-118152715D01*
X126907107Y-117721141D01*
X127105739Y-117241601D01*
X127207000Y-116732525D01*
X127207000Y-116213475D01*
X127105739Y-115704399D01*
X126907107Y-115224859D01*
X126618738Y-114793285D01*
X126251715Y-114426262D01*
X125820141Y-114137893D01*
X125340601Y-113939261D01*
X125007483Y-113873000D01*
X127263928Y-113873000D01*
X127267000Y-115837250D01*
X127425750Y-115996000D01*
X130175000Y-115996000D01*
X130175000Y-113396750D01*
X130429000Y-113396750D01*
X130429000Y-115996000D01*
X133178250Y-115996000D01*
X133337000Y-115837250D01*
X133340072Y-113873000D01*
X133327812Y-113748518D01*
X133291502Y-113628820D01*
X133232537Y-113518506D01*
X133153185Y-113421815D01*
X133056494Y-113342463D01*
X132946180Y-113283498D01*
X132826482Y-113247188D01*
X132702000Y-113234928D01*
X130587750Y-113238000D01*
X130429000Y-113396750D01*
X130175000Y-113396750D01*
X130016250Y-113238000D01*
X127902000Y-113234928D01*
X127777518Y-113247188D01*
X127657820Y-113283498D01*
X127547506Y-113342463D01*
X127450815Y-113421815D01*
X127371463Y-113518506D01*
X127312498Y-113628820D01*
X127276188Y-113748518D01*
X127263928Y-113873000D01*
X125007483Y-113873000D01*
X124831525Y-113838000D01*
X124312475Y-113838000D01*
X123803399Y-113939261D01*
X123323859Y-114137893D01*
X122892285Y-114426262D01*
X122525262Y-114793285D01*
X122236893Y-115224859D01*
X122038261Y-115704399D01*
X121937000Y-116213475D01*
X112166000Y-116213475D01*
X112166000Y-106567872D01*
X113081000Y-106567872D01*
X113081000Y-107008128D01*
X113166890Y-107439925D01*
X113335369Y-107846669D01*
X113579962Y-108212729D01*
X113891271Y-108524038D01*
X114257331Y-108768631D01*
X114664075Y-108937110D01*
X115095872Y-109023000D01*
X115536128Y-109023000D01*
X115967925Y-108937110D01*
X116374669Y-108768631D01*
X116740729Y-108524038D01*
X117052038Y-108212729D01*
X117296631Y-107846669D01*
X117465110Y-107439925D01*
X117551000Y-107008128D01*
X117551000Y-106567872D01*
X117465110Y-106136075D01*
X117296631Y-105729331D01*
X117052038Y-105363271D01*
X116740729Y-105051962D01*
X116374669Y-104807369D01*
X115967925Y-104638890D01*
X115536128Y-104553000D01*
X115095872Y-104553000D01*
X114664075Y-104638890D01*
X114257331Y-104807369D01*
X113891271Y-105051962D01*
X113579962Y-105363271D01*
X113335369Y-105729331D01*
X113166890Y-106136075D01*
X113081000Y-106567872D01*
X112166000Y-106567872D01*
X112166000Y-91967993D01*
X125587612Y-91967993D01*
X125653137Y-92206860D01*
X125900116Y-92322760D01*
X126164960Y-92388250D01*
X126437492Y-92400812D01*
X126707238Y-92359965D01*
X126963832Y-92267277D01*
X127076863Y-92206860D01*
X127142388Y-91967993D01*
X126365000Y-91190605D01*
X125587612Y-91967993D01*
X112166000Y-91967993D01*
X112166000Y-91083492D01*
X124975188Y-91083492D01*
X125016035Y-91353238D01*
X125108723Y-91609832D01*
X125169140Y-91722863D01*
X125408007Y-91788388D01*
X126185395Y-91011000D01*
X126544605Y-91011000D01*
X127321993Y-91788388D01*
X127366081Y-91776294D01*
X127382974Y-91831982D01*
X127581223Y-92202881D01*
X127848023Y-92527977D01*
X128173119Y-92794777D01*
X128544018Y-92993026D01*
X128860001Y-93088879D01*
X128860000Y-107305422D01*
X128846647Y-107441000D01*
X128860000Y-107576578D01*
X128860000Y-107576585D01*
X128899935Y-107982054D01*
X129057755Y-108502316D01*
X129314040Y-108981792D01*
X129658943Y-109402056D01*
X129764260Y-109488488D01*
X137263928Y-116988158D01*
X137263928Y-122773000D01*
X137276188Y-122897482D01*
X137312498Y-123017180D01*
X137371463Y-123127494D01*
X137450815Y-123224185D01*
X137547506Y-123303537D01*
X137657820Y-123362502D01*
X137777518Y-123398812D01*
X137902000Y-123411072D01*
X142702000Y-123411072D01*
X142826482Y-123398812D01*
X142946180Y-123362502D01*
X143056494Y-123303537D01*
X143153185Y-123224185D01*
X143232537Y-123127494D01*
X143291502Y-123017180D01*
X143327812Y-122897482D01*
X143340072Y-122773000D01*
X143340072Y-121567872D01*
X153081000Y-121567872D01*
X153081000Y-122008128D01*
X153166890Y-122439925D01*
X153335369Y-122846669D01*
X153579962Y-123212729D01*
X153891271Y-123524038D01*
X154257331Y-123768631D01*
X154664075Y-123937110D01*
X155095872Y-124023000D01*
X155536128Y-124023000D01*
X155967925Y-123937110D01*
X156374669Y-123768631D01*
X156740729Y-123524038D01*
X157052038Y-123212729D01*
X157296631Y-122846669D01*
X157465110Y-122439925D01*
X157551000Y-122008128D01*
X157551000Y-121567872D01*
X157465110Y-121136075D01*
X157296631Y-120729331D01*
X157052038Y-120363271D01*
X156740729Y-120051962D01*
X156374669Y-119807369D01*
X155967925Y-119638890D01*
X155536128Y-119553000D01*
X155095872Y-119553000D01*
X154664075Y-119638890D01*
X154257331Y-119807369D01*
X153891271Y-120051962D01*
X153579962Y-120363271D01*
X153335369Y-120729331D01*
X153166890Y-121136075D01*
X153081000Y-121567872D01*
X143340072Y-121567872D01*
X143340072Y-116213475D01*
X143397000Y-116213475D01*
X143397000Y-116732525D01*
X143498261Y-117241601D01*
X143696893Y-117721141D01*
X143985262Y-118152715D01*
X144352285Y-118519738D01*
X144783859Y-118808107D01*
X145263399Y-119006739D01*
X145772475Y-119108000D01*
X146291525Y-119108000D01*
X146800601Y-119006739D01*
X147280141Y-118808107D01*
X147711715Y-118519738D01*
X148078738Y-118152715D01*
X148367107Y-117721141D01*
X148565739Y-117241601D01*
X148667000Y-116732525D01*
X148667000Y-116213475D01*
X148565739Y-115704399D01*
X148367107Y-115224859D01*
X148078738Y-114793285D01*
X147711715Y-114426262D01*
X147280141Y-114137893D01*
X146800601Y-113939261D01*
X146291525Y-113838000D01*
X145772475Y-113838000D01*
X145263399Y-113939261D01*
X144783859Y-114137893D01*
X144352285Y-114426262D01*
X143985262Y-114793285D01*
X143696893Y-115224859D01*
X143498261Y-115704399D01*
X143397000Y-116213475D01*
X143340072Y-116213475D01*
X143340072Y-113873000D01*
X143327812Y-113748518D01*
X143291502Y-113628820D01*
X143232537Y-113518506D01*
X143153185Y-113421815D01*
X143056494Y-113342463D01*
X142946180Y-113283498D01*
X142826482Y-113247188D01*
X142702000Y-113234928D01*
X141317158Y-113234928D01*
X134650101Y-106567872D01*
X148081000Y-106567872D01*
X148081000Y-107008128D01*
X148166890Y-107439925D01*
X148335369Y-107846669D01*
X148579962Y-108212729D01*
X148891271Y-108524038D01*
X149257331Y-108768631D01*
X149664075Y-108937110D01*
X150095872Y-109023000D01*
X150536128Y-109023000D01*
X150967925Y-108937110D01*
X151374669Y-108768631D01*
X151740729Y-108524038D01*
X152052038Y-108212729D01*
X152296631Y-107846669D01*
X152465110Y-107439925D01*
X152551000Y-107008128D01*
X152551000Y-106567872D01*
X152465110Y-106136075D01*
X152296631Y-105729331D01*
X152052038Y-105363271D01*
X151740729Y-105051962D01*
X151374669Y-104807369D01*
X150967925Y-104638890D01*
X150536128Y-104553000D01*
X150095872Y-104553000D01*
X149664075Y-104638890D01*
X149257331Y-104807369D01*
X148891271Y-105051962D01*
X148579962Y-105363271D01*
X148335369Y-105729331D01*
X148166890Y-106136075D01*
X148081000Y-106567872D01*
X134650101Y-106567872D01*
X134380000Y-106297772D01*
X134380000Y-91984685D01*
X134482114Y-92086799D01*
X134708957Y-92238371D01*
X134961011Y-92342775D01*
X135228589Y-92396000D01*
X135501411Y-92396000D01*
X135768989Y-92342775D01*
X136021043Y-92238371D01*
X136247886Y-92086799D01*
X136440799Y-91893886D01*
X136522909Y-91771000D01*
X137207091Y-91771000D01*
X137289201Y-91893886D01*
X137482114Y-92086799D01*
X137708957Y-92238371D01*
X137961011Y-92342775D01*
X138228589Y-92396000D01*
X138501411Y-92396000D01*
X138646365Y-92367167D01*
X141790201Y-95511003D01*
X141813999Y-95540001D01*
X141842997Y-95563799D01*
X141929723Y-95634974D01*
X142061753Y-95705546D01*
X142205014Y-95749003D01*
X142316667Y-95760000D01*
X142316677Y-95760000D01*
X142354000Y-95763676D01*
X142391323Y-95760000D01*
X143138068Y-95760000D01*
X143162595Y-95805887D01*
X143273038Y-95940462D01*
X143407613Y-96050905D01*
X143561149Y-96132972D01*
X143727745Y-96183508D01*
X143900999Y-96200572D01*
X145151001Y-96200572D01*
X145324255Y-96183508D01*
X145490851Y-96132972D01*
X145644387Y-96050905D01*
X145719662Y-95989128D01*
X145739815Y-96013685D01*
X145836506Y-96093037D01*
X145946820Y-96152002D01*
X146066518Y-96188312D01*
X146191000Y-96200572D01*
X146780250Y-96197500D01*
X146939000Y-96038750D01*
X146939000Y-95127000D01*
X147193000Y-95127000D01*
X147193000Y-96038750D01*
X147351750Y-96197500D01*
X147941000Y-96200572D01*
X148065482Y-96188312D01*
X148185180Y-96152002D01*
X148295494Y-96093037D01*
X148392185Y-96013685D01*
X148471537Y-95916994D01*
X148530502Y-95806680D01*
X148566812Y-95686982D01*
X148579072Y-95562500D01*
X148576000Y-95285750D01*
X148417250Y-95127000D01*
X147193000Y-95127000D01*
X146939000Y-95127000D01*
X146919000Y-95127000D01*
X146919000Y-94873000D01*
X146939000Y-94873000D01*
X146939000Y-93961250D01*
X147193000Y-93961250D01*
X147193000Y-94873000D01*
X148417250Y-94873000D01*
X148576000Y-94714250D01*
X148579072Y-94437500D01*
X148566812Y-94313018D01*
X148530502Y-94193320D01*
X148471537Y-94083006D01*
X148392185Y-93986315D01*
X148295494Y-93906963D01*
X148185180Y-93847998D01*
X148065482Y-93811688D01*
X147941000Y-93799428D01*
X147351750Y-93802500D01*
X147193000Y-93961250D01*
X146939000Y-93961250D01*
X146780250Y-93802500D01*
X146191000Y-93799428D01*
X146066518Y-93811688D01*
X145946820Y-93847998D01*
X145836506Y-93906963D01*
X145739815Y-93986315D01*
X145719662Y-94010872D01*
X145644387Y-93949095D01*
X145490851Y-93867028D01*
X145324255Y-93816492D01*
X145151001Y-93799428D01*
X143900999Y-93799428D01*
X143727745Y-93816492D01*
X143561149Y-93867028D01*
X143407613Y-93949095D01*
X143273038Y-94059538D01*
X143162595Y-94194113D01*
X143138068Y-94240000D01*
X142668802Y-94240000D01*
X140191301Y-91762499D01*
X143012928Y-91762499D01*
X143012928Y-92387501D01*
X143029992Y-92560755D01*
X143080528Y-92727351D01*
X143162595Y-92880887D01*
X143273038Y-93015462D01*
X143407613Y-93125905D01*
X143561149Y-93207972D01*
X143727745Y-93258508D01*
X143900999Y-93275572D01*
X145151001Y-93275572D01*
X145324255Y-93258508D01*
X145490851Y-93207972D01*
X145644387Y-93125905D01*
X145778962Y-93015462D01*
X145796000Y-92994701D01*
X145813038Y-93015462D01*
X145947613Y-93125905D01*
X146101149Y-93207972D01*
X146267745Y-93258508D01*
X146440999Y-93275572D01*
X147691001Y-93275572D01*
X147864255Y-93258508D01*
X148030851Y-93207972D01*
X148184387Y-93125905D01*
X148318962Y-93015462D01*
X148429405Y-92880887D01*
X148511472Y-92727351D01*
X148562008Y-92560755D01*
X148579072Y-92387501D01*
X148579072Y-91762499D01*
X148562008Y-91589245D01*
X148511472Y-91422649D01*
X148429405Y-91269113D01*
X148318962Y-91134538D01*
X148184387Y-91024095D01*
X148030851Y-90942028D01*
X147864255Y-90891492D01*
X147763887Y-90881607D01*
X147771812Y-90855482D01*
X147784072Y-90731000D01*
X147784072Y-90654796D01*
X147807226Y-90598898D01*
X147847000Y-90398939D01*
X147847000Y-90195061D01*
X147807226Y-89995102D01*
X147784072Y-89939204D01*
X147784072Y-89831000D01*
X147771812Y-89706518D01*
X147735502Y-89586820D01*
X147676537Y-89476506D01*
X147597185Y-89379815D01*
X147500494Y-89300463D01*
X147390180Y-89241498D01*
X147270482Y-89205188D01*
X147146000Y-89192928D01*
X146634095Y-89192928D01*
X146647185Y-89182185D01*
X146726537Y-89085494D01*
X146785502Y-88975180D01*
X146821812Y-88855482D01*
X146834072Y-88731000D01*
X146834072Y-87831000D01*
X146821812Y-87706518D01*
X146785502Y-87586820D01*
X146726537Y-87476506D01*
X146647185Y-87379815D01*
X146550494Y-87300463D01*
X146440180Y-87241498D01*
X146320482Y-87205188D01*
X146196000Y-87192928D01*
X145396000Y-87192928D01*
X145271518Y-87205188D01*
X145151820Y-87241498D01*
X145041506Y-87300463D01*
X144944815Y-87379815D01*
X144865463Y-87476506D01*
X144806498Y-87586820D01*
X144770188Y-87706518D01*
X144757928Y-87831000D01*
X144757928Y-88731000D01*
X144770188Y-88855482D01*
X144806498Y-88975180D01*
X144865463Y-89085494D01*
X144944815Y-89182185D01*
X144957905Y-89192928D01*
X144446000Y-89192928D01*
X144321518Y-89205188D01*
X144201820Y-89241498D01*
X144091506Y-89300463D01*
X143994815Y-89379815D01*
X143915463Y-89476506D01*
X143856498Y-89586820D01*
X143820188Y-89706518D01*
X143807928Y-89831000D01*
X143807928Y-90350048D01*
X143776998Y-90452015D01*
X143762324Y-90601000D01*
X143766001Y-90638332D01*
X143766001Y-90887724D01*
X143727745Y-90891492D01*
X143561149Y-90942028D01*
X143407613Y-91024095D01*
X143273038Y-91134538D01*
X143162595Y-91269113D01*
X143080528Y-91422649D01*
X143029992Y-91589245D01*
X143012928Y-91762499D01*
X140191301Y-91762499D01*
X139721167Y-91292365D01*
X139750000Y-91147411D01*
X139750000Y-90874589D01*
X139696775Y-90607011D01*
X139592371Y-90354957D01*
X139440799Y-90128114D01*
X139247886Y-89935201D01*
X139125000Y-89853091D01*
X139125000Y-89168909D01*
X139247886Y-89086799D01*
X139440799Y-88893886D01*
X139592371Y-88667043D01*
X139696775Y-88414989D01*
X139750000Y-88147411D01*
X139750000Y-87874589D01*
X139696775Y-87607011D01*
X139592371Y-87354957D01*
X139440799Y-87128114D01*
X139247886Y-86935201D01*
X139021043Y-86783629D01*
X138768989Y-86679225D01*
X138501411Y-86626000D01*
X138228589Y-86626000D01*
X137961011Y-86679225D01*
X137708957Y-86783629D01*
X137482114Y-86935201D01*
X137289201Y-87128114D01*
X137137629Y-87354957D01*
X137033225Y-87607011D01*
X136980000Y-87874589D01*
X136980000Y-88147411D01*
X137033225Y-88414989D01*
X137137629Y-88667043D01*
X137221770Y-88792968D01*
X136721167Y-88292365D01*
X136750000Y-88147411D01*
X136750000Y-87874589D01*
X136696775Y-87607011D01*
X136592371Y-87354957D01*
X136440799Y-87128114D01*
X136247886Y-86935201D01*
X136021043Y-86783629D01*
X135768989Y-86679225D01*
X135501411Y-86626000D01*
X135228589Y-86626000D01*
X134961011Y-86679225D01*
X134708957Y-86783629D01*
X134482114Y-86935201D01*
X134289201Y-87128114D01*
X134213857Y-87240874D01*
X134148777Y-87119118D01*
X133881977Y-86794022D01*
X133556881Y-86527222D01*
X133185982Y-86328973D01*
X132783533Y-86206891D01*
X132365000Y-86165669D01*
X131946468Y-86206891D01*
X131544019Y-86328973D01*
X131173120Y-86527222D01*
X130848024Y-86794022D01*
X130581224Y-87119118D01*
X130494702Y-87280989D01*
X130321993Y-87233612D01*
X129544605Y-88011000D01*
X129558748Y-88025143D01*
X129379143Y-88204748D01*
X129365000Y-88190605D01*
X128587612Y-88967993D01*
X128599706Y-89012081D01*
X128544018Y-89028974D01*
X128173119Y-89227223D01*
X127848023Y-89494023D01*
X127581223Y-89819119D01*
X127382974Y-90190018D01*
X127366081Y-90245706D01*
X127321993Y-90233612D01*
X126544605Y-91011000D01*
X126185395Y-91011000D01*
X125408007Y-90233612D01*
X125169140Y-90299137D01*
X125053240Y-90546116D01*
X124987750Y-90810960D01*
X124975188Y-91083492D01*
X112166000Y-91083492D01*
X112166000Y-90054007D01*
X125587612Y-90054007D01*
X126365000Y-90831395D01*
X127142388Y-90054007D01*
X127076863Y-89815140D01*
X126829884Y-89699240D01*
X126565040Y-89633750D01*
X126292508Y-89621188D01*
X126022762Y-89662035D01*
X125766168Y-89754723D01*
X125653137Y-89815140D01*
X125587612Y-90054007D01*
X112166000Y-90054007D01*
X112166000Y-88761000D01*
X124976928Y-88761000D01*
X124989188Y-88885482D01*
X125025498Y-89005180D01*
X125084463Y-89115494D01*
X125163815Y-89212185D01*
X125260506Y-89291537D01*
X125370820Y-89350502D01*
X125490518Y-89386812D01*
X125615000Y-89399072D01*
X126079250Y-89396000D01*
X126238000Y-89237250D01*
X126238000Y-88138000D01*
X126492000Y-88138000D01*
X126492000Y-89237250D01*
X126650750Y-89396000D01*
X127115000Y-89399072D01*
X127239482Y-89386812D01*
X127359180Y-89350502D01*
X127469494Y-89291537D01*
X127566185Y-89212185D01*
X127645537Y-89115494D01*
X127704502Y-89005180D01*
X127740812Y-88885482D01*
X127753072Y-88761000D01*
X127750000Y-88296750D01*
X127591250Y-88138000D01*
X126492000Y-88138000D01*
X126238000Y-88138000D01*
X125138750Y-88138000D01*
X124980000Y-88296750D01*
X124976928Y-88761000D01*
X112166000Y-88761000D01*
X112166000Y-88083492D01*
X127975188Y-88083492D01*
X128016035Y-88353238D01*
X128108723Y-88609832D01*
X128169140Y-88722863D01*
X128408007Y-88788388D01*
X129185395Y-88011000D01*
X128408007Y-87233612D01*
X128169140Y-87299137D01*
X128053240Y-87546116D01*
X127987750Y-87810960D01*
X127975188Y-88083492D01*
X112166000Y-88083492D01*
X112166000Y-87261000D01*
X124976928Y-87261000D01*
X124980000Y-87725250D01*
X125138750Y-87884000D01*
X126238000Y-87884000D01*
X126238000Y-86784750D01*
X126492000Y-86784750D01*
X126492000Y-87884000D01*
X127591250Y-87884000D01*
X127750000Y-87725250D01*
X127753072Y-87261000D01*
X127740812Y-87136518D01*
X127715783Y-87054007D01*
X128587612Y-87054007D01*
X129365000Y-87831395D01*
X130142388Y-87054007D01*
X130076863Y-86815140D01*
X129829884Y-86699240D01*
X129565040Y-86633750D01*
X129292508Y-86621188D01*
X129022762Y-86662035D01*
X128766168Y-86754723D01*
X128653137Y-86815140D01*
X128587612Y-87054007D01*
X127715783Y-87054007D01*
X127704502Y-87016820D01*
X127645537Y-86906506D01*
X127566185Y-86809815D01*
X127469494Y-86730463D01*
X127359180Y-86671498D01*
X127239482Y-86635188D01*
X127115000Y-86622928D01*
X126650750Y-86626000D01*
X126492000Y-86784750D01*
X126238000Y-86784750D01*
X126079250Y-86626000D01*
X125615000Y-86622928D01*
X125490518Y-86635188D01*
X125370820Y-86671498D01*
X125260506Y-86730463D01*
X125163815Y-86809815D01*
X125084463Y-86906506D01*
X125025498Y-87016820D01*
X124989188Y-87136518D01*
X124976928Y-87261000D01*
X112166000Y-87261000D01*
X112166000Y-81947279D01*
X112203201Y-81567872D01*
X113081000Y-81567872D01*
X113081000Y-82008128D01*
X113166890Y-82439925D01*
X113335369Y-82846669D01*
X113579962Y-83212729D01*
X113891271Y-83524038D01*
X114257331Y-83768631D01*
X114664075Y-83937110D01*
X115095872Y-84023000D01*
X115536128Y-84023000D01*
X115967925Y-83937110D01*
X116374669Y-83768631D01*
X116740729Y-83524038D01*
X116784046Y-83480721D01*
X126390000Y-83480721D01*
X126390000Y-83901279D01*
X126472047Y-84313756D01*
X126632988Y-84702302D01*
X126866637Y-85051983D01*
X127164017Y-85349363D01*
X127513698Y-85583012D01*
X127902244Y-85743953D01*
X128314721Y-85826000D01*
X128735279Y-85826000D01*
X129147756Y-85743953D01*
X129536302Y-85583012D01*
X129885983Y-85349363D01*
X130183363Y-85051983D01*
X130417012Y-84702302D01*
X130577953Y-84313756D01*
X130660000Y-83901279D01*
X130660000Y-83480721D01*
X134090000Y-83480721D01*
X134090000Y-83901279D01*
X134172047Y-84313756D01*
X134332988Y-84702302D01*
X134566637Y-85051983D01*
X134864017Y-85349363D01*
X135213698Y-85583012D01*
X135602244Y-85743953D01*
X136014721Y-85826000D01*
X136435279Y-85826000D01*
X136847756Y-85743953D01*
X137236302Y-85583012D01*
X137585983Y-85349363D01*
X137883363Y-85051983D01*
X138117012Y-84702302D01*
X138277953Y-84313756D01*
X138360000Y-83901279D01*
X138360000Y-83480721D01*
X138277953Y-83068244D01*
X138117012Y-82679698D01*
X137883363Y-82330017D01*
X137585983Y-82032637D01*
X137236302Y-81798988D01*
X136847756Y-81638047D01*
X136494964Y-81567872D01*
X148081000Y-81567872D01*
X148081000Y-82008128D01*
X148166890Y-82439925D01*
X148335369Y-82846669D01*
X148579962Y-83212729D01*
X148891271Y-83524038D01*
X149257331Y-83768631D01*
X149664075Y-83937110D01*
X150095872Y-84023000D01*
X150536128Y-84023000D01*
X150967925Y-83937110D01*
X151374669Y-83768631D01*
X151740729Y-83524038D01*
X152052038Y-83212729D01*
X152296631Y-82846669D01*
X152465110Y-82439925D01*
X152551000Y-82008128D01*
X152551000Y-81567872D01*
X153081000Y-81567872D01*
X153081000Y-82008128D01*
X153166890Y-82439925D01*
X153335369Y-82846669D01*
X153579962Y-83212729D01*
X153891271Y-83524038D01*
X154257331Y-83768631D01*
X154664075Y-83937110D01*
X155095872Y-84023000D01*
X155536128Y-84023000D01*
X155967925Y-83937110D01*
X156374669Y-83768631D01*
X156740729Y-83524038D01*
X157052038Y-83212729D01*
X157296631Y-82846669D01*
X157465110Y-82439925D01*
X157551000Y-82008128D01*
X157551000Y-81567872D01*
X157465110Y-81136075D01*
X157296631Y-80729331D01*
X157052038Y-80363271D01*
X156740729Y-80051962D01*
X156374669Y-79807369D01*
X155967925Y-79638890D01*
X155536128Y-79553000D01*
X155095872Y-79553000D01*
X154664075Y-79638890D01*
X154257331Y-79807369D01*
X153891271Y-80051962D01*
X153579962Y-80363271D01*
X153335369Y-80729331D01*
X153166890Y-81136075D01*
X153081000Y-81567872D01*
X152551000Y-81567872D01*
X152465110Y-81136075D01*
X152296631Y-80729331D01*
X152052038Y-80363271D01*
X151740729Y-80051962D01*
X151374669Y-79807369D01*
X150967925Y-79638890D01*
X150536128Y-79553000D01*
X150095872Y-79553000D01*
X149664075Y-79638890D01*
X149257331Y-79807369D01*
X148891271Y-80051962D01*
X148579962Y-80363271D01*
X148335369Y-80729331D01*
X148166890Y-81136075D01*
X148081000Y-81567872D01*
X136494964Y-81567872D01*
X136435279Y-81556000D01*
X136014721Y-81556000D01*
X135602244Y-81638047D01*
X135213698Y-81798988D01*
X134864017Y-82032637D01*
X134566637Y-82330017D01*
X134332988Y-82679698D01*
X134172047Y-83068244D01*
X134090000Y-83480721D01*
X130660000Y-83480721D01*
X130577953Y-83068244D01*
X130417012Y-82679698D01*
X130183363Y-82330017D01*
X129885983Y-82032637D01*
X129536302Y-81798988D01*
X129147756Y-81638047D01*
X128735279Y-81556000D01*
X128314721Y-81556000D01*
X127902244Y-81638047D01*
X127513698Y-81798988D01*
X127164017Y-82032637D01*
X126866637Y-82330017D01*
X126632988Y-82679698D01*
X126472047Y-83068244D01*
X126390000Y-83480721D01*
X116784046Y-83480721D01*
X117052038Y-83212729D01*
X117296631Y-82846669D01*
X117465110Y-82439925D01*
X117551000Y-82008128D01*
X117551000Y-81567872D01*
X117465110Y-81136075D01*
X117296631Y-80729331D01*
X117052038Y-80363271D01*
X116740729Y-80051962D01*
X116374669Y-79807369D01*
X115967925Y-79638890D01*
X115536128Y-79553000D01*
X115095872Y-79553000D01*
X114664075Y-79638890D01*
X114257331Y-79807369D01*
X113891271Y-80051962D01*
X113579962Y-80363271D01*
X113335369Y-80729331D01*
X113166890Y-81136075D01*
X113081000Y-81567872D01*
X112203201Y-81567872D01*
X112229096Y-81303778D01*
X112406606Y-80715836D01*
X112694937Y-80173564D01*
X113083094Y-79697636D01*
X113556314Y-79306155D01*
X114096552Y-79014049D01*
X114683244Y-78832437D01*
X115324879Y-78765000D01*
X155288721Y-78765000D01*
X155932222Y-78828096D01*
G37*
X155932222Y-78828096D02*
X156520164Y-79005606D01*
X157062436Y-79293937D01*
X157538364Y-79682094D01*
X157929845Y-80155314D01*
X158221951Y-80695552D01*
X158403563Y-81282244D01*
X158471001Y-81923888D01*
X158471000Y-121887721D01*
X158407904Y-122531221D01*
X158230394Y-123119164D01*
X157942063Y-123661436D01*
X157553906Y-124137364D01*
X157080686Y-124528845D01*
X156540449Y-124820950D01*
X155953756Y-125002563D01*
X155312414Y-125069970D01*
X115349330Y-124943103D01*
X114704779Y-124879904D01*
X114116836Y-124702394D01*
X113574564Y-124414063D01*
X113098636Y-124025906D01*
X112707155Y-123552686D01*
X112415050Y-123012449D01*
X112233437Y-122425756D01*
X112166000Y-121784130D01*
X112166000Y-121567872D01*
X113081000Y-121567872D01*
X113081000Y-122008128D01*
X113166890Y-122439925D01*
X113335369Y-122846669D01*
X113579962Y-123212729D01*
X113891271Y-123524038D01*
X114257331Y-123768631D01*
X114664075Y-123937110D01*
X115095872Y-124023000D01*
X115536128Y-124023000D01*
X115967925Y-123937110D01*
X116374669Y-123768631D01*
X116740729Y-123524038D01*
X117052038Y-123212729D01*
X117296631Y-122846669D01*
X117327145Y-122773000D01*
X127263928Y-122773000D01*
X127276188Y-122897482D01*
X127312498Y-123017180D01*
X127371463Y-123127494D01*
X127450815Y-123224185D01*
X127547506Y-123303537D01*
X127657820Y-123362502D01*
X127777518Y-123398812D01*
X127902000Y-123411072D01*
X130016250Y-123408000D01*
X130175000Y-123249250D01*
X130175000Y-120650000D01*
X130429000Y-120650000D01*
X130429000Y-123249250D01*
X130587750Y-123408000D01*
X132702000Y-123411072D01*
X132826482Y-123398812D01*
X132946180Y-123362502D01*
X133056494Y-123303537D01*
X133153185Y-123224185D01*
X133232537Y-123127494D01*
X133291502Y-123017180D01*
X133327812Y-122897482D01*
X133340072Y-122773000D01*
X133337000Y-120808750D01*
X133178250Y-120650000D01*
X130429000Y-120650000D01*
X130175000Y-120650000D01*
X127425750Y-120650000D01*
X127267000Y-120808750D01*
X127263928Y-122773000D01*
X117327145Y-122773000D01*
X117465110Y-122439925D01*
X117551000Y-122008128D01*
X117551000Y-121567872D01*
X117465110Y-121136075D01*
X117296631Y-120729331D01*
X117052038Y-120363271D01*
X116740729Y-120051962D01*
X116374669Y-119807369D01*
X115967925Y-119638890D01*
X115536128Y-119553000D01*
X115095872Y-119553000D01*
X114664075Y-119638890D01*
X114257331Y-119807369D01*
X113891271Y-120051962D01*
X113579962Y-120363271D01*
X113335369Y-120729331D01*
X113166890Y-121136075D01*
X113081000Y-121567872D01*
X112166000Y-121567872D01*
X112166000Y-116213475D01*
X121937000Y-116213475D01*
X121937000Y-116732525D01*
X122038261Y-117241601D01*
X122236893Y-117721141D01*
X122525262Y-118152715D01*
X122892285Y-118519738D01*
X123323859Y-118808107D01*
X123803399Y-119006739D01*
X124312475Y-119108000D01*
X124831525Y-119108000D01*
X125340601Y-119006739D01*
X125820141Y-118808107D01*
X126251715Y-118519738D01*
X126498453Y-118273000D01*
X127263928Y-118273000D01*
X127264006Y-118323000D01*
X127263928Y-118373000D01*
X127264087Y-118374614D01*
X127267000Y-120237250D01*
X127425750Y-120396000D01*
X130175000Y-120396000D01*
X130175000Y-116250000D01*
X130429000Y-116250000D01*
X130429000Y-120396000D01*
X133178250Y-120396000D01*
X133337000Y-120237250D01*
X133339913Y-118374614D01*
X133340072Y-118373000D01*
X133339994Y-118323000D01*
X133340072Y-118273000D01*
X133339913Y-118271386D01*
X133337000Y-116408750D01*
X133178250Y-116250000D01*
X130429000Y-116250000D01*
X130175000Y-116250000D01*
X127425750Y-116250000D01*
X127267000Y-116408750D01*
X127264087Y-118271386D01*
X127263928Y-118273000D01*
X126498453Y-118273000D01*
X126618738Y-118152715D01*
X126907107Y-117721141D01*
X127105739Y-117241601D01*
X127207000Y-116732525D01*
X127207000Y-116213475D01*
X127105739Y-115704399D01*
X126907107Y-115224859D01*
X126618738Y-114793285D01*
X126251715Y-114426262D01*
X125820141Y-114137893D01*
X125340601Y-113939261D01*
X125007483Y-113873000D01*
X127263928Y-113873000D01*
X127267000Y-115837250D01*
X127425750Y-115996000D01*
X130175000Y-115996000D01*
X130175000Y-113396750D01*
X130429000Y-113396750D01*
X130429000Y-115996000D01*
X133178250Y-115996000D01*
X133337000Y-115837250D01*
X133340072Y-113873000D01*
X133327812Y-113748518D01*
X133291502Y-113628820D01*
X133232537Y-113518506D01*
X133153185Y-113421815D01*
X133056494Y-113342463D01*
X132946180Y-113283498D01*
X132826482Y-113247188D01*
X132702000Y-113234928D01*
X130587750Y-113238000D01*
X130429000Y-113396750D01*
X130175000Y-113396750D01*
X130016250Y-113238000D01*
X127902000Y-113234928D01*
X127777518Y-113247188D01*
X127657820Y-113283498D01*
X127547506Y-113342463D01*
X127450815Y-113421815D01*
X127371463Y-113518506D01*
X127312498Y-113628820D01*
X127276188Y-113748518D01*
X127263928Y-113873000D01*
X125007483Y-113873000D01*
X124831525Y-113838000D01*
X124312475Y-113838000D01*
X123803399Y-113939261D01*
X123323859Y-114137893D01*
X122892285Y-114426262D01*
X122525262Y-114793285D01*
X122236893Y-115224859D01*
X122038261Y-115704399D01*
X121937000Y-116213475D01*
X112166000Y-116213475D01*
X112166000Y-106567872D01*
X113081000Y-106567872D01*
X113081000Y-107008128D01*
X113166890Y-107439925D01*
X113335369Y-107846669D01*
X113579962Y-108212729D01*
X113891271Y-108524038D01*
X114257331Y-108768631D01*
X114664075Y-108937110D01*
X115095872Y-109023000D01*
X115536128Y-109023000D01*
X115967925Y-108937110D01*
X116374669Y-108768631D01*
X116740729Y-108524038D01*
X117052038Y-108212729D01*
X117296631Y-107846669D01*
X117465110Y-107439925D01*
X117551000Y-107008128D01*
X117551000Y-106567872D01*
X117465110Y-106136075D01*
X117296631Y-105729331D01*
X117052038Y-105363271D01*
X116740729Y-105051962D01*
X116374669Y-104807369D01*
X115967925Y-104638890D01*
X115536128Y-104553000D01*
X115095872Y-104553000D01*
X114664075Y-104638890D01*
X114257331Y-104807369D01*
X113891271Y-105051962D01*
X113579962Y-105363271D01*
X113335369Y-105729331D01*
X113166890Y-106136075D01*
X113081000Y-106567872D01*
X112166000Y-106567872D01*
X112166000Y-91967993D01*
X125587612Y-91967993D01*
X125653137Y-92206860D01*
X125900116Y-92322760D01*
X126164960Y-92388250D01*
X126437492Y-92400812D01*
X126707238Y-92359965D01*
X126963832Y-92267277D01*
X127076863Y-92206860D01*
X127142388Y-91967993D01*
X126365000Y-91190605D01*
X125587612Y-91967993D01*
X112166000Y-91967993D01*
X112166000Y-91083492D01*
X124975188Y-91083492D01*
X125016035Y-91353238D01*
X125108723Y-91609832D01*
X125169140Y-91722863D01*
X125408007Y-91788388D01*
X126185395Y-91011000D01*
X126544605Y-91011000D01*
X127321993Y-91788388D01*
X127366081Y-91776294D01*
X127382974Y-91831982D01*
X127581223Y-92202881D01*
X127848023Y-92527977D01*
X128173119Y-92794777D01*
X128544018Y-92993026D01*
X128860001Y-93088879D01*
X128860000Y-107305422D01*
X128846647Y-107441000D01*
X128860000Y-107576578D01*
X128860000Y-107576585D01*
X128899935Y-107982054D01*
X129057755Y-108502316D01*
X129314040Y-108981792D01*
X129658943Y-109402056D01*
X129764260Y-109488488D01*
X137263928Y-116988158D01*
X137263928Y-122773000D01*
X137276188Y-122897482D01*
X137312498Y-123017180D01*
X137371463Y-123127494D01*
X137450815Y-123224185D01*
X137547506Y-123303537D01*
X137657820Y-123362502D01*
X137777518Y-123398812D01*
X137902000Y-123411072D01*
X142702000Y-123411072D01*
X142826482Y-123398812D01*
X142946180Y-123362502D01*
X143056494Y-123303537D01*
X143153185Y-123224185D01*
X143232537Y-123127494D01*
X143291502Y-123017180D01*
X143327812Y-122897482D01*
X143340072Y-122773000D01*
X143340072Y-121567872D01*
X153081000Y-121567872D01*
X153081000Y-122008128D01*
X153166890Y-122439925D01*
X153335369Y-122846669D01*
X153579962Y-123212729D01*
X153891271Y-123524038D01*
X154257331Y-123768631D01*
X154664075Y-123937110D01*
X155095872Y-124023000D01*
X155536128Y-124023000D01*
X155967925Y-123937110D01*
X156374669Y-123768631D01*
X156740729Y-123524038D01*
X157052038Y-123212729D01*
X157296631Y-122846669D01*
X157465110Y-122439925D01*
X157551000Y-122008128D01*
X157551000Y-121567872D01*
X157465110Y-121136075D01*
X157296631Y-120729331D01*
X157052038Y-120363271D01*
X156740729Y-120051962D01*
X156374669Y-119807369D01*
X155967925Y-119638890D01*
X155536128Y-119553000D01*
X155095872Y-119553000D01*
X154664075Y-119638890D01*
X154257331Y-119807369D01*
X153891271Y-120051962D01*
X153579962Y-120363271D01*
X153335369Y-120729331D01*
X153166890Y-121136075D01*
X153081000Y-121567872D01*
X143340072Y-121567872D01*
X143340072Y-116213475D01*
X143397000Y-116213475D01*
X143397000Y-116732525D01*
X143498261Y-117241601D01*
X143696893Y-117721141D01*
X143985262Y-118152715D01*
X144352285Y-118519738D01*
X144783859Y-118808107D01*
X145263399Y-119006739D01*
X145772475Y-119108000D01*
X146291525Y-119108000D01*
X146800601Y-119006739D01*
X147280141Y-118808107D01*
X147711715Y-118519738D01*
X148078738Y-118152715D01*
X148367107Y-117721141D01*
X148565739Y-117241601D01*
X148667000Y-116732525D01*
X148667000Y-116213475D01*
X148565739Y-115704399D01*
X148367107Y-115224859D01*
X148078738Y-114793285D01*
X147711715Y-114426262D01*
X147280141Y-114137893D01*
X146800601Y-113939261D01*
X146291525Y-113838000D01*
X145772475Y-113838000D01*
X145263399Y-113939261D01*
X144783859Y-114137893D01*
X144352285Y-114426262D01*
X143985262Y-114793285D01*
X143696893Y-115224859D01*
X143498261Y-115704399D01*
X143397000Y-116213475D01*
X143340072Y-116213475D01*
X143340072Y-113873000D01*
X143327812Y-113748518D01*
X143291502Y-113628820D01*
X143232537Y-113518506D01*
X143153185Y-113421815D01*
X143056494Y-113342463D01*
X142946180Y-113283498D01*
X142826482Y-113247188D01*
X142702000Y-113234928D01*
X141317158Y-113234928D01*
X134650101Y-106567872D01*
X148081000Y-106567872D01*
X148081000Y-107008128D01*
X148166890Y-107439925D01*
X148335369Y-107846669D01*
X148579962Y-108212729D01*
X148891271Y-108524038D01*
X149257331Y-108768631D01*
X149664075Y-108937110D01*
X150095872Y-109023000D01*
X150536128Y-109023000D01*
X150967925Y-108937110D01*
X151374669Y-108768631D01*
X151740729Y-108524038D01*
X152052038Y-108212729D01*
X152296631Y-107846669D01*
X152465110Y-107439925D01*
X152551000Y-107008128D01*
X152551000Y-106567872D01*
X152465110Y-106136075D01*
X152296631Y-105729331D01*
X152052038Y-105363271D01*
X151740729Y-105051962D01*
X151374669Y-104807369D01*
X150967925Y-104638890D01*
X150536128Y-104553000D01*
X150095872Y-104553000D01*
X149664075Y-104638890D01*
X149257331Y-104807369D01*
X148891271Y-105051962D01*
X148579962Y-105363271D01*
X148335369Y-105729331D01*
X148166890Y-106136075D01*
X148081000Y-106567872D01*
X134650101Y-106567872D01*
X134380000Y-106297772D01*
X134380000Y-91984685D01*
X134482114Y-92086799D01*
X134708957Y-92238371D01*
X134961011Y-92342775D01*
X135228589Y-92396000D01*
X135501411Y-92396000D01*
X135768989Y-92342775D01*
X136021043Y-92238371D01*
X136247886Y-92086799D01*
X136440799Y-91893886D01*
X136522909Y-91771000D01*
X137207091Y-91771000D01*
X137289201Y-91893886D01*
X137482114Y-92086799D01*
X137708957Y-92238371D01*
X137961011Y-92342775D01*
X138228589Y-92396000D01*
X138501411Y-92396000D01*
X138646365Y-92367167D01*
X141790201Y-95511003D01*
X141813999Y-95540001D01*
X141842997Y-95563799D01*
X141929723Y-95634974D01*
X142061753Y-95705546D01*
X142205014Y-95749003D01*
X142316667Y-95760000D01*
X142316677Y-95760000D01*
X142354000Y-95763676D01*
X142391323Y-95760000D01*
X143138068Y-95760000D01*
X143162595Y-95805887D01*
X143273038Y-95940462D01*
X143407613Y-96050905D01*
X143561149Y-96132972D01*
X143727745Y-96183508D01*
X143900999Y-96200572D01*
X145151001Y-96200572D01*
X145324255Y-96183508D01*
X145490851Y-96132972D01*
X145644387Y-96050905D01*
X145719662Y-95989128D01*
X145739815Y-96013685D01*
X145836506Y-96093037D01*
X145946820Y-96152002D01*
X146066518Y-96188312D01*
X146191000Y-96200572D01*
X146780250Y-96197500D01*
X146939000Y-96038750D01*
X146939000Y-95127000D01*
X147193000Y-95127000D01*
X147193000Y-96038750D01*
X147351750Y-96197500D01*
X147941000Y-96200572D01*
X148065482Y-96188312D01*
X148185180Y-96152002D01*
X148295494Y-96093037D01*
X148392185Y-96013685D01*
X148471537Y-95916994D01*
X148530502Y-95806680D01*
X148566812Y-95686982D01*
X148579072Y-95562500D01*
X148576000Y-95285750D01*
X148417250Y-95127000D01*
X147193000Y-95127000D01*
X146939000Y-95127000D01*
X146919000Y-95127000D01*
X146919000Y-94873000D01*
X146939000Y-94873000D01*
X146939000Y-93961250D01*
X147193000Y-93961250D01*
X147193000Y-94873000D01*
X148417250Y-94873000D01*
X148576000Y-94714250D01*
X148579072Y-94437500D01*
X148566812Y-94313018D01*
X148530502Y-94193320D01*
X148471537Y-94083006D01*
X148392185Y-93986315D01*
X148295494Y-93906963D01*
X148185180Y-93847998D01*
X148065482Y-93811688D01*
X147941000Y-93799428D01*
X147351750Y-93802500D01*
X147193000Y-93961250D01*
X146939000Y-93961250D01*
X146780250Y-93802500D01*
X146191000Y-93799428D01*
X146066518Y-93811688D01*
X145946820Y-93847998D01*
X145836506Y-93906963D01*
X145739815Y-93986315D01*
X145719662Y-94010872D01*
X145644387Y-93949095D01*
X145490851Y-93867028D01*
X145324255Y-93816492D01*
X145151001Y-93799428D01*
X143900999Y-93799428D01*
X143727745Y-93816492D01*
X143561149Y-93867028D01*
X143407613Y-93949095D01*
X143273038Y-94059538D01*
X143162595Y-94194113D01*
X143138068Y-94240000D01*
X142668802Y-94240000D01*
X140191301Y-91762499D01*
X143012928Y-91762499D01*
X143012928Y-92387501D01*
X143029992Y-92560755D01*
X143080528Y-92727351D01*
X143162595Y-92880887D01*
X143273038Y-93015462D01*
X143407613Y-93125905D01*
X143561149Y-93207972D01*
X143727745Y-93258508D01*
X143900999Y-93275572D01*
X145151001Y-93275572D01*
X145324255Y-93258508D01*
X145490851Y-93207972D01*
X145644387Y-93125905D01*
X145778962Y-93015462D01*
X145796000Y-92994701D01*
X145813038Y-93015462D01*
X145947613Y-93125905D01*
X146101149Y-93207972D01*
X146267745Y-93258508D01*
X146440999Y-93275572D01*
X147691001Y-93275572D01*
X147864255Y-93258508D01*
X148030851Y-93207972D01*
X148184387Y-93125905D01*
X148318962Y-93015462D01*
X148429405Y-92880887D01*
X148511472Y-92727351D01*
X148562008Y-92560755D01*
X148579072Y-92387501D01*
X148579072Y-91762499D01*
X148562008Y-91589245D01*
X148511472Y-91422649D01*
X148429405Y-91269113D01*
X148318962Y-91134538D01*
X148184387Y-91024095D01*
X148030851Y-90942028D01*
X147864255Y-90891492D01*
X147763887Y-90881607D01*
X147771812Y-90855482D01*
X147784072Y-90731000D01*
X147784072Y-90654796D01*
X147807226Y-90598898D01*
X147847000Y-90398939D01*
X147847000Y-90195061D01*
X147807226Y-89995102D01*
X147784072Y-89939204D01*
X147784072Y-89831000D01*
X147771812Y-89706518D01*
X147735502Y-89586820D01*
X147676537Y-89476506D01*
X147597185Y-89379815D01*
X147500494Y-89300463D01*
X147390180Y-89241498D01*
X147270482Y-89205188D01*
X147146000Y-89192928D01*
X146634095Y-89192928D01*
X146647185Y-89182185D01*
X146726537Y-89085494D01*
X146785502Y-88975180D01*
X146821812Y-88855482D01*
X146834072Y-88731000D01*
X146834072Y-87831000D01*
X146821812Y-87706518D01*
X146785502Y-87586820D01*
X146726537Y-87476506D01*
X146647185Y-87379815D01*
X146550494Y-87300463D01*
X146440180Y-87241498D01*
X146320482Y-87205188D01*
X146196000Y-87192928D01*
X145396000Y-87192928D01*
X145271518Y-87205188D01*
X145151820Y-87241498D01*
X145041506Y-87300463D01*
X144944815Y-87379815D01*
X144865463Y-87476506D01*
X144806498Y-87586820D01*
X144770188Y-87706518D01*
X144757928Y-87831000D01*
X144757928Y-88731000D01*
X144770188Y-88855482D01*
X144806498Y-88975180D01*
X144865463Y-89085494D01*
X144944815Y-89182185D01*
X144957905Y-89192928D01*
X144446000Y-89192928D01*
X144321518Y-89205188D01*
X144201820Y-89241498D01*
X144091506Y-89300463D01*
X143994815Y-89379815D01*
X143915463Y-89476506D01*
X143856498Y-89586820D01*
X143820188Y-89706518D01*
X143807928Y-89831000D01*
X143807928Y-90350048D01*
X143776998Y-90452015D01*
X143762324Y-90601000D01*
X143766001Y-90638332D01*
X143766001Y-90887724D01*
X143727745Y-90891492D01*
X143561149Y-90942028D01*
X143407613Y-91024095D01*
X143273038Y-91134538D01*
X143162595Y-91269113D01*
X143080528Y-91422649D01*
X143029992Y-91589245D01*
X143012928Y-91762499D01*
X140191301Y-91762499D01*
X139721167Y-91292365D01*
X139750000Y-91147411D01*
X139750000Y-90874589D01*
X139696775Y-90607011D01*
X139592371Y-90354957D01*
X139440799Y-90128114D01*
X139247886Y-89935201D01*
X139125000Y-89853091D01*
X139125000Y-89168909D01*
X139247886Y-89086799D01*
X139440799Y-88893886D01*
X139592371Y-88667043D01*
X139696775Y-88414989D01*
X139750000Y-88147411D01*
X139750000Y-87874589D01*
X139696775Y-87607011D01*
X139592371Y-87354957D01*
X139440799Y-87128114D01*
X139247886Y-86935201D01*
X139021043Y-86783629D01*
X138768989Y-86679225D01*
X138501411Y-86626000D01*
X138228589Y-86626000D01*
X137961011Y-86679225D01*
X137708957Y-86783629D01*
X137482114Y-86935201D01*
X137289201Y-87128114D01*
X137137629Y-87354957D01*
X137033225Y-87607011D01*
X136980000Y-87874589D01*
X136980000Y-88147411D01*
X137033225Y-88414989D01*
X137137629Y-88667043D01*
X137221770Y-88792968D01*
X136721167Y-88292365D01*
X136750000Y-88147411D01*
X136750000Y-87874589D01*
X136696775Y-87607011D01*
X136592371Y-87354957D01*
X136440799Y-87128114D01*
X136247886Y-86935201D01*
X136021043Y-86783629D01*
X135768989Y-86679225D01*
X135501411Y-86626000D01*
X135228589Y-86626000D01*
X134961011Y-86679225D01*
X134708957Y-86783629D01*
X134482114Y-86935201D01*
X134289201Y-87128114D01*
X134213857Y-87240874D01*
X134148777Y-87119118D01*
X133881977Y-86794022D01*
X133556881Y-86527222D01*
X133185982Y-86328973D01*
X132783533Y-86206891D01*
X132365000Y-86165669D01*
X131946468Y-86206891D01*
X131544019Y-86328973D01*
X131173120Y-86527222D01*
X130848024Y-86794022D01*
X130581224Y-87119118D01*
X130494702Y-87280989D01*
X130321993Y-87233612D01*
X129544605Y-88011000D01*
X129558748Y-88025143D01*
X129379143Y-88204748D01*
X129365000Y-88190605D01*
X128587612Y-88967993D01*
X128599706Y-89012081D01*
X128544018Y-89028974D01*
X128173119Y-89227223D01*
X127848023Y-89494023D01*
X127581223Y-89819119D01*
X127382974Y-90190018D01*
X127366081Y-90245706D01*
X127321993Y-90233612D01*
X126544605Y-91011000D01*
X126185395Y-91011000D01*
X125408007Y-90233612D01*
X125169140Y-90299137D01*
X125053240Y-90546116D01*
X124987750Y-90810960D01*
X124975188Y-91083492D01*
X112166000Y-91083492D01*
X112166000Y-90054007D01*
X125587612Y-90054007D01*
X126365000Y-90831395D01*
X127142388Y-90054007D01*
X127076863Y-89815140D01*
X126829884Y-89699240D01*
X126565040Y-89633750D01*
X126292508Y-89621188D01*
X126022762Y-89662035D01*
X125766168Y-89754723D01*
X125653137Y-89815140D01*
X125587612Y-90054007D01*
X112166000Y-90054007D01*
X112166000Y-88761000D01*
X124976928Y-88761000D01*
X124989188Y-88885482D01*
X125025498Y-89005180D01*
X125084463Y-89115494D01*
X125163815Y-89212185D01*
X125260506Y-89291537D01*
X125370820Y-89350502D01*
X125490518Y-89386812D01*
X125615000Y-89399072D01*
X126079250Y-89396000D01*
X126238000Y-89237250D01*
X126238000Y-88138000D01*
X126492000Y-88138000D01*
X126492000Y-89237250D01*
X126650750Y-89396000D01*
X127115000Y-89399072D01*
X127239482Y-89386812D01*
X127359180Y-89350502D01*
X127469494Y-89291537D01*
X127566185Y-89212185D01*
X127645537Y-89115494D01*
X127704502Y-89005180D01*
X127740812Y-88885482D01*
X127753072Y-88761000D01*
X127750000Y-88296750D01*
X127591250Y-88138000D01*
X126492000Y-88138000D01*
X126238000Y-88138000D01*
X125138750Y-88138000D01*
X124980000Y-88296750D01*
X124976928Y-88761000D01*
X112166000Y-88761000D01*
X112166000Y-88083492D01*
X127975188Y-88083492D01*
X128016035Y-88353238D01*
X128108723Y-88609832D01*
X128169140Y-88722863D01*
X128408007Y-88788388D01*
X129185395Y-88011000D01*
X128408007Y-87233612D01*
X128169140Y-87299137D01*
X128053240Y-87546116D01*
X127987750Y-87810960D01*
X127975188Y-88083492D01*
X112166000Y-88083492D01*
X112166000Y-87261000D01*
X124976928Y-87261000D01*
X124980000Y-87725250D01*
X125138750Y-87884000D01*
X126238000Y-87884000D01*
X126238000Y-86784750D01*
X126492000Y-86784750D01*
X126492000Y-87884000D01*
X127591250Y-87884000D01*
X127750000Y-87725250D01*
X127753072Y-87261000D01*
X127740812Y-87136518D01*
X127715783Y-87054007D01*
X128587612Y-87054007D01*
X129365000Y-87831395D01*
X130142388Y-87054007D01*
X130076863Y-86815140D01*
X129829884Y-86699240D01*
X129565040Y-86633750D01*
X129292508Y-86621188D01*
X129022762Y-86662035D01*
X128766168Y-86754723D01*
X128653137Y-86815140D01*
X128587612Y-87054007D01*
X127715783Y-87054007D01*
X127704502Y-87016820D01*
X127645537Y-86906506D01*
X127566185Y-86809815D01*
X127469494Y-86730463D01*
X127359180Y-86671498D01*
X127239482Y-86635188D01*
X127115000Y-86622928D01*
X126650750Y-86626000D01*
X126492000Y-86784750D01*
X126238000Y-86784750D01*
X126079250Y-86626000D01*
X125615000Y-86622928D01*
X125490518Y-86635188D01*
X125370820Y-86671498D01*
X125260506Y-86730463D01*
X125163815Y-86809815D01*
X125084463Y-86906506D01*
X125025498Y-87016820D01*
X124989188Y-87136518D01*
X124976928Y-87261000D01*
X112166000Y-87261000D01*
X112166000Y-81947279D01*
X112203201Y-81567872D01*
X113081000Y-81567872D01*
X113081000Y-82008128D01*
X113166890Y-82439925D01*
X113335369Y-82846669D01*
X113579962Y-83212729D01*
X113891271Y-83524038D01*
X114257331Y-83768631D01*
X114664075Y-83937110D01*
X115095872Y-84023000D01*
X115536128Y-84023000D01*
X115967925Y-83937110D01*
X116374669Y-83768631D01*
X116740729Y-83524038D01*
X116784046Y-83480721D01*
X126390000Y-83480721D01*
X126390000Y-83901279D01*
X126472047Y-84313756D01*
X126632988Y-84702302D01*
X126866637Y-85051983D01*
X127164017Y-85349363D01*
X127513698Y-85583012D01*
X127902244Y-85743953D01*
X128314721Y-85826000D01*
X128735279Y-85826000D01*
X129147756Y-85743953D01*
X129536302Y-85583012D01*
X129885983Y-85349363D01*
X130183363Y-85051983D01*
X130417012Y-84702302D01*
X130577953Y-84313756D01*
X130660000Y-83901279D01*
X130660000Y-83480721D01*
X134090000Y-83480721D01*
X134090000Y-83901279D01*
X134172047Y-84313756D01*
X134332988Y-84702302D01*
X134566637Y-85051983D01*
X134864017Y-85349363D01*
X135213698Y-85583012D01*
X135602244Y-85743953D01*
X136014721Y-85826000D01*
X136435279Y-85826000D01*
X136847756Y-85743953D01*
X137236302Y-85583012D01*
X137585983Y-85349363D01*
X137883363Y-85051983D01*
X138117012Y-84702302D01*
X138277953Y-84313756D01*
X138360000Y-83901279D01*
X138360000Y-83480721D01*
X138277953Y-83068244D01*
X138117012Y-82679698D01*
X137883363Y-82330017D01*
X137585983Y-82032637D01*
X137236302Y-81798988D01*
X136847756Y-81638047D01*
X136494964Y-81567872D01*
X148081000Y-81567872D01*
X148081000Y-82008128D01*
X148166890Y-82439925D01*
X148335369Y-82846669D01*
X148579962Y-83212729D01*
X148891271Y-83524038D01*
X149257331Y-83768631D01*
X149664075Y-83937110D01*
X150095872Y-84023000D01*
X150536128Y-84023000D01*
X150967925Y-83937110D01*
X151374669Y-83768631D01*
X151740729Y-83524038D01*
X152052038Y-83212729D01*
X152296631Y-82846669D01*
X152465110Y-82439925D01*
X152551000Y-82008128D01*
X152551000Y-81567872D01*
X153081000Y-81567872D01*
X153081000Y-82008128D01*
X153166890Y-82439925D01*
X153335369Y-82846669D01*
X153579962Y-83212729D01*
X153891271Y-83524038D01*
X154257331Y-83768631D01*
X154664075Y-83937110D01*
X155095872Y-84023000D01*
X155536128Y-84023000D01*
X155967925Y-83937110D01*
X156374669Y-83768631D01*
X156740729Y-83524038D01*
X157052038Y-83212729D01*
X157296631Y-82846669D01*
X157465110Y-82439925D01*
X157551000Y-82008128D01*
X157551000Y-81567872D01*
X157465110Y-81136075D01*
X157296631Y-80729331D01*
X157052038Y-80363271D01*
X156740729Y-80051962D01*
X156374669Y-79807369D01*
X155967925Y-79638890D01*
X155536128Y-79553000D01*
X155095872Y-79553000D01*
X154664075Y-79638890D01*
X154257331Y-79807369D01*
X153891271Y-80051962D01*
X153579962Y-80363271D01*
X153335369Y-80729331D01*
X153166890Y-81136075D01*
X153081000Y-81567872D01*
X152551000Y-81567872D01*
X152465110Y-81136075D01*
X152296631Y-80729331D01*
X152052038Y-80363271D01*
X151740729Y-80051962D01*
X151374669Y-79807369D01*
X150967925Y-79638890D01*
X150536128Y-79553000D01*
X150095872Y-79553000D01*
X149664075Y-79638890D01*
X149257331Y-79807369D01*
X148891271Y-80051962D01*
X148579962Y-80363271D01*
X148335369Y-80729331D01*
X148166890Y-81136075D01*
X148081000Y-81567872D01*
X136494964Y-81567872D01*
X136435279Y-81556000D01*
X136014721Y-81556000D01*
X135602244Y-81638047D01*
X135213698Y-81798988D01*
X134864017Y-82032637D01*
X134566637Y-82330017D01*
X134332988Y-82679698D01*
X134172047Y-83068244D01*
X134090000Y-83480721D01*
X130660000Y-83480721D01*
X130577953Y-83068244D01*
X130417012Y-82679698D01*
X130183363Y-82330017D01*
X129885983Y-82032637D01*
X129536302Y-81798988D01*
X129147756Y-81638047D01*
X128735279Y-81556000D01*
X128314721Y-81556000D01*
X127902244Y-81638047D01*
X127513698Y-81798988D01*
X127164017Y-82032637D01*
X126866637Y-82330017D01*
X126632988Y-82679698D01*
X126472047Y-83068244D01*
X126390000Y-83480721D01*
X116784046Y-83480721D01*
X117052038Y-83212729D01*
X117296631Y-82846669D01*
X117465110Y-82439925D01*
X117551000Y-82008128D01*
X117551000Y-81567872D01*
X117465110Y-81136075D01*
X117296631Y-80729331D01*
X117052038Y-80363271D01*
X116740729Y-80051962D01*
X116374669Y-79807369D01*
X115967925Y-79638890D01*
X115536128Y-79553000D01*
X115095872Y-79553000D01*
X114664075Y-79638890D01*
X114257331Y-79807369D01*
X113891271Y-80051962D01*
X113579962Y-80363271D01*
X113335369Y-80729331D01*
X113166890Y-81136075D01*
X113081000Y-81567872D01*
X112203201Y-81567872D01*
X112229096Y-81303778D01*
X112406606Y-80715836D01*
X112694937Y-80173564D01*
X113083094Y-79697636D01*
X113556314Y-79306155D01*
X114096552Y-79014049D01*
X114683244Y-78832437D01*
X115324879Y-78765000D01*
X155288721Y-78765000D01*
X155932222Y-78828096D01*
M02*
