G04 #@! TF.GenerationSoftware,KiCad,Pcbnew,(5.1.6)-1*
G04 #@! TF.CreationDate,2021-06-25T13:56:25+10:00*
G04 #@! TF.ProjectId,Fan Controller,46616e20-436f-46e7-9472-6f6c6c65722e,rev?*
G04 #@! TF.SameCoordinates,Original*
G04 #@! TF.FileFunction,Copper,L2,Bot*
G04 #@! TF.FilePolarity,Positive*
%FSLAX46Y46*%
G04 Gerber Fmt 4.6, Leading zero omitted, Abs format (unit mm)*
G04 Created by KiCad (PCBNEW (5.1.6)-1) date 2021-06-25 13:56:25*
%MOMM*%
%LPD*%
G01*
G04 APERTURE LIST*
G04 #@! TA.AperFunction,ComponentPad*
%ADD10C,1.500000*%
G04 #@! TD*
G04 #@! TA.AperFunction,ComponentPad*
%ADD11C,4.000000*%
G04 #@! TD*
G04 #@! TA.AperFunction,ComponentPad*
%ADD12R,4.800000X4.500000*%
G04 #@! TD*
G04 #@! TA.AperFunction,ViaPad*
%ADD13C,0.800000*%
G04 #@! TD*
G04 #@! TA.AperFunction,Conductor*
%ADD14C,2.000000*%
G04 #@! TD*
G04 #@! TA.AperFunction,Conductor*
%ADD15C,3.000000*%
G04 #@! TD*
G04 #@! TA.AperFunction,Conductor*
%ADD16C,4.250000*%
G04 #@! TD*
G04 #@! TA.AperFunction,Conductor*
%ADD17C,0.254000*%
G04 #@! TD*
G04 APERTURE END LIST*
D10*
X138365000Y-91011000D03*
X135365000Y-91011000D03*
X132365000Y-91011000D03*
X129365000Y-91011000D03*
X126365000Y-91011000D03*
X138365000Y-88011000D03*
X135365000Y-88011000D03*
X132365000Y-88011000D03*
X129365000Y-88011000D03*
G04 #@! TA.AperFunction,ComponentPad*
G36*
G01*
X125615000Y-88511000D02*
X125615000Y-87511000D01*
G75*
G02*
X125865000Y-87261000I250000J0D01*
G01*
X126865000Y-87261000D01*
G75*
G02*
X127115000Y-87511000I0J-250000D01*
G01*
X127115000Y-88511000D01*
G75*
G02*
X126865000Y-88761000I-250000J0D01*
G01*
X125865000Y-88761000D01*
G75*
G02*
X125615000Y-88511000I0J250000D01*
G01*
G37*
G04 #@! TD.AperFunction*
D11*
X146032000Y-116473000D03*
X124572000Y-116473000D03*
D12*
X140302000Y-116123000D03*
X130302000Y-116123000D03*
X140302000Y-120523000D03*
X130302000Y-120523000D03*
D13*
X146812000Y-90297000D03*
D14*
X132365000Y-88042000D02*
X132334000Y-88011000D01*
X129461000Y-91011000D02*
X129413000Y-91059000D01*
X132365000Y-91011000D02*
X129365000Y-91011000D01*
D15*
X132063000Y-91313000D02*
X129794000Y-91313000D01*
X132365000Y-91011000D02*
X132063000Y-91313000D01*
D14*
X132365000Y-87915000D02*
X132334000Y-87884000D01*
X132842000Y-89662000D02*
X132842000Y-87630000D01*
X132365000Y-91011000D02*
X132842000Y-89662000D01*
X132461000Y-89525370D02*
X132461000Y-89154000D01*
X132597630Y-89662000D02*
X132461000Y-89525370D01*
X132842000Y-89662000D02*
X132597630Y-89662000D01*
X132461000Y-89154000D02*
X132365000Y-87915000D01*
X132461000Y-89154000D02*
X132461000Y-87249000D01*
D16*
X130302000Y-120523000D02*
X130302000Y-116123000D01*
X125730000Y-94361000D02*
X125730000Y-88646000D01*
X130302000Y-120523000D02*
X130302000Y-98933000D01*
X130302000Y-98933000D02*
X125730000Y-94361000D01*
D15*
X129365000Y-88011000D02*
X126365000Y-88011000D01*
D17*
G36*
X155932222Y-78828096D02*
G01*
X156520164Y-79005606D01*
X157062436Y-79293937D01*
X157538364Y-79682094D01*
X157929845Y-80155314D01*
X158221951Y-80695552D01*
X158403563Y-81282244D01*
X158471001Y-81923888D01*
X158471000Y-121887721D01*
X158407904Y-122531221D01*
X158230394Y-123119164D01*
X157942063Y-123661436D01*
X157553906Y-124137364D01*
X157080686Y-124528845D01*
X156540449Y-124820950D01*
X155953756Y-125002563D01*
X155312414Y-125069970D01*
X115349330Y-124943103D01*
X114704779Y-124879904D01*
X114116836Y-124702394D01*
X113574564Y-124414063D01*
X113098636Y-124025906D01*
X112707155Y-123552686D01*
X112415050Y-123012449D01*
X112233437Y-122425756D01*
X112166000Y-121784130D01*
X112166000Y-121567872D01*
X113081000Y-121567872D01*
X113081000Y-122008128D01*
X113166890Y-122439925D01*
X113335369Y-122846669D01*
X113579962Y-123212729D01*
X113891271Y-123524038D01*
X114257331Y-123768631D01*
X114664075Y-123937110D01*
X115095872Y-124023000D01*
X115536128Y-124023000D01*
X115967925Y-123937110D01*
X116374669Y-123768631D01*
X116740729Y-123524038D01*
X117052038Y-123212729D01*
X117296631Y-122846669D01*
X117465110Y-122439925D01*
X117551000Y-122008128D01*
X117551000Y-121567872D01*
X117465110Y-121136075D01*
X117296631Y-120729331D01*
X117052038Y-120363271D01*
X116740729Y-120051962D01*
X116374669Y-119807369D01*
X115967925Y-119638890D01*
X115536128Y-119553000D01*
X115095872Y-119553000D01*
X114664075Y-119638890D01*
X114257331Y-119807369D01*
X113891271Y-120051962D01*
X113579962Y-120363271D01*
X113335369Y-120729331D01*
X113166890Y-121136075D01*
X113081000Y-121567872D01*
X112166000Y-121567872D01*
X112166000Y-116213475D01*
X121937000Y-116213475D01*
X121937000Y-116732525D01*
X122038261Y-117241601D01*
X122236893Y-117721141D01*
X122525262Y-118152715D01*
X122892285Y-118519738D01*
X123323859Y-118808107D01*
X123803399Y-119006739D01*
X124312475Y-119108000D01*
X124831525Y-119108000D01*
X125340601Y-119006739D01*
X125820141Y-118808107D01*
X126251715Y-118519738D01*
X126618738Y-118152715D01*
X126907107Y-117721141D01*
X127105739Y-117241601D01*
X127207000Y-116732525D01*
X127207000Y-116213475D01*
X127105739Y-115704399D01*
X126907107Y-115224859D01*
X126618738Y-114793285D01*
X126251715Y-114426262D01*
X125820141Y-114137893D01*
X125340601Y-113939261D01*
X124831525Y-113838000D01*
X124312475Y-113838000D01*
X123803399Y-113939261D01*
X123323859Y-114137893D01*
X122892285Y-114426262D01*
X122525262Y-114793285D01*
X122236893Y-115224859D01*
X122038261Y-115704399D01*
X121937000Y-116213475D01*
X112166000Y-116213475D01*
X112166000Y-106567872D01*
X113081000Y-106567872D01*
X113081000Y-107008128D01*
X113166890Y-107439925D01*
X113335369Y-107846669D01*
X113579962Y-108212729D01*
X113891271Y-108524038D01*
X114257331Y-108768631D01*
X114664075Y-108937110D01*
X115095872Y-109023000D01*
X115536128Y-109023000D01*
X115967925Y-108937110D01*
X116374669Y-108768631D01*
X116740729Y-108524038D01*
X117052038Y-108212729D01*
X117296631Y-107846669D01*
X117465110Y-107439925D01*
X117551000Y-107008128D01*
X117551000Y-106567872D01*
X117465110Y-106136075D01*
X117296631Y-105729331D01*
X117052038Y-105363271D01*
X116740729Y-105051962D01*
X116374669Y-104807369D01*
X115967925Y-104638890D01*
X115536128Y-104553000D01*
X115095872Y-104553000D01*
X114664075Y-104638890D01*
X114257331Y-104807369D01*
X113891271Y-105051962D01*
X113579962Y-105363271D01*
X113335369Y-105729331D01*
X113166890Y-106136075D01*
X113081000Y-106567872D01*
X112166000Y-106567872D01*
X112166000Y-94361000D01*
X122956647Y-94361000D01*
X122970000Y-94496578D01*
X122970000Y-94496585D01*
X123009935Y-94902054D01*
X123167755Y-95422316D01*
X123424040Y-95901792D01*
X123768943Y-96322056D01*
X123874260Y-96408488D01*
X127542001Y-100076231D01*
X127542000Y-113346981D01*
X127450815Y-113421815D01*
X127371463Y-113518506D01*
X127312498Y-113628820D01*
X127276188Y-113748518D01*
X127263928Y-113873000D01*
X127263928Y-122773000D01*
X127276188Y-122897482D01*
X127312498Y-123017180D01*
X127371463Y-123127494D01*
X127450815Y-123224185D01*
X127547506Y-123303537D01*
X127657820Y-123362502D01*
X127777518Y-123398812D01*
X127902000Y-123411072D01*
X132702000Y-123411072D01*
X132826482Y-123398812D01*
X132946180Y-123362502D01*
X133056494Y-123303537D01*
X133153185Y-123224185D01*
X133232537Y-123127494D01*
X133291502Y-123017180D01*
X133327812Y-122897482D01*
X133340072Y-122773000D01*
X137263928Y-122773000D01*
X137276188Y-122897482D01*
X137312498Y-123017180D01*
X137371463Y-123127494D01*
X137450815Y-123224185D01*
X137547506Y-123303537D01*
X137657820Y-123362502D01*
X137777518Y-123398812D01*
X137902000Y-123411072D01*
X140016250Y-123408000D01*
X140175000Y-123249250D01*
X140175000Y-120650000D01*
X140429000Y-120650000D01*
X140429000Y-123249250D01*
X140587750Y-123408000D01*
X142702000Y-123411072D01*
X142826482Y-123398812D01*
X142946180Y-123362502D01*
X143056494Y-123303537D01*
X143153185Y-123224185D01*
X143232537Y-123127494D01*
X143291502Y-123017180D01*
X143327812Y-122897482D01*
X143340072Y-122773000D01*
X143338188Y-121567872D01*
X153081000Y-121567872D01*
X153081000Y-122008128D01*
X153166890Y-122439925D01*
X153335369Y-122846669D01*
X153579962Y-123212729D01*
X153891271Y-123524038D01*
X154257331Y-123768631D01*
X154664075Y-123937110D01*
X155095872Y-124023000D01*
X155536128Y-124023000D01*
X155967925Y-123937110D01*
X156374669Y-123768631D01*
X156740729Y-123524038D01*
X157052038Y-123212729D01*
X157296631Y-122846669D01*
X157465110Y-122439925D01*
X157551000Y-122008128D01*
X157551000Y-121567872D01*
X157465110Y-121136075D01*
X157296631Y-120729331D01*
X157052038Y-120363271D01*
X156740729Y-120051962D01*
X156374669Y-119807369D01*
X155967925Y-119638890D01*
X155536128Y-119553000D01*
X155095872Y-119553000D01*
X154664075Y-119638890D01*
X154257331Y-119807369D01*
X153891271Y-120051962D01*
X153579962Y-120363271D01*
X153335369Y-120729331D01*
X153166890Y-121136075D01*
X153081000Y-121567872D01*
X143338188Y-121567872D01*
X143337000Y-120808750D01*
X143178250Y-120650000D01*
X140429000Y-120650000D01*
X140175000Y-120650000D01*
X137425750Y-120650000D01*
X137267000Y-120808750D01*
X137263928Y-122773000D01*
X133340072Y-122773000D01*
X133340072Y-118273000D01*
X137263928Y-118273000D01*
X137264006Y-118323000D01*
X137263928Y-118373000D01*
X137264087Y-118374614D01*
X137267000Y-120237250D01*
X137425750Y-120396000D01*
X140175000Y-120396000D01*
X140175000Y-116250000D01*
X140429000Y-116250000D01*
X140429000Y-120396000D01*
X143178250Y-120396000D01*
X143337000Y-120237250D01*
X143339913Y-118374614D01*
X143340072Y-118373000D01*
X143339994Y-118323000D01*
X143340072Y-118273000D01*
X143339913Y-118271386D01*
X143337000Y-116408750D01*
X143178250Y-116250000D01*
X140429000Y-116250000D01*
X140175000Y-116250000D01*
X137425750Y-116250000D01*
X137267000Y-116408750D01*
X137264087Y-118271386D01*
X137263928Y-118273000D01*
X133340072Y-118273000D01*
X133340072Y-116213475D01*
X143397000Y-116213475D01*
X143397000Y-116732525D01*
X143498261Y-117241601D01*
X143696893Y-117721141D01*
X143985262Y-118152715D01*
X144352285Y-118519738D01*
X144783859Y-118808107D01*
X145263399Y-119006739D01*
X145772475Y-119108000D01*
X146291525Y-119108000D01*
X146800601Y-119006739D01*
X147280141Y-118808107D01*
X147711715Y-118519738D01*
X148078738Y-118152715D01*
X148367107Y-117721141D01*
X148565739Y-117241601D01*
X148667000Y-116732525D01*
X148667000Y-116213475D01*
X148565739Y-115704399D01*
X148367107Y-115224859D01*
X148078738Y-114793285D01*
X147711715Y-114426262D01*
X147280141Y-114137893D01*
X146800601Y-113939261D01*
X146291525Y-113838000D01*
X145772475Y-113838000D01*
X145263399Y-113939261D01*
X144783859Y-114137893D01*
X144352285Y-114426262D01*
X143985262Y-114793285D01*
X143696893Y-115224859D01*
X143498261Y-115704399D01*
X143397000Y-116213475D01*
X133340072Y-116213475D01*
X133340072Y-113873000D01*
X137263928Y-113873000D01*
X137267000Y-115837250D01*
X137425750Y-115996000D01*
X140175000Y-115996000D01*
X140175000Y-113396750D01*
X140429000Y-113396750D01*
X140429000Y-115996000D01*
X143178250Y-115996000D01*
X143337000Y-115837250D01*
X143340072Y-113873000D01*
X143327812Y-113748518D01*
X143291502Y-113628820D01*
X143232537Y-113518506D01*
X143153185Y-113421815D01*
X143056494Y-113342463D01*
X142946180Y-113283498D01*
X142826482Y-113247188D01*
X142702000Y-113234928D01*
X140587750Y-113238000D01*
X140429000Y-113396750D01*
X140175000Y-113396750D01*
X140016250Y-113238000D01*
X137902000Y-113234928D01*
X137777518Y-113247188D01*
X137657820Y-113283498D01*
X137547506Y-113342463D01*
X137450815Y-113421815D01*
X137371463Y-113518506D01*
X137312498Y-113628820D01*
X137276188Y-113748518D01*
X137263928Y-113873000D01*
X133340072Y-113873000D01*
X133327812Y-113748518D01*
X133291502Y-113628820D01*
X133232537Y-113518506D01*
X133153185Y-113421815D01*
X133062000Y-113346982D01*
X133062000Y-106567872D01*
X148081000Y-106567872D01*
X148081000Y-107008128D01*
X148166890Y-107439925D01*
X148335369Y-107846669D01*
X148579962Y-108212729D01*
X148891271Y-108524038D01*
X149257331Y-108768631D01*
X149664075Y-108937110D01*
X150095872Y-109023000D01*
X150536128Y-109023000D01*
X150967925Y-108937110D01*
X151374669Y-108768631D01*
X151740729Y-108524038D01*
X152052038Y-108212729D01*
X152296631Y-107846669D01*
X152465110Y-107439925D01*
X152551000Y-107008128D01*
X152551000Y-106567872D01*
X152465110Y-106136075D01*
X152296631Y-105729331D01*
X152052038Y-105363271D01*
X151740729Y-105051962D01*
X151374669Y-104807369D01*
X150967925Y-104638890D01*
X150536128Y-104553000D01*
X150095872Y-104553000D01*
X149664075Y-104638890D01*
X149257331Y-104807369D01*
X148891271Y-105051962D01*
X148579962Y-105363271D01*
X148335369Y-105729331D01*
X148166890Y-106136075D01*
X148081000Y-106567872D01*
X133062000Y-106567872D01*
X133062000Y-99068575D01*
X133075353Y-98932999D01*
X133062000Y-98797423D01*
X133062000Y-98797414D01*
X133022065Y-98391945D01*
X132864245Y-97871683D01*
X132607960Y-97392207D01*
X132396345Y-97134354D01*
X132349488Y-97077258D01*
X132349483Y-97077253D01*
X132263057Y-96971943D01*
X132157747Y-96885517D01*
X128490000Y-93217772D01*
X128490000Y-92065608D01*
X128587613Y-91967995D01*
X128653137Y-92206860D01*
X128900116Y-92322760D01*
X129164960Y-92388250D01*
X129437492Y-92400812D01*
X129707238Y-92359965D01*
X129963832Y-92267277D01*
X130076863Y-92206860D01*
X130142388Y-91967993D01*
X131587612Y-91967993D01*
X131653137Y-92206860D01*
X131900116Y-92322760D01*
X132164960Y-92388250D01*
X132437492Y-92400812D01*
X132707238Y-92359965D01*
X132963832Y-92267277D01*
X133076863Y-92206860D01*
X133142388Y-91967993D01*
X132365000Y-91190605D01*
X131587612Y-91967993D01*
X130142388Y-91967993D01*
X129365000Y-91190605D01*
X129350858Y-91204748D01*
X129171253Y-91025143D01*
X129185395Y-91011000D01*
X129544605Y-91011000D01*
X130321993Y-91788388D01*
X130560860Y-91722863D01*
X130676760Y-91475884D01*
X130742250Y-91211040D01*
X130748129Y-91083492D01*
X130975188Y-91083492D01*
X131016035Y-91353238D01*
X131108723Y-91609832D01*
X131169140Y-91722863D01*
X131408007Y-91788388D01*
X132185395Y-91011000D01*
X132544605Y-91011000D01*
X133321993Y-91788388D01*
X133560860Y-91722863D01*
X133676760Y-91475884D01*
X133742250Y-91211040D01*
X133754812Y-90938508D01*
X133745133Y-90874589D01*
X133980000Y-90874589D01*
X133980000Y-91147411D01*
X134033225Y-91414989D01*
X134137629Y-91667043D01*
X134289201Y-91893886D01*
X134482114Y-92086799D01*
X134708957Y-92238371D01*
X134961011Y-92342775D01*
X135228589Y-92396000D01*
X135501411Y-92396000D01*
X135768989Y-92342775D01*
X136021043Y-92238371D01*
X136247886Y-92086799D01*
X136440799Y-91893886D01*
X136592371Y-91667043D01*
X136696775Y-91414989D01*
X136750000Y-91147411D01*
X136750000Y-90874589D01*
X136980000Y-90874589D01*
X136980000Y-91147411D01*
X137033225Y-91414989D01*
X137137629Y-91667043D01*
X137289201Y-91893886D01*
X137482114Y-92086799D01*
X137708957Y-92238371D01*
X137961011Y-92342775D01*
X138228589Y-92396000D01*
X138501411Y-92396000D01*
X138768989Y-92342775D01*
X139021043Y-92238371D01*
X139247886Y-92086799D01*
X139440799Y-91893886D01*
X139592371Y-91667043D01*
X139696775Y-91414989D01*
X139750000Y-91147411D01*
X139750000Y-90874589D01*
X139696775Y-90607011D01*
X139592371Y-90354957D01*
X139440799Y-90128114D01*
X139247886Y-89935201D01*
X139021043Y-89783629D01*
X138768989Y-89679225D01*
X138501411Y-89626000D01*
X138228589Y-89626000D01*
X137961011Y-89679225D01*
X137708957Y-89783629D01*
X137482114Y-89935201D01*
X137289201Y-90128114D01*
X137137629Y-90354957D01*
X137033225Y-90607011D01*
X136980000Y-90874589D01*
X136750000Y-90874589D01*
X136696775Y-90607011D01*
X136592371Y-90354957D01*
X136440799Y-90128114D01*
X136247886Y-89935201D01*
X136021043Y-89783629D01*
X135768989Y-89679225D01*
X135501411Y-89626000D01*
X135228589Y-89626000D01*
X134961011Y-89679225D01*
X134708957Y-89783629D01*
X134482114Y-89935201D01*
X134289201Y-90128114D01*
X134137629Y-90354957D01*
X134033225Y-90607011D01*
X133980000Y-90874589D01*
X133745133Y-90874589D01*
X133713965Y-90668762D01*
X133621277Y-90412168D01*
X133560860Y-90299137D01*
X133321993Y-90233612D01*
X132544605Y-91011000D01*
X132185395Y-91011000D01*
X131408007Y-90233612D01*
X131169140Y-90299137D01*
X131053240Y-90546116D01*
X130987750Y-90810960D01*
X130975188Y-91083492D01*
X130748129Y-91083492D01*
X130754812Y-90938508D01*
X130713965Y-90668762D01*
X130621277Y-90412168D01*
X130560860Y-90299137D01*
X130321993Y-90233612D01*
X129544605Y-91011000D01*
X129185395Y-91011000D01*
X129171253Y-90996858D01*
X129350858Y-90817253D01*
X129365000Y-90831395D01*
X130142388Y-90054007D01*
X131587612Y-90054007D01*
X132365000Y-90831395D01*
X133142388Y-90054007D01*
X133076863Y-89815140D01*
X132829884Y-89699240D01*
X132565040Y-89633750D01*
X132292508Y-89621188D01*
X132022762Y-89662035D01*
X131766168Y-89754723D01*
X131653137Y-89815140D01*
X131587612Y-90054007D01*
X130142388Y-90054007D01*
X130130294Y-90009919D01*
X130185982Y-89993026D01*
X130556881Y-89794777D01*
X130881977Y-89527977D01*
X131148777Y-89202881D01*
X131274326Y-88967993D01*
X131587612Y-88967993D01*
X131653137Y-89206860D01*
X131900116Y-89322760D01*
X132164960Y-89388250D01*
X132437492Y-89400812D01*
X132707238Y-89359965D01*
X132963832Y-89267277D01*
X133076863Y-89206860D01*
X133142388Y-88967993D01*
X132365000Y-88190605D01*
X131587612Y-88967993D01*
X131274326Y-88967993D01*
X131347026Y-88831982D01*
X131363919Y-88776294D01*
X131408007Y-88788388D01*
X132185395Y-88011000D01*
X132544605Y-88011000D01*
X133321993Y-88788388D01*
X133560860Y-88722863D01*
X133676760Y-88475884D01*
X133742250Y-88211040D01*
X133754812Y-87938508D01*
X133745133Y-87874589D01*
X133980000Y-87874589D01*
X133980000Y-88147411D01*
X134033225Y-88414989D01*
X134137629Y-88667043D01*
X134289201Y-88893886D01*
X134482114Y-89086799D01*
X134708957Y-89238371D01*
X134961011Y-89342775D01*
X135228589Y-89396000D01*
X135501411Y-89396000D01*
X135768989Y-89342775D01*
X136021043Y-89238371D01*
X136247886Y-89086799D01*
X136440799Y-88893886D01*
X136592371Y-88667043D01*
X136696775Y-88414989D01*
X136750000Y-88147411D01*
X136750000Y-87874589D01*
X136980000Y-87874589D01*
X136980000Y-88147411D01*
X137033225Y-88414989D01*
X137137629Y-88667043D01*
X137289201Y-88893886D01*
X137482114Y-89086799D01*
X137708957Y-89238371D01*
X137961011Y-89342775D01*
X138228589Y-89396000D01*
X138501411Y-89396000D01*
X138768989Y-89342775D01*
X139021043Y-89238371D01*
X139247886Y-89086799D01*
X139440799Y-88893886D01*
X139592371Y-88667043D01*
X139696775Y-88414989D01*
X139750000Y-88147411D01*
X139750000Y-87874589D01*
X139696775Y-87607011D01*
X139592371Y-87354957D01*
X139440799Y-87128114D01*
X139247886Y-86935201D01*
X139021043Y-86783629D01*
X138768989Y-86679225D01*
X138501411Y-86626000D01*
X138228589Y-86626000D01*
X137961011Y-86679225D01*
X137708957Y-86783629D01*
X137482114Y-86935201D01*
X137289201Y-87128114D01*
X137137629Y-87354957D01*
X137033225Y-87607011D01*
X136980000Y-87874589D01*
X136750000Y-87874589D01*
X136696775Y-87607011D01*
X136592371Y-87354957D01*
X136440799Y-87128114D01*
X136247886Y-86935201D01*
X136021043Y-86783629D01*
X135768989Y-86679225D01*
X135501411Y-86626000D01*
X135228589Y-86626000D01*
X134961011Y-86679225D01*
X134708957Y-86783629D01*
X134482114Y-86935201D01*
X134289201Y-87128114D01*
X134137629Y-87354957D01*
X134033225Y-87607011D01*
X133980000Y-87874589D01*
X133745133Y-87874589D01*
X133713965Y-87668762D01*
X133621277Y-87412168D01*
X133560860Y-87299137D01*
X133321993Y-87233612D01*
X132544605Y-88011000D01*
X132185395Y-88011000D01*
X131408007Y-87233612D01*
X131363919Y-87245706D01*
X131347026Y-87190018D01*
X131274327Y-87054007D01*
X131587612Y-87054007D01*
X132365000Y-87831395D01*
X133142388Y-87054007D01*
X133076863Y-86815140D01*
X132829884Y-86699240D01*
X132565040Y-86633750D01*
X132292508Y-86621188D01*
X132022762Y-86662035D01*
X131766168Y-86754723D01*
X131653137Y-86815140D01*
X131587612Y-87054007D01*
X131274327Y-87054007D01*
X131148777Y-86819119D01*
X130881977Y-86494023D01*
X130556881Y-86227223D01*
X130185982Y-86028974D01*
X129783533Y-85906892D01*
X129469882Y-85876000D01*
X126260118Y-85876000D01*
X126012087Y-85900429D01*
X125730000Y-85872646D01*
X125188946Y-85925935D01*
X124668684Y-86083755D01*
X124189208Y-86340040D01*
X123768944Y-86684943D01*
X123424041Y-87105207D01*
X123167756Y-87584683D01*
X123009936Y-88104945D01*
X122970001Y-88510414D01*
X122970000Y-94225421D01*
X122956647Y-94361000D01*
X112166000Y-94361000D01*
X112166000Y-81947279D01*
X112203201Y-81567872D01*
X113081000Y-81567872D01*
X113081000Y-82008128D01*
X113166890Y-82439925D01*
X113335369Y-82846669D01*
X113579962Y-83212729D01*
X113891271Y-83524038D01*
X114257331Y-83768631D01*
X114664075Y-83937110D01*
X115095872Y-84023000D01*
X115536128Y-84023000D01*
X115967925Y-83937110D01*
X116374669Y-83768631D01*
X116740729Y-83524038D01*
X116784046Y-83480721D01*
X126390000Y-83480721D01*
X126390000Y-83901279D01*
X126472047Y-84313756D01*
X126632988Y-84702302D01*
X126866637Y-85051983D01*
X127164017Y-85349363D01*
X127513698Y-85583012D01*
X127902244Y-85743953D01*
X128314721Y-85826000D01*
X128735279Y-85826000D01*
X129147756Y-85743953D01*
X129536302Y-85583012D01*
X129885983Y-85349363D01*
X130183363Y-85051983D01*
X130417012Y-84702302D01*
X130577953Y-84313756D01*
X130660000Y-83901279D01*
X130660000Y-83480721D01*
X134090000Y-83480721D01*
X134090000Y-83901279D01*
X134172047Y-84313756D01*
X134332988Y-84702302D01*
X134566637Y-85051983D01*
X134864017Y-85349363D01*
X135213698Y-85583012D01*
X135602244Y-85743953D01*
X136014721Y-85826000D01*
X136435279Y-85826000D01*
X136847756Y-85743953D01*
X137236302Y-85583012D01*
X137585983Y-85349363D01*
X137883363Y-85051983D01*
X138117012Y-84702302D01*
X138277953Y-84313756D01*
X138360000Y-83901279D01*
X138360000Y-83480721D01*
X138277953Y-83068244D01*
X138117012Y-82679698D01*
X137883363Y-82330017D01*
X137585983Y-82032637D01*
X137236302Y-81798988D01*
X136847756Y-81638047D01*
X136494964Y-81567872D01*
X148081000Y-81567872D01*
X148081000Y-82008128D01*
X148166890Y-82439925D01*
X148335369Y-82846669D01*
X148579962Y-83212729D01*
X148891271Y-83524038D01*
X149257331Y-83768631D01*
X149664075Y-83937110D01*
X150095872Y-84023000D01*
X150536128Y-84023000D01*
X150967925Y-83937110D01*
X151374669Y-83768631D01*
X151740729Y-83524038D01*
X152052038Y-83212729D01*
X152296631Y-82846669D01*
X152465110Y-82439925D01*
X152551000Y-82008128D01*
X152551000Y-81567872D01*
X153081000Y-81567872D01*
X153081000Y-82008128D01*
X153166890Y-82439925D01*
X153335369Y-82846669D01*
X153579962Y-83212729D01*
X153891271Y-83524038D01*
X154257331Y-83768631D01*
X154664075Y-83937110D01*
X155095872Y-84023000D01*
X155536128Y-84023000D01*
X155967925Y-83937110D01*
X156374669Y-83768631D01*
X156740729Y-83524038D01*
X157052038Y-83212729D01*
X157296631Y-82846669D01*
X157465110Y-82439925D01*
X157551000Y-82008128D01*
X157551000Y-81567872D01*
X157465110Y-81136075D01*
X157296631Y-80729331D01*
X157052038Y-80363271D01*
X156740729Y-80051962D01*
X156374669Y-79807369D01*
X155967925Y-79638890D01*
X155536128Y-79553000D01*
X155095872Y-79553000D01*
X154664075Y-79638890D01*
X154257331Y-79807369D01*
X153891271Y-80051962D01*
X153579962Y-80363271D01*
X153335369Y-80729331D01*
X153166890Y-81136075D01*
X153081000Y-81567872D01*
X152551000Y-81567872D01*
X152465110Y-81136075D01*
X152296631Y-80729331D01*
X152052038Y-80363271D01*
X151740729Y-80051962D01*
X151374669Y-79807369D01*
X150967925Y-79638890D01*
X150536128Y-79553000D01*
X150095872Y-79553000D01*
X149664075Y-79638890D01*
X149257331Y-79807369D01*
X148891271Y-80051962D01*
X148579962Y-80363271D01*
X148335369Y-80729331D01*
X148166890Y-81136075D01*
X148081000Y-81567872D01*
X136494964Y-81567872D01*
X136435279Y-81556000D01*
X136014721Y-81556000D01*
X135602244Y-81638047D01*
X135213698Y-81798988D01*
X134864017Y-82032637D01*
X134566637Y-82330017D01*
X134332988Y-82679698D01*
X134172047Y-83068244D01*
X134090000Y-83480721D01*
X130660000Y-83480721D01*
X130577953Y-83068244D01*
X130417012Y-82679698D01*
X130183363Y-82330017D01*
X129885983Y-82032637D01*
X129536302Y-81798988D01*
X129147756Y-81638047D01*
X128735279Y-81556000D01*
X128314721Y-81556000D01*
X127902244Y-81638047D01*
X127513698Y-81798988D01*
X127164017Y-82032637D01*
X126866637Y-82330017D01*
X126632988Y-82679698D01*
X126472047Y-83068244D01*
X126390000Y-83480721D01*
X116784046Y-83480721D01*
X117052038Y-83212729D01*
X117296631Y-82846669D01*
X117465110Y-82439925D01*
X117551000Y-82008128D01*
X117551000Y-81567872D01*
X117465110Y-81136075D01*
X117296631Y-80729331D01*
X117052038Y-80363271D01*
X116740729Y-80051962D01*
X116374669Y-79807369D01*
X115967925Y-79638890D01*
X115536128Y-79553000D01*
X115095872Y-79553000D01*
X114664075Y-79638890D01*
X114257331Y-79807369D01*
X113891271Y-80051962D01*
X113579962Y-80363271D01*
X113335369Y-80729331D01*
X113166890Y-81136075D01*
X113081000Y-81567872D01*
X112203201Y-81567872D01*
X112229096Y-81303778D01*
X112406606Y-80715836D01*
X112694937Y-80173564D01*
X113083094Y-79697636D01*
X113556314Y-79306155D01*
X114096552Y-79014049D01*
X114683244Y-78832437D01*
X115324879Y-78765000D01*
X155288721Y-78765000D01*
X155932222Y-78828096D01*
G37*
X155932222Y-78828096D02*
X156520164Y-79005606D01*
X157062436Y-79293937D01*
X157538364Y-79682094D01*
X157929845Y-80155314D01*
X158221951Y-80695552D01*
X158403563Y-81282244D01*
X158471001Y-81923888D01*
X158471000Y-121887721D01*
X158407904Y-122531221D01*
X158230394Y-123119164D01*
X157942063Y-123661436D01*
X157553906Y-124137364D01*
X157080686Y-124528845D01*
X156540449Y-124820950D01*
X155953756Y-125002563D01*
X155312414Y-125069970D01*
X115349330Y-124943103D01*
X114704779Y-124879904D01*
X114116836Y-124702394D01*
X113574564Y-124414063D01*
X113098636Y-124025906D01*
X112707155Y-123552686D01*
X112415050Y-123012449D01*
X112233437Y-122425756D01*
X112166000Y-121784130D01*
X112166000Y-121567872D01*
X113081000Y-121567872D01*
X113081000Y-122008128D01*
X113166890Y-122439925D01*
X113335369Y-122846669D01*
X113579962Y-123212729D01*
X113891271Y-123524038D01*
X114257331Y-123768631D01*
X114664075Y-123937110D01*
X115095872Y-124023000D01*
X115536128Y-124023000D01*
X115967925Y-123937110D01*
X116374669Y-123768631D01*
X116740729Y-123524038D01*
X117052038Y-123212729D01*
X117296631Y-122846669D01*
X117465110Y-122439925D01*
X117551000Y-122008128D01*
X117551000Y-121567872D01*
X117465110Y-121136075D01*
X117296631Y-120729331D01*
X117052038Y-120363271D01*
X116740729Y-120051962D01*
X116374669Y-119807369D01*
X115967925Y-119638890D01*
X115536128Y-119553000D01*
X115095872Y-119553000D01*
X114664075Y-119638890D01*
X114257331Y-119807369D01*
X113891271Y-120051962D01*
X113579962Y-120363271D01*
X113335369Y-120729331D01*
X113166890Y-121136075D01*
X113081000Y-121567872D01*
X112166000Y-121567872D01*
X112166000Y-116213475D01*
X121937000Y-116213475D01*
X121937000Y-116732525D01*
X122038261Y-117241601D01*
X122236893Y-117721141D01*
X122525262Y-118152715D01*
X122892285Y-118519738D01*
X123323859Y-118808107D01*
X123803399Y-119006739D01*
X124312475Y-119108000D01*
X124831525Y-119108000D01*
X125340601Y-119006739D01*
X125820141Y-118808107D01*
X126251715Y-118519738D01*
X126618738Y-118152715D01*
X126907107Y-117721141D01*
X127105739Y-117241601D01*
X127207000Y-116732525D01*
X127207000Y-116213475D01*
X127105739Y-115704399D01*
X126907107Y-115224859D01*
X126618738Y-114793285D01*
X126251715Y-114426262D01*
X125820141Y-114137893D01*
X125340601Y-113939261D01*
X124831525Y-113838000D01*
X124312475Y-113838000D01*
X123803399Y-113939261D01*
X123323859Y-114137893D01*
X122892285Y-114426262D01*
X122525262Y-114793285D01*
X122236893Y-115224859D01*
X122038261Y-115704399D01*
X121937000Y-116213475D01*
X112166000Y-116213475D01*
X112166000Y-106567872D01*
X113081000Y-106567872D01*
X113081000Y-107008128D01*
X113166890Y-107439925D01*
X113335369Y-107846669D01*
X113579962Y-108212729D01*
X113891271Y-108524038D01*
X114257331Y-108768631D01*
X114664075Y-108937110D01*
X115095872Y-109023000D01*
X115536128Y-109023000D01*
X115967925Y-108937110D01*
X116374669Y-108768631D01*
X116740729Y-108524038D01*
X117052038Y-108212729D01*
X117296631Y-107846669D01*
X117465110Y-107439925D01*
X117551000Y-107008128D01*
X117551000Y-106567872D01*
X117465110Y-106136075D01*
X117296631Y-105729331D01*
X117052038Y-105363271D01*
X116740729Y-105051962D01*
X116374669Y-104807369D01*
X115967925Y-104638890D01*
X115536128Y-104553000D01*
X115095872Y-104553000D01*
X114664075Y-104638890D01*
X114257331Y-104807369D01*
X113891271Y-105051962D01*
X113579962Y-105363271D01*
X113335369Y-105729331D01*
X113166890Y-106136075D01*
X113081000Y-106567872D01*
X112166000Y-106567872D01*
X112166000Y-94361000D01*
X122956647Y-94361000D01*
X122970000Y-94496578D01*
X122970000Y-94496585D01*
X123009935Y-94902054D01*
X123167755Y-95422316D01*
X123424040Y-95901792D01*
X123768943Y-96322056D01*
X123874260Y-96408488D01*
X127542001Y-100076231D01*
X127542000Y-113346981D01*
X127450815Y-113421815D01*
X127371463Y-113518506D01*
X127312498Y-113628820D01*
X127276188Y-113748518D01*
X127263928Y-113873000D01*
X127263928Y-122773000D01*
X127276188Y-122897482D01*
X127312498Y-123017180D01*
X127371463Y-123127494D01*
X127450815Y-123224185D01*
X127547506Y-123303537D01*
X127657820Y-123362502D01*
X127777518Y-123398812D01*
X127902000Y-123411072D01*
X132702000Y-123411072D01*
X132826482Y-123398812D01*
X132946180Y-123362502D01*
X133056494Y-123303537D01*
X133153185Y-123224185D01*
X133232537Y-123127494D01*
X133291502Y-123017180D01*
X133327812Y-122897482D01*
X133340072Y-122773000D01*
X137263928Y-122773000D01*
X137276188Y-122897482D01*
X137312498Y-123017180D01*
X137371463Y-123127494D01*
X137450815Y-123224185D01*
X137547506Y-123303537D01*
X137657820Y-123362502D01*
X137777518Y-123398812D01*
X137902000Y-123411072D01*
X140016250Y-123408000D01*
X140175000Y-123249250D01*
X140175000Y-120650000D01*
X140429000Y-120650000D01*
X140429000Y-123249250D01*
X140587750Y-123408000D01*
X142702000Y-123411072D01*
X142826482Y-123398812D01*
X142946180Y-123362502D01*
X143056494Y-123303537D01*
X143153185Y-123224185D01*
X143232537Y-123127494D01*
X143291502Y-123017180D01*
X143327812Y-122897482D01*
X143340072Y-122773000D01*
X143338188Y-121567872D01*
X153081000Y-121567872D01*
X153081000Y-122008128D01*
X153166890Y-122439925D01*
X153335369Y-122846669D01*
X153579962Y-123212729D01*
X153891271Y-123524038D01*
X154257331Y-123768631D01*
X154664075Y-123937110D01*
X155095872Y-124023000D01*
X155536128Y-124023000D01*
X155967925Y-123937110D01*
X156374669Y-123768631D01*
X156740729Y-123524038D01*
X157052038Y-123212729D01*
X157296631Y-122846669D01*
X157465110Y-122439925D01*
X157551000Y-122008128D01*
X157551000Y-121567872D01*
X157465110Y-121136075D01*
X157296631Y-120729331D01*
X157052038Y-120363271D01*
X156740729Y-120051962D01*
X156374669Y-119807369D01*
X155967925Y-119638890D01*
X155536128Y-119553000D01*
X155095872Y-119553000D01*
X154664075Y-119638890D01*
X154257331Y-119807369D01*
X153891271Y-120051962D01*
X153579962Y-120363271D01*
X153335369Y-120729331D01*
X153166890Y-121136075D01*
X153081000Y-121567872D01*
X143338188Y-121567872D01*
X143337000Y-120808750D01*
X143178250Y-120650000D01*
X140429000Y-120650000D01*
X140175000Y-120650000D01*
X137425750Y-120650000D01*
X137267000Y-120808750D01*
X137263928Y-122773000D01*
X133340072Y-122773000D01*
X133340072Y-118273000D01*
X137263928Y-118273000D01*
X137264006Y-118323000D01*
X137263928Y-118373000D01*
X137264087Y-118374614D01*
X137267000Y-120237250D01*
X137425750Y-120396000D01*
X140175000Y-120396000D01*
X140175000Y-116250000D01*
X140429000Y-116250000D01*
X140429000Y-120396000D01*
X143178250Y-120396000D01*
X143337000Y-120237250D01*
X143339913Y-118374614D01*
X143340072Y-118373000D01*
X143339994Y-118323000D01*
X143340072Y-118273000D01*
X143339913Y-118271386D01*
X143337000Y-116408750D01*
X143178250Y-116250000D01*
X140429000Y-116250000D01*
X140175000Y-116250000D01*
X137425750Y-116250000D01*
X137267000Y-116408750D01*
X137264087Y-118271386D01*
X137263928Y-118273000D01*
X133340072Y-118273000D01*
X133340072Y-116213475D01*
X143397000Y-116213475D01*
X143397000Y-116732525D01*
X143498261Y-117241601D01*
X143696893Y-117721141D01*
X143985262Y-118152715D01*
X144352285Y-118519738D01*
X144783859Y-118808107D01*
X145263399Y-119006739D01*
X145772475Y-119108000D01*
X146291525Y-119108000D01*
X146800601Y-119006739D01*
X147280141Y-118808107D01*
X147711715Y-118519738D01*
X148078738Y-118152715D01*
X148367107Y-117721141D01*
X148565739Y-117241601D01*
X148667000Y-116732525D01*
X148667000Y-116213475D01*
X148565739Y-115704399D01*
X148367107Y-115224859D01*
X148078738Y-114793285D01*
X147711715Y-114426262D01*
X147280141Y-114137893D01*
X146800601Y-113939261D01*
X146291525Y-113838000D01*
X145772475Y-113838000D01*
X145263399Y-113939261D01*
X144783859Y-114137893D01*
X144352285Y-114426262D01*
X143985262Y-114793285D01*
X143696893Y-115224859D01*
X143498261Y-115704399D01*
X143397000Y-116213475D01*
X133340072Y-116213475D01*
X133340072Y-113873000D01*
X137263928Y-113873000D01*
X137267000Y-115837250D01*
X137425750Y-115996000D01*
X140175000Y-115996000D01*
X140175000Y-113396750D01*
X140429000Y-113396750D01*
X140429000Y-115996000D01*
X143178250Y-115996000D01*
X143337000Y-115837250D01*
X143340072Y-113873000D01*
X143327812Y-113748518D01*
X143291502Y-113628820D01*
X143232537Y-113518506D01*
X143153185Y-113421815D01*
X143056494Y-113342463D01*
X142946180Y-113283498D01*
X142826482Y-113247188D01*
X142702000Y-113234928D01*
X140587750Y-113238000D01*
X140429000Y-113396750D01*
X140175000Y-113396750D01*
X140016250Y-113238000D01*
X137902000Y-113234928D01*
X137777518Y-113247188D01*
X137657820Y-113283498D01*
X137547506Y-113342463D01*
X137450815Y-113421815D01*
X137371463Y-113518506D01*
X137312498Y-113628820D01*
X137276188Y-113748518D01*
X137263928Y-113873000D01*
X133340072Y-113873000D01*
X133327812Y-113748518D01*
X133291502Y-113628820D01*
X133232537Y-113518506D01*
X133153185Y-113421815D01*
X133062000Y-113346982D01*
X133062000Y-106567872D01*
X148081000Y-106567872D01*
X148081000Y-107008128D01*
X148166890Y-107439925D01*
X148335369Y-107846669D01*
X148579962Y-108212729D01*
X148891271Y-108524038D01*
X149257331Y-108768631D01*
X149664075Y-108937110D01*
X150095872Y-109023000D01*
X150536128Y-109023000D01*
X150967925Y-108937110D01*
X151374669Y-108768631D01*
X151740729Y-108524038D01*
X152052038Y-108212729D01*
X152296631Y-107846669D01*
X152465110Y-107439925D01*
X152551000Y-107008128D01*
X152551000Y-106567872D01*
X152465110Y-106136075D01*
X152296631Y-105729331D01*
X152052038Y-105363271D01*
X151740729Y-105051962D01*
X151374669Y-104807369D01*
X150967925Y-104638890D01*
X150536128Y-104553000D01*
X150095872Y-104553000D01*
X149664075Y-104638890D01*
X149257331Y-104807369D01*
X148891271Y-105051962D01*
X148579962Y-105363271D01*
X148335369Y-105729331D01*
X148166890Y-106136075D01*
X148081000Y-106567872D01*
X133062000Y-106567872D01*
X133062000Y-99068575D01*
X133075353Y-98932999D01*
X133062000Y-98797423D01*
X133062000Y-98797414D01*
X133022065Y-98391945D01*
X132864245Y-97871683D01*
X132607960Y-97392207D01*
X132396345Y-97134354D01*
X132349488Y-97077258D01*
X132349483Y-97077253D01*
X132263057Y-96971943D01*
X132157747Y-96885517D01*
X128490000Y-93217772D01*
X128490000Y-92065608D01*
X128587613Y-91967995D01*
X128653137Y-92206860D01*
X128900116Y-92322760D01*
X129164960Y-92388250D01*
X129437492Y-92400812D01*
X129707238Y-92359965D01*
X129963832Y-92267277D01*
X130076863Y-92206860D01*
X130142388Y-91967993D01*
X131587612Y-91967993D01*
X131653137Y-92206860D01*
X131900116Y-92322760D01*
X132164960Y-92388250D01*
X132437492Y-92400812D01*
X132707238Y-92359965D01*
X132963832Y-92267277D01*
X133076863Y-92206860D01*
X133142388Y-91967993D01*
X132365000Y-91190605D01*
X131587612Y-91967993D01*
X130142388Y-91967993D01*
X129365000Y-91190605D01*
X129350858Y-91204748D01*
X129171253Y-91025143D01*
X129185395Y-91011000D01*
X129544605Y-91011000D01*
X130321993Y-91788388D01*
X130560860Y-91722863D01*
X130676760Y-91475884D01*
X130742250Y-91211040D01*
X130748129Y-91083492D01*
X130975188Y-91083492D01*
X131016035Y-91353238D01*
X131108723Y-91609832D01*
X131169140Y-91722863D01*
X131408007Y-91788388D01*
X132185395Y-91011000D01*
X132544605Y-91011000D01*
X133321993Y-91788388D01*
X133560860Y-91722863D01*
X133676760Y-91475884D01*
X133742250Y-91211040D01*
X133754812Y-90938508D01*
X133745133Y-90874589D01*
X133980000Y-90874589D01*
X133980000Y-91147411D01*
X134033225Y-91414989D01*
X134137629Y-91667043D01*
X134289201Y-91893886D01*
X134482114Y-92086799D01*
X134708957Y-92238371D01*
X134961011Y-92342775D01*
X135228589Y-92396000D01*
X135501411Y-92396000D01*
X135768989Y-92342775D01*
X136021043Y-92238371D01*
X136247886Y-92086799D01*
X136440799Y-91893886D01*
X136592371Y-91667043D01*
X136696775Y-91414989D01*
X136750000Y-91147411D01*
X136750000Y-90874589D01*
X136980000Y-90874589D01*
X136980000Y-91147411D01*
X137033225Y-91414989D01*
X137137629Y-91667043D01*
X137289201Y-91893886D01*
X137482114Y-92086799D01*
X137708957Y-92238371D01*
X137961011Y-92342775D01*
X138228589Y-92396000D01*
X138501411Y-92396000D01*
X138768989Y-92342775D01*
X139021043Y-92238371D01*
X139247886Y-92086799D01*
X139440799Y-91893886D01*
X139592371Y-91667043D01*
X139696775Y-91414989D01*
X139750000Y-91147411D01*
X139750000Y-90874589D01*
X139696775Y-90607011D01*
X139592371Y-90354957D01*
X139440799Y-90128114D01*
X139247886Y-89935201D01*
X139021043Y-89783629D01*
X138768989Y-89679225D01*
X138501411Y-89626000D01*
X138228589Y-89626000D01*
X137961011Y-89679225D01*
X137708957Y-89783629D01*
X137482114Y-89935201D01*
X137289201Y-90128114D01*
X137137629Y-90354957D01*
X137033225Y-90607011D01*
X136980000Y-90874589D01*
X136750000Y-90874589D01*
X136696775Y-90607011D01*
X136592371Y-90354957D01*
X136440799Y-90128114D01*
X136247886Y-89935201D01*
X136021043Y-89783629D01*
X135768989Y-89679225D01*
X135501411Y-89626000D01*
X135228589Y-89626000D01*
X134961011Y-89679225D01*
X134708957Y-89783629D01*
X134482114Y-89935201D01*
X134289201Y-90128114D01*
X134137629Y-90354957D01*
X134033225Y-90607011D01*
X133980000Y-90874589D01*
X133745133Y-90874589D01*
X133713965Y-90668762D01*
X133621277Y-90412168D01*
X133560860Y-90299137D01*
X133321993Y-90233612D01*
X132544605Y-91011000D01*
X132185395Y-91011000D01*
X131408007Y-90233612D01*
X131169140Y-90299137D01*
X131053240Y-90546116D01*
X130987750Y-90810960D01*
X130975188Y-91083492D01*
X130748129Y-91083492D01*
X130754812Y-90938508D01*
X130713965Y-90668762D01*
X130621277Y-90412168D01*
X130560860Y-90299137D01*
X130321993Y-90233612D01*
X129544605Y-91011000D01*
X129185395Y-91011000D01*
X129171253Y-90996858D01*
X129350858Y-90817253D01*
X129365000Y-90831395D01*
X130142388Y-90054007D01*
X131587612Y-90054007D01*
X132365000Y-90831395D01*
X133142388Y-90054007D01*
X133076863Y-89815140D01*
X132829884Y-89699240D01*
X132565040Y-89633750D01*
X132292508Y-89621188D01*
X132022762Y-89662035D01*
X131766168Y-89754723D01*
X131653137Y-89815140D01*
X131587612Y-90054007D01*
X130142388Y-90054007D01*
X130130294Y-90009919D01*
X130185982Y-89993026D01*
X130556881Y-89794777D01*
X130881977Y-89527977D01*
X131148777Y-89202881D01*
X131274326Y-88967993D01*
X131587612Y-88967993D01*
X131653137Y-89206860D01*
X131900116Y-89322760D01*
X132164960Y-89388250D01*
X132437492Y-89400812D01*
X132707238Y-89359965D01*
X132963832Y-89267277D01*
X133076863Y-89206860D01*
X133142388Y-88967993D01*
X132365000Y-88190605D01*
X131587612Y-88967993D01*
X131274326Y-88967993D01*
X131347026Y-88831982D01*
X131363919Y-88776294D01*
X131408007Y-88788388D01*
X132185395Y-88011000D01*
X132544605Y-88011000D01*
X133321993Y-88788388D01*
X133560860Y-88722863D01*
X133676760Y-88475884D01*
X133742250Y-88211040D01*
X133754812Y-87938508D01*
X133745133Y-87874589D01*
X133980000Y-87874589D01*
X133980000Y-88147411D01*
X134033225Y-88414989D01*
X134137629Y-88667043D01*
X134289201Y-88893886D01*
X134482114Y-89086799D01*
X134708957Y-89238371D01*
X134961011Y-89342775D01*
X135228589Y-89396000D01*
X135501411Y-89396000D01*
X135768989Y-89342775D01*
X136021043Y-89238371D01*
X136247886Y-89086799D01*
X136440799Y-88893886D01*
X136592371Y-88667043D01*
X136696775Y-88414989D01*
X136750000Y-88147411D01*
X136750000Y-87874589D01*
X136980000Y-87874589D01*
X136980000Y-88147411D01*
X137033225Y-88414989D01*
X137137629Y-88667043D01*
X137289201Y-88893886D01*
X137482114Y-89086799D01*
X137708957Y-89238371D01*
X137961011Y-89342775D01*
X138228589Y-89396000D01*
X138501411Y-89396000D01*
X138768989Y-89342775D01*
X139021043Y-89238371D01*
X139247886Y-89086799D01*
X139440799Y-88893886D01*
X139592371Y-88667043D01*
X139696775Y-88414989D01*
X139750000Y-88147411D01*
X139750000Y-87874589D01*
X139696775Y-87607011D01*
X139592371Y-87354957D01*
X139440799Y-87128114D01*
X139247886Y-86935201D01*
X139021043Y-86783629D01*
X138768989Y-86679225D01*
X138501411Y-86626000D01*
X138228589Y-86626000D01*
X137961011Y-86679225D01*
X137708957Y-86783629D01*
X137482114Y-86935201D01*
X137289201Y-87128114D01*
X137137629Y-87354957D01*
X137033225Y-87607011D01*
X136980000Y-87874589D01*
X136750000Y-87874589D01*
X136696775Y-87607011D01*
X136592371Y-87354957D01*
X136440799Y-87128114D01*
X136247886Y-86935201D01*
X136021043Y-86783629D01*
X135768989Y-86679225D01*
X135501411Y-86626000D01*
X135228589Y-86626000D01*
X134961011Y-86679225D01*
X134708957Y-86783629D01*
X134482114Y-86935201D01*
X134289201Y-87128114D01*
X134137629Y-87354957D01*
X134033225Y-87607011D01*
X133980000Y-87874589D01*
X133745133Y-87874589D01*
X133713965Y-87668762D01*
X133621277Y-87412168D01*
X133560860Y-87299137D01*
X133321993Y-87233612D01*
X132544605Y-88011000D01*
X132185395Y-88011000D01*
X131408007Y-87233612D01*
X131363919Y-87245706D01*
X131347026Y-87190018D01*
X131274327Y-87054007D01*
X131587612Y-87054007D01*
X132365000Y-87831395D01*
X133142388Y-87054007D01*
X133076863Y-86815140D01*
X132829884Y-86699240D01*
X132565040Y-86633750D01*
X132292508Y-86621188D01*
X132022762Y-86662035D01*
X131766168Y-86754723D01*
X131653137Y-86815140D01*
X131587612Y-87054007D01*
X131274327Y-87054007D01*
X131148777Y-86819119D01*
X130881977Y-86494023D01*
X130556881Y-86227223D01*
X130185982Y-86028974D01*
X129783533Y-85906892D01*
X129469882Y-85876000D01*
X126260118Y-85876000D01*
X126012087Y-85900429D01*
X125730000Y-85872646D01*
X125188946Y-85925935D01*
X124668684Y-86083755D01*
X124189208Y-86340040D01*
X123768944Y-86684943D01*
X123424041Y-87105207D01*
X123167756Y-87584683D01*
X123009936Y-88104945D01*
X122970001Y-88510414D01*
X122970000Y-94225421D01*
X122956647Y-94361000D01*
X112166000Y-94361000D01*
X112166000Y-81947279D01*
X112203201Y-81567872D01*
X113081000Y-81567872D01*
X113081000Y-82008128D01*
X113166890Y-82439925D01*
X113335369Y-82846669D01*
X113579962Y-83212729D01*
X113891271Y-83524038D01*
X114257331Y-83768631D01*
X114664075Y-83937110D01*
X115095872Y-84023000D01*
X115536128Y-84023000D01*
X115967925Y-83937110D01*
X116374669Y-83768631D01*
X116740729Y-83524038D01*
X116784046Y-83480721D01*
X126390000Y-83480721D01*
X126390000Y-83901279D01*
X126472047Y-84313756D01*
X126632988Y-84702302D01*
X126866637Y-85051983D01*
X127164017Y-85349363D01*
X127513698Y-85583012D01*
X127902244Y-85743953D01*
X128314721Y-85826000D01*
X128735279Y-85826000D01*
X129147756Y-85743953D01*
X129536302Y-85583012D01*
X129885983Y-85349363D01*
X130183363Y-85051983D01*
X130417012Y-84702302D01*
X130577953Y-84313756D01*
X130660000Y-83901279D01*
X130660000Y-83480721D01*
X134090000Y-83480721D01*
X134090000Y-83901279D01*
X134172047Y-84313756D01*
X134332988Y-84702302D01*
X134566637Y-85051983D01*
X134864017Y-85349363D01*
X135213698Y-85583012D01*
X135602244Y-85743953D01*
X136014721Y-85826000D01*
X136435279Y-85826000D01*
X136847756Y-85743953D01*
X137236302Y-85583012D01*
X137585983Y-85349363D01*
X137883363Y-85051983D01*
X138117012Y-84702302D01*
X138277953Y-84313756D01*
X138360000Y-83901279D01*
X138360000Y-83480721D01*
X138277953Y-83068244D01*
X138117012Y-82679698D01*
X137883363Y-82330017D01*
X137585983Y-82032637D01*
X137236302Y-81798988D01*
X136847756Y-81638047D01*
X136494964Y-81567872D01*
X148081000Y-81567872D01*
X148081000Y-82008128D01*
X148166890Y-82439925D01*
X148335369Y-82846669D01*
X148579962Y-83212729D01*
X148891271Y-83524038D01*
X149257331Y-83768631D01*
X149664075Y-83937110D01*
X150095872Y-84023000D01*
X150536128Y-84023000D01*
X150967925Y-83937110D01*
X151374669Y-83768631D01*
X151740729Y-83524038D01*
X152052038Y-83212729D01*
X152296631Y-82846669D01*
X152465110Y-82439925D01*
X152551000Y-82008128D01*
X152551000Y-81567872D01*
X153081000Y-81567872D01*
X153081000Y-82008128D01*
X153166890Y-82439925D01*
X153335369Y-82846669D01*
X153579962Y-83212729D01*
X153891271Y-83524038D01*
X154257331Y-83768631D01*
X154664075Y-83937110D01*
X155095872Y-84023000D01*
X155536128Y-84023000D01*
X155967925Y-83937110D01*
X156374669Y-83768631D01*
X156740729Y-83524038D01*
X157052038Y-83212729D01*
X157296631Y-82846669D01*
X157465110Y-82439925D01*
X157551000Y-82008128D01*
X157551000Y-81567872D01*
X157465110Y-81136075D01*
X157296631Y-80729331D01*
X157052038Y-80363271D01*
X156740729Y-80051962D01*
X156374669Y-79807369D01*
X155967925Y-79638890D01*
X155536128Y-79553000D01*
X155095872Y-79553000D01*
X154664075Y-79638890D01*
X154257331Y-79807369D01*
X153891271Y-80051962D01*
X153579962Y-80363271D01*
X153335369Y-80729331D01*
X153166890Y-81136075D01*
X153081000Y-81567872D01*
X152551000Y-81567872D01*
X152465110Y-81136075D01*
X152296631Y-80729331D01*
X152052038Y-80363271D01*
X151740729Y-80051962D01*
X151374669Y-79807369D01*
X150967925Y-79638890D01*
X150536128Y-79553000D01*
X150095872Y-79553000D01*
X149664075Y-79638890D01*
X149257331Y-79807369D01*
X148891271Y-80051962D01*
X148579962Y-80363271D01*
X148335369Y-80729331D01*
X148166890Y-81136075D01*
X148081000Y-81567872D01*
X136494964Y-81567872D01*
X136435279Y-81556000D01*
X136014721Y-81556000D01*
X135602244Y-81638047D01*
X135213698Y-81798988D01*
X134864017Y-82032637D01*
X134566637Y-82330017D01*
X134332988Y-82679698D01*
X134172047Y-83068244D01*
X134090000Y-83480721D01*
X130660000Y-83480721D01*
X130577953Y-83068244D01*
X130417012Y-82679698D01*
X130183363Y-82330017D01*
X129885983Y-82032637D01*
X129536302Y-81798988D01*
X129147756Y-81638047D01*
X128735279Y-81556000D01*
X128314721Y-81556000D01*
X127902244Y-81638047D01*
X127513698Y-81798988D01*
X127164017Y-82032637D01*
X126866637Y-82330017D01*
X126632988Y-82679698D01*
X126472047Y-83068244D01*
X126390000Y-83480721D01*
X116784046Y-83480721D01*
X117052038Y-83212729D01*
X117296631Y-82846669D01*
X117465110Y-82439925D01*
X117551000Y-82008128D01*
X117551000Y-81567872D01*
X117465110Y-81136075D01*
X117296631Y-80729331D01*
X117052038Y-80363271D01*
X116740729Y-80051962D01*
X116374669Y-79807369D01*
X115967925Y-79638890D01*
X115536128Y-79553000D01*
X115095872Y-79553000D01*
X114664075Y-79638890D01*
X114257331Y-79807369D01*
X113891271Y-80051962D01*
X113579962Y-80363271D01*
X113335369Y-80729331D01*
X113166890Y-81136075D01*
X113081000Y-81567872D01*
X112203201Y-81567872D01*
X112229096Y-81303778D01*
X112406606Y-80715836D01*
X112694937Y-80173564D01*
X113083094Y-79697636D01*
X113556314Y-79306155D01*
X114096552Y-79014049D01*
X114683244Y-78832437D01*
X115324879Y-78765000D01*
X155288721Y-78765000D01*
X155932222Y-78828096D01*
M02*
