G04 #@! TF.GenerationSoftware,KiCad,Pcbnew,(5.1.6)-1*
G04 #@! TF.CreationDate,2020-11-26T12:39:26+11:00*
G04 #@! TF.ProjectId,HardFault-Interpose-V0,48617264-4661-4756-9c74-2d496e746572,rev?*
G04 #@! TF.SameCoordinates,Original*
G04 #@! TF.FileFunction,Paste,Bot*
G04 #@! TF.FilePolarity,Positive*
%FSLAX46Y46*%
G04 Gerber Fmt 4.6, Leading zero omitted, Abs format (unit mm)*
G04 Created by KiCad (PCBNEW (5.1.6)-1) date 2020-11-26 12:39:26*
%MOMM*%
%LPD*%
G01*
G04 APERTURE LIST*
%ADD10R,2.500000X1.800000*%
G04 APERTURE END LIST*
G36*
G01*
X149409999Y-86810000D02*
X150310001Y-86810000D01*
G75*
G02*
X150560000Y-87059999I0J-249999D01*
G01*
X150560000Y-87710001D01*
G75*
G02*
X150310001Y-87960000I-249999J0D01*
G01*
X149409999Y-87960000D01*
G75*
G02*
X149160000Y-87710001I0J249999D01*
G01*
X149160000Y-87059999D01*
G75*
G02*
X149409999Y-86810000I249999J0D01*
G01*
G37*
G36*
G01*
X149409999Y-84760000D02*
X150310001Y-84760000D01*
G75*
G02*
X150560000Y-85009999I0J-249999D01*
G01*
X150560000Y-85660001D01*
G75*
G02*
X150310001Y-85910000I-249999J0D01*
G01*
X149409999Y-85910000D01*
G75*
G02*
X149160000Y-85660001I0J249999D01*
G01*
X149160000Y-85009999D01*
G75*
G02*
X149409999Y-84760000I249999J0D01*
G01*
G37*
G36*
G01*
X145345999Y-86810000D02*
X146246001Y-86810000D01*
G75*
G02*
X146496000Y-87059999I0J-249999D01*
G01*
X146496000Y-87710001D01*
G75*
G02*
X146246001Y-87960000I-249999J0D01*
G01*
X145345999Y-87960000D01*
G75*
G02*
X145096000Y-87710001I0J249999D01*
G01*
X145096000Y-87059999D01*
G75*
G02*
X145345999Y-86810000I249999J0D01*
G01*
G37*
G36*
G01*
X145345999Y-84760000D02*
X146246001Y-84760000D01*
G75*
G02*
X146496000Y-85009999I0J-249999D01*
G01*
X146496000Y-85660001D01*
G75*
G02*
X146246001Y-85910000I-249999J0D01*
G01*
X145345999Y-85910000D01*
G75*
G02*
X145096000Y-85660001I0J249999D01*
G01*
X145096000Y-85009999D01*
G75*
G02*
X145345999Y-84760000I249999J0D01*
G01*
G37*
G36*
G01*
X141789999Y-84760000D02*
X142690001Y-84760000D01*
G75*
G02*
X142940000Y-85009999I0J-249999D01*
G01*
X142940000Y-85660001D01*
G75*
G02*
X142690001Y-85910000I-249999J0D01*
G01*
X141789999Y-85910000D01*
G75*
G02*
X141540000Y-85660001I0J249999D01*
G01*
X141540000Y-85009999D01*
G75*
G02*
X141789999Y-84760000I249999J0D01*
G01*
G37*
G36*
G01*
X141789999Y-86810000D02*
X142690001Y-86810000D01*
G75*
G02*
X142940000Y-87059999I0J-249999D01*
G01*
X142940000Y-87710001D01*
G75*
G02*
X142690001Y-87960000I-249999J0D01*
G01*
X141789999Y-87960000D01*
G75*
G02*
X141540000Y-87710001I0J249999D01*
G01*
X141540000Y-87059999D01*
G75*
G02*
X141789999Y-86810000I249999J0D01*
G01*
G37*
G36*
G01*
X138487999Y-84760000D02*
X139388001Y-84760000D01*
G75*
G02*
X139638000Y-85009999I0J-249999D01*
G01*
X139638000Y-85660001D01*
G75*
G02*
X139388001Y-85910000I-249999J0D01*
G01*
X138487999Y-85910000D01*
G75*
G02*
X138238000Y-85660001I0J249999D01*
G01*
X138238000Y-85009999D01*
G75*
G02*
X138487999Y-84760000I249999J0D01*
G01*
G37*
G36*
G01*
X138487999Y-86810000D02*
X139388001Y-86810000D01*
G75*
G02*
X139638000Y-87059999I0J-249999D01*
G01*
X139638000Y-87710001D01*
G75*
G02*
X139388001Y-87960000I-249999J0D01*
G01*
X138487999Y-87960000D01*
G75*
G02*
X138238000Y-87710001I0J249999D01*
G01*
X138238000Y-87059999D01*
G75*
G02*
X138487999Y-86810000I249999J0D01*
G01*
G37*
G36*
G01*
X135439999Y-84751000D02*
X136340001Y-84751000D01*
G75*
G02*
X136590000Y-85000999I0J-249999D01*
G01*
X136590000Y-85651001D01*
G75*
G02*
X136340001Y-85901000I-249999J0D01*
G01*
X135439999Y-85901000D01*
G75*
G02*
X135190000Y-85651001I0J249999D01*
G01*
X135190000Y-85000999D01*
G75*
G02*
X135439999Y-84751000I249999J0D01*
G01*
G37*
G36*
G01*
X135439999Y-86801000D02*
X136340001Y-86801000D01*
G75*
G02*
X136590000Y-87050999I0J-249999D01*
G01*
X136590000Y-87701001D01*
G75*
G02*
X136340001Y-87951000I-249999J0D01*
G01*
X135439999Y-87951000D01*
G75*
G02*
X135190000Y-87701001I0J249999D01*
G01*
X135190000Y-87050999D01*
G75*
G02*
X135439999Y-86801000I249999J0D01*
G01*
G37*
D10*
X91059000Y-78232000D03*
X95059000Y-78232000D03*
G36*
G01*
X146441000Y-79842000D02*
X147691000Y-79842000D01*
G75*
G02*
X147941000Y-80092000I0J-250000D01*
G01*
X147941000Y-81017000D01*
G75*
G02*
X147691000Y-81267000I-250000J0D01*
G01*
X146441000Y-81267000D01*
G75*
G02*
X146191000Y-81017000I0J250000D01*
G01*
X146191000Y-80092000D01*
G75*
G02*
X146441000Y-79842000I250000J0D01*
G01*
G37*
G36*
G01*
X146441000Y-82817000D02*
X147691000Y-82817000D01*
G75*
G02*
X147941000Y-83067000I0J-250000D01*
G01*
X147941000Y-83992000D01*
G75*
G02*
X147691000Y-84242000I-250000J0D01*
G01*
X146441000Y-84242000D01*
G75*
G02*
X146191000Y-83992000I0J250000D01*
G01*
X146191000Y-83067000D01*
G75*
G02*
X146441000Y-82817000I250000J0D01*
G01*
G37*
G36*
G01*
X143520000Y-79842000D02*
X144770000Y-79842000D01*
G75*
G02*
X145020000Y-80092000I0J-250000D01*
G01*
X145020000Y-81017000D01*
G75*
G02*
X144770000Y-81267000I-250000J0D01*
G01*
X143520000Y-81267000D01*
G75*
G02*
X143270000Y-81017000I0J250000D01*
G01*
X143270000Y-80092000D01*
G75*
G02*
X143520000Y-79842000I250000J0D01*
G01*
G37*
G36*
G01*
X143520000Y-82817000D02*
X144770000Y-82817000D01*
G75*
G02*
X145020000Y-83067000I0J-250000D01*
G01*
X145020000Y-83992000D01*
G75*
G02*
X144770000Y-84242000I-250000J0D01*
G01*
X143520000Y-84242000D01*
G75*
G02*
X143270000Y-83992000I0J250000D01*
G01*
X143270000Y-83067000D01*
G75*
G02*
X143520000Y-82817000I250000J0D01*
G01*
G37*
G36*
G01*
X140472000Y-79842000D02*
X141722000Y-79842000D01*
G75*
G02*
X141972000Y-80092000I0J-250000D01*
G01*
X141972000Y-81017000D01*
G75*
G02*
X141722000Y-81267000I-250000J0D01*
G01*
X140472000Y-81267000D01*
G75*
G02*
X140222000Y-81017000I0J250000D01*
G01*
X140222000Y-80092000D01*
G75*
G02*
X140472000Y-79842000I250000J0D01*
G01*
G37*
G36*
G01*
X140472000Y-82817000D02*
X141722000Y-82817000D01*
G75*
G02*
X141972000Y-83067000I0J-250000D01*
G01*
X141972000Y-83992000D01*
G75*
G02*
X141722000Y-84242000I-250000J0D01*
G01*
X140472000Y-84242000D01*
G75*
G02*
X140222000Y-83992000I0J250000D01*
G01*
X140222000Y-83067000D01*
G75*
G02*
X140472000Y-82817000I250000J0D01*
G01*
G37*
G36*
G01*
X137424000Y-82817000D02*
X138674000Y-82817000D01*
G75*
G02*
X138924000Y-83067000I0J-250000D01*
G01*
X138924000Y-83992000D01*
G75*
G02*
X138674000Y-84242000I-250000J0D01*
G01*
X137424000Y-84242000D01*
G75*
G02*
X137174000Y-83992000I0J250000D01*
G01*
X137174000Y-83067000D01*
G75*
G02*
X137424000Y-82817000I250000J0D01*
G01*
G37*
G36*
G01*
X137424000Y-79842000D02*
X138674000Y-79842000D01*
G75*
G02*
X138924000Y-80092000I0J-250000D01*
G01*
X138924000Y-81017000D01*
G75*
G02*
X138674000Y-81267000I-250000J0D01*
G01*
X137424000Y-81267000D01*
G75*
G02*
X137174000Y-81017000I0J250000D01*
G01*
X137174000Y-80092000D01*
G75*
G02*
X137424000Y-79842000I250000J0D01*
G01*
G37*
G36*
G01*
X134503000Y-79842000D02*
X135753000Y-79842000D01*
G75*
G02*
X136003000Y-80092000I0J-250000D01*
G01*
X136003000Y-81017000D01*
G75*
G02*
X135753000Y-81267000I-250000J0D01*
G01*
X134503000Y-81267000D01*
G75*
G02*
X134253000Y-81017000I0J250000D01*
G01*
X134253000Y-80092000D01*
G75*
G02*
X134503000Y-79842000I250000J0D01*
G01*
G37*
G36*
G01*
X134503000Y-82817000D02*
X135753000Y-82817000D01*
G75*
G02*
X136003000Y-83067000I0J-250000D01*
G01*
X136003000Y-83992000D01*
G75*
G02*
X135753000Y-84242000I-250000J0D01*
G01*
X134503000Y-84242000D01*
G75*
G02*
X134253000Y-83992000I0J250000D01*
G01*
X134253000Y-83067000D01*
G75*
G02*
X134503000Y-82817000I250000J0D01*
G01*
G37*
G36*
G01*
X99832000Y-77991000D02*
X101082000Y-77991000D01*
G75*
G02*
X101332000Y-78241000I0J-250000D01*
G01*
X101332000Y-79166000D01*
G75*
G02*
X101082000Y-79416000I-250000J0D01*
G01*
X99832000Y-79416000D01*
G75*
G02*
X99582000Y-79166000I0J250000D01*
G01*
X99582000Y-78241000D01*
G75*
G02*
X99832000Y-77991000I250000J0D01*
G01*
G37*
G36*
G01*
X99832000Y-75016000D02*
X101082000Y-75016000D01*
G75*
G02*
X101332000Y-75266000I0J-250000D01*
G01*
X101332000Y-76191000D01*
G75*
G02*
X101082000Y-76441000I-250000J0D01*
G01*
X99832000Y-76441000D01*
G75*
G02*
X99582000Y-76191000I0J250000D01*
G01*
X99582000Y-75266000D01*
G75*
G02*
X99832000Y-75016000I250000J0D01*
G01*
G37*
G36*
G01*
X145171000Y-72657000D02*
X146421000Y-72657000D01*
G75*
G02*
X146671000Y-72907000I0J-250000D01*
G01*
X146671000Y-73832000D01*
G75*
G02*
X146421000Y-74082000I-250000J0D01*
G01*
X145171000Y-74082000D01*
G75*
G02*
X144921000Y-73832000I0J250000D01*
G01*
X144921000Y-72907000D01*
G75*
G02*
X145171000Y-72657000I250000J0D01*
G01*
G37*
G36*
G01*
X145171000Y-69682000D02*
X146421000Y-69682000D01*
G75*
G02*
X146671000Y-69932000I0J-250000D01*
G01*
X146671000Y-70857000D01*
G75*
G02*
X146421000Y-71107000I-250000J0D01*
G01*
X145171000Y-71107000D01*
G75*
G02*
X144921000Y-70857000I0J250000D01*
G01*
X144921000Y-69932000D01*
G75*
G02*
X145171000Y-69682000I250000J0D01*
G01*
G37*
G36*
G01*
X142123000Y-69682000D02*
X143373000Y-69682000D01*
G75*
G02*
X143623000Y-69932000I0J-250000D01*
G01*
X143623000Y-70857000D01*
G75*
G02*
X143373000Y-71107000I-250000J0D01*
G01*
X142123000Y-71107000D01*
G75*
G02*
X141873000Y-70857000I0J250000D01*
G01*
X141873000Y-69932000D01*
G75*
G02*
X142123000Y-69682000I250000J0D01*
G01*
G37*
G36*
G01*
X142123000Y-72657000D02*
X143373000Y-72657000D01*
G75*
G02*
X143623000Y-72907000I0J-250000D01*
G01*
X143623000Y-73832000D01*
G75*
G02*
X143373000Y-74082000I-250000J0D01*
G01*
X142123000Y-74082000D01*
G75*
G02*
X141873000Y-73832000I0J250000D01*
G01*
X141873000Y-72907000D01*
G75*
G02*
X142123000Y-72657000I250000J0D01*
G01*
G37*
G36*
G01*
X139075000Y-72657000D02*
X140325000Y-72657000D01*
G75*
G02*
X140575000Y-72907000I0J-250000D01*
G01*
X140575000Y-73832000D01*
G75*
G02*
X140325000Y-74082000I-250000J0D01*
G01*
X139075000Y-74082000D01*
G75*
G02*
X138825000Y-73832000I0J250000D01*
G01*
X138825000Y-72907000D01*
G75*
G02*
X139075000Y-72657000I250000J0D01*
G01*
G37*
G36*
G01*
X139075000Y-69682000D02*
X140325000Y-69682000D01*
G75*
G02*
X140575000Y-69932000I0J-250000D01*
G01*
X140575000Y-70857000D01*
G75*
G02*
X140325000Y-71107000I-250000J0D01*
G01*
X139075000Y-71107000D01*
G75*
G02*
X138825000Y-70857000I0J250000D01*
G01*
X138825000Y-69932000D01*
G75*
G02*
X139075000Y-69682000I250000J0D01*
G01*
G37*
G36*
G01*
X136027000Y-69682000D02*
X137277000Y-69682000D01*
G75*
G02*
X137527000Y-69932000I0J-250000D01*
G01*
X137527000Y-70857000D01*
G75*
G02*
X137277000Y-71107000I-250000J0D01*
G01*
X136027000Y-71107000D01*
G75*
G02*
X135777000Y-70857000I0J250000D01*
G01*
X135777000Y-69932000D01*
G75*
G02*
X136027000Y-69682000I250000J0D01*
G01*
G37*
G36*
G01*
X136027000Y-72657000D02*
X137277000Y-72657000D01*
G75*
G02*
X137527000Y-72907000I0J-250000D01*
G01*
X137527000Y-73832000D01*
G75*
G02*
X137277000Y-74082000I-250000J0D01*
G01*
X136027000Y-74082000D01*
G75*
G02*
X135777000Y-73832000I0J250000D01*
G01*
X135777000Y-72907000D01*
G75*
G02*
X136027000Y-72657000I250000J0D01*
G01*
G37*
G36*
G01*
X133106000Y-72657000D02*
X134356000Y-72657000D01*
G75*
G02*
X134606000Y-72907000I0J-250000D01*
G01*
X134606000Y-73832000D01*
G75*
G02*
X134356000Y-74082000I-250000J0D01*
G01*
X133106000Y-74082000D01*
G75*
G02*
X132856000Y-73832000I0J250000D01*
G01*
X132856000Y-72907000D01*
G75*
G02*
X133106000Y-72657000I250000J0D01*
G01*
G37*
G36*
G01*
X133106000Y-69682000D02*
X134356000Y-69682000D01*
G75*
G02*
X134606000Y-69932000I0J-250000D01*
G01*
X134606000Y-70857000D01*
G75*
G02*
X134356000Y-71107000I-250000J0D01*
G01*
X133106000Y-71107000D01*
G75*
G02*
X132856000Y-70857000I0J250000D01*
G01*
X132856000Y-69932000D01*
G75*
G02*
X133106000Y-69682000I250000J0D01*
G01*
G37*
M02*
