G04 #@! TF.GenerationSoftware,KiCad,Pcbnew,(5.1.6)-1*
G04 #@! TF.CreationDate,2020-11-26T12:39:26+11:00*
G04 #@! TF.ProjectId,HardFault-Interpose-V0,48617264-4661-4756-9c74-2d496e746572,rev?*
G04 #@! TF.SameCoordinates,Original*
G04 #@! TF.FileFunction,Soldermask,Top*
G04 #@! TF.FilePolarity,Negative*
%FSLAX46Y46*%
G04 Gerber Fmt 4.6, Leading zero omitted, Abs format (unit mm)*
G04 Created by KiCad (PCBNEW (5.1.6)-1) date 2020-11-26 12:39:26*
%MOMM*%
%LPD*%
G01*
G04 APERTURE LIST*
%ADD10C,0.100000*%
G04 APERTURE END LIST*
D10*
G36*
X151061256Y-97749298D02*
G01*
X151167579Y-97770447D01*
X151468042Y-97894903D01*
X151738451Y-98075585D01*
X151968415Y-98305549D01*
X152149097Y-98575958D01*
X152273553Y-98876421D01*
X152337000Y-99195391D01*
X152337000Y-99520609D01*
X152273553Y-99839579D01*
X152149097Y-100140042D01*
X151968415Y-100410451D01*
X151738451Y-100640415D01*
X151468042Y-100821097D01*
X151167579Y-100945553D01*
X151061256Y-100966702D01*
X150848611Y-101009000D01*
X150523389Y-101009000D01*
X150310744Y-100966702D01*
X150204421Y-100945553D01*
X149903958Y-100821097D01*
X149633549Y-100640415D01*
X149403585Y-100410451D01*
X149222903Y-100140042D01*
X149098447Y-99839579D01*
X149035000Y-99520609D01*
X149035000Y-99195391D01*
X149098447Y-98876421D01*
X149222903Y-98575958D01*
X149403585Y-98305549D01*
X149633549Y-98075585D01*
X149903958Y-97894903D01*
X150204421Y-97770447D01*
X150310744Y-97749298D01*
X150523389Y-97707000D01*
X150848611Y-97707000D01*
X151061256Y-97749298D01*
G37*
G36*
X91061256Y-97749298D02*
G01*
X91167579Y-97770447D01*
X91468042Y-97894903D01*
X91738451Y-98075585D01*
X91968415Y-98305549D01*
X92149097Y-98575958D01*
X92273553Y-98876421D01*
X92337000Y-99195391D01*
X92337000Y-99520609D01*
X92273553Y-99839579D01*
X92149097Y-100140042D01*
X91968415Y-100410451D01*
X91738451Y-100640415D01*
X91468042Y-100821097D01*
X91167579Y-100945553D01*
X91061256Y-100966702D01*
X90848611Y-101009000D01*
X90523389Y-101009000D01*
X90310744Y-100966702D01*
X90204421Y-100945553D01*
X89903958Y-100821097D01*
X89633549Y-100640415D01*
X89403585Y-100410451D01*
X89222903Y-100140042D01*
X89098447Y-99839579D01*
X89035000Y-99520609D01*
X89035000Y-99195391D01*
X89098447Y-98876421D01*
X89222903Y-98575958D01*
X89403585Y-98305549D01*
X89633549Y-98075585D01*
X89903958Y-97894903D01*
X90204421Y-97770447D01*
X90310744Y-97749298D01*
X90523389Y-97707000D01*
X90848611Y-97707000D01*
X91061256Y-97749298D01*
G37*
G36*
X107314000Y-98487000D02*
G01*
X104712000Y-98487000D01*
X104712000Y-96585000D01*
X107314000Y-96585000D01*
X107314000Y-98487000D01*
G37*
G36*
X103314000Y-98487000D02*
G01*
X100712000Y-98487000D01*
X100712000Y-96585000D01*
X103314000Y-96585000D01*
X103314000Y-98487000D01*
G37*
G36*
X108204832Y-92581856D02*
G01*
X108392734Y-92619232D01*
X108602203Y-92705997D01*
X108790720Y-92831960D01*
X108951040Y-92992280D01*
X109077003Y-93180797D01*
X109163768Y-93390266D01*
X109208000Y-93612636D01*
X109208000Y-93839364D01*
X109163768Y-94061734D01*
X109077003Y-94271203D01*
X108951040Y-94459720D01*
X108790720Y-94620040D01*
X108602203Y-94746003D01*
X108392734Y-94832768D01*
X108306912Y-94849839D01*
X108170365Y-94877000D01*
X107943635Y-94877000D01*
X107807088Y-94849839D01*
X107721266Y-94832768D01*
X107511797Y-94746003D01*
X107323280Y-94620040D01*
X107162960Y-94459720D01*
X107036997Y-94271203D01*
X106950232Y-94061734D01*
X106906000Y-93839364D01*
X106906000Y-93612636D01*
X106950232Y-93390266D01*
X107036997Y-93180797D01*
X107162960Y-92992280D01*
X107323280Y-92831960D01*
X107511797Y-92705997D01*
X107721266Y-92619232D01*
X107909168Y-92581856D01*
X107943635Y-92575000D01*
X108170365Y-92575000D01*
X108204832Y-92581856D01*
G37*
G36*
X101390104Y-92580792D02*
G01*
X101440748Y-92596154D01*
X101487420Y-92621101D01*
X101528327Y-92654673D01*
X101561899Y-92695580D01*
X101586846Y-92742252D01*
X101602208Y-92792896D01*
X101608000Y-92851701D01*
X101608000Y-94600299D01*
X101602208Y-94659104D01*
X101586846Y-94709748D01*
X101561899Y-94756420D01*
X101528327Y-94797327D01*
X101487420Y-94830899D01*
X101440748Y-94855846D01*
X101390104Y-94871208D01*
X101331299Y-94877000D01*
X99582701Y-94877000D01*
X99523896Y-94871208D01*
X99473252Y-94855846D01*
X99426580Y-94830899D01*
X99385673Y-94797327D01*
X99352101Y-94756420D01*
X99327154Y-94709748D01*
X99311792Y-94659104D01*
X99306000Y-94600299D01*
X99306000Y-92851701D01*
X99311792Y-92792896D01*
X99327154Y-92742252D01*
X99352101Y-92695580D01*
X99385673Y-92654673D01*
X99426580Y-92621101D01*
X99473252Y-92596154D01*
X99523896Y-92580792D01*
X99582701Y-92575000D01*
X101331299Y-92575000D01*
X101390104Y-92580792D01*
G37*
G36*
X126611644Y-91030273D02*
G01*
X126807017Y-91089539D01*
X126875737Y-91110385D01*
X127105202Y-91233037D01*
X127119120Y-91240476D01*
X127160798Y-91274681D01*
X127332451Y-91415551D01*
X127475093Y-91589361D01*
X127507526Y-91628881D01*
X127507527Y-91628883D01*
X127637617Y-91872264D01*
X127658463Y-91940984D01*
X127717729Y-92136357D01*
X127738001Y-92342183D01*
X127738001Y-93079818D01*
X127717729Y-93285644D01*
X127658462Y-93481019D01*
X127637617Y-93549738D01*
X127562079Y-93691059D01*
X127507526Y-93793121D01*
X127479123Y-93827730D01*
X127332451Y-94006451D01*
X127174692Y-94135919D01*
X127119121Y-94181526D01*
X127119119Y-94181527D01*
X126875738Y-94311617D01*
X126807018Y-94332463D01*
X126611645Y-94391729D01*
X126337001Y-94418779D01*
X126062358Y-94391729D01*
X125866985Y-94332463D01*
X125798265Y-94311617D01*
X125554884Y-94181527D01*
X125554882Y-94181526D01*
X125501272Y-94137529D01*
X125341551Y-94006451D01*
X125194879Y-93827730D01*
X125166476Y-93793121D01*
X125111923Y-93691059D01*
X125036385Y-93549738D01*
X124990366Y-93398033D01*
X124956273Y-93285645D01*
X124936001Y-93079819D01*
X124936001Y-92342184D01*
X124956273Y-92136358D01*
X125036384Y-91872269D01*
X125036385Y-91872265D01*
X125166475Y-91628884D01*
X125166476Y-91628882D01*
X125200681Y-91587204D01*
X125341551Y-91415551D01*
X125515361Y-91272909D01*
X125554881Y-91240476D01*
X125568799Y-91233037D01*
X125798264Y-91110385D01*
X125866984Y-91089539D01*
X126062357Y-91030273D01*
X126337001Y-91003223D01*
X126611644Y-91030273D01*
G37*
G36*
X122411644Y-91030273D02*
G01*
X122607017Y-91089539D01*
X122675737Y-91110385D01*
X122905202Y-91233037D01*
X122919120Y-91240476D01*
X122960798Y-91274681D01*
X123132451Y-91415551D01*
X123275093Y-91589361D01*
X123307526Y-91628881D01*
X123307527Y-91628883D01*
X123437617Y-91872264D01*
X123458463Y-91940984D01*
X123517729Y-92136357D01*
X123538001Y-92342183D01*
X123538001Y-93079818D01*
X123517729Y-93285644D01*
X123458462Y-93481019D01*
X123437617Y-93549738D01*
X123362079Y-93691059D01*
X123307526Y-93793121D01*
X123279123Y-93827730D01*
X123132451Y-94006451D01*
X122974692Y-94135919D01*
X122919121Y-94181526D01*
X122919119Y-94181527D01*
X122675738Y-94311617D01*
X122607018Y-94332463D01*
X122411645Y-94391729D01*
X122137001Y-94418779D01*
X121862358Y-94391729D01*
X121666985Y-94332463D01*
X121598265Y-94311617D01*
X121354884Y-94181527D01*
X121354882Y-94181526D01*
X121301272Y-94137529D01*
X121141551Y-94006451D01*
X120994879Y-93827730D01*
X120966476Y-93793121D01*
X120911923Y-93691059D01*
X120836385Y-93549738D01*
X120790366Y-93398033D01*
X120756273Y-93285645D01*
X120736001Y-93079819D01*
X120736001Y-92342184D01*
X120756273Y-92136358D01*
X120836384Y-91872269D01*
X120836385Y-91872265D01*
X120966475Y-91628884D01*
X120966476Y-91628882D01*
X121000681Y-91587204D01*
X121141551Y-91415551D01*
X121315361Y-91272909D01*
X121354881Y-91240476D01*
X121368799Y-91233037D01*
X121598264Y-91110385D01*
X121666984Y-91089539D01*
X121862357Y-91030273D01*
X122137001Y-91003223D01*
X122411644Y-91030273D01*
G37*
G36*
X114961644Y-90930273D02*
G01*
X115157017Y-90989539D01*
X115225737Y-91010385D01*
X115455202Y-91133037D01*
X115469120Y-91140476D01*
X115510798Y-91174681D01*
X115682451Y-91315551D01*
X115825093Y-91489361D01*
X115857526Y-91528881D01*
X115857527Y-91528883D01*
X115987617Y-91772264D01*
X116008463Y-91840984D01*
X116067729Y-92036357D01*
X116067729Y-92036359D01*
X116088001Y-92242181D01*
X116088001Y-92979820D01*
X116078152Y-93079818D01*
X116067729Y-93185644D01*
X116037394Y-93285644D01*
X115987617Y-93449738D01*
X115900546Y-93612636D01*
X115857526Y-93693121D01*
X115851011Y-93701059D01*
X115682451Y-93906451D01*
X115524692Y-94035919D01*
X115469121Y-94081526D01*
X115469119Y-94081527D01*
X115225738Y-94211617D01*
X115188213Y-94223000D01*
X114961645Y-94291729D01*
X114687001Y-94318779D01*
X114412358Y-94291729D01*
X114185790Y-94223000D01*
X114148265Y-94211617D01*
X113904884Y-94081527D01*
X113904882Y-94081526D01*
X113863204Y-94047321D01*
X113691551Y-93906451D01*
X113522991Y-93701059D01*
X113516476Y-93693121D01*
X113473456Y-93612636D01*
X113386385Y-93449738D01*
X113336608Y-93285644D01*
X113306273Y-93185645D01*
X113288310Y-93003265D01*
X113286001Y-92979821D01*
X113286001Y-92242182D01*
X113306273Y-92036360D01*
X113306273Y-92036358D01*
X113386384Y-91772269D01*
X113386385Y-91772265D01*
X113516475Y-91528884D01*
X113516476Y-91528882D01*
X113550681Y-91487204D01*
X113691551Y-91315551D01*
X113865361Y-91172909D01*
X113904881Y-91140476D01*
X113918799Y-91133037D01*
X114148264Y-91010385D01*
X114216984Y-90989539D01*
X114412357Y-90930273D01*
X114687001Y-90903223D01*
X114961644Y-90930273D01*
G37*
G36*
X96914536Y-92742252D02*
G01*
X97003059Y-92759860D01*
X97139732Y-92816472D01*
X97262735Y-92898660D01*
X97367340Y-93003265D01*
X97449528Y-93126268D01*
X97449529Y-93126270D01*
X97474123Y-93185645D01*
X97506140Y-93262941D01*
X97535000Y-93408033D01*
X97535000Y-93555967D01*
X97506140Y-93701059D01*
X97449528Y-93837732D01*
X97367340Y-93960735D01*
X97262735Y-94065340D01*
X97139732Y-94147528D01*
X97139731Y-94147529D01*
X97139730Y-94147529D01*
X97003059Y-94204140D01*
X96857968Y-94233000D01*
X96710032Y-94233000D01*
X96564941Y-94204140D01*
X96428270Y-94147529D01*
X96428269Y-94147529D01*
X96428268Y-94147528D01*
X96305265Y-94065340D01*
X96200660Y-93960735D01*
X96118472Y-93837732D01*
X96061860Y-93701059D01*
X96033000Y-93555967D01*
X96033000Y-93408033D01*
X96061860Y-93262941D01*
X96093877Y-93185645D01*
X96118471Y-93126270D01*
X96118472Y-93126268D01*
X96200660Y-93003265D01*
X96305265Y-92898660D01*
X96428268Y-92816472D01*
X96564941Y-92759860D01*
X96653464Y-92742252D01*
X96710032Y-92731000D01*
X96857968Y-92731000D01*
X96914536Y-92742252D01*
G37*
G36*
X89334810Y-92742252D02*
G01*
X89373059Y-92749860D01*
X89509732Y-92806472D01*
X89632735Y-92888660D01*
X89737340Y-92993265D01*
X89795174Y-93079820D01*
X89819529Y-93116270D01*
X89876140Y-93252941D01*
X89905000Y-93398032D01*
X89905000Y-93545968D01*
X89876140Y-93691059D01*
X89833865Y-93793121D01*
X89819528Y-93827732D01*
X89737340Y-93950735D01*
X89632735Y-94055340D01*
X89509732Y-94137528D01*
X89509731Y-94137529D01*
X89509730Y-94137529D01*
X89373059Y-94194140D01*
X89227968Y-94223000D01*
X89080032Y-94223000D01*
X88934941Y-94194140D01*
X88798270Y-94137529D01*
X88798269Y-94137529D01*
X88798268Y-94137528D01*
X88675265Y-94055340D01*
X88570660Y-93950735D01*
X88488472Y-93827732D01*
X88474136Y-93793121D01*
X88431860Y-93691059D01*
X88403000Y-93545968D01*
X88403000Y-93398032D01*
X88431860Y-93252941D01*
X88488471Y-93116270D01*
X88512826Y-93079820D01*
X88570660Y-92993265D01*
X88675265Y-92888660D01*
X88798268Y-92806472D01*
X88934941Y-92749860D01*
X88973190Y-92742252D01*
X89080032Y-92721000D01*
X89227968Y-92721000D01*
X89334810Y-92742252D01*
G37*
G36*
X126611644Y-86830273D02*
G01*
X126807017Y-86889539D01*
X126875737Y-86910385D01*
X127078625Y-87018831D01*
X127119120Y-87040476D01*
X127154420Y-87069446D01*
X127332451Y-87215551D01*
X127475093Y-87389361D01*
X127507526Y-87428881D01*
X127507527Y-87428883D01*
X127637617Y-87672264D01*
X127639921Y-87679860D01*
X127717729Y-87936357D01*
X127738001Y-88142183D01*
X127738001Y-88879818D01*
X127717729Y-89085644D01*
X127658462Y-89281019D01*
X127637617Y-89349738D01*
X127514965Y-89579203D01*
X127507526Y-89593121D01*
X127461919Y-89648692D01*
X127332451Y-89806451D01*
X127174692Y-89935919D01*
X127119121Y-89981526D01*
X127119119Y-89981527D01*
X126875738Y-90111617D01*
X126807018Y-90132463D01*
X126611645Y-90191729D01*
X126337001Y-90218779D01*
X126062358Y-90191729D01*
X125866985Y-90132463D01*
X125798265Y-90111617D01*
X125554884Y-89981527D01*
X125554882Y-89981526D01*
X125513204Y-89947321D01*
X125341551Y-89806451D01*
X125198909Y-89632641D01*
X125166476Y-89593121D01*
X125159037Y-89579203D01*
X125036385Y-89349738D01*
X124976705Y-89153000D01*
X124956273Y-89085645D01*
X124936001Y-88879819D01*
X124936001Y-88142184D01*
X124956273Y-87936358D01*
X125036384Y-87672269D01*
X125036385Y-87672265D01*
X125166475Y-87428884D01*
X125166476Y-87428882D01*
X125200681Y-87387204D01*
X125341551Y-87215551D01*
X125515361Y-87072909D01*
X125554881Y-87040476D01*
X125595376Y-87018831D01*
X125798264Y-86910385D01*
X125866984Y-86889539D01*
X126062357Y-86830273D01*
X126337001Y-86803223D01*
X126611644Y-86830273D01*
G37*
G36*
X123411032Y-86813622D02*
G01*
X123440487Y-86822557D01*
X123467624Y-86837063D01*
X123491415Y-86856587D01*
X123510939Y-86880378D01*
X123525445Y-86907515D01*
X123534380Y-86936970D01*
X123538001Y-86973735D01*
X123538001Y-90048267D01*
X123534380Y-90085032D01*
X123525445Y-90114487D01*
X123510939Y-90141624D01*
X123491415Y-90165415D01*
X123467624Y-90184939D01*
X123440487Y-90199445D01*
X123411032Y-90208380D01*
X123374267Y-90212001D01*
X120899735Y-90212001D01*
X120862970Y-90208380D01*
X120833515Y-90199445D01*
X120806378Y-90184939D01*
X120782587Y-90165415D01*
X120763063Y-90141624D01*
X120748557Y-90114487D01*
X120739622Y-90085032D01*
X120736001Y-90048267D01*
X120736001Y-86973735D01*
X120739622Y-86936970D01*
X120748557Y-86907515D01*
X120763063Y-86880378D01*
X120782587Y-86856587D01*
X120806378Y-86837063D01*
X120833515Y-86822557D01*
X120862970Y-86813622D01*
X120899735Y-86810001D01*
X123374267Y-86810001D01*
X123411032Y-86813622D01*
G37*
G36*
X115961032Y-86713622D02*
G01*
X115990487Y-86722557D01*
X116017624Y-86737063D01*
X116041415Y-86756587D01*
X116060939Y-86780378D01*
X116075445Y-86807515D01*
X116084380Y-86836970D01*
X116088001Y-86873735D01*
X116088001Y-89948267D01*
X116084380Y-89985032D01*
X116075445Y-90014487D01*
X116060939Y-90041624D01*
X116041415Y-90065415D01*
X116017624Y-90084939D01*
X115990487Y-90099445D01*
X115961032Y-90108380D01*
X115924267Y-90112001D01*
X113449735Y-90112001D01*
X113412970Y-90108380D01*
X113383515Y-90099445D01*
X113356378Y-90084939D01*
X113332587Y-90065415D01*
X113313063Y-90041624D01*
X113298557Y-90014487D01*
X113289622Y-89985032D01*
X113286001Y-89948267D01*
X113286001Y-86873735D01*
X113289622Y-86836970D01*
X113298557Y-86807515D01*
X113313063Y-86780378D01*
X113332587Y-86756587D01*
X113356378Y-86737063D01*
X113383515Y-86722557D01*
X113412970Y-86713622D01*
X113449735Y-86710001D01*
X115924267Y-86710001D01*
X115961032Y-86713622D01*
G37*
G36*
X148345000Y-89412000D02*
G01*
X147343000Y-89412000D01*
X147343000Y-88510000D01*
X148345000Y-88510000D01*
X148345000Y-89412000D01*
G37*
G36*
X144789000Y-89412000D02*
G01*
X143787000Y-89412000D01*
X143787000Y-88510000D01*
X144789000Y-88510000D01*
X144789000Y-89412000D01*
G37*
G36*
X141233000Y-89412000D02*
G01*
X140231000Y-89412000D01*
X140231000Y-88510000D01*
X141233000Y-88510000D01*
X141233000Y-89412000D01*
G37*
G36*
X137677000Y-89412000D02*
G01*
X136675000Y-89412000D01*
X136675000Y-88510000D01*
X137677000Y-88510000D01*
X137677000Y-89412000D01*
G37*
G36*
X134121000Y-89412000D02*
G01*
X133119000Y-89412000D01*
X133119000Y-88510000D01*
X134121000Y-88510000D01*
X134121000Y-89412000D01*
G37*
G36*
X97003059Y-87679860D02*
G01*
X97091446Y-87716471D01*
X97139732Y-87736472D01*
X97262735Y-87818660D01*
X97367340Y-87923265D01*
X97449528Y-88046268D01*
X97506140Y-88182941D01*
X97535000Y-88328033D01*
X97535000Y-88475967D01*
X97506140Y-88621059D01*
X97449528Y-88757732D01*
X97367340Y-88880735D01*
X97262735Y-88985340D01*
X97139732Y-89067528D01*
X97139731Y-89067529D01*
X97139730Y-89067529D01*
X97003059Y-89124140D01*
X96857968Y-89153000D01*
X96710032Y-89153000D01*
X96564941Y-89124140D01*
X96428270Y-89067529D01*
X96428269Y-89067529D01*
X96428268Y-89067528D01*
X96305265Y-88985340D01*
X96200660Y-88880735D01*
X96118472Y-88757732D01*
X96061860Y-88621059D01*
X96033000Y-88475967D01*
X96033000Y-88328033D01*
X96061860Y-88182941D01*
X96118472Y-88046268D01*
X96200660Y-87923265D01*
X96305265Y-87818660D01*
X96428268Y-87736472D01*
X96476555Y-87716471D01*
X96564941Y-87679860D01*
X96710032Y-87651000D01*
X96857968Y-87651000D01*
X97003059Y-87679860D01*
G37*
G36*
X89373059Y-87659860D02*
G01*
X89403015Y-87672268D01*
X89509732Y-87716472D01*
X89632735Y-87798660D01*
X89737340Y-87903265D01*
X89759453Y-87936360D01*
X89819529Y-88026270D01*
X89876140Y-88162941D01*
X89905000Y-88308032D01*
X89905000Y-88455968D01*
X89876140Y-88601059D01*
X89819528Y-88737732D01*
X89737340Y-88860735D01*
X89632735Y-88965340D01*
X89509732Y-89047528D01*
X89509731Y-89047529D01*
X89509730Y-89047529D01*
X89373059Y-89104140D01*
X89227968Y-89133000D01*
X89080032Y-89133000D01*
X88934941Y-89104140D01*
X88798270Y-89047529D01*
X88798269Y-89047529D01*
X88798268Y-89047528D01*
X88675265Y-88965340D01*
X88570660Y-88860735D01*
X88488472Y-88737732D01*
X88431860Y-88601059D01*
X88403000Y-88455968D01*
X88403000Y-88308032D01*
X88431860Y-88162941D01*
X88488471Y-88026270D01*
X88548547Y-87936360D01*
X88570660Y-87903265D01*
X88675265Y-87798660D01*
X88798268Y-87716472D01*
X88904986Y-87672268D01*
X88934941Y-87659860D01*
X89080032Y-87631000D01*
X89227968Y-87631000D01*
X89373059Y-87659860D01*
G37*
G36*
X143233000Y-88462000D02*
G01*
X142231000Y-88462000D01*
X142231000Y-87560000D01*
X143233000Y-87560000D01*
X143233000Y-88462000D01*
G37*
G36*
X136121000Y-88462000D02*
G01*
X135119000Y-88462000D01*
X135119000Y-87560000D01*
X136121000Y-87560000D01*
X136121000Y-88462000D01*
G37*
G36*
X150345000Y-88462000D02*
G01*
X149343000Y-88462000D01*
X149343000Y-87560000D01*
X150345000Y-87560000D01*
X150345000Y-88462000D01*
G37*
G36*
X146789000Y-88462000D02*
G01*
X145787000Y-88462000D01*
X145787000Y-87560000D01*
X146789000Y-87560000D01*
X146789000Y-88462000D01*
G37*
G36*
X139677000Y-88462000D02*
G01*
X138675000Y-88462000D01*
X138675000Y-87560000D01*
X139677000Y-87560000D01*
X139677000Y-88462000D01*
G37*
G36*
X137677000Y-87512000D02*
G01*
X136675000Y-87512000D01*
X136675000Y-86610000D01*
X137677000Y-86610000D01*
X137677000Y-87512000D01*
G37*
G36*
X134121000Y-87512000D02*
G01*
X133119000Y-87512000D01*
X133119000Y-86610000D01*
X134121000Y-86610000D01*
X134121000Y-87512000D01*
G37*
G36*
X141233000Y-87512000D02*
G01*
X140231000Y-87512000D01*
X140231000Y-86610000D01*
X141233000Y-86610000D01*
X141233000Y-87512000D01*
G37*
G36*
X144789000Y-87512000D02*
G01*
X143787000Y-87512000D01*
X143787000Y-86610000D01*
X144789000Y-86610000D01*
X144789000Y-87512000D01*
G37*
G36*
X148345000Y-87512000D02*
G01*
X147343000Y-87512000D01*
X147343000Y-86610000D01*
X148345000Y-86610000D01*
X148345000Y-87512000D01*
G37*
G36*
X144920562Y-84421181D02*
G01*
X144955481Y-84431774D01*
X144987663Y-84448976D01*
X145015873Y-84472127D01*
X145039024Y-84500337D01*
X145056226Y-84532519D01*
X145066819Y-84567438D01*
X145071000Y-84609895D01*
X145071000Y-85751105D01*
X145066819Y-85793562D01*
X145056226Y-85828481D01*
X145039024Y-85860663D01*
X145015873Y-85888873D01*
X144987663Y-85912024D01*
X144955481Y-85929226D01*
X144920562Y-85939819D01*
X144878105Y-85944000D01*
X143411895Y-85944000D01*
X143369438Y-85939819D01*
X143334519Y-85929226D01*
X143302337Y-85912024D01*
X143274127Y-85888873D01*
X143250976Y-85860663D01*
X143233774Y-85828481D01*
X143223181Y-85793562D01*
X143219000Y-85751105D01*
X143219000Y-84609895D01*
X143223181Y-84567438D01*
X143233774Y-84532519D01*
X143250976Y-84500337D01*
X143274127Y-84472127D01*
X143302337Y-84448976D01*
X143334519Y-84431774D01*
X143369438Y-84421181D01*
X143411895Y-84417000D01*
X144878105Y-84417000D01*
X144920562Y-84421181D01*
G37*
G36*
X135903562Y-84421181D02*
G01*
X135938481Y-84431774D01*
X135970663Y-84448976D01*
X135998873Y-84472127D01*
X136022024Y-84500337D01*
X136039226Y-84532519D01*
X136049819Y-84567438D01*
X136054000Y-84609895D01*
X136054000Y-85751105D01*
X136049819Y-85793562D01*
X136039226Y-85828481D01*
X136022024Y-85860663D01*
X135998873Y-85888873D01*
X135970663Y-85912024D01*
X135938481Y-85929226D01*
X135903562Y-85939819D01*
X135861105Y-85944000D01*
X134394895Y-85944000D01*
X134352438Y-85939819D01*
X134317519Y-85929226D01*
X134285337Y-85912024D01*
X134257127Y-85888873D01*
X134233976Y-85860663D01*
X134216774Y-85828481D01*
X134206181Y-85793562D01*
X134202000Y-85751105D01*
X134202000Y-84609895D01*
X134206181Y-84567438D01*
X134216774Y-84532519D01*
X134233976Y-84500337D01*
X134257127Y-84472127D01*
X134285337Y-84448976D01*
X134317519Y-84431774D01*
X134352438Y-84421181D01*
X134394895Y-84417000D01*
X135861105Y-84417000D01*
X135903562Y-84421181D01*
G37*
G36*
X138824562Y-84421181D02*
G01*
X138859481Y-84431774D01*
X138891663Y-84448976D01*
X138919873Y-84472127D01*
X138943024Y-84500337D01*
X138960226Y-84532519D01*
X138970819Y-84567438D01*
X138975000Y-84609895D01*
X138975000Y-85751105D01*
X138970819Y-85793562D01*
X138960226Y-85828481D01*
X138943024Y-85860663D01*
X138919873Y-85888873D01*
X138891663Y-85912024D01*
X138859481Y-85929226D01*
X138824562Y-85939819D01*
X138782105Y-85944000D01*
X137315895Y-85944000D01*
X137273438Y-85939819D01*
X137238519Y-85929226D01*
X137206337Y-85912024D01*
X137178127Y-85888873D01*
X137154976Y-85860663D01*
X137137774Y-85828481D01*
X137127181Y-85793562D01*
X137123000Y-85751105D01*
X137123000Y-84609895D01*
X137127181Y-84567438D01*
X137137774Y-84532519D01*
X137154976Y-84500337D01*
X137178127Y-84472127D01*
X137206337Y-84448976D01*
X137238519Y-84431774D01*
X137273438Y-84421181D01*
X137315895Y-84417000D01*
X138782105Y-84417000D01*
X138824562Y-84421181D01*
G37*
G36*
X141872562Y-84421181D02*
G01*
X141907481Y-84431774D01*
X141939663Y-84448976D01*
X141967873Y-84472127D01*
X141991024Y-84500337D01*
X142008226Y-84532519D01*
X142018819Y-84567438D01*
X142023000Y-84609895D01*
X142023000Y-85751105D01*
X142018819Y-85793562D01*
X142008226Y-85828481D01*
X141991024Y-85860663D01*
X141967873Y-85888873D01*
X141939663Y-85912024D01*
X141907481Y-85929226D01*
X141872562Y-85939819D01*
X141830105Y-85944000D01*
X140363895Y-85944000D01*
X140321438Y-85939819D01*
X140286519Y-85929226D01*
X140254337Y-85912024D01*
X140226127Y-85888873D01*
X140202976Y-85860663D01*
X140185774Y-85828481D01*
X140175181Y-85793562D01*
X140171000Y-85751105D01*
X140171000Y-84609895D01*
X140175181Y-84567438D01*
X140185774Y-84532519D01*
X140202976Y-84500337D01*
X140226127Y-84472127D01*
X140254337Y-84448976D01*
X140286519Y-84431774D01*
X140321438Y-84421181D01*
X140363895Y-84417000D01*
X141830105Y-84417000D01*
X141872562Y-84421181D01*
G37*
G36*
X147841562Y-84421181D02*
G01*
X147876481Y-84431774D01*
X147908663Y-84448976D01*
X147936873Y-84472127D01*
X147960024Y-84500337D01*
X147977226Y-84532519D01*
X147987819Y-84567438D01*
X147992000Y-84609895D01*
X147992000Y-85751105D01*
X147987819Y-85793562D01*
X147977226Y-85828481D01*
X147960024Y-85860663D01*
X147936873Y-85888873D01*
X147908663Y-85912024D01*
X147876481Y-85929226D01*
X147841562Y-85939819D01*
X147799105Y-85944000D01*
X146332895Y-85944000D01*
X146290438Y-85939819D01*
X146255519Y-85929226D01*
X146223337Y-85912024D01*
X146195127Y-85888873D01*
X146171976Y-85860663D01*
X146154774Y-85828481D01*
X146144181Y-85793562D01*
X146140000Y-85751105D01*
X146140000Y-84609895D01*
X146144181Y-84567438D01*
X146154774Y-84532519D01*
X146171976Y-84500337D01*
X146195127Y-84472127D01*
X146223337Y-84448976D01*
X146255519Y-84431774D01*
X146290438Y-84421181D01*
X146332895Y-84417000D01*
X147799105Y-84417000D01*
X147841562Y-84421181D01*
G37*
G36*
X108436487Y-82274996D02*
G01*
X108673253Y-82373068D01*
X108673255Y-82373069D01*
X108886339Y-82515447D01*
X109067553Y-82696661D01*
X109172337Y-82853481D01*
X109209932Y-82909747D01*
X109308004Y-83146513D01*
X109358000Y-83397861D01*
X109358000Y-83654139D01*
X109308004Y-83905487D01*
X109209932Y-84142253D01*
X109209931Y-84142255D01*
X109067553Y-84355339D01*
X108886339Y-84536553D01*
X108673255Y-84678931D01*
X108673254Y-84678932D01*
X108673253Y-84678932D01*
X108436487Y-84777004D01*
X108185139Y-84827000D01*
X107928861Y-84827000D01*
X107677513Y-84777004D01*
X107440747Y-84678932D01*
X107440746Y-84678932D01*
X107440745Y-84678931D01*
X107227661Y-84536553D01*
X107046447Y-84355339D01*
X106904069Y-84142255D01*
X106904068Y-84142253D01*
X106805996Y-83905487D01*
X106756000Y-83654139D01*
X106756000Y-83397861D01*
X106805996Y-83146513D01*
X106904068Y-82909747D01*
X106941664Y-82853481D01*
X107046447Y-82696661D01*
X107227661Y-82515447D01*
X107440745Y-82373069D01*
X107440747Y-82373068D01*
X107677513Y-82274996D01*
X107928861Y-82225000D01*
X108185139Y-82225000D01*
X108436487Y-82274996D01*
G37*
G36*
X96993059Y-82589860D02*
G01*
X97129732Y-82646472D01*
X97252735Y-82728660D01*
X97357340Y-82833265D01*
X97439528Y-82956268D01*
X97439529Y-82956270D01*
X97496140Y-83092941D01*
X97525000Y-83238032D01*
X97525000Y-83385968D01*
X97496140Y-83531059D01*
X97445159Y-83654139D01*
X97439528Y-83667732D01*
X97357340Y-83790735D01*
X97252735Y-83895340D01*
X97129732Y-83977528D01*
X97129731Y-83977529D01*
X97129730Y-83977529D01*
X96993059Y-84034140D01*
X96847968Y-84063000D01*
X96700032Y-84063000D01*
X96554941Y-84034140D01*
X96418270Y-83977529D01*
X96418269Y-83977529D01*
X96418268Y-83977528D01*
X96295265Y-83895340D01*
X96190660Y-83790735D01*
X96108472Y-83667732D01*
X96102842Y-83654139D01*
X96051860Y-83531059D01*
X96023000Y-83385968D01*
X96023000Y-83238032D01*
X96051860Y-83092941D01*
X96108471Y-82956270D01*
X96108472Y-82956268D01*
X96190660Y-82833265D01*
X96295265Y-82728660D01*
X96418268Y-82646472D01*
X96554941Y-82589860D01*
X96700032Y-82561000D01*
X96847968Y-82561000D01*
X96993059Y-82589860D01*
G37*
G36*
X89373059Y-82589860D02*
G01*
X89509732Y-82646472D01*
X89632735Y-82728660D01*
X89737340Y-82833265D01*
X89819528Y-82956268D01*
X89819529Y-82956270D01*
X89876140Y-83092941D01*
X89905000Y-83238032D01*
X89905000Y-83385968D01*
X89876140Y-83531059D01*
X89825159Y-83654139D01*
X89819528Y-83667732D01*
X89737340Y-83790735D01*
X89632735Y-83895340D01*
X89509732Y-83977528D01*
X89509731Y-83977529D01*
X89509730Y-83977529D01*
X89373059Y-84034140D01*
X89227968Y-84063000D01*
X89080032Y-84063000D01*
X88934941Y-84034140D01*
X88798270Y-83977529D01*
X88798269Y-83977529D01*
X88798268Y-83977528D01*
X88675265Y-83895340D01*
X88570660Y-83790735D01*
X88488472Y-83667732D01*
X88482842Y-83654139D01*
X88431860Y-83531059D01*
X88403000Y-83385968D01*
X88403000Y-83238032D01*
X88431860Y-83092941D01*
X88488471Y-82956270D01*
X88488472Y-82956268D01*
X88570660Y-82833265D01*
X88675265Y-82728660D01*
X88798268Y-82646472D01*
X88934941Y-82589860D01*
X89080032Y-82561000D01*
X89227968Y-82561000D01*
X89373059Y-82589860D01*
G37*
G36*
X135903562Y-81446181D02*
G01*
X135938481Y-81456774D01*
X135970663Y-81473976D01*
X135998873Y-81497127D01*
X136022024Y-81525337D01*
X136039226Y-81557519D01*
X136049819Y-81592438D01*
X136054000Y-81634895D01*
X136054000Y-82776105D01*
X136049819Y-82818562D01*
X136039226Y-82853481D01*
X136022024Y-82885663D01*
X135998873Y-82913873D01*
X135970663Y-82937024D01*
X135938481Y-82954226D01*
X135903562Y-82964819D01*
X135861105Y-82969000D01*
X134394895Y-82969000D01*
X134352438Y-82964819D01*
X134317519Y-82954226D01*
X134285337Y-82937024D01*
X134257127Y-82913873D01*
X134233976Y-82885663D01*
X134216774Y-82853481D01*
X134206181Y-82818562D01*
X134202000Y-82776105D01*
X134202000Y-81634895D01*
X134206181Y-81592438D01*
X134216774Y-81557519D01*
X134233976Y-81525337D01*
X134257127Y-81497127D01*
X134285337Y-81473976D01*
X134317519Y-81456774D01*
X134352438Y-81446181D01*
X134394895Y-81442000D01*
X135861105Y-81442000D01*
X135903562Y-81446181D01*
G37*
G36*
X138824562Y-81446181D02*
G01*
X138859481Y-81456774D01*
X138891663Y-81473976D01*
X138919873Y-81497127D01*
X138943024Y-81525337D01*
X138960226Y-81557519D01*
X138970819Y-81592438D01*
X138975000Y-81634895D01*
X138975000Y-82776105D01*
X138970819Y-82818562D01*
X138960226Y-82853481D01*
X138943024Y-82885663D01*
X138919873Y-82913873D01*
X138891663Y-82937024D01*
X138859481Y-82954226D01*
X138824562Y-82964819D01*
X138782105Y-82969000D01*
X137315895Y-82969000D01*
X137273438Y-82964819D01*
X137238519Y-82954226D01*
X137206337Y-82937024D01*
X137178127Y-82913873D01*
X137154976Y-82885663D01*
X137137774Y-82853481D01*
X137127181Y-82818562D01*
X137123000Y-82776105D01*
X137123000Y-81634895D01*
X137127181Y-81592438D01*
X137137774Y-81557519D01*
X137154976Y-81525337D01*
X137178127Y-81497127D01*
X137206337Y-81473976D01*
X137238519Y-81456774D01*
X137273438Y-81446181D01*
X137315895Y-81442000D01*
X138782105Y-81442000D01*
X138824562Y-81446181D01*
G37*
G36*
X144920562Y-81446181D02*
G01*
X144955481Y-81456774D01*
X144987663Y-81473976D01*
X145015873Y-81497127D01*
X145039024Y-81525337D01*
X145056226Y-81557519D01*
X145066819Y-81592438D01*
X145071000Y-81634895D01*
X145071000Y-82776105D01*
X145066819Y-82818562D01*
X145056226Y-82853481D01*
X145039024Y-82885663D01*
X145015873Y-82913873D01*
X144987663Y-82937024D01*
X144955481Y-82954226D01*
X144920562Y-82964819D01*
X144878105Y-82969000D01*
X143411895Y-82969000D01*
X143369438Y-82964819D01*
X143334519Y-82954226D01*
X143302337Y-82937024D01*
X143274127Y-82913873D01*
X143250976Y-82885663D01*
X143233774Y-82853481D01*
X143223181Y-82818562D01*
X143219000Y-82776105D01*
X143219000Y-81634895D01*
X143223181Y-81592438D01*
X143233774Y-81557519D01*
X143250976Y-81525337D01*
X143274127Y-81497127D01*
X143302337Y-81473976D01*
X143334519Y-81456774D01*
X143369438Y-81446181D01*
X143411895Y-81442000D01*
X144878105Y-81442000D01*
X144920562Y-81446181D01*
G37*
G36*
X141872562Y-81446181D02*
G01*
X141907481Y-81456774D01*
X141939663Y-81473976D01*
X141967873Y-81497127D01*
X141991024Y-81525337D01*
X142008226Y-81557519D01*
X142018819Y-81592438D01*
X142023000Y-81634895D01*
X142023000Y-82776105D01*
X142018819Y-82818562D01*
X142008226Y-82853481D01*
X141991024Y-82885663D01*
X141967873Y-82913873D01*
X141939663Y-82937024D01*
X141907481Y-82954226D01*
X141872562Y-82964819D01*
X141830105Y-82969000D01*
X140363895Y-82969000D01*
X140321438Y-82964819D01*
X140286519Y-82954226D01*
X140254337Y-82937024D01*
X140226127Y-82913873D01*
X140202976Y-82885663D01*
X140185774Y-82853481D01*
X140175181Y-82818562D01*
X140171000Y-82776105D01*
X140171000Y-81634895D01*
X140175181Y-81592438D01*
X140185774Y-81557519D01*
X140202976Y-81525337D01*
X140226127Y-81497127D01*
X140254337Y-81473976D01*
X140286519Y-81456774D01*
X140321438Y-81446181D01*
X140363895Y-81442000D01*
X141830105Y-81442000D01*
X141872562Y-81446181D01*
G37*
G36*
X147841562Y-81446181D02*
G01*
X147876481Y-81456774D01*
X147908663Y-81473976D01*
X147936873Y-81497127D01*
X147960024Y-81525337D01*
X147977226Y-81557519D01*
X147987819Y-81592438D01*
X147992000Y-81634895D01*
X147992000Y-82776105D01*
X147987819Y-82818562D01*
X147977226Y-82853481D01*
X147960024Y-82885663D01*
X147936873Y-82913873D01*
X147908663Y-82937024D01*
X147876481Y-82954226D01*
X147841562Y-82964819D01*
X147799105Y-82969000D01*
X146332895Y-82969000D01*
X146290438Y-82964819D01*
X146255519Y-82954226D01*
X146223337Y-82937024D01*
X146195127Y-82913873D01*
X146171976Y-82885663D01*
X146154774Y-82853481D01*
X146144181Y-82818562D01*
X146140000Y-82776105D01*
X146140000Y-81634895D01*
X146144181Y-81592438D01*
X146154774Y-81557519D01*
X146171976Y-81525337D01*
X146195127Y-81497127D01*
X146223337Y-81473976D01*
X146255519Y-81456774D01*
X146290438Y-81446181D01*
X146332895Y-81442000D01*
X147799105Y-81442000D01*
X147841562Y-81446181D01*
G37*
G36*
X111565098Y-79532362D02*
G01*
X111689941Y-79584074D01*
X111689943Y-79584075D01*
X111802299Y-79659149D01*
X111897851Y-79754701D01*
X111972926Y-79867059D01*
X112024638Y-79991902D01*
X112051000Y-80124434D01*
X112051000Y-80259566D01*
X112024638Y-80392098D01*
X111972926Y-80516941D01*
X111972925Y-80516943D01*
X111897851Y-80629299D01*
X111802299Y-80724851D01*
X111689943Y-80799925D01*
X111689942Y-80799926D01*
X111689941Y-80799926D01*
X111565098Y-80851638D01*
X111432566Y-80878000D01*
X111297434Y-80878000D01*
X111164902Y-80851638D01*
X111040059Y-80799926D01*
X111040058Y-80799926D01*
X111040057Y-80799925D01*
X110927701Y-80724851D01*
X110832149Y-80629299D01*
X110757075Y-80516943D01*
X110757074Y-80516941D01*
X110705362Y-80392098D01*
X110679000Y-80259566D01*
X110679000Y-80124434D01*
X110705362Y-79991902D01*
X110757074Y-79867059D01*
X110832149Y-79754701D01*
X110927701Y-79659149D01*
X111040057Y-79584075D01*
X111040059Y-79584074D01*
X111164902Y-79532362D01*
X111297434Y-79506000D01*
X111432566Y-79506000D01*
X111565098Y-79532362D01*
G37*
G36*
X129565098Y-79532362D02*
G01*
X129689941Y-79584074D01*
X129689943Y-79584075D01*
X129802299Y-79659149D01*
X129897851Y-79754701D01*
X129972926Y-79867059D01*
X130024638Y-79991902D01*
X130051000Y-80124434D01*
X130051000Y-80259566D01*
X130024638Y-80392098D01*
X129972926Y-80516941D01*
X129972925Y-80516943D01*
X129897851Y-80629299D01*
X129802299Y-80724851D01*
X129689943Y-80799925D01*
X129689942Y-80799926D01*
X129689941Y-80799926D01*
X129565098Y-80851638D01*
X129432566Y-80878000D01*
X129297434Y-80878000D01*
X129164902Y-80851638D01*
X129040059Y-80799926D01*
X129040058Y-80799926D01*
X129040057Y-80799925D01*
X128927701Y-80724851D01*
X128832149Y-80629299D01*
X128757075Y-80516943D01*
X128757074Y-80516941D01*
X128705362Y-80392098D01*
X128679000Y-80259566D01*
X128679000Y-80124434D01*
X128705362Y-79991902D01*
X128757074Y-79867059D01*
X128832149Y-79754701D01*
X128927701Y-79659149D01*
X129040057Y-79584075D01*
X129040059Y-79584074D01*
X129164902Y-79532362D01*
X129297434Y-79506000D01*
X129432566Y-79506000D01*
X129565098Y-79532362D01*
G37*
G36*
X132266098Y-79532362D02*
G01*
X132390941Y-79584074D01*
X132390943Y-79584075D01*
X132503299Y-79659149D01*
X132598851Y-79754701D01*
X132673926Y-79867059D01*
X132725638Y-79991902D01*
X132752000Y-80124434D01*
X132752000Y-80259566D01*
X132725638Y-80392098D01*
X132673926Y-80516941D01*
X132673925Y-80516943D01*
X132598851Y-80629299D01*
X132503299Y-80724851D01*
X132390943Y-80799925D01*
X132390942Y-80799926D01*
X132390941Y-80799926D01*
X132266098Y-80851638D01*
X132133566Y-80878000D01*
X131998434Y-80878000D01*
X131865902Y-80851638D01*
X131741059Y-80799926D01*
X131741058Y-80799926D01*
X131741057Y-80799925D01*
X131628701Y-80724851D01*
X131533149Y-80629299D01*
X131458075Y-80516943D01*
X131458074Y-80516941D01*
X131406362Y-80392098D01*
X131380000Y-80259566D01*
X131380000Y-80124434D01*
X131406362Y-79991902D01*
X131458074Y-79867059D01*
X131533149Y-79754701D01*
X131628701Y-79659149D01*
X131741057Y-79584075D01*
X131741059Y-79584074D01*
X131865902Y-79532362D01*
X131998434Y-79506000D01*
X132133566Y-79506000D01*
X132266098Y-79532362D01*
G37*
G36*
X150266098Y-79532362D02*
G01*
X150390941Y-79584074D01*
X150390943Y-79584075D01*
X150503299Y-79659149D01*
X150598851Y-79754701D01*
X150673926Y-79867059D01*
X150725638Y-79991902D01*
X150752000Y-80124434D01*
X150752000Y-80259566D01*
X150725638Y-80392098D01*
X150673926Y-80516941D01*
X150673925Y-80516943D01*
X150598851Y-80629299D01*
X150503299Y-80724851D01*
X150390943Y-80799925D01*
X150390942Y-80799926D01*
X150390941Y-80799926D01*
X150266098Y-80851638D01*
X150133566Y-80878000D01*
X149998434Y-80878000D01*
X149865902Y-80851638D01*
X149741059Y-80799926D01*
X149741058Y-80799926D01*
X149741057Y-80799925D01*
X149628701Y-80724851D01*
X149533149Y-80629299D01*
X149458075Y-80516943D01*
X149458074Y-80516941D01*
X149406362Y-80392098D01*
X149380000Y-80259566D01*
X149380000Y-80124434D01*
X149406362Y-79991902D01*
X149458074Y-79867059D01*
X149533149Y-79754701D01*
X149628701Y-79659149D01*
X149741057Y-79584075D01*
X149741059Y-79584074D01*
X149865902Y-79532362D01*
X149998434Y-79506000D01*
X150133566Y-79506000D01*
X150266098Y-79532362D01*
G37*
G36*
X135223023Y-77182590D02*
G01*
X135288512Y-77202456D01*
X135374013Y-77228392D01*
X135513165Y-77302771D01*
X135635133Y-77402867D01*
X135735229Y-77524835D01*
X135809608Y-77663987D01*
X135809608Y-77663988D01*
X135855410Y-77814977D01*
X135867000Y-77932655D01*
X135867000Y-78531345D01*
X135855410Y-78649023D01*
X135824875Y-78749682D01*
X135809608Y-78800013D01*
X135735230Y-78939164D01*
X135735229Y-78939165D01*
X135635133Y-79061133D01*
X135532881Y-79145048D01*
X135513164Y-79161229D01*
X135374012Y-79235608D01*
X135323681Y-79250875D01*
X135223022Y-79281410D01*
X135066000Y-79296875D01*
X134908977Y-79281410D01*
X134808318Y-79250875D01*
X134757987Y-79235608D01*
X134618835Y-79161229D01*
X134548118Y-79103193D01*
X134496867Y-79061133D01*
X134396771Y-78939164D01*
X134322393Y-78800013D01*
X134322392Y-78800012D01*
X134307125Y-78749681D01*
X134276590Y-78649022D01*
X134265000Y-78531344D01*
X134265000Y-77932655D01*
X134276590Y-77814977D01*
X134322392Y-77663988D01*
X134322392Y-77663987D01*
X134359582Y-77594412D01*
X134396772Y-77524835D01*
X134496868Y-77402867D01*
X134618836Y-77302771D01*
X134652807Y-77284613D01*
X134757988Y-77228392D01*
X134843489Y-77202456D01*
X134908978Y-77182590D01*
X135066000Y-77167125D01*
X135223023Y-77182590D01*
G37*
G36*
X144223023Y-77182590D02*
G01*
X144288512Y-77202456D01*
X144374013Y-77228392D01*
X144513165Y-77302771D01*
X144635133Y-77402867D01*
X144735229Y-77524835D01*
X144809608Y-77663987D01*
X144809608Y-77663988D01*
X144855410Y-77814977D01*
X144867000Y-77932655D01*
X144867000Y-78531345D01*
X144855410Y-78649023D01*
X144824875Y-78749682D01*
X144809608Y-78800013D01*
X144735230Y-78939164D01*
X144735229Y-78939165D01*
X144635133Y-79061133D01*
X144532881Y-79145048D01*
X144513164Y-79161229D01*
X144374012Y-79235608D01*
X144323681Y-79250875D01*
X144223022Y-79281410D01*
X144066000Y-79296875D01*
X143908977Y-79281410D01*
X143808318Y-79250875D01*
X143757987Y-79235608D01*
X143618835Y-79161229D01*
X143548118Y-79103193D01*
X143496867Y-79061133D01*
X143396771Y-78939164D01*
X143322393Y-78800013D01*
X143322392Y-78800012D01*
X143307125Y-78749681D01*
X143276590Y-78649022D01*
X143265000Y-78531344D01*
X143265000Y-77932655D01*
X143276590Y-77814977D01*
X143322392Y-77663988D01*
X143322392Y-77663987D01*
X143359582Y-77594412D01*
X143396772Y-77524835D01*
X143496868Y-77402867D01*
X143618836Y-77302771D01*
X143652807Y-77284613D01*
X143757988Y-77228392D01*
X143843489Y-77202456D01*
X143908978Y-77182590D01*
X144066000Y-77167125D01*
X144223023Y-77182590D01*
G37*
G36*
X141223023Y-77182590D02*
G01*
X141288512Y-77202456D01*
X141374013Y-77228392D01*
X141513165Y-77302771D01*
X141635133Y-77402867D01*
X141735229Y-77524835D01*
X141809608Y-77663987D01*
X141809608Y-77663988D01*
X141855410Y-77814977D01*
X141867000Y-77932655D01*
X141867000Y-78531345D01*
X141855410Y-78649023D01*
X141824875Y-78749682D01*
X141809608Y-78800013D01*
X141735230Y-78939164D01*
X141735229Y-78939165D01*
X141635133Y-79061133D01*
X141532881Y-79145048D01*
X141513164Y-79161229D01*
X141374012Y-79235608D01*
X141323681Y-79250875D01*
X141223022Y-79281410D01*
X141066000Y-79296875D01*
X140908977Y-79281410D01*
X140808318Y-79250875D01*
X140757987Y-79235608D01*
X140618835Y-79161229D01*
X140548118Y-79103193D01*
X140496867Y-79061133D01*
X140396771Y-78939164D01*
X140322393Y-78800013D01*
X140322392Y-78800012D01*
X140307125Y-78749681D01*
X140276590Y-78649022D01*
X140265000Y-78531344D01*
X140265000Y-77932655D01*
X140276590Y-77814977D01*
X140322392Y-77663988D01*
X140322392Y-77663987D01*
X140359582Y-77594412D01*
X140396772Y-77524835D01*
X140496868Y-77402867D01*
X140618836Y-77302771D01*
X140652807Y-77284613D01*
X140757988Y-77228392D01*
X140843489Y-77202456D01*
X140908978Y-77182590D01*
X141066000Y-77167125D01*
X141223023Y-77182590D01*
G37*
G36*
X120522023Y-77182590D02*
G01*
X120587512Y-77202456D01*
X120673013Y-77228392D01*
X120812165Y-77302771D01*
X120934133Y-77402867D01*
X121034229Y-77524835D01*
X121108608Y-77663987D01*
X121108608Y-77663988D01*
X121154410Y-77814977D01*
X121166000Y-77932655D01*
X121166000Y-78531345D01*
X121154410Y-78649023D01*
X121123875Y-78749682D01*
X121108608Y-78800013D01*
X121034230Y-78939164D01*
X121034229Y-78939165D01*
X120934133Y-79061133D01*
X120831881Y-79145048D01*
X120812164Y-79161229D01*
X120673012Y-79235608D01*
X120622681Y-79250875D01*
X120522022Y-79281410D01*
X120365000Y-79296875D01*
X120207977Y-79281410D01*
X120107318Y-79250875D01*
X120056987Y-79235608D01*
X119917835Y-79161229D01*
X119847118Y-79103193D01*
X119795867Y-79061133D01*
X119695771Y-78939164D01*
X119621393Y-78800013D01*
X119621392Y-78800012D01*
X119606125Y-78749681D01*
X119575590Y-78649022D01*
X119564000Y-78531344D01*
X119564000Y-77932655D01*
X119575590Y-77814977D01*
X119621392Y-77663988D01*
X119621392Y-77663987D01*
X119658582Y-77594412D01*
X119695772Y-77524835D01*
X119795868Y-77402867D01*
X119917836Y-77302771D01*
X119951807Y-77284613D01*
X120056988Y-77228392D01*
X120142489Y-77202456D01*
X120207978Y-77182590D01*
X120365000Y-77167125D01*
X120522023Y-77182590D01*
G37*
G36*
X123522023Y-77182590D02*
G01*
X123587512Y-77202456D01*
X123673013Y-77228392D01*
X123812165Y-77302771D01*
X123934133Y-77402867D01*
X124034229Y-77524835D01*
X124108608Y-77663987D01*
X124108608Y-77663988D01*
X124154410Y-77814977D01*
X124166000Y-77932655D01*
X124166000Y-78531345D01*
X124154410Y-78649023D01*
X124123875Y-78749682D01*
X124108608Y-78800013D01*
X124034230Y-78939164D01*
X124034229Y-78939165D01*
X123934133Y-79061133D01*
X123831881Y-79145048D01*
X123812164Y-79161229D01*
X123673012Y-79235608D01*
X123622681Y-79250875D01*
X123522022Y-79281410D01*
X123365000Y-79296875D01*
X123207977Y-79281410D01*
X123107318Y-79250875D01*
X123056987Y-79235608D01*
X122917835Y-79161229D01*
X122847118Y-79103193D01*
X122795867Y-79061133D01*
X122695771Y-78939164D01*
X122621393Y-78800013D01*
X122621392Y-78800012D01*
X122606125Y-78749681D01*
X122575590Y-78649022D01*
X122564000Y-78531344D01*
X122564000Y-77932655D01*
X122575590Y-77814977D01*
X122621392Y-77663988D01*
X122621392Y-77663987D01*
X122658582Y-77594412D01*
X122695772Y-77524835D01*
X122795868Y-77402867D01*
X122917836Y-77302771D01*
X122951807Y-77284613D01*
X123056988Y-77228392D01*
X123142489Y-77202456D01*
X123207978Y-77182590D01*
X123365000Y-77167125D01*
X123522023Y-77182590D01*
G37*
G36*
X117522023Y-77182590D02*
G01*
X117587512Y-77202456D01*
X117673013Y-77228392D01*
X117812165Y-77302771D01*
X117934133Y-77402867D01*
X118034229Y-77524835D01*
X118108608Y-77663987D01*
X118108608Y-77663988D01*
X118154410Y-77814977D01*
X118166000Y-77932655D01*
X118166000Y-78531345D01*
X118154410Y-78649023D01*
X118123875Y-78749682D01*
X118108608Y-78800013D01*
X118034230Y-78939164D01*
X118034229Y-78939165D01*
X117934133Y-79061133D01*
X117831881Y-79145048D01*
X117812164Y-79161229D01*
X117673012Y-79235608D01*
X117622681Y-79250875D01*
X117522022Y-79281410D01*
X117365000Y-79296875D01*
X117207977Y-79281410D01*
X117107318Y-79250875D01*
X117056987Y-79235608D01*
X116917835Y-79161229D01*
X116847118Y-79103193D01*
X116795867Y-79061133D01*
X116695771Y-78939164D01*
X116621393Y-78800013D01*
X116621392Y-78800012D01*
X116606125Y-78749681D01*
X116575590Y-78649022D01*
X116564000Y-78531344D01*
X116564000Y-77932655D01*
X116575590Y-77814977D01*
X116621392Y-77663988D01*
X116621392Y-77663987D01*
X116658582Y-77594412D01*
X116695772Y-77524835D01*
X116795868Y-77402867D01*
X116917836Y-77302771D01*
X116951807Y-77284613D01*
X117056988Y-77228392D01*
X117142489Y-77202456D01*
X117207978Y-77182590D01*
X117365000Y-77167125D01*
X117522023Y-77182590D01*
G37*
G36*
X114522023Y-77182590D02*
G01*
X114587512Y-77202456D01*
X114673013Y-77228392D01*
X114812165Y-77302771D01*
X114934133Y-77402867D01*
X115034229Y-77524835D01*
X115108608Y-77663987D01*
X115108608Y-77663988D01*
X115154410Y-77814977D01*
X115166000Y-77932655D01*
X115166000Y-78531345D01*
X115154410Y-78649023D01*
X115123875Y-78749682D01*
X115108608Y-78800013D01*
X115034230Y-78939164D01*
X115034229Y-78939165D01*
X114934133Y-79061133D01*
X114831881Y-79145048D01*
X114812164Y-79161229D01*
X114673012Y-79235608D01*
X114622681Y-79250875D01*
X114522022Y-79281410D01*
X114365000Y-79296875D01*
X114207977Y-79281410D01*
X114107318Y-79250875D01*
X114056987Y-79235608D01*
X113917835Y-79161229D01*
X113847118Y-79103193D01*
X113795867Y-79061133D01*
X113695771Y-78939164D01*
X113621393Y-78800013D01*
X113621392Y-78800012D01*
X113606125Y-78749681D01*
X113575590Y-78649022D01*
X113564000Y-78531344D01*
X113564000Y-77932655D01*
X113575590Y-77814977D01*
X113621392Y-77663988D01*
X113621392Y-77663987D01*
X113658582Y-77594412D01*
X113695772Y-77524835D01*
X113795868Y-77402867D01*
X113917836Y-77302771D01*
X113951807Y-77284613D01*
X114056988Y-77228392D01*
X114142489Y-77202456D01*
X114207978Y-77182590D01*
X114365000Y-77167125D01*
X114522023Y-77182590D01*
G37*
G36*
X138223023Y-77182590D02*
G01*
X138288512Y-77202456D01*
X138374013Y-77228392D01*
X138513165Y-77302771D01*
X138635133Y-77402867D01*
X138735229Y-77524835D01*
X138809608Y-77663987D01*
X138809608Y-77663988D01*
X138855410Y-77814977D01*
X138867000Y-77932655D01*
X138867000Y-78531345D01*
X138855410Y-78649023D01*
X138824875Y-78749682D01*
X138809608Y-78800013D01*
X138735230Y-78939164D01*
X138735229Y-78939165D01*
X138635133Y-79061133D01*
X138532881Y-79145048D01*
X138513164Y-79161229D01*
X138374012Y-79235608D01*
X138323681Y-79250875D01*
X138223022Y-79281410D01*
X138066000Y-79296875D01*
X137908977Y-79281410D01*
X137808318Y-79250875D01*
X137757987Y-79235608D01*
X137618835Y-79161229D01*
X137548118Y-79103193D01*
X137496867Y-79061133D01*
X137396771Y-78939164D01*
X137322393Y-78800013D01*
X137322392Y-78800012D01*
X137307125Y-78749681D01*
X137276590Y-78649022D01*
X137265000Y-78531344D01*
X137265000Y-77932655D01*
X137276590Y-77814977D01*
X137322392Y-77663988D01*
X137322392Y-77663987D01*
X137359582Y-77594412D01*
X137396772Y-77524835D01*
X137496868Y-77402867D01*
X137618836Y-77302771D01*
X137652807Y-77284613D01*
X137757988Y-77228392D01*
X137843489Y-77202456D01*
X137908978Y-77182590D01*
X138066000Y-77167125D01*
X138223023Y-77182590D01*
G37*
G36*
X147719048Y-77175122D02*
G01*
X147753387Y-77185539D01*
X147785036Y-77202456D01*
X147812778Y-77225222D01*
X147835544Y-77252964D01*
X147852461Y-77284613D01*
X147862878Y-77318952D01*
X147867000Y-77360807D01*
X147867000Y-79103193D01*
X147862878Y-79145048D01*
X147852461Y-79179387D01*
X147835544Y-79211036D01*
X147812778Y-79238778D01*
X147785036Y-79261544D01*
X147753387Y-79278461D01*
X147719048Y-79288878D01*
X147677193Y-79293000D01*
X146454807Y-79293000D01*
X146412952Y-79288878D01*
X146378613Y-79278461D01*
X146346964Y-79261544D01*
X146319222Y-79238778D01*
X146296456Y-79211036D01*
X146279539Y-79179387D01*
X146269122Y-79145048D01*
X146265000Y-79103193D01*
X146265000Y-77360807D01*
X146269122Y-77318952D01*
X146279539Y-77284613D01*
X146296456Y-77252964D01*
X146319222Y-77225222D01*
X146346964Y-77202456D01*
X146378613Y-77185539D01*
X146412952Y-77175122D01*
X146454807Y-77171000D01*
X147677193Y-77171000D01*
X147719048Y-77175122D01*
G37*
G36*
X127018048Y-77175122D02*
G01*
X127052387Y-77185539D01*
X127084036Y-77202456D01*
X127111778Y-77225222D01*
X127134544Y-77252964D01*
X127151461Y-77284613D01*
X127161878Y-77318952D01*
X127166000Y-77360807D01*
X127166000Y-79103193D01*
X127161878Y-79145048D01*
X127151461Y-79179387D01*
X127134544Y-79211036D01*
X127111778Y-79238778D01*
X127084036Y-79261544D01*
X127052387Y-79278461D01*
X127018048Y-79288878D01*
X126976193Y-79293000D01*
X125753807Y-79293000D01*
X125711952Y-79288878D01*
X125677613Y-79278461D01*
X125645964Y-79261544D01*
X125618222Y-79238778D01*
X125595456Y-79211036D01*
X125578539Y-79179387D01*
X125568122Y-79145048D01*
X125564000Y-79103193D01*
X125564000Y-77360807D01*
X125568122Y-77318952D01*
X125578539Y-77284613D01*
X125595456Y-77252964D01*
X125618222Y-77225222D01*
X125645964Y-77202456D01*
X125677613Y-77185539D01*
X125711952Y-77175122D01*
X125753807Y-77171000D01*
X126976193Y-77171000D01*
X127018048Y-77175122D01*
G37*
G36*
X108436487Y-74574996D02*
G01*
X108673253Y-74673068D01*
X108673255Y-74673069D01*
X108886339Y-74815447D01*
X109067553Y-74996661D01*
X109142388Y-75108659D01*
X109209932Y-75209747D01*
X109308004Y-75446513D01*
X109358000Y-75697861D01*
X109358000Y-75954139D01*
X109308004Y-76205487D01*
X109279069Y-76275341D01*
X109209931Y-76442255D01*
X109067553Y-76655339D01*
X108886339Y-76836553D01*
X108673255Y-76978931D01*
X108673254Y-76978932D01*
X108673253Y-76978932D01*
X108436487Y-77077004D01*
X108185139Y-77127000D01*
X107928861Y-77127000D01*
X107677513Y-77077004D01*
X107440747Y-76978932D01*
X107440746Y-76978932D01*
X107440745Y-76978931D01*
X107227661Y-76836553D01*
X107046447Y-76655339D01*
X106904069Y-76442255D01*
X106834931Y-76275341D01*
X106805996Y-76205487D01*
X106756000Y-75954139D01*
X106756000Y-75697861D01*
X106805996Y-75446513D01*
X106904068Y-75209747D01*
X106971613Y-75108659D01*
X107046447Y-74996661D01*
X107227661Y-74815447D01*
X107440745Y-74673069D01*
X107440747Y-74673068D01*
X107677513Y-74574996D01*
X107928861Y-74525000D01*
X108185139Y-74525000D01*
X108436487Y-74574996D01*
G37*
G36*
X89905000Y-76443000D02*
G01*
X88403000Y-76443000D01*
X88403000Y-74941000D01*
X89905000Y-74941000D01*
X89905000Y-76443000D01*
G37*
G36*
X96993059Y-74969860D02*
G01*
X97129732Y-75026472D01*
X97252735Y-75108660D01*
X97357340Y-75213265D01*
X97357341Y-75213267D01*
X97439529Y-75336270D01*
X97496140Y-75472941D01*
X97525000Y-75618032D01*
X97525000Y-75765968D01*
X97496140Y-75911059D01*
X97478297Y-75954137D01*
X97439528Y-76047732D01*
X97357340Y-76170735D01*
X97252735Y-76275340D01*
X97129732Y-76357528D01*
X97129731Y-76357529D01*
X97129730Y-76357529D01*
X96993059Y-76414140D01*
X96847968Y-76443000D01*
X96700032Y-76443000D01*
X96554941Y-76414140D01*
X96418270Y-76357529D01*
X96418269Y-76357529D01*
X96418268Y-76357528D01*
X96295265Y-76275340D01*
X96190660Y-76170735D01*
X96108472Y-76047732D01*
X96069704Y-75954137D01*
X96051860Y-75911059D01*
X96023000Y-75765968D01*
X96023000Y-75618032D01*
X96051860Y-75472941D01*
X96108471Y-75336270D01*
X96190659Y-75213267D01*
X96190660Y-75213265D01*
X96295265Y-75108660D01*
X96418268Y-75026472D01*
X96554941Y-74969860D01*
X96700032Y-74941000D01*
X96847968Y-74941000D01*
X96993059Y-74969860D01*
G37*
G36*
X118123562Y-72610181D02*
G01*
X118158481Y-72620774D01*
X118190663Y-72637976D01*
X118218873Y-72661127D01*
X118242024Y-72689337D01*
X118259226Y-72721519D01*
X118269819Y-72756438D01*
X118274000Y-72798895D01*
X118274000Y-73940105D01*
X118269819Y-73982562D01*
X118259226Y-74017481D01*
X118242024Y-74049663D01*
X118218873Y-74077873D01*
X118190663Y-74101024D01*
X118158481Y-74118226D01*
X118123562Y-74128819D01*
X118081105Y-74133000D01*
X116614895Y-74133000D01*
X116572438Y-74128819D01*
X116537519Y-74118226D01*
X116505337Y-74101024D01*
X116477127Y-74077873D01*
X116453976Y-74049663D01*
X116436774Y-74017481D01*
X116426181Y-73982562D01*
X116422000Y-73940105D01*
X116422000Y-72798895D01*
X116426181Y-72756438D01*
X116436774Y-72721519D01*
X116453976Y-72689337D01*
X116477127Y-72661127D01*
X116505337Y-72637976D01*
X116537519Y-72620774D01*
X116572438Y-72610181D01*
X116614895Y-72606000D01*
X118081105Y-72606000D01*
X118123562Y-72610181D01*
G37*
G36*
X121171562Y-72610181D02*
G01*
X121206481Y-72620774D01*
X121238663Y-72637976D01*
X121266873Y-72661127D01*
X121290024Y-72689337D01*
X121307226Y-72721519D01*
X121317819Y-72756438D01*
X121322000Y-72798895D01*
X121322000Y-73940105D01*
X121317819Y-73982562D01*
X121307226Y-74017481D01*
X121290024Y-74049663D01*
X121266873Y-74077873D01*
X121238663Y-74101024D01*
X121206481Y-74118226D01*
X121171562Y-74128819D01*
X121129105Y-74133000D01*
X119662895Y-74133000D01*
X119620438Y-74128819D01*
X119585519Y-74118226D01*
X119553337Y-74101024D01*
X119525127Y-74077873D01*
X119501976Y-74049663D01*
X119484774Y-74017481D01*
X119474181Y-73982562D01*
X119470000Y-73940105D01*
X119470000Y-72798895D01*
X119474181Y-72756438D01*
X119484774Y-72721519D01*
X119501976Y-72689337D01*
X119525127Y-72661127D01*
X119553337Y-72637976D01*
X119585519Y-72620774D01*
X119620438Y-72610181D01*
X119662895Y-72606000D01*
X121129105Y-72606000D01*
X121171562Y-72610181D01*
G37*
G36*
X124219562Y-72610181D02*
G01*
X124254481Y-72620774D01*
X124286663Y-72637976D01*
X124314873Y-72661127D01*
X124338024Y-72689337D01*
X124355226Y-72721519D01*
X124365819Y-72756438D01*
X124370000Y-72798895D01*
X124370000Y-73940105D01*
X124365819Y-73982562D01*
X124355226Y-74017481D01*
X124338024Y-74049663D01*
X124314873Y-74077873D01*
X124286663Y-74101024D01*
X124254481Y-74118226D01*
X124219562Y-74128819D01*
X124177105Y-74133000D01*
X122710895Y-74133000D01*
X122668438Y-74128819D01*
X122633519Y-74118226D01*
X122601337Y-74101024D01*
X122573127Y-74077873D01*
X122549976Y-74049663D01*
X122532774Y-74017481D01*
X122522181Y-73982562D01*
X122518000Y-73940105D01*
X122518000Y-72798895D01*
X122522181Y-72756438D01*
X122532774Y-72721519D01*
X122549976Y-72689337D01*
X122573127Y-72661127D01*
X122601337Y-72637976D01*
X122633519Y-72620774D01*
X122668438Y-72610181D01*
X122710895Y-72606000D01*
X124177105Y-72606000D01*
X124219562Y-72610181D01*
G37*
G36*
X127267562Y-72610181D02*
G01*
X127302481Y-72620774D01*
X127334663Y-72637976D01*
X127362873Y-72661127D01*
X127386024Y-72689337D01*
X127403226Y-72721519D01*
X127413819Y-72756438D01*
X127418000Y-72798895D01*
X127418000Y-73940105D01*
X127413819Y-73982562D01*
X127403226Y-74017481D01*
X127386024Y-74049663D01*
X127362873Y-74077873D01*
X127334663Y-74101024D01*
X127302481Y-74118226D01*
X127267562Y-74128819D01*
X127225105Y-74133000D01*
X125758895Y-74133000D01*
X125716438Y-74128819D01*
X125681519Y-74118226D01*
X125649337Y-74101024D01*
X125621127Y-74077873D01*
X125597976Y-74049663D01*
X125580774Y-74017481D01*
X125570181Y-73982562D01*
X125566000Y-73940105D01*
X125566000Y-72798895D01*
X125570181Y-72756438D01*
X125580774Y-72721519D01*
X125597976Y-72689337D01*
X125621127Y-72661127D01*
X125649337Y-72637976D01*
X125681519Y-72620774D01*
X125716438Y-72610181D01*
X125758895Y-72606000D01*
X127225105Y-72606000D01*
X127267562Y-72610181D01*
G37*
G36*
X115075562Y-72610181D02*
G01*
X115110481Y-72620774D01*
X115142663Y-72637976D01*
X115170873Y-72661127D01*
X115194024Y-72689337D01*
X115211226Y-72721519D01*
X115221819Y-72756438D01*
X115226000Y-72798895D01*
X115226000Y-73940105D01*
X115221819Y-73982562D01*
X115211226Y-74017481D01*
X115194024Y-74049663D01*
X115170873Y-74077873D01*
X115142663Y-74101024D01*
X115110481Y-74118226D01*
X115075562Y-74128819D01*
X115033105Y-74133000D01*
X113566895Y-74133000D01*
X113524438Y-74128819D01*
X113489519Y-74118226D01*
X113457337Y-74101024D01*
X113429127Y-74077873D01*
X113405976Y-74049663D01*
X113388774Y-74017481D01*
X113378181Y-73982562D01*
X113374000Y-73940105D01*
X113374000Y-72798895D01*
X113378181Y-72756438D01*
X113388774Y-72721519D01*
X113405976Y-72689337D01*
X113429127Y-72661127D01*
X113457337Y-72637976D01*
X113489519Y-72620774D01*
X113524438Y-72610181D01*
X113566895Y-72606000D01*
X115033105Y-72606000D01*
X115075562Y-72610181D01*
G37*
G36*
X146913781Y-72687295D02*
G01*
X146949816Y-72698227D01*
X146983024Y-72715977D01*
X147012134Y-72739866D01*
X147036023Y-72768976D01*
X147053773Y-72802184D01*
X147064705Y-72838219D01*
X147069000Y-72881831D01*
X147069000Y-73911169D01*
X147064705Y-73954781D01*
X147053773Y-73990816D01*
X147036023Y-74024024D01*
X147012134Y-74053134D01*
X146983024Y-74077023D01*
X146949816Y-74094773D01*
X146913781Y-74105705D01*
X146870169Y-74110000D01*
X145865831Y-74110000D01*
X145822219Y-74105705D01*
X145786184Y-74094773D01*
X145752976Y-74077023D01*
X145723866Y-74053134D01*
X145699977Y-74024024D01*
X145682227Y-73990816D01*
X145671295Y-73954781D01*
X145667000Y-73911169D01*
X145667000Y-72881831D01*
X145671295Y-72838219D01*
X145682227Y-72802184D01*
X145699977Y-72768976D01*
X145723866Y-72739866D01*
X145752976Y-72715977D01*
X145786184Y-72698227D01*
X145822219Y-72687295D01*
X145865831Y-72683000D01*
X146870169Y-72683000D01*
X146913781Y-72687295D01*
G37*
G36*
X144690781Y-72643295D02*
G01*
X144726816Y-72654227D01*
X144760024Y-72671977D01*
X144789134Y-72695866D01*
X144813023Y-72724976D01*
X144830773Y-72758184D01*
X144841705Y-72794219D01*
X144846000Y-72837831D01*
X144846000Y-73867169D01*
X144841705Y-73910781D01*
X144830773Y-73946816D01*
X144813023Y-73980024D01*
X144789134Y-74009134D01*
X144760024Y-74033023D01*
X144726816Y-74050773D01*
X144690781Y-74061705D01*
X144647169Y-74066000D01*
X143642831Y-74066000D01*
X143599219Y-74061705D01*
X143563184Y-74050773D01*
X143529976Y-74033023D01*
X143500866Y-74009134D01*
X143476977Y-73980024D01*
X143459227Y-73946816D01*
X143448295Y-73910781D01*
X143444000Y-73867169D01*
X143444000Y-72837831D01*
X143448295Y-72794219D01*
X143459227Y-72758184D01*
X143476977Y-72724976D01*
X143500866Y-72695866D01*
X143529976Y-72671977D01*
X143563184Y-72654227D01*
X143599219Y-72643295D01*
X143642831Y-72639000D01*
X144647169Y-72639000D01*
X144690781Y-72643295D01*
G37*
G36*
X141515781Y-72643295D02*
G01*
X141551816Y-72654227D01*
X141585024Y-72671977D01*
X141614134Y-72695866D01*
X141638023Y-72724976D01*
X141655773Y-72758184D01*
X141666705Y-72794219D01*
X141671000Y-72837831D01*
X141671000Y-73867169D01*
X141666705Y-73910781D01*
X141655773Y-73946816D01*
X141638023Y-73980024D01*
X141614134Y-74009134D01*
X141585024Y-74033023D01*
X141551816Y-74050773D01*
X141515781Y-74061705D01*
X141472169Y-74066000D01*
X140467831Y-74066000D01*
X140424219Y-74061705D01*
X140388184Y-74050773D01*
X140354976Y-74033023D01*
X140325866Y-74009134D01*
X140301977Y-73980024D01*
X140284227Y-73946816D01*
X140273295Y-73910781D01*
X140269000Y-73867169D01*
X140269000Y-72837831D01*
X140273295Y-72794219D01*
X140284227Y-72758184D01*
X140301977Y-72724976D01*
X140325866Y-72695866D01*
X140354976Y-72671977D01*
X140388184Y-72654227D01*
X140424219Y-72643295D01*
X140467831Y-72639000D01*
X141472169Y-72639000D01*
X141515781Y-72643295D01*
G37*
G36*
X138594781Y-72643295D02*
G01*
X138630816Y-72654227D01*
X138664024Y-72671977D01*
X138693134Y-72695866D01*
X138717023Y-72724976D01*
X138734773Y-72758184D01*
X138745705Y-72794219D01*
X138750000Y-72837831D01*
X138750000Y-73867169D01*
X138745705Y-73910781D01*
X138734773Y-73946816D01*
X138717023Y-73980024D01*
X138693134Y-74009134D01*
X138664024Y-74033023D01*
X138630816Y-74050773D01*
X138594781Y-74061705D01*
X138551169Y-74066000D01*
X137546831Y-74066000D01*
X137503219Y-74061705D01*
X137467184Y-74050773D01*
X137433976Y-74033023D01*
X137404866Y-74009134D01*
X137380977Y-73980024D01*
X137363227Y-73946816D01*
X137352295Y-73910781D01*
X137348000Y-73867169D01*
X137348000Y-72837831D01*
X137352295Y-72794219D01*
X137363227Y-72758184D01*
X137380977Y-72724976D01*
X137404866Y-72695866D01*
X137433976Y-72671977D01*
X137467184Y-72654227D01*
X137503219Y-72643295D01*
X137546831Y-72639000D01*
X138551169Y-72639000D01*
X138594781Y-72643295D01*
G37*
G36*
X135673781Y-72643295D02*
G01*
X135709816Y-72654227D01*
X135743024Y-72671977D01*
X135772134Y-72695866D01*
X135796023Y-72724976D01*
X135813773Y-72758184D01*
X135824705Y-72794219D01*
X135829000Y-72837831D01*
X135829000Y-73867169D01*
X135824705Y-73910781D01*
X135813773Y-73946816D01*
X135796023Y-73980024D01*
X135772134Y-74009134D01*
X135743024Y-74033023D01*
X135709816Y-74050773D01*
X135673781Y-74061705D01*
X135630169Y-74066000D01*
X134625831Y-74066000D01*
X134582219Y-74061705D01*
X134546184Y-74050773D01*
X134512976Y-74033023D01*
X134483866Y-74009134D01*
X134459977Y-73980024D01*
X134442227Y-73946816D01*
X134431295Y-73910781D01*
X134427000Y-73867169D01*
X134427000Y-72837831D01*
X134431295Y-72794219D01*
X134442227Y-72758184D01*
X134459977Y-72724976D01*
X134483866Y-72695866D01*
X134512976Y-72671977D01*
X134546184Y-72654227D01*
X134582219Y-72643295D01*
X134625831Y-72639000D01*
X135630169Y-72639000D01*
X135673781Y-72643295D01*
G37*
G36*
X103735781Y-71185295D02*
G01*
X103771816Y-71196227D01*
X103805024Y-71213977D01*
X103834134Y-71237866D01*
X103858023Y-71266976D01*
X103875773Y-71300184D01*
X103886705Y-71336219D01*
X103891000Y-71379831D01*
X103891000Y-72384169D01*
X103886705Y-72427781D01*
X103875773Y-72463816D01*
X103858023Y-72497024D01*
X103834134Y-72526134D01*
X103805024Y-72550023D01*
X103771816Y-72567773D01*
X103735781Y-72578705D01*
X103692169Y-72583000D01*
X102662831Y-72583000D01*
X102619219Y-72578705D01*
X102583184Y-72567773D01*
X102549976Y-72550023D01*
X102520866Y-72526134D01*
X102496977Y-72497024D01*
X102479227Y-72463816D01*
X102468295Y-72427781D01*
X102464000Y-72384169D01*
X102464000Y-71379831D01*
X102468295Y-71336219D01*
X102479227Y-71300184D01*
X102496977Y-71266976D01*
X102520866Y-71237866D01*
X102549976Y-71213977D01*
X102583184Y-71196227D01*
X102619219Y-71185295D01*
X102662831Y-71181000D01*
X103692169Y-71181000D01*
X103735781Y-71185295D01*
G37*
G36*
X105660781Y-71185295D02*
G01*
X105696816Y-71196227D01*
X105730024Y-71213977D01*
X105759134Y-71237866D01*
X105783023Y-71266976D01*
X105800773Y-71300184D01*
X105811705Y-71336219D01*
X105816000Y-71379831D01*
X105816000Y-72384169D01*
X105811705Y-72427781D01*
X105800773Y-72463816D01*
X105783023Y-72497024D01*
X105759134Y-72526134D01*
X105730024Y-72550023D01*
X105696816Y-72567773D01*
X105660781Y-72578705D01*
X105617169Y-72583000D01*
X104587831Y-72583000D01*
X104544219Y-72578705D01*
X104508184Y-72567773D01*
X104474976Y-72550023D01*
X104445866Y-72526134D01*
X104421977Y-72497024D01*
X104404227Y-72463816D01*
X104393295Y-72427781D01*
X104389000Y-72384169D01*
X104389000Y-71379831D01*
X104393295Y-71336219D01*
X104404227Y-71300184D01*
X104421977Y-71266976D01*
X104445866Y-71237866D01*
X104474976Y-71213977D01*
X104508184Y-71196227D01*
X104544219Y-71185295D01*
X104587831Y-71181000D01*
X105617169Y-71181000D01*
X105660781Y-71185295D01*
G37*
G36*
X146913781Y-70762295D02*
G01*
X146949816Y-70773227D01*
X146983024Y-70790977D01*
X147012134Y-70814866D01*
X147036023Y-70843976D01*
X147053773Y-70877184D01*
X147064705Y-70913219D01*
X147069000Y-70956831D01*
X147069000Y-71986169D01*
X147064705Y-72029781D01*
X147053773Y-72065816D01*
X147036023Y-72099024D01*
X147012134Y-72128134D01*
X146983024Y-72152023D01*
X146949816Y-72169773D01*
X146913781Y-72180705D01*
X146870169Y-72185000D01*
X145865831Y-72185000D01*
X145822219Y-72180705D01*
X145786184Y-72169773D01*
X145752976Y-72152023D01*
X145723866Y-72128134D01*
X145699977Y-72099024D01*
X145682227Y-72065816D01*
X145671295Y-72029781D01*
X145667000Y-71986169D01*
X145667000Y-70956831D01*
X145671295Y-70913219D01*
X145682227Y-70877184D01*
X145699977Y-70843976D01*
X145723866Y-70814866D01*
X145752976Y-70790977D01*
X145786184Y-70773227D01*
X145822219Y-70762295D01*
X145865831Y-70758000D01*
X146870169Y-70758000D01*
X146913781Y-70762295D01*
G37*
G36*
X141515781Y-70718295D02*
G01*
X141551816Y-70729227D01*
X141585024Y-70746977D01*
X141614134Y-70770866D01*
X141638023Y-70799976D01*
X141655773Y-70833184D01*
X141666705Y-70869219D01*
X141671000Y-70912831D01*
X141671000Y-71942169D01*
X141666705Y-71985781D01*
X141655773Y-72021816D01*
X141638023Y-72055024D01*
X141614134Y-72084134D01*
X141585024Y-72108023D01*
X141551816Y-72125773D01*
X141515781Y-72136705D01*
X141472169Y-72141000D01*
X140467831Y-72141000D01*
X140424219Y-72136705D01*
X140388184Y-72125773D01*
X140354976Y-72108023D01*
X140325866Y-72084134D01*
X140301977Y-72055024D01*
X140284227Y-72021816D01*
X140273295Y-71985781D01*
X140269000Y-71942169D01*
X140269000Y-70912831D01*
X140273295Y-70869219D01*
X140284227Y-70833184D01*
X140301977Y-70799976D01*
X140325866Y-70770866D01*
X140354976Y-70746977D01*
X140388184Y-70729227D01*
X140424219Y-70718295D01*
X140467831Y-70714000D01*
X141472169Y-70714000D01*
X141515781Y-70718295D01*
G37*
G36*
X135673781Y-70718295D02*
G01*
X135709816Y-70729227D01*
X135743024Y-70746977D01*
X135772134Y-70770866D01*
X135796023Y-70799976D01*
X135813773Y-70833184D01*
X135824705Y-70869219D01*
X135829000Y-70912831D01*
X135829000Y-71942169D01*
X135824705Y-71985781D01*
X135813773Y-72021816D01*
X135796023Y-72055024D01*
X135772134Y-72084134D01*
X135743024Y-72108023D01*
X135709816Y-72125773D01*
X135673781Y-72136705D01*
X135630169Y-72141000D01*
X134625831Y-72141000D01*
X134582219Y-72136705D01*
X134546184Y-72125773D01*
X134512976Y-72108023D01*
X134483866Y-72084134D01*
X134459977Y-72055024D01*
X134442227Y-72021816D01*
X134431295Y-71985781D01*
X134427000Y-71942169D01*
X134427000Y-70912831D01*
X134431295Y-70869219D01*
X134442227Y-70833184D01*
X134459977Y-70799976D01*
X134483866Y-70770866D01*
X134512976Y-70746977D01*
X134546184Y-70729227D01*
X134582219Y-70718295D01*
X134625831Y-70714000D01*
X135630169Y-70714000D01*
X135673781Y-70718295D01*
G37*
G36*
X138594781Y-70718295D02*
G01*
X138630816Y-70729227D01*
X138664024Y-70746977D01*
X138693134Y-70770866D01*
X138717023Y-70799976D01*
X138734773Y-70833184D01*
X138745705Y-70869219D01*
X138750000Y-70912831D01*
X138750000Y-71942169D01*
X138745705Y-71985781D01*
X138734773Y-72021816D01*
X138717023Y-72055024D01*
X138693134Y-72084134D01*
X138664024Y-72108023D01*
X138630816Y-72125773D01*
X138594781Y-72136705D01*
X138551169Y-72141000D01*
X137546831Y-72141000D01*
X137503219Y-72136705D01*
X137467184Y-72125773D01*
X137433976Y-72108023D01*
X137404866Y-72084134D01*
X137380977Y-72055024D01*
X137363227Y-72021816D01*
X137352295Y-71985781D01*
X137348000Y-71942169D01*
X137348000Y-70912831D01*
X137352295Y-70869219D01*
X137363227Y-70833184D01*
X137380977Y-70799976D01*
X137404866Y-70770866D01*
X137433976Y-70746977D01*
X137467184Y-70729227D01*
X137503219Y-70718295D01*
X137546831Y-70714000D01*
X138551169Y-70714000D01*
X138594781Y-70718295D01*
G37*
G36*
X144690781Y-70718295D02*
G01*
X144726816Y-70729227D01*
X144760024Y-70746977D01*
X144789134Y-70770866D01*
X144813023Y-70799976D01*
X144830773Y-70833184D01*
X144841705Y-70869219D01*
X144846000Y-70912831D01*
X144846000Y-71942169D01*
X144841705Y-71985781D01*
X144830773Y-72021816D01*
X144813023Y-72055024D01*
X144789134Y-72084134D01*
X144760024Y-72108023D01*
X144726816Y-72125773D01*
X144690781Y-72136705D01*
X144647169Y-72141000D01*
X143642831Y-72141000D01*
X143599219Y-72136705D01*
X143563184Y-72125773D01*
X143529976Y-72108023D01*
X143500866Y-72084134D01*
X143476977Y-72055024D01*
X143459227Y-72021816D01*
X143448295Y-71985781D01*
X143444000Y-71942169D01*
X143444000Y-70912831D01*
X143448295Y-70869219D01*
X143459227Y-70833184D01*
X143476977Y-70799976D01*
X143500866Y-70770866D01*
X143529976Y-70746977D01*
X143563184Y-70729227D01*
X143599219Y-70718295D01*
X143642831Y-70714000D01*
X144647169Y-70714000D01*
X144690781Y-70718295D01*
G37*
G36*
X118123562Y-69635181D02*
G01*
X118158481Y-69645774D01*
X118190663Y-69662976D01*
X118218873Y-69686127D01*
X118242024Y-69714337D01*
X118259226Y-69746519D01*
X118269819Y-69781438D01*
X118274000Y-69823895D01*
X118274000Y-70965105D01*
X118269819Y-71007562D01*
X118259226Y-71042481D01*
X118242024Y-71074663D01*
X118218873Y-71102873D01*
X118190663Y-71126024D01*
X118158481Y-71143226D01*
X118123562Y-71153819D01*
X118081105Y-71158000D01*
X116614895Y-71158000D01*
X116572438Y-71153819D01*
X116537519Y-71143226D01*
X116505337Y-71126024D01*
X116477127Y-71102873D01*
X116453976Y-71074663D01*
X116436774Y-71042481D01*
X116426181Y-71007562D01*
X116422000Y-70965105D01*
X116422000Y-69823895D01*
X116426181Y-69781438D01*
X116436774Y-69746519D01*
X116453976Y-69714337D01*
X116477127Y-69686127D01*
X116505337Y-69662976D01*
X116537519Y-69645774D01*
X116572438Y-69635181D01*
X116614895Y-69631000D01*
X118081105Y-69631000D01*
X118123562Y-69635181D01*
G37*
G36*
X121171562Y-69635181D02*
G01*
X121206481Y-69645774D01*
X121238663Y-69662976D01*
X121266873Y-69686127D01*
X121290024Y-69714337D01*
X121307226Y-69746519D01*
X121317819Y-69781438D01*
X121322000Y-69823895D01*
X121322000Y-70965105D01*
X121317819Y-71007562D01*
X121307226Y-71042481D01*
X121290024Y-71074663D01*
X121266873Y-71102873D01*
X121238663Y-71126024D01*
X121206481Y-71143226D01*
X121171562Y-71153819D01*
X121129105Y-71158000D01*
X119662895Y-71158000D01*
X119620438Y-71153819D01*
X119585519Y-71143226D01*
X119553337Y-71126024D01*
X119525127Y-71102873D01*
X119501976Y-71074663D01*
X119484774Y-71042481D01*
X119474181Y-71007562D01*
X119470000Y-70965105D01*
X119470000Y-69823895D01*
X119474181Y-69781438D01*
X119484774Y-69746519D01*
X119501976Y-69714337D01*
X119525127Y-69686127D01*
X119553337Y-69662976D01*
X119585519Y-69645774D01*
X119620438Y-69635181D01*
X119662895Y-69631000D01*
X121129105Y-69631000D01*
X121171562Y-69635181D01*
G37*
G36*
X124219562Y-69635181D02*
G01*
X124254481Y-69645774D01*
X124286663Y-69662976D01*
X124314873Y-69686127D01*
X124338024Y-69714337D01*
X124355226Y-69746519D01*
X124365819Y-69781438D01*
X124370000Y-69823895D01*
X124370000Y-70965105D01*
X124365819Y-71007562D01*
X124355226Y-71042481D01*
X124338024Y-71074663D01*
X124314873Y-71102873D01*
X124286663Y-71126024D01*
X124254481Y-71143226D01*
X124219562Y-71153819D01*
X124177105Y-71158000D01*
X122710895Y-71158000D01*
X122668438Y-71153819D01*
X122633519Y-71143226D01*
X122601337Y-71126024D01*
X122573127Y-71102873D01*
X122549976Y-71074663D01*
X122532774Y-71042481D01*
X122522181Y-71007562D01*
X122518000Y-70965105D01*
X122518000Y-69823895D01*
X122522181Y-69781438D01*
X122532774Y-69746519D01*
X122549976Y-69714337D01*
X122573127Y-69686127D01*
X122601337Y-69662976D01*
X122633519Y-69645774D01*
X122668438Y-69635181D01*
X122710895Y-69631000D01*
X124177105Y-69631000D01*
X124219562Y-69635181D01*
G37*
G36*
X127267562Y-69635181D02*
G01*
X127302481Y-69645774D01*
X127334663Y-69662976D01*
X127362873Y-69686127D01*
X127386024Y-69714337D01*
X127403226Y-69746519D01*
X127413819Y-69781438D01*
X127418000Y-69823895D01*
X127418000Y-70965105D01*
X127413819Y-71007562D01*
X127403226Y-71042481D01*
X127386024Y-71074663D01*
X127362873Y-71102873D01*
X127334663Y-71126024D01*
X127302481Y-71143226D01*
X127267562Y-71153819D01*
X127225105Y-71158000D01*
X125758895Y-71158000D01*
X125716438Y-71153819D01*
X125681519Y-71143226D01*
X125649337Y-71126024D01*
X125621127Y-71102873D01*
X125597976Y-71074663D01*
X125580774Y-71042481D01*
X125570181Y-71007562D01*
X125566000Y-70965105D01*
X125566000Y-69823895D01*
X125570181Y-69781438D01*
X125580774Y-69746519D01*
X125597976Y-69714337D01*
X125621127Y-69686127D01*
X125649337Y-69662976D01*
X125681519Y-69645774D01*
X125716438Y-69635181D01*
X125758895Y-69631000D01*
X127225105Y-69631000D01*
X127267562Y-69635181D01*
G37*
G36*
X115075562Y-69635181D02*
G01*
X115110481Y-69645774D01*
X115142663Y-69662976D01*
X115170873Y-69686127D01*
X115194024Y-69714337D01*
X115211226Y-69746519D01*
X115221819Y-69781438D01*
X115226000Y-69823895D01*
X115226000Y-70965105D01*
X115221819Y-71007562D01*
X115211226Y-71042481D01*
X115194024Y-71074663D01*
X115170873Y-71102873D01*
X115142663Y-71126024D01*
X115110481Y-71143226D01*
X115075562Y-71153819D01*
X115033105Y-71158000D01*
X113566895Y-71158000D01*
X113524438Y-71153819D01*
X113489519Y-71143226D01*
X113457337Y-71126024D01*
X113429127Y-71102873D01*
X113405976Y-71074663D01*
X113388774Y-71042481D01*
X113378181Y-71007562D01*
X113374000Y-70965105D01*
X113374000Y-69823895D01*
X113378181Y-69781438D01*
X113388774Y-69746519D01*
X113405976Y-69714337D01*
X113429127Y-69686127D01*
X113457337Y-69662976D01*
X113489519Y-69645774D01*
X113524438Y-69635181D01*
X113566895Y-69631000D01*
X115033105Y-69631000D01*
X115075562Y-69635181D01*
G37*
G36*
X91061256Y-67749298D02*
G01*
X91167579Y-67770447D01*
X91468042Y-67894903D01*
X91738451Y-68075585D01*
X91968415Y-68305549D01*
X91968416Y-68305551D01*
X92149098Y-68575960D01*
X92273553Y-68876422D01*
X92337000Y-69195389D01*
X92337000Y-69520611D01*
X92299434Y-69709465D01*
X92273553Y-69839579D01*
X92149097Y-70140042D01*
X91968415Y-70410451D01*
X91738451Y-70640415D01*
X91468042Y-70821097D01*
X91468041Y-70821098D01*
X91468040Y-70821098D01*
X91437314Y-70833825D01*
X91167579Y-70945553D01*
X91069284Y-70965105D01*
X90848611Y-71009000D01*
X90523389Y-71009000D01*
X90302716Y-70965105D01*
X90204421Y-70945553D01*
X89934686Y-70833825D01*
X89903960Y-70821098D01*
X89903959Y-70821098D01*
X89903958Y-70821097D01*
X89633549Y-70640415D01*
X89403585Y-70410451D01*
X89222903Y-70140042D01*
X89098447Y-69839579D01*
X89072566Y-69709465D01*
X89035000Y-69520611D01*
X89035000Y-69195389D01*
X89098447Y-68876422D01*
X89222902Y-68575960D01*
X89403584Y-68305551D01*
X89403585Y-68305549D01*
X89633549Y-68075585D01*
X89903958Y-67894903D01*
X90204421Y-67770447D01*
X90310744Y-67749298D01*
X90523389Y-67707000D01*
X90848611Y-67707000D01*
X91061256Y-67749298D01*
G37*
G36*
X151061256Y-67749298D02*
G01*
X151167579Y-67770447D01*
X151468042Y-67894903D01*
X151738451Y-68075585D01*
X151968415Y-68305549D01*
X151968416Y-68305551D01*
X152149098Y-68575960D01*
X152273553Y-68876422D01*
X152337000Y-69195389D01*
X152337000Y-69520611D01*
X152299434Y-69709465D01*
X152273553Y-69839579D01*
X152149097Y-70140042D01*
X151968415Y-70410451D01*
X151738451Y-70640415D01*
X151468042Y-70821097D01*
X151468041Y-70821098D01*
X151468040Y-70821098D01*
X151437314Y-70833825D01*
X151167579Y-70945553D01*
X151069284Y-70965105D01*
X150848611Y-71009000D01*
X150523389Y-71009000D01*
X150302716Y-70965105D01*
X150204421Y-70945553D01*
X149934686Y-70833825D01*
X149903960Y-70821098D01*
X149903959Y-70821098D01*
X149903958Y-70821097D01*
X149633549Y-70640415D01*
X149403585Y-70410451D01*
X149222903Y-70140042D01*
X149098447Y-69839579D01*
X149072566Y-69709465D01*
X149035000Y-69520611D01*
X149035000Y-69195389D01*
X149098447Y-68876422D01*
X149222902Y-68575960D01*
X149403584Y-68305551D01*
X149403585Y-68305549D01*
X149633549Y-68075585D01*
X149903958Y-67894903D01*
X150204421Y-67770447D01*
X150310744Y-67749298D01*
X150523389Y-67707000D01*
X150848611Y-67707000D01*
X151061256Y-67749298D01*
G37*
M02*
