M48
INCH,TZ
T1C0.0118
T2C0.0157
T3C0.0276
T4C0.0402
T5C0.0472
T6C0.0551
T7C0.0591
%
G90
G05
T1
X45600Y-27750
X46800Y-27750
X48000Y-27750
X49200Y-27750
X50400Y-27800
X52950Y-33550
X52979Y-35121
X53200Y-27600
X54128Y-33428
X54350Y-27600
X55550Y-27600
X55550Y-33350
X56750Y-27600
X56750Y-33450
X57375Y-27217
X58175Y-33625
T2
X40000Y-28350
X47499Y-31999
T3
X35100Y-29800
X35100Y-32800
X35100Y-34796
X35100Y-36800
X38100Y-29800
X38100Y-32800
X38104Y-34804
X38104Y-36804
T4
X45026Y-30800
X46207Y-30800
X47388Y-30800
X48569Y-30800
X49750Y-30800
X53176Y-30800
X54357Y-30800
X55538Y-30800
X56719Y-30800
X57900Y-30800
T5
X39550Y-36900
X42542Y-36900
T6
X45152Y-34807
X45152Y-36461
X48085Y-34847
X48085Y-36500
X49739Y-34847
X49739Y-36500
T7
X42542Y-29853
X42542Y-32884
T0
M30
