G04 #@! TF.GenerationSoftware,KiCad,Pcbnew,(5.1.6)-1*
G04 #@! TF.CreationDate,2020-11-26T12:39:26+11:00*
G04 #@! TF.ProjectId,HardFault-Interpose-V0,48617264-4661-4756-9c74-2d496e746572,rev?*
G04 #@! TF.SameCoordinates,Original*
G04 #@! TF.FileFunction,Legend,Top*
G04 #@! TF.FilePolarity,Positive*
%FSLAX46Y46*%
G04 Gerber Fmt 4.6, Leading zero omitted, Abs format (unit mm)*
G04 Created by KiCad (PCBNEW (5.1.6)-1) date 2020-11-26 12:39:26*
%MOMM*%
%LPD*%
G01*
G04 APERTURE LIST*
%ADD10C,0.150000*%
%ADD11C,0.120000*%
G04 APERTURE END LIST*
D10*
X100330952Y-70064380D02*
X100330952Y-69064380D01*
X100664285Y-69778666D01*
X100997619Y-69064380D01*
X100997619Y-70064380D01*
X101902380Y-70064380D02*
X101902380Y-69540571D01*
X101854761Y-69445333D01*
X101759523Y-69397714D01*
X101569047Y-69397714D01*
X101473809Y-69445333D01*
X101902380Y-70016761D02*
X101807142Y-70064380D01*
X101569047Y-70064380D01*
X101473809Y-70016761D01*
X101426190Y-69921523D01*
X101426190Y-69826285D01*
X101473809Y-69731047D01*
X101569047Y-69683428D01*
X101807142Y-69683428D01*
X101902380Y-69635809D01*
X102330952Y-70016761D02*
X102426190Y-70064380D01*
X102616666Y-70064380D01*
X102711904Y-70016761D01*
X102759523Y-69921523D01*
X102759523Y-69873904D01*
X102711904Y-69778666D01*
X102616666Y-69731047D01*
X102473809Y-69731047D01*
X102378571Y-69683428D01*
X102330952Y-69588190D01*
X102330952Y-69540571D01*
X102378571Y-69445333D01*
X102473809Y-69397714D01*
X102616666Y-69397714D01*
X102711904Y-69445333D01*
X103045238Y-69397714D02*
X103426190Y-69397714D01*
X103188095Y-69064380D02*
X103188095Y-69921523D01*
X103235714Y-70016761D01*
X103330952Y-70064380D01*
X103426190Y-70064380D01*
X104140476Y-70016761D02*
X104045238Y-70064380D01*
X103854761Y-70064380D01*
X103759523Y-70016761D01*
X103711904Y-69921523D01*
X103711904Y-69540571D01*
X103759523Y-69445333D01*
X103854761Y-69397714D01*
X104045238Y-69397714D01*
X104140476Y-69445333D01*
X104188095Y-69540571D01*
X104188095Y-69635809D01*
X103711904Y-69731047D01*
X104616666Y-70064380D02*
X104616666Y-69397714D01*
X104616666Y-69588190D02*
X104664285Y-69492952D01*
X104711904Y-69445333D01*
X104807142Y-69397714D01*
X104902380Y-69397714D01*
X106188095Y-69064380D02*
X106378571Y-69064380D01*
X106473809Y-69112000D01*
X106569047Y-69207238D01*
X106616666Y-69397714D01*
X106616666Y-69731047D01*
X106569047Y-69921523D01*
X106473809Y-70016761D01*
X106378571Y-70064380D01*
X106188095Y-70064380D01*
X106092857Y-70016761D01*
X105997619Y-69921523D01*
X105950000Y-69731047D01*
X105950000Y-69397714D01*
X105997619Y-69207238D01*
X106092857Y-69112000D01*
X106188095Y-69064380D01*
X107045238Y-70064380D02*
X107045238Y-69064380D01*
X107616666Y-70064380D02*
X107188095Y-69492952D01*
X107616666Y-69064380D02*
X107045238Y-69635809D01*
X120674761Y-99719380D02*
X120674761Y-98719380D01*
X120674761Y-99195571D02*
X121246190Y-99195571D01*
X121246190Y-99719380D02*
X121246190Y-98719380D01*
X122055714Y-99195571D02*
X121722380Y-99195571D01*
X121722380Y-99719380D02*
X121722380Y-98719380D01*
X122198571Y-98719380D01*
X123150952Y-99719380D02*
X122817619Y-99243190D01*
X122579523Y-99719380D02*
X122579523Y-98719380D01*
X122960476Y-98719380D01*
X123055714Y-98767000D01*
X123103333Y-98814619D01*
X123150952Y-98909857D01*
X123150952Y-99052714D01*
X123103333Y-99147952D01*
X123055714Y-99195571D01*
X122960476Y-99243190D01*
X122579523Y-99243190D01*
X124341428Y-99338428D02*
X125103333Y-99338428D01*
X124722380Y-99719380D02*
X124722380Y-98957476D01*
X126103333Y-99719380D02*
X125531904Y-99719380D01*
X125817619Y-99719380D02*
X125817619Y-98719380D01*
X125722380Y-98862238D01*
X125627142Y-98957476D01*
X125531904Y-99005095D01*
X126484285Y-98814619D02*
X126531904Y-98767000D01*
X126627142Y-98719380D01*
X126865238Y-98719380D01*
X126960476Y-98767000D01*
X127008095Y-98814619D01*
X127055714Y-98909857D01*
X127055714Y-99005095D01*
X127008095Y-99147952D01*
X126436666Y-99719380D01*
X127055714Y-99719380D01*
X127341428Y-98719380D02*
X127674761Y-99719380D01*
X128008095Y-98719380D01*
X121603333Y-100417000D02*
X121508095Y-100369380D01*
X121365238Y-100369380D01*
X121222380Y-100417000D01*
X121127142Y-100512238D01*
X121079523Y-100607476D01*
X121031904Y-100797952D01*
X121031904Y-100940809D01*
X121079523Y-101131285D01*
X121127142Y-101226523D01*
X121222380Y-101321761D01*
X121365238Y-101369380D01*
X121460476Y-101369380D01*
X121603333Y-101321761D01*
X121650952Y-101274142D01*
X121650952Y-100940809D01*
X121460476Y-100940809D01*
X122079523Y-101369380D02*
X122079523Y-100369380D01*
X122650952Y-101369380D01*
X122650952Y-100369380D01*
X123127142Y-101369380D02*
X123127142Y-100369380D01*
X123365238Y-100369380D01*
X123508095Y-100417000D01*
X123603333Y-100512238D01*
X123650952Y-100607476D01*
X123698571Y-100797952D01*
X123698571Y-100940809D01*
X123650952Y-101131285D01*
X123603333Y-101226523D01*
X123508095Y-101321761D01*
X123365238Y-101369380D01*
X123127142Y-101369380D01*
X125412857Y-100417000D02*
X125317619Y-100369380D01*
X125174761Y-100369380D01*
X125031904Y-100417000D01*
X124936666Y-100512238D01*
X124889047Y-100607476D01*
X124841428Y-100797952D01*
X124841428Y-100940809D01*
X124889047Y-101131285D01*
X124936666Y-101226523D01*
X125031904Y-101321761D01*
X125174761Y-101369380D01*
X125270000Y-101369380D01*
X125412857Y-101321761D01*
X125460476Y-101274142D01*
X125460476Y-100940809D01*
X125270000Y-100940809D01*
X125889047Y-101369380D02*
X125889047Y-100369380D01*
X126460476Y-101369380D01*
X126460476Y-100369380D01*
X126936666Y-101369380D02*
X126936666Y-100369380D01*
X127174761Y-100369380D01*
X127317619Y-100417000D01*
X127412857Y-100512238D01*
X127460476Y-100607476D01*
X127508095Y-100797952D01*
X127508095Y-100940809D01*
X127460476Y-101131285D01*
X127412857Y-101226523D01*
X127317619Y-101321761D01*
X127174761Y-101369380D01*
X126936666Y-101369380D01*
X110673428Y-99925761D02*
X110816285Y-99973380D01*
X111054380Y-99973380D01*
X111149619Y-99925761D01*
X111197238Y-99878142D01*
X111244857Y-99782904D01*
X111244857Y-99687666D01*
X111197238Y-99592428D01*
X111149619Y-99544809D01*
X111054380Y-99497190D01*
X110863904Y-99449571D01*
X110768666Y-99401952D01*
X110721047Y-99354333D01*
X110673428Y-99259095D01*
X110673428Y-99163857D01*
X110721047Y-99068619D01*
X110768666Y-99021000D01*
X110863904Y-98973380D01*
X111102000Y-98973380D01*
X111244857Y-99021000D01*
X111673428Y-99973380D02*
X111673428Y-98973380D01*
X111911523Y-98973380D01*
X112054380Y-99021000D01*
X112149619Y-99116238D01*
X112197238Y-99211476D01*
X112244857Y-99401952D01*
X112244857Y-99544809D01*
X112197238Y-99735285D01*
X112149619Y-99830523D01*
X112054380Y-99925761D01*
X111911523Y-99973380D01*
X111673428Y-99973380D01*
X113244857Y-99878142D02*
X113197238Y-99925761D01*
X113054380Y-99973380D01*
X112959142Y-99973380D01*
X112816285Y-99925761D01*
X112721047Y-99830523D01*
X112673428Y-99735285D01*
X112625809Y-99544809D01*
X112625809Y-99401952D01*
X112673428Y-99211476D01*
X112721047Y-99116238D01*
X112816285Y-99021000D01*
X112959142Y-98973380D01*
X113054380Y-98973380D01*
X113197238Y-99021000D01*
X113244857Y-99068619D01*
X114625809Y-98973380D02*
X114816285Y-98973380D01*
X114911523Y-99021000D01*
X115006761Y-99116238D01*
X115054380Y-99306714D01*
X115054380Y-99640047D01*
X115006761Y-99830523D01*
X114911523Y-99925761D01*
X114816285Y-99973380D01*
X114625809Y-99973380D01*
X114530571Y-99925761D01*
X114435333Y-99830523D01*
X114387714Y-99640047D01*
X114387714Y-99306714D01*
X114435333Y-99116238D01*
X114530571Y-99021000D01*
X114625809Y-98973380D01*
X115911523Y-99306714D02*
X115911523Y-99973380D01*
X115482952Y-99306714D02*
X115482952Y-99830523D01*
X115530571Y-99925761D01*
X115625809Y-99973380D01*
X115768666Y-99973380D01*
X115863904Y-99925761D01*
X115911523Y-99878142D01*
X116244857Y-99306714D02*
X116625809Y-99306714D01*
X116387714Y-98973380D02*
X116387714Y-99830523D01*
X116435333Y-99925761D01*
X116530571Y-99973380D01*
X116625809Y-99973380D01*
X111244857Y-101575761D02*
X111387714Y-101623380D01*
X111625809Y-101623380D01*
X111721047Y-101575761D01*
X111768666Y-101528142D01*
X111816285Y-101432904D01*
X111816285Y-101337666D01*
X111768666Y-101242428D01*
X111721047Y-101194809D01*
X111625809Y-101147190D01*
X111435333Y-101099571D01*
X111340095Y-101051952D01*
X111292476Y-101004333D01*
X111244857Y-100909095D01*
X111244857Y-100813857D01*
X111292476Y-100718619D01*
X111340095Y-100671000D01*
X111435333Y-100623380D01*
X111673428Y-100623380D01*
X111816285Y-100671000D01*
X112244857Y-101623380D02*
X112244857Y-100623380D01*
X112482952Y-100623380D01*
X112625809Y-100671000D01*
X112721047Y-100766238D01*
X112768666Y-100861476D01*
X112816285Y-101051952D01*
X112816285Y-101194809D01*
X112768666Y-101385285D01*
X112721047Y-101480523D01*
X112625809Y-101575761D01*
X112482952Y-101623380D01*
X112244857Y-101623380D01*
X113816285Y-101528142D02*
X113768666Y-101575761D01*
X113625809Y-101623380D01*
X113530571Y-101623380D01*
X113387714Y-101575761D01*
X113292476Y-101480523D01*
X113244857Y-101385285D01*
X113197238Y-101194809D01*
X113197238Y-101051952D01*
X113244857Y-100861476D01*
X113292476Y-100766238D01*
X113387714Y-100671000D01*
X113530571Y-100623380D01*
X113625809Y-100623380D01*
X113768666Y-100671000D01*
X113816285Y-100718619D01*
X115006761Y-101623380D02*
X115006761Y-100623380D01*
X115482952Y-100956714D02*
X115482952Y-101623380D01*
X115482952Y-101051952D02*
X115530571Y-101004333D01*
X115625809Y-100956714D01*
X115768666Y-100956714D01*
X115863904Y-101004333D01*
X115911523Y-101099571D01*
X115911523Y-101623380D01*
X134152857Y-67223380D02*
X133676666Y-67223380D01*
X133629047Y-67699571D01*
X133676666Y-67651952D01*
X133771904Y-67604333D01*
X134010000Y-67604333D01*
X134105238Y-67651952D01*
X134152857Y-67699571D01*
X134200476Y-67794809D01*
X134200476Y-68032904D01*
X134152857Y-68128142D01*
X134105238Y-68175761D01*
X134010000Y-68223380D01*
X133771904Y-68223380D01*
X133676666Y-68175761D01*
X133629047Y-68128142D01*
X134533809Y-67223380D02*
X135200476Y-68223380D01*
X135200476Y-67223380D02*
X134533809Y-68223380D01*
X136819523Y-67223380D02*
X136343333Y-67223380D01*
X136295714Y-67699571D01*
X136343333Y-67651952D01*
X136438571Y-67604333D01*
X136676666Y-67604333D01*
X136771904Y-67651952D01*
X136819523Y-67699571D01*
X136867142Y-67794809D01*
X136867142Y-68032904D01*
X136819523Y-68128142D01*
X136771904Y-68175761D01*
X136676666Y-68223380D01*
X136438571Y-68223380D01*
X136343333Y-68175761D01*
X136295714Y-68128142D01*
X137295714Y-67842428D02*
X138057619Y-67842428D01*
X139057619Y-68223380D02*
X138486190Y-68223380D01*
X138771904Y-68223380D02*
X138771904Y-67223380D01*
X138676666Y-67366238D01*
X138581428Y-67461476D01*
X138486190Y-67509095D01*
X139962380Y-67223380D02*
X139486190Y-67223380D01*
X139438571Y-67699571D01*
X139486190Y-67651952D01*
X139581428Y-67604333D01*
X139819523Y-67604333D01*
X139914761Y-67651952D01*
X139962380Y-67699571D01*
X140010000Y-67794809D01*
X140010000Y-68032904D01*
X139962380Y-68128142D01*
X139914761Y-68175761D01*
X139819523Y-68223380D01*
X139581428Y-68223380D01*
X139486190Y-68175761D01*
X139438571Y-68128142D01*
X140295714Y-67223380D02*
X140629047Y-68223380D01*
X140962380Y-67223380D01*
X142057619Y-68223380D02*
X142057619Y-67223380D01*
X142533809Y-67556714D02*
X142533809Y-68223380D01*
X142533809Y-67651952D02*
X142581428Y-67604333D01*
X142676666Y-67556714D01*
X142819523Y-67556714D01*
X142914761Y-67604333D01*
X142962380Y-67699571D01*
X142962380Y-68223380D01*
X143438571Y-67556714D02*
X143438571Y-68556714D01*
X143438571Y-67604333D02*
X143533809Y-67556714D01*
X143724285Y-67556714D01*
X143819523Y-67604333D01*
X143867142Y-67651952D01*
X143914761Y-67747190D01*
X143914761Y-68032904D01*
X143867142Y-68128142D01*
X143819523Y-68175761D01*
X143724285Y-68223380D01*
X143533809Y-68223380D01*
X143438571Y-68175761D01*
X144771904Y-67556714D02*
X144771904Y-68223380D01*
X144343333Y-67556714D02*
X144343333Y-68080523D01*
X144390952Y-68175761D01*
X144486190Y-68223380D01*
X144629047Y-68223380D01*
X144724285Y-68175761D01*
X144771904Y-68128142D01*
X145105238Y-67556714D02*
X145486190Y-67556714D01*
X145248095Y-67223380D02*
X145248095Y-68080523D01*
X145295714Y-68175761D01*
X145390952Y-68223380D01*
X145486190Y-68223380D01*
X135462380Y-69587666D02*
X135938571Y-69587666D01*
X135367142Y-69873380D02*
X135700476Y-68873380D01*
X136033809Y-69873380D01*
X136795714Y-69825761D02*
X136700476Y-69873380D01*
X136510000Y-69873380D01*
X136414761Y-69825761D01*
X136367142Y-69778142D01*
X136319523Y-69682904D01*
X136319523Y-69397190D01*
X136367142Y-69301952D01*
X136414761Y-69254333D01*
X136510000Y-69206714D01*
X136700476Y-69206714D01*
X136795714Y-69254333D01*
X137081428Y-69206714D02*
X137462380Y-69206714D01*
X137224285Y-68873380D02*
X137224285Y-69730523D01*
X137271904Y-69825761D01*
X137367142Y-69873380D01*
X137462380Y-69873380D01*
X137795714Y-69873380D02*
X137795714Y-69206714D01*
X137795714Y-68873380D02*
X137748095Y-68921000D01*
X137795714Y-68968619D01*
X137843333Y-68921000D01*
X137795714Y-68873380D01*
X137795714Y-68968619D01*
X138176666Y-69206714D02*
X138414761Y-69873380D01*
X138652857Y-69206714D01*
X139414761Y-69825761D02*
X139319523Y-69873380D01*
X139129047Y-69873380D01*
X139033809Y-69825761D01*
X138986190Y-69730523D01*
X138986190Y-69349571D01*
X139033809Y-69254333D01*
X139129047Y-69206714D01*
X139319523Y-69206714D01*
X139414761Y-69254333D01*
X139462380Y-69349571D01*
X139462380Y-69444809D01*
X138986190Y-69540047D01*
X140652857Y-69873380D02*
X140652857Y-68873380D01*
X140652857Y-69349571D02*
X141224285Y-69349571D01*
X141224285Y-69873380D02*
X141224285Y-68873380D01*
X141700476Y-69873380D02*
X141700476Y-69206714D01*
X141700476Y-68873380D02*
X141652857Y-68921000D01*
X141700476Y-68968619D01*
X141748095Y-68921000D01*
X141700476Y-68873380D01*
X141700476Y-68968619D01*
X142605238Y-69206714D02*
X142605238Y-70016238D01*
X142557619Y-70111476D01*
X142510000Y-70159095D01*
X142414761Y-70206714D01*
X142271904Y-70206714D01*
X142176666Y-70159095D01*
X142605238Y-69825761D02*
X142510000Y-69873380D01*
X142319523Y-69873380D01*
X142224285Y-69825761D01*
X142176666Y-69778142D01*
X142129047Y-69682904D01*
X142129047Y-69397190D01*
X142176666Y-69301952D01*
X142224285Y-69254333D01*
X142319523Y-69206714D01*
X142510000Y-69206714D01*
X142605238Y-69254333D01*
X143081428Y-69873380D02*
X143081428Y-68873380D01*
X143510000Y-69873380D02*
X143510000Y-69349571D01*
X143462380Y-69254333D01*
X143367142Y-69206714D01*
X143224285Y-69206714D01*
X143129047Y-69254333D01*
X143081428Y-69301952D01*
X115166380Y-67794380D02*
X115737809Y-67794380D01*
X115452095Y-68794380D02*
X115452095Y-67794380D01*
X116214000Y-68794380D02*
X116118761Y-68746761D01*
X116071142Y-68699142D01*
X116023523Y-68603904D01*
X116023523Y-68318190D01*
X116071142Y-68222952D01*
X116118761Y-68175333D01*
X116214000Y-68127714D01*
X116356857Y-68127714D01*
X116452095Y-68175333D01*
X116499714Y-68222952D01*
X116547333Y-68318190D01*
X116547333Y-68603904D01*
X116499714Y-68699142D01*
X116452095Y-68746761D01*
X116356857Y-68794380D01*
X116214000Y-68794380D01*
X117737809Y-68794380D02*
X117737809Y-67794380D01*
X117975904Y-67794380D01*
X118118761Y-67842000D01*
X118214000Y-67937238D01*
X118261619Y-68032476D01*
X118309238Y-68222952D01*
X118309238Y-68365809D01*
X118261619Y-68556285D01*
X118214000Y-68651523D01*
X118118761Y-68746761D01*
X117975904Y-68794380D01*
X117737809Y-68794380D01*
X119166380Y-68794380D02*
X119166380Y-68270571D01*
X119118761Y-68175333D01*
X119023523Y-68127714D01*
X118833047Y-68127714D01*
X118737809Y-68175333D01*
X119166380Y-68746761D02*
X119071142Y-68794380D01*
X118833047Y-68794380D01*
X118737809Y-68746761D01*
X118690190Y-68651523D01*
X118690190Y-68556285D01*
X118737809Y-68461047D01*
X118833047Y-68413428D01*
X119071142Y-68413428D01*
X119166380Y-68365809D01*
X119499714Y-68127714D02*
X119880666Y-68127714D01*
X119642571Y-67794380D02*
X119642571Y-68651523D01*
X119690190Y-68746761D01*
X119785428Y-68794380D01*
X119880666Y-68794380D01*
X120642571Y-68794380D02*
X120642571Y-68270571D01*
X120594952Y-68175333D01*
X120499714Y-68127714D01*
X120309238Y-68127714D01*
X120214000Y-68175333D01*
X120642571Y-68746761D02*
X120547333Y-68794380D01*
X120309238Y-68794380D01*
X120214000Y-68746761D01*
X120166380Y-68651523D01*
X120166380Y-68556285D01*
X120214000Y-68461047D01*
X120309238Y-68413428D01*
X120547333Y-68413428D01*
X120642571Y-68365809D01*
X121261619Y-68794380D02*
X121166380Y-68746761D01*
X121118761Y-68651523D01*
X121118761Y-67794380D01*
X121785428Y-68794380D02*
X121690190Y-68746761D01*
X121642571Y-68699142D01*
X121594952Y-68603904D01*
X121594952Y-68318190D01*
X121642571Y-68222952D01*
X121690190Y-68175333D01*
X121785428Y-68127714D01*
X121928285Y-68127714D01*
X122023523Y-68175333D01*
X122071142Y-68222952D01*
X122118761Y-68318190D01*
X122118761Y-68603904D01*
X122071142Y-68699142D01*
X122023523Y-68746761D01*
X121928285Y-68794380D01*
X121785428Y-68794380D01*
X122975904Y-68127714D02*
X122975904Y-68937238D01*
X122928285Y-69032476D01*
X122880666Y-69080095D01*
X122785428Y-69127714D01*
X122642571Y-69127714D01*
X122547333Y-69080095D01*
X122975904Y-68746761D02*
X122880666Y-68794380D01*
X122690190Y-68794380D01*
X122594952Y-68746761D01*
X122547333Y-68699142D01*
X122499714Y-68603904D01*
X122499714Y-68318190D01*
X122547333Y-68222952D01*
X122594952Y-68175333D01*
X122690190Y-68127714D01*
X122880666Y-68127714D01*
X122975904Y-68175333D01*
X123880666Y-68127714D02*
X123880666Y-68937238D01*
X123833047Y-69032476D01*
X123785428Y-69080095D01*
X123690190Y-69127714D01*
X123547333Y-69127714D01*
X123452095Y-69080095D01*
X123880666Y-68746761D02*
X123785428Y-68794380D01*
X123594952Y-68794380D01*
X123499714Y-68746761D01*
X123452095Y-68699142D01*
X123404476Y-68603904D01*
X123404476Y-68318190D01*
X123452095Y-68222952D01*
X123499714Y-68175333D01*
X123594952Y-68127714D01*
X123785428Y-68127714D01*
X123880666Y-68175333D01*
X124737809Y-68746761D02*
X124642571Y-68794380D01*
X124452095Y-68794380D01*
X124356857Y-68746761D01*
X124309238Y-68651523D01*
X124309238Y-68270571D01*
X124356857Y-68175333D01*
X124452095Y-68127714D01*
X124642571Y-68127714D01*
X124737809Y-68175333D01*
X124785428Y-68270571D01*
X124785428Y-68365809D01*
X124309238Y-68461047D01*
X125214000Y-68794380D02*
X125214000Y-68127714D01*
X125214000Y-68318190D02*
X125261619Y-68222952D01*
X125309238Y-68175333D01*
X125404476Y-68127714D01*
X125499714Y-68127714D01*
X132946380Y-94259380D02*
X132946380Y-93259380D01*
X133517809Y-94259380D01*
X133517809Y-93259380D01*
X134422571Y-93592714D02*
X134422571Y-94259380D01*
X133994000Y-93592714D02*
X133994000Y-94116523D01*
X134041619Y-94211761D01*
X134136857Y-94259380D01*
X134279714Y-94259380D01*
X134374952Y-94211761D01*
X134422571Y-94164142D01*
X135470190Y-94259380D02*
X135136857Y-93783190D01*
X134898761Y-94259380D02*
X134898761Y-93259380D01*
X135279714Y-93259380D01*
X135374952Y-93307000D01*
X135422571Y-93354619D01*
X135470190Y-93449857D01*
X135470190Y-93592714D01*
X135422571Y-93687952D01*
X135374952Y-93735571D01*
X135279714Y-93783190D01*
X134898761Y-93783190D01*
X136327333Y-94259380D02*
X136327333Y-93735571D01*
X136279714Y-93640333D01*
X136184476Y-93592714D01*
X135994000Y-93592714D01*
X135898761Y-93640333D01*
X136327333Y-94211761D02*
X136232095Y-94259380D01*
X135994000Y-94259380D01*
X135898761Y-94211761D01*
X135851142Y-94116523D01*
X135851142Y-94021285D01*
X135898761Y-93926047D01*
X135994000Y-93878428D01*
X136232095Y-93878428D01*
X136327333Y-93830809D01*
X137232095Y-94211761D02*
X137136857Y-94259380D01*
X136946380Y-94259380D01*
X136851142Y-94211761D01*
X136803523Y-94164142D01*
X136755904Y-94068904D01*
X136755904Y-93783190D01*
X136803523Y-93687952D01*
X136851142Y-93640333D01*
X136946380Y-93592714D01*
X137136857Y-93592714D01*
X137232095Y-93640333D01*
X137660666Y-94259380D02*
X137660666Y-93592714D01*
X137660666Y-93259380D02*
X137613047Y-93307000D01*
X137660666Y-93354619D01*
X137708285Y-93307000D01*
X137660666Y-93259380D01*
X137660666Y-93354619D01*
X138136857Y-93592714D02*
X138136857Y-94259380D01*
X138136857Y-93687952D02*
X138184476Y-93640333D01*
X138279714Y-93592714D01*
X138422571Y-93592714D01*
X138517809Y-93640333D01*
X138565428Y-93735571D01*
X138565428Y-94259380D01*
X139470190Y-93592714D02*
X139470190Y-94402238D01*
X139422571Y-94497476D01*
X139374952Y-94545095D01*
X139279714Y-94592714D01*
X139136857Y-94592714D01*
X139041619Y-94545095D01*
X139470190Y-94211761D02*
X139374952Y-94259380D01*
X139184476Y-94259380D01*
X139089238Y-94211761D01*
X139041619Y-94164142D01*
X138994000Y-94068904D01*
X138994000Y-93783190D01*
X139041619Y-93687952D01*
X139089238Y-93640333D01*
X139184476Y-93592714D01*
X139374952Y-93592714D01*
X139470190Y-93640333D01*
X140660666Y-93354619D02*
X140708285Y-93307000D01*
X140803523Y-93259380D01*
X141041619Y-93259380D01*
X141136857Y-93307000D01*
X141184476Y-93354619D01*
X141232095Y-93449857D01*
X141232095Y-93545095D01*
X141184476Y-93687952D01*
X140613047Y-94259380D01*
X141232095Y-94259380D01*
X141851142Y-93259380D02*
X141946380Y-93259380D01*
X142041619Y-93307000D01*
X142089238Y-93354619D01*
X142136857Y-93449857D01*
X142184476Y-93640333D01*
X142184476Y-93878428D01*
X142136857Y-94068904D01*
X142089238Y-94164142D01*
X142041619Y-94211761D01*
X141946380Y-94259380D01*
X141851142Y-94259380D01*
X141755904Y-94211761D01*
X141708285Y-94164142D01*
X141660666Y-94068904D01*
X141613047Y-93878428D01*
X141613047Y-93640333D01*
X141660666Y-93449857D01*
X141708285Y-93354619D01*
X141755904Y-93307000D01*
X141851142Y-93259380D01*
X142565428Y-93354619D02*
X142613047Y-93307000D01*
X142708285Y-93259380D01*
X142946380Y-93259380D01*
X143041619Y-93307000D01*
X143089238Y-93354619D01*
X143136857Y-93449857D01*
X143136857Y-93545095D01*
X143089238Y-93687952D01*
X142517809Y-94259380D01*
X143136857Y-94259380D01*
X143755904Y-93259380D02*
X143851142Y-93259380D01*
X143946380Y-93307000D01*
X143994000Y-93354619D01*
X144041619Y-93449857D01*
X144089238Y-93640333D01*
X144089238Y-93878428D01*
X144041619Y-94068904D01*
X143994000Y-94164142D01*
X143946380Y-94211761D01*
X143851142Y-94259380D01*
X143755904Y-94259380D01*
X143660666Y-94211761D01*
X143613047Y-94164142D01*
X143565428Y-94068904D01*
X143517809Y-93878428D01*
X143517809Y-93640333D01*
X143565428Y-93449857D01*
X143613047Y-93354619D01*
X143660666Y-93307000D01*
X143755904Y-93259380D01*
X131398761Y-95861761D02*
X131541619Y-95909380D01*
X131779714Y-95909380D01*
X131874952Y-95861761D01*
X131922571Y-95814142D01*
X131970190Y-95718904D01*
X131970190Y-95623666D01*
X131922571Y-95528428D01*
X131874952Y-95480809D01*
X131779714Y-95433190D01*
X131589238Y-95385571D01*
X131494000Y-95337952D01*
X131446380Y-95290333D01*
X131398761Y-95195095D01*
X131398761Y-95099857D01*
X131446380Y-95004619D01*
X131494000Y-94957000D01*
X131589238Y-94909380D01*
X131827333Y-94909380D01*
X131970190Y-94957000D01*
X132398761Y-95909380D02*
X132398761Y-94909380D01*
X132636857Y-94909380D01*
X132779714Y-94957000D01*
X132874952Y-95052238D01*
X132922571Y-95147476D01*
X132970190Y-95337952D01*
X132970190Y-95480809D01*
X132922571Y-95671285D01*
X132874952Y-95766523D01*
X132779714Y-95861761D01*
X132636857Y-95909380D01*
X132398761Y-95909380D01*
X133970190Y-95814142D02*
X133922571Y-95861761D01*
X133779714Y-95909380D01*
X133684476Y-95909380D01*
X133541619Y-95861761D01*
X133446380Y-95766523D01*
X133398761Y-95671285D01*
X133351142Y-95480809D01*
X133351142Y-95337952D01*
X133398761Y-95147476D01*
X133446380Y-95052238D01*
X133541619Y-94957000D01*
X133684476Y-94909380D01*
X133779714Y-94909380D01*
X133922571Y-94957000D01*
X133970190Y-95004619D01*
X135636857Y-95909380D02*
X135160666Y-95909380D01*
X135160666Y-94909380D01*
X136398761Y-95909380D02*
X136398761Y-95385571D01*
X136351142Y-95290333D01*
X136255904Y-95242714D01*
X136065428Y-95242714D01*
X135970190Y-95290333D01*
X136398761Y-95861761D02*
X136303523Y-95909380D01*
X136065428Y-95909380D01*
X135970190Y-95861761D01*
X135922571Y-95766523D01*
X135922571Y-95671285D01*
X135970190Y-95576047D01*
X136065428Y-95528428D01*
X136303523Y-95528428D01*
X136398761Y-95480809D01*
X136732095Y-95242714D02*
X137113047Y-95242714D01*
X136874952Y-94909380D02*
X136874952Y-95766523D01*
X136922571Y-95861761D01*
X137017809Y-95909380D01*
X137113047Y-95909380D01*
X137874952Y-95861761D02*
X137779714Y-95909380D01*
X137589238Y-95909380D01*
X137494000Y-95861761D01*
X137446380Y-95814142D01*
X137398761Y-95718904D01*
X137398761Y-95433190D01*
X137446380Y-95337952D01*
X137494000Y-95290333D01*
X137589238Y-95242714D01*
X137779714Y-95242714D01*
X137874952Y-95290333D01*
X138303523Y-95909380D02*
X138303523Y-94909380D01*
X138732095Y-95909380D02*
X138732095Y-95385571D01*
X138684476Y-95290333D01*
X138589238Y-95242714D01*
X138446380Y-95242714D01*
X138351142Y-95290333D01*
X138303523Y-95337952D01*
X139208285Y-95909380D02*
X139208285Y-95242714D01*
X139208285Y-94909380D02*
X139160666Y-94957000D01*
X139208285Y-95004619D01*
X139255904Y-94957000D01*
X139208285Y-94909380D01*
X139208285Y-95004619D01*
X139684476Y-95242714D02*
X139684476Y-95909380D01*
X139684476Y-95337952D02*
X139732095Y-95290333D01*
X139827333Y-95242714D01*
X139970190Y-95242714D01*
X140065428Y-95290333D01*
X140113047Y-95385571D01*
X140113047Y-95909380D01*
X141017809Y-95242714D02*
X141017809Y-96052238D01*
X140970190Y-96147476D01*
X140922571Y-96195095D01*
X140827333Y-96242714D01*
X140684476Y-96242714D01*
X140589238Y-96195095D01*
X141017809Y-95861761D02*
X140922571Y-95909380D01*
X140732095Y-95909380D01*
X140636857Y-95861761D01*
X140589238Y-95814142D01*
X140541619Y-95718904D01*
X140541619Y-95433190D01*
X140589238Y-95337952D01*
X140636857Y-95290333D01*
X140732095Y-95242714D01*
X140922571Y-95242714D01*
X141017809Y-95290333D01*
X142589238Y-95385571D02*
X142255904Y-95385571D01*
X142255904Y-95909380D02*
X142255904Y-94909380D01*
X142732095Y-94909380D01*
X143541619Y-95909380D02*
X143541619Y-95385571D01*
X143494000Y-95290333D01*
X143398761Y-95242714D01*
X143208285Y-95242714D01*
X143113047Y-95290333D01*
X143541619Y-95861761D02*
X143446380Y-95909380D01*
X143208285Y-95909380D01*
X143113047Y-95861761D01*
X143065428Y-95766523D01*
X143065428Y-95671285D01*
X143113047Y-95576047D01*
X143208285Y-95528428D01*
X143446380Y-95528428D01*
X143541619Y-95480809D01*
X144446380Y-95242714D02*
X144446380Y-95909380D01*
X144017809Y-95242714D02*
X144017809Y-95766523D01*
X144065428Y-95861761D01*
X144160666Y-95909380D01*
X144303523Y-95909380D01*
X144398761Y-95861761D01*
X144446380Y-95814142D01*
X145065428Y-95909380D02*
X144970190Y-95861761D01*
X144922571Y-95766523D01*
X144922571Y-94909380D01*
X145303523Y-95242714D02*
X145684476Y-95242714D01*
X145446380Y-94909380D02*
X145446380Y-95766523D01*
X145494000Y-95861761D01*
X145589238Y-95909380D01*
X145684476Y-95909380D01*
X129755904Y-97559380D02*
X129755904Y-96559380D01*
X130232095Y-96892714D02*
X130232095Y-97559380D01*
X130232095Y-96987952D02*
X130279714Y-96940333D01*
X130374952Y-96892714D01*
X130517809Y-96892714D01*
X130613047Y-96940333D01*
X130660666Y-97035571D01*
X130660666Y-97559380D01*
X130994000Y-96892714D02*
X131374952Y-96892714D01*
X131136857Y-96559380D02*
X131136857Y-97416523D01*
X131184476Y-97511761D01*
X131279714Y-97559380D01*
X131374952Y-97559380D01*
X132089238Y-97511761D02*
X131994000Y-97559380D01*
X131803523Y-97559380D01*
X131708285Y-97511761D01*
X131660666Y-97416523D01*
X131660666Y-97035571D01*
X131708285Y-96940333D01*
X131803523Y-96892714D01*
X131994000Y-96892714D01*
X132089238Y-96940333D01*
X132136857Y-97035571D01*
X132136857Y-97130809D01*
X131660666Y-97226047D01*
X132565428Y-97559380D02*
X132565428Y-96892714D01*
X132565428Y-97083190D02*
X132613047Y-96987952D01*
X132660666Y-96940333D01*
X132755904Y-96892714D01*
X132851142Y-96892714D01*
X133184476Y-96892714D02*
X133184476Y-97892714D01*
X133184476Y-96940333D02*
X133279714Y-96892714D01*
X133470190Y-96892714D01*
X133565428Y-96940333D01*
X133613047Y-96987952D01*
X133660666Y-97083190D01*
X133660666Y-97368904D01*
X133613047Y-97464142D01*
X133565428Y-97511761D01*
X133470190Y-97559380D01*
X133279714Y-97559380D01*
X133184476Y-97511761D01*
X134232095Y-97559380D02*
X134136857Y-97511761D01*
X134089238Y-97464142D01*
X134041619Y-97368904D01*
X134041619Y-97083190D01*
X134089238Y-96987952D01*
X134136857Y-96940333D01*
X134232095Y-96892714D01*
X134374952Y-96892714D01*
X134470190Y-96940333D01*
X134517809Y-96987952D01*
X134565428Y-97083190D01*
X134565428Y-97368904D01*
X134517809Y-97464142D01*
X134470190Y-97511761D01*
X134374952Y-97559380D01*
X134232095Y-97559380D01*
X134946380Y-97511761D02*
X135041619Y-97559380D01*
X135232095Y-97559380D01*
X135327333Y-97511761D01*
X135374952Y-97416523D01*
X135374952Y-97368904D01*
X135327333Y-97273666D01*
X135232095Y-97226047D01*
X135089238Y-97226047D01*
X134994000Y-97178428D01*
X134946380Y-97083190D01*
X134946380Y-97035571D01*
X134994000Y-96940333D01*
X135089238Y-96892714D01*
X135232095Y-96892714D01*
X135327333Y-96940333D01*
X136184476Y-97511761D02*
X136089238Y-97559380D01*
X135898761Y-97559380D01*
X135803523Y-97511761D01*
X135755904Y-97416523D01*
X135755904Y-97035571D01*
X135803523Y-96940333D01*
X135898761Y-96892714D01*
X136089238Y-96892714D01*
X136184476Y-96940333D01*
X136232095Y-97035571D01*
X136232095Y-97130809D01*
X135755904Y-97226047D01*
X137994000Y-97559380D02*
X137660666Y-97083190D01*
X137422571Y-97559380D02*
X137422571Y-96559380D01*
X137803523Y-96559380D01*
X137898761Y-96607000D01*
X137946380Y-96654619D01*
X137994000Y-96749857D01*
X137994000Y-96892714D01*
X137946380Y-96987952D01*
X137898761Y-97035571D01*
X137803523Y-97083190D01*
X137422571Y-97083190D01*
X138803523Y-97511761D02*
X138708285Y-97559380D01*
X138517809Y-97559380D01*
X138422571Y-97511761D01*
X138374952Y-97416523D01*
X138374952Y-97035571D01*
X138422571Y-96940333D01*
X138517809Y-96892714D01*
X138708285Y-96892714D01*
X138803523Y-96940333D01*
X138851142Y-97035571D01*
X138851142Y-97130809D01*
X138374952Y-97226047D01*
X139422571Y-97559380D02*
X139327333Y-97511761D01*
X139279714Y-97416523D01*
X139279714Y-96559380D01*
X140232095Y-97559380D02*
X140232095Y-97035571D01*
X140184476Y-96940333D01*
X140089238Y-96892714D01*
X139898761Y-96892714D01*
X139803523Y-96940333D01*
X140232095Y-97511761D02*
X140136857Y-97559380D01*
X139898761Y-97559380D01*
X139803523Y-97511761D01*
X139755904Y-97416523D01*
X139755904Y-97321285D01*
X139803523Y-97226047D01*
X139898761Y-97178428D01*
X140136857Y-97178428D01*
X140232095Y-97130809D01*
X140613047Y-96892714D02*
X140851142Y-97559380D01*
X141089238Y-96892714D02*
X140851142Y-97559380D01*
X140755904Y-97797476D01*
X140708285Y-97845095D01*
X140613047Y-97892714D01*
X142089238Y-96559380D02*
X142422571Y-97559380D01*
X142755904Y-96559380D01*
X143470190Y-97511761D02*
X143374952Y-97559380D01*
X143184476Y-97559380D01*
X143089238Y-97511761D01*
X143041619Y-97416523D01*
X143041619Y-97035571D01*
X143089238Y-96940333D01*
X143184476Y-96892714D01*
X143374952Y-96892714D01*
X143470190Y-96940333D01*
X143517809Y-97035571D01*
X143517809Y-97130809D01*
X143041619Y-97226047D01*
X143946380Y-97559380D02*
X143946380Y-96892714D01*
X143946380Y-97083190D02*
X143994000Y-96987952D01*
X144041619Y-96940333D01*
X144136857Y-96892714D01*
X144232095Y-96892714D01*
X145517809Y-96559380D02*
X145613047Y-96559380D01*
X145708285Y-96607000D01*
X145755904Y-96654619D01*
X145803523Y-96749857D01*
X145851142Y-96940333D01*
X145851142Y-97178428D01*
X145803523Y-97368904D01*
X145755904Y-97464142D01*
X145708285Y-97511761D01*
X145613047Y-97559380D01*
X145517809Y-97559380D01*
X145422571Y-97511761D01*
X145374952Y-97464142D01*
X145327333Y-97368904D01*
X145279714Y-97178428D01*
X145279714Y-96940333D01*
X145327333Y-96749857D01*
X145374952Y-96654619D01*
X145422571Y-96607000D01*
X145517809Y-96559380D01*
X146279714Y-97464142D02*
X146327333Y-97511761D01*
X146279714Y-97559380D01*
X146232095Y-97511761D01*
X146279714Y-97464142D01*
X146279714Y-97559380D01*
X147279714Y-97559380D02*
X146708285Y-97559380D01*
X146994000Y-97559380D02*
X146994000Y-96559380D01*
X146898761Y-96702238D01*
X146803523Y-96797476D01*
X146708285Y-96845095D01*
X133446380Y-99209380D02*
X133446380Y-98209380D01*
X133684476Y-98209380D01*
X133827333Y-98257000D01*
X133922571Y-98352238D01*
X133970190Y-98447476D01*
X134017809Y-98637952D01*
X134017809Y-98780809D01*
X133970190Y-98971285D01*
X133922571Y-99066523D01*
X133827333Y-99161761D01*
X133684476Y-99209380D01*
X133446380Y-99209380D01*
X134874952Y-99209380D02*
X134874952Y-98685571D01*
X134827333Y-98590333D01*
X134732095Y-98542714D01*
X134541619Y-98542714D01*
X134446380Y-98590333D01*
X134874952Y-99161761D02*
X134779714Y-99209380D01*
X134541619Y-99209380D01*
X134446380Y-99161761D01*
X134398761Y-99066523D01*
X134398761Y-98971285D01*
X134446380Y-98876047D01*
X134541619Y-98828428D01*
X134779714Y-98828428D01*
X134874952Y-98780809D01*
X135255904Y-98542714D02*
X135494000Y-99209380D01*
X135732095Y-98542714D01*
X136113047Y-99209380D02*
X136113047Y-98542714D01*
X136113047Y-98209380D02*
X136065428Y-98257000D01*
X136113047Y-98304619D01*
X136160666Y-98257000D01*
X136113047Y-98209380D01*
X136113047Y-98304619D01*
X137017809Y-99209380D02*
X137017809Y-98209380D01*
X137017809Y-99161761D02*
X136922571Y-99209380D01*
X136732095Y-99209380D01*
X136636857Y-99161761D01*
X136589238Y-99114142D01*
X136541619Y-99018904D01*
X136541619Y-98733190D01*
X136589238Y-98637952D01*
X136636857Y-98590333D01*
X136732095Y-98542714D01*
X136922571Y-98542714D01*
X137017809Y-98590333D01*
X138589238Y-98685571D02*
X138732095Y-98733190D01*
X138779714Y-98780809D01*
X138827333Y-98876047D01*
X138827333Y-99018904D01*
X138779714Y-99114142D01*
X138732095Y-99161761D01*
X138636857Y-99209380D01*
X138255904Y-99209380D01*
X138255904Y-98209380D01*
X138589238Y-98209380D01*
X138684476Y-98257000D01*
X138732095Y-98304619D01*
X138779714Y-98399857D01*
X138779714Y-98495095D01*
X138732095Y-98590333D01*
X138684476Y-98637952D01*
X138589238Y-98685571D01*
X138255904Y-98685571D01*
X139255904Y-99209380D02*
X139255904Y-98542714D01*
X139255904Y-98209380D02*
X139208285Y-98257000D01*
X139255904Y-98304619D01*
X139303523Y-98257000D01*
X139255904Y-98209380D01*
X139255904Y-98304619D01*
X139732095Y-99209380D02*
X139732095Y-98542714D01*
X139732095Y-98733190D02*
X139779714Y-98637952D01*
X139827333Y-98590333D01*
X139922571Y-98542714D01*
X140017809Y-98542714D01*
X140779714Y-99209380D02*
X140779714Y-98209380D01*
X140779714Y-99161761D02*
X140684476Y-99209380D01*
X140494000Y-99209380D01*
X140398761Y-99161761D01*
X140351142Y-99114142D01*
X140303523Y-99018904D01*
X140303523Y-98733190D01*
X140351142Y-98637952D01*
X140398761Y-98590333D01*
X140494000Y-98542714D01*
X140684476Y-98542714D01*
X140779714Y-98590333D01*
X141208285Y-99161761D02*
X141303523Y-99209380D01*
X141494000Y-99209380D01*
X141589238Y-99161761D01*
X141636857Y-99066523D01*
X141636857Y-99018904D01*
X141589238Y-98923666D01*
X141494000Y-98876047D01*
X141351142Y-98876047D01*
X141255904Y-98828428D01*
X141208285Y-98733190D01*
X141208285Y-98685571D01*
X141255904Y-98590333D01*
X141351142Y-98542714D01*
X141494000Y-98542714D01*
X141589238Y-98590333D01*
X142494000Y-99209380D02*
X142494000Y-98685571D01*
X142446380Y-98590333D01*
X142351142Y-98542714D01*
X142160666Y-98542714D01*
X142065428Y-98590333D01*
X142494000Y-99161761D02*
X142398761Y-99209380D01*
X142160666Y-99209380D01*
X142065428Y-99161761D01*
X142017809Y-99066523D01*
X142017809Y-98971285D01*
X142065428Y-98876047D01*
X142160666Y-98828428D01*
X142398761Y-98828428D01*
X142494000Y-98780809D01*
X143113047Y-99209380D02*
X143017809Y-99161761D01*
X142970190Y-99066523D01*
X142970190Y-98209380D01*
X143636857Y-99209380D02*
X143541619Y-99161761D01*
X143494000Y-99066523D01*
X143494000Y-98209380D01*
D11*
X145458000Y-70549000D02*
X145458000Y-73434000D01*
X147278000Y-70549000D02*
X145458000Y-70549000D01*
X147278000Y-73434000D02*
X147278000Y-70549000D01*
X145055000Y-73390000D02*
X145055000Y-70505000D01*
X145055000Y-70505000D02*
X143235000Y-70505000D01*
X143235000Y-70505000D02*
X143235000Y-73390000D01*
X141880000Y-73390000D02*
X141880000Y-70505000D01*
X141880000Y-70505000D02*
X140060000Y-70505000D01*
X140060000Y-70505000D02*
X140060000Y-73390000D01*
X138959000Y-73390000D02*
X138959000Y-70505000D01*
X138959000Y-70505000D02*
X137139000Y-70505000D01*
X137139000Y-70505000D02*
X137139000Y-73390000D01*
X134218000Y-70505000D02*
X134218000Y-73390000D01*
X136038000Y-70505000D02*
X134218000Y-70505000D01*
X136038000Y-73390000D02*
X136038000Y-70505000D01*
X102255000Y-72792000D02*
X105140000Y-72792000D01*
X102255000Y-70972000D02*
X102255000Y-72792000D01*
X105140000Y-70972000D02*
X102255000Y-70972000D01*
X107413000Y-99186000D02*
X102013000Y-99186000D01*
X107413000Y-95886000D02*
X102013000Y-95886000D01*
X107413000Y-99186000D02*
X107413000Y-95886000D01*
X133051000Y-80812000D02*
X133071000Y-80812000D01*
X133051000Y-80312000D02*
X133051000Y-80812000D01*
X149081000Y-80312000D02*
X133051000Y-80312000D01*
X149081000Y-80812000D02*
X149081000Y-80312000D01*
X149061000Y-80812000D02*
X149081000Y-80812000D01*
X131631000Y-76222000D02*
X131631000Y-79297000D01*
X150501000Y-76222000D02*
X131631000Y-76222000D01*
X150501000Y-79297000D02*
X150501000Y-76222000D01*
X129800000Y-79297000D02*
X129800000Y-76222000D01*
X129800000Y-76222000D02*
X110930000Y-76222000D01*
X110930000Y-76222000D02*
X110930000Y-79297000D01*
X128360000Y-80812000D02*
X128380000Y-80812000D01*
X128380000Y-80812000D02*
X128380000Y-80312000D01*
X128380000Y-80312000D02*
X112350000Y-80312000D01*
X112350000Y-80312000D02*
X112350000Y-80812000D01*
X112350000Y-80812000D02*
X112370000Y-80812000D01*
X116497001Y-96671001D02*
X114687001Y-96671001D01*
X116497001Y-95271001D02*
X116497001Y-96671001D01*
X111637001Y-85211001D02*
X111637001Y-88061001D01*
X114487001Y-85211001D02*
X111637001Y-85211001D01*
X112877001Y-95271001D02*
X112877001Y-96671001D01*
X112877001Y-96671001D02*
X114687001Y-96671001D01*
X114687001Y-85451001D02*
X117497001Y-85451001D01*
X117497001Y-85451001D02*
X117497001Y-95271001D01*
X114687001Y-85451001D02*
X111877001Y-85451001D01*
X111877001Y-95271001D02*
X112877001Y-95271001D01*
X117497001Y-95271001D02*
X116497001Y-95271001D01*
X111877001Y-85451001D02*
X111877001Y-95271001D01*
X119087001Y-85211001D02*
X119087001Y-88061001D01*
X121937001Y-85211001D02*
X119087001Y-85211001D01*
X126047001Y-96671001D02*
X124237001Y-96671001D01*
X126047001Y-95271001D02*
X126047001Y-96671001D01*
X129147001Y-95271001D02*
X126047001Y-95271001D01*
X129147001Y-85451001D02*
X129147001Y-95271001D01*
X124237001Y-85451001D02*
X129147001Y-85451001D01*
X122427001Y-96671001D02*
X124237001Y-96671001D01*
X122427001Y-95271001D02*
X122427001Y-96671001D01*
X119327001Y-95271001D02*
X122427001Y-95271001D01*
X119327001Y-85451001D02*
X119327001Y-95271001D01*
X124237001Y-85451001D02*
X119327001Y-85451001D01*
X93324000Y-75452000D02*
X92624000Y-75452000D01*
X93324000Y-76652000D02*
X93324000Y-75452000D01*
X92624000Y-76652000D02*
X93324000Y-76652000D01*
X92624000Y-75452000D02*
X92624000Y-76652000D01*
X92624000Y-76252000D02*
X93324000Y-75852000D01*
X93324000Y-76082000D02*
X94424000Y-76082000D01*
X92624000Y-76082000D02*
X91524000Y-76082000D01*
X94454000Y-75302000D02*
X94454000Y-74242000D01*
X91454000Y-75302000D02*
X94454000Y-75302000D01*
X91454000Y-74242000D02*
X91454000Y-75282000D01*
X98124000Y-74242000D02*
X87804000Y-74242000D01*
X98124000Y-94912000D02*
X98124000Y-74242000D01*
X87804000Y-94912000D02*
X98124000Y-94912000D01*
X87804000Y-74242000D02*
X87804000Y-94912000D01*
X87644000Y-75392000D02*
X87644000Y-74092000D01*
X87644000Y-74092000D02*
X88854000Y-74092000D01*
X99137000Y-74656000D02*
X107097000Y-74656000D01*
X99137000Y-74656000D02*
X99137000Y-92616002D01*
X104257000Y-94896000D02*
X107357000Y-94896000D01*
X108747000Y-94896000D02*
X109377000Y-94896000D01*
X109377000Y-94056000D02*
X109377000Y-94896000D01*
X109377000Y-84266000D02*
X109377000Y-93396005D01*
X109377000Y-76566000D02*
X109377000Y-82796000D01*
X109377000Y-74656000D02*
X109007000Y-74656000D01*
X106807000Y-88746000D02*
X106807000Y-91286000D01*
X100457000Y-90016000D02*
X101727000Y-90016000D01*
X101727000Y-88746000D02*
X106807000Y-88746000D01*
X106807000Y-90016000D02*
X108057000Y-90016000D01*
X101727000Y-91286000D02*
X101727000Y-90016000D01*
X106807000Y-91286000D02*
X101727000Y-91286000D01*
X108057000Y-90016000D02*
X108057000Y-91286000D01*
X100457000Y-91286000D02*
X100457000Y-90016000D01*
X102997000Y-91286000D02*
X104267000Y-88746000D01*
X101727000Y-90016000D02*
X101727000Y-88746000D01*
X109377000Y-74656000D02*
X109377000Y-75096000D01*
X149604000Y-89591000D02*
X148144000Y-89591000D01*
X149604000Y-86431000D02*
X147444000Y-86431000D01*
X149604000Y-86431000D02*
X149604000Y-87361000D01*
X149604000Y-89591000D02*
X149604000Y-88661000D01*
X146048000Y-89591000D02*
X144588000Y-89591000D01*
X146048000Y-86431000D02*
X143888000Y-86431000D01*
X146048000Y-86431000D02*
X146048000Y-87361000D01*
X146048000Y-89591000D02*
X146048000Y-88661000D01*
X142492000Y-89591000D02*
X142492000Y-88661000D01*
X142492000Y-86431000D02*
X142492000Y-87361000D01*
X142492000Y-86431000D02*
X140332000Y-86431000D01*
X142492000Y-89591000D02*
X141032000Y-89591000D01*
X138936000Y-89591000D02*
X138936000Y-88661000D01*
X138936000Y-86431000D02*
X138936000Y-87361000D01*
X138936000Y-86431000D02*
X136776000Y-86431000D01*
X138936000Y-89591000D02*
X137476000Y-89591000D01*
X135380000Y-89591000D02*
X133920000Y-89591000D01*
X135380000Y-86431000D02*
X133220000Y-86431000D01*
X135380000Y-86431000D02*
X135380000Y-87361000D01*
X135380000Y-89591000D02*
X135380000Y-88661000D01*
X146156000Y-83090936D02*
X146156000Y-84295064D01*
X147976000Y-83090936D02*
X147976000Y-84295064D01*
X145055000Y-83090936D02*
X145055000Y-84295064D01*
X143235000Y-83090936D02*
X143235000Y-84295064D01*
X140187000Y-83090936D02*
X140187000Y-84295064D01*
X142007000Y-83090936D02*
X142007000Y-84295064D01*
X138959000Y-83090936D02*
X138959000Y-84295064D01*
X137139000Y-83090936D02*
X137139000Y-84295064D01*
X136038000Y-83090936D02*
X136038000Y-84295064D01*
X134218000Y-83090936D02*
X134218000Y-84295064D01*
X127402000Y-72484064D02*
X127402000Y-71279936D01*
X125582000Y-72484064D02*
X125582000Y-71279936D01*
X122534000Y-72484064D02*
X122534000Y-71279936D01*
X124354000Y-72484064D02*
X124354000Y-71279936D01*
X121306000Y-72484064D02*
X121306000Y-71279936D01*
X119486000Y-72484064D02*
X119486000Y-71279936D01*
X116438000Y-72484064D02*
X116438000Y-71279936D01*
X118258000Y-72484064D02*
X118258000Y-71279936D01*
X115210000Y-72484064D02*
X115210000Y-71279936D01*
X113390000Y-72484064D02*
X113390000Y-71279936D01*
D10*
X149352666Y-95610380D02*
X149019333Y-95134190D01*
X148781238Y-95610380D02*
X148781238Y-94610380D01*
X149162190Y-94610380D01*
X149257428Y-94658000D01*
X149305047Y-94705619D01*
X149352666Y-94800857D01*
X149352666Y-94943714D01*
X149305047Y-95038952D01*
X149257428Y-95086571D01*
X149162190Y-95134190D01*
X148781238Y-95134190D01*
X149781238Y-95086571D02*
X150114571Y-95086571D01*
X150257428Y-95610380D02*
X149781238Y-95610380D01*
X149781238Y-94610380D01*
X150257428Y-94610380D01*
X151019333Y-95086571D02*
X150686000Y-95086571D01*
X150686000Y-95610380D02*
X150686000Y-94610380D01*
X151162190Y-94610380D01*
X151686000Y-94610380D02*
X151686000Y-94848476D01*
X151447904Y-94753238D02*
X151686000Y-94848476D01*
X151924095Y-94753238D01*
X151543142Y-95038952D02*
X151686000Y-94848476D01*
X151828857Y-95038952D01*
X152447904Y-94610380D02*
X152447904Y-94848476D01*
X152209809Y-94753238D02*
X152447904Y-94848476D01*
X152686000Y-94753238D01*
X152305047Y-95038952D02*
X152447904Y-94848476D01*
X152590761Y-95038952D01*
X149352666Y-65610380D02*
X149019333Y-65134190D01*
X148781238Y-65610380D02*
X148781238Y-64610380D01*
X149162190Y-64610380D01*
X149257428Y-64658000D01*
X149305047Y-64705619D01*
X149352666Y-64800857D01*
X149352666Y-64943714D01*
X149305047Y-65038952D01*
X149257428Y-65086571D01*
X149162190Y-65134190D01*
X148781238Y-65134190D01*
X149781238Y-65086571D02*
X150114571Y-65086571D01*
X150257428Y-65610380D02*
X149781238Y-65610380D01*
X149781238Y-64610380D01*
X150257428Y-64610380D01*
X151019333Y-65086571D02*
X150686000Y-65086571D01*
X150686000Y-65610380D02*
X150686000Y-64610380D01*
X151162190Y-64610380D01*
X151686000Y-64610380D02*
X151686000Y-64848476D01*
X151447904Y-64753238D02*
X151686000Y-64848476D01*
X151924095Y-64753238D01*
X151543142Y-65038952D02*
X151686000Y-64848476D01*
X151828857Y-65038952D01*
X152447904Y-64610380D02*
X152447904Y-64848476D01*
X152209809Y-64753238D02*
X152447904Y-64848476D01*
X152686000Y-64753238D01*
X152305047Y-65038952D02*
X152447904Y-64848476D01*
X152590761Y-65038952D01*
X89352666Y-95610380D02*
X89019333Y-95134190D01*
X88781238Y-95610380D02*
X88781238Y-94610380D01*
X89162190Y-94610380D01*
X89257428Y-94658000D01*
X89305047Y-94705619D01*
X89352666Y-94800857D01*
X89352666Y-94943714D01*
X89305047Y-95038952D01*
X89257428Y-95086571D01*
X89162190Y-95134190D01*
X88781238Y-95134190D01*
X89781238Y-95086571D02*
X90114571Y-95086571D01*
X90257428Y-95610380D02*
X89781238Y-95610380D01*
X89781238Y-94610380D01*
X90257428Y-94610380D01*
X91019333Y-95086571D02*
X90686000Y-95086571D01*
X90686000Y-95610380D02*
X90686000Y-94610380D01*
X91162190Y-94610380D01*
X91686000Y-94610380D02*
X91686000Y-94848476D01*
X91447904Y-94753238D02*
X91686000Y-94848476D01*
X91924095Y-94753238D01*
X91543142Y-95038952D02*
X91686000Y-94848476D01*
X91828857Y-95038952D01*
X92447904Y-94610380D02*
X92447904Y-94848476D01*
X92209809Y-94753238D02*
X92447904Y-94848476D01*
X92686000Y-94753238D01*
X92305047Y-95038952D02*
X92447904Y-94848476D01*
X92590761Y-95038952D01*
X89352666Y-65610380D02*
X89019333Y-65134190D01*
X88781238Y-65610380D02*
X88781238Y-64610380D01*
X89162190Y-64610380D01*
X89257428Y-64658000D01*
X89305047Y-64705619D01*
X89352666Y-64800857D01*
X89352666Y-64943714D01*
X89305047Y-65038952D01*
X89257428Y-65086571D01*
X89162190Y-65134190D01*
X88781238Y-65134190D01*
X89781238Y-65086571D02*
X90114571Y-65086571D01*
X90257428Y-65610380D02*
X89781238Y-65610380D01*
X89781238Y-64610380D01*
X90257428Y-64610380D01*
X91019333Y-65086571D02*
X90686000Y-65086571D01*
X90686000Y-65610380D02*
X90686000Y-64610380D01*
X91162190Y-64610380D01*
X91686000Y-64610380D02*
X91686000Y-64848476D01*
X91447904Y-64753238D02*
X91686000Y-64848476D01*
X91924095Y-64753238D01*
X91543142Y-65038952D02*
X91686000Y-64848476D01*
X91828857Y-65038952D01*
X92447904Y-64610380D02*
X92447904Y-64848476D01*
X92209809Y-64753238D02*
X92447904Y-64848476D01*
X92686000Y-64753238D01*
X92305047Y-65038952D02*
X92447904Y-64848476D01*
X92590761Y-65038952D01*
X148420380Y-73172095D02*
X147420380Y-73172095D01*
X147420380Y-72934000D01*
X147468000Y-72791142D01*
X147563238Y-72695904D01*
X147658476Y-72648285D01*
X147848952Y-72600666D01*
X147991809Y-72600666D01*
X148182285Y-72648285D01*
X148277523Y-72695904D01*
X148372761Y-72791142D01*
X148420380Y-72934000D01*
X148420380Y-73172095D01*
X148420380Y-71648285D02*
X148420380Y-72219714D01*
X148420380Y-71934000D02*
X147420380Y-71934000D01*
X147563238Y-72029238D01*
X147658476Y-72124476D01*
X147706095Y-72219714D01*
X146197380Y-73128095D02*
X145197380Y-73128095D01*
X145197380Y-72890000D01*
X145245000Y-72747142D01*
X145340238Y-72651904D01*
X145435476Y-72604285D01*
X145625952Y-72556666D01*
X145768809Y-72556666D01*
X145959285Y-72604285D01*
X146054523Y-72651904D01*
X146149761Y-72747142D01*
X146197380Y-72890000D01*
X146197380Y-73128095D01*
X145292619Y-72175714D02*
X145245000Y-72128095D01*
X145197380Y-72032857D01*
X145197380Y-71794761D01*
X145245000Y-71699523D01*
X145292619Y-71651904D01*
X145387857Y-71604285D01*
X145483095Y-71604285D01*
X145625952Y-71651904D01*
X146197380Y-72223333D01*
X146197380Y-71604285D01*
X143022380Y-73128095D02*
X142022380Y-73128095D01*
X142022380Y-72890000D01*
X142070000Y-72747142D01*
X142165238Y-72651904D01*
X142260476Y-72604285D01*
X142450952Y-72556666D01*
X142593809Y-72556666D01*
X142784285Y-72604285D01*
X142879523Y-72651904D01*
X142974761Y-72747142D01*
X143022380Y-72890000D01*
X143022380Y-73128095D01*
X142022380Y-72223333D02*
X142022380Y-71604285D01*
X142403333Y-71937619D01*
X142403333Y-71794761D01*
X142450952Y-71699523D01*
X142498571Y-71651904D01*
X142593809Y-71604285D01*
X142831904Y-71604285D01*
X142927142Y-71651904D01*
X142974761Y-71699523D01*
X143022380Y-71794761D01*
X143022380Y-72080476D01*
X142974761Y-72175714D01*
X142927142Y-72223333D01*
X140101380Y-73128095D02*
X139101380Y-73128095D01*
X139101380Y-72890000D01*
X139149000Y-72747142D01*
X139244238Y-72651904D01*
X139339476Y-72604285D01*
X139529952Y-72556666D01*
X139672809Y-72556666D01*
X139863285Y-72604285D01*
X139958523Y-72651904D01*
X140053761Y-72747142D01*
X140101380Y-72890000D01*
X140101380Y-73128095D01*
X139434714Y-71699523D02*
X140101380Y-71699523D01*
X139053761Y-71937619D02*
X139768047Y-72175714D01*
X139768047Y-71556666D01*
X137180380Y-73128095D02*
X136180380Y-73128095D01*
X136180380Y-72890000D01*
X136228000Y-72747142D01*
X136323238Y-72651904D01*
X136418476Y-72604285D01*
X136608952Y-72556666D01*
X136751809Y-72556666D01*
X136942285Y-72604285D01*
X137037523Y-72651904D01*
X137132761Y-72747142D01*
X137180380Y-72890000D01*
X137180380Y-73128095D01*
X136180380Y-71651904D02*
X136180380Y-72128095D01*
X136656571Y-72175714D01*
X136608952Y-72128095D01*
X136561333Y-72032857D01*
X136561333Y-71794761D01*
X136608952Y-71699523D01*
X136656571Y-71651904D01*
X136751809Y-71604285D01*
X136989904Y-71604285D01*
X137085142Y-71651904D01*
X137132761Y-71699523D01*
X137180380Y-71794761D01*
X137180380Y-72032857D01*
X137132761Y-72128095D01*
X137085142Y-72175714D01*
X103401904Y-74128380D02*
X103401904Y-73128380D01*
X103640000Y-73128380D01*
X103782857Y-73176000D01*
X103878095Y-73271238D01*
X103925714Y-73366476D01*
X103973333Y-73556952D01*
X103973333Y-73699809D01*
X103925714Y-73890285D01*
X103878095Y-73985523D01*
X103782857Y-74080761D01*
X103640000Y-74128380D01*
X103401904Y-74128380D01*
X104306666Y-73128380D02*
X104973333Y-73128380D01*
X104544761Y-74128380D01*
X103274904Y-100488380D02*
X103274904Y-99488380D01*
X103513000Y-99488380D01*
X103655857Y-99536000D01*
X103751095Y-99631238D01*
X103798714Y-99726476D01*
X103846333Y-99916952D01*
X103846333Y-100059809D01*
X103798714Y-100250285D01*
X103751095Y-100345523D01*
X103655857Y-100440761D01*
X103513000Y-100488380D01*
X103274904Y-100488380D01*
X104417761Y-99916952D02*
X104322523Y-99869333D01*
X104274904Y-99821714D01*
X104227285Y-99726476D01*
X104227285Y-99678857D01*
X104274904Y-99583619D01*
X104322523Y-99536000D01*
X104417761Y-99488380D01*
X104608238Y-99488380D01*
X104703476Y-99536000D01*
X104751095Y-99583619D01*
X104798714Y-99678857D01*
X104798714Y-99726476D01*
X104751095Y-99821714D01*
X104703476Y-99869333D01*
X104608238Y-99916952D01*
X104417761Y-99916952D01*
X104322523Y-99964571D01*
X104274904Y-100012190D01*
X104227285Y-100107428D01*
X104227285Y-100297904D01*
X104274904Y-100393142D01*
X104322523Y-100440761D01*
X104417761Y-100488380D01*
X104608238Y-100488380D01*
X104703476Y-100440761D01*
X104751095Y-100393142D01*
X104798714Y-100297904D01*
X104798714Y-100107428D01*
X104751095Y-100012190D01*
X104703476Y-99964571D01*
X104608238Y-99916952D01*
X140732666Y-81354380D02*
X140732666Y-82068666D01*
X140685047Y-82211523D01*
X140589809Y-82306761D01*
X140446952Y-82354380D01*
X140351714Y-82354380D01*
X141732666Y-82354380D02*
X141161238Y-82354380D01*
X141446952Y-82354380D02*
X141446952Y-81354380D01*
X141351714Y-81497238D01*
X141256476Y-81592476D01*
X141161238Y-81640095D01*
X120031666Y-81354380D02*
X120031666Y-82068666D01*
X119984047Y-82211523D01*
X119888809Y-82306761D01*
X119745952Y-82354380D01*
X119650714Y-82354380D01*
X120460238Y-81449619D02*
X120507857Y-81402000D01*
X120603095Y-81354380D01*
X120841190Y-81354380D01*
X120936428Y-81402000D01*
X120984047Y-81449619D01*
X121031666Y-81544857D01*
X121031666Y-81640095D01*
X120984047Y-81782952D01*
X120412619Y-82354380D01*
X121031666Y-82354380D01*
X114538666Y-83796380D02*
X114538666Y-84510666D01*
X114491047Y-84653523D01*
X114395809Y-84748761D01*
X114252952Y-84796380D01*
X114157714Y-84796380D01*
X114919619Y-83796380D02*
X115538666Y-83796380D01*
X115205333Y-84177333D01*
X115348190Y-84177333D01*
X115443428Y-84224952D01*
X115491047Y-84272571D01*
X115538666Y-84367809D01*
X115538666Y-84605904D01*
X115491047Y-84701142D01*
X115443428Y-84748761D01*
X115348190Y-84796380D01*
X115062476Y-84796380D01*
X114967238Y-84748761D01*
X114919619Y-84701142D01*
X123903667Y-83813381D02*
X123903667Y-84527667D01*
X123856048Y-84670524D01*
X123760810Y-84765762D01*
X123617953Y-84813381D01*
X123522715Y-84813381D01*
X124808429Y-84146715D02*
X124808429Y-84813381D01*
X124570334Y-83765762D02*
X124332239Y-84480048D01*
X124951286Y-84480048D01*
X92289904Y-77938380D02*
X92289904Y-76938380D01*
X92861333Y-77938380D02*
X92432761Y-77366952D01*
X92861333Y-76938380D02*
X92289904Y-77509809D01*
X93813714Y-77938380D02*
X93242285Y-77938380D01*
X93528000Y-77938380D02*
X93528000Y-76938380D01*
X93432761Y-77081238D01*
X93337523Y-77176476D01*
X93242285Y-77224095D01*
X103465904Y-75906380D02*
X103465904Y-74906380D01*
X104037333Y-75906380D02*
X103608761Y-75334952D01*
X104037333Y-74906380D02*
X103465904Y-75477809D01*
X104418285Y-75001619D02*
X104465904Y-74954000D01*
X104561142Y-74906380D01*
X104799238Y-74906380D01*
X104894476Y-74954000D01*
X104942095Y-75001619D01*
X104989714Y-75096857D01*
X104989714Y-75192095D01*
X104942095Y-75334952D01*
X104370666Y-75906380D01*
X104989714Y-75906380D01*
X148748761Y-91241619D02*
X148653523Y-91194000D01*
X148558285Y-91098761D01*
X148415428Y-90955904D01*
X148320190Y-90908285D01*
X148224952Y-90908285D01*
X148272571Y-91146380D02*
X148177333Y-91098761D01*
X148082095Y-91003523D01*
X148034476Y-90813047D01*
X148034476Y-90479714D01*
X148082095Y-90289238D01*
X148177333Y-90194000D01*
X148272571Y-90146380D01*
X148463047Y-90146380D01*
X148558285Y-90194000D01*
X148653523Y-90289238D01*
X148701142Y-90479714D01*
X148701142Y-90813047D01*
X148653523Y-91003523D01*
X148558285Y-91098761D01*
X148463047Y-91146380D01*
X148272571Y-91146380D01*
X149653523Y-91146380D02*
X149082095Y-91146380D01*
X149367809Y-91146380D02*
X149367809Y-90146380D01*
X149272571Y-90289238D01*
X149177333Y-90384476D01*
X149082095Y-90432095D01*
X145256761Y-91241619D02*
X145161523Y-91194000D01*
X145066285Y-91098761D01*
X144923428Y-90955904D01*
X144828190Y-90908285D01*
X144732952Y-90908285D01*
X144780571Y-91146380D02*
X144685333Y-91098761D01*
X144590095Y-91003523D01*
X144542476Y-90813047D01*
X144542476Y-90479714D01*
X144590095Y-90289238D01*
X144685333Y-90194000D01*
X144780571Y-90146380D01*
X144971047Y-90146380D01*
X145066285Y-90194000D01*
X145161523Y-90289238D01*
X145209142Y-90479714D01*
X145209142Y-90813047D01*
X145161523Y-91003523D01*
X145066285Y-91098761D01*
X144971047Y-91146380D01*
X144780571Y-91146380D01*
X145590095Y-90241619D02*
X145637714Y-90194000D01*
X145732952Y-90146380D01*
X145971047Y-90146380D01*
X146066285Y-90194000D01*
X146113904Y-90241619D01*
X146161523Y-90336857D01*
X146161523Y-90432095D01*
X146113904Y-90574952D01*
X145542476Y-91146380D01*
X146161523Y-91146380D01*
X141700761Y-91241619D02*
X141605523Y-91194000D01*
X141510285Y-91098761D01*
X141367428Y-90955904D01*
X141272190Y-90908285D01*
X141176952Y-90908285D01*
X141224571Y-91146380D02*
X141129333Y-91098761D01*
X141034095Y-91003523D01*
X140986476Y-90813047D01*
X140986476Y-90479714D01*
X141034095Y-90289238D01*
X141129333Y-90194000D01*
X141224571Y-90146380D01*
X141415047Y-90146380D01*
X141510285Y-90194000D01*
X141605523Y-90289238D01*
X141653142Y-90479714D01*
X141653142Y-90813047D01*
X141605523Y-91003523D01*
X141510285Y-91098761D01*
X141415047Y-91146380D01*
X141224571Y-91146380D01*
X141986476Y-90146380D02*
X142605523Y-90146380D01*
X142272190Y-90527333D01*
X142415047Y-90527333D01*
X142510285Y-90574952D01*
X142557904Y-90622571D01*
X142605523Y-90717809D01*
X142605523Y-90955904D01*
X142557904Y-91051142D01*
X142510285Y-91098761D01*
X142415047Y-91146380D01*
X142129333Y-91146380D01*
X142034095Y-91098761D01*
X141986476Y-91051142D01*
X138144761Y-91241619D02*
X138049523Y-91194000D01*
X137954285Y-91098761D01*
X137811428Y-90955904D01*
X137716190Y-90908285D01*
X137620952Y-90908285D01*
X137668571Y-91146380D02*
X137573333Y-91098761D01*
X137478095Y-91003523D01*
X137430476Y-90813047D01*
X137430476Y-90479714D01*
X137478095Y-90289238D01*
X137573333Y-90194000D01*
X137668571Y-90146380D01*
X137859047Y-90146380D01*
X137954285Y-90194000D01*
X138049523Y-90289238D01*
X138097142Y-90479714D01*
X138097142Y-90813047D01*
X138049523Y-91003523D01*
X137954285Y-91098761D01*
X137859047Y-91146380D01*
X137668571Y-91146380D01*
X138954285Y-90479714D02*
X138954285Y-91146380D01*
X138716190Y-90098761D02*
X138478095Y-90813047D01*
X139097142Y-90813047D01*
X134524761Y-91241619D02*
X134429523Y-91194000D01*
X134334285Y-91098761D01*
X134191428Y-90955904D01*
X134096190Y-90908285D01*
X134000952Y-90908285D01*
X134048571Y-91146380D02*
X133953333Y-91098761D01*
X133858095Y-91003523D01*
X133810476Y-90813047D01*
X133810476Y-90479714D01*
X133858095Y-90289238D01*
X133953333Y-90194000D01*
X134048571Y-90146380D01*
X134239047Y-90146380D01*
X134334285Y-90194000D01*
X134429523Y-90289238D01*
X134477142Y-90479714D01*
X134477142Y-90813047D01*
X134429523Y-91003523D01*
X134334285Y-91098761D01*
X134239047Y-91146380D01*
X134048571Y-91146380D01*
X135381904Y-90146380D02*
X134905714Y-90146380D01*
X134858095Y-90622571D01*
X134905714Y-90574952D01*
X135000952Y-90527333D01*
X135239047Y-90527333D01*
X135334285Y-90574952D01*
X135381904Y-90622571D01*
X135429523Y-90717809D01*
X135429523Y-90955904D01*
X135381904Y-91051142D01*
X135334285Y-91098761D01*
X135239047Y-91146380D01*
X135000952Y-91146380D01*
X134905714Y-91098761D01*
X134858095Y-91051142D01*
X146963333Y-84288380D02*
X146630000Y-83812190D01*
X146391904Y-84288380D02*
X146391904Y-83288380D01*
X146772857Y-83288380D01*
X146868095Y-83336000D01*
X146915714Y-83383619D01*
X146963333Y-83478857D01*
X146963333Y-83621714D01*
X146915714Y-83716952D01*
X146868095Y-83764571D01*
X146772857Y-83812190D01*
X146391904Y-83812190D01*
X147915714Y-84288380D02*
X147344285Y-84288380D01*
X147630000Y-84288380D02*
X147630000Y-83288380D01*
X147534761Y-83431238D01*
X147439523Y-83526476D01*
X147344285Y-83574095D01*
X143915333Y-84288380D02*
X143582000Y-83812190D01*
X143343904Y-84288380D02*
X143343904Y-83288380D01*
X143724857Y-83288380D01*
X143820095Y-83336000D01*
X143867714Y-83383619D01*
X143915333Y-83478857D01*
X143915333Y-83621714D01*
X143867714Y-83716952D01*
X143820095Y-83764571D01*
X143724857Y-83812190D01*
X143343904Y-83812190D01*
X144248666Y-83288380D02*
X144867714Y-83288380D01*
X144534380Y-83669333D01*
X144677238Y-83669333D01*
X144772476Y-83716952D01*
X144820095Y-83764571D01*
X144867714Y-83859809D01*
X144867714Y-84097904D01*
X144820095Y-84193142D01*
X144772476Y-84240761D01*
X144677238Y-84288380D01*
X144391523Y-84288380D01*
X144296285Y-84240761D01*
X144248666Y-84193142D01*
X140867333Y-84288380D02*
X140534000Y-83812190D01*
X140295904Y-84288380D02*
X140295904Y-83288380D01*
X140676857Y-83288380D01*
X140772095Y-83336000D01*
X140819714Y-83383619D01*
X140867333Y-83478857D01*
X140867333Y-83621714D01*
X140819714Y-83716952D01*
X140772095Y-83764571D01*
X140676857Y-83812190D01*
X140295904Y-83812190D01*
X141772095Y-83288380D02*
X141295904Y-83288380D01*
X141248285Y-83764571D01*
X141295904Y-83716952D01*
X141391142Y-83669333D01*
X141629238Y-83669333D01*
X141724476Y-83716952D01*
X141772095Y-83764571D01*
X141819714Y-83859809D01*
X141819714Y-84097904D01*
X141772095Y-84193142D01*
X141724476Y-84240761D01*
X141629238Y-84288380D01*
X141391142Y-84288380D01*
X141295904Y-84240761D01*
X141248285Y-84193142D01*
X138073333Y-84288380D02*
X137740000Y-83812190D01*
X137501904Y-84288380D02*
X137501904Y-83288380D01*
X137882857Y-83288380D01*
X137978095Y-83336000D01*
X138025714Y-83383619D01*
X138073333Y-83478857D01*
X138073333Y-83621714D01*
X138025714Y-83716952D01*
X137978095Y-83764571D01*
X137882857Y-83812190D01*
X137501904Y-83812190D01*
X138406666Y-83288380D02*
X139073333Y-83288380D01*
X138644761Y-84288380D01*
X134771333Y-84288380D02*
X134438000Y-83812190D01*
X134199904Y-84288380D02*
X134199904Y-83288380D01*
X134580857Y-83288380D01*
X134676095Y-83336000D01*
X134723714Y-83383619D01*
X134771333Y-83478857D01*
X134771333Y-83621714D01*
X134723714Y-83716952D01*
X134676095Y-83764571D01*
X134580857Y-83812190D01*
X134199904Y-83812190D01*
X135247523Y-84288380D02*
X135438000Y-84288380D01*
X135533238Y-84240761D01*
X135580857Y-84193142D01*
X135676095Y-84050285D01*
X135723714Y-83859809D01*
X135723714Y-83478857D01*
X135676095Y-83383619D01*
X135628476Y-83336000D01*
X135533238Y-83288380D01*
X135342761Y-83288380D01*
X135247523Y-83336000D01*
X135199904Y-83383619D01*
X135152285Y-83478857D01*
X135152285Y-83716952D01*
X135199904Y-83812190D01*
X135247523Y-83859809D01*
X135342761Y-83907428D01*
X135533238Y-83907428D01*
X135628476Y-83859809D01*
X135676095Y-83812190D01*
X135723714Y-83716952D01*
X125124380Y-72524857D02*
X124648190Y-72858190D01*
X125124380Y-73096285D02*
X124124380Y-73096285D01*
X124124380Y-72715333D01*
X124172000Y-72620095D01*
X124219619Y-72572476D01*
X124314857Y-72524857D01*
X124457714Y-72524857D01*
X124552952Y-72572476D01*
X124600571Y-72620095D01*
X124648190Y-72715333D01*
X124648190Y-73096285D01*
X125124380Y-71572476D02*
X125124380Y-72143904D01*
X125124380Y-71858190D02*
X124124380Y-71858190D01*
X124267238Y-71953428D01*
X124362476Y-72048666D01*
X124410095Y-72143904D01*
X124219619Y-71191523D02*
X124172000Y-71143904D01*
X124124380Y-71048666D01*
X124124380Y-70810571D01*
X124172000Y-70715333D01*
X124219619Y-70667714D01*
X124314857Y-70620095D01*
X124410095Y-70620095D01*
X124552952Y-70667714D01*
X125124380Y-71239142D01*
X125124380Y-70620095D01*
X122076380Y-72524857D02*
X121600190Y-72858190D01*
X122076380Y-73096285D02*
X121076380Y-73096285D01*
X121076380Y-72715333D01*
X121124000Y-72620095D01*
X121171619Y-72572476D01*
X121266857Y-72524857D01*
X121409714Y-72524857D01*
X121504952Y-72572476D01*
X121552571Y-72620095D01*
X121600190Y-72715333D01*
X121600190Y-73096285D01*
X122076380Y-71572476D02*
X122076380Y-72143904D01*
X122076380Y-71858190D02*
X121076380Y-71858190D01*
X121219238Y-71953428D01*
X121314476Y-72048666D01*
X121362095Y-72143904D01*
X121076380Y-71239142D02*
X121076380Y-70620095D01*
X121457333Y-70953428D01*
X121457333Y-70810571D01*
X121504952Y-70715333D01*
X121552571Y-70667714D01*
X121647809Y-70620095D01*
X121885904Y-70620095D01*
X121981142Y-70667714D01*
X122028761Y-70715333D01*
X122076380Y-70810571D01*
X122076380Y-71096285D01*
X122028761Y-71191523D01*
X121981142Y-71239142D01*
X119028380Y-72524857D02*
X118552190Y-72858190D01*
X119028380Y-73096285D02*
X118028380Y-73096285D01*
X118028380Y-72715333D01*
X118076000Y-72620095D01*
X118123619Y-72572476D01*
X118218857Y-72524857D01*
X118361714Y-72524857D01*
X118456952Y-72572476D01*
X118504571Y-72620095D01*
X118552190Y-72715333D01*
X118552190Y-73096285D01*
X119028380Y-71572476D02*
X119028380Y-72143904D01*
X119028380Y-71858190D02*
X118028380Y-71858190D01*
X118171238Y-71953428D01*
X118266476Y-72048666D01*
X118314095Y-72143904D01*
X118361714Y-70715333D02*
X119028380Y-70715333D01*
X117980761Y-70953428D02*
X118695047Y-71191523D01*
X118695047Y-70572476D01*
X115980380Y-72524857D02*
X115504190Y-72858190D01*
X115980380Y-73096285D02*
X114980380Y-73096285D01*
X114980380Y-72715333D01*
X115028000Y-72620095D01*
X115075619Y-72572476D01*
X115170857Y-72524857D01*
X115313714Y-72524857D01*
X115408952Y-72572476D01*
X115456571Y-72620095D01*
X115504190Y-72715333D01*
X115504190Y-73096285D01*
X115980380Y-71572476D02*
X115980380Y-72143904D01*
X115980380Y-71858190D02*
X114980380Y-71858190D01*
X115123238Y-71953428D01*
X115218476Y-72048666D01*
X115266095Y-72143904D01*
X114980380Y-70667714D02*
X114980380Y-71143904D01*
X115456571Y-71191523D01*
X115408952Y-71143904D01*
X115361333Y-71048666D01*
X115361333Y-70810571D01*
X115408952Y-70715333D01*
X115456571Y-70667714D01*
X115551809Y-70620095D01*
X115789904Y-70620095D01*
X115885142Y-70667714D01*
X115932761Y-70715333D01*
X115980380Y-70810571D01*
X115980380Y-71048666D01*
X115932761Y-71143904D01*
X115885142Y-71191523D01*
X112932380Y-72524857D02*
X112456190Y-72858190D01*
X112932380Y-73096285D02*
X111932380Y-73096285D01*
X111932380Y-72715333D01*
X111980000Y-72620095D01*
X112027619Y-72572476D01*
X112122857Y-72524857D01*
X112265714Y-72524857D01*
X112360952Y-72572476D01*
X112408571Y-72620095D01*
X112456190Y-72715333D01*
X112456190Y-73096285D01*
X112932380Y-71572476D02*
X112932380Y-72143904D01*
X112932380Y-71858190D02*
X111932380Y-71858190D01*
X112075238Y-71953428D01*
X112170476Y-72048666D01*
X112218095Y-72143904D01*
X111932380Y-70715333D02*
X111932380Y-70905809D01*
X111980000Y-71001047D01*
X112027619Y-71048666D01*
X112170476Y-71143904D01*
X112360952Y-71191523D01*
X112741904Y-71191523D01*
X112837142Y-71143904D01*
X112884761Y-71096285D01*
X112932380Y-71001047D01*
X112932380Y-70810571D01*
X112884761Y-70715333D01*
X112837142Y-70667714D01*
X112741904Y-70620095D01*
X112503809Y-70620095D01*
X112408571Y-70667714D01*
X112360952Y-70715333D01*
X112313333Y-70810571D01*
X112313333Y-71001047D01*
X112360952Y-71096285D01*
X112408571Y-71143904D01*
X112503809Y-71191523D01*
M02*
