G04 #@! TF.GenerationSoftware,KiCad,Pcbnew,(5.1.6)-1*
G04 #@! TF.CreationDate,2020-11-26T12:39:26+11:00*
G04 #@! TF.ProjectId,HardFault-Interpose-V0,48617264-4661-4756-9c74-2d496e746572,rev?*
G04 #@! TF.SameCoordinates,Original*
G04 #@! TF.FileFunction,Copper,L2,Bot*
G04 #@! TF.FilePolarity,Positive*
%FSLAX46Y46*%
G04 Gerber Fmt 4.6, Leading zero omitted, Abs format (unit mm)*
G04 Created by KiCad (PCBNEW (5.1.6)-1) date 2020-11-26 12:39:26*
%MOMM*%
%LPD*%
G01*
G04 APERTURE LIST*
G04 #@! TA.AperFunction,SMDPad,CuDef*
%ADD10R,2.500000X1.800000*%
G04 #@! TD*
G04 #@! TA.AperFunction,ComponentPad*
%ADD11O,1.500000X2.020000*%
G04 #@! TD*
G04 #@! TA.AperFunction,ComponentPad*
%ADD12O,2.700000X3.300000*%
G04 #@! TD*
G04 #@! TA.AperFunction,ComponentPad*
%ADD13R,1.400000X1.400000*%
G04 #@! TD*
G04 #@! TA.AperFunction,ComponentPad*
%ADD14C,1.400000*%
G04 #@! TD*
G04 #@! TA.AperFunction,ComponentPad*
%ADD15C,2.500000*%
G04 #@! TD*
G04 #@! TA.AperFunction,ComponentPad*
%ADD16C,2.200000*%
G04 #@! TD*
G04 #@! TA.AperFunction,ViaPad*
%ADD17C,0.500000*%
G04 #@! TD*
G04 #@! TA.AperFunction,ViaPad*
%ADD18C,0.800000*%
G04 #@! TD*
G04 #@! TA.AperFunction,Conductor*
%ADD19C,0.250000*%
G04 #@! TD*
G04 #@! TA.AperFunction,Conductor*
%ADD20C,0.500000*%
G04 #@! TD*
G04 #@! TA.AperFunction,Conductor*
%ADD21C,0.254000*%
G04 #@! TD*
G04 APERTURE END LIST*
G04 #@! TA.AperFunction,SMDPad,CuDef*
G36*
G01*
X149409999Y-86810000D02*
X150310001Y-86810000D01*
G75*
G02*
X150560000Y-87059999I0J-249999D01*
G01*
X150560000Y-87710001D01*
G75*
G02*
X150310001Y-87960000I-249999J0D01*
G01*
X149409999Y-87960000D01*
G75*
G02*
X149160000Y-87710001I0J249999D01*
G01*
X149160000Y-87059999D01*
G75*
G02*
X149409999Y-86810000I249999J0D01*
G01*
G37*
G04 #@! TD.AperFunction*
G04 #@! TA.AperFunction,SMDPad,CuDef*
G36*
G01*
X149409999Y-84760000D02*
X150310001Y-84760000D01*
G75*
G02*
X150560000Y-85009999I0J-249999D01*
G01*
X150560000Y-85660001D01*
G75*
G02*
X150310001Y-85910000I-249999J0D01*
G01*
X149409999Y-85910000D01*
G75*
G02*
X149160000Y-85660001I0J249999D01*
G01*
X149160000Y-85009999D01*
G75*
G02*
X149409999Y-84760000I249999J0D01*
G01*
G37*
G04 #@! TD.AperFunction*
G04 #@! TA.AperFunction,SMDPad,CuDef*
G36*
G01*
X145345999Y-86810000D02*
X146246001Y-86810000D01*
G75*
G02*
X146496000Y-87059999I0J-249999D01*
G01*
X146496000Y-87710001D01*
G75*
G02*
X146246001Y-87960000I-249999J0D01*
G01*
X145345999Y-87960000D01*
G75*
G02*
X145096000Y-87710001I0J249999D01*
G01*
X145096000Y-87059999D01*
G75*
G02*
X145345999Y-86810000I249999J0D01*
G01*
G37*
G04 #@! TD.AperFunction*
G04 #@! TA.AperFunction,SMDPad,CuDef*
G36*
G01*
X145345999Y-84760000D02*
X146246001Y-84760000D01*
G75*
G02*
X146496000Y-85009999I0J-249999D01*
G01*
X146496000Y-85660001D01*
G75*
G02*
X146246001Y-85910000I-249999J0D01*
G01*
X145345999Y-85910000D01*
G75*
G02*
X145096000Y-85660001I0J249999D01*
G01*
X145096000Y-85009999D01*
G75*
G02*
X145345999Y-84760000I249999J0D01*
G01*
G37*
G04 #@! TD.AperFunction*
G04 #@! TA.AperFunction,SMDPad,CuDef*
G36*
G01*
X141789999Y-84760000D02*
X142690001Y-84760000D01*
G75*
G02*
X142940000Y-85009999I0J-249999D01*
G01*
X142940000Y-85660001D01*
G75*
G02*
X142690001Y-85910000I-249999J0D01*
G01*
X141789999Y-85910000D01*
G75*
G02*
X141540000Y-85660001I0J249999D01*
G01*
X141540000Y-85009999D01*
G75*
G02*
X141789999Y-84760000I249999J0D01*
G01*
G37*
G04 #@! TD.AperFunction*
G04 #@! TA.AperFunction,SMDPad,CuDef*
G36*
G01*
X141789999Y-86810000D02*
X142690001Y-86810000D01*
G75*
G02*
X142940000Y-87059999I0J-249999D01*
G01*
X142940000Y-87710001D01*
G75*
G02*
X142690001Y-87960000I-249999J0D01*
G01*
X141789999Y-87960000D01*
G75*
G02*
X141540000Y-87710001I0J249999D01*
G01*
X141540000Y-87059999D01*
G75*
G02*
X141789999Y-86810000I249999J0D01*
G01*
G37*
G04 #@! TD.AperFunction*
G04 #@! TA.AperFunction,SMDPad,CuDef*
G36*
G01*
X138487999Y-84760000D02*
X139388001Y-84760000D01*
G75*
G02*
X139638000Y-85009999I0J-249999D01*
G01*
X139638000Y-85660001D01*
G75*
G02*
X139388001Y-85910000I-249999J0D01*
G01*
X138487999Y-85910000D01*
G75*
G02*
X138238000Y-85660001I0J249999D01*
G01*
X138238000Y-85009999D01*
G75*
G02*
X138487999Y-84760000I249999J0D01*
G01*
G37*
G04 #@! TD.AperFunction*
G04 #@! TA.AperFunction,SMDPad,CuDef*
G36*
G01*
X138487999Y-86810000D02*
X139388001Y-86810000D01*
G75*
G02*
X139638000Y-87059999I0J-249999D01*
G01*
X139638000Y-87710001D01*
G75*
G02*
X139388001Y-87960000I-249999J0D01*
G01*
X138487999Y-87960000D01*
G75*
G02*
X138238000Y-87710001I0J249999D01*
G01*
X138238000Y-87059999D01*
G75*
G02*
X138487999Y-86810000I249999J0D01*
G01*
G37*
G04 #@! TD.AperFunction*
G04 #@! TA.AperFunction,SMDPad,CuDef*
G36*
G01*
X135439999Y-84751000D02*
X136340001Y-84751000D01*
G75*
G02*
X136590000Y-85000999I0J-249999D01*
G01*
X136590000Y-85651001D01*
G75*
G02*
X136340001Y-85901000I-249999J0D01*
G01*
X135439999Y-85901000D01*
G75*
G02*
X135190000Y-85651001I0J249999D01*
G01*
X135190000Y-85000999D01*
G75*
G02*
X135439999Y-84751000I249999J0D01*
G01*
G37*
G04 #@! TD.AperFunction*
G04 #@! TA.AperFunction,SMDPad,CuDef*
G36*
G01*
X135439999Y-86801000D02*
X136340001Y-86801000D01*
G75*
G02*
X136590000Y-87050999I0J-249999D01*
G01*
X136590000Y-87701001D01*
G75*
G02*
X136340001Y-87951000I-249999J0D01*
G01*
X135439999Y-87951000D01*
G75*
G02*
X135190000Y-87701001I0J249999D01*
G01*
X135190000Y-87050999D01*
G75*
G02*
X135439999Y-86801000I249999J0D01*
G01*
G37*
G04 #@! TD.AperFunction*
D10*
X91059000Y-78232000D03*
X95059000Y-78232000D03*
G04 #@! TA.AperFunction,ComponentPad*
G36*
G01*
X147816000Y-77472000D02*
X147816000Y-78992000D01*
G75*
G02*
X147566000Y-79242000I-250000J0D01*
G01*
X146566000Y-79242000D01*
G75*
G02*
X146316000Y-78992000I0J250000D01*
G01*
X146316000Y-77472000D01*
G75*
G02*
X146566000Y-77222000I250000J0D01*
G01*
X147566000Y-77222000D01*
G75*
G02*
X147816000Y-77472000I0J-250000D01*
G01*
G37*
G04 #@! TD.AperFunction*
D11*
X144066000Y-78232000D03*
X141066000Y-78232000D03*
X138066000Y-78232000D03*
X135066000Y-78232000D03*
X114365000Y-78232000D03*
X117365000Y-78232000D03*
X120365000Y-78232000D03*
X123365000Y-78232000D03*
G04 #@! TA.AperFunction,ComponentPad*
G36*
G01*
X127115000Y-77472000D02*
X127115000Y-78992000D01*
G75*
G02*
X126865000Y-79242000I-250000J0D01*
G01*
X125865000Y-79242000D01*
G75*
G02*
X125615000Y-78992000I0J250000D01*
G01*
X125615000Y-77472000D01*
G75*
G02*
X125865000Y-77222000I250000J0D01*
G01*
X126865000Y-77222000D01*
G75*
G02*
X127115000Y-77472000I0J-250000D01*
G01*
G37*
G04 #@! TD.AperFunction*
D12*
X114687001Y-92611001D03*
G04 #@! TA.AperFunction,ComponentPad*
G36*
G01*
X113337001Y-89811000D02*
X113337001Y-87011002D01*
G75*
G02*
X113587002Y-86761001I250001J0D01*
G01*
X115787000Y-86761001D01*
G75*
G02*
X116037001Y-87011002I0J-250001D01*
G01*
X116037001Y-89811000D01*
G75*
G02*
X115787000Y-90061001I-250001J0D01*
G01*
X113587002Y-90061001D01*
G75*
G02*
X113337001Y-89811000I0J250001D01*
G01*
G37*
G04 #@! TD.AperFunction*
G04 #@! TA.AperFunction,ComponentPad*
G36*
G01*
X120787001Y-89911000D02*
X120787001Y-87111002D01*
G75*
G02*
X121037002Y-86861001I250001J0D01*
G01*
X123237000Y-86861001D01*
G75*
G02*
X123487001Y-87111002I0J-250001D01*
G01*
X123487001Y-89911000D01*
G75*
G02*
X123237000Y-90161001I-250001J0D01*
G01*
X121037002Y-90161001D01*
G75*
G02*
X120787001Y-89911000I0J250001D01*
G01*
G37*
G04 #@! TD.AperFunction*
X126337001Y-88511001D03*
X122137001Y-92711001D03*
X126337001Y-92711001D03*
D13*
X89154000Y-75692000D03*
D14*
X96774000Y-75692000D03*
X89154000Y-88382000D03*
X89154000Y-93472000D03*
X89154000Y-83312000D03*
X96784000Y-88402000D03*
X96784000Y-93482000D03*
X96774000Y-83312000D03*
D15*
X108057000Y-83526000D03*
G04 #@! TA.AperFunction,ComponentPad*
G36*
G01*
X101216000Y-94826000D02*
X99698000Y-94826000D01*
G75*
G02*
X99357000Y-94485000I0J341000D01*
G01*
X99357000Y-92967000D01*
G75*
G02*
X99698000Y-92626000I341000J0D01*
G01*
X101216000Y-92626000D01*
G75*
G02*
X101557000Y-92967000I0J-341000D01*
G01*
X101557000Y-94485000D01*
G75*
G02*
X101216000Y-94826000I-341000J0D01*
G01*
G37*
G04 #@! TD.AperFunction*
D16*
X108057000Y-93726000D03*
D15*
X108057000Y-75826000D03*
G04 #@! TA.AperFunction,SMDPad,CuDef*
G36*
G01*
X146441000Y-79842000D02*
X147691000Y-79842000D01*
G75*
G02*
X147941000Y-80092000I0J-250000D01*
G01*
X147941000Y-81017000D01*
G75*
G02*
X147691000Y-81267000I-250000J0D01*
G01*
X146441000Y-81267000D01*
G75*
G02*
X146191000Y-81017000I0J250000D01*
G01*
X146191000Y-80092000D01*
G75*
G02*
X146441000Y-79842000I250000J0D01*
G01*
G37*
G04 #@! TD.AperFunction*
G04 #@! TA.AperFunction,SMDPad,CuDef*
G36*
G01*
X146441000Y-82817000D02*
X147691000Y-82817000D01*
G75*
G02*
X147941000Y-83067000I0J-250000D01*
G01*
X147941000Y-83992000D01*
G75*
G02*
X147691000Y-84242000I-250000J0D01*
G01*
X146441000Y-84242000D01*
G75*
G02*
X146191000Y-83992000I0J250000D01*
G01*
X146191000Y-83067000D01*
G75*
G02*
X146441000Y-82817000I250000J0D01*
G01*
G37*
G04 #@! TD.AperFunction*
G04 #@! TA.AperFunction,SMDPad,CuDef*
G36*
G01*
X143520000Y-79842000D02*
X144770000Y-79842000D01*
G75*
G02*
X145020000Y-80092000I0J-250000D01*
G01*
X145020000Y-81017000D01*
G75*
G02*
X144770000Y-81267000I-250000J0D01*
G01*
X143520000Y-81267000D01*
G75*
G02*
X143270000Y-81017000I0J250000D01*
G01*
X143270000Y-80092000D01*
G75*
G02*
X143520000Y-79842000I250000J0D01*
G01*
G37*
G04 #@! TD.AperFunction*
G04 #@! TA.AperFunction,SMDPad,CuDef*
G36*
G01*
X143520000Y-82817000D02*
X144770000Y-82817000D01*
G75*
G02*
X145020000Y-83067000I0J-250000D01*
G01*
X145020000Y-83992000D01*
G75*
G02*
X144770000Y-84242000I-250000J0D01*
G01*
X143520000Y-84242000D01*
G75*
G02*
X143270000Y-83992000I0J250000D01*
G01*
X143270000Y-83067000D01*
G75*
G02*
X143520000Y-82817000I250000J0D01*
G01*
G37*
G04 #@! TD.AperFunction*
G04 #@! TA.AperFunction,SMDPad,CuDef*
G36*
G01*
X140472000Y-79842000D02*
X141722000Y-79842000D01*
G75*
G02*
X141972000Y-80092000I0J-250000D01*
G01*
X141972000Y-81017000D01*
G75*
G02*
X141722000Y-81267000I-250000J0D01*
G01*
X140472000Y-81267000D01*
G75*
G02*
X140222000Y-81017000I0J250000D01*
G01*
X140222000Y-80092000D01*
G75*
G02*
X140472000Y-79842000I250000J0D01*
G01*
G37*
G04 #@! TD.AperFunction*
G04 #@! TA.AperFunction,SMDPad,CuDef*
G36*
G01*
X140472000Y-82817000D02*
X141722000Y-82817000D01*
G75*
G02*
X141972000Y-83067000I0J-250000D01*
G01*
X141972000Y-83992000D01*
G75*
G02*
X141722000Y-84242000I-250000J0D01*
G01*
X140472000Y-84242000D01*
G75*
G02*
X140222000Y-83992000I0J250000D01*
G01*
X140222000Y-83067000D01*
G75*
G02*
X140472000Y-82817000I250000J0D01*
G01*
G37*
G04 #@! TD.AperFunction*
G04 #@! TA.AperFunction,SMDPad,CuDef*
G36*
G01*
X137424000Y-82817000D02*
X138674000Y-82817000D01*
G75*
G02*
X138924000Y-83067000I0J-250000D01*
G01*
X138924000Y-83992000D01*
G75*
G02*
X138674000Y-84242000I-250000J0D01*
G01*
X137424000Y-84242000D01*
G75*
G02*
X137174000Y-83992000I0J250000D01*
G01*
X137174000Y-83067000D01*
G75*
G02*
X137424000Y-82817000I250000J0D01*
G01*
G37*
G04 #@! TD.AperFunction*
G04 #@! TA.AperFunction,SMDPad,CuDef*
G36*
G01*
X137424000Y-79842000D02*
X138674000Y-79842000D01*
G75*
G02*
X138924000Y-80092000I0J-250000D01*
G01*
X138924000Y-81017000D01*
G75*
G02*
X138674000Y-81267000I-250000J0D01*
G01*
X137424000Y-81267000D01*
G75*
G02*
X137174000Y-81017000I0J250000D01*
G01*
X137174000Y-80092000D01*
G75*
G02*
X137424000Y-79842000I250000J0D01*
G01*
G37*
G04 #@! TD.AperFunction*
G04 #@! TA.AperFunction,SMDPad,CuDef*
G36*
G01*
X134503000Y-79842000D02*
X135753000Y-79842000D01*
G75*
G02*
X136003000Y-80092000I0J-250000D01*
G01*
X136003000Y-81017000D01*
G75*
G02*
X135753000Y-81267000I-250000J0D01*
G01*
X134503000Y-81267000D01*
G75*
G02*
X134253000Y-81017000I0J250000D01*
G01*
X134253000Y-80092000D01*
G75*
G02*
X134503000Y-79842000I250000J0D01*
G01*
G37*
G04 #@! TD.AperFunction*
G04 #@! TA.AperFunction,SMDPad,CuDef*
G36*
G01*
X134503000Y-82817000D02*
X135753000Y-82817000D01*
G75*
G02*
X136003000Y-83067000I0J-250000D01*
G01*
X136003000Y-83992000D01*
G75*
G02*
X135753000Y-84242000I-250000J0D01*
G01*
X134503000Y-84242000D01*
G75*
G02*
X134253000Y-83992000I0J250000D01*
G01*
X134253000Y-83067000D01*
G75*
G02*
X134503000Y-82817000I250000J0D01*
G01*
G37*
G04 #@! TD.AperFunction*
G04 #@! TA.AperFunction,SMDPad,CuDef*
G36*
G01*
X99832000Y-77991000D02*
X101082000Y-77991000D01*
G75*
G02*
X101332000Y-78241000I0J-250000D01*
G01*
X101332000Y-79166000D01*
G75*
G02*
X101082000Y-79416000I-250000J0D01*
G01*
X99832000Y-79416000D01*
G75*
G02*
X99582000Y-79166000I0J250000D01*
G01*
X99582000Y-78241000D01*
G75*
G02*
X99832000Y-77991000I250000J0D01*
G01*
G37*
G04 #@! TD.AperFunction*
G04 #@! TA.AperFunction,SMDPad,CuDef*
G36*
G01*
X99832000Y-75016000D02*
X101082000Y-75016000D01*
G75*
G02*
X101332000Y-75266000I0J-250000D01*
G01*
X101332000Y-76191000D01*
G75*
G02*
X101082000Y-76441000I-250000J0D01*
G01*
X99832000Y-76441000D01*
G75*
G02*
X99582000Y-76191000I0J250000D01*
G01*
X99582000Y-75266000D01*
G75*
G02*
X99832000Y-75016000I250000J0D01*
G01*
G37*
G04 #@! TD.AperFunction*
G04 #@! TA.AperFunction,SMDPad,CuDef*
G36*
G01*
X145171000Y-72657000D02*
X146421000Y-72657000D01*
G75*
G02*
X146671000Y-72907000I0J-250000D01*
G01*
X146671000Y-73832000D01*
G75*
G02*
X146421000Y-74082000I-250000J0D01*
G01*
X145171000Y-74082000D01*
G75*
G02*
X144921000Y-73832000I0J250000D01*
G01*
X144921000Y-72907000D01*
G75*
G02*
X145171000Y-72657000I250000J0D01*
G01*
G37*
G04 #@! TD.AperFunction*
G04 #@! TA.AperFunction,SMDPad,CuDef*
G36*
G01*
X145171000Y-69682000D02*
X146421000Y-69682000D01*
G75*
G02*
X146671000Y-69932000I0J-250000D01*
G01*
X146671000Y-70857000D01*
G75*
G02*
X146421000Y-71107000I-250000J0D01*
G01*
X145171000Y-71107000D01*
G75*
G02*
X144921000Y-70857000I0J250000D01*
G01*
X144921000Y-69932000D01*
G75*
G02*
X145171000Y-69682000I250000J0D01*
G01*
G37*
G04 #@! TD.AperFunction*
G04 #@! TA.AperFunction,SMDPad,CuDef*
G36*
G01*
X142123000Y-69682000D02*
X143373000Y-69682000D01*
G75*
G02*
X143623000Y-69932000I0J-250000D01*
G01*
X143623000Y-70857000D01*
G75*
G02*
X143373000Y-71107000I-250000J0D01*
G01*
X142123000Y-71107000D01*
G75*
G02*
X141873000Y-70857000I0J250000D01*
G01*
X141873000Y-69932000D01*
G75*
G02*
X142123000Y-69682000I250000J0D01*
G01*
G37*
G04 #@! TD.AperFunction*
G04 #@! TA.AperFunction,SMDPad,CuDef*
G36*
G01*
X142123000Y-72657000D02*
X143373000Y-72657000D01*
G75*
G02*
X143623000Y-72907000I0J-250000D01*
G01*
X143623000Y-73832000D01*
G75*
G02*
X143373000Y-74082000I-250000J0D01*
G01*
X142123000Y-74082000D01*
G75*
G02*
X141873000Y-73832000I0J250000D01*
G01*
X141873000Y-72907000D01*
G75*
G02*
X142123000Y-72657000I250000J0D01*
G01*
G37*
G04 #@! TD.AperFunction*
G04 #@! TA.AperFunction,SMDPad,CuDef*
G36*
G01*
X139075000Y-72657000D02*
X140325000Y-72657000D01*
G75*
G02*
X140575000Y-72907000I0J-250000D01*
G01*
X140575000Y-73832000D01*
G75*
G02*
X140325000Y-74082000I-250000J0D01*
G01*
X139075000Y-74082000D01*
G75*
G02*
X138825000Y-73832000I0J250000D01*
G01*
X138825000Y-72907000D01*
G75*
G02*
X139075000Y-72657000I250000J0D01*
G01*
G37*
G04 #@! TD.AperFunction*
G04 #@! TA.AperFunction,SMDPad,CuDef*
G36*
G01*
X139075000Y-69682000D02*
X140325000Y-69682000D01*
G75*
G02*
X140575000Y-69932000I0J-250000D01*
G01*
X140575000Y-70857000D01*
G75*
G02*
X140325000Y-71107000I-250000J0D01*
G01*
X139075000Y-71107000D01*
G75*
G02*
X138825000Y-70857000I0J250000D01*
G01*
X138825000Y-69932000D01*
G75*
G02*
X139075000Y-69682000I250000J0D01*
G01*
G37*
G04 #@! TD.AperFunction*
G04 #@! TA.AperFunction,SMDPad,CuDef*
G36*
G01*
X136027000Y-69682000D02*
X137277000Y-69682000D01*
G75*
G02*
X137527000Y-69932000I0J-250000D01*
G01*
X137527000Y-70857000D01*
G75*
G02*
X137277000Y-71107000I-250000J0D01*
G01*
X136027000Y-71107000D01*
G75*
G02*
X135777000Y-70857000I0J250000D01*
G01*
X135777000Y-69932000D01*
G75*
G02*
X136027000Y-69682000I250000J0D01*
G01*
G37*
G04 #@! TD.AperFunction*
G04 #@! TA.AperFunction,SMDPad,CuDef*
G36*
G01*
X136027000Y-72657000D02*
X137277000Y-72657000D01*
G75*
G02*
X137527000Y-72907000I0J-250000D01*
G01*
X137527000Y-73832000D01*
G75*
G02*
X137277000Y-74082000I-250000J0D01*
G01*
X136027000Y-74082000D01*
G75*
G02*
X135777000Y-73832000I0J250000D01*
G01*
X135777000Y-72907000D01*
G75*
G02*
X136027000Y-72657000I250000J0D01*
G01*
G37*
G04 #@! TD.AperFunction*
G04 #@! TA.AperFunction,SMDPad,CuDef*
G36*
G01*
X133106000Y-72657000D02*
X134356000Y-72657000D01*
G75*
G02*
X134606000Y-72907000I0J-250000D01*
G01*
X134606000Y-73832000D01*
G75*
G02*
X134356000Y-74082000I-250000J0D01*
G01*
X133106000Y-74082000D01*
G75*
G02*
X132856000Y-73832000I0J250000D01*
G01*
X132856000Y-72907000D01*
G75*
G02*
X133106000Y-72657000I250000J0D01*
G01*
G37*
G04 #@! TD.AperFunction*
G04 #@! TA.AperFunction,SMDPad,CuDef*
G36*
G01*
X133106000Y-69682000D02*
X134356000Y-69682000D01*
G75*
G02*
X134606000Y-69932000I0J-250000D01*
G01*
X134606000Y-70857000D01*
G75*
G02*
X134356000Y-71107000I-250000J0D01*
G01*
X133106000Y-71107000D01*
G75*
G02*
X132856000Y-70857000I0J250000D01*
G01*
X132856000Y-69932000D01*
G75*
G02*
X133106000Y-69682000I250000J0D01*
G01*
G37*
G04 #@! TD.AperFunction*
D17*
X134566500Y-89207500D03*
X147764500Y-85407500D03*
X144145000Y-84963000D03*
X141097000Y-84709000D03*
X137484500Y-84906500D03*
X134493000Y-85217000D03*
X145733000Y-69132000D03*
X128016000Y-70612000D03*
X124968000Y-70485000D03*
X144145000Y-70104000D03*
X121920000Y-70485000D03*
X141097000Y-70104000D03*
X118872000Y-70485000D03*
X138049000Y-70104000D03*
X135128000Y-70104000D03*
X115824000Y-70485000D03*
D18*
X101600000Y-72009000D03*
X120647001Y-81277001D03*
D19*
X147066000Y-84709000D02*
X147764500Y-85407500D01*
X147066000Y-83529500D02*
X147066000Y-84709000D01*
X149787500Y-85407500D02*
X149860000Y-85335000D01*
X147764500Y-85407500D02*
X149787500Y-85407500D01*
X144145000Y-83529500D02*
X144145000Y-84963000D01*
X145424000Y-84963000D02*
X145796000Y-85335000D01*
X144145000Y-84963000D02*
X145424000Y-84963000D01*
X141097000Y-83529500D02*
X141097000Y-84709000D01*
X141723000Y-85335000D02*
X141097000Y-84709000D01*
X142240000Y-85335000D02*
X141723000Y-85335000D01*
X137913000Y-85335000D02*
X137484500Y-84906500D01*
X138938000Y-85335000D02*
X137913000Y-85335000D01*
X138049000Y-84342000D02*
X138049000Y-83529500D01*
X137484500Y-84906500D02*
X138049000Y-84342000D01*
X135128000Y-84582000D02*
X134493000Y-85217000D01*
X135128000Y-83529500D02*
X135128000Y-84582000D01*
X135781000Y-85217000D02*
X135890000Y-85326000D01*
X134493000Y-85217000D02*
X135781000Y-85217000D01*
X145796000Y-69195000D02*
X145733000Y-69132000D01*
X145796000Y-70394500D02*
X145796000Y-69195000D01*
X128016000Y-70612000D02*
X128016000Y-70612000D01*
X128016000Y-70612000D02*
X128016000Y-70612000D01*
X128016000Y-70612000D02*
X128016000Y-70612000D01*
X128016000Y-70612000D02*
X128016000Y-70612000D01*
X128369553Y-70612000D02*
X128016000Y-70612000D01*
X132814553Y-75057000D02*
X128369553Y-70612000D01*
X144018000Y-75057000D02*
X132814553Y-75057000D01*
X147066000Y-78105000D02*
X144018000Y-75057000D01*
X147066000Y-78232000D02*
X147066000Y-78105000D01*
X124968000Y-70485000D02*
X124968000Y-70485000D01*
X124968000Y-70485000D02*
X124968000Y-70485000D01*
X124968000Y-70485000D02*
X124968000Y-70485000D01*
X140341011Y-75507011D02*
X129990011Y-75507011D01*
X125217999Y-70734999D02*
X124968000Y-70485000D01*
X129990011Y-75507011D02*
X125217999Y-70734999D01*
X143066000Y-78232000D02*
X140341011Y-75507011D01*
X144066000Y-78232000D02*
X143066000Y-78232000D01*
X143723000Y-70394500D02*
X144013500Y-70104000D01*
X142748000Y-70394500D02*
X143723000Y-70394500D01*
X144013500Y-70104000D02*
X144145000Y-70104000D01*
X144145000Y-70104000D02*
X144145000Y-70104000D01*
X121920000Y-70485000D02*
X121920000Y-70485000D01*
X121920000Y-70485000D02*
X121920000Y-70485000D01*
X121920000Y-70485000D02*
X121920000Y-70485000D01*
X137791022Y-75957022D02*
X127392022Y-75957022D01*
X127392022Y-75957022D02*
X122169999Y-70734999D01*
X140066000Y-78232000D02*
X137791022Y-75957022D01*
X141066000Y-78232000D02*
X140066000Y-78232000D01*
X122169999Y-70734999D02*
X121920000Y-70485000D01*
X140675000Y-70394500D02*
X140965500Y-70104000D01*
X139700000Y-70394500D02*
X140675000Y-70394500D01*
X140965500Y-70104000D02*
X141097000Y-70104000D01*
X141097000Y-70104000D02*
X141097000Y-70104000D01*
X138066000Y-78232000D02*
X137066000Y-78232000D01*
X135241033Y-76407033D02*
X124794033Y-76407033D01*
X137066000Y-78232000D02*
X135241033Y-76407033D01*
X124794033Y-76407033D02*
X118872000Y-70485000D01*
X118872000Y-70485000D02*
X118872000Y-70485000D01*
X137627000Y-70394500D02*
X137917500Y-70104000D01*
X136652000Y-70394500D02*
X137627000Y-70394500D01*
X137917500Y-70104000D02*
X138049000Y-70104000D01*
X138049000Y-70104000D02*
X138049000Y-70104000D01*
X134706000Y-70394500D02*
X134996500Y-70104000D01*
X133731000Y-70394500D02*
X134706000Y-70394500D01*
X134996500Y-70104000D02*
X135128000Y-70104000D01*
X135128000Y-70104000D02*
X135128000Y-70104000D01*
X135066000Y-77916000D02*
X134250020Y-77100020D01*
X135066000Y-78232000D02*
X135066000Y-77916000D01*
X134250020Y-77100020D02*
X134112000Y-76962000D01*
X134007043Y-76857043D02*
X122196043Y-76857043D01*
X134112000Y-76962000D02*
X134007043Y-76857043D01*
X122196043Y-76857043D02*
X115824000Y-70485000D01*
X115824000Y-70485000D02*
X115824000Y-70485000D01*
D20*
X88454001Y-92772001D02*
X89154000Y-93472000D01*
X88003999Y-92321999D02*
X88454001Y-92772001D01*
X88003999Y-78042001D02*
X88003999Y-92321999D01*
X89154000Y-75692000D02*
X89154000Y-76892000D01*
X88611000Y-77534000D02*
X88611000Y-77435000D01*
X89309000Y-78232000D02*
X88611000Y-77534000D01*
X91059000Y-78232000D02*
X89309000Y-78232000D01*
X89154000Y-76892000D02*
X88611000Y-77435000D01*
X88611000Y-77435000D02*
X88003999Y-78042001D01*
D19*
X96449000Y-75692000D02*
X96774000Y-75692000D01*
X95059000Y-77082000D02*
X96449000Y-75692000D01*
X95059000Y-78232000D02*
X95059000Y-77082000D01*
X100457000Y-75728500D02*
X100457000Y-74916000D01*
X100457000Y-74916000D02*
X100457000Y-73152000D01*
X100457000Y-73152000D02*
X101600000Y-72009000D01*
X101600000Y-72009000D02*
X101600000Y-72009000D01*
D20*
X89154000Y-83312000D02*
X89853999Y-82612001D01*
X89853999Y-82612001D02*
X91821000Y-80645000D01*
X100457000Y-79516000D02*
X100457000Y-80645000D01*
X100457000Y-78703500D02*
X100457000Y-79516000D01*
X91821000Y-80645000D02*
X100457000Y-80645000D01*
X100457000Y-80645000D02*
X101854000Y-80645000D01*
X102486001Y-81277001D02*
X120647001Y-81277001D01*
X101854000Y-80645000D02*
X102486001Y-81277001D01*
X120647001Y-81277001D02*
X120647001Y-81277001D01*
D21*
G36*
X151247886Y-66520258D02*
G01*
X151788376Y-66683442D01*
X152286867Y-66948494D01*
X152724388Y-67305326D01*
X153084271Y-67740350D01*
X153352799Y-68236983D01*
X153519749Y-68776315D01*
X153582000Y-69368596D01*
X153582001Y-99325712D01*
X153523742Y-99919886D01*
X153360559Y-100460374D01*
X153095506Y-100958867D01*
X152738669Y-101396393D01*
X152303653Y-101756269D01*
X151807019Y-102024798D01*
X151267690Y-102191749D01*
X150675404Y-102254000D01*
X90718278Y-102254000D01*
X90124114Y-102195742D01*
X89583626Y-102032559D01*
X89085133Y-101767506D01*
X88647607Y-101410669D01*
X88287731Y-100975653D01*
X88019202Y-100479019D01*
X87852251Y-99939690D01*
X87790000Y-99347404D01*
X87790000Y-99137872D01*
X88451000Y-99137872D01*
X88451000Y-99578128D01*
X88536890Y-100009925D01*
X88705369Y-100416669D01*
X88949962Y-100782729D01*
X89261271Y-101094038D01*
X89627331Y-101338631D01*
X90034075Y-101507110D01*
X90465872Y-101593000D01*
X90906128Y-101593000D01*
X91337925Y-101507110D01*
X91744669Y-101338631D01*
X92110729Y-101094038D01*
X92422038Y-100782729D01*
X92666631Y-100416669D01*
X92835110Y-100009925D01*
X92921000Y-99578128D01*
X92921000Y-99137872D01*
X148451000Y-99137872D01*
X148451000Y-99578128D01*
X148536890Y-100009925D01*
X148705369Y-100416669D01*
X148949962Y-100782729D01*
X149261271Y-101094038D01*
X149627331Y-101338631D01*
X150034075Y-101507110D01*
X150465872Y-101593000D01*
X150906128Y-101593000D01*
X151337925Y-101507110D01*
X151744669Y-101338631D01*
X152110729Y-101094038D01*
X152422038Y-100782729D01*
X152666631Y-100416669D01*
X152835110Y-100009925D01*
X152921000Y-99578128D01*
X152921000Y-99137872D01*
X152835110Y-98706075D01*
X152666631Y-98299331D01*
X152422038Y-97933271D01*
X152110729Y-97621962D01*
X151744669Y-97377369D01*
X151337925Y-97208890D01*
X150906128Y-97123000D01*
X150465872Y-97123000D01*
X150034075Y-97208890D01*
X149627331Y-97377369D01*
X149261271Y-97621962D01*
X148949962Y-97933271D01*
X148705369Y-98299331D01*
X148536890Y-98706075D01*
X148451000Y-99137872D01*
X92921000Y-99137872D01*
X92835110Y-98706075D01*
X92666631Y-98299331D01*
X92422038Y-97933271D01*
X92110729Y-97621962D01*
X91744669Y-97377369D01*
X91337925Y-97208890D01*
X90906128Y-97123000D01*
X90465872Y-97123000D01*
X90034075Y-97208890D01*
X89627331Y-97377369D01*
X89261271Y-97621962D01*
X88949962Y-97933271D01*
X88705369Y-98299331D01*
X88536890Y-98706075D01*
X88451000Y-99137872D01*
X87790000Y-99137872D01*
X87790000Y-93359578D01*
X87819000Y-93388578D01*
X87819000Y-93603486D01*
X87870304Y-93861405D01*
X87970939Y-94104359D01*
X88117038Y-94323013D01*
X88302987Y-94508962D01*
X88521641Y-94655061D01*
X88764595Y-94755696D01*
X89022514Y-94807000D01*
X89285486Y-94807000D01*
X89543405Y-94755696D01*
X89786359Y-94655061D01*
X90005013Y-94508962D01*
X90190962Y-94323013D01*
X90337061Y-94104359D01*
X90437696Y-93861405D01*
X90489000Y-93603486D01*
X90489000Y-93350514D01*
X95449000Y-93350514D01*
X95449000Y-93613486D01*
X95500304Y-93871405D01*
X95600939Y-94114359D01*
X95747038Y-94333013D01*
X95932987Y-94518962D01*
X96151641Y-94665061D01*
X96394595Y-94765696D01*
X96652514Y-94817000D01*
X96915486Y-94817000D01*
X97173405Y-94765696D01*
X97416359Y-94665061D01*
X97635013Y-94518962D01*
X97820962Y-94333013D01*
X97967061Y-94114359D01*
X98067696Y-93871405D01*
X98119000Y-93613486D01*
X98119000Y-93350514D01*
X98067696Y-93092595D01*
X98015673Y-92967000D01*
X98718928Y-92967000D01*
X98718928Y-94485000D01*
X98737741Y-94676007D01*
X98793455Y-94859675D01*
X98883931Y-95028943D01*
X99005692Y-95177308D01*
X99154057Y-95299069D01*
X99323325Y-95389545D01*
X99506993Y-95445259D01*
X99698000Y-95464072D01*
X101216000Y-95464072D01*
X101407007Y-95445259D01*
X101590675Y-95389545D01*
X101759943Y-95299069D01*
X101908308Y-95177308D01*
X102030069Y-95028943D01*
X102120545Y-94859675D01*
X102176259Y-94676007D01*
X102195072Y-94485000D01*
X102195072Y-93555117D01*
X106322000Y-93555117D01*
X106322000Y-93896883D01*
X106388675Y-94232081D01*
X106519463Y-94547831D01*
X106709337Y-94831998D01*
X106951002Y-95073663D01*
X107235169Y-95263537D01*
X107550919Y-95394325D01*
X107886117Y-95461000D01*
X108227883Y-95461000D01*
X108563081Y-95394325D01*
X108878831Y-95263537D01*
X109162998Y-95073663D01*
X109404663Y-94831998D01*
X109594537Y-94547831D01*
X109725325Y-94232081D01*
X109792000Y-93896883D01*
X109792000Y-93555117D01*
X109725325Y-93219919D01*
X109594537Y-92904169D01*
X109404663Y-92620002D01*
X109162998Y-92378337D01*
X108878831Y-92188463D01*
X108563081Y-92057675D01*
X108227883Y-91991000D01*
X107886117Y-91991000D01*
X107550919Y-92057675D01*
X107235169Y-92188463D01*
X106951002Y-92378337D01*
X106709337Y-92620002D01*
X106519463Y-92904169D01*
X106388675Y-93219919D01*
X106322000Y-93555117D01*
X102195072Y-93555117D01*
X102195072Y-92967000D01*
X102176259Y-92775993D01*
X102120545Y-92592325D01*
X102030069Y-92423057D01*
X101908308Y-92274692D01*
X101759943Y-92152931D01*
X101590675Y-92062455D01*
X101407007Y-92006741D01*
X101216000Y-91987928D01*
X99698000Y-91987928D01*
X99506993Y-92006741D01*
X99323325Y-92062455D01*
X99154057Y-92152931D01*
X99005692Y-92274692D01*
X98883931Y-92423057D01*
X98793455Y-92592325D01*
X98737741Y-92775993D01*
X98718928Y-92967000D01*
X98015673Y-92967000D01*
X97967061Y-92849641D01*
X97820962Y-92630987D01*
X97635013Y-92445038D01*
X97416359Y-92298939D01*
X97173405Y-92198304D01*
X96915486Y-92147000D01*
X96652514Y-92147000D01*
X96394595Y-92198304D01*
X96151641Y-92298939D01*
X95932987Y-92445038D01*
X95747038Y-92630987D01*
X95600939Y-92849641D01*
X95500304Y-93092595D01*
X95449000Y-93350514D01*
X90489000Y-93350514D01*
X90489000Y-93340514D01*
X90437696Y-93082595D01*
X90337061Y-92839641D01*
X90190962Y-92620987D01*
X90005013Y-92435038D01*
X89786359Y-92288939D01*
X89543405Y-92188304D01*
X89285486Y-92137000D01*
X89070578Y-92137000D01*
X88888999Y-91955421D01*
X88888999Y-89690442D01*
X89022514Y-89717000D01*
X89285486Y-89717000D01*
X89543405Y-89665696D01*
X89786359Y-89565061D01*
X90005013Y-89418962D01*
X90190962Y-89233013D01*
X90337061Y-89014359D01*
X90437696Y-88771405D01*
X90489000Y-88513486D01*
X90489000Y-88270514D01*
X95449000Y-88270514D01*
X95449000Y-88533486D01*
X95500304Y-88791405D01*
X95600939Y-89034359D01*
X95747038Y-89253013D01*
X95932987Y-89438962D01*
X96151641Y-89585061D01*
X96394595Y-89685696D01*
X96652514Y-89737000D01*
X96915486Y-89737000D01*
X97173405Y-89685696D01*
X97416359Y-89585061D01*
X97635013Y-89438962D01*
X97820962Y-89253013D01*
X97967061Y-89034359D01*
X98067696Y-88791405D01*
X98119000Y-88533486D01*
X98119000Y-88270514D01*
X98067696Y-88012595D01*
X97967061Y-87769641D01*
X97820962Y-87550987D01*
X97635013Y-87365038D01*
X97416359Y-87218939D01*
X97173405Y-87118304D01*
X96915486Y-87067000D01*
X96652514Y-87067000D01*
X96394595Y-87118304D01*
X96151641Y-87218939D01*
X95932987Y-87365038D01*
X95747038Y-87550987D01*
X95600939Y-87769641D01*
X95500304Y-88012595D01*
X95449000Y-88270514D01*
X90489000Y-88270514D01*
X90489000Y-88250514D01*
X90437696Y-87992595D01*
X90337061Y-87749641D01*
X90190962Y-87530987D01*
X90005013Y-87345038D01*
X89786359Y-87198939D01*
X89543405Y-87098304D01*
X89285486Y-87047000D01*
X89022514Y-87047000D01*
X88888999Y-87073558D01*
X88888999Y-87011002D01*
X112698929Y-87011002D01*
X112698929Y-89811000D01*
X112715993Y-89984254D01*
X112766530Y-90150851D01*
X112848596Y-90304387D01*
X112959040Y-90438962D01*
X113093615Y-90549406D01*
X113247151Y-90631472D01*
X113413748Y-90682009D01*
X113529114Y-90693372D01*
X113276603Y-90900603D01*
X113028548Y-91202858D01*
X112844227Y-91547700D01*
X112730723Y-91921874D01*
X112702001Y-92213492D01*
X112702001Y-93008511D01*
X112730723Y-93300129D01*
X112844227Y-93674303D01*
X113028548Y-94019144D01*
X113276604Y-94321399D01*
X113578859Y-94569454D01*
X113923700Y-94753775D01*
X114297874Y-94867279D01*
X114687001Y-94905605D01*
X115076129Y-94867279D01*
X115450303Y-94753775D01*
X115795144Y-94569454D01*
X116097399Y-94321399D01*
X116345454Y-94019144D01*
X116529775Y-93674303D01*
X116643279Y-93300128D01*
X116672001Y-93008510D01*
X116672001Y-92213491D01*
X116643279Y-91921873D01*
X116529775Y-91547699D01*
X116345454Y-91202858D01*
X116097399Y-90900603D01*
X115844888Y-90693372D01*
X115960254Y-90682009D01*
X116126851Y-90631472D01*
X116280387Y-90549406D01*
X116414962Y-90438962D01*
X116525406Y-90304387D01*
X116607472Y-90150851D01*
X116658009Y-89984254D01*
X116675073Y-89811000D01*
X116675073Y-87111002D01*
X120148929Y-87111002D01*
X120148929Y-89911000D01*
X120165993Y-90084254D01*
X120216530Y-90250851D01*
X120298596Y-90404387D01*
X120409040Y-90538962D01*
X120543615Y-90649406D01*
X120697151Y-90731472D01*
X120863748Y-90782009D01*
X120979114Y-90793372D01*
X120726603Y-91000603D01*
X120478548Y-91302858D01*
X120294227Y-91647700D01*
X120180723Y-92021874D01*
X120152001Y-92313492D01*
X120152001Y-93108511D01*
X120180723Y-93400129D01*
X120294227Y-93774303D01*
X120478548Y-94119144D01*
X120726604Y-94421399D01*
X121028859Y-94669454D01*
X121373700Y-94853775D01*
X121747874Y-94967279D01*
X122137001Y-95005605D01*
X122526129Y-94967279D01*
X122900303Y-94853775D01*
X123245144Y-94669454D01*
X123547399Y-94421399D01*
X123795454Y-94119144D01*
X123979775Y-93774303D01*
X124093279Y-93400128D01*
X124122001Y-93108510D01*
X124122001Y-92838001D01*
X124352001Y-92838001D01*
X124352001Y-93138001D01*
X124414919Y-93522815D01*
X124551701Y-93887960D01*
X124757091Y-94219404D01*
X125023196Y-94504410D01*
X125339790Y-94732025D01*
X125694706Y-94893502D01*
X125901678Y-94947678D01*
X126210001Y-94832830D01*
X126210001Y-92838001D01*
X126464001Y-92838001D01*
X126464001Y-94832830D01*
X126772324Y-94947678D01*
X126979296Y-94893502D01*
X127334212Y-94732025D01*
X127650806Y-94504410D01*
X127916911Y-94219404D01*
X128122301Y-93887960D01*
X128259083Y-93522815D01*
X128322001Y-93138001D01*
X128322001Y-92838001D01*
X126464001Y-92838001D01*
X126210001Y-92838001D01*
X124352001Y-92838001D01*
X124122001Y-92838001D01*
X124122001Y-92313491D01*
X124093279Y-92021873D01*
X123979775Y-91647699D01*
X123795454Y-91302858D01*
X123547399Y-91000603D01*
X123294888Y-90793372D01*
X123410254Y-90782009D01*
X123576851Y-90731472D01*
X123730387Y-90649406D01*
X123864962Y-90538962D01*
X123975406Y-90404387D01*
X124057472Y-90250851D01*
X124108009Y-90084254D01*
X124125073Y-89911000D01*
X124125073Y-88113492D01*
X124352001Y-88113492D01*
X124352001Y-88908511D01*
X124380723Y-89200129D01*
X124494227Y-89574303D01*
X124678548Y-89919144D01*
X124926604Y-90221399D01*
X125228859Y-90469454D01*
X125502733Y-90615842D01*
X125339790Y-90689977D01*
X125023196Y-90917592D01*
X124757091Y-91202598D01*
X124551701Y-91534042D01*
X124414919Y-91899187D01*
X124352001Y-92284001D01*
X124352001Y-92584001D01*
X126210001Y-92584001D01*
X126210001Y-92564001D01*
X126464001Y-92564001D01*
X126464001Y-92584001D01*
X128322001Y-92584001D01*
X128322001Y-92284001D01*
X128259083Y-91899187D01*
X128122301Y-91534042D01*
X127916911Y-91202598D01*
X127650806Y-90917592D01*
X127334212Y-90689977D01*
X127171270Y-90615843D01*
X127445144Y-90469454D01*
X127747399Y-90221399D01*
X127995454Y-89919144D01*
X128179775Y-89574303D01*
X128293279Y-89200128D01*
X128322001Y-88908510D01*
X128322001Y-88113491D01*
X128305997Y-87951000D01*
X134551928Y-87951000D01*
X134564188Y-88075482D01*
X134600498Y-88195180D01*
X134659463Y-88305494D01*
X134738815Y-88402185D01*
X134835506Y-88481537D01*
X134945820Y-88540502D01*
X135065518Y-88576812D01*
X135190000Y-88589072D01*
X135604250Y-88586000D01*
X135763000Y-88427250D01*
X135763000Y-87503000D01*
X136017000Y-87503000D01*
X136017000Y-88427250D01*
X136175750Y-88586000D01*
X136590000Y-88589072D01*
X136714482Y-88576812D01*
X136834180Y-88540502D01*
X136944494Y-88481537D01*
X137041185Y-88402185D01*
X137120537Y-88305494D01*
X137179502Y-88195180D01*
X137215812Y-88075482D01*
X137227185Y-87960000D01*
X137599928Y-87960000D01*
X137612188Y-88084482D01*
X137648498Y-88204180D01*
X137707463Y-88314494D01*
X137786815Y-88411185D01*
X137883506Y-88490537D01*
X137993820Y-88549502D01*
X138113518Y-88585812D01*
X138238000Y-88598072D01*
X138652250Y-88595000D01*
X138811000Y-88436250D01*
X138811000Y-87512000D01*
X139065000Y-87512000D01*
X139065000Y-88436250D01*
X139223750Y-88595000D01*
X139638000Y-88598072D01*
X139762482Y-88585812D01*
X139882180Y-88549502D01*
X139992494Y-88490537D01*
X140089185Y-88411185D01*
X140168537Y-88314494D01*
X140227502Y-88204180D01*
X140263812Y-88084482D01*
X140276072Y-87960000D01*
X140901928Y-87960000D01*
X140914188Y-88084482D01*
X140950498Y-88204180D01*
X141009463Y-88314494D01*
X141088815Y-88411185D01*
X141185506Y-88490537D01*
X141295820Y-88549502D01*
X141415518Y-88585812D01*
X141540000Y-88598072D01*
X141954250Y-88595000D01*
X142113000Y-88436250D01*
X142113000Y-87512000D01*
X142367000Y-87512000D01*
X142367000Y-88436250D01*
X142525750Y-88595000D01*
X142940000Y-88598072D01*
X143064482Y-88585812D01*
X143184180Y-88549502D01*
X143294494Y-88490537D01*
X143391185Y-88411185D01*
X143470537Y-88314494D01*
X143529502Y-88204180D01*
X143565812Y-88084482D01*
X143578072Y-87960000D01*
X144457928Y-87960000D01*
X144470188Y-88084482D01*
X144506498Y-88204180D01*
X144565463Y-88314494D01*
X144644815Y-88411185D01*
X144741506Y-88490537D01*
X144851820Y-88549502D01*
X144971518Y-88585812D01*
X145096000Y-88598072D01*
X145510250Y-88595000D01*
X145669000Y-88436250D01*
X145669000Y-87512000D01*
X145923000Y-87512000D01*
X145923000Y-88436250D01*
X146081750Y-88595000D01*
X146496000Y-88598072D01*
X146620482Y-88585812D01*
X146740180Y-88549502D01*
X146850494Y-88490537D01*
X146947185Y-88411185D01*
X147026537Y-88314494D01*
X147085502Y-88204180D01*
X147121812Y-88084482D01*
X147134072Y-87960000D01*
X148521928Y-87960000D01*
X148534188Y-88084482D01*
X148570498Y-88204180D01*
X148629463Y-88314494D01*
X148708815Y-88411185D01*
X148805506Y-88490537D01*
X148915820Y-88549502D01*
X149035518Y-88585812D01*
X149160000Y-88598072D01*
X149574250Y-88595000D01*
X149733000Y-88436250D01*
X149733000Y-87512000D01*
X149987000Y-87512000D01*
X149987000Y-88436250D01*
X150145750Y-88595000D01*
X150560000Y-88598072D01*
X150684482Y-88585812D01*
X150804180Y-88549502D01*
X150914494Y-88490537D01*
X151011185Y-88411185D01*
X151090537Y-88314494D01*
X151149502Y-88204180D01*
X151185812Y-88084482D01*
X151198072Y-87960000D01*
X151195000Y-87670750D01*
X151036250Y-87512000D01*
X149987000Y-87512000D01*
X149733000Y-87512000D01*
X148683750Y-87512000D01*
X148525000Y-87670750D01*
X148521928Y-87960000D01*
X147134072Y-87960000D01*
X147131000Y-87670750D01*
X146972250Y-87512000D01*
X145923000Y-87512000D01*
X145669000Y-87512000D01*
X144619750Y-87512000D01*
X144461000Y-87670750D01*
X144457928Y-87960000D01*
X143578072Y-87960000D01*
X143575000Y-87670750D01*
X143416250Y-87512000D01*
X142367000Y-87512000D01*
X142113000Y-87512000D01*
X141063750Y-87512000D01*
X140905000Y-87670750D01*
X140901928Y-87960000D01*
X140276072Y-87960000D01*
X140273000Y-87670750D01*
X140114250Y-87512000D01*
X139065000Y-87512000D01*
X138811000Y-87512000D01*
X137761750Y-87512000D01*
X137603000Y-87670750D01*
X137599928Y-87960000D01*
X137227185Y-87960000D01*
X137228072Y-87951000D01*
X137225000Y-87661750D01*
X137066250Y-87503000D01*
X136017000Y-87503000D01*
X135763000Y-87503000D01*
X134713750Y-87503000D01*
X134555000Y-87661750D01*
X134551928Y-87951000D01*
X128305997Y-87951000D01*
X128293279Y-87821873D01*
X128179775Y-87447699D01*
X127995454Y-87102858D01*
X127747399Y-86800603D01*
X127445144Y-86552548D01*
X127100302Y-86368227D01*
X126726128Y-86254723D01*
X126337001Y-86216397D01*
X125947873Y-86254723D01*
X125573699Y-86368227D01*
X125228858Y-86552548D01*
X124926603Y-86800603D01*
X124678548Y-87102858D01*
X124494227Y-87447700D01*
X124380723Y-87821874D01*
X124352001Y-88113492D01*
X124125073Y-88113492D01*
X124125073Y-87111002D01*
X124108009Y-86937748D01*
X124057472Y-86771151D01*
X123975406Y-86617615D01*
X123864962Y-86483040D01*
X123730387Y-86372596D01*
X123576851Y-86290530D01*
X123410254Y-86239993D01*
X123237000Y-86222929D01*
X121037002Y-86222929D01*
X120863748Y-86239993D01*
X120697151Y-86290530D01*
X120543615Y-86372596D01*
X120409040Y-86483040D01*
X120298596Y-86617615D01*
X120216530Y-86771151D01*
X120165993Y-86937748D01*
X120148929Y-87111002D01*
X116675073Y-87111002D01*
X116675073Y-87011002D01*
X116658009Y-86837748D01*
X116607472Y-86671151D01*
X116525406Y-86517615D01*
X116414962Y-86383040D01*
X116280387Y-86272596D01*
X116126851Y-86190530D01*
X115960254Y-86139993D01*
X115787000Y-86122929D01*
X113587002Y-86122929D01*
X113413748Y-86139993D01*
X113247151Y-86190530D01*
X113093615Y-86272596D01*
X112959040Y-86383040D01*
X112848596Y-86517615D01*
X112766530Y-86671151D01*
X112715993Y-86837748D01*
X112698929Y-87011002D01*
X88888999Y-87011002D01*
X88888999Y-84620442D01*
X89022514Y-84647000D01*
X89285486Y-84647000D01*
X89543405Y-84595696D01*
X89786359Y-84495061D01*
X90005013Y-84348962D01*
X90120706Y-84233269D01*
X96032336Y-84233269D01*
X96091797Y-84467037D01*
X96330242Y-84577934D01*
X96585740Y-84640183D01*
X96848473Y-84651390D01*
X97108344Y-84611125D01*
X97355366Y-84520935D01*
X97456203Y-84467037D01*
X97515664Y-84233269D01*
X96774000Y-83491605D01*
X96032336Y-84233269D01*
X90120706Y-84233269D01*
X90190962Y-84163013D01*
X90337061Y-83944359D01*
X90437696Y-83701405D01*
X90489000Y-83443486D01*
X90489000Y-83386473D01*
X95434610Y-83386473D01*
X95474875Y-83646344D01*
X95565065Y-83893366D01*
X95618963Y-83994203D01*
X95852731Y-84053664D01*
X96594395Y-83312000D01*
X96953605Y-83312000D01*
X97695269Y-84053664D01*
X97929037Y-83994203D01*
X98039934Y-83755758D01*
X98102183Y-83500260D01*
X98113390Y-83237527D01*
X98073125Y-82977656D01*
X97982935Y-82730634D01*
X97929037Y-82629797D01*
X97695269Y-82570336D01*
X96953605Y-83312000D01*
X96594395Y-83312000D01*
X95852731Y-82570336D01*
X95618963Y-82629797D01*
X95508066Y-82868242D01*
X95445817Y-83123740D01*
X95434610Y-83386473D01*
X90489000Y-83386473D01*
X90489000Y-83228579D01*
X90510531Y-83207048D01*
X90510535Y-83207043D01*
X91326847Y-82390731D01*
X96032336Y-82390731D01*
X96774000Y-83132395D01*
X97515664Y-82390731D01*
X97456203Y-82156963D01*
X97217758Y-82046066D01*
X96962260Y-81983817D01*
X96699527Y-81972610D01*
X96439656Y-82012875D01*
X96192634Y-82103065D01*
X96091797Y-82156963D01*
X96032336Y-82390731D01*
X91326847Y-82390731D01*
X92187579Y-81530000D01*
X100413524Y-81530000D01*
X100457000Y-81534282D01*
X100500477Y-81530000D01*
X101487422Y-81530000D01*
X101829471Y-81872050D01*
X101857184Y-81905818D01*
X101890952Y-81933531D01*
X101890954Y-81933533D01*
X101943919Y-81977000D01*
X101991942Y-82016412D01*
X102145688Y-82098590D01*
X102312511Y-82149196D01*
X102442524Y-82162001D01*
X102442534Y-82162001D01*
X102486000Y-82166282D01*
X102529466Y-82162001D01*
X106755206Y-82162001D01*
X106592825Y-82324382D01*
X106386534Y-82633118D01*
X106244439Y-82976166D01*
X106172000Y-83340344D01*
X106172000Y-83711656D01*
X106244439Y-84075834D01*
X106386534Y-84418882D01*
X106592825Y-84727618D01*
X106855382Y-84990175D01*
X107164118Y-85196466D01*
X107507166Y-85338561D01*
X107871344Y-85411000D01*
X108242656Y-85411000D01*
X108606834Y-85338561D01*
X108949882Y-85196466D01*
X109049602Y-85129835D01*
X133608000Y-85129835D01*
X133608000Y-85304165D01*
X133642010Y-85475145D01*
X133708723Y-85636205D01*
X133805576Y-85781155D01*
X133928845Y-85904424D01*
X134073795Y-86001277D01*
X134234855Y-86067990D01*
X134405835Y-86102000D01*
X134580165Y-86102000D01*
X134669446Y-86084241D01*
X134701595Y-86144387D01*
X134812038Y-86278962D01*
X134818594Y-86284342D01*
X134738815Y-86349815D01*
X134659463Y-86446506D01*
X134600498Y-86556820D01*
X134564188Y-86676518D01*
X134551928Y-86801000D01*
X134555000Y-87090250D01*
X134713750Y-87249000D01*
X135763000Y-87249000D01*
X135763000Y-87229000D01*
X136017000Y-87229000D01*
X136017000Y-87249000D01*
X137066250Y-87249000D01*
X137225000Y-87090250D01*
X137228072Y-86801000D01*
X137215812Y-86676518D01*
X137179502Y-86556820D01*
X137120537Y-86446506D01*
X137041185Y-86349815D01*
X136961406Y-86284342D01*
X136967962Y-86278962D01*
X137078405Y-86144387D01*
X137160472Y-85990851D01*
X137211008Y-85824255D01*
X137217928Y-85753999D01*
X137226355Y-85757490D01*
X137269214Y-85766015D01*
X137349196Y-85845997D01*
X137372999Y-85875001D01*
X137488724Y-85969974D01*
X137620753Y-86040546D01*
X137702541Y-86065356D01*
X137749595Y-86153387D01*
X137860038Y-86287962D01*
X137866594Y-86293342D01*
X137786815Y-86358815D01*
X137707463Y-86455506D01*
X137648498Y-86565820D01*
X137612188Y-86685518D01*
X137599928Y-86810000D01*
X137603000Y-87099250D01*
X137761750Y-87258000D01*
X138811000Y-87258000D01*
X138811000Y-87238000D01*
X139065000Y-87238000D01*
X139065000Y-87258000D01*
X140114250Y-87258000D01*
X140273000Y-87099250D01*
X140276072Y-86810000D01*
X140263812Y-86685518D01*
X140227502Y-86565820D01*
X140168537Y-86455506D01*
X140089185Y-86358815D01*
X140009406Y-86293342D01*
X140015962Y-86287962D01*
X140126405Y-86153387D01*
X140208472Y-85999851D01*
X140259008Y-85833255D01*
X140276072Y-85660001D01*
X140276072Y-85039721D01*
X140312723Y-85128205D01*
X140409576Y-85273155D01*
X140532845Y-85396424D01*
X140677795Y-85493277D01*
X140838855Y-85559990D01*
X140881714Y-85568515D01*
X140901928Y-85588730D01*
X140901928Y-85660001D01*
X140918992Y-85833255D01*
X140969528Y-85999851D01*
X141051595Y-86153387D01*
X141162038Y-86287962D01*
X141168594Y-86293342D01*
X141088815Y-86358815D01*
X141009463Y-86455506D01*
X140950498Y-86565820D01*
X140914188Y-86685518D01*
X140901928Y-86810000D01*
X140905000Y-87099250D01*
X141063750Y-87258000D01*
X142113000Y-87258000D01*
X142113000Y-87238000D01*
X142367000Y-87238000D01*
X142367000Y-87258000D01*
X143416250Y-87258000D01*
X143575000Y-87099250D01*
X143578072Y-86810000D01*
X143565812Y-86685518D01*
X143529502Y-86565820D01*
X143470537Y-86455506D01*
X143391185Y-86358815D01*
X143311406Y-86293342D01*
X143317962Y-86287962D01*
X143428405Y-86153387D01*
X143510472Y-85999851D01*
X143561008Y-85833255D01*
X143578072Y-85660001D01*
X143578072Y-85647651D01*
X143580845Y-85650424D01*
X143725795Y-85747277D01*
X143886855Y-85813990D01*
X144057835Y-85848000D01*
X144232165Y-85848000D01*
X144403145Y-85813990D01*
X144470353Y-85786152D01*
X144474992Y-85833255D01*
X144525528Y-85999851D01*
X144607595Y-86153387D01*
X144718038Y-86287962D01*
X144724594Y-86293342D01*
X144644815Y-86358815D01*
X144565463Y-86455506D01*
X144506498Y-86565820D01*
X144470188Y-86685518D01*
X144457928Y-86810000D01*
X144461000Y-87099250D01*
X144619750Y-87258000D01*
X145669000Y-87258000D01*
X145669000Y-87238000D01*
X145923000Y-87238000D01*
X145923000Y-87258000D01*
X146972250Y-87258000D01*
X147131000Y-87099250D01*
X147134072Y-86810000D01*
X147121812Y-86685518D01*
X147085502Y-86565820D01*
X147026537Y-86455506D01*
X146947185Y-86358815D01*
X146867406Y-86293342D01*
X146873962Y-86287962D01*
X146984405Y-86153387D01*
X147066472Y-85999851D01*
X147075665Y-85969544D01*
X147077076Y-85971655D01*
X147200345Y-86094924D01*
X147345295Y-86191777D01*
X147506355Y-86258490D01*
X147677335Y-86292500D01*
X147851665Y-86292500D01*
X148022645Y-86258490D01*
X148183705Y-86191777D01*
X148220038Y-86167500D01*
X148683177Y-86167500D01*
X148782038Y-86287962D01*
X148788594Y-86293342D01*
X148708815Y-86358815D01*
X148629463Y-86455506D01*
X148570498Y-86565820D01*
X148534188Y-86685518D01*
X148521928Y-86810000D01*
X148525000Y-87099250D01*
X148683750Y-87258000D01*
X149733000Y-87258000D01*
X149733000Y-87238000D01*
X149987000Y-87238000D01*
X149987000Y-87258000D01*
X151036250Y-87258000D01*
X151195000Y-87099250D01*
X151198072Y-86810000D01*
X151185812Y-86685518D01*
X151149502Y-86565820D01*
X151090537Y-86455506D01*
X151011185Y-86358815D01*
X150931406Y-86293342D01*
X150937962Y-86287962D01*
X151048405Y-86153387D01*
X151130472Y-85999851D01*
X151181008Y-85833255D01*
X151198072Y-85660001D01*
X151198072Y-85009999D01*
X151181008Y-84836745D01*
X151130472Y-84670149D01*
X151048405Y-84516613D01*
X150937962Y-84382038D01*
X150803387Y-84271595D01*
X150649851Y-84189528D01*
X150483255Y-84138992D01*
X150310001Y-84121928D01*
X149409999Y-84121928D01*
X149236745Y-84138992D01*
X149070149Y-84189528D01*
X148916613Y-84271595D01*
X148782038Y-84382038D01*
X148671595Y-84516613D01*
X148601634Y-84647500D01*
X148285407Y-84647500D01*
X148318962Y-84619962D01*
X148429405Y-84485386D01*
X148511472Y-84331850D01*
X148562008Y-84165254D01*
X148579072Y-83992000D01*
X148579072Y-83067000D01*
X148562008Y-82893746D01*
X148511472Y-82727150D01*
X148429405Y-82573614D01*
X148318962Y-82439038D01*
X148184386Y-82328595D01*
X148030850Y-82246528D01*
X147864254Y-82195992D01*
X147691000Y-82178928D01*
X146441000Y-82178928D01*
X146267746Y-82195992D01*
X146101150Y-82246528D01*
X145947614Y-82328595D01*
X145813038Y-82439038D01*
X145702595Y-82573614D01*
X145620528Y-82727150D01*
X145605500Y-82776691D01*
X145590472Y-82727150D01*
X145508405Y-82573614D01*
X145397962Y-82439038D01*
X145263386Y-82328595D01*
X145109850Y-82246528D01*
X144943254Y-82195992D01*
X144770000Y-82178928D01*
X143520000Y-82178928D01*
X143346746Y-82195992D01*
X143180150Y-82246528D01*
X143026614Y-82328595D01*
X142892038Y-82439038D01*
X142781595Y-82573614D01*
X142699528Y-82727150D01*
X142648992Y-82893746D01*
X142631928Y-83067000D01*
X142631928Y-83992000D01*
X142644725Y-84121928D01*
X142597275Y-84121928D01*
X142610072Y-83992000D01*
X142610072Y-83067000D01*
X142593008Y-82893746D01*
X142542472Y-82727150D01*
X142460405Y-82573614D01*
X142349962Y-82439038D01*
X142215386Y-82328595D01*
X142061850Y-82246528D01*
X141895254Y-82195992D01*
X141722000Y-82178928D01*
X140472000Y-82178928D01*
X140298746Y-82195992D01*
X140132150Y-82246528D01*
X139978614Y-82328595D01*
X139844038Y-82439038D01*
X139733595Y-82573614D01*
X139651528Y-82727150D01*
X139600992Y-82893746D01*
X139583928Y-83067000D01*
X139583928Y-83992000D01*
X139599550Y-84150608D01*
X139561255Y-84138992D01*
X139547726Y-84137659D01*
X139562072Y-83992000D01*
X139562072Y-83067000D01*
X139545008Y-82893746D01*
X139494472Y-82727150D01*
X139412405Y-82573614D01*
X139301962Y-82439038D01*
X139167386Y-82328595D01*
X139013850Y-82246528D01*
X138847254Y-82195992D01*
X138674000Y-82178928D01*
X137424000Y-82178928D01*
X137250746Y-82195992D01*
X137084150Y-82246528D01*
X136930614Y-82328595D01*
X136796038Y-82439038D01*
X136685595Y-82573614D01*
X136603528Y-82727150D01*
X136588500Y-82776691D01*
X136573472Y-82727150D01*
X136491405Y-82573614D01*
X136380962Y-82439038D01*
X136246386Y-82328595D01*
X136092850Y-82246528D01*
X135926254Y-82195992D01*
X135753000Y-82178928D01*
X134503000Y-82178928D01*
X134329746Y-82195992D01*
X134163150Y-82246528D01*
X134009614Y-82328595D01*
X133875038Y-82439038D01*
X133764595Y-82573614D01*
X133682528Y-82727150D01*
X133631992Y-82893746D01*
X133614928Y-83067000D01*
X133614928Y-83992000D01*
X133631992Y-84165254D01*
X133682528Y-84331850D01*
X133764595Y-84485386D01*
X133858550Y-84599871D01*
X133805576Y-84652845D01*
X133708723Y-84797795D01*
X133642010Y-84958855D01*
X133608000Y-85129835D01*
X109049602Y-85129835D01*
X109258618Y-84990175D01*
X109521175Y-84727618D01*
X109727466Y-84418882D01*
X109869561Y-84075834D01*
X109942000Y-83711656D01*
X109942000Y-83340344D01*
X109869561Y-82976166D01*
X109727466Y-82633118D01*
X109521175Y-82324382D01*
X109358794Y-82162001D01*
X120108547Y-82162001D01*
X120156745Y-82194206D01*
X120345103Y-82272227D01*
X120545062Y-82312001D01*
X120748940Y-82312001D01*
X120948899Y-82272227D01*
X121137257Y-82194206D01*
X121306775Y-82080938D01*
X121450938Y-81936775D01*
X121564206Y-81767257D01*
X121642227Y-81578899D01*
X121682001Y-81378940D01*
X121682001Y-81175062D01*
X121642227Y-80975103D01*
X121564206Y-80786745D01*
X121450938Y-80617227D01*
X121306775Y-80473064D01*
X121137257Y-80359796D01*
X120948899Y-80281775D01*
X120748940Y-80242001D01*
X120545062Y-80242001D01*
X120345103Y-80281775D01*
X120156745Y-80359796D01*
X120108547Y-80392001D01*
X112620098Y-80392001D01*
X112635000Y-80317084D01*
X112635000Y-80066916D01*
X128095000Y-80066916D01*
X128095000Y-80317084D01*
X128143805Y-80562445D01*
X128239541Y-80793571D01*
X128378527Y-81001578D01*
X128555422Y-81178473D01*
X128763429Y-81317459D01*
X128994555Y-81413195D01*
X129239916Y-81462000D01*
X129490084Y-81462000D01*
X129735445Y-81413195D01*
X129966571Y-81317459D01*
X130174578Y-81178473D01*
X130351473Y-81001578D01*
X130490459Y-80793571D01*
X130586195Y-80562445D01*
X130635000Y-80317084D01*
X130635000Y-80066916D01*
X130796000Y-80066916D01*
X130796000Y-80317084D01*
X130844805Y-80562445D01*
X130940541Y-80793571D01*
X131079527Y-81001578D01*
X131256422Y-81178473D01*
X131464429Y-81317459D01*
X131695555Y-81413195D01*
X131940916Y-81462000D01*
X132191084Y-81462000D01*
X132436445Y-81413195D01*
X132667571Y-81317459D01*
X132743088Y-81267000D01*
X133614928Y-81267000D01*
X133627188Y-81391482D01*
X133663498Y-81511180D01*
X133722463Y-81621494D01*
X133801815Y-81718185D01*
X133898506Y-81797537D01*
X134008820Y-81856502D01*
X134128518Y-81892812D01*
X134253000Y-81905072D01*
X134842250Y-81902000D01*
X135001000Y-81743250D01*
X135001000Y-80681500D01*
X135255000Y-80681500D01*
X135255000Y-81743250D01*
X135413750Y-81902000D01*
X136003000Y-81905072D01*
X136127482Y-81892812D01*
X136247180Y-81856502D01*
X136357494Y-81797537D01*
X136454185Y-81718185D01*
X136533537Y-81621494D01*
X136588500Y-81518667D01*
X136643463Y-81621494D01*
X136722815Y-81718185D01*
X136819506Y-81797537D01*
X136929820Y-81856502D01*
X137049518Y-81892812D01*
X137174000Y-81905072D01*
X137763250Y-81902000D01*
X137922000Y-81743250D01*
X137922000Y-80681500D01*
X138176000Y-80681500D01*
X138176000Y-81743250D01*
X138334750Y-81902000D01*
X138924000Y-81905072D01*
X139048482Y-81892812D01*
X139168180Y-81856502D01*
X139278494Y-81797537D01*
X139375185Y-81718185D01*
X139454537Y-81621494D01*
X139513502Y-81511180D01*
X139549812Y-81391482D01*
X139562072Y-81267000D01*
X139583928Y-81267000D01*
X139596188Y-81391482D01*
X139632498Y-81511180D01*
X139691463Y-81621494D01*
X139770815Y-81718185D01*
X139867506Y-81797537D01*
X139977820Y-81856502D01*
X140097518Y-81892812D01*
X140222000Y-81905072D01*
X140811250Y-81902000D01*
X140970000Y-81743250D01*
X140970000Y-80681500D01*
X141224000Y-80681500D01*
X141224000Y-81743250D01*
X141382750Y-81902000D01*
X141972000Y-81905072D01*
X142096482Y-81892812D01*
X142216180Y-81856502D01*
X142326494Y-81797537D01*
X142423185Y-81718185D01*
X142502537Y-81621494D01*
X142561502Y-81511180D01*
X142597812Y-81391482D01*
X142610072Y-81267000D01*
X142631928Y-81267000D01*
X142644188Y-81391482D01*
X142680498Y-81511180D01*
X142739463Y-81621494D01*
X142818815Y-81718185D01*
X142915506Y-81797537D01*
X143025820Y-81856502D01*
X143145518Y-81892812D01*
X143270000Y-81905072D01*
X143859250Y-81902000D01*
X144018000Y-81743250D01*
X144018000Y-80681500D01*
X144272000Y-80681500D01*
X144272000Y-81743250D01*
X144430750Y-81902000D01*
X145020000Y-81905072D01*
X145144482Y-81892812D01*
X145264180Y-81856502D01*
X145374494Y-81797537D01*
X145471185Y-81718185D01*
X145550537Y-81621494D01*
X145605500Y-81518667D01*
X145660463Y-81621494D01*
X145739815Y-81718185D01*
X145836506Y-81797537D01*
X145946820Y-81856502D01*
X146066518Y-81892812D01*
X146191000Y-81905072D01*
X146780250Y-81902000D01*
X146939000Y-81743250D01*
X146939000Y-80681500D01*
X147193000Y-80681500D01*
X147193000Y-81743250D01*
X147351750Y-81902000D01*
X147941000Y-81905072D01*
X148065482Y-81892812D01*
X148185180Y-81856502D01*
X148295494Y-81797537D01*
X148392185Y-81718185D01*
X148471537Y-81621494D01*
X148530502Y-81511180D01*
X148566812Y-81391482D01*
X148579072Y-81267000D01*
X148576000Y-80840250D01*
X148417250Y-80681500D01*
X147193000Y-80681500D01*
X146939000Y-80681500D01*
X145714750Y-80681500D01*
X145605500Y-80790750D01*
X145496250Y-80681500D01*
X144272000Y-80681500D01*
X144018000Y-80681500D01*
X142793750Y-80681500D01*
X142635000Y-80840250D01*
X142631928Y-81267000D01*
X142610072Y-81267000D01*
X142607000Y-80840250D01*
X142448250Y-80681500D01*
X141224000Y-80681500D01*
X140970000Y-80681500D01*
X139745750Y-80681500D01*
X139587000Y-80840250D01*
X139583928Y-81267000D01*
X139562072Y-81267000D01*
X139559000Y-80840250D01*
X139400250Y-80681500D01*
X138176000Y-80681500D01*
X137922000Y-80681500D01*
X136697750Y-80681500D01*
X136588500Y-80790750D01*
X136479250Y-80681500D01*
X135255000Y-80681500D01*
X135001000Y-80681500D01*
X133776750Y-80681500D01*
X133618000Y-80840250D01*
X133614928Y-81267000D01*
X132743088Y-81267000D01*
X132875578Y-81178473D01*
X133052473Y-81001578D01*
X133191459Y-80793571D01*
X133287195Y-80562445D01*
X133336000Y-80317084D01*
X133336000Y-80066916D01*
X133287195Y-79821555D01*
X133191459Y-79590429D01*
X133052473Y-79382422D01*
X132875578Y-79205527D01*
X132667571Y-79066541D01*
X132436445Y-78970805D01*
X132191084Y-78922000D01*
X131940916Y-78922000D01*
X131695555Y-78970805D01*
X131464429Y-79066541D01*
X131256422Y-79205527D01*
X131079527Y-79382422D01*
X130940541Y-79590429D01*
X130844805Y-79821555D01*
X130796000Y-80066916D01*
X130635000Y-80066916D01*
X130586195Y-79821555D01*
X130490459Y-79590429D01*
X130351473Y-79382422D01*
X130174578Y-79205527D01*
X129966571Y-79066541D01*
X129735445Y-78970805D01*
X129490084Y-78922000D01*
X129239916Y-78922000D01*
X128994555Y-78970805D01*
X128763429Y-79066541D01*
X128555422Y-79205527D01*
X128378527Y-79382422D01*
X128239541Y-79590429D01*
X128143805Y-79821555D01*
X128095000Y-80066916D01*
X112635000Y-80066916D01*
X112586195Y-79821555D01*
X112490459Y-79590429D01*
X112351473Y-79382422D01*
X112174578Y-79205527D01*
X111966571Y-79066541D01*
X111735445Y-78970805D01*
X111490084Y-78922000D01*
X111239916Y-78922000D01*
X110994555Y-78970805D01*
X110763429Y-79066541D01*
X110555422Y-79205527D01*
X110378527Y-79382422D01*
X110239541Y-79590429D01*
X110143805Y-79821555D01*
X110095000Y-80066916D01*
X110095000Y-80317084D01*
X110109902Y-80392001D01*
X102852580Y-80392001D01*
X102510534Y-80049956D01*
X102482817Y-80016183D01*
X102348059Y-79905589D01*
X102194313Y-79823411D01*
X102027490Y-79772805D01*
X101897477Y-79760000D01*
X101897469Y-79760000D01*
X101854000Y-79755719D01*
X101810531Y-79760000D01*
X101737834Y-79760000D01*
X101820405Y-79659386D01*
X101902472Y-79505850D01*
X101953008Y-79339254D01*
X101970072Y-79166000D01*
X101970072Y-78241000D01*
X101953008Y-78067746D01*
X101903326Y-77903963D01*
X112980000Y-77903963D01*
X112980000Y-78560036D01*
X113000040Y-78763506D01*
X113079236Y-79024580D01*
X113207843Y-79265187D01*
X113380919Y-79476080D01*
X113591812Y-79649157D01*
X113832419Y-79777764D01*
X114093493Y-79856960D01*
X114365000Y-79883701D01*
X114636506Y-79856960D01*
X114897580Y-79777764D01*
X115138187Y-79649157D01*
X115349080Y-79476081D01*
X115522157Y-79265188D01*
X115650764Y-79024581D01*
X115729960Y-78763507D01*
X115750000Y-78560037D01*
X115750000Y-77903964D01*
X115750000Y-77903963D01*
X115980000Y-77903963D01*
X115980000Y-78560036D01*
X116000040Y-78763506D01*
X116079236Y-79024580D01*
X116207843Y-79265187D01*
X116380919Y-79476080D01*
X116591812Y-79649157D01*
X116832419Y-79777764D01*
X117093493Y-79856960D01*
X117365000Y-79883701D01*
X117636506Y-79856960D01*
X117897580Y-79777764D01*
X118138187Y-79649157D01*
X118349080Y-79476081D01*
X118522157Y-79265188D01*
X118650764Y-79024581D01*
X118729960Y-78763507D01*
X118750000Y-78560037D01*
X118750000Y-77903964D01*
X118729960Y-77700494D01*
X118650764Y-77439419D01*
X118522157Y-77198812D01*
X118349081Y-76987919D01*
X118138188Y-76814843D01*
X117897581Y-76686236D01*
X117636507Y-76607040D01*
X117365000Y-76580299D01*
X117093494Y-76607040D01*
X116832420Y-76686236D01*
X116591813Y-76814843D01*
X116380920Y-76987919D01*
X116207843Y-77198812D01*
X116079236Y-77439419D01*
X116000040Y-77700493D01*
X115980000Y-77903963D01*
X115750000Y-77903963D01*
X115729960Y-77700494D01*
X115650764Y-77439419D01*
X115522157Y-77198812D01*
X115349081Y-76987919D01*
X115138188Y-76814843D01*
X114897581Y-76686236D01*
X114636507Y-76607040D01*
X114365000Y-76580299D01*
X114093494Y-76607040D01*
X113832420Y-76686236D01*
X113591813Y-76814843D01*
X113380920Y-76987919D01*
X113207843Y-77198812D01*
X113079236Y-77439419D01*
X113000040Y-77700493D01*
X112980000Y-77903963D01*
X101903326Y-77903963D01*
X101902472Y-77901150D01*
X101820405Y-77747614D01*
X101709962Y-77613038D01*
X101575386Y-77502595D01*
X101421850Y-77420528D01*
X101255254Y-77369992D01*
X101082000Y-77352928D01*
X99832000Y-77352928D01*
X99658746Y-77369992D01*
X99492150Y-77420528D01*
X99338614Y-77502595D01*
X99204038Y-77613038D01*
X99093595Y-77747614D01*
X99011528Y-77901150D01*
X98960992Y-78067746D01*
X98943928Y-78241000D01*
X98943928Y-79166000D01*
X98960992Y-79339254D01*
X99011528Y-79505850D01*
X99093595Y-79659386D01*
X99176166Y-79760000D01*
X96411266Y-79760000D01*
X96433482Y-79757812D01*
X96553180Y-79721502D01*
X96663494Y-79662537D01*
X96760185Y-79583185D01*
X96839537Y-79486494D01*
X96898502Y-79376180D01*
X96934812Y-79256482D01*
X96947072Y-79132000D01*
X96947072Y-77332000D01*
X96934812Y-77207518D01*
X96898502Y-77087820D01*
X96865993Y-77027000D01*
X96905486Y-77027000D01*
X97163405Y-76975696D01*
X97406359Y-76875061D01*
X97625013Y-76728962D01*
X97810962Y-76543013D01*
X97957061Y-76324359D01*
X98057696Y-76081405D01*
X98109000Y-75823486D01*
X98109000Y-75560514D01*
X98057696Y-75302595D01*
X98042538Y-75266000D01*
X98943928Y-75266000D01*
X98943928Y-76191000D01*
X98960992Y-76364254D01*
X99011528Y-76530850D01*
X99093595Y-76684386D01*
X99204038Y-76818962D01*
X99338614Y-76929405D01*
X99492150Y-77011472D01*
X99658746Y-77062008D01*
X99832000Y-77079072D01*
X101082000Y-77079072D01*
X101255254Y-77062008D01*
X101421850Y-77011472D01*
X101575386Y-76929405D01*
X101709962Y-76818962D01*
X101820405Y-76684386D01*
X101902472Y-76530850D01*
X101953008Y-76364254D01*
X101970072Y-76191000D01*
X101970072Y-75640344D01*
X106172000Y-75640344D01*
X106172000Y-76011656D01*
X106244439Y-76375834D01*
X106386534Y-76718882D01*
X106592825Y-77027618D01*
X106855382Y-77290175D01*
X107164118Y-77496466D01*
X107507166Y-77638561D01*
X107871344Y-77711000D01*
X108242656Y-77711000D01*
X108606834Y-77638561D01*
X108949882Y-77496466D01*
X109258618Y-77290175D01*
X109521175Y-77027618D01*
X109727466Y-76718882D01*
X109869561Y-76375834D01*
X109942000Y-76011656D01*
X109942000Y-75640344D01*
X109869561Y-75276166D01*
X109727466Y-74933118D01*
X109521175Y-74624382D01*
X109258618Y-74361825D01*
X108949882Y-74155534D01*
X108606834Y-74013439D01*
X108242656Y-73941000D01*
X107871344Y-73941000D01*
X107507166Y-74013439D01*
X107164118Y-74155534D01*
X106855382Y-74361825D01*
X106592825Y-74624382D01*
X106386534Y-74933118D01*
X106244439Y-75276166D01*
X106172000Y-75640344D01*
X101970072Y-75640344D01*
X101970072Y-75266000D01*
X101953008Y-75092746D01*
X101902472Y-74926150D01*
X101820405Y-74772614D01*
X101709962Y-74638038D01*
X101575386Y-74527595D01*
X101421850Y-74445528D01*
X101255254Y-74394992D01*
X101217000Y-74391224D01*
X101217000Y-73466801D01*
X101639802Y-73044000D01*
X101701939Y-73044000D01*
X101901898Y-73004226D01*
X102090256Y-72926205D01*
X102259774Y-72812937D01*
X102403937Y-72668774D01*
X102517205Y-72499256D01*
X102595226Y-72310898D01*
X102635000Y-72110939D01*
X102635000Y-71907061D01*
X102595226Y-71707102D01*
X102517205Y-71518744D01*
X102403937Y-71349226D01*
X102259774Y-71205063D01*
X102090256Y-71091795D01*
X101901898Y-71013774D01*
X101701939Y-70974000D01*
X101498061Y-70974000D01*
X101298102Y-71013774D01*
X101109744Y-71091795D01*
X100940226Y-71205063D01*
X100796063Y-71349226D01*
X100682795Y-71518744D01*
X100604774Y-71707102D01*
X100565000Y-71907061D01*
X100565000Y-71969198D01*
X99945998Y-72588201D01*
X99917000Y-72611999D01*
X99893202Y-72640997D01*
X99893201Y-72640998D01*
X99822026Y-72727724D01*
X99751454Y-72859754D01*
X99707998Y-73003015D01*
X99693324Y-73152000D01*
X99697001Y-73189332D01*
X99697000Y-74391224D01*
X99658746Y-74394992D01*
X99492150Y-74445528D01*
X99338614Y-74527595D01*
X99204038Y-74638038D01*
X99093595Y-74772614D01*
X99011528Y-74926150D01*
X98960992Y-75092746D01*
X98943928Y-75266000D01*
X98042538Y-75266000D01*
X97957061Y-75059641D01*
X97810962Y-74840987D01*
X97625013Y-74655038D01*
X97406359Y-74508939D01*
X97163405Y-74408304D01*
X96905486Y-74357000D01*
X96642514Y-74357000D01*
X96384595Y-74408304D01*
X96141641Y-74508939D01*
X95922987Y-74655038D01*
X95737038Y-74840987D01*
X95590939Y-75059641D01*
X95490304Y-75302595D01*
X95439000Y-75560514D01*
X95439000Y-75627198D01*
X94547998Y-76518201D01*
X94519000Y-76541999D01*
X94495202Y-76570997D01*
X94495201Y-76570998D01*
X94424026Y-76657724D01*
X94404674Y-76693928D01*
X93809000Y-76693928D01*
X93684518Y-76706188D01*
X93564820Y-76742498D01*
X93454506Y-76801463D01*
X93357815Y-76880815D01*
X93278463Y-76977506D01*
X93219498Y-77087820D01*
X93183188Y-77207518D01*
X93170928Y-77332000D01*
X93170928Y-79132000D01*
X93183188Y-79256482D01*
X93219498Y-79376180D01*
X93278463Y-79486494D01*
X93357815Y-79583185D01*
X93454506Y-79662537D01*
X93564820Y-79721502D01*
X93684518Y-79757812D01*
X93706734Y-79760000D01*
X92411266Y-79760000D01*
X92433482Y-79757812D01*
X92553180Y-79721502D01*
X92663494Y-79662537D01*
X92760185Y-79583185D01*
X92839537Y-79486494D01*
X92898502Y-79376180D01*
X92934812Y-79256482D01*
X92947072Y-79132000D01*
X92947072Y-77332000D01*
X92934812Y-77207518D01*
X92898502Y-77087820D01*
X92839537Y-76977506D01*
X92760185Y-76880815D01*
X92663494Y-76801463D01*
X92553180Y-76742498D01*
X92433482Y-76706188D01*
X92309000Y-76693928D01*
X90412635Y-76693928D01*
X90443502Y-76636180D01*
X90479812Y-76516482D01*
X90492072Y-76392000D01*
X90492072Y-74992000D01*
X90479812Y-74867518D01*
X90443502Y-74747820D01*
X90384537Y-74637506D01*
X90305185Y-74540815D01*
X90208494Y-74461463D01*
X90098180Y-74402498D01*
X89978482Y-74366188D01*
X89854000Y-74353928D01*
X88454000Y-74353928D01*
X88329518Y-74366188D01*
X88209820Y-74402498D01*
X88099506Y-74461463D01*
X88002815Y-74540815D01*
X87923463Y-74637506D01*
X87864498Y-74747820D01*
X87828188Y-74867518D01*
X87815928Y-74992000D01*
X87815928Y-76392000D01*
X87828188Y-76516482D01*
X87864498Y-76636180D01*
X87923463Y-76746494D01*
X87977316Y-76812114D01*
X87954470Y-76839951D01*
X87790000Y-77004421D01*
X87790000Y-69390278D01*
X87814748Y-69137872D01*
X88451000Y-69137872D01*
X88451000Y-69578128D01*
X88536890Y-70009925D01*
X88705369Y-70416669D01*
X88949962Y-70782729D01*
X89261271Y-71094038D01*
X89627331Y-71338631D01*
X90034075Y-71507110D01*
X90465872Y-71593000D01*
X90906128Y-71593000D01*
X91337925Y-71507110D01*
X91744669Y-71338631D01*
X92110729Y-71094038D01*
X92422038Y-70782729D01*
X92666631Y-70416669D01*
X92674432Y-70397835D01*
X114939000Y-70397835D01*
X114939000Y-70572165D01*
X114973010Y-70743145D01*
X115039723Y-70904205D01*
X115136576Y-71049155D01*
X115259845Y-71172424D01*
X115404795Y-71269277D01*
X115565855Y-71335990D01*
X115608714Y-71344515D01*
X121011124Y-76746926D01*
X120897581Y-76686236D01*
X120636507Y-76607040D01*
X120365000Y-76580299D01*
X120093494Y-76607040D01*
X119832420Y-76686236D01*
X119591813Y-76814843D01*
X119380920Y-76987919D01*
X119207843Y-77198812D01*
X119079236Y-77439419D01*
X119000040Y-77700493D01*
X118980000Y-77903963D01*
X118980000Y-78560036D01*
X119000040Y-78763506D01*
X119079236Y-79024580D01*
X119207843Y-79265187D01*
X119380919Y-79476080D01*
X119591812Y-79649157D01*
X119832419Y-79777764D01*
X120093493Y-79856960D01*
X120365000Y-79883701D01*
X120636506Y-79856960D01*
X120897580Y-79777764D01*
X121138187Y-79649157D01*
X121349080Y-79476081D01*
X121522157Y-79265188D01*
X121650764Y-79024581D01*
X121729960Y-78763507D01*
X121750000Y-78560037D01*
X121750000Y-77903964D01*
X121729960Y-77700494D01*
X121650764Y-77439419D01*
X121590074Y-77325876D01*
X121632243Y-77368045D01*
X121656042Y-77397044D01*
X121771767Y-77492017D01*
X121903796Y-77562589D01*
X122030238Y-77600944D01*
X122000040Y-77700493D01*
X121980000Y-77903963D01*
X121980000Y-78560036D01*
X122000040Y-78763506D01*
X122079236Y-79024580D01*
X122207843Y-79265187D01*
X122380919Y-79476080D01*
X122591812Y-79649157D01*
X122832419Y-79777764D01*
X123093493Y-79856960D01*
X123365000Y-79883701D01*
X123636506Y-79856960D01*
X123897580Y-79777764D01*
X124138187Y-79649157D01*
X124349080Y-79476081D01*
X124522157Y-79265188D01*
X124650764Y-79024581D01*
X124729960Y-78763507D01*
X124750000Y-78560037D01*
X124750000Y-77903964D01*
X124729960Y-77700494D01*
X124704645Y-77617043D01*
X124976928Y-77617043D01*
X124976928Y-78992000D01*
X124993992Y-79165254D01*
X125044528Y-79331850D01*
X125126595Y-79485386D01*
X125237038Y-79619962D01*
X125371614Y-79730405D01*
X125525150Y-79812472D01*
X125691746Y-79863008D01*
X125865000Y-79880072D01*
X126865000Y-79880072D01*
X127038254Y-79863008D01*
X127204850Y-79812472D01*
X127358386Y-79730405D01*
X127492962Y-79619962D01*
X127603405Y-79485386D01*
X127685472Y-79331850D01*
X127736008Y-79165254D01*
X127753072Y-78992000D01*
X127753072Y-77617043D01*
X133692242Y-77617043D01*
X133718415Y-77643216D01*
X133701040Y-77700493D01*
X133681000Y-77903963D01*
X133681000Y-78560036D01*
X133701040Y-78763506D01*
X133780236Y-79024580D01*
X133908843Y-79265187D01*
X133932089Y-79293512D01*
X133898506Y-79311463D01*
X133801815Y-79390815D01*
X133722463Y-79487506D01*
X133663498Y-79597820D01*
X133627188Y-79717518D01*
X133614928Y-79842000D01*
X133618000Y-80268750D01*
X133776750Y-80427500D01*
X135001000Y-80427500D01*
X135001000Y-80407500D01*
X135255000Y-80407500D01*
X135255000Y-80427500D01*
X136479250Y-80427500D01*
X136588500Y-80318250D01*
X136697750Y-80427500D01*
X137922000Y-80427500D01*
X137922000Y-80407500D01*
X138176000Y-80407500D01*
X138176000Y-80427500D01*
X139400250Y-80427500D01*
X139559000Y-80268750D01*
X139562072Y-79842000D01*
X139549812Y-79717518D01*
X139513502Y-79597820D01*
X139454537Y-79487506D01*
X139375185Y-79390815D01*
X139278494Y-79311463D01*
X139213633Y-79276793D01*
X139223157Y-79265188D01*
X139351764Y-79024581D01*
X139430960Y-78763507D01*
X139439186Y-78679988D01*
X139502201Y-78743003D01*
X139525999Y-78772001D01*
X139641724Y-78866974D01*
X139749980Y-78924839D01*
X139780236Y-79024580D01*
X139908843Y-79265187D01*
X139922637Y-79281995D01*
X139867506Y-79311463D01*
X139770815Y-79390815D01*
X139691463Y-79487506D01*
X139632498Y-79597820D01*
X139596188Y-79717518D01*
X139583928Y-79842000D01*
X139587000Y-80268750D01*
X139745750Y-80427500D01*
X140970000Y-80427500D01*
X140970000Y-80407500D01*
X141224000Y-80407500D01*
X141224000Y-80427500D01*
X142448250Y-80427500D01*
X142607000Y-80268750D01*
X142610072Y-79842000D01*
X142597812Y-79717518D01*
X142561502Y-79597820D01*
X142502537Y-79487506D01*
X142423185Y-79390815D01*
X142326494Y-79311463D01*
X142226882Y-79258219D01*
X142351764Y-79024581D01*
X142430960Y-78763507D01*
X142439186Y-78679989D01*
X142502205Y-78743008D01*
X142525999Y-78772001D01*
X142554992Y-78795795D01*
X142554996Y-78795799D01*
X142572966Y-78810546D01*
X142641724Y-78866974D01*
X142749980Y-78924839D01*
X142780236Y-79024580D01*
X142908843Y-79265187D01*
X142937273Y-79299828D01*
X142915506Y-79311463D01*
X142818815Y-79390815D01*
X142739463Y-79487506D01*
X142680498Y-79597820D01*
X142644188Y-79717518D01*
X142631928Y-79842000D01*
X142635000Y-80268750D01*
X142793750Y-80427500D01*
X144018000Y-80427500D01*
X144018000Y-80407500D01*
X144272000Y-80407500D01*
X144272000Y-80427500D01*
X145496250Y-80427500D01*
X145605500Y-80318250D01*
X145714750Y-80427500D01*
X146939000Y-80427500D01*
X146939000Y-80407500D01*
X147193000Y-80407500D01*
X147193000Y-80427500D01*
X148417250Y-80427500D01*
X148576000Y-80268750D01*
X148577452Y-80066916D01*
X148796000Y-80066916D01*
X148796000Y-80317084D01*
X148844805Y-80562445D01*
X148940541Y-80793571D01*
X149079527Y-81001578D01*
X149256422Y-81178473D01*
X149464429Y-81317459D01*
X149695555Y-81413195D01*
X149940916Y-81462000D01*
X150191084Y-81462000D01*
X150436445Y-81413195D01*
X150667571Y-81317459D01*
X150875578Y-81178473D01*
X151052473Y-81001578D01*
X151191459Y-80793571D01*
X151287195Y-80562445D01*
X151336000Y-80317084D01*
X151336000Y-80066916D01*
X151287195Y-79821555D01*
X151191459Y-79590429D01*
X151052473Y-79382422D01*
X150875578Y-79205527D01*
X150667571Y-79066541D01*
X150436445Y-78970805D01*
X150191084Y-78922000D01*
X149940916Y-78922000D01*
X149695555Y-78970805D01*
X149464429Y-79066541D01*
X149256422Y-79205527D01*
X149079527Y-79382422D01*
X148940541Y-79590429D01*
X148844805Y-79821555D01*
X148796000Y-80066916D01*
X148577452Y-80066916D01*
X148579072Y-79842000D01*
X148566812Y-79717518D01*
X148530502Y-79597820D01*
X148471537Y-79487506D01*
X148392185Y-79390815D01*
X148366306Y-79369577D01*
X148386472Y-79331850D01*
X148437008Y-79165254D01*
X148454072Y-78992000D01*
X148454072Y-77472000D01*
X148437008Y-77298746D01*
X148386472Y-77132150D01*
X148304405Y-76978614D01*
X148193962Y-76844038D01*
X148059386Y-76733595D01*
X147905850Y-76651528D01*
X147739254Y-76600992D01*
X147566000Y-76583928D01*
X146619730Y-76583928D01*
X144720576Y-74684775D01*
X144796518Y-74707812D01*
X144921000Y-74720072D01*
X145510250Y-74717000D01*
X145669000Y-74558250D01*
X145669000Y-73496500D01*
X145923000Y-73496500D01*
X145923000Y-74558250D01*
X146081750Y-74717000D01*
X146671000Y-74720072D01*
X146795482Y-74707812D01*
X146915180Y-74671502D01*
X147025494Y-74612537D01*
X147122185Y-74533185D01*
X147201537Y-74436494D01*
X147260502Y-74326180D01*
X147296812Y-74206482D01*
X147309072Y-74082000D01*
X147306000Y-73655250D01*
X147147250Y-73496500D01*
X145923000Y-73496500D01*
X145669000Y-73496500D01*
X144444750Y-73496500D01*
X144286000Y-73655250D01*
X144282928Y-74082000D01*
X144295188Y-74206482D01*
X144331498Y-74326180D01*
X144358911Y-74377466D01*
X144310247Y-74351454D01*
X144213718Y-74322173D01*
X144248812Y-74206482D01*
X144261072Y-74082000D01*
X144258000Y-73655250D01*
X144099250Y-73496500D01*
X142875000Y-73496500D01*
X142875000Y-73516500D01*
X142621000Y-73516500D01*
X142621000Y-73496500D01*
X141396750Y-73496500D01*
X141238000Y-73655250D01*
X141234928Y-74082000D01*
X141247188Y-74206482D01*
X141274646Y-74297000D01*
X141173354Y-74297000D01*
X141200812Y-74206482D01*
X141213072Y-74082000D01*
X141210000Y-73655250D01*
X141051250Y-73496500D01*
X139827000Y-73496500D01*
X139827000Y-73516500D01*
X139573000Y-73516500D01*
X139573000Y-73496500D01*
X138348750Y-73496500D01*
X138190000Y-73655250D01*
X138186928Y-74082000D01*
X138199188Y-74206482D01*
X138226646Y-74297000D01*
X138125354Y-74297000D01*
X138152812Y-74206482D01*
X138165072Y-74082000D01*
X138162000Y-73655250D01*
X138003250Y-73496500D01*
X136779000Y-73496500D01*
X136779000Y-73516500D01*
X136525000Y-73516500D01*
X136525000Y-73496500D01*
X135300750Y-73496500D01*
X135191500Y-73605750D01*
X135082250Y-73496500D01*
X133858000Y-73496500D01*
X133858000Y-73516500D01*
X133604000Y-73516500D01*
X133604000Y-73496500D01*
X132379750Y-73496500D01*
X132354302Y-73521948D01*
X131489354Y-72657000D01*
X132217928Y-72657000D01*
X132221000Y-73083750D01*
X132379750Y-73242500D01*
X133604000Y-73242500D01*
X133604000Y-72180750D01*
X133858000Y-72180750D01*
X133858000Y-73242500D01*
X135082250Y-73242500D01*
X135191500Y-73133250D01*
X135300750Y-73242500D01*
X136525000Y-73242500D01*
X136525000Y-72180750D01*
X136779000Y-72180750D01*
X136779000Y-73242500D01*
X138003250Y-73242500D01*
X138162000Y-73083750D01*
X138165072Y-72657000D01*
X138186928Y-72657000D01*
X138190000Y-73083750D01*
X138348750Y-73242500D01*
X139573000Y-73242500D01*
X139573000Y-72180750D01*
X139827000Y-72180750D01*
X139827000Y-73242500D01*
X141051250Y-73242500D01*
X141210000Y-73083750D01*
X141213072Y-72657000D01*
X141234928Y-72657000D01*
X141238000Y-73083750D01*
X141396750Y-73242500D01*
X142621000Y-73242500D01*
X142621000Y-72180750D01*
X142875000Y-72180750D01*
X142875000Y-73242500D01*
X144099250Y-73242500D01*
X144258000Y-73083750D01*
X144261072Y-72657000D01*
X144282928Y-72657000D01*
X144286000Y-73083750D01*
X144444750Y-73242500D01*
X145669000Y-73242500D01*
X145669000Y-72180750D01*
X145923000Y-72180750D01*
X145923000Y-73242500D01*
X147147250Y-73242500D01*
X147306000Y-73083750D01*
X147309072Y-72657000D01*
X147296812Y-72532518D01*
X147260502Y-72412820D01*
X147201537Y-72302506D01*
X147122185Y-72205815D01*
X147025494Y-72126463D01*
X146915180Y-72067498D01*
X146795482Y-72031188D01*
X146671000Y-72018928D01*
X146081750Y-72022000D01*
X145923000Y-72180750D01*
X145669000Y-72180750D01*
X145510250Y-72022000D01*
X144921000Y-72018928D01*
X144796518Y-72031188D01*
X144676820Y-72067498D01*
X144566506Y-72126463D01*
X144469815Y-72205815D01*
X144390463Y-72302506D01*
X144331498Y-72412820D01*
X144295188Y-72532518D01*
X144282928Y-72657000D01*
X144261072Y-72657000D01*
X144248812Y-72532518D01*
X144212502Y-72412820D01*
X144153537Y-72302506D01*
X144074185Y-72205815D01*
X143977494Y-72126463D01*
X143867180Y-72067498D01*
X143747482Y-72031188D01*
X143623000Y-72018928D01*
X143033750Y-72022000D01*
X142875000Y-72180750D01*
X142621000Y-72180750D01*
X142462250Y-72022000D01*
X141873000Y-72018928D01*
X141748518Y-72031188D01*
X141628820Y-72067498D01*
X141518506Y-72126463D01*
X141421815Y-72205815D01*
X141342463Y-72302506D01*
X141283498Y-72412820D01*
X141247188Y-72532518D01*
X141234928Y-72657000D01*
X141213072Y-72657000D01*
X141200812Y-72532518D01*
X141164502Y-72412820D01*
X141105537Y-72302506D01*
X141026185Y-72205815D01*
X140929494Y-72126463D01*
X140819180Y-72067498D01*
X140699482Y-72031188D01*
X140575000Y-72018928D01*
X139985750Y-72022000D01*
X139827000Y-72180750D01*
X139573000Y-72180750D01*
X139414250Y-72022000D01*
X138825000Y-72018928D01*
X138700518Y-72031188D01*
X138580820Y-72067498D01*
X138470506Y-72126463D01*
X138373815Y-72205815D01*
X138294463Y-72302506D01*
X138235498Y-72412820D01*
X138199188Y-72532518D01*
X138186928Y-72657000D01*
X138165072Y-72657000D01*
X138152812Y-72532518D01*
X138116502Y-72412820D01*
X138057537Y-72302506D01*
X137978185Y-72205815D01*
X137881494Y-72126463D01*
X137771180Y-72067498D01*
X137651482Y-72031188D01*
X137527000Y-72018928D01*
X136937750Y-72022000D01*
X136779000Y-72180750D01*
X136525000Y-72180750D01*
X136366250Y-72022000D01*
X135777000Y-72018928D01*
X135652518Y-72031188D01*
X135532820Y-72067498D01*
X135422506Y-72126463D01*
X135325815Y-72205815D01*
X135246463Y-72302506D01*
X135191500Y-72405333D01*
X135136537Y-72302506D01*
X135057185Y-72205815D01*
X134960494Y-72126463D01*
X134850180Y-72067498D01*
X134730482Y-72031188D01*
X134606000Y-72018928D01*
X134016750Y-72022000D01*
X133858000Y-72180750D01*
X133604000Y-72180750D01*
X133445250Y-72022000D01*
X132856000Y-72018928D01*
X132731518Y-72031188D01*
X132611820Y-72067498D01*
X132501506Y-72126463D01*
X132404815Y-72205815D01*
X132325463Y-72302506D01*
X132266498Y-72412820D01*
X132230188Y-72532518D01*
X132217928Y-72657000D01*
X131489354Y-72657000D01*
X128933357Y-70101003D01*
X128909554Y-70071999D01*
X128793829Y-69977026D01*
X128709593Y-69932000D01*
X132217928Y-69932000D01*
X132217928Y-70857000D01*
X132234992Y-71030254D01*
X132285528Y-71196850D01*
X132367595Y-71350386D01*
X132478038Y-71484962D01*
X132612614Y-71595405D01*
X132766150Y-71677472D01*
X132932746Y-71728008D01*
X133106000Y-71745072D01*
X134356000Y-71745072D01*
X134529254Y-71728008D01*
X134695850Y-71677472D01*
X134849386Y-71595405D01*
X134983962Y-71484962D01*
X135094405Y-71350386D01*
X135176472Y-71196850D01*
X135191500Y-71147309D01*
X135206528Y-71196850D01*
X135288595Y-71350386D01*
X135399038Y-71484962D01*
X135533614Y-71595405D01*
X135687150Y-71677472D01*
X135853746Y-71728008D01*
X136027000Y-71745072D01*
X137277000Y-71745072D01*
X137450254Y-71728008D01*
X137616850Y-71677472D01*
X137770386Y-71595405D01*
X137904962Y-71484962D01*
X138015405Y-71350386D01*
X138097472Y-71196850D01*
X138148008Y-71030254D01*
X138152389Y-70985773D01*
X138198704Y-70976560D01*
X138203992Y-71030254D01*
X138254528Y-71196850D01*
X138336595Y-71350386D01*
X138447038Y-71484962D01*
X138581614Y-71595405D01*
X138735150Y-71677472D01*
X138901746Y-71728008D01*
X139075000Y-71745072D01*
X140325000Y-71745072D01*
X140498254Y-71728008D01*
X140664850Y-71677472D01*
X140818386Y-71595405D01*
X140952962Y-71484962D01*
X141063405Y-71350386D01*
X141145472Y-71196850D01*
X141196008Y-71030254D01*
X141200389Y-70985773D01*
X141246704Y-70976560D01*
X141251992Y-71030254D01*
X141302528Y-71196850D01*
X141384595Y-71350386D01*
X141495038Y-71484962D01*
X141629614Y-71595405D01*
X141783150Y-71677472D01*
X141949746Y-71728008D01*
X142123000Y-71745072D01*
X143373000Y-71745072D01*
X143546254Y-71728008D01*
X143712850Y-71677472D01*
X143866386Y-71595405D01*
X144000962Y-71484962D01*
X144111405Y-71350386D01*
X144193472Y-71196850D01*
X144244008Y-71030254D01*
X144248389Y-70985773D01*
X144294704Y-70976560D01*
X144299992Y-71030254D01*
X144350528Y-71196850D01*
X144432595Y-71350386D01*
X144543038Y-71484962D01*
X144677614Y-71595405D01*
X144831150Y-71677472D01*
X144997746Y-71728008D01*
X145171000Y-71745072D01*
X146421000Y-71745072D01*
X146594254Y-71728008D01*
X146760850Y-71677472D01*
X146914386Y-71595405D01*
X147048962Y-71484962D01*
X147159405Y-71350386D01*
X147241472Y-71196850D01*
X147292008Y-71030254D01*
X147309072Y-70857000D01*
X147309072Y-69932000D01*
X147292008Y-69758746D01*
X147241472Y-69592150D01*
X147159405Y-69438614D01*
X147048962Y-69304038D01*
X146914386Y-69193595D01*
X146810136Y-69137872D01*
X148451000Y-69137872D01*
X148451000Y-69578128D01*
X148536890Y-70009925D01*
X148705369Y-70416669D01*
X148949962Y-70782729D01*
X149261271Y-71094038D01*
X149627331Y-71338631D01*
X150034075Y-71507110D01*
X150465872Y-71593000D01*
X150906128Y-71593000D01*
X151337925Y-71507110D01*
X151744669Y-71338631D01*
X152110729Y-71094038D01*
X152422038Y-70782729D01*
X152666631Y-70416669D01*
X152835110Y-70009925D01*
X152921000Y-69578128D01*
X152921000Y-69137872D01*
X152835110Y-68706075D01*
X152666631Y-68299331D01*
X152422038Y-67933271D01*
X152110729Y-67621962D01*
X151744669Y-67377369D01*
X151337925Y-67208890D01*
X150906128Y-67123000D01*
X150465872Y-67123000D01*
X150034075Y-67208890D01*
X149627331Y-67377369D01*
X149261271Y-67621962D01*
X148949962Y-67933271D01*
X148705369Y-68299331D01*
X148536890Y-68706075D01*
X148451000Y-69137872D01*
X146810136Y-69137872D01*
X146760850Y-69111528D01*
X146618000Y-69068195D01*
X146618000Y-69044835D01*
X146583990Y-68873855D01*
X146517277Y-68712795D01*
X146420424Y-68567845D01*
X146297155Y-68444576D01*
X146152205Y-68347723D01*
X145991145Y-68281010D01*
X145820165Y-68247000D01*
X145645835Y-68247000D01*
X145474855Y-68281010D01*
X145313795Y-68347723D01*
X145168845Y-68444576D01*
X145045576Y-68567845D01*
X144948723Y-68712795D01*
X144882010Y-68873855D01*
X144848000Y-69044835D01*
X144848000Y-69106417D01*
X144831150Y-69111528D01*
X144677614Y-69193595D01*
X144543038Y-69304038D01*
X144538801Y-69309200D01*
X144403145Y-69253010D01*
X144232165Y-69219000D01*
X144057835Y-69219000D01*
X143928653Y-69244696D01*
X143866386Y-69193595D01*
X143712850Y-69111528D01*
X143546254Y-69060992D01*
X143373000Y-69043928D01*
X142123000Y-69043928D01*
X141949746Y-69060992D01*
X141783150Y-69111528D01*
X141629614Y-69193595D01*
X141495038Y-69304038D01*
X141490801Y-69309200D01*
X141355145Y-69253010D01*
X141184165Y-69219000D01*
X141009835Y-69219000D01*
X140880653Y-69244696D01*
X140818386Y-69193595D01*
X140664850Y-69111528D01*
X140498254Y-69060992D01*
X140325000Y-69043928D01*
X139075000Y-69043928D01*
X138901746Y-69060992D01*
X138735150Y-69111528D01*
X138581614Y-69193595D01*
X138447038Y-69304038D01*
X138442801Y-69309200D01*
X138307145Y-69253010D01*
X138136165Y-69219000D01*
X137961835Y-69219000D01*
X137832653Y-69244696D01*
X137770386Y-69193595D01*
X137616850Y-69111528D01*
X137450254Y-69060992D01*
X137277000Y-69043928D01*
X136027000Y-69043928D01*
X135853746Y-69060992D01*
X135687150Y-69111528D01*
X135533614Y-69193595D01*
X135436035Y-69273675D01*
X135386145Y-69253010D01*
X135215165Y-69219000D01*
X135040835Y-69219000D01*
X134911653Y-69244696D01*
X134849386Y-69193595D01*
X134695850Y-69111528D01*
X134529254Y-69060992D01*
X134356000Y-69043928D01*
X133106000Y-69043928D01*
X132932746Y-69060992D01*
X132766150Y-69111528D01*
X132612614Y-69193595D01*
X132478038Y-69304038D01*
X132367595Y-69438614D01*
X132285528Y-69592150D01*
X132234992Y-69758746D01*
X132217928Y-69932000D01*
X128709593Y-69932000D01*
X128661800Y-69906454D01*
X128518539Y-69862997D01*
X128482715Y-69859469D01*
X128435205Y-69827723D01*
X128274145Y-69761010D01*
X128103165Y-69727000D01*
X127928835Y-69727000D01*
X127757855Y-69761010D01*
X127596795Y-69827723D01*
X127451845Y-69924576D01*
X127328576Y-70047845D01*
X127231723Y-70192795D01*
X127165010Y-70353855D01*
X127131000Y-70524835D01*
X127131000Y-70699165D01*
X127165010Y-70870145D01*
X127231723Y-71031205D01*
X127328576Y-71176155D01*
X127451845Y-71299424D01*
X127596795Y-71396277D01*
X127757855Y-71462990D01*
X127928835Y-71497000D01*
X128103165Y-71497000D01*
X128167045Y-71484293D01*
X131429762Y-74747011D01*
X130304813Y-74747011D01*
X125827515Y-70269714D01*
X125818990Y-70226855D01*
X125752277Y-70065795D01*
X125655424Y-69920845D01*
X125532155Y-69797576D01*
X125387205Y-69700723D01*
X125226145Y-69634010D01*
X125055165Y-69600000D01*
X124880835Y-69600000D01*
X124709855Y-69634010D01*
X124548795Y-69700723D01*
X124403845Y-69797576D01*
X124280576Y-69920845D01*
X124183723Y-70065795D01*
X124117010Y-70226855D01*
X124083000Y-70397835D01*
X124083000Y-70572165D01*
X124117010Y-70743145D01*
X124183723Y-70904205D01*
X124280576Y-71049155D01*
X124403845Y-71172424D01*
X124548795Y-71269277D01*
X124709855Y-71335990D01*
X124752714Y-71344515D01*
X128605220Y-75197022D01*
X127706824Y-75197022D01*
X122779515Y-70269714D01*
X122770990Y-70226855D01*
X122704277Y-70065795D01*
X122607424Y-69920845D01*
X122484155Y-69797576D01*
X122339205Y-69700723D01*
X122178145Y-69634010D01*
X122007165Y-69600000D01*
X121832835Y-69600000D01*
X121661855Y-69634010D01*
X121500795Y-69700723D01*
X121355845Y-69797576D01*
X121232576Y-69920845D01*
X121135723Y-70065795D01*
X121069010Y-70226855D01*
X121035000Y-70397835D01*
X121035000Y-70572165D01*
X121069010Y-70743145D01*
X121135723Y-70904205D01*
X121232576Y-71049155D01*
X121355845Y-71172424D01*
X121500795Y-71269277D01*
X121661855Y-71335990D01*
X121704714Y-71344515D01*
X126007231Y-75647033D01*
X125108836Y-75647033D01*
X119731515Y-70269714D01*
X119722990Y-70226855D01*
X119656277Y-70065795D01*
X119559424Y-69920845D01*
X119436155Y-69797576D01*
X119291205Y-69700723D01*
X119130145Y-69634010D01*
X118959165Y-69600000D01*
X118784835Y-69600000D01*
X118613855Y-69634010D01*
X118452795Y-69700723D01*
X118307845Y-69797576D01*
X118184576Y-69920845D01*
X118087723Y-70065795D01*
X118021010Y-70226855D01*
X117987000Y-70397835D01*
X117987000Y-70572165D01*
X118021010Y-70743145D01*
X118087723Y-70904205D01*
X118184576Y-71049155D01*
X118307845Y-71172424D01*
X118452795Y-71269277D01*
X118613855Y-71335990D01*
X118656714Y-71344515D01*
X123409240Y-76097043D01*
X122510845Y-76097043D01*
X116683515Y-70269714D01*
X116674990Y-70226855D01*
X116608277Y-70065795D01*
X116511424Y-69920845D01*
X116388155Y-69797576D01*
X116243205Y-69700723D01*
X116082145Y-69634010D01*
X115911165Y-69600000D01*
X115736835Y-69600000D01*
X115565855Y-69634010D01*
X115404795Y-69700723D01*
X115259845Y-69797576D01*
X115136576Y-69920845D01*
X115039723Y-70065795D01*
X114973010Y-70226855D01*
X114939000Y-70397835D01*
X92674432Y-70397835D01*
X92835110Y-70009925D01*
X92921000Y-69578128D01*
X92921000Y-69137872D01*
X92835110Y-68706075D01*
X92666631Y-68299331D01*
X92422038Y-67933271D01*
X92110729Y-67621962D01*
X91744669Y-67377369D01*
X91337925Y-67208890D01*
X90906128Y-67123000D01*
X90465872Y-67123000D01*
X90034075Y-67208890D01*
X89627331Y-67377369D01*
X89261271Y-67621962D01*
X88949962Y-67933271D01*
X88705369Y-68299331D01*
X88536890Y-68706075D01*
X88451000Y-69137872D01*
X87814748Y-69137872D01*
X87848258Y-68796114D01*
X88011442Y-68255624D01*
X88276494Y-67757133D01*
X88633326Y-67319612D01*
X89068350Y-66959729D01*
X89564983Y-66691201D01*
X90104315Y-66524251D01*
X90696596Y-66462000D01*
X150653722Y-66462000D01*
X151247886Y-66520258D01*
G37*
X151247886Y-66520258D02*
X151788376Y-66683442D01*
X152286867Y-66948494D01*
X152724388Y-67305326D01*
X153084271Y-67740350D01*
X153352799Y-68236983D01*
X153519749Y-68776315D01*
X153582000Y-69368596D01*
X153582001Y-99325712D01*
X153523742Y-99919886D01*
X153360559Y-100460374D01*
X153095506Y-100958867D01*
X152738669Y-101396393D01*
X152303653Y-101756269D01*
X151807019Y-102024798D01*
X151267690Y-102191749D01*
X150675404Y-102254000D01*
X90718278Y-102254000D01*
X90124114Y-102195742D01*
X89583626Y-102032559D01*
X89085133Y-101767506D01*
X88647607Y-101410669D01*
X88287731Y-100975653D01*
X88019202Y-100479019D01*
X87852251Y-99939690D01*
X87790000Y-99347404D01*
X87790000Y-99137872D01*
X88451000Y-99137872D01*
X88451000Y-99578128D01*
X88536890Y-100009925D01*
X88705369Y-100416669D01*
X88949962Y-100782729D01*
X89261271Y-101094038D01*
X89627331Y-101338631D01*
X90034075Y-101507110D01*
X90465872Y-101593000D01*
X90906128Y-101593000D01*
X91337925Y-101507110D01*
X91744669Y-101338631D01*
X92110729Y-101094038D01*
X92422038Y-100782729D01*
X92666631Y-100416669D01*
X92835110Y-100009925D01*
X92921000Y-99578128D01*
X92921000Y-99137872D01*
X148451000Y-99137872D01*
X148451000Y-99578128D01*
X148536890Y-100009925D01*
X148705369Y-100416669D01*
X148949962Y-100782729D01*
X149261271Y-101094038D01*
X149627331Y-101338631D01*
X150034075Y-101507110D01*
X150465872Y-101593000D01*
X150906128Y-101593000D01*
X151337925Y-101507110D01*
X151744669Y-101338631D01*
X152110729Y-101094038D01*
X152422038Y-100782729D01*
X152666631Y-100416669D01*
X152835110Y-100009925D01*
X152921000Y-99578128D01*
X152921000Y-99137872D01*
X152835110Y-98706075D01*
X152666631Y-98299331D01*
X152422038Y-97933271D01*
X152110729Y-97621962D01*
X151744669Y-97377369D01*
X151337925Y-97208890D01*
X150906128Y-97123000D01*
X150465872Y-97123000D01*
X150034075Y-97208890D01*
X149627331Y-97377369D01*
X149261271Y-97621962D01*
X148949962Y-97933271D01*
X148705369Y-98299331D01*
X148536890Y-98706075D01*
X148451000Y-99137872D01*
X92921000Y-99137872D01*
X92835110Y-98706075D01*
X92666631Y-98299331D01*
X92422038Y-97933271D01*
X92110729Y-97621962D01*
X91744669Y-97377369D01*
X91337925Y-97208890D01*
X90906128Y-97123000D01*
X90465872Y-97123000D01*
X90034075Y-97208890D01*
X89627331Y-97377369D01*
X89261271Y-97621962D01*
X88949962Y-97933271D01*
X88705369Y-98299331D01*
X88536890Y-98706075D01*
X88451000Y-99137872D01*
X87790000Y-99137872D01*
X87790000Y-93359578D01*
X87819000Y-93388578D01*
X87819000Y-93603486D01*
X87870304Y-93861405D01*
X87970939Y-94104359D01*
X88117038Y-94323013D01*
X88302987Y-94508962D01*
X88521641Y-94655061D01*
X88764595Y-94755696D01*
X89022514Y-94807000D01*
X89285486Y-94807000D01*
X89543405Y-94755696D01*
X89786359Y-94655061D01*
X90005013Y-94508962D01*
X90190962Y-94323013D01*
X90337061Y-94104359D01*
X90437696Y-93861405D01*
X90489000Y-93603486D01*
X90489000Y-93350514D01*
X95449000Y-93350514D01*
X95449000Y-93613486D01*
X95500304Y-93871405D01*
X95600939Y-94114359D01*
X95747038Y-94333013D01*
X95932987Y-94518962D01*
X96151641Y-94665061D01*
X96394595Y-94765696D01*
X96652514Y-94817000D01*
X96915486Y-94817000D01*
X97173405Y-94765696D01*
X97416359Y-94665061D01*
X97635013Y-94518962D01*
X97820962Y-94333013D01*
X97967061Y-94114359D01*
X98067696Y-93871405D01*
X98119000Y-93613486D01*
X98119000Y-93350514D01*
X98067696Y-93092595D01*
X98015673Y-92967000D01*
X98718928Y-92967000D01*
X98718928Y-94485000D01*
X98737741Y-94676007D01*
X98793455Y-94859675D01*
X98883931Y-95028943D01*
X99005692Y-95177308D01*
X99154057Y-95299069D01*
X99323325Y-95389545D01*
X99506993Y-95445259D01*
X99698000Y-95464072D01*
X101216000Y-95464072D01*
X101407007Y-95445259D01*
X101590675Y-95389545D01*
X101759943Y-95299069D01*
X101908308Y-95177308D01*
X102030069Y-95028943D01*
X102120545Y-94859675D01*
X102176259Y-94676007D01*
X102195072Y-94485000D01*
X102195072Y-93555117D01*
X106322000Y-93555117D01*
X106322000Y-93896883D01*
X106388675Y-94232081D01*
X106519463Y-94547831D01*
X106709337Y-94831998D01*
X106951002Y-95073663D01*
X107235169Y-95263537D01*
X107550919Y-95394325D01*
X107886117Y-95461000D01*
X108227883Y-95461000D01*
X108563081Y-95394325D01*
X108878831Y-95263537D01*
X109162998Y-95073663D01*
X109404663Y-94831998D01*
X109594537Y-94547831D01*
X109725325Y-94232081D01*
X109792000Y-93896883D01*
X109792000Y-93555117D01*
X109725325Y-93219919D01*
X109594537Y-92904169D01*
X109404663Y-92620002D01*
X109162998Y-92378337D01*
X108878831Y-92188463D01*
X108563081Y-92057675D01*
X108227883Y-91991000D01*
X107886117Y-91991000D01*
X107550919Y-92057675D01*
X107235169Y-92188463D01*
X106951002Y-92378337D01*
X106709337Y-92620002D01*
X106519463Y-92904169D01*
X106388675Y-93219919D01*
X106322000Y-93555117D01*
X102195072Y-93555117D01*
X102195072Y-92967000D01*
X102176259Y-92775993D01*
X102120545Y-92592325D01*
X102030069Y-92423057D01*
X101908308Y-92274692D01*
X101759943Y-92152931D01*
X101590675Y-92062455D01*
X101407007Y-92006741D01*
X101216000Y-91987928D01*
X99698000Y-91987928D01*
X99506993Y-92006741D01*
X99323325Y-92062455D01*
X99154057Y-92152931D01*
X99005692Y-92274692D01*
X98883931Y-92423057D01*
X98793455Y-92592325D01*
X98737741Y-92775993D01*
X98718928Y-92967000D01*
X98015673Y-92967000D01*
X97967061Y-92849641D01*
X97820962Y-92630987D01*
X97635013Y-92445038D01*
X97416359Y-92298939D01*
X97173405Y-92198304D01*
X96915486Y-92147000D01*
X96652514Y-92147000D01*
X96394595Y-92198304D01*
X96151641Y-92298939D01*
X95932987Y-92445038D01*
X95747038Y-92630987D01*
X95600939Y-92849641D01*
X95500304Y-93092595D01*
X95449000Y-93350514D01*
X90489000Y-93350514D01*
X90489000Y-93340514D01*
X90437696Y-93082595D01*
X90337061Y-92839641D01*
X90190962Y-92620987D01*
X90005013Y-92435038D01*
X89786359Y-92288939D01*
X89543405Y-92188304D01*
X89285486Y-92137000D01*
X89070578Y-92137000D01*
X88888999Y-91955421D01*
X88888999Y-89690442D01*
X89022514Y-89717000D01*
X89285486Y-89717000D01*
X89543405Y-89665696D01*
X89786359Y-89565061D01*
X90005013Y-89418962D01*
X90190962Y-89233013D01*
X90337061Y-89014359D01*
X90437696Y-88771405D01*
X90489000Y-88513486D01*
X90489000Y-88270514D01*
X95449000Y-88270514D01*
X95449000Y-88533486D01*
X95500304Y-88791405D01*
X95600939Y-89034359D01*
X95747038Y-89253013D01*
X95932987Y-89438962D01*
X96151641Y-89585061D01*
X96394595Y-89685696D01*
X96652514Y-89737000D01*
X96915486Y-89737000D01*
X97173405Y-89685696D01*
X97416359Y-89585061D01*
X97635013Y-89438962D01*
X97820962Y-89253013D01*
X97967061Y-89034359D01*
X98067696Y-88791405D01*
X98119000Y-88533486D01*
X98119000Y-88270514D01*
X98067696Y-88012595D01*
X97967061Y-87769641D01*
X97820962Y-87550987D01*
X97635013Y-87365038D01*
X97416359Y-87218939D01*
X97173405Y-87118304D01*
X96915486Y-87067000D01*
X96652514Y-87067000D01*
X96394595Y-87118304D01*
X96151641Y-87218939D01*
X95932987Y-87365038D01*
X95747038Y-87550987D01*
X95600939Y-87769641D01*
X95500304Y-88012595D01*
X95449000Y-88270514D01*
X90489000Y-88270514D01*
X90489000Y-88250514D01*
X90437696Y-87992595D01*
X90337061Y-87749641D01*
X90190962Y-87530987D01*
X90005013Y-87345038D01*
X89786359Y-87198939D01*
X89543405Y-87098304D01*
X89285486Y-87047000D01*
X89022514Y-87047000D01*
X88888999Y-87073558D01*
X88888999Y-87011002D01*
X112698929Y-87011002D01*
X112698929Y-89811000D01*
X112715993Y-89984254D01*
X112766530Y-90150851D01*
X112848596Y-90304387D01*
X112959040Y-90438962D01*
X113093615Y-90549406D01*
X113247151Y-90631472D01*
X113413748Y-90682009D01*
X113529114Y-90693372D01*
X113276603Y-90900603D01*
X113028548Y-91202858D01*
X112844227Y-91547700D01*
X112730723Y-91921874D01*
X112702001Y-92213492D01*
X112702001Y-93008511D01*
X112730723Y-93300129D01*
X112844227Y-93674303D01*
X113028548Y-94019144D01*
X113276604Y-94321399D01*
X113578859Y-94569454D01*
X113923700Y-94753775D01*
X114297874Y-94867279D01*
X114687001Y-94905605D01*
X115076129Y-94867279D01*
X115450303Y-94753775D01*
X115795144Y-94569454D01*
X116097399Y-94321399D01*
X116345454Y-94019144D01*
X116529775Y-93674303D01*
X116643279Y-93300128D01*
X116672001Y-93008510D01*
X116672001Y-92213491D01*
X116643279Y-91921873D01*
X116529775Y-91547699D01*
X116345454Y-91202858D01*
X116097399Y-90900603D01*
X115844888Y-90693372D01*
X115960254Y-90682009D01*
X116126851Y-90631472D01*
X116280387Y-90549406D01*
X116414962Y-90438962D01*
X116525406Y-90304387D01*
X116607472Y-90150851D01*
X116658009Y-89984254D01*
X116675073Y-89811000D01*
X116675073Y-87111002D01*
X120148929Y-87111002D01*
X120148929Y-89911000D01*
X120165993Y-90084254D01*
X120216530Y-90250851D01*
X120298596Y-90404387D01*
X120409040Y-90538962D01*
X120543615Y-90649406D01*
X120697151Y-90731472D01*
X120863748Y-90782009D01*
X120979114Y-90793372D01*
X120726603Y-91000603D01*
X120478548Y-91302858D01*
X120294227Y-91647700D01*
X120180723Y-92021874D01*
X120152001Y-92313492D01*
X120152001Y-93108511D01*
X120180723Y-93400129D01*
X120294227Y-93774303D01*
X120478548Y-94119144D01*
X120726604Y-94421399D01*
X121028859Y-94669454D01*
X121373700Y-94853775D01*
X121747874Y-94967279D01*
X122137001Y-95005605D01*
X122526129Y-94967279D01*
X122900303Y-94853775D01*
X123245144Y-94669454D01*
X123547399Y-94421399D01*
X123795454Y-94119144D01*
X123979775Y-93774303D01*
X124093279Y-93400128D01*
X124122001Y-93108510D01*
X124122001Y-92838001D01*
X124352001Y-92838001D01*
X124352001Y-93138001D01*
X124414919Y-93522815D01*
X124551701Y-93887960D01*
X124757091Y-94219404D01*
X125023196Y-94504410D01*
X125339790Y-94732025D01*
X125694706Y-94893502D01*
X125901678Y-94947678D01*
X126210001Y-94832830D01*
X126210001Y-92838001D01*
X126464001Y-92838001D01*
X126464001Y-94832830D01*
X126772324Y-94947678D01*
X126979296Y-94893502D01*
X127334212Y-94732025D01*
X127650806Y-94504410D01*
X127916911Y-94219404D01*
X128122301Y-93887960D01*
X128259083Y-93522815D01*
X128322001Y-93138001D01*
X128322001Y-92838001D01*
X126464001Y-92838001D01*
X126210001Y-92838001D01*
X124352001Y-92838001D01*
X124122001Y-92838001D01*
X124122001Y-92313491D01*
X124093279Y-92021873D01*
X123979775Y-91647699D01*
X123795454Y-91302858D01*
X123547399Y-91000603D01*
X123294888Y-90793372D01*
X123410254Y-90782009D01*
X123576851Y-90731472D01*
X123730387Y-90649406D01*
X123864962Y-90538962D01*
X123975406Y-90404387D01*
X124057472Y-90250851D01*
X124108009Y-90084254D01*
X124125073Y-89911000D01*
X124125073Y-88113492D01*
X124352001Y-88113492D01*
X124352001Y-88908511D01*
X124380723Y-89200129D01*
X124494227Y-89574303D01*
X124678548Y-89919144D01*
X124926604Y-90221399D01*
X125228859Y-90469454D01*
X125502733Y-90615842D01*
X125339790Y-90689977D01*
X125023196Y-90917592D01*
X124757091Y-91202598D01*
X124551701Y-91534042D01*
X124414919Y-91899187D01*
X124352001Y-92284001D01*
X124352001Y-92584001D01*
X126210001Y-92584001D01*
X126210001Y-92564001D01*
X126464001Y-92564001D01*
X126464001Y-92584001D01*
X128322001Y-92584001D01*
X128322001Y-92284001D01*
X128259083Y-91899187D01*
X128122301Y-91534042D01*
X127916911Y-91202598D01*
X127650806Y-90917592D01*
X127334212Y-90689977D01*
X127171270Y-90615843D01*
X127445144Y-90469454D01*
X127747399Y-90221399D01*
X127995454Y-89919144D01*
X128179775Y-89574303D01*
X128293279Y-89200128D01*
X128322001Y-88908510D01*
X128322001Y-88113491D01*
X128305997Y-87951000D01*
X134551928Y-87951000D01*
X134564188Y-88075482D01*
X134600498Y-88195180D01*
X134659463Y-88305494D01*
X134738815Y-88402185D01*
X134835506Y-88481537D01*
X134945820Y-88540502D01*
X135065518Y-88576812D01*
X135190000Y-88589072D01*
X135604250Y-88586000D01*
X135763000Y-88427250D01*
X135763000Y-87503000D01*
X136017000Y-87503000D01*
X136017000Y-88427250D01*
X136175750Y-88586000D01*
X136590000Y-88589072D01*
X136714482Y-88576812D01*
X136834180Y-88540502D01*
X136944494Y-88481537D01*
X137041185Y-88402185D01*
X137120537Y-88305494D01*
X137179502Y-88195180D01*
X137215812Y-88075482D01*
X137227185Y-87960000D01*
X137599928Y-87960000D01*
X137612188Y-88084482D01*
X137648498Y-88204180D01*
X137707463Y-88314494D01*
X137786815Y-88411185D01*
X137883506Y-88490537D01*
X137993820Y-88549502D01*
X138113518Y-88585812D01*
X138238000Y-88598072D01*
X138652250Y-88595000D01*
X138811000Y-88436250D01*
X138811000Y-87512000D01*
X139065000Y-87512000D01*
X139065000Y-88436250D01*
X139223750Y-88595000D01*
X139638000Y-88598072D01*
X139762482Y-88585812D01*
X139882180Y-88549502D01*
X139992494Y-88490537D01*
X140089185Y-88411185D01*
X140168537Y-88314494D01*
X140227502Y-88204180D01*
X140263812Y-88084482D01*
X140276072Y-87960000D01*
X140901928Y-87960000D01*
X140914188Y-88084482D01*
X140950498Y-88204180D01*
X141009463Y-88314494D01*
X141088815Y-88411185D01*
X141185506Y-88490537D01*
X141295820Y-88549502D01*
X141415518Y-88585812D01*
X141540000Y-88598072D01*
X141954250Y-88595000D01*
X142113000Y-88436250D01*
X142113000Y-87512000D01*
X142367000Y-87512000D01*
X142367000Y-88436250D01*
X142525750Y-88595000D01*
X142940000Y-88598072D01*
X143064482Y-88585812D01*
X143184180Y-88549502D01*
X143294494Y-88490537D01*
X143391185Y-88411185D01*
X143470537Y-88314494D01*
X143529502Y-88204180D01*
X143565812Y-88084482D01*
X143578072Y-87960000D01*
X144457928Y-87960000D01*
X144470188Y-88084482D01*
X144506498Y-88204180D01*
X144565463Y-88314494D01*
X144644815Y-88411185D01*
X144741506Y-88490537D01*
X144851820Y-88549502D01*
X144971518Y-88585812D01*
X145096000Y-88598072D01*
X145510250Y-88595000D01*
X145669000Y-88436250D01*
X145669000Y-87512000D01*
X145923000Y-87512000D01*
X145923000Y-88436250D01*
X146081750Y-88595000D01*
X146496000Y-88598072D01*
X146620482Y-88585812D01*
X146740180Y-88549502D01*
X146850494Y-88490537D01*
X146947185Y-88411185D01*
X147026537Y-88314494D01*
X147085502Y-88204180D01*
X147121812Y-88084482D01*
X147134072Y-87960000D01*
X148521928Y-87960000D01*
X148534188Y-88084482D01*
X148570498Y-88204180D01*
X148629463Y-88314494D01*
X148708815Y-88411185D01*
X148805506Y-88490537D01*
X148915820Y-88549502D01*
X149035518Y-88585812D01*
X149160000Y-88598072D01*
X149574250Y-88595000D01*
X149733000Y-88436250D01*
X149733000Y-87512000D01*
X149987000Y-87512000D01*
X149987000Y-88436250D01*
X150145750Y-88595000D01*
X150560000Y-88598072D01*
X150684482Y-88585812D01*
X150804180Y-88549502D01*
X150914494Y-88490537D01*
X151011185Y-88411185D01*
X151090537Y-88314494D01*
X151149502Y-88204180D01*
X151185812Y-88084482D01*
X151198072Y-87960000D01*
X151195000Y-87670750D01*
X151036250Y-87512000D01*
X149987000Y-87512000D01*
X149733000Y-87512000D01*
X148683750Y-87512000D01*
X148525000Y-87670750D01*
X148521928Y-87960000D01*
X147134072Y-87960000D01*
X147131000Y-87670750D01*
X146972250Y-87512000D01*
X145923000Y-87512000D01*
X145669000Y-87512000D01*
X144619750Y-87512000D01*
X144461000Y-87670750D01*
X144457928Y-87960000D01*
X143578072Y-87960000D01*
X143575000Y-87670750D01*
X143416250Y-87512000D01*
X142367000Y-87512000D01*
X142113000Y-87512000D01*
X141063750Y-87512000D01*
X140905000Y-87670750D01*
X140901928Y-87960000D01*
X140276072Y-87960000D01*
X140273000Y-87670750D01*
X140114250Y-87512000D01*
X139065000Y-87512000D01*
X138811000Y-87512000D01*
X137761750Y-87512000D01*
X137603000Y-87670750D01*
X137599928Y-87960000D01*
X137227185Y-87960000D01*
X137228072Y-87951000D01*
X137225000Y-87661750D01*
X137066250Y-87503000D01*
X136017000Y-87503000D01*
X135763000Y-87503000D01*
X134713750Y-87503000D01*
X134555000Y-87661750D01*
X134551928Y-87951000D01*
X128305997Y-87951000D01*
X128293279Y-87821873D01*
X128179775Y-87447699D01*
X127995454Y-87102858D01*
X127747399Y-86800603D01*
X127445144Y-86552548D01*
X127100302Y-86368227D01*
X126726128Y-86254723D01*
X126337001Y-86216397D01*
X125947873Y-86254723D01*
X125573699Y-86368227D01*
X125228858Y-86552548D01*
X124926603Y-86800603D01*
X124678548Y-87102858D01*
X124494227Y-87447700D01*
X124380723Y-87821874D01*
X124352001Y-88113492D01*
X124125073Y-88113492D01*
X124125073Y-87111002D01*
X124108009Y-86937748D01*
X124057472Y-86771151D01*
X123975406Y-86617615D01*
X123864962Y-86483040D01*
X123730387Y-86372596D01*
X123576851Y-86290530D01*
X123410254Y-86239993D01*
X123237000Y-86222929D01*
X121037002Y-86222929D01*
X120863748Y-86239993D01*
X120697151Y-86290530D01*
X120543615Y-86372596D01*
X120409040Y-86483040D01*
X120298596Y-86617615D01*
X120216530Y-86771151D01*
X120165993Y-86937748D01*
X120148929Y-87111002D01*
X116675073Y-87111002D01*
X116675073Y-87011002D01*
X116658009Y-86837748D01*
X116607472Y-86671151D01*
X116525406Y-86517615D01*
X116414962Y-86383040D01*
X116280387Y-86272596D01*
X116126851Y-86190530D01*
X115960254Y-86139993D01*
X115787000Y-86122929D01*
X113587002Y-86122929D01*
X113413748Y-86139993D01*
X113247151Y-86190530D01*
X113093615Y-86272596D01*
X112959040Y-86383040D01*
X112848596Y-86517615D01*
X112766530Y-86671151D01*
X112715993Y-86837748D01*
X112698929Y-87011002D01*
X88888999Y-87011002D01*
X88888999Y-84620442D01*
X89022514Y-84647000D01*
X89285486Y-84647000D01*
X89543405Y-84595696D01*
X89786359Y-84495061D01*
X90005013Y-84348962D01*
X90120706Y-84233269D01*
X96032336Y-84233269D01*
X96091797Y-84467037D01*
X96330242Y-84577934D01*
X96585740Y-84640183D01*
X96848473Y-84651390D01*
X97108344Y-84611125D01*
X97355366Y-84520935D01*
X97456203Y-84467037D01*
X97515664Y-84233269D01*
X96774000Y-83491605D01*
X96032336Y-84233269D01*
X90120706Y-84233269D01*
X90190962Y-84163013D01*
X90337061Y-83944359D01*
X90437696Y-83701405D01*
X90489000Y-83443486D01*
X90489000Y-83386473D01*
X95434610Y-83386473D01*
X95474875Y-83646344D01*
X95565065Y-83893366D01*
X95618963Y-83994203D01*
X95852731Y-84053664D01*
X96594395Y-83312000D01*
X96953605Y-83312000D01*
X97695269Y-84053664D01*
X97929037Y-83994203D01*
X98039934Y-83755758D01*
X98102183Y-83500260D01*
X98113390Y-83237527D01*
X98073125Y-82977656D01*
X97982935Y-82730634D01*
X97929037Y-82629797D01*
X97695269Y-82570336D01*
X96953605Y-83312000D01*
X96594395Y-83312000D01*
X95852731Y-82570336D01*
X95618963Y-82629797D01*
X95508066Y-82868242D01*
X95445817Y-83123740D01*
X95434610Y-83386473D01*
X90489000Y-83386473D01*
X90489000Y-83228579D01*
X90510531Y-83207048D01*
X90510535Y-83207043D01*
X91326847Y-82390731D01*
X96032336Y-82390731D01*
X96774000Y-83132395D01*
X97515664Y-82390731D01*
X97456203Y-82156963D01*
X97217758Y-82046066D01*
X96962260Y-81983817D01*
X96699527Y-81972610D01*
X96439656Y-82012875D01*
X96192634Y-82103065D01*
X96091797Y-82156963D01*
X96032336Y-82390731D01*
X91326847Y-82390731D01*
X92187579Y-81530000D01*
X100413524Y-81530000D01*
X100457000Y-81534282D01*
X100500477Y-81530000D01*
X101487422Y-81530000D01*
X101829471Y-81872050D01*
X101857184Y-81905818D01*
X101890952Y-81933531D01*
X101890954Y-81933533D01*
X101943919Y-81977000D01*
X101991942Y-82016412D01*
X102145688Y-82098590D01*
X102312511Y-82149196D01*
X102442524Y-82162001D01*
X102442534Y-82162001D01*
X102486000Y-82166282D01*
X102529466Y-82162001D01*
X106755206Y-82162001D01*
X106592825Y-82324382D01*
X106386534Y-82633118D01*
X106244439Y-82976166D01*
X106172000Y-83340344D01*
X106172000Y-83711656D01*
X106244439Y-84075834D01*
X106386534Y-84418882D01*
X106592825Y-84727618D01*
X106855382Y-84990175D01*
X107164118Y-85196466D01*
X107507166Y-85338561D01*
X107871344Y-85411000D01*
X108242656Y-85411000D01*
X108606834Y-85338561D01*
X108949882Y-85196466D01*
X109049602Y-85129835D01*
X133608000Y-85129835D01*
X133608000Y-85304165D01*
X133642010Y-85475145D01*
X133708723Y-85636205D01*
X133805576Y-85781155D01*
X133928845Y-85904424D01*
X134073795Y-86001277D01*
X134234855Y-86067990D01*
X134405835Y-86102000D01*
X134580165Y-86102000D01*
X134669446Y-86084241D01*
X134701595Y-86144387D01*
X134812038Y-86278962D01*
X134818594Y-86284342D01*
X134738815Y-86349815D01*
X134659463Y-86446506D01*
X134600498Y-86556820D01*
X134564188Y-86676518D01*
X134551928Y-86801000D01*
X134555000Y-87090250D01*
X134713750Y-87249000D01*
X135763000Y-87249000D01*
X135763000Y-87229000D01*
X136017000Y-87229000D01*
X136017000Y-87249000D01*
X137066250Y-87249000D01*
X137225000Y-87090250D01*
X137228072Y-86801000D01*
X137215812Y-86676518D01*
X137179502Y-86556820D01*
X137120537Y-86446506D01*
X137041185Y-86349815D01*
X136961406Y-86284342D01*
X136967962Y-86278962D01*
X137078405Y-86144387D01*
X137160472Y-85990851D01*
X137211008Y-85824255D01*
X137217928Y-85753999D01*
X137226355Y-85757490D01*
X137269214Y-85766015D01*
X137349196Y-85845997D01*
X137372999Y-85875001D01*
X137488724Y-85969974D01*
X137620753Y-86040546D01*
X137702541Y-86065356D01*
X137749595Y-86153387D01*
X137860038Y-86287962D01*
X137866594Y-86293342D01*
X137786815Y-86358815D01*
X137707463Y-86455506D01*
X137648498Y-86565820D01*
X137612188Y-86685518D01*
X137599928Y-86810000D01*
X137603000Y-87099250D01*
X137761750Y-87258000D01*
X138811000Y-87258000D01*
X138811000Y-87238000D01*
X139065000Y-87238000D01*
X139065000Y-87258000D01*
X140114250Y-87258000D01*
X140273000Y-87099250D01*
X140276072Y-86810000D01*
X140263812Y-86685518D01*
X140227502Y-86565820D01*
X140168537Y-86455506D01*
X140089185Y-86358815D01*
X140009406Y-86293342D01*
X140015962Y-86287962D01*
X140126405Y-86153387D01*
X140208472Y-85999851D01*
X140259008Y-85833255D01*
X140276072Y-85660001D01*
X140276072Y-85039721D01*
X140312723Y-85128205D01*
X140409576Y-85273155D01*
X140532845Y-85396424D01*
X140677795Y-85493277D01*
X140838855Y-85559990D01*
X140881714Y-85568515D01*
X140901928Y-85588730D01*
X140901928Y-85660001D01*
X140918992Y-85833255D01*
X140969528Y-85999851D01*
X141051595Y-86153387D01*
X141162038Y-86287962D01*
X141168594Y-86293342D01*
X141088815Y-86358815D01*
X141009463Y-86455506D01*
X140950498Y-86565820D01*
X140914188Y-86685518D01*
X140901928Y-86810000D01*
X140905000Y-87099250D01*
X141063750Y-87258000D01*
X142113000Y-87258000D01*
X142113000Y-87238000D01*
X142367000Y-87238000D01*
X142367000Y-87258000D01*
X143416250Y-87258000D01*
X143575000Y-87099250D01*
X143578072Y-86810000D01*
X143565812Y-86685518D01*
X143529502Y-86565820D01*
X143470537Y-86455506D01*
X143391185Y-86358815D01*
X143311406Y-86293342D01*
X143317962Y-86287962D01*
X143428405Y-86153387D01*
X143510472Y-85999851D01*
X143561008Y-85833255D01*
X143578072Y-85660001D01*
X143578072Y-85647651D01*
X143580845Y-85650424D01*
X143725795Y-85747277D01*
X143886855Y-85813990D01*
X144057835Y-85848000D01*
X144232165Y-85848000D01*
X144403145Y-85813990D01*
X144470353Y-85786152D01*
X144474992Y-85833255D01*
X144525528Y-85999851D01*
X144607595Y-86153387D01*
X144718038Y-86287962D01*
X144724594Y-86293342D01*
X144644815Y-86358815D01*
X144565463Y-86455506D01*
X144506498Y-86565820D01*
X144470188Y-86685518D01*
X144457928Y-86810000D01*
X144461000Y-87099250D01*
X144619750Y-87258000D01*
X145669000Y-87258000D01*
X145669000Y-87238000D01*
X145923000Y-87238000D01*
X145923000Y-87258000D01*
X146972250Y-87258000D01*
X147131000Y-87099250D01*
X147134072Y-86810000D01*
X147121812Y-86685518D01*
X147085502Y-86565820D01*
X147026537Y-86455506D01*
X146947185Y-86358815D01*
X146867406Y-86293342D01*
X146873962Y-86287962D01*
X146984405Y-86153387D01*
X147066472Y-85999851D01*
X147075665Y-85969544D01*
X147077076Y-85971655D01*
X147200345Y-86094924D01*
X147345295Y-86191777D01*
X147506355Y-86258490D01*
X147677335Y-86292500D01*
X147851665Y-86292500D01*
X148022645Y-86258490D01*
X148183705Y-86191777D01*
X148220038Y-86167500D01*
X148683177Y-86167500D01*
X148782038Y-86287962D01*
X148788594Y-86293342D01*
X148708815Y-86358815D01*
X148629463Y-86455506D01*
X148570498Y-86565820D01*
X148534188Y-86685518D01*
X148521928Y-86810000D01*
X148525000Y-87099250D01*
X148683750Y-87258000D01*
X149733000Y-87258000D01*
X149733000Y-87238000D01*
X149987000Y-87238000D01*
X149987000Y-87258000D01*
X151036250Y-87258000D01*
X151195000Y-87099250D01*
X151198072Y-86810000D01*
X151185812Y-86685518D01*
X151149502Y-86565820D01*
X151090537Y-86455506D01*
X151011185Y-86358815D01*
X150931406Y-86293342D01*
X150937962Y-86287962D01*
X151048405Y-86153387D01*
X151130472Y-85999851D01*
X151181008Y-85833255D01*
X151198072Y-85660001D01*
X151198072Y-85009999D01*
X151181008Y-84836745D01*
X151130472Y-84670149D01*
X151048405Y-84516613D01*
X150937962Y-84382038D01*
X150803387Y-84271595D01*
X150649851Y-84189528D01*
X150483255Y-84138992D01*
X150310001Y-84121928D01*
X149409999Y-84121928D01*
X149236745Y-84138992D01*
X149070149Y-84189528D01*
X148916613Y-84271595D01*
X148782038Y-84382038D01*
X148671595Y-84516613D01*
X148601634Y-84647500D01*
X148285407Y-84647500D01*
X148318962Y-84619962D01*
X148429405Y-84485386D01*
X148511472Y-84331850D01*
X148562008Y-84165254D01*
X148579072Y-83992000D01*
X148579072Y-83067000D01*
X148562008Y-82893746D01*
X148511472Y-82727150D01*
X148429405Y-82573614D01*
X148318962Y-82439038D01*
X148184386Y-82328595D01*
X148030850Y-82246528D01*
X147864254Y-82195992D01*
X147691000Y-82178928D01*
X146441000Y-82178928D01*
X146267746Y-82195992D01*
X146101150Y-82246528D01*
X145947614Y-82328595D01*
X145813038Y-82439038D01*
X145702595Y-82573614D01*
X145620528Y-82727150D01*
X145605500Y-82776691D01*
X145590472Y-82727150D01*
X145508405Y-82573614D01*
X145397962Y-82439038D01*
X145263386Y-82328595D01*
X145109850Y-82246528D01*
X144943254Y-82195992D01*
X144770000Y-82178928D01*
X143520000Y-82178928D01*
X143346746Y-82195992D01*
X143180150Y-82246528D01*
X143026614Y-82328595D01*
X142892038Y-82439038D01*
X142781595Y-82573614D01*
X142699528Y-82727150D01*
X142648992Y-82893746D01*
X142631928Y-83067000D01*
X142631928Y-83992000D01*
X142644725Y-84121928D01*
X142597275Y-84121928D01*
X142610072Y-83992000D01*
X142610072Y-83067000D01*
X142593008Y-82893746D01*
X142542472Y-82727150D01*
X142460405Y-82573614D01*
X142349962Y-82439038D01*
X142215386Y-82328595D01*
X142061850Y-82246528D01*
X141895254Y-82195992D01*
X141722000Y-82178928D01*
X140472000Y-82178928D01*
X140298746Y-82195992D01*
X140132150Y-82246528D01*
X139978614Y-82328595D01*
X139844038Y-82439038D01*
X139733595Y-82573614D01*
X139651528Y-82727150D01*
X139600992Y-82893746D01*
X139583928Y-83067000D01*
X139583928Y-83992000D01*
X139599550Y-84150608D01*
X139561255Y-84138992D01*
X139547726Y-84137659D01*
X139562072Y-83992000D01*
X139562072Y-83067000D01*
X139545008Y-82893746D01*
X139494472Y-82727150D01*
X139412405Y-82573614D01*
X139301962Y-82439038D01*
X139167386Y-82328595D01*
X139013850Y-82246528D01*
X138847254Y-82195992D01*
X138674000Y-82178928D01*
X137424000Y-82178928D01*
X137250746Y-82195992D01*
X137084150Y-82246528D01*
X136930614Y-82328595D01*
X136796038Y-82439038D01*
X136685595Y-82573614D01*
X136603528Y-82727150D01*
X136588500Y-82776691D01*
X136573472Y-82727150D01*
X136491405Y-82573614D01*
X136380962Y-82439038D01*
X136246386Y-82328595D01*
X136092850Y-82246528D01*
X135926254Y-82195992D01*
X135753000Y-82178928D01*
X134503000Y-82178928D01*
X134329746Y-82195992D01*
X134163150Y-82246528D01*
X134009614Y-82328595D01*
X133875038Y-82439038D01*
X133764595Y-82573614D01*
X133682528Y-82727150D01*
X133631992Y-82893746D01*
X133614928Y-83067000D01*
X133614928Y-83992000D01*
X133631992Y-84165254D01*
X133682528Y-84331850D01*
X133764595Y-84485386D01*
X133858550Y-84599871D01*
X133805576Y-84652845D01*
X133708723Y-84797795D01*
X133642010Y-84958855D01*
X133608000Y-85129835D01*
X109049602Y-85129835D01*
X109258618Y-84990175D01*
X109521175Y-84727618D01*
X109727466Y-84418882D01*
X109869561Y-84075834D01*
X109942000Y-83711656D01*
X109942000Y-83340344D01*
X109869561Y-82976166D01*
X109727466Y-82633118D01*
X109521175Y-82324382D01*
X109358794Y-82162001D01*
X120108547Y-82162001D01*
X120156745Y-82194206D01*
X120345103Y-82272227D01*
X120545062Y-82312001D01*
X120748940Y-82312001D01*
X120948899Y-82272227D01*
X121137257Y-82194206D01*
X121306775Y-82080938D01*
X121450938Y-81936775D01*
X121564206Y-81767257D01*
X121642227Y-81578899D01*
X121682001Y-81378940D01*
X121682001Y-81175062D01*
X121642227Y-80975103D01*
X121564206Y-80786745D01*
X121450938Y-80617227D01*
X121306775Y-80473064D01*
X121137257Y-80359796D01*
X120948899Y-80281775D01*
X120748940Y-80242001D01*
X120545062Y-80242001D01*
X120345103Y-80281775D01*
X120156745Y-80359796D01*
X120108547Y-80392001D01*
X112620098Y-80392001D01*
X112635000Y-80317084D01*
X112635000Y-80066916D01*
X128095000Y-80066916D01*
X128095000Y-80317084D01*
X128143805Y-80562445D01*
X128239541Y-80793571D01*
X128378527Y-81001578D01*
X128555422Y-81178473D01*
X128763429Y-81317459D01*
X128994555Y-81413195D01*
X129239916Y-81462000D01*
X129490084Y-81462000D01*
X129735445Y-81413195D01*
X129966571Y-81317459D01*
X130174578Y-81178473D01*
X130351473Y-81001578D01*
X130490459Y-80793571D01*
X130586195Y-80562445D01*
X130635000Y-80317084D01*
X130635000Y-80066916D01*
X130796000Y-80066916D01*
X130796000Y-80317084D01*
X130844805Y-80562445D01*
X130940541Y-80793571D01*
X131079527Y-81001578D01*
X131256422Y-81178473D01*
X131464429Y-81317459D01*
X131695555Y-81413195D01*
X131940916Y-81462000D01*
X132191084Y-81462000D01*
X132436445Y-81413195D01*
X132667571Y-81317459D01*
X132743088Y-81267000D01*
X133614928Y-81267000D01*
X133627188Y-81391482D01*
X133663498Y-81511180D01*
X133722463Y-81621494D01*
X133801815Y-81718185D01*
X133898506Y-81797537D01*
X134008820Y-81856502D01*
X134128518Y-81892812D01*
X134253000Y-81905072D01*
X134842250Y-81902000D01*
X135001000Y-81743250D01*
X135001000Y-80681500D01*
X135255000Y-80681500D01*
X135255000Y-81743250D01*
X135413750Y-81902000D01*
X136003000Y-81905072D01*
X136127482Y-81892812D01*
X136247180Y-81856502D01*
X136357494Y-81797537D01*
X136454185Y-81718185D01*
X136533537Y-81621494D01*
X136588500Y-81518667D01*
X136643463Y-81621494D01*
X136722815Y-81718185D01*
X136819506Y-81797537D01*
X136929820Y-81856502D01*
X137049518Y-81892812D01*
X137174000Y-81905072D01*
X137763250Y-81902000D01*
X137922000Y-81743250D01*
X137922000Y-80681500D01*
X138176000Y-80681500D01*
X138176000Y-81743250D01*
X138334750Y-81902000D01*
X138924000Y-81905072D01*
X139048482Y-81892812D01*
X139168180Y-81856502D01*
X139278494Y-81797537D01*
X139375185Y-81718185D01*
X139454537Y-81621494D01*
X139513502Y-81511180D01*
X139549812Y-81391482D01*
X139562072Y-81267000D01*
X139583928Y-81267000D01*
X139596188Y-81391482D01*
X139632498Y-81511180D01*
X139691463Y-81621494D01*
X139770815Y-81718185D01*
X139867506Y-81797537D01*
X139977820Y-81856502D01*
X140097518Y-81892812D01*
X140222000Y-81905072D01*
X140811250Y-81902000D01*
X140970000Y-81743250D01*
X140970000Y-80681500D01*
X141224000Y-80681500D01*
X141224000Y-81743250D01*
X141382750Y-81902000D01*
X141972000Y-81905072D01*
X142096482Y-81892812D01*
X142216180Y-81856502D01*
X142326494Y-81797537D01*
X142423185Y-81718185D01*
X142502537Y-81621494D01*
X142561502Y-81511180D01*
X142597812Y-81391482D01*
X142610072Y-81267000D01*
X142631928Y-81267000D01*
X142644188Y-81391482D01*
X142680498Y-81511180D01*
X142739463Y-81621494D01*
X142818815Y-81718185D01*
X142915506Y-81797537D01*
X143025820Y-81856502D01*
X143145518Y-81892812D01*
X143270000Y-81905072D01*
X143859250Y-81902000D01*
X144018000Y-81743250D01*
X144018000Y-80681500D01*
X144272000Y-80681500D01*
X144272000Y-81743250D01*
X144430750Y-81902000D01*
X145020000Y-81905072D01*
X145144482Y-81892812D01*
X145264180Y-81856502D01*
X145374494Y-81797537D01*
X145471185Y-81718185D01*
X145550537Y-81621494D01*
X145605500Y-81518667D01*
X145660463Y-81621494D01*
X145739815Y-81718185D01*
X145836506Y-81797537D01*
X145946820Y-81856502D01*
X146066518Y-81892812D01*
X146191000Y-81905072D01*
X146780250Y-81902000D01*
X146939000Y-81743250D01*
X146939000Y-80681500D01*
X147193000Y-80681500D01*
X147193000Y-81743250D01*
X147351750Y-81902000D01*
X147941000Y-81905072D01*
X148065482Y-81892812D01*
X148185180Y-81856502D01*
X148295494Y-81797537D01*
X148392185Y-81718185D01*
X148471537Y-81621494D01*
X148530502Y-81511180D01*
X148566812Y-81391482D01*
X148579072Y-81267000D01*
X148576000Y-80840250D01*
X148417250Y-80681500D01*
X147193000Y-80681500D01*
X146939000Y-80681500D01*
X145714750Y-80681500D01*
X145605500Y-80790750D01*
X145496250Y-80681500D01*
X144272000Y-80681500D01*
X144018000Y-80681500D01*
X142793750Y-80681500D01*
X142635000Y-80840250D01*
X142631928Y-81267000D01*
X142610072Y-81267000D01*
X142607000Y-80840250D01*
X142448250Y-80681500D01*
X141224000Y-80681500D01*
X140970000Y-80681500D01*
X139745750Y-80681500D01*
X139587000Y-80840250D01*
X139583928Y-81267000D01*
X139562072Y-81267000D01*
X139559000Y-80840250D01*
X139400250Y-80681500D01*
X138176000Y-80681500D01*
X137922000Y-80681500D01*
X136697750Y-80681500D01*
X136588500Y-80790750D01*
X136479250Y-80681500D01*
X135255000Y-80681500D01*
X135001000Y-80681500D01*
X133776750Y-80681500D01*
X133618000Y-80840250D01*
X133614928Y-81267000D01*
X132743088Y-81267000D01*
X132875578Y-81178473D01*
X133052473Y-81001578D01*
X133191459Y-80793571D01*
X133287195Y-80562445D01*
X133336000Y-80317084D01*
X133336000Y-80066916D01*
X133287195Y-79821555D01*
X133191459Y-79590429D01*
X133052473Y-79382422D01*
X132875578Y-79205527D01*
X132667571Y-79066541D01*
X132436445Y-78970805D01*
X132191084Y-78922000D01*
X131940916Y-78922000D01*
X131695555Y-78970805D01*
X131464429Y-79066541D01*
X131256422Y-79205527D01*
X131079527Y-79382422D01*
X130940541Y-79590429D01*
X130844805Y-79821555D01*
X130796000Y-80066916D01*
X130635000Y-80066916D01*
X130586195Y-79821555D01*
X130490459Y-79590429D01*
X130351473Y-79382422D01*
X130174578Y-79205527D01*
X129966571Y-79066541D01*
X129735445Y-78970805D01*
X129490084Y-78922000D01*
X129239916Y-78922000D01*
X128994555Y-78970805D01*
X128763429Y-79066541D01*
X128555422Y-79205527D01*
X128378527Y-79382422D01*
X128239541Y-79590429D01*
X128143805Y-79821555D01*
X128095000Y-80066916D01*
X112635000Y-80066916D01*
X112586195Y-79821555D01*
X112490459Y-79590429D01*
X112351473Y-79382422D01*
X112174578Y-79205527D01*
X111966571Y-79066541D01*
X111735445Y-78970805D01*
X111490084Y-78922000D01*
X111239916Y-78922000D01*
X110994555Y-78970805D01*
X110763429Y-79066541D01*
X110555422Y-79205527D01*
X110378527Y-79382422D01*
X110239541Y-79590429D01*
X110143805Y-79821555D01*
X110095000Y-80066916D01*
X110095000Y-80317084D01*
X110109902Y-80392001D01*
X102852580Y-80392001D01*
X102510534Y-80049956D01*
X102482817Y-80016183D01*
X102348059Y-79905589D01*
X102194313Y-79823411D01*
X102027490Y-79772805D01*
X101897477Y-79760000D01*
X101897469Y-79760000D01*
X101854000Y-79755719D01*
X101810531Y-79760000D01*
X101737834Y-79760000D01*
X101820405Y-79659386D01*
X101902472Y-79505850D01*
X101953008Y-79339254D01*
X101970072Y-79166000D01*
X101970072Y-78241000D01*
X101953008Y-78067746D01*
X101903326Y-77903963D01*
X112980000Y-77903963D01*
X112980000Y-78560036D01*
X113000040Y-78763506D01*
X113079236Y-79024580D01*
X113207843Y-79265187D01*
X113380919Y-79476080D01*
X113591812Y-79649157D01*
X113832419Y-79777764D01*
X114093493Y-79856960D01*
X114365000Y-79883701D01*
X114636506Y-79856960D01*
X114897580Y-79777764D01*
X115138187Y-79649157D01*
X115349080Y-79476081D01*
X115522157Y-79265188D01*
X115650764Y-79024581D01*
X115729960Y-78763507D01*
X115750000Y-78560037D01*
X115750000Y-77903964D01*
X115750000Y-77903963D01*
X115980000Y-77903963D01*
X115980000Y-78560036D01*
X116000040Y-78763506D01*
X116079236Y-79024580D01*
X116207843Y-79265187D01*
X116380919Y-79476080D01*
X116591812Y-79649157D01*
X116832419Y-79777764D01*
X117093493Y-79856960D01*
X117365000Y-79883701D01*
X117636506Y-79856960D01*
X117897580Y-79777764D01*
X118138187Y-79649157D01*
X118349080Y-79476081D01*
X118522157Y-79265188D01*
X118650764Y-79024581D01*
X118729960Y-78763507D01*
X118750000Y-78560037D01*
X118750000Y-77903964D01*
X118729960Y-77700494D01*
X118650764Y-77439419D01*
X118522157Y-77198812D01*
X118349081Y-76987919D01*
X118138188Y-76814843D01*
X117897581Y-76686236D01*
X117636507Y-76607040D01*
X117365000Y-76580299D01*
X117093494Y-76607040D01*
X116832420Y-76686236D01*
X116591813Y-76814843D01*
X116380920Y-76987919D01*
X116207843Y-77198812D01*
X116079236Y-77439419D01*
X116000040Y-77700493D01*
X115980000Y-77903963D01*
X115750000Y-77903963D01*
X115729960Y-77700494D01*
X115650764Y-77439419D01*
X115522157Y-77198812D01*
X115349081Y-76987919D01*
X115138188Y-76814843D01*
X114897581Y-76686236D01*
X114636507Y-76607040D01*
X114365000Y-76580299D01*
X114093494Y-76607040D01*
X113832420Y-76686236D01*
X113591813Y-76814843D01*
X113380920Y-76987919D01*
X113207843Y-77198812D01*
X113079236Y-77439419D01*
X113000040Y-77700493D01*
X112980000Y-77903963D01*
X101903326Y-77903963D01*
X101902472Y-77901150D01*
X101820405Y-77747614D01*
X101709962Y-77613038D01*
X101575386Y-77502595D01*
X101421850Y-77420528D01*
X101255254Y-77369992D01*
X101082000Y-77352928D01*
X99832000Y-77352928D01*
X99658746Y-77369992D01*
X99492150Y-77420528D01*
X99338614Y-77502595D01*
X99204038Y-77613038D01*
X99093595Y-77747614D01*
X99011528Y-77901150D01*
X98960992Y-78067746D01*
X98943928Y-78241000D01*
X98943928Y-79166000D01*
X98960992Y-79339254D01*
X99011528Y-79505850D01*
X99093595Y-79659386D01*
X99176166Y-79760000D01*
X96411266Y-79760000D01*
X96433482Y-79757812D01*
X96553180Y-79721502D01*
X96663494Y-79662537D01*
X96760185Y-79583185D01*
X96839537Y-79486494D01*
X96898502Y-79376180D01*
X96934812Y-79256482D01*
X96947072Y-79132000D01*
X96947072Y-77332000D01*
X96934812Y-77207518D01*
X96898502Y-77087820D01*
X96865993Y-77027000D01*
X96905486Y-77027000D01*
X97163405Y-76975696D01*
X97406359Y-76875061D01*
X97625013Y-76728962D01*
X97810962Y-76543013D01*
X97957061Y-76324359D01*
X98057696Y-76081405D01*
X98109000Y-75823486D01*
X98109000Y-75560514D01*
X98057696Y-75302595D01*
X98042538Y-75266000D01*
X98943928Y-75266000D01*
X98943928Y-76191000D01*
X98960992Y-76364254D01*
X99011528Y-76530850D01*
X99093595Y-76684386D01*
X99204038Y-76818962D01*
X99338614Y-76929405D01*
X99492150Y-77011472D01*
X99658746Y-77062008D01*
X99832000Y-77079072D01*
X101082000Y-77079072D01*
X101255254Y-77062008D01*
X101421850Y-77011472D01*
X101575386Y-76929405D01*
X101709962Y-76818962D01*
X101820405Y-76684386D01*
X101902472Y-76530850D01*
X101953008Y-76364254D01*
X101970072Y-76191000D01*
X101970072Y-75640344D01*
X106172000Y-75640344D01*
X106172000Y-76011656D01*
X106244439Y-76375834D01*
X106386534Y-76718882D01*
X106592825Y-77027618D01*
X106855382Y-77290175D01*
X107164118Y-77496466D01*
X107507166Y-77638561D01*
X107871344Y-77711000D01*
X108242656Y-77711000D01*
X108606834Y-77638561D01*
X108949882Y-77496466D01*
X109258618Y-77290175D01*
X109521175Y-77027618D01*
X109727466Y-76718882D01*
X109869561Y-76375834D01*
X109942000Y-76011656D01*
X109942000Y-75640344D01*
X109869561Y-75276166D01*
X109727466Y-74933118D01*
X109521175Y-74624382D01*
X109258618Y-74361825D01*
X108949882Y-74155534D01*
X108606834Y-74013439D01*
X108242656Y-73941000D01*
X107871344Y-73941000D01*
X107507166Y-74013439D01*
X107164118Y-74155534D01*
X106855382Y-74361825D01*
X106592825Y-74624382D01*
X106386534Y-74933118D01*
X106244439Y-75276166D01*
X106172000Y-75640344D01*
X101970072Y-75640344D01*
X101970072Y-75266000D01*
X101953008Y-75092746D01*
X101902472Y-74926150D01*
X101820405Y-74772614D01*
X101709962Y-74638038D01*
X101575386Y-74527595D01*
X101421850Y-74445528D01*
X101255254Y-74394992D01*
X101217000Y-74391224D01*
X101217000Y-73466801D01*
X101639802Y-73044000D01*
X101701939Y-73044000D01*
X101901898Y-73004226D01*
X102090256Y-72926205D01*
X102259774Y-72812937D01*
X102403937Y-72668774D01*
X102517205Y-72499256D01*
X102595226Y-72310898D01*
X102635000Y-72110939D01*
X102635000Y-71907061D01*
X102595226Y-71707102D01*
X102517205Y-71518744D01*
X102403937Y-71349226D01*
X102259774Y-71205063D01*
X102090256Y-71091795D01*
X101901898Y-71013774D01*
X101701939Y-70974000D01*
X101498061Y-70974000D01*
X101298102Y-71013774D01*
X101109744Y-71091795D01*
X100940226Y-71205063D01*
X100796063Y-71349226D01*
X100682795Y-71518744D01*
X100604774Y-71707102D01*
X100565000Y-71907061D01*
X100565000Y-71969198D01*
X99945998Y-72588201D01*
X99917000Y-72611999D01*
X99893202Y-72640997D01*
X99893201Y-72640998D01*
X99822026Y-72727724D01*
X99751454Y-72859754D01*
X99707998Y-73003015D01*
X99693324Y-73152000D01*
X99697001Y-73189332D01*
X99697000Y-74391224D01*
X99658746Y-74394992D01*
X99492150Y-74445528D01*
X99338614Y-74527595D01*
X99204038Y-74638038D01*
X99093595Y-74772614D01*
X99011528Y-74926150D01*
X98960992Y-75092746D01*
X98943928Y-75266000D01*
X98042538Y-75266000D01*
X97957061Y-75059641D01*
X97810962Y-74840987D01*
X97625013Y-74655038D01*
X97406359Y-74508939D01*
X97163405Y-74408304D01*
X96905486Y-74357000D01*
X96642514Y-74357000D01*
X96384595Y-74408304D01*
X96141641Y-74508939D01*
X95922987Y-74655038D01*
X95737038Y-74840987D01*
X95590939Y-75059641D01*
X95490304Y-75302595D01*
X95439000Y-75560514D01*
X95439000Y-75627198D01*
X94547998Y-76518201D01*
X94519000Y-76541999D01*
X94495202Y-76570997D01*
X94495201Y-76570998D01*
X94424026Y-76657724D01*
X94404674Y-76693928D01*
X93809000Y-76693928D01*
X93684518Y-76706188D01*
X93564820Y-76742498D01*
X93454506Y-76801463D01*
X93357815Y-76880815D01*
X93278463Y-76977506D01*
X93219498Y-77087820D01*
X93183188Y-77207518D01*
X93170928Y-77332000D01*
X93170928Y-79132000D01*
X93183188Y-79256482D01*
X93219498Y-79376180D01*
X93278463Y-79486494D01*
X93357815Y-79583185D01*
X93454506Y-79662537D01*
X93564820Y-79721502D01*
X93684518Y-79757812D01*
X93706734Y-79760000D01*
X92411266Y-79760000D01*
X92433482Y-79757812D01*
X92553180Y-79721502D01*
X92663494Y-79662537D01*
X92760185Y-79583185D01*
X92839537Y-79486494D01*
X92898502Y-79376180D01*
X92934812Y-79256482D01*
X92947072Y-79132000D01*
X92947072Y-77332000D01*
X92934812Y-77207518D01*
X92898502Y-77087820D01*
X92839537Y-76977506D01*
X92760185Y-76880815D01*
X92663494Y-76801463D01*
X92553180Y-76742498D01*
X92433482Y-76706188D01*
X92309000Y-76693928D01*
X90412635Y-76693928D01*
X90443502Y-76636180D01*
X90479812Y-76516482D01*
X90492072Y-76392000D01*
X90492072Y-74992000D01*
X90479812Y-74867518D01*
X90443502Y-74747820D01*
X90384537Y-74637506D01*
X90305185Y-74540815D01*
X90208494Y-74461463D01*
X90098180Y-74402498D01*
X89978482Y-74366188D01*
X89854000Y-74353928D01*
X88454000Y-74353928D01*
X88329518Y-74366188D01*
X88209820Y-74402498D01*
X88099506Y-74461463D01*
X88002815Y-74540815D01*
X87923463Y-74637506D01*
X87864498Y-74747820D01*
X87828188Y-74867518D01*
X87815928Y-74992000D01*
X87815928Y-76392000D01*
X87828188Y-76516482D01*
X87864498Y-76636180D01*
X87923463Y-76746494D01*
X87977316Y-76812114D01*
X87954470Y-76839951D01*
X87790000Y-77004421D01*
X87790000Y-69390278D01*
X87814748Y-69137872D01*
X88451000Y-69137872D01*
X88451000Y-69578128D01*
X88536890Y-70009925D01*
X88705369Y-70416669D01*
X88949962Y-70782729D01*
X89261271Y-71094038D01*
X89627331Y-71338631D01*
X90034075Y-71507110D01*
X90465872Y-71593000D01*
X90906128Y-71593000D01*
X91337925Y-71507110D01*
X91744669Y-71338631D01*
X92110729Y-71094038D01*
X92422038Y-70782729D01*
X92666631Y-70416669D01*
X92674432Y-70397835D01*
X114939000Y-70397835D01*
X114939000Y-70572165D01*
X114973010Y-70743145D01*
X115039723Y-70904205D01*
X115136576Y-71049155D01*
X115259845Y-71172424D01*
X115404795Y-71269277D01*
X115565855Y-71335990D01*
X115608714Y-71344515D01*
X121011124Y-76746926D01*
X120897581Y-76686236D01*
X120636507Y-76607040D01*
X120365000Y-76580299D01*
X120093494Y-76607040D01*
X119832420Y-76686236D01*
X119591813Y-76814843D01*
X119380920Y-76987919D01*
X119207843Y-77198812D01*
X119079236Y-77439419D01*
X119000040Y-77700493D01*
X118980000Y-77903963D01*
X118980000Y-78560036D01*
X119000040Y-78763506D01*
X119079236Y-79024580D01*
X119207843Y-79265187D01*
X119380919Y-79476080D01*
X119591812Y-79649157D01*
X119832419Y-79777764D01*
X120093493Y-79856960D01*
X120365000Y-79883701D01*
X120636506Y-79856960D01*
X120897580Y-79777764D01*
X121138187Y-79649157D01*
X121349080Y-79476081D01*
X121522157Y-79265188D01*
X121650764Y-79024581D01*
X121729960Y-78763507D01*
X121750000Y-78560037D01*
X121750000Y-77903964D01*
X121729960Y-77700494D01*
X121650764Y-77439419D01*
X121590074Y-77325876D01*
X121632243Y-77368045D01*
X121656042Y-77397044D01*
X121771767Y-77492017D01*
X121903796Y-77562589D01*
X122030238Y-77600944D01*
X122000040Y-77700493D01*
X121980000Y-77903963D01*
X121980000Y-78560036D01*
X122000040Y-78763506D01*
X122079236Y-79024580D01*
X122207843Y-79265187D01*
X122380919Y-79476080D01*
X122591812Y-79649157D01*
X122832419Y-79777764D01*
X123093493Y-79856960D01*
X123365000Y-79883701D01*
X123636506Y-79856960D01*
X123897580Y-79777764D01*
X124138187Y-79649157D01*
X124349080Y-79476081D01*
X124522157Y-79265188D01*
X124650764Y-79024581D01*
X124729960Y-78763507D01*
X124750000Y-78560037D01*
X124750000Y-77903964D01*
X124729960Y-77700494D01*
X124704645Y-77617043D01*
X124976928Y-77617043D01*
X124976928Y-78992000D01*
X124993992Y-79165254D01*
X125044528Y-79331850D01*
X125126595Y-79485386D01*
X125237038Y-79619962D01*
X125371614Y-79730405D01*
X125525150Y-79812472D01*
X125691746Y-79863008D01*
X125865000Y-79880072D01*
X126865000Y-79880072D01*
X127038254Y-79863008D01*
X127204850Y-79812472D01*
X127358386Y-79730405D01*
X127492962Y-79619962D01*
X127603405Y-79485386D01*
X127685472Y-79331850D01*
X127736008Y-79165254D01*
X127753072Y-78992000D01*
X127753072Y-77617043D01*
X133692242Y-77617043D01*
X133718415Y-77643216D01*
X133701040Y-77700493D01*
X133681000Y-77903963D01*
X133681000Y-78560036D01*
X133701040Y-78763506D01*
X133780236Y-79024580D01*
X133908843Y-79265187D01*
X133932089Y-79293512D01*
X133898506Y-79311463D01*
X133801815Y-79390815D01*
X133722463Y-79487506D01*
X133663498Y-79597820D01*
X133627188Y-79717518D01*
X133614928Y-79842000D01*
X133618000Y-80268750D01*
X133776750Y-80427500D01*
X135001000Y-80427500D01*
X135001000Y-80407500D01*
X135255000Y-80407500D01*
X135255000Y-80427500D01*
X136479250Y-80427500D01*
X136588500Y-80318250D01*
X136697750Y-80427500D01*
X137922000Y-80427500D01*
X137922000Y-80407500D01*
X138176000Y-80407500D01*
X138176000Y-80427500D01*
X139400250Y-80427500D01*
X139559000Y-80268750D01*
X139562072Y-79842000D01*
X139549812Y-79717518D01*
X139513502Y-79597820D01*
X139454537Y-79487506D01*
X139375185Y-79390815D01*
X139278494Y-79311463D01*
X139213633Y-79276793D01*
X139223157Y-79265188D01*
X139351764Y-79024581D01*
X139430960Y-78763507D01*
X139439186Y-78679988D01*
X139502201Y-78743003D01*
X139525999Y-78772001D01*
X139641724Y-78866974D01*
X139749980Y-78924839D01*
X139780236Y-79024580D01*
X139908843Y-79265187D01*
X139922637Y-79281995D01*
X139867506Y-79311463D01*
X139770815Y-79390815D01*
X139691463Y-79487506D01*
X139632498Y-79597820D01*
X139596188Y-79717518D01*
X139583928Y-79842000D01*
X139587000Y-80268750D01*
X139745750Y-80427500D01*
X140970000Y-80427500D01*
X140970000Y-80407500D01*
X141224000Y-80407500D01*
X141224000Y-80427500D01*
X142448250Y-80427500D01*
X142607000Y-80268750D01*
X142610072Y-79842000D01*
X142597812Y-79717518D01*
X142561502Y-79597820D01*
X142502537Y-79487506D01*
X142423185Y-79390815D01*
X142326494Y-79311463D01*
X142226882Y-79258219D01*
X142351764Y-79024581D01*
X142430960Y-78763507D01*
X142439186Y-78679989D01*
X142502205Y-78743008D01*
X142525999Y-78772001D01*
X142554992Y-78795795D01*
X142554996Y-78795799D01*
X142572966Y-78810546D01*
X142641724Y-78866974D01*
X142749980Y-78924839D01*
X142780236Y-79024580D01*
X142908843Y-79265187D01*
X142937273Y-79299828D01*
X142915506Y-79311463D01*
X142818815Y-79390815D01*
X142739463Y-79487506D01*
X142680498Y-79597820D01*
X142644188Y-79717518D01*
X142631928Y-79842000D01*
X142635000Y-80268750D01*
X142793750Y-80427500D01*
X144018000Y-80427500D01*
X144018000Y-80407500D01*
X144272000Y-80407500D01*
X144272000Y-80427500D01*
X145496250Y-80427500D01*
X145605500Y-80318250D01*
X145714750Y-80427500D01*
X146939000Y-80427500D01*
X146939000Y-80407500D01*
X147193000Y-80407500D01*
X147193000Y-80427500D01*
X148417250Y-80427500D01*
X148576000Y-80268750D01*
X148577452Y-80066916D01*
X148796000Y-80066916D01*
X148796000Y-80317084D01*
X148844805Y-80562445D01*
X148940541Y-80793571D01*
X149079527Y-81001578D01*
X149256422Y-81178473D01*
X149464429Y-81317459D01*
X149695555Y-81413195D01*
X149940916Y-81462000D01*
X150191084Y-81462000D01*
X150436445Y-81413195D01*
X150667571Y-81317459D01*
X150875578Y-81178473D01*
X151052473Y-81001578D01*
X151191459Y-80793571D01*
X151287195Y-80562445D01*
X151336000Y-80317084D01*
X151336000Y-80066916D01*
X151287195Y-79821555D01*
X151191459Y-79590429D01*
X151052473Y-79382422D01*
X150875578Y-79205527D01*
X150667571Y-79066541D01*
X150436445Y-78970805D01*
X150191084Y-78922000D01*
X149940916Y-78922000D01*
X149695555Y-78970805D01*
X149464429Y-79066541D01*
X149256422Y-79205527D01*
X149079527Y-79382422D01*
X148940541Y-79590429D01*
X148844805Y-79821555D01*
X148796000Y-80066916D01*
X148577452Y-80066916D01*
X148579072Y-79842000D01*
X148566812Y-79717518D01*
X148530502Y-79597820D01*
X148471537Y-79487506D01*
X148392185Y-79390815D01*
X148366306Y-79369577D01*
X148386472Y-79331850D01*
X148437008Y-79165254D01*
X148454072Y-78992000D01*
X148454072Y-77472000D01*
X148437008Y-77298746D01*
X148386472Y-77132150D01*
X148304405Y-76978614D01*
X148193962Y-76844038D01*
X148059386Y-76733595D01*
X147905850Y-76651528D01*
X147739254Y-76600992D01*
X147566000Y-76583928D01*
X146619730Y-76583928D01*
X144720576Y-74684775D01*
X144796518Y-74707812D01*
X144921000Y-74720072D01*
X145510250Y-74717000D01*
X145669000Y-74558250D01*
X145669000Y-73496500D01*
X145923000Y-73496500D01*
X145923000Y-74558250D01*
X146081750Y-74717000D01*
X146671000Y-74720072D01*
X146795482Y-74707812D01*
X146915180Y-74671502D01*
X147025494Y-74612537D01*
X147122185Y-74533185D01*
X147201537Y-74436494D01*
X147260502Y-74326180D01*
X147296812Y-74206482D01*
X147309072Y-74082000D01*
X147306000Y-73655250D01*
X147147250Y-73496500D01*
X145923000Y-73496500D01*
X145669000Y-73496500D01*
X144444750Y-73496500D01*
X144286000Y-73655250D01*
X144282928Y-74082000D01*
X144295188Y-74206482D01*
X144331498Y-74326180D01*
X144358911Y-74377466D01*
X144310247Y-74351454D01*
X144213718Y-74322173D01*
X144248812Y-74206482D01*
X144261072Y-74082000D01*
X144258000Y-73655250D01*
X144099250Y-73496500D01*
X142875000Y-73496500D01*
X142875000Y-73516500D01*
X142621000Y-73516500D01*
X142621000Y-73496500D01*
X141396750Y-73496500D01*
X141238000Y-73655250D01*
X141234928Y-74082000D01*
X141247188Y-74206482D01*
X141274646Y-74297000D01*
X141173354Y-74297000D01*
X141200812Y-74206482D01*
X141213072Y-74082000D01*
X141210000Y-73655250D01*
X141051250Y-73496500D01*
X139827000Y-73496500D01*
X139827000Y-73516500D01*
X139573000Y-73516500D01*
X139573000Y-73496500D01*
X138348750Y-73496500D01*
X138190000Y-73655250D01*
X138186928Y-74082000D01*
X138199188Y-74206482D01*
X138226646Y-74297000D01*
X138125354Y-74297000D01*
X138152812Y-74206482D01*
X138165072Y-74082000D01*
X138162000Y-73655250D01*
X138003250Y-73496500D01*
X136779000Y-73496500D01*
X136779000Y-73516500D01*
X136525000Y-73516500D01*
X136525000Y-73496500D01*
X135300750Y-73496500D01*
X135191500Y-73605750D01*
X135082250Y-73496500D01*
X133858000Y-73496500D01*
X133858000Y-73516500D01*
X133604000Y-73516500D01*
X133604000Y-73496500D01*
X132379750Y-73496500D01*
X132354302Y-73521948D01*
X131489354Y-72657000D01*
X132217928Y-72657000D01*
X132221000Y-73083750D01*
X132379750Y-73242500D01*
X133604000Y-73242500D01*
X133604000Y-72180750D01*
X133858000Y-72180750D01*
X133858000Y-73242500D01*
X135082250Y-73242500D01*
X135191500Y-73133250D01*
X135300750Y-73242500D01*
X136525000Y-73242500D01*
X136525000Y-72180750D01*
X136779000Y-72180750D01*
X136779000Y-73242500D01*
X138003250Y-73242500D01*
X138162000Y-73083750D01*
X138165072Y-72657000D01*
X138186928Y-72657000D01*
X138190000Y-73083750D01*
X138348750Y-73242500D01*
X139573000Y-73242500D01*
X139573000Y-72180750D01*
X139827000Y-72180750D01*
X139827000Y-73242500D01*
X141051250Y-73242500D01*
X141210000Y-73083750D01*
X141213072Y-72657000D01*
X141234928Y-72657000D01*
X141238000Y-73083750D01*
X141396750Y-73242500D01*
X142621000Y-73242500D01*
X142621000Y-72180750D01*
X142875000Y-72180750D01*
X142875000Y-73242500D01*
X144099250Y-73242500D01*
X144258000Y-73083750D01*
X144261072Y-72657000D01*
X144282928Y-72657000D01*
X144286000Y-73083750D01*
X144444750Y-73242500D01*
X145669000Y-73242500D01*
X145669000Y-72180750D01*
X145923000Y-72180750D01*
X145923000Y-73242500D01*
X147147250Y-73242500D01*
X147306000Y-73083750D01*
X147309072Y-72657000D01*
X147296812Y-72532518D01*
X147260502Y-72412820D01*
X147201537Y-72302506D01*
X147122185Y-72205815D01*
X147025494Y-72126463D01*
X146915180Y-72067498D01*
X146795482Y-72031188D01*
X146671000Y-72018928D01*
X146081750Y-72022000D01*
X145923000Y-72180750D01*
X145669000Y-72180750D01*
X145510250Y-72022000D01*
X144921000Y-72018928D01*
X144796518Y-72031188D01*
X144676820Y-72067498D01*
X144566506Y-72126463D01*
X144469815Y-72205815D01*
X144390463Y-72302506D01*
X144331498Y-72412820D01*
X144295188Y-72532518D01*
X144282928Y-72657000D01*
X144261072Y-72657000D01*
X144248812Y-72532518D01*
X144212502Y-72412820D01*
X144153537Y-72302506D01*
X144074185Y-72205815D01*
X143977494Y-72126463D01*
X143867180Y-72067498D01*
X143747482Y-72031188D01*
X143623000Y-72018928D01*
X143033750Y-72022000D01*
X142875000Y-72180750D01*
X142621000Y-72180750D01*
X142462250Y-72022000D01*
X141873000Y-72018928D01*
X141748518Y-72031188D01*
X141628820Y-72067498D01*
X141518506Y-72126463D01*
X141421815Y-72205815D01*
X141342463Y-72302506D01*
X141283498Y-72412820D01*
X141247188Y-72532518D01*
X141234928Y-72657000D01*
X141213072Y-72657000D01*
X141200812Y-72532518D01*
X141164502Y-72412820D01*
X141105537Y-72302506D01*
X141026185Y-72205815D01*
X140929494Y-72126463D01*
X140819180Y-72067498D01*
X140699482Y-72031188D01*
X140575000Y-72018928D01*
X139985750Y-72022000D01*
X139827000Y-72180750D01*
X139573000Y-72180750D01*
X139414250Y-72022000D01*
X138825000Y-72018928D01*
X138700518Y-72031188D01*
X138580820Y-72067498D01*
X138470506Y-72126463D01*
X138373815Y-72205815D01*
X138294463Y-72302506D01*
X138235498Y-72412820D01*
X138199188Y-72532518D01*
X138186928Y-72657000D01*
X138165072Y-72657000D01*
X138152812Y-72532518D01*
X138116502Y-72412820D01*
X138057537Y-72302506D01*
X137978185Y-72205815D01*
X137881494Y-72126463D01*
X137771180Y-72067498D01*
X137651482Y-72031188D01*
X137527000Y-72018928D01*
X136937750Y-72022000D01*
X136779000Y-72180750D01*
X136525000Y-72180750D01*
X136366250Y-72022000D01*
X135777000Y-72018928D01*
X135652518Y-72031188D01*
X135532820Y-72067498D01*
X135422506Y-72126463D01*
X135325815Y-72205815D01*
X135246463Y-72302506D01*
X135191500Y-72405333D01*
X135136537Y-72302506D01*
X135057185Y-72205815D01*
X134960494Y-72126463D01*
X134850180Y-72067498D01*
X134730482Y-72031188D01*
X134606000Y-72018928D01*
X134016750Y-72022000D01*
X133858000Y-72180750D01*
X133604000Y-72180750D01*
X133445250Y-72022000D01*
X132856000Y-72018928D01*
X132731518Y-72031188D01*
X132611820Y-72067498D01*
X132501506Y-72126463D01*
X132404815Y-72205815D01*
X132325463Y-72302506D01*
X132266498Y-72412820D01*
X132230188Y-72532518D01*
X132217928Y-72657000D01*
X131489354Y-72657000D01*
X128933357Y-70101003D01*
X128909554Y-70071999D01*
X128793829Y-69977026D01*
X128709593Y-69932000D01*
X132217928Y-69932000D01*
X132217928Y-70857000D01*
X132234992Y-71030254D01*
X132285528Y-71196850D01*
X132367595Y-71350386D01*
X132478038Y-71484962D01*
X132612614Y-71595405D01*
X132766150Y-71677472D01*
X132932746Y-71728008D01*
X133106000Y-71745072D01*
X134356000Y-71745072D01*
X134529254Y-71728008D01*
X134695850Y-71677472D01*
X134849386Y-71595405D01*
X134983962Y-71484962D01*
X135094405Y-71350386D01*
X135176472Y-71196850D01*
X135191500Y-71147309D01*
X135206528Y-71196850D01*
X135288595Y-71350386D01*
X135399038Y-71484962D01*
X135533614Y-71595405D01*
X135687150Y-71677472D01*
X135853746Y-71728008D01*
X136027000Y-71745072D01*
X137277000Y-71745072D01*
X137450254Y-71728008D01*
X137616850Y-71677472D01*
X137770386Y-71595405D01*
X137904962Y-71484962D01*
X138015405Y-71350386D01*
X138097472Y-71196850D01*
X138148008Y-71030254D01*
X138152389Y-70985773D01*
X138198704Y-70976560D01*
X138203992Y-71030254D01*
X138254528Y-71196850D01*
X138336595Y-71350386D01*
X138447038Y-71484962D01*
X138581614Y-71595405D01*
X138735150Y-71677472D01*
X138901746Y-71728008D01*
X139075000Y-71745072D01*
X140325000Y-71745072D01*
X140498254Y-71728008D01*
X140664850Y-71677472D01*
X140818386Y-71595405D01*
X140952962Y-71484962D01*
X141063405Y-71350386D01*
X141145472Y-71196850D01*
X141196008Y-71030254D01*
X141200389Y-70985773D01*
X141246704Y-70976560D01*
X141251992Y-71030254D01*
X141302528Y-71196850D01*
X141384595Y-71350386D01*
X141495038Y-71484962D01*
X141629614Y-71595405D01*
X141783150Y-71677472D01*
X141949746Y-71728008D01*
X142123000Y-71745072D01*
X143373000Y-71745072D01*
X143546254Y-71728008D01*
X143712850Y-71677472D01*
X143866386Y-71595405D01*
X144000962Y-71484962D01*
X144111405Y-71350386D01*
X144193472Y-71196850D01*
X144244008Y-71030254D01*
X144248389Y-70985773D01*
X144294704Y-70976560D01*
X144299992Y-71030254D01*
X144350528Y-71196850D01*
X144432595Y-71350386D01*
X144543038Y-71484962D01*
X144677614Y-71595405D01*
X144831150Y-71677472D01*
X144997746Y-71728008D01*
X145171000Y-71745072D01*
X146421000Y-71745072D01*
X146594254Y-71728008D01*
X146760850Y-71677472D01*
X146914386Y-71595405D01*
X147048962Y-71484962D01*
X147159405Y-71350386D01*
X147241472Y-71196850D01*
X147292008Y-71030254D01*
X147309072Y-70857000D01*
X147309072Y-69932000D01*
X147292008Y-69758746D01*
X147241472Y-69592150D01*
X147159405Y-69438614D01*
X147048962Y-69304038D01*
X146914386Y-69193595D01*
X146810136Y-69137872D01*
X148451000Y-69137872D01*
X148451000Y-69578128D01*
X148536890Y-70009925D01*
X148705369Y-70416669D01*
X148949962Y-70782729D01*
X149261271Y-71094038D01*
X149627331Y-71338631D01*
X150034075Y-71507110D01*
X150465872Y-71593000D01*
X150906128Y-71593000D01*
X151337925Y-71507110D01*
X151744669Y-71338631D01*
X152110729Y-71094038D01*
X152422038Y-70782729D01*
X152666631Y-70416669D01*
X152835110Y-70009925D01*
X152921000Y-69578128D01*
X152921000Y-69137872D01*
X152835110Y-68706075D01*
X152666631Y-68299331D01*
X152422038Y-67933271D01*
X152110729Y-67621962D01*
X151744669Y-67377369D01*
X151337925Y-67208890D01*
X150906128Y-67123000D01*
X150465872Y-67123000D01*
X150034075Y-67208890D01*
X149627331Y-67377369D01*
X149261271Y-67621962D01*
X148949962Y-67933271D01*
X148705369Y-68299331D01*
X148536890Y-68706075D01*
X148451000Y-69137872D01*
X146810136Y-69137872D01*
X146760850Y-69111528D01*
X146618000Y-69068195D01*
X146618000Y-69044835D01*
X146583990Y-68873855D01*
X146517277Y-68712795D01*
X146420424Y-68567845D01*
X146297155Y-68444576D01*
X146152205Y-68347723D01*
X145991145Y-68281010D01*
X145820165Y-68247000D01*
X145645835Y-68247000D01*
X145474855Y-68281010D01*
X145313795Y-68347723D01*
X145168845Y-68444576D01*
X145045576Y-68567845D01*
X144948723Y-68712795D01*
X144882010Y-68873855D01*
X144848000Y-69044835D01*
X144848000Y-69106417D01*
X144831150Y-69111528D01*
X144677614Y-69193595D01*
X144543038Y-69304038D01*
X144538801Y-69309200D01*
X144403145Y-69253010D01*
X144232165Y-69219000D01*
X144057835Y-69219000D01*
X143928653Y-69244696D01*
X143866386Y-69193595D01*
X143712850Y-69111528D01*
X143546254Y-69060992D01*
X143373000Y-69043928D01*
X142123000Y-69043928D01*
X141949746Y-69060992D01*
X141783150Y-69111528D01*
X141629614Y-69193595D01*
X141495038Y-69304038D01*
X141490801Y-69309200D01*
X141355145Y-69253010D01*
X141184165Y-69219000D01*
X141009835Y-69219000D01*
X140880653Y-69244696D01*
X140818386Y-69193595D01*
X140664850Y-69111528D01*
X140498254Y-69060992D01*
X140325000Y-69043928D01*
X139075000Y-69043928D01*
X138901746Y-69060992D01*
X138735150Y-69111528D01*
X138581614Y-69193595D01*
X138447038Y-69304038D01*
X138442801Y-69309200D01*
X138307145Y-69253010D01*
X138136165Y-69219000D01*
X137961835Y-69219000D01*
X137832653Y-69244696D01*
X137770386Y-69193595D01*
X137616850Y-69111528D01*
X137450254Y-69060992D01*
X137277000Y-69043928D01*
X136027000Y-69043928D01*
X135853746Y-69060992D01*
X135687150Y-69111528D01*
X135533614Y-69193595D01*
X135436035Y-69273675D01*
X135386145Y-69253010D01*
X135215165Y-69219000D01*
X135040835Y-69219000D01*
X134911653Y-69244696D01*
X134849386Y-69193595D01*
X134695850Y-69111528D01*
X134529254Y-69060992D01*
X134356000Y-69043928D01*
X133106000Y-69043928D01*
X132932746Y-69060992D01*
X132766150Y-69111528D01*
X132612614Y-69193595D01*
X132478038Y-69304038D01*
X132367595Y-69438614D01*
X132285528Y-69592150D01*
X132234992Y-69758746D01*
X132217928Y-69932000D01*
X128709593Y-69932000D01*
X128661800Y-69906454D01*
X128518539Y-69862997D01*
X128482715Y-69859469D01*
X128435205Y-69827723D01*
X128274145Y-69761010D01*
X128103165Y-69727000D01*
X127928835Y-69727000D01*
X127757855Y-69761010D01*
X127596795Y-69827723D01*
X127451845Y-69924576D01*
X127328576Y-70047845D01*
X127231723Y-70192795D01*
X127165010Y-70353855D01*
X127131000Y-70524835D01*
X127131000Y-70699165D01*
X127165010Y-70870145D01*
X127231723Y-71031205D01*
X127328576Y-71176155D01*
X127451845Y-71299424D01*
X127596795Y-71396277D01*
X127757855Y-71462990D01*
X127928835Y-71497000D01*
X128103165Y-71497000D01*
X128167045Y-71484293D01*
X131429762Y-74747011D01*
X130304813Y-74747011D01*
X125827515Y-70269714D01*
X125818990Y-70226855D01*
X125752277Y-70065795D01*
X125655424Y-69920845D01*
X125532155Y-69797576D01*
X125387205Y-69700723D01*
X125226145Y-69634010D01*
X125055165Y-69600000D01*
X124880835Y-69600000D01*
X124709855Y-69634010D01*
X124548795Y-69700723D01*
X124403845Y-69797576D01*
X124280576Y-69920845D01*
X124183723Y-70065795D01*
X124117010Y-70226855D01*
X124083000Y-70397835D01*
X124083000Y-70572165D01*
X124117010Y-70743145D01*
X124183723Y-70904205D01*
X124280576Y-71049155D01*
X124403845Y-71172424D01*
X124548795Y-71269277D01*
X124709855Y-71335990D01*
X124752714Y-71344515D01*
X128605220Y-75197022D01*
X127706824Y-75197022D01*
X122779515Y-70269714D01*
X122770990Y-70226855D01*
X122704277Y-70065795D01*
X122607424Y-69920845D01*
X122484155Y-69797576D01*
X122339205Y-69700723D01*
X122178145Y-69634010D01*
X122007165Y-69600000D01*
X121832835Y-69600000D01*
X121661855Y-69634010D01*
X121500795Y-69700723D01*
X121355845Y-69797576D01*
X121232576Y-69920845D01*
X121135723Y-70065795D01*
X121069010Y-70226855D01*
X121035000Y-70397835D01*
X121035000Y-70572165D01*
X121069010Y-70743145D01*
X121135723Y-70904205D01*
X121232576Y-71049155D01*
X121355845Y-71172424D01*
X121500795Y-71269277D01*
X121661855Y-71335990D01*
X121704714Y-71344515D01*
X126007231Y-75647033D01*
X125108836Y-75647033D01*
X119731515Y-70269714D01*
X119722990Y-70226855D01*
X119656277Y-70065795D01*
X119559424Y-69920845D01*
X119436155Y-69797576D01*
X119291205Y-69700723D01*
X119130145Y-69634010D01*
X118959165Y-69600000D01*
X118784835Y-69600000D01*
X118613855Y-69634010D01*
X118452795Y-69700723D01*
X118307845Y-69797576D01*
X118184576Y-69920845D01*
X118087723Y-70065795D01*
X118021010Y-70226855D01*
X117987000Y-70397835D01*
X117987000Y-70572165D01*
X118021010Y-70743145D01*
X118087723Y-70904205D01*
X118184576Y-71049155D01*
X118307845Y-71172424D01*
X118452795Y-71269277D01*
X118613855Y-71335990D01*
X118656714Y-71344515D01*
X123409240Y-76097043D01*
X122510845Y-76097043D01*
X116683515Y-70269714D01*
X116674990Y-70226855D01*
X116608277Y-70065795D01*
X116511424Y-69920845D01*
X116388155Y-69797576D01*
X116243205Y-69700723D01*
X116082145Y-69634010D01*
X115911165Y-69600000D01*
X115736835Y-69600000D01*
X115565855Y-69634010D01*
X115404795Y-69700723D01*
X115259845Y-69797576D01*
X115136576Y-69920845D01*
X115039723Y-70065795D01*
X114973010Y-70226855D01*
X114939000Y-70397835D01*
X92674432Y-70397835D01*
X92835110Y-70009925D01*
X92921000Y-69578128D01*
X92921000Y-69137872D01*
X92835110Y-68706075D01*
X92666631Y-68299331D01*
X92422038Y-67933271D01*
X92110729Y-67621962D01*
X91744669Y-67377369D01*
X91337925Y-67208890D01*
X90906128Y-67123000D01*
X90465872Y-67123000D01*
X90034075Y-67208890D01*
X89627331Y-67377369D01*
X89261271Y-67621962D01*
X88949962Y-67933271D01*
X88705369Y-68299331D01*
X88536890Y-68706075D01*
X88451000Y-69137872D01*
X87814748Y-69137872D01*
X87848258Y-68796114D01*
X88011442Y-68255624D01*
X88276494Y-67757133D01*
X88633326Y-67319612D01*
X89068350Y-66959729D01*
X89564983Y-66691201D01*
X90104315Y-66524251D01*
X90696596Y-66462000D01*
X150653722Y-66462000D01*
X151247886Y-66520258D01*
M02*
