G04 #@! TF.GenerationSoftware,KiCad,Pcbnew,(5.1.6)-1*
G04 #@! TF.CreationDate,2021-06-24T15:15:02+10:00*
G04 #@! TF.ProjectId,BSPD,42535044-2e6b-4696-9361-645f70636258,rev?*
G04 #@! TF.SameCoordinates,Original*
G04 #@! TF.FileFunction,Legend,Bot*
G04 #@! TF.FilePolarity,Positive*
%FSLAX46Y46*%
G04 Gerber Fmt 4.6, Leading zero omitted, Abs format (unit mm)*
G04 Created by KiCad (PCBNEW (5.1.6)-1) date 2021-06-24 15:15:02*
%MOMM*%
%LPD*%
G01*
G04 APERTURE LIST*
%ADD10C,0.150000*%
%ADD11C,0.120000*%
G04 APERTURE END LIST*
D10*
X111599071Y-133152571D02*
X111456214Y-133200190D01*
X111408595Y-133247809D01*
X111360976Y-133343047D01*
X111360976Y-133485904D01*
X111408595Y-133581142D01*
X111456214Y-133628761D01*
X111551452Y-133676380D01*
X111932404Y-133676380D01*
X111932404Y-132676380D01*
X111599071Y-132676380D01*
X111503833Y-132724000D01*
X111456214Y-132771619D01*
X111408595Y-132866857D01*
X111408595Y-132962095D01*
X111456214Y-133057333D01*
X111503833Y-133104952D01*
X111599071Y-133152571D01*
X111932404Y-133152571D01*
X110980023Y-133628761D02*
X110837166Y-133676380D01*
X110599071Y-133676380D01*
X110503833Y-133628761D01*
X110456214Y-133581142D01*
X110408595Y-133485904D01*
X110408595Y-133390666D01*
X110456214Y-133295428D01*
X110503833Y-133247809D01*
X110599071Y-133200190D01*
X110789547Y-133152571D01*
X110884785Y-133104952D01*
X110932404Y-133057333D01*
X110980023Y-132962095D01*
X110980023Y-132866857D01*
X110932404Y-132771619D01*
X110884785Y-132724000D01*
X110789547Y-132676380D01*
X110551452Y-132676380D01*
X110408595Y-132724000D01*
X109980023Y-133676380D02*
X109980023Y-132676380D01*
X109599071Y-132676380D01*
X109503833Y-132724000D01*
X109456214Y-132771619D01*
X109408595Y-132866857D01*
X109408595Y-133009714D01*
X109456214Y-133104952D01*
X109503833Y-133152571D01*
X109599071Y-133200190D01*
X109980023Y-133200190D01*
X108980023Y-133676380D02*
X108980023Y-132676380D01*
X108741928Y-132676380D01*
X108599071Y-132724000D01*
X108503833Y-132819238D01*
X108456214Y-132914476D01*
X108408595Y-133104952D01*
X108408595Y-133247809D01*
X108456214Y-133438285D01*
X108503833Y-133533523D01*
X108599071Y-133628761D01*
X108741928Y-133676380D01*
X108980023Y-133676380D01*
X107980023Y-133295428D02*
X107218119Y-133295428D01*
X106218119Y-133676380D02*
X106789547Y-133676380D01*
X106503833Y-133676380D02*
X106503833Y-132676380D01*
X106599071Y-132819238D01*
X106694309Y-132914476D01*
X106789547Y-132962095D01*
X105789547Y-133295428D02*
X105027642Y-133295428D01*
X104027642Y-133676380D02*
X104599071Y-133676380D01*
X104313357Y-133676380D02*
X104313357Y-132676380D01*
X104408595Y-132819238D01*
X104503833Y-132914476D01*
X104599071Y-132962095D01*
X103599071Y-133581142D02*
X103551452Y-133628761D01*
X103599071Y-133676380D01*
X103646690Y-133628761D01*
X103599071Y-133581142D01*
X103599071Y-133676380D01*
X102932404Y-132676380D02*
X102837166Y-132676380D01*
X102741928Y-132724000D01*
X102694309Y-132771619D01*
X102646690Y-132866857D01*
X102599071Y-133057333D01*
X102599071Y-133295428D01*
X102646690Y-133485904D01*
X102694309Y-133581142D01*
X102741928Y-133628761D01*
X102837166Y-133676380D01*
X102932404Y-133676380D01*
X103027642Y-133628761D01*
X103075261Y-133581142D01*
X103122880Y-133485904D01*
X103170500Y-133295428D01*
X103170500Y-133057333D01*
X103122880Y-132866857D01*
X103075261Y-132771619D01*
X103027642Y-132724000D01*
X102932404Y-132676380D01*
X102170500Y-133581142D02*
X102122880Y-133628761D01*
X102170500Y-133676380D01*
X102218119Y-133628761D01*
X102170500Y-133581142D01*
X102170500Y-133676380D01*
X101503833Y-132676380D02*
X101408595Y-132676380D01*
X101313357Y-132724000D01*
X101265738Y-132771619D01*
X101218119Y-132866857D01*
X101170500Y-133057333D01*
X101170500Y-133295428D01*
X101218119Y-133485904D01*
X101265738Y-133581142D01*
X101313357Y-133628761D01*
X101408595Y-133676380D01*
X101503833Y-133676380D01*
X101599071Y-133628761D01*
X101646690Y-133581142D01*
X101694309Y-133485904D01*
X101741928Y-133295428D01*
X101741928Y-133057333D01*
X101694309Y-132866857D01*
X101646690Y-132771619D01*
X101599071Y-132724000D01*
X101503833Y-132676380D01*
X111932404Y-135326380D02*
X111932404Y-134326380D01*
X111360976Y-135326380D01*
X111360976Y-134326380D01*
X110884785Y-134326380D02*
X110884785Y-135135904D01*
X110837166Y-135231142D01*
X110789547Y-135278761D01*
X110694309Y-135326380D01*
X110503833Y-135326380D01*
X110408595Y-135278761D01*
X110360976Y-135231142D01*
X110313357Y-135135904D01*
X110313357Y-134326380D01*
X109265738Y-135326380D02*
X109599071Y-134850190D01*
X109837166Y-135326380D02*
X109837166Y-134326380D01*
X109456214Y-134326380D01*
X109360976Y-134374000D01*
X109313357Y-134421619D01*
X109265738Y-134516857D01*
X109265738Y-134659714D01*
X109313357Y-134754952D01*
X109360976Y-134802571D01*
X109456214Y-134850190D01*
X109837166Y-134850190D01*
X108408595Y-135326380D02*
X108408595Y-134802571D01*
X108456214Y-134707333D01*
X108551452Y-134659714D01*
X108741928Y-134659714D01*
X108837166Y-134707333D01*
X108408595Y-135278761D02*
X108503833Y-135326380D01*
X108741928Y-135326380D01*
X108837166Y-135278761D01*
X108884785Y-135183523D01*
X108884785Y-135088285D01*
X108837166Y-134993047D01*
X108741928Y-134945428D01*
X108503833Y-134945428D01*
X108408595Y-134897809D01*
X107503833Y-135278761D02*
X107599071Y-135326380D01*
X107789547Y-135326380D01*
X107884785Y-135278761D01*
X107932404Y-135231142D01*
X107980023Y-135135904D01*
X107980023Y-134850190D01*
X107932404Y-134754952D01*
X107884785Y-134707333D01*
X107789547Y-134659714D01*
X107599071Y-134659714D01*
X107503833Y-134707333D01*
X107075261Y-135326380D02*
X107075261Y-134659714D01*
X107075261Y-134326380D02*
X107122880Y-134374000D01*
X107075261Y-134421619D01*
X107027642Y-134374000D01*
X107075261Y-134326380D01*
X107075261Y-134421619D01*
X106599071Y-134659714D02*
X106599071Y-135326380D01*
X106599071Y-134754952D02*
X106551452Y-134707333D01*
X106456214Y-134659714D01*
X106313357Y-134659714D01*
X106218119Y-134707333D01*
X106170500Y-134802571D01*
X106170500Y-135326380D01*
X105265738Y-134659714D02*
X105265738Y-135469238D01*
X105313357Y-135564476D01*
X105360976Y-135612095D01*
X105456214Y-135659714D01*
X105599071Y-135659714D01*
X105694309Y-135612095D01*
X105265738Y-135278761D02*
X105360976Y-135326380D01*
X105551452Y-135326380D01*
X105646690Y-135278761D01*
X105694309Y-135231142D01*
X105741928Y-135135904D01*
X105741928Y-134850190D01*
X105694309Y-134754952D01*
X105646690Y-134707333D01*
X105551452Y-134659714D01*
X105360976Y-134659714D01*
X105265738Y-134707333D01*
X111932404Y-136976380D02*
X111932404Y-135976380D01*
X111599071Y-136690666D01*
X111265738Y-135976380D01*
X111265738Y-136976380D01*
X110122880Y-135976380D02*
X109884785Y-136976380D01*
X109694309Y-136262095D01*
X109503833Y-136976380D01*
X109265738Y-135976380D01*
X108884785Y-136976380D02*
X108884785Y-135976380D01*
X108456214Y-136976380D02*
X108456214Y-136452571D01*
X108503833Y-136357333D01*
X108599071Y-136309714D01*
X108741928Y-136309714D01*
X108837166Y-136357333D01*
X108884785Y-136404952D01*
X107980023Y-136976380D02*
X107980023Y-136309714D01*
X107980023Y-135976380D02*
X108027642Y-136024000D01*
X107980023Y-136071619D01*
X107932404Y-136024000D01*
X107980023Y-135976380D01*
X107980023Y-136071619D01*
X107646690Y-136309714D02*
X107265738Y-136309714D01*
X107503833Y-135976380D02*
X107503833Y-136833523D01*
X107456214Y-136928761D01*
X107360976Y-136976380D01*
X107265738Y-136976380D01*
X107027642Y-136309714D02*
X106837166Y-136976380D01*
X106646690Y-136500190D01*
X106456214Y-136976380D01*
X106265738Y-136309714D01*
X105741928Y-136976380D02*
X105837166Y-136928761D01*
X105884785Y-136881142D01*
X105932404Y-136785904D01*
X105932404Y-136500190D01*
X105884785Y-136404952D01*
X105837166Y-136357333D01*
X105741928Y-136309714D01*
X105599071Y-136309714D01*
X105503833Y-136357333D01*
X105456214Y-136404952D01*
X105408595Y-136500190D01*
X105408595Y-136785904D01*
X105456214Y-136881142D01*
X105503833Y-136928761D01*
X105599071Y-136976380D01*
X105741928Y-136976380D01*
X104980023Y-136976380D02*
X104980023Y-136309714D01*
X104980023Y-136500190D02*
X104932404Y-136404952D01*
X104884785Y-136357333D01*
X104789547Y-136309714D01*
X104694309Y-136309714D01*
X104503833Y-136309714D02*
X104122880Y-136309714D01*
X104360976Y-135976380D02*
X104360976Y-136833523D01*
X104313357Y-136928761D01*
X104218119Y-136976380D01*
X104122880Y-136976380D01*
X103789547Y-136976380D02*
X103789547Y-135976380D01*
X103360976Y-136976380D02*
X103360976Y-136452571D01*
X103408595Y-136357333D01*
X103503833Y-136309714D01*
X103646690Y-136309714D01*
X103741928Y-136357333D01*
X103789547Y-136404952D01*
D11*
X103659000Y-120134748D02*
X103659000Y-120657252D01*
X105129000Y-120134748D02*
X105129000Y-120657252D01*
X97355252Y-120296000D02*
X96832748Y-120296000D01*
X97355252Y-121766000D02*
X96832748Y-121766000D01*
X102843000Y-127754748D02*
X102843000Y-128277252D01*
X101373000Y-127754748D02*
X101373000Y-128277252D01*
X94649936Y-134218000D02*
X96104064Y-134218000D01*
X94649936Y-136038000D02*
X96104064Y-136038000D01*
D10*
X95543666Y-135580380D02*
X95877000Y-135104190D01*
X96115095Y-135580380D02*
X96115095Y-134580380D01*
X95734142Y-134580380D01*
X95638904Y-134628000D01*
X95591285Y-134675619D01*
X95543666Y-134770857D01*
X95543666Y-134913714D01*
X95591285Y-135008952D01*
X95638904Y-135056571D01*
X95734142Y-135104190D01*
X96115095Y-135104190D01*
X95067476Y-135580380D02*
X94877000Y-135580380D01*
X94781761Y-135532761D01*
X94734142Y-135485142D01*
X94638904Y-135342285D01*
X94591285Y-135151809D01*
X94591285Y-134770857D01*
X94638904Y-134675619D01*
X94686523Y-134628000D01*
X94781761Y-134580380D01*
X94972238Y-134580380D01*
X95067476Y-134628000D01*
X95115095Y-134675619D01*
X95162714Y-134770857D01*
X95162714Y-135008952D01*
X95115095Y-135104190D01*
X95067476Y-135151809D01*
X94972238Y-135199428D01*
X94781761Y-135199428D01*
X94686523Y-135151809D01*
X94638904Y-135104190D01*
X94591285Y-135008952D01*
M02*
