G04 #@! TF.GenerationSoftware,KiCad,Pcbnew,(5.1.6)-1*
G04 #@! TF.CreationDate,2021-06-24T15:15:02+10:00*
G04 #@! TF.ProjectId,BSPD,42535044-2e6b-4696-9361-645f70636258,rev?*
G04 #@! TF.SameCoordinates,Original*
G04 #@! TF.FileFunction,Copper,L1,Top*
G04 #@! TF.FilePolarity,Positive*
%FSLAX46Y46*%
G04 Gerber Fmt 4.6, Leading zero omitted, Abs format (unit mm)*
G04 Created by KiCad (PCBNEW (5.1.6)-1) date 2021-06-24 15:15:02*
%MOMM*%
%LPD*%
G01*
G04 APERTURE LIST*
G04 #@! TA.AperFunction,SMDPad,CuDef*
%ADD10R,3.500000X1.800000*%
G04 #@! TD*
G04 #@! TA.AperFunction,SMDPad,CuDef*
%ADD11R,0.800000X0.900000*%
G04 #@! TD*
G04 #@! TA.AperFunction,SMDPad,CuDef*
%ADD12R,1.560000X0.650000*%
G04 #@! TD*
G04 #@! TA.AperFunction,SMDPad,CuDef*
%ADD13R,1.550000X0.600000*%
G04 #@! TD*
G04 #@! TA.AperFunction,ComponentPad*
%ADD14C,1.500000*%
G04 #@! TD*
G04 #@! TA.AperFunction,SMDPad,CuDef*
%ADD15R,2.000000X3.800000*%
G04 #@! TD*
G04 #@! TA.AperFunction,SMDPad,CuDef*
%ADD16R,2.000000X1.500000*%
G04 #@! TD*
G04 #@! TA.AperFunction,ViaPad*
%ADD17C,0.800000*%
G04 #@! TD*
G04 #@! TA.AperFunction,Conductor*
%ADD18C,0.250000*%
G04 #@! TD*
G04 APERTURE END LIST*
G04 #@! TA.AperFunction,SMDPad,CuDef*
G36*
G01*
X100434000Y-122404000D02*
X100734000Y-122404000D01*
G75*
G02*
X100884000Y-122554000I0J-150000D01*
G01*
X100884000Y-124204000D01*
G75*
G02*
X100734000Y-124354000I-150000J0D01*
G01*
X100434000Y-124354000D01*
G75*
G02*
X100284000Y-124204000I0J150000D01*
G01*
X100284000Y-122554000D01*
G75*
G02*
X100434000Y-122404000I150000J0D01*
G01*
G37*
G04 #@! TD.AperFunction*
G04 #@! TA.AperFunction,SMDPad,CuDef*
G36*
G01*
X99164000Y-122404000D02*
X99464000Y-122404000D01*
G75*
G02*
X99614000Y-122554000I0J-150000D01*
G01*
X99614000Y-124204000D01*
G75*
G02*
X99464000Y-124354000I-150000J0D01*
G01*
X99164000Y-124354000D01*
G75*
G02*
X99014000Y-124204000I0J150000D01*
G01*
X99014000Y-122554000D01*
G75*
G02*
X99164000Y-122404000I150000J0D01*
G01*
G37*
G04 #@! TD.AperFunction*
G04 #@! TA.AperFunction,SMDPad,CuDef*
G36*
G01*
X97894000Y-122404000D02*
X98194000Y-122404000D01*
G75*
G02*
X98344000Y-122554000I0J-150000D01*
G01*
X98344000Y-124204000D01*
G75*
G02*
X98194000Y-124354000I-150000J0D01*
G01*
X97894000Y-124354000D01*
G75*
G02*
X97744000Y-124204000I0J150000D01*
G01*
X97744000Y-122554000D01*
G75*
G02*
X97894000Y-122404000I150000J0D01*
G01*
G37*
G04 #@! TD.AperFunction*
G04 #@! TA.AperFunction,SMDPad,CuDef*
G36*
G01*
X96624000Y-122404000D02*
X96924000Y-122404000D01*
G75*
G02*
X97074000Y-122554000I0J-150000D01*
G01*
X97074000Y-124204000D01*
G75*
G02*
X96924000Y-124354000I-150000J0D01*
G01*
X96624000Y-124354000D01*
G75*
G02*
X96474000Y-124204000I0J150000D01*
G01*
X96474000Y-122554000D01*
G75*
G02*
X96624000Y-122404000I150000J0D01*
G01*
G37*
G04 #@! TD.AperFunction*
G04 #@! TA.AperFunction,SMDPad,CuDef*
G36*
G01*
X95354000Y-122404000D02*
X95654000Y-122404000D01*
G75*
G02*
X95804000Y-122554000I0J-150000D01*
G01*
X95804000Y-124204000D01*
G75*
G02*
X95654000Y-124354000I-150000J0D01*
G01*
X95354000Y-124354000D01*
G75*
G02*
X95204000Y-124204000I0J150000D01*
G01*
X95204000Y-122554000D01*
G75*
G02*
X95354000Y-122404000I150000J0D01*
G01*
G37*
G04 #@! TD.AperFunction*
G04 #@! TA.AperFunction,SMDPad,CuDef*
G36*
G01*
X94084000Y-122404000D02*
X94384000Y-122404000D01*
G75*
G02*
X94534000Y-122554000I0J-150000D01*
G01*
X94534000Y-124204000D01*
G75*
G02*
X94384000Y-124354000I-150000J0D01*
G01*
X94084000Y-124354000D01*
G75*
G02*
X93934000Y-124204000I0J150000D01*
G01*
X93934000Y-122554000D01*
G75*
G02*
X94084000Y-122404000I150000J0D01*
G01*
G37*
G04 #@! TD.AperFunction*
G04 #@! TA.AperFunction,SMDPad,CuDef*
G36*
G01*
X92814000Y-122404000D02*
X93114000Y-122404000D01*
G75*
G02*
X93264000Y-122554000I0J-150000D01*
G01*
X93264000Y-124204000D01*
G75*
G02*
X93114000Y-124354000I-150000J0D01*
G01*
X92814000Y-124354000D01*
G75*
G02*
X92664000Y-124204000I0J150000D01*
G01*
X92664000Y-122554000D01*
G75*
G02*
X92814000Y-122404000I150000J0D01*
G01*
G37*
G04 #@! TD.AperFunction*
G04 #@! TA.AperFunction,SMDPad,CuDef*
G36*
G01*
X92814000Y-117454000D02*
X93114000Y-117454000D01*
G75*
G02*
X93264000Y-117604000I0J-150000D01*
G01*
X93264000Y-119254000D01*
G75*
G02*
X93114000Y-119404000I-150000J0D01*
G01*
X92814000Y-119404000D01*
G75*
G02*
X92664000Y-119254000I0J150000D01*
G01*
X92664000Y-117604000D01*
G75*
G02*
X92814000Y-117454000I150000J0D01*
G01*
G37*
G04 #@! TD.AperFunction*
G04 #@! TA.AperFunction,SMDPad,CuDef*
G36*
G01*
X94084000Y-117454000D02*
X94384000Y-117454000D01*
G75*
G02*
X94534000Y-117604000I0J-150000D01*
G01*
X94534000Y-119254000D01*
G75*
G02*
X94384000Y-119404000I-150000J0D01*
G01*
X94084000Y-119404000D01*
G75*
G02*
X93934000Y-119254000I0J150000D01*
G01*
X93934000Y-117604000D01*
G75*
G02*
X94084000Y-117454000I150000J0D01*
G01*
G37*
G04 #@! TD.AperFunction*
G04 #@! TA.AperFunction,SMDPad,CuDef*
G36*
G01*
X95354000Y-117454000D02*
X95654000Y-117454000D01*
G75*
G02*
X95804000Y-117604000I0J-150000D01*
G01*
X95804000Y-119254000D01*
G75*
G02*
X95654000Y-119404000I-150000J0D01*
G01*
X95354000Y-119404000D01*
G75*
G02*
X95204000Y-119254000I0J150000D01*
G01*
X95204000Y-117604000D01*
G75*
G02*
X95354000Y-117454000I150000J0D01*
G01*
G37*
G04 #@! TD.AperFunction*
G04 #@! TA.AperFunction,SMDPad,CuDef*
G36*
G01*
X96624000Y-117454000D02*
X96924000Y-117454000D01*
G75*
G02*
X97074000Y-117604000I0J-150000D01*
G01*
X97074000Y-119254000D01*
G75*
G02*
X96924000Y-119404000I-150000J0D01*
G01*
X96624000Y-119404000D01*
G75*
G02*
X96474000Y-119254000I0J150000D01*
G01*
X96474000Y-117604000D01*
G75*
G02*
X96624000Y-117454000I150000J0D01*
G01*
G37*
G04 #@! TD.AperFunction*
G04 #@! TA.AperFunction,SMDPad,CuDef*
G36*
G01*
X97894000Y-117454000D02*
X98194000Y-117454000D01*
G75*
G02*
X98344000Y-117604000I0J-150000D01*
G01*
X98344000Y-119254000D01*
G75*
G02*
X98194000Y-119404000I-150000J0D01*
G01*
X97894000Y-119404000D01*
G75*
G02*
X97744000Y-119254000I0J150000D01*
G01*
X97744000Y-117604000D01*
G75*
G02*
X97894000Y-117454000I150000J0D01*
G01*
G37*
G04 #@! TD.AperFunction*
G04 #@! TA.AperFunction,SMDPad,CuDef*
G36*
G01*
X99164000Y-117454000D02*
X99464000Y-117454000D01*
G75*
G02*
X99614000Y-117604000I0J-150000D01*
G01*
X99614000Y-119254000D01*
G75*
G02*
X99464000Y-119404000I-150000J0D01*
G01*
X99164000Y-119404000D01*
G75*
G02*
X99014000Y-119254000I0J150000D01*
G01*
X99014000Y-117604000D01*
G75*
G02*
X99164000Y-117454000I150000J0D01*
G01*
G37*
G04 #@! TD.AperFunction*
G04 #@! TA.AperFunction,SMDPad,CuDef*
G36*
G01*
X100434000Y-117454000D02*
X100734000Y-117454000D01*
G75*
G02*
X100884000Y-117604000I0J-150000D01*
G01*
X100884000Y-119254000D01*
G75*
G02*
X100734000Y-119404000I-150000J0D01*
G01*
X100434000Y-119404000D01*
G75*
G02*
X100284000Y-119254000I0J150000D01*
G01*
X100284000Y-117604000D01*
G75*
G02*
X100434000Y-117454000I150000J0D01*
G01*
G37*
G04 #@! TD.AperFunction*
D10*
X95678000Y-126746000D03*
X90678000Y-126746000D03*
D11*
X87691000Y-112030000D03*
X85791000Y-112030000D03*
X86741000Y-114030000D03*
D12*
X103044000Y-119446000D03*
X103044000Y-120396000D03*
X103044000Y-121346000D03*
X105744000Y-121346000D03*
X105744000Y-119446000D03*
D13*
X104642201Y-125966001D03*
X104642201Y-127236001D03*
X104642201Y-128506001D03*
X104642201Y-129776001D03*
X99242201Y-129776001D03*
X99242201Y-128506001D03*
X99242201Y-127236001D03*
X99242201Y-125966001D03*
G04 #@! TA.AperFunction,SMDPad,CuDef*
G36*
G01*
X84168000Y-114480000D02*
X83218000Y-114480000D01*
G75*
G02*
X82968000Y-114230000I0J250000D01*
G01*
X82968000Y-113730000D01*
G75*
G02*
X83218000Y-113480000I250000J0D01*
G01*
X84168000Y-113480000D01*
G75*
G02*
X84418000Y-113730000I0J-250000D01*
G01*
X84418000Y-114230000D01*
G75*
G02*
X84168000Y-114480000I-250000J0D01*
G01*
G37*
G04 #@! TD.AperFunction*
G04 #@! TA.AperFunction,SMDPad,CuDef*
G36*
G01*
X84168000Y-112580000D02*
X83218000Y-112580000D01*
G75*
G02*
X82968000Y-112330000I0J250000D01*
G01*
X82968000Y-111830000D01*
G75*
G02*
X83218000Y-111580000I250000J0D01*
G01*
X84168000Y-111580000D01*
G75*
G02*
X84418000Y-111830000I0J-250000D01*
G01*
X84418000Y-112330000D01*
G75*
G02*
X84168000Y-112580000I-250000J0D01*
G01*
G37*
G04 #@! TD.AperFunction*
G04 #@! TA.AperFunction,SMDPad,CuDef*
G36*
G01*
X90264000Y-112580000D02*
X89314000Y-112580000D01*
G75*
G02*
X89064000Y-112330000I0J250000D01*
G01*
X89064000Y-111830000D01*
G75*
G02*
X89314000Y-111580000I250000J0D01*
G01*
X90264000Y-111580000D01*
G75*
G02*
X90514000Y-111830000I0J-250000D01*
G01*
X90514000Y-112330000D01*
G75*
G02*
X90264000Y-112580000I-250000J0D01*
G01*
G37*
G04 #@! TD.AperFunction*
G04 #@! TA.AperFunction,SMDPad,CuDef*
G36*
G01*
X90264000Y-114480000D02*
X89314000Y-114480000D01*
G75*
G02*
X89064000Y-114230000I0J250000D01*
G01*
X89064000Y-113730000D01*
G75*
G02*
X89314000Y-113480000I250000J0D01*
G01*
X90264000Y-113480000D01*
G75*
G02*
X90514000Y-113730000I0J-250000D01*
G01*
X90514000Y-114230000D01*
G75*
G02*
X90264000Y-114480000I-250000J0D01*
G01*
G37*
G04 #@! TD.AperFunction*
G04 #@! TA.AperFunction,SMDPad,CuDef*
G36*
G01*
X95954000Y-130269000D02*
X95954000Y-129319000D01*
G75*
G02*
X96204000Y-129069000I250000J0D01*
G01*
X96704000Y-129069000D01*
G75*
G02*
X96954000Y-129319000I0J-250000D01*
G01*
X96954000Y-130269000D01*
G75*
G02*
X96704000Y-130519000I-250000J0D01*
G01*
X96204000Y-130519000D01*
G75*
G02*
X95954000Y-130269000I0J250000D01*
G01*
G37*
G04 #@! TD.AperFunction*
G04 #@! TA.AperFunction,SMDPad,CuDef*
G36*
G01*
X94054000Y-130269000D02*
X94054000Y-129319000D01*
G75*
G02*
X94304000Y-129069000I250000J0D01*
G01*
X94804000Y-129069000D01*
G75*
G02*
X95054000Y-129319000I0J-250000D01*
G01*
X95054000Y-130269000D01*
G75*
G02*
X94804000Y-130519000I-250000J0D01*
G01*
X94304000Y-130519000D01*
G75*
G02*
X94054000Y-130269000I0J250000D01*
G01*
G37*
G04 #@! TD.AperFunction*
G04 #@! TA.AperFunction,SMDPad,CuDef*
G36*
G01*
X93952000Y-135584250D02*
X93952000Y-134671750D01*
G75*
G02*
X94195750Y-134428000I243750J0D01*
G01*
X94683250Y-134428000D01*
G75*
G02*
X94927000Y-134671750I0J-243750D01*
G01*
X94927000Y-135584250D01*
G75*
G02*
X94683250Y-135828000I-243750J0D01*
G01*
X94195750Y-135828000D01*
G75*
G02*
X93952000Y-135584250I0J243750D01*
G01*
G37*
G04 #@! TD.AperFunction*
G04 #@! TA.AperFunction,SMDPad,CuDef*
G36*
G01*
X95827000Y-135584250D02*
X95827000Y-134671750D01*
G75*
G02*
X96070750Y-134428000I243750J0D01*
G01*
X96558250Y-134428000D01*
G75*
G02*
X96802000Y-134671750I0J-243750D01*
G01*
X96802000Y-135584250D01*
G75*
G02*
X96558250Y-135828000I-243750J0D01*
G01*
X96070750Y-135828000D01*
G75*
G02*
X95827000Y-135584250I0J243750D01*
G01*
G37*
G04 #@! TD.AperFunction*
G04 #@! TA.AperFunction,ComponentPad*
G36*
G01*
X95516000Y-105148000D02*
X95516000Y-104148000D01*
G75*
G02*
X95766000Y-103898000I250000J0D01*
G01*
X96766000Y-103898000D01*
G75*
G02*
X97016000Y-104148000I0J-250000D01*
G01*
X97016000Y-105148000D01*
G75*
G02*
X96766000Y-105398000I-250000J0D01*
G01*
X95766000Y-105398000D01*
G75*
G02*
X95516000Y-105148000I0J250000D01*
G01*
G37*
G04 #@! TD.AperFunction*
D14*
X99266000Y-104648000D03*
X102266000Y-104648000D03*
X105266000Y-104648000D03*
X96266000Y-107648000D03*
X99266000Y-107648000D03*
X102266000Y-107648000D03*
X105266000Y-107648000D03*
G04 #@! TA.AperFunction,SMDPad,CuDef*
G36*
G01*
X101164500Y-113528001D02*
X101164500Y-112277999D01*
G75*
G02*
X101414499Y-112028000I249999J0D01*
G01*
X102039501Y-112028000D01*
G75*
G02*
X102289500Y-112277999I0J-249999D01*
G01*
X102289500Y-113528001D01*
G75*
G02*
X102039501Y-113778000I-249999J0D01*
G01*
X101414499Y-113778000D01*
G75*
G02*
X101164500Y-113528001I0J249999D01*
G01*
G37*
G04 #@! TD.AperFunction*
G04 #@! TA.AperFunction,SMDPad,CuDef*
G36*
G01*
X104089500Y-113528001D02*
X104089500Y-112277999D01*
G75*
G02*
X104339499Y-112028000I249999J0D01*
G01*
X104964501Y-112028000D01*
G75*
G02*
X105214500Y-112277999I0J-249999D01*
G01*
X105214500Y-113528001D01*
G75*
G02*
X104964501Y-113778000I-249999J0D01*
G01*
X104339499Y-113778000D01*
G75*
G02*
X104089500Y-113528001I0J249999D01*
G01*
G37*
G04 #@! TD.AperFunction*
G04 #@! TA.AperFunction,SMDPad,CuDef*
G36*
G01*
X105210500Y-114690999D02*
X105210500Y-115941001D01*
G75*
G02*
X104960501Y-116191000I-249999J0D01*
G01*
X104335499Y-116191000D01*
G75*
G02*
X104085500Y-115941001I0J249999D01*
G01*
X104085500Y-114690999D01*
G75*
G02*
X104335499Y-114441000I249999J0D01*
G01*
X104960501Y-114441000D01*
G75*
G02*
X105210500Y-114690999I0J-249999D01*
G01*
G37*
G04 #@! TD.AperFunction*
G04 #@! TA.AperFunction,SMDPad,CuDef*
G36*
G01*
X102285500Y-114690999D02*
X102285500Y-115941001D01*
G75*
G02*
X102035501Y-116191000I-249999J0D01*
G01*
X101410499Y-116191000D01*
G75*
G02*
X101160500Y-115941001I0J249999D01*
G01*
X101160500Y-114690999D01*
G75*
G02*
X101410499Y-114441000I249999J0D01*
G01*
X102035501Y-114441000D01*
G75*
G02*
X102285500Y-114690999I0J-249999D01*
G01*
G37*
G04 #@! TD.AperFunction*
G04 #@! TA.AperFunction,SMDPad,CuDef*
G36*
G01*
X100450000Y-112277999D02*
X100450000Y-113528001D01*
G75*
G02*
X100200001Y-113778000I-249999J0D01*
G01*
X99574999Y-113778000D01*
G75*
G02*
X99325000Y-113528001I0J249999D01*
G01*
X99325000Y-112277999D01*
G75*
G02*
X99574999Y-112028000I249999J0D01*
G01*
X100200001Y-112028000D01*
G75*
G02*
X100450000Y-112277999I0J-249999D01*
G01*
G37*
G04 #@! TD.AperFunction*
G04 #@! TA.AperFunction,SMDPad,CuDef*
G36*
G01*
X97525000Y-112277999D02*
X97525000Y-113528001D01*
G75*
G02*
X97275001Y-113778000I-249999J0D01*
G01*
X96649999Y-113778000D01*
G75*
G02*
X96400000Y-113528001I0J249999D01*
G01*
X96400000Y-112277999D01*
G75*
G02*
X96649999Y-112028000I249999J0D01*
G01*
X97275001Y-112028000D01*
G75*
G02*
X97525000Y-112277999I0J-249999D01*
G01*
G37*
G04 #@! TD.AperFunction*
G04 #@! TA.AperFunction,SMDPad,CuDef*
G36*
G01*
X96400000Y-115941001D02*
X96400000Y-114690999D01*
G75*
G02*
X96649999Y-114441000I249999J0D01*
G01*
X97275001Y-114441000D01*
G75*
G02*
X97525000Y-114690999I0J-249999D01*
G01*
X97525000Y-115941001D01*
G75*
G02*
X97275001Y-116191000I-249999J0D01*
G01*
X96649999Y-116191000D01*
G75*
G02*
X96400000Y-115941001I0J249999D01*
G01*
G37*
G04 #@! TD.AperFunction*
G04 #@! TA.AperFunction,SMDPad,CuDef*
G36*
G01*
X99325000Y-115941001D02*
X99325000Y-114690999D01*
G75*
G02*
X99574999Y-114441000I249999J0D01*
G01*
X100200001Y-114441000D01*
G75*
G02*
X100450000Y-114690999I0J-249999D01*
G01*
X100450000Y-115941001D01*
G75*
G02*
X100200001Y-116191000I-249999J0D01*
G01*
X99574999Y-116191000D01*
G75*
G02*
X99325000Y-115941001I0J249999D01*
G01*
G37*
G04 #@! TD.AperFunction*
G04 #@! TA.AperFunction,SMDPad,CuDef*
G36*
G01*
X86496999Y-128215500D02*
X87747001Y-128215500D01*
G75*
G02*
X87997000Y-128465499I0J-249999D01*
G01*
X87997000Y-129090501D01*
G75*
G02*
X87747001Y-129340500I-249999J0D01*
G01*
X86496999Y-129340500D01*
G75*
G02*
X86247000Y-129090501I0J249999D01*
G01*
X86247000Y-128465499D01*
G75*
G02*
X86496999Y-128215500I249999J0D01*
G01*
G37*
G04 #@! TD.AperFunction*
G04 #@! TA.AperFunction,SMDPad,CuDef*
G36*
G01*
X86496999Y-125290500D02*
X87747001Y-125290500D01*
G75*
G02*
X87997000Y-125540499I0J-249999D01*
G01*
X87997000Y-126165501D01*
G75*
G02*
X87747001Y-126415500I-249999J0D01*
G01*
X86496999Y-126415500D01*
G75*
G02*
X86247000Y-126165501I0J249999D01*
G01*
X86247000Y-125540499D01*
G75*
G02*
X86496999Y-125290500I249999J0D01*
G01*
G37*
G04 #@! TD.AperFunction*
G04 #@! TA.AperFunction,SMDPad,CuDef*
G36*
G01*
X88907000Y-130546001D02*
X88907000Y-129295999D01*
G75*
G02*
X89156999Y-129046000I249999J0D01*
G01*
X89782001Y-129046000D01*
G75*
G02*
X90032000Y-129295999I0J-249999D01*
G01*
X90032000Y-130546001D01*
G75*
G02*
X89782001Y-130796000I-249999J0D01*
G01*
X89156999Y-130796000D01*
G75*
G02*
X88907000Y-130546001I0J249999D01*
G01*
G37*
G04 #@! TD.AperFunction*
G04 #@! TA.AperFunction,SMDPad,CuDef*
G36*
G01*
X91832000Y-130546001D02*
X91832000Y-129295999D01*
G75*
G02*
X92081999Y-129046000I249999J0D01*
G01*
X92707001Y-129046000D01*
G75*
G02*
X92957000Y-129295999I0J-249999D01*
G01*
X92957000Y-130546001D01*
G75*
G02*
X92707001Y-130796000I-249999J0D01*
G01*
X92081999Y-130796000D01*
G75*
G02*
X91832000Y-130546001I0J249999D01*
G01*
G37*
G04 #@! TD.AperFunction*
G04 #@! TA.AperFunction,SMDPad,CuDef*
G36*
G01*
X110372999Y-128789000D02*
X111623001Y-128789000D01*
G75*
G02*
X111873000Y-129038999I0J-249999D01*
G01*
X111873000Y-129664001D01*
G75*
G02*
X111623001Y-129914000I-249999J0D01*
G01*
X110372999Y-129914000D01*
G75*
G02*
X110123000Y-129664001I0J249999D01*
G01*
X110123000Y-129038999D01*
G75*
G02*
X110372999Y-128789000I249999J0D01*
G01*
G37*
G04 #@! TD.AperFunction*
G04 #@! TA.AperFunction,SMDPad,CuDef*
G36*
G01*
X110372999Y-125864000D02*
X111623001Y-125864000D01*
G75*
G02*
X111873000Y-126113999I0J-249999D01*
G01*
X111873000Y-126739001D01*
G75*
G02*
X111623001Y-126989000I-249999J0D01*
G01*
X110372999Y-126989000D01*
G75*
G02*
X110123000Y-126739001I0J249999D01*
G01*
X110123000Y-126113999D01*
G75*
G02*
X110372999Y-125864000I249999J0D01*
G01*
G37*
G04 #@! TD.AperFunction*
G04 #@! TA.AperFunction,SMDPad,CuDef*
G36*
G01*
X107832999Y-128789000D02*
X109083001Y-128789000D01*
G75*
G02*
X109333000Y-129038999I0J-249999D01*
G01*
X109333000Y-129664001D01*
G75*
G02*
X109083001Y-129914000I-249999J0D01*
G01*
X107832999Y-129914000D01*
G75*
G02*
X107583000Y-129664001I0J249999D01*
G01*
X107583000Y-129038999D01*
G75*
G02*
X107832999Y-128789000I249999J0D01*
G01*
G37*
G04 #@! TD.AperFunction*
G04 #@! TA.AperFunction,SMDPad,CuDef*
G36*
G01*
X107832999Y-125864000D02*
X109083001Y-125864000D01*
G75*
G02*
X109333000Y-126113999I0J-249999D01*
G01*
X109333000Y-126739001D01*
G75*
G02*
X109083001Y-126989000I-249999J0D01*
G01*
X107832999Y-126989000D01*
G75*
G02*
X107583000Y-126739001I0J249999D01*
G01*
X107583000Y-126113999D01*
G75*
G02*
X107832999Y-125864000I249999J0D01*
G01*
G37*
G04 #@! TD.AperFunction*
D15*
X89891000Y-118618000D03*
D16*
X83591000Y-118618000D03*
X83591000Y-120918000D03*
X83591000Y-116318000D03*
D17*
X110998000Y-129413000D03*
X99224202Y-129876000D03*
X92964000Y-118491000D03*
X102108000Y-127066000D03*
X105744000Y-119446000D03*
X108458000Y-129351500D03*
X98044000Y-121031000D03*
X93914500Y-135128000D03*
D18*
X87466001Y-113319999D02*
X86176002Y-112030000D01*
X87466001Y-114740001D02*
X87466001Y-113319999D01*
X85888002Y-116318000D02*
X87466001Y-114740001D01*
X86176002Y-112030000D02*
X85791000Y-112030000D01*
X83591000Y-116318000D02*
X85888002Y-116318000D01*
X83743000Y-112030000D02*
X83693000Y-112080000D01*
X85791000Y-112030000D02*
X83743000Y-112030000D01*
X88549001Y-113319999D02*
X89789000Y-112080000D01*
X87466001Y-113319999D02*
X88549001Y-113319999D01*
X98190990Y-105723010D02*
X99266000Y-104648000D01*
X94909988Y-105723010D02*
X98190990Y-105723010D01*
X89789000Y-110843998D02*
X94909988Y-105723010D01*
X89789000Y-112080000D02*
X89789000Y-110843998D01*
X101723000Y-112907000D02*
X101727000Y-112903000D01*
X101723000Y-115316000D02*
X101723000Y-112907000D01*
X99887500Y-115316000D02*
X99887500Y-112903000D01*
X101727000Y-112903000D02*
X99887500Y-112903000D01*
X100341001Y-105723001D02*
X99266000Y-104648000D01*
X100341001Y-112449499D02*
X100341001Y-105723001D01*
X99887500Y-112903000D02*
X100341001Y-112449499D01*
X99224202Y-129794000D02*
X99242201Y-129776001D01*
X96454000Y-129794000D02*
X99224202Y-129794000D01*
X99242201Y-129776001D02*
X98217201Y-129776001D01*
X99242201Y-129776001D02*
X99242201Y-129858001D01*
X99242201Y-129858001D02*
X99224202Y-129876000D01*
X92964000Y-118429000D02*
X92964000Y-118491000D01*
X94427000Y-129921000D02*
X94554000Y-129794000D01*
X92394500Y-129921000D02*
X94427000Y-129921000D01*
X95678000Y-128670000D02*
X94554000Y-129794000D01*
X95678000Y-126746000D02*
X95678000Y-128670000D01*
X95823610Y-126746000D02*
X95678000Y-126746000D01*
X98228610Y-129151000D02*
X95823610Y-126746000D01*
X104642201Y-129776001D02*
X101490999Y-129776001D01*
X100865998Y-129151000D02*
X98228610Y-129151000D01*
X101490999Y-129776001D02*
X100865998Y-129151000D01*
X83591000Y-118618000D02*
X89891000Y-118618000D01*
X89891000Y-114082000D02*
X89789000Y-113980000D01*
X89891000Y-118618000D02*
X89891000Y-114082000D01*
X104642201Y-125966001D02*
X103207999Y-125966001D01*
X103207999Y-125966001D02*
X102108000Y-127066000D01*
X104638999Y-120551001D02*
X105744000Y-119446000D01*
X104638999Y-121441003D02*
X104638999Y-120551001D01*
X102701002Y-123379000D02*
X104638999Y-121441003D01*
X100584000Y-123379000D02*
X102701002Y-123379000D01*
X89891000Y-118618000D02*
X92304000Y-121031000D01*
X92304000Y-121031000D02*
X98044000Y-121031000D01*
X82265999Y-115407001D02*
X83693000Y-113980000D01*
X82265999Y-120842999D02*
X82265999Y-115407001D01*
X82341000Y-120918000D02*
X82265999Y-120842999D01*
X83591000Y-120918000D02*
X82341000Y-120918000D01*
X86691000Y-113980000D02*
X86741000Y-114030000D01*
X83693000Y-113980000D02*
X86691000Y-113980000D01*
X88015000Y-126746000D02*
X87122000Y-125853000D01*
X90678000Y-126746000D02*
X88015000Y-126746000D01*
X94439500Y-135128000D02*
X93914500Y-135128000D01*
X103341001Y-105723001D02*
X102266000Y-104648000D01*
X105469001Y-105723001D02*
X103341001Y-105723001D01*
X106863799Y-107117799D02*
X105469001Y-105723001D01*
X105667201Y-127236001D02*
X106863799Y-126039403D01*
X106863799Y-126039403D02*
X106863799Y-107117799D01*
X104642201Y-127236001D02*
X105667201Y-127236001D01*
X103542200Y-129066002D02*
X103542200Y-127946000D01*
X103607200Y-129131002D02*
X103542200Y-129066002D01*
X103542200Y-127946000D02*
X104252199Y-127236001D01*
X100950204Y-135128000D02*
X105742202Y-130336002D01*
X104252199Y-127236001D02*
X104642201Y-127236001D01*
X96314500Y-135128000D02*
X100950204Y-135128000D01*
X105742202Y-130336002D02*
X105742202Y-129216000D01*
X105742202Y-129216000D02*
X105657204Y-129131002D01*
X105657204Y-129131002D02*
X103607200Y-129131002D01*
X95073000Y-104648000D02*
X96266000Y-104648000D01*
X87691000Y-112030000D02*
X95073000Y-104648000D01*
X103044000Y-114511000D02*
X104652000Y-112903000D01*
X103044000Y-119446000D02*
X103044000Y-114511000D01*
X104652000Y-110034000D02*
X102266000Y-107648000D01*
X104652000Y-112903000D02*
X104652000Y-110034000D01*
X99314000Y-117418642D02*
X97211358Y-115316000D01*
X97211358Y-115316000D02*
X96962500Y-115316000D01*
X99314000Y-118429000D02*
X99314000Y-117418642D01*
X95516001Y-108397999D02*
X96266000Y-107648000D01*
X95516001Y-113207191D02*
X95516001Y-108397999D01*
X96962500Y-114653690D02*
X95516001Y-113207191D01*
X96962500Y-115316000D02*
X96962500Y-114653690D01*
X105539510Y-114424490D02*
X104648000Y-115316000D01*
X105539510Y-107921510D02*
X105539510Y-114424490D01*
X105266000Y-107648000D02*
X105539510Y-107921510D01*
X104149001Y-115814999D02*
X104648000Y-115316000D01*
X104149001Y-120031001D02*
X104149001Y-115814999D01*
X103784002Y-120396000D02*
X104149001Y-120031001D01*
X103044000Y-120396000D02*
X103784002Y-120396000D01*
X99266000Y-110599500D02*
X96962500Y-112903000D01*
X99266000Y-107648000D02*
X99266000Y-110599500D01*
X100584000Y-118052232D02*
X100584000Y-118429000D01*
X97850010Y-115318242D02*
X100584000Y-118052232D01*
X97850010Y-113790510D02*
X97850010Y-115318242D01*
X96962500Y-112903000D02*
X97850010Y-113790510D01*
X88326500Y-128778000D02*
X89469500Y-129921000D01*
X87122000Y-128778000D02*
X88326500Y-128778000D01*
X92688001Y-127971001D02*
X93602999Y-127056003D01*
X91419499Y-127971001D02*
X92688001Y-127971001D01*
X89469500Y-129921000D02*
X91419499Y-127971001D01*
X96448990Y-124679010D02*
X96774000Y-124354000D01*
X96774000Y-124354000D02*
X96774000Y-123379000D01*
X94509988Y-124679010D02*
X96448990Y-124679010D01*
X93602999Y-125585999D02*
X94509988Y-124679010D01*
X93602999Y-127056003D02*
X93602999Y-125585999D01*
X110998000Y-126426500D02*
X108458000Y-126426500D01*
X106378499Y-128506001D02*
X104642201Y-128506001D01*
X108458000Y-126426500D02*
X106378499Y-128506001D01*
X98369010Y-124679010D02*
X102410990Y-124679010D01*
X102410990Y-124679010D02*
X105744000Y-121346000D01*
X98044000Y-124354000D02*
X98369010Y-124679010D01*
X98044000Y-123379000D02*
X98044000Y-124354000D01*
X102987990Y-121402010D02*
X103044000Y-121346000D01*
X98044000Y-118769000D02*
X98044000Y-117794000D01*
X99314000Y-120674000D02*
X99314000Y-123379000D01*
X98044000Y-119404000D02*
X99314000Y-120674000D01*
X98044000Y-118429000D02*
X98044000Y-119404000D01*
M02*
