G04 #@! TF.GenerationSoftware,KiCad,Pcbnew,(5.1.6)-1*
G04 #@! TF.CreationDate,2021-06-24T15:15:02+10:00*
G04 #@! TF.ProjectId,BSPD,42535044-2e6b-4696-9361-645f70636258,rev?*
G04 #@! TF.SameCoordinates,Original*
G04 #@! TF.FileFunction,Copper,L2,Bot*
G04 #@! TF.FilePolarity,Positive*
%FSLAX46Y46*%
G04 Gerber Fmt 4.6, Leading zero omitted, Abs format (unit mm)*
G04 Created by KiCad (PCBNEW (5.1.6)-1) date 2021-06-24 15:15:02*
%MOMM*%
%LPD*%
G01*
G04 APERTURE LIST*
G04 #@! TA.AperFunction,ComponentPad*
%ADD10C,1.500000*%
G04 #@! TD*
G04 #@! TA.AperFunction,ViaPad*
%ADD11C,0.800000*%
G04 #@! TD*
G04 #@! TA.AperFunction,Conductor*
%ADD12C,0.250000*%
G04 #@! TD*
G04 #@! TA.AperFunction,Conductor*
%ADD13C,0.254000*%
G04 #@! TD*
G04 APERTURE END LIST*
G04 #@! TA.AperFunction,SMDPad,CuDef*
G36*
G01*
X103919000Y-118946000D02*
X104869000Y-118946000D01*
G75*
G02*
X105119000Y-119196000I0J-250000D01*
G01*
X105119000Y-119696000D01*
G75*
G02*
X104869000Y-119946000I-250000J0D01*
G01*
X103919000Y-119946000D01*
G75*
G02*
X103669000Y-119696000I0J250000D01*
G01*
X103669000Y-119196000D01*
G75*
G02*
X103919000Y-118946000I250000J0D01*
G01*
G37*
G04 #@! TD.AperFunction*
G04 #@! TA.AperFunction,SMDPad,CuDef*
G36*
G01*
X103919000Y-120846000D02*
X104869000Y-120846000D01*
G75*
G02*
X105119000Y-121096000I0J-250000D01*
G01*
X105119000Y-121596000D01*
G75*
G02*
X104869000Y-121846000I-250000J0D01*
G01*
X103919000Y-121846000D01*
G75*
G02*
X103669000Y-121596000I0J250000D01*
G01*
X103669000Y-121096000D01*
G75*
G02*
X103919000Y-120846000I250000J0D01*
G01*
G37*
G04 #@! TD.AperFunction*
G04 #@! TA.AperFunction,SMDPad,CuDef*
G36*
G01*
X98544000Y-120556000D02*
X98544000Y-121506000D01*
G75*
G02*
X98294000Y-121756000I-250000J0D01*
G01*
X97794000Y-121756000D01*
G75*
G02*
X97544000Y-121506000I0J250000D01*
G01*
X97544000Y-120556000D01*
G75*
G02*
X97794000Y-120306000I250000J0D01*
G01*
X98294000Y-120306000D01*
G75*
G02*
X98544000Y-120556000I0J-250000D01*
G01*
G37*
G04 #@! TD.AperFunction*
G04 #@! TA.AperFunction,SMDPad,CuDef*
G36*
G01*
X96644000Y-120556000D02*
X96644000Y-121506000D01*
G75*
G02*
X96394000Y-121756000I-250000J0D01*
G01*
X95894000Y-121756000D01*
G75*
G02*
X95644000Y-121506000I0J250000D01*
G01*
X95644000Y-120556000D01*
G75*
G02*
X95894000Y-120306000I250000J0D01*
G01*
X96394000Y-120306000D01*
G75*
G02*
X96644000Y-120556000I0J-250000D01*
G01*
G37*
G04 #@! TD.AperFunction*
G04 #@! TA.AperFunction,SMDPad,CuDef*
G36*
G01*
X101633000Y-128466000D02*
X102583000Y-128466000D01*
G75*
G02*
X102833000Y-128716000I0J-250000D01*
G01*
X102833000Y-129216000D01*
G75*
G02*
X102583000Y-129466000I-250000J0D01*
G01*
X101633000Y-129466000D01*
G75*
G02*
X101383000Y-129216000I0J250000D01*
G01*
X101383000Y-128716000D01*
G75*
G02*
X101633000Y-128466000I250000J0D01*
G01*
G37*
G04 #@! TD.AperFunction*
G04 #@! TA.AperFunction,SMDPad,CuDef*
G36*
G01*
X101633000Y-126566000D02*
X102583000Y-126566000D01*
G75*
G02*
X102833000Y-126816000I0J-250000D01*
G01*
X102833000Y-127316000D01*
G75*
G02*
X102583000Y-127566000I-250000J0D01*
G01*
X101633000Y-127566000D01*
G75*
G02*
X101383000Y-127316000I0J250000D01*
G01*
X101383000Y-126816000D01*
G75*
G02*
X101633000Y-126566000I250000J0D01*
G01*
G37*
G04 #@! TD.AperFunction*
G04 #@! TA.AperFunction,ComponentPad*
G36*
G01*
X95516000Y-105148000D02*
X95516000Y-104148000D01*
G75*
G02*
X95766000Y-103898000I250000J0D01*
G01*
X96766000Y-103898000D01*
G75*
G02*
X97016000Y-104148000I0J-250000D01*
G01*
X97016000Y-105148000D01*
G75*
G02*
X96766000Y-105398000I-250000J0D01*
G01*
X95766000Y-105398000D01*
G75*
G02*
X95516000Y-105148000I0J250000D01*
G01*
G37*
G04 #@! TD.AperFunction*
D10*
X99266000Y-104648000D03*
X102266000Y-104648000D03*
X105266000Y-104648000D03*
X96266000Y-107648000D03*
X99266000Y-107648000D03*
X102266000Y-107648000D03*
X105266000Y-107648000D03*
G04 #@! TA.AperFunction,SMDPad,CuDef*
G36*
G01*
X96277000Y-135753001D02*
X96277000Y-134502999D01*
G75*
G02*
X96526999Y-134253000I249999J0D01*
G01*
X97152001Y-134253000D01*
G75*
G02*
X97402000Y-134502999I0J-249999D01*
G01*
X97402000Y-135753001D01*
G75*
G02*
X97152001Y-136003000I-249999J0D01*
G01*
X96526999Y-136003000D01*
G75*
G02*
X96277000Y-135753001I0J249999D01*
G01*
G37*
G04 #@! TD.AperFunction*
G04 #@! TA.AperFunction,SMDPad,CuDef*
G36*
G01*
X93352000Y-135753001D02*
X93352000Y-134502999D01*
G75*
G02*
X93601999Y-134253000I249999J0D01*
G01*
X94227001Y-134253000D01*
G75*
G02*
X94477000Y-134502999I0J-249999D01*
G01*
X94477000Y-135753001D01*
G75*
G02*
X94227001Y-136003000I-249999J0D01*
G01*
X93601999Y-136003000D01*
G75*
G02*
X93352000Y-135753001I0J249999D01*
G01*
G37*
G04 #@! TD.AperFunction*
D11*
X110998000Y-129413000D03*
X99224202Y-129876000D03*
X92964000Y-118491000D03*
X102108000Y-127066000D03*
X105744000Y-119446000D03*
X108458000Y-129351500D03*
X98044000Y-121031000D03*
X93914500Y-135128000D03*
D12*
X104394000Y-119446000D02*
X105744000Y-119446000D01*
X100265000Y-125223000D02*
X102108000Y-127066000D01*
X102108000Y-127066000D02*
X106172500Y-127066000D01*
X106172500Y-127066000D02*
X108458000Y-129351500D01*
X99629000Y-119446000D02*
X105744000Y-119446000D01*
X98044000Y-121031000D02*
X99629000Y-119446000D01*
X98044000Y-123002000D02*
X100265000Y-125223000D01*
X98044000Y-121031000D02*
X98044000Y-123002000D01*
D13*
G36*
X116181222Y-102069096D02*
G01*
X116769164Y-102246606D01*
X117311436Y-102534937D01*
X117787364Y-102923094D01*
X118178845Y-103396314D01*
X118470951Y-103936552D01*
X118652563Y-104523244D01*
X118719997Y-105164855D01*
X118710321Y-134847717D01*
X118692608Y-135517737D01*
X118557438Y-136116833D01*
X118308477Y-136678264D01*
X117955211Y-137180642D01*
X117511085Y-137604845D01*
X116993033Y-137934698D01*
X116420774Y-138157647D01*
X115796939Y-138268607D01*
X115557091Y-138278000D01*
X85630279Y-138278000D01*
X84986779Y-138214904D01*
X84398836Y-138037394D01*
X83856564Y-137749063D01*
X83380636Y-137360906D01*
X82989155Y-136887686D01*
X82697050Y-136347449D01*
X82515437Y-135760756D01*
X82448000Y-135119130D01*
X82448000Y-134935872D01*
X83363000Y-134935872D01*
X83363000Y-135376128D01*
X83448890Y-135807925D01*
X83617369Y-136214669D01*
X83861962Y-136580729D01*
X84173271Y-136892038D01*
X84539331Y-137136631D01*
X84946075Y-137305110D01*
X85377872Y-137391000D01*
X85818128Y-137391000D01*
X86249925Y-137305110D01*
X86656669Y-137136631D01*
X87022729Y-136892038D01*
X87334038Y-136580729D01*
X87578631Y-136214669D01*
X87747110Y-135807925D01*
X87833000Y-135376128D01*
X87833000Y-134935872D01*
X87747110Y-134504075D01*
X87746665Y-134502999D01*
X92713928Y-134502999D01*
X92713928Y-135753001D01*
X92730992Y-135926255D01*
X92781528Y-136092851D01*
X92863595Y-136246387D01*
X92974038Y-136380962D01*
X93108613Y-136491405D01*
X93262149Y-136573472D01*
X93428745Y-136624008D01*
X93601999Y-136641072D01*
X94227001Y-136641072D01*
X94400255Y-136624008D01*
X94566851Y-136573472D01*
X94720387Y-136491405D01*
X94854962Y-136380962D01*
X94965405Y-136246387D01*
X95047472Y-136092851D01*
X95074727Y-136003000D01*
X95638928Y-136003000D01*
X95651188Y-136127482D01*
X95687498Y-136247180D01*
X95746463Y-136357494D01*
X95825815Y-136454185D01*
X95922506Y-136533537D01*
X96032820Y-136592502D01*
X96152518Y-136628812D01*
X96277000Y-136641072D01*
X96553750Y-136638000D01*
X96712500Y-136479250D01*
X96712500Y-135255000D01*
X96966500Y-135255000D01*
X96966500Y-136479250D01*
X97125250Y-136638000D01*
X97402000Y-136641072D01*
X97526482Y-136628812D01*
X97646180Y-136592502D01*
X97756494Y-136533537D01*
X97853185Y-136454185D01*
X97932537Y-136357494D01*
X97991502Y-136247180D01*
X98027812Y-136127482D01*
X98040072Y-136003000D01*
X98037000Y-135413750D01*
X97878250Y-135255000D01*
X96966500Y-135255000D01*
X96712500Y-135255000D01*
X95800750Y-135255000D01*
X95642000Y-135413750D01*
X95638928Y-136003000D01*
X95074727Y-136003000D01*
X95098008Y-135926255D01*
X95115072Y-135753001D01*
X95115072Y-134502999D01*
X95098008Y-134329745D01*
X95074728Y-134253000D01*
X95638928Y-134253000D01*
X95642000Y-134842250D01*
X95800750Y-135001000D01*
X96712500Y-135001000D01*
X96712500Y-133776750D01*
X96966500Y-133776750D01*
X96966500Y-135001000D01*
X97878250Y-135001000D01*
X97943378Y-134935872D01*
X113363000Y-134935872D01*
X113363000Y-135376128D01*
X113448890Y-135807925D01*
X113617369Y-136214669D01*
X113861962Y-136580729D01*
X114173271Y-136892038D01*
X114539331Y-137136631D01*
X114946075Y-137305110D01*
X115377872Y-137391000D01*
X115818128Y-137391000D01*
X116249925Y-137305110D01*
X116656669Y-137136631D01*
X117022729Y-136892038D01*
X117334038Y-136580729D01*
X117578631Y-136214669D01*
X117747110Y-135807925D01*
X117833000Y-135376128D01*
X117833000Y-134935872D01*
X117747110Y-134504075D01*
X117578631Y-134097331D01*
X117334038Y-133731271D01*
X117022729Y-133419962D01*
X116656669Y-133175369D01*
X116249925Y-133006890D01*
X115818128Y-132921000D01*
X115377872Y-132921000D01*
X114946075Y-133006890D01*
X114539331Y-133175369D01*
X114173271Y-133419962D01*
X113861962Y-133731271D01*
X113617369Y-134097331D01*
X113448890Y-134504075D01*
X113363000Y-134935872D01*
X97943378Y-134935872D01*
X98037000Y-134842250D01*
X98040072Y-134253000D01*
X98027812Y-134128518D01*
X97991502Y-134008820D01*
X97932537Y-133898506D01*
X97853185Y-133801815D01*
X97756494Y-133722463D01*
X97646180Y-133663498D01*
X97526482Y-133627188D01*
X97402000Y-133614928D01*
X97125250Y-133618000D01*
X96966500Y-133776750D01*
X96712500Y-133776750D01*
X96553750Y-133618000D01*
X96277000Y-133614928D01*
X96152518Y-133627188D01*
X96032820Y-133663498D01*
X95922506Y-133722463D01*
X95825815Y-133801815D01*
X95746463Y-133898506D01*
X95687498Y-134008820D01*
X95651188Y-134128518D01*
X95638928Y-134253000D01*
X95074728Y-134253000D01*
X95047472Y-134163149D01*
X94965405Y-134009613D01*
X94854962Y-133875038D01*
X94720387Y-133764595D01*
X94566851Y-133682528D01*
X94400255Y-133631992D01*
X94227001Y-133614928D01*
X93601999Y-133614928D01*
X93428745Y-133631992D01*
X93262149Y-133682528D01*
X93108613Y-133764595D01*
X92974038Y-133875038D01*
X92863595Y-134009613D01*
X92781528Y-134163149D01*
X92730992Y-134329745D01*
X92713928Y-134502999D01*
X87746665Y-134502999D01*
X87578631Y-134097331D01*
X87334038Y-133731271D01*
X87022729Y-133419962D01*
X86656669Y-133175369D01*
X86249925Y-133006890D01*
X85818128Y-132921000D01*
X85377872Y-132921000D01*
X84946075Y-133006890D01*
X84539331Y-133175369D01*
X84173271Y-133419962D01*
X83861962Y-133731271D01*
X83617369Y-134097331D01*
X83448890Y-134504075D01*
X83363000Y-134935872D01*
X82448000Y-134935872D01*
X82448000Y-129466000D01*
X100744928Y-129466000D01*
X100757188Y-129590482D01*
X100793498Y-129710180D01*
X100852463Y-129820494D01*
X100931815Y-129917185D01*
X101028506Y-129996537D01*
X101138820Y-130055502D01*
X101258518Y-130091812D01*
X101383000Y-130104072D01*
X101822250Y-130101000D01*
X101981000Y-129942250D01*
X101981000Y-129093000D01*
X102235000Y-129093000D01*
X102235000Y-129942250D01*
X102393750Y-130101000D01*
X102833000Y-130104072D01*
X102957482Y-130091812D01*
X103077180Y-130055502D01*
X103187494Y-129996537D01*
X103284185Y-129917185D01*
X103363537Y-129820494D01*
X103422502Y-129710180D01*
X103458812Y-129590482D01*
X103471072Y-129466000D01*
X103468000Y-129251750D01*
X103309250Y-129093000D01*
X102235000Y-129093000D01*
X101981000Y-129093000D01*
X100906750Y-129093000D01*
X100748000Y-129251750D01*
X100744928Y-129466000D01*
X82448000Y-129466000D01*
X82448000Y-121756000D01*
X95005928Y-121756000D01*
X95018188Y-121880482D01*
X95054498Y-122000180D01*
X95113463Y-122110494D01*
X95192815Y-122207185D01*
X95289506Y-122286537D01*
X95399820Y-122345502D01*
X95519518Y-122381812D01*
X95644000Y-122394072D01*
X95858250Y-122391000D01*
X96017000Y-122232250D01*
X96017000Y-121158000D01*
X95167750Y-121158000D01*
X95009000Y-121316750D01*
X95005928Y-121756000D01*
X82448000Y-121756000D01*
X82448000Y-120306000D01*
X95005928Y-120306000D01*
X95009000Y-120745250D01*
X95167750Y-120904000D01*
X96017000Y-120904000D01*
X96017000Y-119829750D01*
X96271000Y-119829750D01*
X96271000Y-120904000D01*
X96291000Y-120904000D01*
X96291000Y-121158000D01*
X96271000Y-121158000D01*
X96271000Y-122232250D01*
X96429750Y-122391000D01*
X96644000Y-122394072D01*
X96768482Y-122381812D01*
X96888180Y-122345502D01*
X96998494Y-122286537D01*
X97095185Y-122207185D01*
X97160658Y-122127406D01*
X97166038Y-122133962D01*
X97284001Y-122230771D01*
X97284001Y-122964668D01*
X97280324Y-123002000D01*
X97294998Y-123150985D01*
X97338454Y-123294246D01*
X97409026Y-123426276D01*
X97480201Y-123513002D01*
X97504000Y-123542001D01*
X97532998Y-123565799D01*
X99753997Y-125786799D01*
X99754002Y-125786803D01*
X100748359Y-126781161D01*
X100744928Y-126816000D01*
X100744928Y-127316000D01*
X100761992Y-127489254D01*
X100812528Y-127655850D01*
X100894595Y-127809386D01*
X101005038Y-127943962D01*
X101011594Y-127949342D01*
X100931815Y-128014815D01*
X100852463Y-128111506D01*
X100793498Y-128221820D01*
X100757188Y-128341518D01*
X100744928Y-128466000D01*
X100748000Y-128680250D01*
X100906750Y-128839000D01*
X101981000Y-128839000D01*
X101981000Y-128819000D01*
X102235000Y-128819000D01*
X102235000Y-128839000D01*
X103309250Y-128839000D01*
X103468000Y-128680250D01*
X103471072Y-128466000D01*
X103458812Y-128341518D01*
X103422502Y-128221820D01*
X103363537Y-128111506D01*
X103284185Y-128014815D01*
X103204406Y-127949342D01*
X103210962Y-127943962D01*
X103307770Y-127826000D01*
X105857699Y-127826000D01*
X107423000Y-129391302D01*
X107423000Y-129453439D01*
X107462774Y-129653398D01*
X107540795Y-129841756D01*
X107654063Y-130011274D01*
X107798226Y-130155437D01*
X107967744Y-130268705D01*
X108156102Y-130346726D01*
X108356061Y-130386500D01*
X108559939Y-130386500D01*
X108759898Y-130346726D01*
X108948256Y-130268705D01*
X109117774Y-130155437D01*
X109261937Y-130011274D01*
X109375205Y-129841756D01*
X109453226Y-129653398D01*
X109493000Y-129453439D01*
X109493000Y-129249561D01*
X109453226Y-129049602D01*
X109375205Y-128861244D01*
X109261937Y-128691726D01*
X109117774Y-128547563D01*
X108948256Y-128434295D01*
X108759898Y-128356274D01*
X108559939Y-128316500D01*
X108497802Y-128316500D01*
X106736304Y-126555003D01*
X106712501Y-126525999D01*
X106596776Y-126431026D01*
X106464747Y-126360454D01*
X106321486Y-126316997D01*
X106209833Y-126306000D01*
X106209822Y-126306000D01*
X106172500Y-126302324D01*
X106135178Y-126306000D01*
X103307770Y-126306000D01*
X103210962Y-126188038D01*
X103076386Y-126077595D01*
X102922850Y-125995528D01*
X102756254Y-125944992D01*
X102583000Y-125927928D01*
X102044730Y-125927928D01*
X100828803Y-124712002D01*
X100828799Y-124711997D01*
X98804000Y-122687199D01*
X98804000Y-122230770D01*
X98921962Y-122133962D01*
X99032405Y-121999386D01*
X99114391Y-121846000D01*
X103030928Y-121846000D01*
X103043188Y-121970482D01*
X103079498Y-122090180D01*
X103138463Y-122200494D01*
X103217815Y-122297185D01*
X103314506Y-122376537D01*
X103424820Y-122435502D01*
X103544518Y-122471812D01*
X103669000Y-122484072D01*
X104108250Y-122481000D01*
X104267000Y-122322250D01*
X104267000Y-121473000D01*
X104521000Y-121473000D01*
X104521000Y-122322250D01*
X104679750Y-122481000D01*
X105119000Y-122484072D01*
X105243482Y-122471812D01*
X105363180Y-122435502D01*
X105473494Y-122376537D01*
X105570185Y-122297185D01*
X105649537Y-122200494D01*
X105708502Y-122090180D01*
X105744812Y-121970482D01*
X105757072Y-121846000D01*
X105754000Y-121631750D01*
X105595250Y-121473000D01*
X104521000Y-121473000D01*
X104267000Y-121473000D01*
X103192750Y-121473000D01*
X103034000Y-121631750D01*
X103030928Y-121846000D01*
X99114391Y-121846000D01*
X99114472Y-121845850D01*
X99165008Y-121679254D01*
X99182072Y-121506000D01*
X99182072Y-120967730D01*
X99943803Y-120206000D01*
X103194230Y-120206000D01*
X103291038Y-120323962D01*
X103297594Y-120329342D01*
X103217815Y-120394815D01*
X103138463Y-120491506D01*
X103079498Y-120601820D01*
X103043188Y-120721518D01*
X103030928Y-120846000D01*
X103034000Y-121060250D01*
X103192750Y-121219000D01*
X104267000Y-121219000D01*
X104267000Y-121199000D01*
X104521000Y-121199000D01*
X104521000Y-121219000D01*
X105595250Y-121219000D01*
X105754000Y-121060250D01*
X105757072Y-120846000D01*
X105744812Y-120721518D01*
X105708502Y-120601820D01*
X105649537Y-120491506D01*
X105640691Y-120480728D01*
X105642061Y-120481000D01*
X105845939Y-120481000D01*
X106045898Y-120441226D01*
X106234256Y-120363205D01*
X106403774Y-120249937D01*
X106547937Y-120105774D01*
X106661205Y-119936256D01*
X106739226Y-119747898D01*
X106779000Y-119547939D01*
X106779000Y-119344061D01*
X106739226Y-119144102D01*
X106661205Y-118955744D01*
X106547937Y-118786226D01*
X106403774Y-118642063D01*
X106234256Y-118528795D01*
X106045898Y-118450774D01*
X105845939Y-118411000D01*
X105642061Y-118411000D01*
X105442102Y-118450774D01*
X105383601Y-118475006D01*
X105362386Y-118457595D01*
X105208850Y-118375528D01*
X105042254Y-118324992D01*
X104869000Y-118307928D01*
X103919000Y-118307928D01*
X103745746Y-118324992D01*
X103579150Y-118375528D01*
X103425614Y-118457595D01*
X103291038Y-118568038D01*
X103194230Y-118686000D01*
X99666322Y-118686000D01*
X99628999Y-118682324D01*
X99591676Y-118686000D01*
X99591667Y-118686000D01*
X99480014Y-118696997D01*
X99336753Y-118740454D01*
X99204724Y-118811026D01*
X99204722Y-118811027D01*
X99204723Y-118811027D01*
X99117996Y-118882201D01*
X99117992Y-118882205D01*
X99088999Y-118905999D01*
X99065205Y-118934992D01*
X98328839Y-119671359D01*
X98294000Y-119667928D01*
X97794000Y-119667928D01*
X97620746Y-119684992D01*
X97454150Y-119735528D01*
X97300614Y-119817595D01*
X97166038Y-119928038D01*
X97160658Y-119934594D01*
X97095185Y-119854815D01*
X96998494Y-119775463D01*
X96888180Y-119716498D01*
X96768482Y-119680188D01*
X96644000Y-119667928D01*
X96429750Y-119671000D01*
X96271000Y-119829750D01*
X96017000Y-119829750D01*
X95858250Y-119671000D01*
X95644000Y-119667928D01*
X95519518Y-119680188D01*
X95399820Y-119716498D01*
X95289506Y-119775463D01*
X95192815Y-119854815D01*
X95113463Y-119951506D01*
X95054498Y-120061820D01*
X95018188Y-120181518D01*
X95005928Y-120306000D01*
X82448000Y-120306000D01*
X82448000Y-108476212D01*
X92131000Y-108476212D01*
X92131000Y-108699788D01*
X92174617Y-108919067D01*
X92260176Y-109125624D01*
X92384388Y-109311520D01*
X92542480Y-109469612D01*
X92728376Y-109593824D01*
X92934933Y-109679383D01*
X93154212Y-109723000D01*
X93377788Y-109723000D01*
X93597067Y-109679383D01*
X93803624Y-109593824D01*
X93989520Y-109469612D01*
X94147612Y-109311520D01*
X94271824Y-109125624D01*
X94357383Y-108919067D01*
X94401000Y-108699788D01*
X94401000Y-108476212D01*
X94357383Y-108256933D01*
X94271824Y-108050376D01*
X94147612Y-107864480D01*
X93989520Y-107706388D01*
X93803624Y-107582176D01*
X93633213Y-107511589D01*
X94881000Y-107511589D01*
X94881000Y-107784411D01*
X94934225Y-108051989D01*
X95038629Y-108304043D01*
X95190201Y-108530886D01*
X95383114Y-108723799D01*
X95609957Y-108875371D01*
X95862011Y-108979775D01*
X96129589Y-109033000D01*
X96402411Y-109033000D01*
X96669989Y-108979775D01*
X96922043Y-108875371D01*
X97148886Y-108723799D01*
X97341799Y-108530886D01*
X97493371Y-108304043D01*
X97597775Y-108051989D01*
X97651000Y-107784411D01*
X97651000Y-107511589D01*
X97881000Y-107511589D01*
X97881000Y-107784411D01*
X97934225Y-108051989D01*
X98038629Y-108304043D01*
X98190201Y-108530886D01*
X98383114Y-108723799D01*
X98609957Y-108875371D01*
X98862011Y-108979775D01*
X99129589Y-109033000D01*
X99402411Y-109033000D01*
X99669989Y-108979775D01*
X99922043Y-108875371D01*
X100148886Y-108723799D01*
X100341799Y-108530886D01*
X100493371Y-108304043D01*
X100597775Y-108051989D01*
X100651000Y-107784411D01*
X100651000Y-107511589D01*
X100881000Y-107511589D01*
X100881000Y-107784411D01*
X100934225Y-108051989D01*
X101038629Y-108304043D01*
X101190201Y-108530886D01*
X101383114Y-108723799D01*
X101609957Y-108875371D01*
X101862011Y-108979775D01*
X102129589Y-109033000D01*
X102402411Y-109033000D01*
X102669989Y-108979775D01*
X102922043Y-108875371D01*
X103148886Y-108723799D01*
X103341799Y-108530886D01*
X103493371Y-108304043D01*
X103597775Y-108051989D01*
X103651000Y-107784411D01*
X103651000Y-107511589D01*
X103881000Y-107511589D01*
X103881000Y-107784411D01*
X103934225Y-108051989D01*
X104038629Y-108304043D01*
X104190201Y-108530886D01*
X104383114Y-108723799D01*
X104609957Y-108875371D01*
X104862011Y-108979775D01*
X105129589Y-109033000D01*
X105402411Y-109033000D01*
X105669989Y-108979775D01*
X105922043Y-108875371D01*
X106148886Y-108723799D01*
X106341799Y-108530886D01*
X106378331Y-108476212D01*
X107131000Y-108476212D01*
X107131000Y-108699788D01*
X107174617Y-108919067D01*
X107260176Y-109125624D01*
X107384388Y-109311520D01*
X107542480Y-109469612D01*
X107728376Y-109593824D01*
X107934933Y-109679383D01*
X108154212Y-109723000D01*
X108377788Y-109723000D01*
X108597067Y-109679383D01*
X108803624Y-109593824D01*
X108989520Y-109469612D01*
X109147612Y-109311520D01*
X109271824Y-109125624D01*
X109357383Y-108919067D01*
X109401000Y-108699788D01*
X109401000Y-108476212D01*
X109357383Y-108256933D01*
X109271824Y-108050376D01*
X109147612Y-107864480D01*
X108989520Y-107706388D01*
X108803624Y-107582176D01*
X108597067Y-107496617D01*
X108377788Y-107453000D01*
X108154212Y-107453000D01*
X107934933Y-107496617D01*
X107728376Y-107582176D01*
X107542480Y-107706388D01*
X107384388Y-107864480D01*
X107260176Y-108050376D01*
X107174617Y-108256933D01*
X107131000Y-108476212D01*
X106378331Y-108476212D01*
X106493371Y-108304043D01*
X106597775Y-108051989D01*
X106651000Y-107784411D01*
X106651000Y-107511589D01*
X106597775Y-107244011D01*
X106493371Y-106991957D01*
X106341799Y-106765114D01*
X106148886Y-106572201D01*
X105922043Y-106420629D01*
X105669989Y-106316225D01*
X105402411Y-106263000D01*
X105129589Y-106263000D01*
X104862011Y-106316225D01*
X104609957Y-106420629D01*
X104383114Y-106572201D01*
X104190201Y-106765114D01*
X104038629Y-106991957D01*
X103934225Y-107244011D01*
X103881000Y-107511589D01*
X103651000Y-107511589D01*
X103597775Y-107244011D01*
X103493371Y-106991957D01*
X103341799Y-106765114D01*
X103148886Y-106572201D01*
X102922043Y-106420629D01*
X102669989Y-106316225D01*
X102402411Y-106263000D01*
X102129589Y-106263000D01*
X101862011Y-106316225D01*
X101609957Y-106420629D01*
X101383114Y-106572201D01*
X101190201Y-106765114D01*
X101038629Y-106991957D01*
X100934225Y-107244011D01*
X100881000Y-107511589D01*
X100651000Y-107511589D01*
X100597775Y-107244011D01*
X100493371Y-106991957D01*
X100341799Y-106765114D01*
X100148886Y-106572201D01*
X99922043Y-106420629D01*
X99669989Y-106316225D01*
X99402411Y-106263000D01*
X99129589Y-106263000D01*
X98862011Y-106316225D01*
X98609957Y-106420629D01*
X98383114Y-106572201D01*
X98190201Y-106765114D01*
X98038629Y-106991957D01*
X97934225Y-107244011D01*
X97881000Y-107511589D01*
X97651000Y-107511589D01*
X97597775Y-107244011D01*
X97493371Y-106991957D01*
X97341799Y-106765114D01*
X97148886Y-106572201D01*
X96922043Y-106420629D01*
X96669989Y-106316225D01*
X96402411Y-106263000D01*
X96129589Y-106263000D01*
X95862011Y-106316225D01*
X95609957Y-106420629D01*
X95383114Y-106572201D01*
X95190201Y-106765114D01*
X95038629Y-106991957D01*
X94934225Y-107244011D01*
X94881000Y-107511589D01*
X93633213Y-107511589D01*
X93597067Y-107496617D01*
X93377788Y-107453000D01*
X93154212Y-107453000D01*
X92934933Y-107496617D01*
X92728376Y-107582176D01*
X92542480Y-107706388D01*
X92384388Y-107864480D01*
X92260176Y-108050376D01*
X92174617Y-108256933D01*
X92131000Y-108476212D01*
X82448000Y-108476212D01*
X82448000Y-105188279D01*
X82472748Y-104935872D01*
X83363000Y-104935872D01*
X83363000Y-105376128D01*
X83448890Y-105807925D01*
X83617369Y-106214669D01*
X83861962Y-106580729D01*
X84173271Y-106892038D01*
X84539331Y-107136631D01*
X84946075Y-107305110D01*
X85377872Y-107391000D01*
X85818128Y-107391000D01*
X86249925Y-107305110D01*
X86656669Y-107136631D01*
X87022729Y-106892038D01*
X87334038Y-106580729D01*
X87578631Y-106214669D01*
X87747110Y-105807925D01*
X87833000Y-105376128D01*
X87833000Y-104935872D01*
X87747110Y-104504075D01*
X87599619Y-104148000D01*
X94877928Y-104148000D01*
X94877928Y-105148000D01*
X94894992Y-105321254D01*
X94945528Y-105487850D01*
X95027595Y-105641386D01*
X95138038Y-105775962D01*
X95272614Y-105886405D01*
X95426150Y-105968472D01*
X95592746Y-106019008D01*
X95766000Y-106036072D01*
X96766000Y-106036072D01*
X96939254Y-106019008D01*
X97105850Y-105968472D01*
X97259386Y-105886405D01*
X97393962Y-105775962D01*
X97504405Y-105641386D01*
X97523857Y-105604993D01*
X98488612Y-105604993D01*
X98554137Y-105843860D01*
X98801116Y-105959760D01*
X99065960Y-106025250D01*
X99338492Y-106037812D01*
X99608238Y-105996965D01*
X99864832Y-105904277D01*
X99977863Y-105843860D01*
X100043388Y-105604993D01*
X99266000Y-104827605D01*
X98488612Y-105604993D01*
X97523857Y-105604993D01*
X97586472Y-105487850D01*
X97637008Y-105321254D01*
X97654072Y-105148000D01*
X97654072Y-104720492D01*
X97876188Y-104720492D01*
X97917035Y-104990238D01*
X98009723Y-105246832D01*
X98070140Y-105359863D01*
X98309007Y-105425388D01*
X99086395Y-104648000D01*
X99445605Y-104648000D01*
X100222993Y-105425388D01*
X100461860Y-105359863D01*
X100577760Y-105112884D01*
X100643250Y-104848040D01*
X100655812Y-104575508D01*
X100646133Y-104511589D01*
X100881000Y-104511589D01*
X100881000Y-104784411D01*
X100934225Y-105051989D01*
X101038629Y-105304043D01*
X101190201Y-105530886D01*
X101383114Y-105723799D01*
X101609957Y-105875371D01*
X101862011Y-105979775D01*
X102129589Y-106033000D01*
X102402411Y-106033000D01*
X102669989Y-105979775D01*
X102922043Y-105875371D01*
X103148886Y-105723799D01*
X103341799Y-105530886D01*
X103493371Y-105304043D01*
X103597775Y-105051989D01*
X103651000Y-104784411D01*
X103651000Y-104511589D01*
X103881000Y-104511589D01*
X103881000Y-104784411D01*
X103934225Y-105051989D01*
X104038629Y-105304043D01*
X104190201Y-105530886D01*
X104383114Y-105723799D01*
X104609957Y-105875371D01*
X104862011Y-105979775D01*
X105129589Y-106033000D01*
X105402411Y-106033000D01*
X105669989Y-105979775D01*
X105922043Y-105875371D01*
X106148886Y-105723799D01*
X106341799Y-105530886D01*
X106493371Y-105304043D01*
X106597775Y-105051989D01*
X106620872Y-104935872D01*
X113363000Y-104935872D01*
X113363000Y-105376128D01*
X113448890Y-105807925D01*
X113617369Y-106214669D01*
X113861962Y-106580729D01*
X114173271Y-106892038D01*
X114539331Y-107136631D01*
X114946075Y-107305110D01*
X115377872Y-107391000D01*
X115818128Y-107391000D01*
X116249925Y-107305110D01*
X116656669Y-107136631D01*
X117022729Y-106892038D01*
X117334038Y-106580729D01*
X117578631Y-106214669D01*
X117747110Y-105807925D01*
X117833000Y-105376128D01*
X117833000Y-104935872D01*
X117747110Y-104504075D01*
X117578631Y-104097331D01*
X117334038Y-103731271D01*
X117022729Y-103419962D01*
X116656669Y-103175369D01*
X116249925Y-103006890D01*
X115818128Y-102921000D01*
X115377872Y-102921000D01*
X114946075Y-103006890D01*
X114539331Y-103175369D01*
X114173271Y-103419962D01*
X113861962Y-103731271D01*
X113617369Y-104097331D01*
X113448890Y-104504075D01*
X113363000Y-104935872D01*
X106620872Y-104935872D01*
X106651000Y-104784411D01*
X106651000Y-104511589D01*
X106597775Y-104244011D01*
X106493371Y-103991957D01*
X106341799Y-103765114D01*
X106148886Y-103572201D01*
X105922043Y-103420629D01*
X105669989Y-103316225D01*
X105402411Y-103263000D01*
X105129589Y-103263000D01*
X104862011Y-103316225D01*
X104609957Y-103420629D01*
X104383114Y-103572201D01*
X104190201Y-103765114D01*
X104038629Y-103991957D01*
X103934225Y-104244011D01*
X103881000Y-104511589D01*
X103651000Y-104511589D01*
X103597775Y-104244011D01*
X103493371Y-103991957D01*
X103341799Y-103765114D01*
X103148886Y-103572201D01*
X102922043Y-103420629D01*
X102669989Y-103316225D01*
X102402411Y-103263000D01*
X102129589Y-103263000D01*
X101862011Y-103316225D01*
X101609957Y-103420629D01*
X101383114Y-103572201D01*
X101190201Y-103765114D01*
X101038629Y-103991957D01*
X100934225Y-104244011D01*
X100881000Y-104511589D01*
X100646133Y-104511589D01*
X100614965Y-104305762D01*
X100522277Y-104049168D01*
X100461860Y-103936137D01*
X100222993Y-103870612D01*
X99445605Y-104648000D01*
X99086395Y-104648000D01*
X98309007Y-103870612D01*
X98070140Y-103936137D01*
X97954240Y-104183116D01*
X97888750Y-104447960D01*
X97876188Y-104720492D01*
X97654072Y-104720492D01*
X97654072Y-104148000D01*
X97637008Y-103974746D01*
X97586472Y-103808150D01*
X97523858Y-103691007D01*
X98488612Y-103691007D01*
X99266000Y-104468395D01*
X100043388Y-103691007D01*
X99977863Y-103452140D01*
X99730884Y-103336240D01*
X99466040Y-103270750D01*
X99193508Y-103258188D01*
X98923762Y-103299035D01*
X98667168Y-103391723D01*
X98554137Y-103452140D01*
X98488612Y-103691007D01*
X97523858Y-103691007D01*
X97504405Y-103654614D01*
X97393962Y-103520038D01*
X97259386Y-103409595D01*
X97105850Y-103327528D01*
X96939254Y-103276992D01*
X96766000Y-103259928D01*
X95766000Y-103259928D01*
X95592746Y-103276992D01*
X95426150Y-103327528D01*
X95272614Y-103409595D01*
X95138038Y-103520038D01*
X95027595Y-103654614D01*
X94945528Y-103808150D01*
X94894992Y-103974746D01*
X94877928Y-104148000D01*
X87599619Y-104148000D01*
X87578631Y-104097331D01*
X87334038Y-103731271D01*
X87022729Y-103419962D01*
X86656669Y-103175369D01*
X86249925Y-103006890D01*
X85818128Y-102921000D01*
X85377872Y-102921000D01*
X84946075Y-103006890D01*
X84539331Y-103175369D01*
X84173271Y-103419962D01*
X83861962Y-103731271D01*
X83617369Y-104097331D01*
X83448890Y-104504075D01*
X83363000Y-104935872D01*
X82472748Y-104935872D01*
X82511096Y-104544778D01*
X82688606Y-103956836D01*
X82976937Y-103414564D01*
X83365094Y-102938636D01*
X83838314Y-102547155D01*
X84378552Y-102255049D01*
X84965244Y-102073437D01*
X85606879Y-102006000D01*
X115537721Y-102006000D01*
X116181222Y-102069096D01*
G37*
X116181222Y-102069096D02*
X116769164Y-102246606D01*
X117311436Y-102534937D01*
X117787364Y-102923094D01*
X118178845Y-103396314D01*
X118470951Y-103936552D01*
X118652563Y-104523244D01*
X118719997Y-105164855D01*
X118710321Y-134847717D01*
X118692608Y-135517737D01*
X118557438Y-136116833D01*
X118308477Y-136678264D01*
X117955211Y-137180642D01*
X117511085Y-137604845D01*
X116993033Y-137934698D01*
X116420774Y-138157647D01*
X115796939Y-138268607D01*
X115557091Y-138278000D01*
X85630279Y-138278000D01*
X84986779Y-138214904D01*
X84398836Y-138037394D01*
X83856564Y-137749063D01*
X83380636Y-137360906D01*
X82989155Y-136887686D01*
X82697050Y-136347449D01*
X82515437Y-135760756D01*
X82448000Y-135119130D01*
X82448000Y-134935872D01*
X83363000Y-134935872D01*
X83363000Y-135376128D01*
X83448890Y-135807925D01*
X83617369Y-136214669D01*
X83861962Y-136580729D01*
X84173271Y-136892038D01*
X84539331Y-137136631D01*
X84946075Y-137305110D01*
X85377872Y-137391000D01*
X85818128Y-137391000D01*
X86249925Y-137305110D01*
X86656669Y-137136631D01*
X87022729Y-136892038D01*
X87334038Y-136580729D01*
X87578631Y-136214669D01*
X87747110Y-135807925D01*
X87833000Y-135376128D01*
X87833000Y-134935872D01*
X87747110Y-134504075D01*
X87746665Y-134502999D01*
X92713928Y-134502999D01*
X92713928Y-135753001D01*
X92730992Y-135926255D01*
X92781528Y-136092851D01*
X92863595Y-136246387D01*
X92974038Y-136380962D01*
X93108613Y-136491405D01*
X93262149Y-136573472D01*
X93428745Y-136624008D01*
X93601999Y-136641072D01*
X94227001Y-136641072D01*
X94400255Y-136624008D01*
X94566851Y-136573472D01*
X94720387Y-136491405D01*
X94854962Y-136380962D01*
X94965405Y-136246387D01*
X95047472Y-136092851D01*
X95074727Y-136003000D01*
X95638928Y-136003000D01*
X95651188Y-136127482D01*
X95687498Y-136247180D01*
X95746463Y-136357494D01*
X95825815Y-136454185D01*
X95922506Y-136533537D01*
X96032820Y-136592502D01*
X96152518Y-136628812D01*
X96277000Y-136641072D01*
X96553750Y-136638000D01*
X96712500Y-136479250D01*
X96712500Y-135255000D01*
X96966500Y-135255000D01*
X96966500Y-136479250D01*
X97125250Y-136638000D01*
X97402000Y-136641072D01*
X97526482Y-136628812D01*
X97646180Y-136592502D01*
X97756494Y-136533537D01*
X97853185Y-136454185D01*
X97932537Y-136357494D01*
X97991502Y-136247180D01*
X98027812Y-136127482D01*
X98040072Y-136003000D01*
X98037000Y-135413750D01*
X97878250Y-135255000D01*
X96966500Y-135255000D01*
X96712500Y-135255000D01*
X95800750Y-135255000D01*
X95642000Y-135413750D01*
X95638928Y-136003000D01*
X95074727Y-136003000D01*
X95098008Y-135926255D01*
X95115072Y-135753001D01*
X95115072Y-134502999D01*
X95098008Y-134329745D01*
X95074728Y-134253000D01*
X95638928Y-134253000D01*
X95642000Y-134842250D01*
X95800750Y-135001000D01*
X96712500Y-135001000D01*
X96712500Y-133776750D01*
X96966500Y-133776750D01*
X96966500Y-135001000D01*
X97878250Y-135001000D01*
X97943378Y-134935872D01*
X113363000Y-134935872D01*
X113363000Y-135376128D01*
X113448890Y-135807925D01*
X113617369Y-136214669D01*
X113861962Y-136580729D01*
X114173271Y-136892038D01*
X114539331Y-137136631D01*
X114946075Y-137305110D01*
X115377872Y-137391000D01*
X115818128Y-137391000D01*
X116249925Y-137305110D01*
X116656669Y-137136631D01*
X117022729Y-136892038D01*
X117334038Y-136580729D01*
X117578631Y-136214669D01*
X117747110Y-135807925D01*
X117833000Y-135376128D01*
X117833000Y-134935872D01*
X117747110Y-134504075D01*
X117578631Y-134097331D01*
X117334038Y-133731271D01*
X117022729Y-133419962D01*
X116656669Y-133175369D01*
X116249925Y-133006890D01*
X115818128Y-132921000D01*
X115377872Y-132921000D01*
X114946075Y-133006890D01*
X114539331Y-133175369D01*
X114173271Y-133419962D01*
X113861962Y-133731271D01*
X113617369Y-134097331D01*
X113448890Y-134504075D01*
X113363000Y-134935872D01*
X97943378Y-134935872D01*
X98037000Y-134842250D01*
X98040072Y-134253000D01*
X98027812Y-134128518D01*
X97991502Y-134008820D01*
X97932537Y-133898506D01*
X97853185Y-133801815D01*
X97756494Y-133722463D01*
X97646180Y-133663498D01*
X97526482Y-133627188D01*
X97402000Y-133614928D01*
X97125250Y-133618000D01*
X96966500Y-133776750D01*
X96712500Y-133776750D01*
X96553750Y-133618000D01*
X96277000Y-133614928D01*
X96152518Y-133627188D01*
X96032820Y-133663498D01*
X95922506Y-133722463D01*
X95825815Y-133801815D01*
X95746463Y-133898506D01*
X95687498Y-134008820D01*
X95651188Y-134128518D01*
X95638928Y-134253000D01*
X95074728Y-134253000D01*
X95047472Y-134163149D01*
X94965405Y-134009613D01*
X94854962Y-133875038D01*
X94720387Y-133764595D01*
X94566851Y-133682528D01*
X94400255Y-133631992D01*
X94227001Y-133614928D01*
X93601999Y-133614928D01*
X93428745Y-133631992D01*
X93262149Y-133682528D01*
X93108613Y-133764595D01*
X92974038Y-133875038D01*
X92863595Y-134009613D01*
X92781528Y-134163149D01*
X92730992Y-134329745D01*
X92713928Y-134502999D01*
X87746665Y-134502999D01*
X87578631Y-134097331D01*
X87334038Y-133731271D01*
X87022729Y-133419962D01*
X86656669Y-133175369D01*
X86249925Y-133006890D01*
X85818128Y-132921000D01*
X85377872Y-132921000D01*
X84946075Y-133006890D01*
X84539331Y-133175369D01*
X84173271Y-133419962D01*
X83861962Y-133731271D01*
X83617369Y-134097331D01*
X83448890Y-134504075D01*
X83363000Y-134935872D01*
X82448000Y-134935872D01*
X82448000Y-129466000D01*
X100744928Y-129466000D01*
X100757188Y-129590482D01*
X100793498Y-129710180D01*
X100852463Y-129820494D01*
X100931815Y-129917185D01*
X101028506Y-129996537D01*
X101138820Y-130055502D01*
X101258518Y-130091812D01*
X101383000Y-130104072D01*
X101822250Y-130101000D01*
X101981000Y-129942250D01*
X101981000Y-129093000D01*
X102235000Y-129093000D01*
X102235000Y-129942250D01*
X102393750Y-130101000D01*
X102833000Y-130104072D01*
X102957482Y-130091812D01*
X103077180Y-130055502D01*
X103187494Y-129996537D01*
X103284185Y-129917185D01*
X103363537Y-129820494D01*
X103422502Y-129710180D01*
X103458812Y-129590482D01*
X103471072Y-129466000D01*
X103468000Y-129251750D01*
X103309250Y-129093000D01*
X102235000Y-129093000D01*
X101981000Y-129093000D01*
X100906750Y-129093000D01*
X100748000Y-129251750D01*
X100744928Y-129466000D01*
X82448000Y-129466000D01*
X82448000Y-121756000D01*
X95005928Y-121756000D01*
X95018188Y-121880482D01*
X95054498Y-122000180D01*
X95113463Y-122110494D01*
X95192815Y-122207185D01*
X95289506Y-122286537D01*
X95399820Y-122345502D01*
X95519518Y-122381812D01*
X95644000Y-122394072D01*
X95858250Y-122391000D01*
X96017000Y-122232250D01*
X96017000Y-121158000D01*
X95167750Y-121158000D01*
X95009000Y-121316750D01*
X95005928Y-121756000D01*
X82448000Y-121756000D01*
X82448000Y-120306000D01*
X95005928Y-120306000D01*
X95009000Y-120745250D01*
X95167750Y-120904000D01*
X96017000Y-120904000D01*
X96017000Y-119829750D01*
X96271000Y-119829750D01*
X96271000Y-120904000D01*
X96291000Y-120904000D01*
X96291000Y-121158000D01*
X96271000Y-121158000D01*
X96271000Y-122232250D01*
X96429750Y-122391000D01*
X96644000Y-122394072D01*
X96768482Y-122381812D01*
X96888180Y-122345502D01*
X96998494Y-122286537D01*
X97095185Y-122207185D01*
X97160658Y-122127406D01*
X97166038Y-122133962D01*
X97284001Y-122230771D01*
X97284001Y-122964668D01*
X97280324Y-123002000D01*
X97294998Y-123150985D01*
X97338454Y-123294246D01*
X97409026Y-123426276D01*
X97480201Y-123513002D01*
X97504000Y-123542001D01*
X97532998Y-123565799D01*
X99753997Y-125786799D01*
X99754002Y-125786803D01*
X100748359Y-126781161D01*
X100744928Y-126816000D01*
X100744928Y-127316000D01*
X100761992Y-127489254D01*
X100812528Y-127655850D01*
X100894595Y-127809386D01*
X101005038Y-127943962D01*
X101011594Y-127949342D01*
X100931815Y-128014815D01*
X100852463Y-128111506D01*
X100793498Y-128221820D01*
X100757188Y-128341518D01*
X100744928Y-128466000D01*
X100748000Y-128680250D01*
X100906750Y-128839000D01*
X101981000Y-128839000D01*
X101981000Y-128819000D01*
X102235000Y-128819000D01*
X102235000Y-128839000D01*
X103309250Y-128839000D01*
X103468000Y-128680250D01*
X103471072Y-128466000D01*
X103458812Y-128341518D01*
X103422502Y-128221820D01*
X103363537Y-128111506D01*
X103284185Y-128014815D01*
X103204406Y-127949342D01*
X103210962Y-127943962D01*
X103307770Y-127826000D01*
X105857699Y-127826000D01*
X107423000Y-129391302D01*
X107423000Y-129453439D01*
X107462774Y-129653398D01*
X107540795Y-129841756D01*
X107654063Y-130011274D01*
X107798226Y-130155437D01*
X107967744Y-130268705D01*
X108156102Y-130346726D01*
X108356061Y-130386500D01*
X108559939Y-130386500D01*
X108759898Y-130346726D01*
X108948256Y-130268705D01*
X109117774Y-130155437D01*
X109261937Y-130011274D01*
X109375205Y-129841756D01*
X109453226Y-129653398D01*
X109493000Y-129453439D01*
X109493000Y-129249561D01*
X109453226Y-129049602D01*
X109375205Y-128861244D01*
X109261937Y-128691726D01*
X109117774Y-128547563D01*
X108948256Y-128434295D01*
X108759898Y-128356274D01*
X108559939Y-128316500D01*
X108497802Y-128316500D01*
X106736304Y-126555003D01*
X106712501Y-126525999D01*
X106596776Y-126431026D01*
X106464747Y-126360454D01*
X106321486Y-126316997D01*
X106209833Y-126306000D01*
X106209822Y-126306000D01*
X106172500Y-126302324D01*
X106135178Y-126306000D01*
X103307770Y-126306000D01*
X103210962Y-126188038D01*
X103076386Y-126077595D01*
X102922850Y-125995528D01*
X102756254Y-125944992D01*
X102583000Y-125927928D01*
X102044730Y-125927928D01*
X100828803Y-124712002D01*
X100828799Y-124711997D01*
X98804000Y-122687199D01*
X98804000Y-122230770D01*
X98921962Y-122133962D01*
X99032405Y-121999386D01*
X99114391Y-121846000D01*
X103030928Y-121846000D01*
X103043188Y-121970482D01*
X103079498Y-122090180D01*
X103138463Y-122200494D01*
X103217815Y-122297185D01*
X103314506Y-122376537D01*
X103424820Y-122435502D01*
X103544518Y-122471812D01*
X103669000Y-122484072D01*
X104108250Y-122481000D01*
X104267000Y-122322250D01*
X104267000Y-121473000D01*
X104521000Y-121473000D01*
X104521000Y-122322250D01*
X104679750Y-122481000D01*
X105119000Y-122484072D01*
X105243482Y-122471812D01*
X105363180Y-122435502D01*
X105473494Y-122376537D01*
X105570185Y-122297185D01*
X105649537Y-122200494D01*
X105708502Y-122090180D01*
X105744812Y-121970482D01*
X105757072Y-121846000D01*
X105754000Y-121631750D01*
X105595250Y-121473000D01*
X104521000Y-121473000D01*
X104267000Y-121473000D01*
X103192750Y-121473000D01*
X103034000Y-121631750D01*
X103030928Y-121846000D01*
X99114391Y-121846000D01*
X99114472Y-121845850D01*
X99165008Y-121679254D01*
X99182072Y-121506000D01*
X99182072Y-120967730D01*
X99943803Y-120206000D01*
X103194230Y-120206000D01*
X103291038Y-120323962D01*
X103297594Y-120329342D01*
X103217815Y-120394815D01*
X103138463Y-120491506D01*
X103079498Y-120601820D01*
X103043188Y-120721518D01*
X103030928Y-120846000D01*
X103034000Y-121060250D01*
X103192750Y-121219000D01*
X104267000Y-121219000D01*
X104267000Y-121199000D01*
X104521000Y-121199000D01*
X104521000Y-121219000D01*
X105595250Y-121219000D01*
X105754000Y-121060250D01*
X105757072Y-120846000D01*
X105744812Y-120721518D01*
X105708502Y-120601820D01*
X105649537Y-120491506D01*
X105640691Y-120480728D01*
X105642061Y-120481000D01*
X105845939Y-120481000D01*
X106045898Y-120441226D01*
X106234256Y-120363205D01*
X106403774Y-120249937D01*
X106547937Y-120105774D01*
X106661205Y-119936256D01*
X106739226Y-119747898D01*
X106779000Y-119547939D01*
X106779000Y-119344061D01*
X106739226Y-119144102D01*
X106661205Y-118955744D01*
X106547937Y-118786226D01*
X106403774Y-118642063D01*
X106234256Y-118528795D01*
X106045898Y-118450774D01*
X105845939Y-118411000D01*
X105642061Y-118411000D01*
X105442102Y-118450774D01*
X105383601Y-118475006D01*
X105362386Y-118457595D01*
X105208850Y-118375528D01*
X105042254Y-118324992D01*
X104869000Y-118307928D01*
X103919000Y-118307928D01*
X103745746Y-118324992D01*
X103579150Y-118375528D01*
X103425614Y-118457595D01*
X103291038Y-118568038D01*
X103194230Y-118686000D01*
X99666322Y-118686000D01*
X99628999Y-118682324D01*
X99591676Y-118686000D01*
X99591667Y-118686000D01*
X99480014Y-118696997D01*
X99336753Y-118740454D01*
X99204724Y-118811026D01*
X99204722Y-118811027D01*
X99204723Y-118811027D01*
X99117996Y-118882201D01*
X99117992Y-118882205D01*
X99088999Y-118905999D01*
X99065205Y-118934992D01*
X98328839Y-119671359D01*
X98294000Y-119667928D01*
X97794000Y-119667928D01*
X97620746Y-119684992D01*
X97454150Y-119735528D01*
X97300614Y-119817595D01*
X97166038Y-119928038D01*
X97160658Y-119934594D01*
X97095185Y-119854815D01*
X96998494Y-119775463D01*
X96888180Y-119716498D01*
X96768482Y-119680188D01*
X96644000Y-119667928D01*
X96429750Y-119671000D01*
X96271000Y-119829750D01*
X96017000Y-119829750D01*
X95858250Y-119671000D01*
X95644000Y-119667928D01*
X95519518Y-119680188D01*
X95399820Y-119716498D01*
X95289506Y-119775463D01*
X95192815Y-119854815D01*
X95113463Y-119951506D01*
X95054498Y-120061820D01*
X95018188Y-120181518D01*
X95005928Y-120306000D01*
X82448000Y-120306000D01*
X82448000Y-108476212D01*
X92131000Y-108476212D01*
X92131000Y-108699788D01*
X92174617Y-108919067D01*
X92260176Y-109125624D01*
X92384388Y-109311520D01*
X92542480Y-109469612D01*
X92728376Y-109593824D01*
X92934933Y-109679383D01*
X93154212Y-109723000D01*
X93377788Y-109723000D01*
X93597067Y-109679383D01*
X93803624Y-109593824D01*
X93989520Y-109469612D01*
X94147612Y-109311520D01*
X94271824Y-109125624D01*
X94357383Y-108919067D01*
X94401000Y-108699788D01*
X94401000Y-108476212D01*
X94357383Y-108256933D01*
X94271824Y-108050376D01*
X94147612Y-107864480D01*
X93989520Y-107706388D01*
X93803624Y-107582176D01*
X93633213Y-107511589D01*
X94881000Y-107511589D01*
X94881000Y-107784411D01*
X94934225Y-108051989D01*
X95038629Y-108304043D01*
X95190201Y-108530886D01*
X95383114Y-108723799D01*
X95609957Y-108875371D01*
X95862011Y-108979775D01*
X96129589Y-109033000D01*
X96402411Y-109033000D01*
X96669989Y-108979775D01*
X96922043Y-108875371D01*
X97148886Y-108723799D01*
X97341799Y-108530886D01*
X97493371Y-108304043D01*
X97597775Y-108051989D01*
X97651000Y-107784411D01*
X97651000Y-107511589D01*
X97881000Y-107511589D01*
X97881000Y-107784411D01*
X97934225Y-108051989D01*
X98038629Y-108304043D01*
X98190201Y-108530886D01*
X98383114Y-108723799D01*
X98609957Y-108875371D01*
X98862011Y-108979775D01*
X99129589Y-109033000D01*
X99402411Y-109033000D01*
X99669989Y-108979775D01*
X99922043Y-108875371D01*
X100148886Y-108723799D01*
X100341799Y-108530886D01*
X100493371Y-108304043D01*
X100597775Y-108051989D01*
X100651000Y-107784411D01*
X100651000Y-107511589D01*
X100881000Y-107511589D01*
X100881000Y-107784411D01*
X100934225Y-108051989D01*
X101038629Y-108304043D01*
X101190201Y-108530886D01*
X101383114Y-108723799D01*
X101609957Y-108875371D01*
X101862011Y-108979775D01*
X102129589Y-109033000D01*
X102402411Y-109033000D01*
X102669989Y-108979775D01*
X102922043Y-108875371D01*
X103148886Y-108723799D01*
X103341799Y-108530886D01*
X103493371Y-108304043D01*
X103597775Y-108051989D01*
X103651000Y-107784411D01*
X103651000Y-107511589D01*
X103881000Y-107511589D01*
X103881000Y-107784411D01*
X103934225Y-108051989D01*
X104038629Y-108304043D01*
X104190201Y-108530886D01*
X104383114Y-108723799D01*
X104609957Y-108875371D01*
X104862011Y-108979775D01*
X105129589Y-109033000D01*
X105402411Y-109033000D01*
X105669989Y-108979775D01*
X105922043Y-108875371D01*
X106148886Y-108723799D01*
X106341799Y-108530886D01*
X106378331Y-108476212D01*
X107131000Y-108476212D01*
X107131000Y-108699788D01*
X107174617Y-108919067D01*
X107260176Y-109125624D01*
X107384388Y-109311520D01*
X107542480Y-109469612D01*
X107728376Y-109593824D01*
X107934933Y-109679383D01*
X108154212Y-109723000D01*
X108377788Y-109723000D01*
X108597067Y-109679383D01*
X108803624Y-109593824D01*
X108989520Y-109469612D01*
X109147612Y-109311520D01*
X109271824Y-109125624D01*
X109357383Y-108919067D01*
X109401000Y-108699788D01*
X109401000Y-108476212D01*
X109357383Y-108256933D01*
X109271824Y-108050376D01*
X109147612Y-107864480D01*
X108989520Y-107706388D01*
X108803624Y-107582176D01*
X108597067Y-107496617D01*
X108377788Y-107453000D01*
X108154212Y-107453000D01*
X107934933Y-107496617D01*
X107728376Y-107582176D01*
X107542480Y-107706388D01*
X107384388Y-107864480D01*
X107260176Y-108050376D01*
X107174617Y-108256933D01*
X107131000Y-108476212D01*
X106378331Y-108476212D01*
X106493371Y-108304043D01*
X106597775Y-108051989D01*
X106651000Y-107784411D01*
X106651000Y-107511589D01*
X106597775Y-107244011D01*
X106493371Y-106991957D01*
X106341799Y-106765114D01*
X106148886Y-106572201D01*
X105922043Y-106420629D01*
X105669989Y-106316225D01*
X105402411Y-106263000D01*
X105129589Y-106263000D01*
X104862011Y-106316225D01*
X104609957Y-106420629D01*
X104383114Y-106572201D01*
X104190201Y-106765114D01*
X104038629Y-106991957D01*
X103934225Y-107244011D01*
X103881000Y-107511589D01*
X103651000Y-107511589D01*
X103597775Y-107244011D01*
X103493371Y-106991957D01*
X103341799Y-106765114D01*
X103148886Y-106572201D01*
X102922043Y-106420629D01*
X102669989Y-106316225D01*
X102402411Y-106263000D01*
X102129589Y-106263000D01*
X101862011Y-106316225D01*
X101609957Y-106420629D01*
X101383114Y-106572201D01*
X101190201Y-106765114D01*
X101038629Y-106991957D01*
X100934225Y-107244011D01*
X100881000Y-107511589D01*
X100651000Y-107511589D01*
X100597775Y-107244011D01*
X100493371Y-106991957D01*
X100341799Y-106765114D01*
X100148886Y-106572201D01*
X99922043Y-106420629D01*
X99669989Y-106316225D01*
X99402411Y-106263000D01*
X99129589Y-106263000D01*
X98862011Y-106316225D01*
X98609957Y-106420629D01*
X98383114Y-106572201D01*
X98190201Y-106765114D01*
X98038629Y-106991957D01*
X97934225Y-107244011D01*
X97881000Y-107511589D01*
X97651000Y-107511589D01*
X97597775Y-107244011D01*
X97493371Y-106991957D01*
X97341799Y-106765114D01*
X97148886Y-106572201D01*
X96922043Y-106420629D01*
X96669989Y-106316225D01*
X96402411Y-106263000D01*
X96129589Y-106263000D01*
X95862011Y-106316225D01*
X95609957Y-106420629D01*
X95383114Y-106572201D01*
X95190201Y-106765114D01*
X95038629Y-106991957D01*
X94934225Y-107244011D01*
X94881000Y-107511589D01*
X93633213Y-107511589D01*
X93597067Y-107496617D01*
X93377788Y-107453000D01*
X93154212Y-107453000D01*
X92934933Y-107496617D01*
X92728376Y-107582176D01*
X92542480Y-107706388D01*
X92384388Y-107864480D01*
X92260176Y-108050376D01*
X92174617Y-108256933D01*
X92131000Y-108476212D01*
X82448000Y-108476212D01*
X82448000Y-105188279D01*
X82472748Y-104935872D01*
X83363000Y-104935872D01*
X83363000Y-105376128D01*
X83448890Y-105807925D01*
X83617369Y-106214669D01*
X83861962Y-106580729D01*
X84173271Y-106892038D01*
X84539331Y-107136631D01*
X84946075Y-107305110D01*
X85377872Y-107391000D01*
X85818128Y-107391000D01*
X86249925Y-107305110D01*
X86656669Y-107136631D01*
X87022729Y-106892038D01*
X87334038Y-106580729D01*
X87578631Y-106214669D01*
X87747110Y-105807925D01*
X87833000Y-105376128D01*
X87833000Y-104935872D01*
X87747110Y-104504075D01*
X87599619Y-104148000D01*
X94877928Y-104148000D01*
X94877928Y-105148000D01*
X94894992Y-105321254D01*
X94945528Y-105487850D01*
X95027595Y-105641386D01*
X95138038Y-105775962D01*
X95272614Y-105886405D01*
X95426150Y-105968472D01*
X95592746Y-106019008D01*
X95766000Y-106036072D01*
X96766000Y-106036072D01*
X96939254Y-106019008D01*
X97105850Y-105968472D01*
X97259386Y-105886405D01*
X97393962Y-105775962D01*
X97504405Y-105641386D01*
X97523857Y-105604993D01*
X98488612Y-105604993D01*
X98554137Y-105843860D01*
X98801116Y-105959760D01*
X99065960Y-106025250D01*
X99338492Y-106037812D01*
X99608238Y-105996965D01*
X99864832Y-105904277D01*
X99977863Y-105843860D01*
X100043388Y-105604993D01*
X99266000Y-104827605D01*
X98488612Y-105604993D01*
X97523857Y-105604993D01*
X97586472Y-105487850D01*
X97637008Y-105321254D01*
X97654072Y-105148000D01*
X97654072Y-104720492D01*
X97876188Y-104720492D01*
X97917035Y-104990238D01*
X98009723Y-105246832D01*
X98070140Y-105359863D01*
X98309007Y-105425388D01*
X99086395Y-104648000D01*
X99445605Y-104648000D01*
X100222993Y-105425388D01*
X100461860Y-105359863D01*
X100577760Y-105112884D01*
X100643250Y-104848040D01*
X100655812Y-104575508D01*
X100646133Y-104511589D01*
X100881000Y-104511589D01*
X100881000Y-104784411D01*
X100934225Y-105051989D01*
X101038629Y-105304043D01*
X101190201Y-105530886D01*
X101383114Y-105723799D01*
X101609957Y-105875371D01*
X101862011Y-105979775D01*
X102129589Y-106033000D01*
X102402411Y-106033000D01*
X102669989Y-105979775D01*
X102922043Y-105875371D01*
X103148886Y-105723799D01*
X103341799Y-105530886D01*
X103493371Y-105304043D01*
X103597775Y-105051989D01*
X103651000Y-104784411D01*
X103651000Y-104511589D01*
X103881000Y-104511589D01*
X103881000Y-104784411D01*
X103934225Y-105051989D01*
X104038629Y-105304043D01*
X104190201Y-105530886D01*
X104383114Y-105723799D01*
X104609957Y-105875371D01*
X104862011Y-105979775D01*
X105129589Y-106033000D01*
X105402411Y-106033000D01*
X105669989Y-105979775D01*
X105922043Y-105875371D01*
X106148886Y-105723799D01*
X106341799Y-105530886D01*
X106493371Y-105304043D01*
X106597775Y-105051989D01*
X106620872Y-104935872D01*
X113363000Y-104935872D01*
X113363000Y-105376128D01*
X113448890Y-105807925D01*
X113617369Y-106214669D01*
X113861962Y-106580729D01*
X114173271Y-106892038D01*
X114539331Y-107136631D01*
X114946075Y-107305110D01*
X115377872Y-107391000D01*
X115818128Y-107391000D01*
X116249925Y-107305110D01*
X116656669Y-107136631D01*
X117022729Y-106892038D01*
X117334038Y-106580729D01*
X117578631Y-106214669D01*
X117747110Y-105807925D01*
X117833000Y-105376128D01*
X117833000Y-104935872D01*
X117747110Y-104504075D01*
X117578631Y-104097331D01*
X117334038Y-103731271D01*
X117022729Y-103419962D01*
X116656669Y-103175369D01*
X116249925Y-103006890D01*
X115818128Y-102921000D01*
X115377872Y-102921000D01*
X114946075Y-103006890D01*
X114539331Y-103175369D01*
X114173271Y-103419962D01*
X113861962Y-103731271D01*
X113617369Y-104097331D01*
X113448890Y-104504075D01*
X113363000Y-104935872D01*
X106620872Y-104935872D01*
X106651000Y-104784411D01*
X106651000Y-104511589D01*
X106597775Y-104244011D01*
X106493371Y-103991957D01*
X106341799Y-103765114D01*
X106148886Y-103572201D01*
X105922043Y-103420629D01*
X105669989Y-103316225D01*
X105402411Y-103263000D01*
X105129589Y-103263000D01*
X104862011Y-103316225D01*
X104609957Y-103420629D01*
X104383114Y-103572201D01*
X104190201Y-103765114D01*
X104038629Y-103991957D01*
X103934225Y-104244011D01*
X103881000Y-104511589D01*
X103651000Y-104511589D01*
X103597775Y-104244011D01*
X103493371Y-103991957D01*
X103341799Y-103765114D01*
X103148886Y-103572201D01*
X102922043Y-103420629D01*
X102669989Y-103316225D01*
X102402411Y-103263000D01*
X102129589Y-103263000D01*
X101862011Y-103316225D01*
X101609957Y-103420629D01*
X101383114Y-103572201D01*
X101190201Y-103765114D01*
X101038629Y-103991957D01*
X100934225Y-104244011D01*
X100881000Y-104511589D01*
X100646133Y-104511589D01*
X100614965Y-104305762D01*
X100522277Y-104049168D01*
X100461860Y-103936137D01*
X100222993Y-103870612D01*
X99445605Y-104648000D01*
X99086395Y-104648000D01*
X98309007Y-103870612D01*
X98070140Y-103936137D01*
X97954240Y-104183116D01*
X97888750Y-104447960D01*
X97876188Y-104720492D01*
X97654072Y-104720492D01*
X97654072Y-104148000D01*
X97637008Y-103974746D01*
X97586472Y-103808150D01*
X97523858Y-103691007D01*
X98488612Y-103691007D01*
X99266000Y-104468395D01*
X100043388Y-103691007D01*
X99977863Y-103452140D01*
X99730884Y-103336240D01*
X99466040Y-103270750D01*
X99193508Y-103258188D01*
X98923762Y-103299035D01*
X98667168Y-103391723D01*
X98554137Y-103452140D01*
X98488612Y-103691007D01*
X97523858Y-103691007D01*
X97504405Y-103654614D01*
X97393962Y-103520038D01*
X97259386Y-103409595D01*
X97105850Y-103327528D01*
X96939254Y-103276992D01*
X96766000Y-103259928D01*
X95766000Y-103259928D01*
X95592746Y-103276992D01*
X95426150Y-103327528D01*
X95272614Y-103409595D01*
X95138038Y-103520038D01*
X95027595Y-103654614D01*
X94945528Y-103808150D01*
X94894992Y-103974746D01*
X94877928Y-104148000D01*
X87599619Y-104148000D01*
X87578631Y-104097331D01*
X87334038Y-103731271D01*
X87022729Y-103419962D01*
X86656669Y-103175369D01*
X86249925Y-103006890D01*
X85818128Y-102921000D01*
X85377872Y-102921000D01*
X84946075Y-103006890D01*
X84539331Y-103175369D01*
X84173271Y-103419962D01*
X83861962Y-103731271D01*
X83617369Y-104097331D01*
X83448890Y-104504075D01*
X83363000Y-104935872D01*
X82472748Y-104935872D01*
X82511096Y-104544778D01*
X82688606Y-103956836D01*
X82976937Y-103414564D01*
X83365094Y-102938636D01*
X83838314Y-102547155D01*
X84378552Y-102255049D01*
X84965244Y-102073437D01*
X85606879Y-102006000D01*
X115537721Y-102006000D01*
X116181222Y-102069096D01*
M02*
