G04 #@! TF.GenerationSoftware,KiCad,Pcbnew,(5.1.6)-1*
G04 #@! TF.CreationDate,2021-06-24T15:15:02+10:00*
G04 #@! TF.ProjectId,BSPD,42535044-2e6b-4696-9361-645f70636258,rev?*
G04 #@! TF.SameCoordinates,Original*
G04 #@! TF.FileFunction,Legend,Top*
G04 #@! TF.FilePolarity,Positive*
%FSLAX46Y46*%
G04 Gerber Fmt 4.6, Leading zero omitted, Abs format (unit mm)*
G04 Created by KiCad (PCBNEW (5.1.6)-1) date 2021-06-24 15:15:02*
%MOMM*%
%LPD*%
G01*
G04 APERTURE LIST*
%ADD10C,0.150000*%
%ADD11C,0.010000*%
%ADD12C,0.120000*%
G04 APERTURE END LIST*
D10*
X83105809Y-111069380D02*
X83105809Y-110069380D01*
X83439142Y-110783666D01*
X83772476Y-110069380D01*
X83772476Y-111069380D01*
X84677238Y-111069380D02*
X84677238Y-110545571D01*
X84629619Y-110450333D01*
X84534380Y-110402714D01*
X84343904Y-110402714D01*
X84248666Y-110450333D01*
X84677238Y-111021761D02*
X84582000Y-111069380D01*
X84343904Y-111069380D01*
X84248666Y-111021761D01*
X84201047Y-110926523D01*
X84201047Y-110831285D01*
X84248666Y-110736047D01*
X84343904Y-110688428D01*
X84582000Y-110688428D01*
X84677238Y-110640809D01*
X85153428Y-111069380D02*
X85153428Y-110402714D01*
X85153428Y-110069380D02*
X85105809Y-110117000D01*
X85153428Y-110164619D01*
X85201047Y-110117000D01*
X85153428Y-110069380D01*
X85153428Y-110164619D01*
X85629619Y-110402714D02*
X85629619Y-111069380D01*
X85629619Y-110497952D02*
X85677238Y-110450333D01*
X85772476Y-110402714D01*
X85915333Y-110402714D01*
X86010571Y-110450333D01*
X86058190Y-110545571D01*
X86058190Y-111069380D01*
X83431238Y-109275571D02*
X83574095Y-109323190D01*
X83621714Y-109370809D01*
X83669333Y-109466047D01*
X83669333Y-109608904D01*
X83621714Y-109704142D01*
X83574095Y-109751761D01*
X83478857Y-109799380D01*
X83097904Y-109799380D01*
X83097904Y-108799380D01*
X83431238Y-108799380D01*
X83526476Y-108847000D01*
X83574095Y-108894619D01*
X83621714Y-108989857D01*
X83621714Y-109085095D01*
X83574095Y-109180333D01*
X83526476Y-109227952D01*
X83431238Y-109275571D01*
X83097904Y-109275571D01*
X84050285Y-109751761D02*
X84193142Y-109799380D01*
X84431238Y-109799380D01*
X84526476Y-109751761D01*
X84574095Y-109704142D01*
X84621714Y-109608904D01*
X84621714Y-109513666D01*
X84574095Y-109418428D01*
X84526476Y-109370809D01*
X84431238Y-109323190D01*
X84240761Y-109275571D01*
X84145523Y-109227952D01*
X84097904Y-109180333D01*
X84050285Y-109085095D01*
X84050285Y-108989857D01*
X84097904Y-108894619D01*
X84145523Y-108847000D01*
X84240761Y-108799380D01*
X84478857Y-108799380D01*
X84621714Y-108847000D01*
X85050285Y-109799380D02*
X85050285Y-108799380D01*
X85431238Y-108799380D01*
X85526476Y-108847000D01*
X85574095Y-108894619D01*
X85621714Y-108989857D01*
X85621714Y-109132714D01*
X85574095Y-109227952D01*
X85526476Y-109275571D01*
X85431238Y-109323190D01*
X85050285Y-109323190D01*
X86050285Y-109799380D02*
X86050285Y-108799380D01*
X86288380Y-108799380D01*
X86431238Y-108847000D01*
X86526476Y-108942238D01*
X86574095Y-109037476D01*
X86621714Y-109227952D01*
X86621714Y-109370809D01*
X86574095Y-109561285D01*
X86526476Y-109656523D01*
X86431238Y-109751761D01*
X86288380Y-109799380D01*
X86050285Y-109799380D01*
D11*
G36*
X118166985Y-109324081D02*
G01*
X118206978Y-109333360D01*
X118211600Y-109339393D01*
X118201218Y-109365538D01*
X118171576Y-109432763D01*
X118124932Y-109536128D01*
X118063543Y-109670695D01*
X117989665Y-109831524D01*
X117905555Y-110013676D01*
X117813470Y-110212212D01*
X117773450Y-110298243D01*
X117653705Y-110554466D01*
X117552178Y-110768552D01*
X117466177Y-110944661D01*
X117393011Y-111086954D01*
X117329988Y-111199591D01*
X117274415Y-111286732D01*
X117223603Y-111352538D01*
X117174858Y-111401168D01*
X117125490Y-111436784D01*
X117072806Y-111463544D01*
X117014115Y-111485611D01*
X117002807Y-111489372D01*
X116860318Y-111524578D01*
X116708588Y-111543087D01*
X116569252Y-111542949D01*
X116505636Y-111534196D01*
X116377992Y-111489884D01*
X116290461Y-111420912D01*
X116245880Y-111331024D01*
X116247087Y-111223967D01*
X116253083Y-111200791D01*
X116269639Y-111158135D01*
X116305326Y-111075166D01*
X116357598Y-110957513D01*
X116423908Y-110810805D01*
X116501708Y-110640672D01*
X116588452Y-110452742D01*
X116681594Y-110252646D01*
X116695510Y-110222891D01*
X117111342Y-109334300D01*
X117293171Y-109326837D01*
X117397977Y-109325724D01*
X117457097Y-109333356D01*
X117475000Y-109349552D01*
X117464577Y-109378562D01*
X117434857Y-109448395D01*
X117388167Y-109553903D01*
X117326828Y-109689941D01*
X117253167Y-109851361D01*
X117169508Y-110033017D01*
X117078174Y-110229761D01*
X117055900Y-110277520D01*
X116963260Y-110476291D01*
X116877721Y-110660446D01*
X116801594Y-110824962D01*
X116737191Y-110964813D01*
X116686825Y-111074975D01*
X116652808Y-111150423D01*
X116637452Y-111186133D01*
X116636800Y-111188254D01*
X116659655Y-111195651D01*
X116718072Y-111200337D01*
X116763399Y-111201200D01*
X116852079Y-111194983D01*
X116914728Y-111170793D01*
X116963787Y-111131350D01*
X116999176Y-111083439D01*
X117053771Y-110988540D01*
X117127553Y-110846687D01*
X117220507Y-110657914D01*
X117332613Y-110422255D01*
X117425304Y-110223300D01*
X117514916Y-110030148D01*
X117598555Y-109850965D01*
X117673668Y-109691138D01*
X117737700Y-109556057D01*
X117788098Y-109451108D01*
X117822308Y-109381681D01*
X117837627Y-109353350D01*
X117870543Y-109339281D01*
X117934999Y-109328757D01*
X118015933Y-109322342D01*
X118098282Y-109320595D01*
X118166985Y-109324081D01*
G37*
X118166985Y-109324081D02*
X118206978Y-109333360D01*
X118211600Y-109339393D01*
X118201218Y-109365538D01*
X118171576Y-109432763D01*
X118124932Y-109536128D01*
X118063543Y-109670695D01*
X117989665Y-109831524D01*
X117905555Y-110013676D01*
X117813470Y-110212212D01*
X117773450Y-110298243D01*
X117653705Y-110554466D01*
X117552178Y-110768552D01*
X117466177Y-110944661D01*
X117393011Y-111086954D01*
X117329988Y-111199591D01*
X117274415Y-111286732D01*
X117223603Y-111352538D01*
X117174858Y-111401168D01*
X117125490Y-111436784D01*
X117072806Y-111463544D01*
X117014115Y-111485611D01*
X117002807Y-111489372D01*
X116860318Y-111524578D01*
X116708588Y-111543087D01*
X116569252Y-111542949D01*
X116505636Y-111534196D01*
X116377992Y-111489884D01*
X116290461Y-111420912D01*
X116245880Y-111331024D01*
X116247087Y-111223967D01*
X116253083Y-111200791D01*
X116269639Y-111158135D01*
X116305326Y-111075166D01*
X116357598Y-110957513D01*
X116423908Y-110810805D01*
X116501708Y-110640672D01*
X116588452Y-110452742D01*
X116681594Y-110252646D01*
X116695510Y-110222891D01*
X117111342Y-109334300D01*
X117293171Y-109326837D01*
X117397977Y-109325724D01*
X117457097Y-109333356D01*
X117475000Y-109349552D01*
X117464577Y-109378562D01*
X117434857Y-109448395D01*
X117388167Y-109553903D01*
X117326828Y-109689941D01*
X117253167Y-109851361D01*
X117169508Y-110033017D01*
X117078174Y-110229761D01*
X117055900Y-110277520D01*
X116963260Y-110476291D01*
X116877721Y-110660446D01*
X116801594Y-110824962D01*
X116737191Y-110964813D01*
X116686825Y-111074975D01*
X116652808Y-111150423D01*
X116637452Y-111186133D01*
X116636800Y-111188254D01*
X116659655Y-111195651D01*
X116718072Y-111200337D01*
X116763399Y-111201200D01*
X116852079Y-111194983D01*
X116914728Y-111170793D01*
X116963787Y-111131350D01*
X116999176Y-111083439D01*
X117053771Y-110988540D01*
X117127553Y-110846687D01*
X117220507Y-110657914D01*
X117332613Y-110422255D01*
X117425304Y-110223300D01*
X117514916Y-110030148D01*
X117598555Y-109850965D01*
X117673668Y-109691138D01*
X117737700Y-109556057D01*
X117788098Y-109451108D01*
X117822308Y-109381681D01*
X117837627Y-109353350D01*
X117870543Y-109339281D01*
X117934999Y-109328757D01*
X118015933Y-109322342D01*
X118098282Y-109320595D01*
X118166985Y-109324081D01*
G36*
X116474596Y-109346760D02*
G01*
X116599569Y-109382414D01*
X116683600Y-109444148D01*
X116728769Y-109533319D01*
X116738400Y-109617003D01*
X116728035Y-109650517D01*
X116698797Y-109723878D01*
X116653470Y-109830980D01*
X116594838Y-109965717D01*
X116525685Y-110121985D01*
X116448794Y-110293676D01*
X116366950Y-110474687D01*
X116282937Y-110658911D01*
X116199538Y-110840242D01*
X116119538Y-111012575D01*
X116045721Y-111169805D01*
X115980870Y-111305826D01*
X115927769Y-111414532D01*
X115889203Y-111489818D01*
X115868386Y-111525050D01*
X115835004Y-111539345D01*
X115770299Y-111549864D01*
X115689291Y-111556095D01*
X115607002Y-111557531D01*
X115538450Y-111553660D01*
X115498658Y-111543973D01*
X115494129Y-111537750D01*
X115504615Y-111511294D01*
X115534390Y-111443871D01*
X115581155Y-111340499D01*
X115642611Y-111206195D01*
X115716459Y-111045978D01*
X115800400Y-110864864D01*
X115892136Y-110667872D01*
X115921827Y-110604300D01*
X116349195Y-109689900D01*
X116221648Y-109682061D01*
X116121581Y-109684251D01*
X116050857Y-109708153D01*
X116031327Y-109721091D01*
X116001728Y-109758118D01*
X115954011Y-109838781D01*
X115887864Y-109963695D01*
X115802971Y-110133476D01*
X115699020Y-110348738D01*
X115575696Y-110610097D01*
X115554240Y-110656030D01*
X115139929Y-111544100D01*
X114946076Y-111551563D01*
X114852506Y-111552421D01*
X114787394Y-111547543D01*
X114760973Y-111537803D01*
X114761062Y-111535737D01*
X114773417Y-111508392D01*
X114805018Y-111440008D01*
X114853551Y-111335548D01*
X114916704Y-111199972D01*
X114992167Y-111038242D01*
X115077625Y-110855319D01*
X115170769Y-110656164D01*
X115212566Y-110566861D01*
X115347812Y-110280344D01*
X115463538Y-110040291D01*
X115559707Y-109846771D01*
X115636284Y-109699856D01*
X115693232Y-109599615D01*
X115730516Y-109546121D01*
X115733112Y-109543395D01*
X115876207Y-109435214D01*
X116050007Y-109366565D01*
X116255470Y-109337100D01*
X116306600Y-109335833D01*
X116474596Y-109346760D01*
G37*
X116474596Y-109346760D02*
X116599569Y-109382414D01*
X116683600Y-109444148D01*
X116728769Y-109533319D01*
X116738400Y-109617003D01*
X116728035Y-109650517D01*
X116698797Y-109723878D01*
X116653470Y-109830980D01*
X116594838Y-109965717D01*
X116525685Y-110121985D01*
X116448794Y-110293676D01*
X116366950Y-110474687D01*
X116282937Y-110658911D01*
X116199538Y-110840242D01*
X116119538Y-111012575D01*
X116045721Y-111169805D01*
X115980870Y-111305826D01*
X115927769Y-111414532D01*
X115889203Y-111489818D01*
X115868386Y-111525050D01*
X115835004Y-111539345D01*
X115770299Y-111549864D01*
X115689291Y-111556095D01*
X115607002Y-111557531D01*
X115538450Y-111553660D01*
X115498658Y-111543973D01*
X115494129Y-111537750D01*
X115504615Y-111511294D01*
X115534390Y-111443871D01*
X115581155Y-111340499D01*
X115642611Y-111206195D01*
X115716459Y-111045978D01*
X115800400Y-110864864D01*
X115892136Y-110667872D01*
X115921827Y-110604300D01*
X116349195Y-109689900D01*
X116221648Y-109682061D01*
X116121581Y-109684251D01*
X116050857Y-109708153D01*
X116031327Y-109721091D01*
X116001728Y-109758118D01*
X115954011Y-109838781D01*
X115887864Y-109963695D01*
X115802971Y-110133476D01*
X115699020Y-110348738D01*
X115575696Y-110610097D01*
X115554240Y-110656030D01*
X115139929Y-111544100D01*
X114946076Y-111551563D01*
X114852506Y-111552421D01*
X114787394Y-111547543D01*
X114760973Y-111537803D01*
X114761062Y-111535737D01*
X114773417Y-111508392D01*
X114805018Y-111440008D01*
X114853551Y-111335548D01*
X114916704Y-111199972D01*
X114992167Y-111038242D01*
X115077625Y-110855319D01*
X115170769Y-110656164D01*
X115212566Y-110566861D01*
X115347812Y-110280344D01*
X115463538Y-110040291D01*
X115559707Y-109846771D01*
X115636284Y-109699856D01*
X115693232Y-109599615D01*
X115730516Y-109546121D01*
X115733112Y-109543395D01*
X115876207Y-109435214D01*
X116050007Y-109366565D01*
X116255470Y-109337100D01*
X116306600Y-109335833D01*
X116474596Y-109346760D01*
G36*
X116871875Y-111739845D02*
G01*
X116971077Y-111746178D01*
X117029553Y-111756922D01*
X117057341Y-111774678D01*
X117063399Y-111789445D01*
X117062051Y-111810037D01*
X117041849Y-111821126D01*
X116993312Y-111824066D01*
X116906958Y-111820214D01*
X116866818Y-111817565D01*
X116772227Y-111812590D01*
X116700806Y-111811705D01*
X116664475Y-111814956D01*
X116662200Y-111816768D01*
X116653283Y-111846555D01*
X116631132Y-111904106D01*
X116623759Y-111921998D01*
X116585318Y-112014000D01*
X116738059Y-112014000D01*
X116826662Y-112011085D01*
X116874282Y-112000751D01*
X116890482Y-111980611D01*
X116890800Y-111975900D01*
X116868719Y-111945257D01*
X116827300Y-111937800D01*
X116779565Y-111929105D01*
X116763800Y-111912400D01*
X116786644Y-111897910D01*
X116845052Y-111888714D01*
X116890800Y-111887000D01*
X116963237Y-111890427D01*
X117009176Y-111899190D01*
X117017705Y-111906050D01*
X117005510Y-111938320D01*
X116975481Y-111993943D01*
X116967278Y-112007650D01*
X116916946Y-112090200D01*
X116700673Y-112090200D01*
X116590314Y-112088242D01*
X116522828Y-112081529D01*
X116490410Y-112068803D01*
X116484400Y-112055328D01*
X116497293Y-111995867D01*
X116529634Y-111917934D01*
X116571909Y-111839836D01*
X116614608Y-111779881D01*
X116638233Y-111759232D01*
X116687923Y-111746836D01*
X116770640Y-111739845D01*
X116868767Y-111739723D01*
X116871875Y-111739845D01*
G37*
X116871875Y-111739845D02*
X116971077Y-111746178D01*
X117029553Y-111756922D01*
X117057341Y-111774678D01*
X117063399Y-111789445D01*
X117062051Y-111810037D01*
X117041849Y-111821126D01*
X116993312Y-111824066D01*
X116906958Y-111820214D01*
X116866818Y-111817565D01*
X116772227Y-111812590D01*
X116700806Y-111811705D01*
X116664475Y-111814956D01*
X116662200Y-111816768D01*
X116653283Y-111846555D01*
X116631132Y-111904106D01*
X116623759Y-111921998D01*
X116585318Y-112014000D01*
X116738059Y-112014000D01*
X116826662Y-112011085D01*
X116874282Y-112000751D01*
X116890482Y-111980611D01*
X116890800Y-111975900D01*
X116868719Y-111945257D01*
X116827300Y-111937800D01*
X116779565Y-111929105D01*
X116763800Y-111912400D01*
X116786644Y-111897910D01*
X116845052Y-111888714D01*
X116890800Y-111887000D01*
X116963237Y-111890427D01*
X117009176Y-111899190D01*
X117017705Y-111906050D01*
X117005510Y-111938320D01*
X116975481Y-111993943D01*
X116967278Y-112007650D01*
X116916946Y-112090200D01*
X116700673Y-112090200D01*
X116590314Y-112088242D01*
X116522828Y-112081529D01*
X116490410Y-112068803D01*
X116484400Y-112055328D01*
X116497293Y-111995867D01*
X116529634Y-111917934D01*
X116571909Y-111839836D01*
X116614608Y-111779881D01*
X116638233Y-111759232D01*
X116687923Y-111746836D01*
X116770640Y-111739845D01*
X116868767Y-111739723D01*
X116871875Y-111739845D01*
G36*
X116433515Y-111756824D02*
G01*
X116433600Y-111760724D01*
X116421668Y-111805904D01*
X116391201Y-111873573D01*
X116350189Y-111949778D01*
X116306622Y-112020567D01*
X116268493Y-112071988D01*
X116244893Y-112090200D01*
X116210264Y-112072294D01*
X116156442Y-112025802D01*
X116106465Y-111973354D01*
X116003613Y-111856508D01*
X115946845Y-111973354D01*
X115906834Y-112040345D01*
X115867533Y-112082412D01*
X115837192Y-112093459D01*
X115824061Y-112067396D01*
X115824000Y-112064075D01*
X115834805Y-112027099D01*
X115862344Y-111964170D01*
X115899300Y-111889391D01*
X115938356Y-111816863D01*
X115972196Y-111760688D01*
X115993502Y-111734971D01*
X115994943Y-111734600D01*
X116020797Y-111751141D01*
X116071159Y-111794428D01*
X116132727Y-111852768D01*
X116252700Y-111970937D01*
X116310111Y-111852768D01*
X116350312Y-111785253D01*
X116389714Y-111742706D01*
X116420166Y-111731204D01*
X116433515Y-111756824D01*
G37*
X116433515Y-111756824D02*
X116433600Y-111760724D01*
X116421668Y-111805904D01*
X116391201Y-111873573D01*
X116350189Y-111949778D01*
X116306622Y-112020567D01*
X116268493Y-112071988D01*
X116244893Y-112090200D01*
X116210264Y-112072294D01*
X116156442Y-112025802D01*
X116106465Y-111973354D01*
X116003613Y-111856508D01*
X115946845Y-111973354D01*
X115906834Y-112040345D01*
X115867533Y-112082412D01*
X115837192Y-112093459D01*
X115824061Y-112067396D01*
X115824000Y-112064075D01*
X115834805Y-112027099D01*
X115862344Y-111964170D01*
X115899300Y-111889391D01*
X115938356Y-111816863D01*
X115972196Y-111760688D01*
X115993502Y-111734971D01*
X115994943Y-111734600D01*
X116020797Y-111751141D01*
X116071159Y-111794428D01*
X116132727Y-111852768D01*
X116252700Y-111970937D01*
X116310111Y-111852768D01*
X116350312Y-111785253D01*
X116389714Y-111742706D01*
X116420166Y-111731204D01*
X116433515Y-111756824D01*
G36*
X115775460Y-111739003D02*
G01*
X115780040Y-111759038D01*
X115765236Y-111804940D01*
X115732438Y-111880650D01*
X115695898Y-111962493D01*
X115667009Y-112027913D01*
X115653841Y-112058450D01*
X115627463Y-112079719D01*
X115585054Y-112090887D01*
X115550971Y-112087598D01*
X115544600Y-112077980D01*
X115555035Y-112050860D01*
X115582547Y-111990719D01*
X115621445Y-111909949D01*
X115626251Y-111900180D01*
X115683547Y-111797341D01*
X115729916Y-111743543D01*
X115752931Y-111734600D01*
X115775460Y-111739003D01*
G37*
X115775460Y-111739003D02*
X115780040Y-111759038D01*
X115765236Y-111804940D01*
X115732438Y-111880650D01*
X115695898Y-111962493D01*
X115667009Y-112027913D01*
X115653841Y-112058450D01*
X115627463Y-112079719D01*
X115585054Y-112090887D01*
X115550971Y-112087598D01*
X115544600Y-112077980D01*
X115555035Y-112050860D01*
X115582547Y-111990719D01*
X115621445Y-111909949D01*
X115626251Y-111900180D01*
X115683547Y-111797341D01*
X115729916Y-111743543D01*
X115752931Y-111734600D01*
X115775460Y-111739003D01*
G36*
X115355158Y-111739524D02*
G01*
X115440264Y-111746024D01*
X115486094Y-111757338D01*
X115504172Y-111777928D01*
X115506500Y-111798100D01*
X115486035Y-111843128D01*
X115446530Y-111857386D01*
X115404843Y-111855511D01*
X115403579Y-111838336D01*
X115392897Y-111820244D01*
X115332518Y-111811613D01*
X115292751Y-111810800D01*
X115214274Y-111813888D01*
X115168904Y-111828424D01*
X115139068Y-111862309D01*
X115126152Y-111885738D01*
X115099312Y-111945114D01*
X115087432Y-111986186D01*
X115087400Y-111987338D01*
X115109199Y-112005783D01*
X115162900Y-112013285D01*
X115230960Y-112010549D01*
X115295834Y-111998281D01*
X115339977Y-111977187D01*
X115339980Y-111977184D01*
X115388742Y-111951520D01*
X115418664Y-111965288D01*
X115417695Y-112007577D01*
X115403068Y-112034307D01*
X115376428Y-112063612D01*
X115338951Y-112080523D01*
X115277419Y-112088299D01*
X115178614Y-112090199D01*
X115176358Y-112090200D01*
X115083641Y-112087337D01*
X115012326Y-112079785D01*
X114976194Y-112069091D01*
X114974788Y-112067532D01*
X114976921Y-112033988D01*
X114996621Y-111969745D01*
X115023488Y-111903066D01*
X115063830Y-111821868D01*
X115106044Y-111771098D01*
X115162535Y-111744640D01*
X115245706Y-111736378D01*
X115355158Y-111739524D01*
G37*
X115355158Y-111739524D02*
X115440264Y-111746024D01*
X115486094Y-111757338D01*
X115504172Y-111777928D01*
X115506500Y-111798100D01*
X115486035Y-111843128D01*
X115446530Y-111857386D01*
X115404843Y-111855511D01*
X115403579Y-111838336D01*
X115392897Y-111820244D01*
X115332518Y-111811613D01*
X115292751Y-111810800D01*
X115214274Y-111813888D01*
X115168904Y-111828424D01*
X115139068Y-111862309D01*
X115126152Y-111885738D01*
X115099312Y-111945114D01*
X115087432Y-111986186D01*
X115087400Y-111987338D01*
X115109199Y-112005783D01*
X115162900Y-112013285D01*
X115230960Y-112010549D01*
X115295834Y-111998281D01*
X115339977Y-111977187D01*
X115339980Y-111977184D01*
X115388742Y-111951520D01*
X115418664Y-111965288D01*
X115417695Y-112007577D01*
X115403068Y-112034307D01*
X115376428Y-112063612D01*
X115338951Y-112080523D01*
X115277419Y-112088299D01*
X115178614Y-112090199D01*
X115176358Y-112090200D01*
X115083641Y-112087337D01*
X115012326Y-112079785D01*
X114976194Y-112069091D01*
X114974788Y-112067532D01*
X114976921Y-112033988D01*
X114996621Y-111969745D01*
X115023488Y-111903066D01*
X115063830Y-111821868D01*
X115106044Y-111771098D01*
X115162535Y-111744640D01*
X115245706Y-111736378D01*
X115355158Y-111739524D01*
G36*
X114768179Y-111753835D02*
G01*
X114793510Y-111815088D01*
X114809182Y-111879998D01*
X114827687Y-111964647D01*
X114843889Y-112031108D01*
X114851801Y-112057798D01*
X114842302Y-112084101D01*
X114809920Y-112090200D01*
X114759925Y-112074426D01*
X114740985Y-112052100D01*
X114712284Y-112027152D01*
X114645742Y-112015483D01*
X114592492Y-112014000D01*
X114489124Y-112022645D01*
X114430693Y-112048135D01*
X114427000Y-112052100D01*
X114376777Y-112083313D01*
X114341339Y-112089286D01*
X114308091Y-112086201D01*
X114309753Y-112071991D01*
X114348519Y-112036689D01*
X114353904Y-112032136D01*
X114407421Y-111986527D01*
X114464143Y-111937800D01*
X114570544Y-111937800D01*
X114638472Y-111937800D01*
X114689013Y-111928832D01*
X114705713Y-111892446D01*
X114706400Y-111874300D01*
X114703559Y-111826504D01*
X114698127Y-111810800D01*
X114677076Y-111827302D01*
X114636452Y-111867692D01*
X114630200Y-111874300D01*
X114570544Y-111937800D01*
X114464143Y-111937800D01*
X114482631Y-111921919D01*
X114559842Y-111855250D01*
X114633767Y-111795760D01*
X114697282Y-111752665D01*
X114737419Y-111734691D01*
X114739087Y-111734600D01*
X114768179Y-111753835D01*
G37*
X114768179Y-111753835D02*
X114793510Y-111815088D01*
X114809182Y-111879998D01*
X114827687Y-111964647D01*
X114843889Y-112031108D01*
X114851801Y-112057798D01*
X114842302Y-112084101D01*
X114809920Y-112090200D01*
X114759925Y-112074426D01*
X114740985Y-112052100D01*
X114712284Y-112027152D01*
X114645742Y-112015483D01*
X114592492Y-112014000D01*
X114489124Y-112022645D01*
X114430693Y-112048135D01*
X114427000Y-112052100D01*
X114376777Y-112083313D01*
X114341339Y-112089286D01*
X114308091Y-112086201D01*
X114309753Y-112071991D01*
X114348519Y-112036689D01*
X114353904Y-112032136D01*
X114407421Y-111986527D01*
X114464143Y-111937800D01*
X114570544Y-111937800D01*
X114638472Y-111937800D01*
X114689013Y-111928832D01*
X114705713Y-111892446D01*
X114706400Y-111874300D01*
X114703559Y-111826504D01*
X114698127Y-111810800D01*
X114677076Y-111827302D01*
X114636452Y-111867692D01*
X114630200Y-111874300D01*
X114570544Y-111937800D01*
X114464143Y-111937800D01*
X114482631Y-111921919D01*
X114559842Y-111855250D01*
X114633767Y-111795760D01*
X114697282Y-111752665D01*
X114737419Y-111734691D01*
X114739087Y-111734600D01*
X114768179Y-111753835D01*
G36*
X114203155Y-111738000D02*
G01*
X114275682Y-111747026D01*
X114312357Y-111759917D01*
X114313592Y-111761443D01*
X114323017Y-111819488D01*
X114296848Y-111883729D01*
X114244061Y-111935988D01*
X114221536Y-111947843D01*
X114172298Y-111972341D01*
X114164924Y-111992559D01*
X114184321Y-112012855D01*
X114220327Y-112055685D01*
X114208708Y-112082396D01*
X114160885Y-112090200D01*
X114093772Y-112066615D01*
X114056364Y-112026700D01*
X114011162Y-111980744D01*
X113966334Y-111963200D01*
X113920235Y-111984525D01*
X113888978Y-112026700D01*
X113852064Y-112073787D01*
X113813322Y-112090200D01*
X113774236Y-112086031D01*
X113766600Y-112081013D01*
X113776315Y-112055118D01*
X113801940Y-111995336D01*
X113838194Y-111913946D01*
X113843052Y-111903213D01*
X113856727Y-111873053D01*
X113958928Y-111873053D01*
X113985166Y-111883198D01*
X114048842Y-111883396D01*
X114076045Y-111881967D01*
X114157020Y-111871504D01*
X114207777Y-111853365D01*
X114217570Y-111842550D01*
X114204149Y-111821333D01*
X114157256Y-111810263D01*
X114093092Y-111808859D01*
X114027859Y-111816636D01*
X113977761Y-111833113D01*
X113960109Y-111850217D01*
X113958928Y-111873053D01*
X113856727Y-111873053D01*
X113919505Y-111734600D01*
X114108253Y-111734600D01*
X114203155Y-111738000D01*
G37*
X114203155Y-111738000D02*
X114275682Y-111747026D01*
X114312357Y-111759917D01*
X114313592Y-111761443D01*
X114323017Y-111819488D01*
X114296848Y-111883729D01*
X114244061Y-111935988D01*
X114221536Y-111947843D01*
X114172298Y-111972341D01*
X114164924Y-111992559D01*
X114184321Y-112012855D01*
X114220327Y-112055685D01*
X114208708Y-112082396D01*
X114160885Y-112090200D01*
X114093772Y-112066615D01*
X114056364Y-112026700D01*
X114011162Y-111980744D01*
X113966334Y-111963200D01*
X113920235Y-111984525D01*
X113888978Y-112026700D01*
X113852064Y-112073787D01*
X113813322Y-112090200D01*
X113774236Y-112086031D01*
X113766600Y-112081013D01*
X113776315Y-112055118D01*
X113801940Y-111995336D01*
X113838194Y-111913946D01*
X113843052Y-111903213D01*
X113856727Y-111873053D01*
X113958928Y-111873053D01*
X113985166Y-111883198D01*
X114048842Y-111883396D01*
X114076045Y-111881967D01*
X114157020Y-111871504D01*
X114207777Y-111853365D01*
X114217570Y-111842550D01*
X114204149Y-111821333D01*
X114157256Y-111810263D01*
X114093092Y-111808859D01*
X114027859Y-111816636D01*
X113977761Y-111833113D01*
X113960109Y-111850217D01*
X113958928Y-111873053D01*
X113856727Y-111873053D01*
X113919505Y-111734600D01*
X114108253Y-111734600D01*
X114203155Y-111738000D01*
G36*
X114039679Y-108717393D02*
G01*
X114257501Y-108724700D01*
X114287438Y-108813600D01*
X114317374Y-108902500D01*
X114351889Y-108807249D01*
X114376576Y-108748684D01*
X114406279Y-108721194D01*
X114459129Y-108713448D01*
X114501952Y-108713463D01*
X114601251Y-108718724D01*
X114700300Y-108729876D01*
X114718358Y-108732824D01*
X114781713Y-108747950D01*
X114815250Y-108774489D01*
X114834207Y-108828549D01*
X114841400Y-108862899D01*
X114863584Y-108975078D01*
X114916984Y-108881639D01*
X114949329Y-108830642D01*
X114982153Y-108802477D01*
X115026902Y-108795817D01*
X115095021Y-108809337D01*
X115197957Y-108841713D01*
X115214400Y-108847206D01*
X115379500Y-108902500D01*
X115387476Y-109013855D01*
X115395453Y-109125211D01*
X115476846Y-109046323D01*
X115558238Y-108967434D01*
X115792719Y-109097907D01*
X115888994Y-109152906D01*
X115966110Y-109199680D01*
X116014835Y-109232457D01*
X116027200Y-109244487D01*
X116005753Y-109262400D01*
X115952281Y-109287316D01*
X115932040Y-109295004D01*
X115868513Y-109329907D01*
X115786545Y-109391259D01*
X115701334Y-109467444D01*
X115684390Y-109484301D01*
X115609470Y-109565500D01*
X115548719Y-109645882D01*
X115493100Y-109739686D01*
X115433574Y-109861150D01*
X115404900Y-109924590D01*
X115351563Y-110043080D01*
X115313958Y-110121111D01*
X115287739Y-110164887D01*
X115268565Y-110180615D01*
X115252092Y-110174500D01*
X115239800Y-110160491D01*
X115159313Y-110094945D01*
X115042256Y-110052883D01*
X114897730Y-110035542D01*
X114734836Y-110044162D01*
X114591086Y-110072209D01*
X114512195Y-110095371D01*
X114450751Y-110117970D01*
X114413956Y-110136227D01*
X114409010Y-110146364D01*
X114443116Y-110144603D01*
X114458199Y-110141935D01*
X114512694Y-110139651D01*
X114599317Y-110144497D01*
X114700058Y-110155423D01*
X114707775Y-110156471D01*
X114811399Y-110173425D01*
X114879904Y-110193588D01*
X114928878Y-110223221D01*
X114966749Y-110260482D01*
X115018482Y-110339766D01*
X115034178Y-110428034D01*
X115013670Y-110534151D01*
X114959147Y-110662282D01*
X114867824Y-110804697D01*
X114736266Y-110953145D01*
X114573080Y-111099696D01*
X114386875Y-111236419D01*
X114236468Y-111328200D01*
X114019275Y-111463722D01*
X113846707Y-111604492D01*
X113712594Y-111756522D01*
X113610765Y-111925827D01*
X113599954Y-111948602D01*
X113551101Y-112048461D01*
X113510808Y-112112497D01*
X113469810Y-112152454D01*
X113418841Y-112180081D01*
X113416592Y-112181042D01*
X113300287Y-112217156D01*
X113179187Y-112233096D01*
X113070707Y-112227857D01*
X112999872Y-112205132D01*
X112931645Y-112166478D01*
X113001716Y-112015183D01*
X113136768Y-112015183D01*
X113146398Y-112076813D01*
X113146618Y-112077693D01*
X113161359Y-112122717D01*
X113176232Y-112122872D01*
X113187960Y-112104761D01*
X113195053Y-112049308D01*
X113180786Y-112024756D01*
X113148579Y-111997292D01*
X113136768Y-112015183D01*
X113001716Y-112015183D01*
X113028715Y-111956889D01*
X113060018Y-111889538D01*
X113110101Y-111782081D01*
X113176207Y-111640419D01*
X113255579Y-111470455D01*
X113345460Y-111278090D01*
X113443095Y-111069226D01*
X113545726Y-110849766D01*
X113611609Y-110708931D01*
X113706089Y-110506508D01*
X113944400Y-110506508D01*
X113962107Y-110499884D01*
X114007526Y-110468685D01*
X114046000Y-110439200D01*
X114104175Y-110387689D01*
X114140769Y-110344826D01*
X114147253Y-110329115D01*
X114139286Y-110271179D01*
X114121522Y-110216581D01*
X114101312Y-110186448D01*
X114097157Y-110185200D01*
X114080265Y-110206218D01*
X114050729Y-110259576D01*
X114015463Y-110330731D01*
X113981382Y-110405140D01*
X113955399Y-110468258D01*
X113944430Y-110505542D01*
X113944400Y-110506508D01*
X113706089Y-110506508D01*
X113728441Y-110458620D01*
X113824930Y-110250322D01*
X113902676Y-110080236D01*
X113963278Y-109944558D01*
X114008334Y-109839484D01*
X114039444Y-109761212D01*
X114058206Y-109705939D01*
X114066220Y-109669862D01*
X114065084Y-109649176D01*
X114060129Y-109642131D01*
X113887476Y-109509583D01*
X113721811Y-109380598D01*
X113642967Y-109318329D01*
X114504624Y-109318329D01*
X114511286Y-109404382D01*
X114524817Y-109475084D01*
X114529310Y-109488569D01*
X114551490Y-109533353D01*
X114568121Y-109544545D01*
X114569249Y-109514383D01*
X114554710Y-109463169D01*
X114537236Y-109395736D01*
X114529671Y-109322181D01*
X114532188Y-109259109D01*
X114544963Y-109223125D01*
X114552150Y-109220000D01*
X114580989Y-109237879D01*
X114628034Y-109283392D01*
X114656382Y-109315250D01*
X114700221Y-109363933D01*
X114715280Y-109372128D01*
X114705844Y-109347000D01*
X114661993Y-109270172D01*
X114612328Y-109201087D01*
X114566149Y-109150915D01*
X114532755Y-109130825D01*
X114526944Y-109132123D01*
X114512344Y-109165794D01*
X114504941Y-109233331D01*
X114504624Y-109318329D01*
X113642967Y-109318329D01*
X113567675Y-109258866D01*
X113429610Y-109148081D01*
X113312155Y-109051933D01*
X113219854Y-108974113D01*
X113157247Y-108918314D01*
X113128876Y-108888227D01*
X113127942Y-108884375D01*
X113158430Y-108871132D01*
X113227124Y-108849819D01*
X113322724Y-108823763D01*
X113398644Y-108804714D01*
X113652300Y-108743176D01*
X113706614Y-108831350D01*
X113743812Y-108884885D01*
X113768532Y-108895458D01*
X113787486Y-108860465D01*
X113803941Y-108793593D01*
X113821856Y-108710087D01*
X114039679Y-108717393D01*
G37*
X114039679Y-108717393D02*
X114257501Y-108724700D01*
X114287438Y-108813600D01*
X114317374Y-108902500D01*
X114351889Y-108807249D01*
X114376576Y-108748684D01*
X114406279Y-108721194D01*
X114459129Y-108713448D01*
X114501952Y-108713463D01*
X114601251Y-108718724D01*
X114700300Y-108729876D01*
X114718358Y-108732824D01*
X114781713Y-108747950D01*
X114815250Y-108774489D01*
X114834207Y-108828549D01*
X114841400Y-108862899D01*
X114863584Y-108975078D01*
X114916984Y-108881639D01*
X114949329Y-108830642D01*
X114982153Y-108802477D01*
X115026902Y-108795817D01*
X115095021Y-108809337D01*
X115197957Y-108841713D01*
X115214400Y-108847206D01*
X115379500Y-108902500D01*
X115387476Y-109013855D01*
X115395453Y-109125211D01*
X115476846Y-109046323D01*
X115558238Y-108967434D01*
X115792719Y-109097907D01*
X115888994Y-109152906D01*
X115966110Y-109199680D01*
X116014835Y-109232457D01*
X116027200Y-109244487D01*
X116005753Y-109262400D01*
X115952281Y-109287316D01*
X115932040Y-109295004D01*
X115868513Y-109329907D01*
X115786545Y-109391259D01*
X115701334Y-109467444D01*
X115684390Y-109484301D01*
X115609470Y-109565500D01*
X115548719Y-109645882D01*
X115493100Y-109739686D01*
X115433574Y-109861150D01*
X115404900Y-109924590D01*
X115351563Y-110043080D01*
X115313958Y-110121111D01*
X115287739Y-110164887D01*
X115268565Y-110180615D01*
X115252092Y-110174500D01*
X115239800Y-110160491D01*
X115159313Y-110094945D01*
X115042256Y-110052883D01*
X114897730Y-110035542D01*
X114734836Y-110044162D01*
X114591086Y-110072209D01*
X114512195Y-110095371D01*
X114450751Y-110117970D01*
X114413956Y-110136227D01*
X114409010Y-110146364D01*
X114443116Y-110144603D01*
X114458199Y-110141935D01*
X114512694Y-110139651D01*
X114599317Y-110144497D01*
X114700058Y-110155423D01*
X114707775Y-110156471D01*
X114811399Y-110173425D01*
X114879904Y-110193588D01*
X114928878Y-110223221D01*
X114966749Y-110260482D01*
X115018482Y-110339766D01*
X115034178Y-110428034D01*
X115013670Y-110534151D01*
X114959147Y-110662282D01*
X114867824Y-110804697D01*
X114736266Y-110953145D01*
X114573080Y-111099696D01*
X114386875Y-111236419D01*
X114236468Y-111328200D01*
X114019275Y-111463722D01*
X113846707Y-111604492D01*
X113712594Y-111756522D01*
X113610765Y-111925827D01*
X113599954Y-111948602D01*
X113551101Y-112048461D01*
X113510808Y-112112497D01*
X113469810Y-112152454D01*
X113418841Y-112180081D01*
X113416592Y-112181042D01*
X113300287Y-112217156D01*
X113179187Y-112233096D01*
X113070707Y-112227857D01*
X112999872Y-112205132D01*
X112931645Y-112166478D01*
X113001716Y-112015183D01*
X113136768Y-112015183D01*
X113146398Y-112076813D01*
X113146618Y-112077693D01*
X113161359Y-112122717D01*
X113176232Y-112122872D01*
X113187960Y-112104761D01*
X113195053Y-112049308D01*
X113180786Y-112024756D01*
X113148579Y-111997292D01*
X113136768Y-112015183D01*
X113001716Y-112015183D01*
X113028715Y-111956889D01*
X113060018Y-111889538D01*
X113110101Y-111782081D01*
X113176207Y-111640419D01*
X113255579Y-111470455D01*
X113345460Y-111278090D01*
X113443095Y-111069226D01*
X113545726Y-110849766D01*
X113611609Y-110708931D01*
X113706089Y-110506508D01*
X113944400Y-110506508D01*
X113962107Y-110499884D01*
X114007526Y-110468685D01*
X114046000Y-110439200D01*
X114104175Y-110387689D01*
X114140769Y-110344826D01*
X114147253Y-110329115D01*
X114139286Y-110271179D01*
X114121522Y-110216581D01*
X114101312Y-110186448D01*
X114097157Y-110185200D01*
X114080265Y-110206218D01*
X114050729Y-110259576D01*
X114015463Y-110330731D01*
X113981382Y-110405140D01*
X113955399Y-110468258D01*
X113944430Y-110505542D01*
X113944400Y-110506508D01*
X113706089Y-110506508D01*
X113728441Y-110458620D01*
X113824930Y-110250322D01*
X113902676Y-110080236D01*
X113963278Y-109944558D01*
X114008334Y-109839484D01*
X114039444Y-109761212D01*
X114058206Y-109705939D01*
X114066220Y-109669862D01*
X114065084Y-109649176D01*
X114060129Y-109642131D01*
X113887476Y-109509583D01*
X113721811Y-109380598D01*
X113642967Y-109318329D01*
X114504624Y-109318329D01*
X114511286Y-109404382D01*
X114524817Y-109475084D01*
X114529310Y-109488569D01*
X114551490Y-109533353D01*
X114568121Y-109544545D01*
X114569249Y-109514383D01*
X114554710Y-109463169D01*
X114537236Y-109395736D01*
X114529671Y-109322181D01*
X114532188Y-109259109D01*
X114544963Y-109223125D01*
X114552150Y-109220000D01*
X114580989Y-109237879D01*
X114628034Y-109283392D01*
X114656382Y-109315250D01*
X114700221Y-109363933D01*
X114715280Y-109372128D01*
X114705844Y-109347000D01*
X114661993Y-109270172D01*
X114612328Y-109201087D01*
X114566149Y-109150915D01*
X114532755Y-109130825D01*
X114526944Y-109132123D01*
X114512344Y-109165794D01*
X114504941Y-109233331D01*
X114504624Y-109318329D01*
X113642967Y-109318329D01*
X113567675Y-109258866D01*
X113429610Y-109148081D01*
X113312155Y-109051933D01*
X113219854Y-108974113D01*
X113157247Y-108918314D01*
X113128876Y-108888227D01*
X113127942Y-108884375D01*
X113158430Y-108871132D01*
X113227124Y-108849819D01*
X113322724Y-108823763D01*
X113398644Y-108804714D01*
X113652300Y-108743176D01*
X113706614Y-108831350D01*
X113743812Y-108884885D01*
X113768532Y-108895458D01*
X113787486Y-108860465D01*
X113803941Y-108793593D01*
X113821856Y-108710087D01*
X114039679Y-108717393D01*
D12*
X101209000Y-120904000D02*
X101209000Y-117454000D01*
X101209000Y-120904000D02*
X101209000Y-122854000D01*
X92339000Y-120904000D02*
X92339000Y-118954000D01*
X92339000Y-120904000D02*
X92339000Y-122854000D01*
X97578000Y-128396000D02*
X97578000Y-125096000D01*
X97578000Y-125096000D02*
X90678000Y-125096000D01*
X97578000Y-128396000D02*
X90678000Y-128396000D01*
X85161000Y-113790000D02*
X86091000Y-113790000D01*
X88321000Y-113790000D02*
X87391000Y-113790000D01*
X88321000Y-113790000D02*
X88321000Y-111630000D01*
X85161000Y-113790000D02*
X85161000Y-112330000D01*
X103494000Y-122006000D02*
X105294000Y-122006000D01*
X105294000Y-118786000D02*
X102844000Y-118786000D01*
D10*
X99867201Y-125346001D02*
X98467201Y-125346001D01*
X99867201Y-130446001D02*
X104017201Y-130446001D01*
X99867201Y-125296001D02*
X104017201Y-125296001D01*
X99867201Y-130446001D02*
X99867201Y-130301001D01*
X104017201Y-130446001D02*
X104017201Y-130301001D01*
X104017201Y-125296001D02*
X104017201Y-125441001D01*
X99867201Y-125296001D02*
X99867201Y-125346001D01*
D12*
X82958000Y-113291252D02*
X82958000Y-112768748D01*
X84428000Y-113291252D02*
X84428000Y-112768748D01*
X90524000Y-113291252D02*
X90524000Y-112768748D01*
X89054000Y-113291252D02*
X89054000Y-112768748D01*
X95242748Y-130529000D02*
X95765252Y-130529000D01*
X95242748Y-129059000D02*
X95765252Y-129059000D01*
X96377000Y-134168000D02*
X93692000Y-134168000D01*
X93692000Y-134168000D02*
X93692000Y-136088000D01*
X93692000Y-136088000D02*
X96377000Y-136088000D01*
X92831000Y-109348000D02*
X92831000Y-109658000D01*
X92831000Y-109658000D02*
X108701000Y-109658000D01*
X108701000Y-109658000D02*
X108701000Y-109348000D01*
X92831000Y-107828000D02*
X92831000Y-102068000D01*
X92831000Y-102068000D02*
X94251000Y-102068000D01*
X94251000Y-102068000D02*
X94251000Y-102568000D01*
X94251000Y-102568000D02*
X107281000Y-102568000D01*
X107281000Y-102568000D02*
X107281000Y-102068000D01*
X107281000Y-102068000D02*
X108701000Y-102068000D01*
X108701000Y-102068000D02*
X108701000Y-107828000D01*
X102462436Y-111993000D02*
X103916564Y-111993000D01*
X102462436Y-113813000D02*
X103916564Y-113813000D01*
X103912564Y-116226000D02*
X102458436Y-116226000D01*
X103912564Y-114406000D02*
X102458436Y-114406000D01*
X99152064Y-113813000D02*
X97697936Y-113813000D01*
X99152064Y-111993000D02*
X97697936Y-111993000D01*
X97697936Y-114406000D02*
X99152064Y-114406000D01*
X97697936Y-116226000D02*
X99152064Y-116226000D01*
X86212000Y-126588436D02*
X86212000Y-128042564D01*
X88032000Y-126588436D02*
X88032000Y-128042564D01*
X90204936Y-129011000D02*
X91659064Y-129011000D01*
X90204936Y-130831000D02*
X91659064Y-130831000D01*
X110088000Y-127161936D02*
X110088000Y-128616064D01*
X111908000Y-127161936D02*
X111908000Y-128616064D01*
X107548000Y-127161936D02*
X107548000Y-128616064D01*
X109368000Y-127161936D02*
X109368000Y-128616064D01*
X88651000Y-122028000D02*
X88651000Y-120768000D01*
X88651000Y-115208000D02*
X88651000Y-116468000D01*
X84891000Y-122028000D02*
X88651000Y-122028000D01*
X82641000Y-115208000D02*
X88651000Y-115208000D01*
D10*
X98893380Y-121665904D02*
X99702904Y-121665904D01*
X99798142Y-121618285D01*
X99845761Y-121570666D01*
X99893380Y-121475428D01*
X99893380Y-121284952D01*
X99845761Y-121189714D01*
X99798142Y-121142095D01*
X99702904Y-121094476D01*
X98893380Y-121094476D01*
X98988619Y-120665904D02*
X98941000Y-120618285D01*
X98893380Y-120523047D01*
X98893380Y-120284952D01*
X98941000Y-120189714D01*
X98988619Y-120142095D01*
X99083857Y-120094476D01*
X99179095Y-120094476D01*
X99321952Y-120142095D01*
X99893380Y-120713523D01*
X99893380Y-120094476D01*
X92439904Y-127198380D02*
X92439904Y-126198380D01*
X92678000Y-126198380D01*
X92820857Y-126246000D01*
X92916095Y-126341238D01*
X92963714Y-126436476D01*
X93011333Y-126626952D01*
X93011333Y-126769809D01*
X92963714Y-126960285D01*
X92916095Y-127055523D01*
X92820857Y-127150761D01*
X92678000Y-127198380D01*
X92439904Y-127198380D01*
X93963714Y-127198380D02*
X93392285Y-127198380D01*
X93678000Y-127198380D02*
X93678000Y-126198380D01*
X93582761Y-126341238D01*
X93487523Y-126436476D01*
X93392285Y-126484095D01*
X103886095Y-119848380D02*
X103886095Y-120657904D01*
X103933714Y-120753142D01*
X103981333Y-120800761D01*
X104076571Y-120848380D01*
X104267047Y-120848380D01*
X104362285Y-120800761D01*
X104409904Y-120753142D01*
X104457523Y-120657904D01*
X104457523Y-119848380D01*
X105457523Y-120848380D02*
X104886095Y-120848380D01*
X105171809Y-120848380D02*
X105171809Y-119848380D01*
X105076571Y-119991238D01*
X104981333Y-120086476D01*
X104886095Y-120134095D01*
X101180296Y-127468380D02*
X101180296Y-128277904D01*
X101227915Y-128373142D01*
X101275534Y-128420761D01*
X101370772Y-128468380D01*
X101561248Y-128468380D01*
X101656486Y-128420761D01*
X101704105Y-128373142D01*
X101751724Y-128277904D01*
X101751724Y-127468380D01*
X102656486Y-127801714D02*
X102656486Y-128468380D01*
X102418391Y-127420761D02*
X102180296Y-128135047D01*
X102799343Y-128135047D01*
X94638904Y-135580380D02*
X94638904Y-134580380D01*
X94877000Y-134580380D01*
X95019857Y-134628000D01*
X95115095Y-134723238D01*
X95162714Y-134818476D01*
X95210333Y-135008952D01*
X95210333Y-135151809D01*
X95162714Y-135342285D01*
X95115095Y-135437523D01*
X95019857Y-135532761D01*
X94877000Y-135580380D01*
X94638904Y-135580380D01*
X95591285Y-134675619D02*
X95638904Y-134628000D01*
X95734142Y-134580380D01*
X95972238Y-134580380D01*
X96067476Y-134628000D01*
X96115095Y-134675619D01*
X96162714Y-134770857D01*
X96162714Y-134866095D01*
X96115095Y-135008952D01*
X95543666Y-135580380D01*
X96162714Y-135580380D01*
X97901476Y-135056571D02*
X98044333Y-135104190D01*
X98091952Y-135151809D01*
X98139571Y-135247047D01*
X98139571Y-135389904D01*
X98091952Y-135485142D01*
X98044333Y-135532761D01*
X97949095Y-135580380D01*
X97568142Y-135580380D01*
X97568142Y-134580380D01*
X97901476Y-134580380D01*
X97996714Y-134628000D01*
X98044333Y-134675619D01*
X98091952Y-134770857D01*
X98091952Y-134866095D01*
X98044333Y-134961333D01*
X97996714Y-135008952D01*
X97901476Y-135056571D01*
X97568142Y-135056571D01*
X98520523Y-135532761D02*
X98663380Y-135580380D01*
X98901476Y-135580380D01*
X98996714Y-135532761D01*
X99044333Y-135485142D01*
X99091952Y-135389904D01*
X99091952Y-135294666D01*
X99044333Y-135199428D01*
X98996714Y-135151809D01*
X98901476Y-135104190D01*
X98711000Y-135056571D01*
X98615761Y-135008952D01*
X98568142Y-134961333D01*
X98520523Y-134866095D01*
X98520523Y-134770857D01*
X98568142Y-134675619D01*
X98615761Y-134628000D01*
X98711000Y-134580380D01*
X98949095Y-134580380D01*
X99091952Y-134628000D01*
X99520523Y-135580380D02*
X99520523Y-134580380D01*
X99901476Y-134580380D01*
X99996714Y-134628000D01*
X100044333Y-134675619D01*
X100091952Y-134770857D01*
X100091952Y-134913714D01*
X100044333Y-135008952D01*
X99996714Y-135056571D01*
X99901476Y-135104190D01*
X99520523Y-135104190D01*
X100520523Y-135580380D02*
X100520523Y-134580380D01*
X100758619Y-134580380D01*
X100901476Y-134628000D01*
X100996714Y-134723238D01*
X101044333Y-134818476D01*
X101091952Y-135008952D01*
X101091952Y-135151809D01*
X101044333Y-135342285D01*
X100996714Y-135437523D01*
X100901476Y-135532761D01*
X100758619Y-135580380D01*
X100520523Y-135580380D01*
X101282428Y-135675619D02*
X102044333Y-135675619D01*
X102472904Y-134580380D02*
X102663380Y-134580380D01*
X102758619Y-134628000D01*
X102853857Y-134723238D01*
X102901476Y-134913714D01*
X102901476Y-135247047D01*
X102853857Y-135437523D01*
X102758619Y-135532761D01*
X102663380Y-135580380D01*
X102472904Y-135580380D01*
X102377666Y-135532761D01*
X102282428Y-135437523D01*
X102234809Y-135247047D01*
X102234809Y-134913714D01*
X102282428Y-134723238D01*
X102377666Y-134628000D01*
X102472904Y-134580380D01*
X103330047Y-135580380D02*
X103330047Y-134580380D01*
X103901476Y-135580380D02*
X103472904Y-135008952D01*
X103901476Y-134580380D02*
X103330047Y-135151809D01*
X94154666Y-104100380D02*
X94154666Y-104814666D01*
X94107047Y-104957523D01*
X94011809Y-105052761D01*
X93868952Y-105100380D01*
X93773714Y-105100380D01*
X95154666Y-105100380D02*
X94583238Y-105100380D01*
X94868952Y-105100380D02*
X94868952Y-104100380D01*
X94773714Y-104243238D01*
X94678476Y-104338476D01*
X94583238Y-104386095D01*
X103022833Y-113355380D02*
X102689500Y-112879190D01*
X102451404Y-113355380D02*
X102451404Y-112355380D01*
X102832357Y-112355380D01*
X102927595Y-112403000D01*
X102975214Y-112450619D01*
X103022833Y-112545857D01*
X103022833Y-112688714D01*
X102975214Y-112783952D01*
X102927595Y-112831571D01*
X102832357Y-112879190D01*
X102451404Y-112879190D01*
X103975214Y-113355380D02*
X103403785Y-113355380D01*
X103689500Y-113355380D02*
X103689500Y-112355380D01*
X103594261Y-112498238D01*
X103499023Y-112593476D01*
X103403785Y-112641095D01*
X103018833Y-115768380D02*
X102685500Y-115292190D01*
X102447404Y-115768380D02*
X102447404Y-114768380D01*
X102828357Y-114768380D01*
X102923595Y-114816000D01*
X102971214Y-114863619D01*
X103018833Y-114958857D01*
X103018833Y-115101714D01*
X102971214Y-115196952D01*
X102923595Y-115244571D01*
X102828357Y-115292190D01*
X102447404Y-115292190D01*
X103399785Y-114863619D02*
X103447404Y-114816000D01*
X103542642Y-114768380D01*
X103780738Y-114768380D01*
X103875976Y-114816000D01*
X103923595Y-114863619D01*
X103971214Y-114958857D01*
X103971214Y-115054095D01*
X103923595Y-115196952D01*
X103352166Y-115768380D01*
X103971214Y-115768380D01*
X98258333Y-113355380D02*
X97925000Y-112879190D01*
X97686904Y-113355380D02*
X97686904Y-112355380D01*
X98067857Y-112355380D01*
X98163095Y-112403000D01*
X98210714Y-112450619D01*
X98258333Y-112545857D01*
X98258333Y-112688714D01*
X98210714Y-112783952D01*
X98163095Y-112831571D01*
X98067857Y-112879190D01*
X97686904Y-112879190D01*
X98591666Y-112355380D02*
X99210714Y-112355380D01*
X98877380Y-112736333D01*
X99020238Y-112736333D01*
X99115476Y-112783952D01*
X99163095Y-112831571D01*
X99210714Y-112926809D01*
X99210714Y-113164904D01*
X99163095Y-113260142D01*
X99115476Y-113307761D01*
X99020238Y-113355380D01*
X98734523Y-113355380D01*
X98639285Y-113307761D01*
X98591666Y-113260142D01*
X98258333Y-115768380D02*
X97925000Y-115292190D01*
X97686904Y-115768380D02*
X97686904Y-114768380D01*
X98067857Y-114768380D01*
X98163095Y-114816000D01*
X98210714Y-114863619D01*
X98258333Y-114958857D01*
X98258333Y-115101714D01*
X98210714Y-115196952D01*
X98163095Y-115244571D01*
X98067857Y-115292190D01*
X97686904Y-115292190D01*
X99115476Y-115101714D02*
X99115476Y-115768380D01*
X98877380Y-114720761D02*
X98639285Y-115435047D01*
X99258333Y-115435047D01*
X87574380Y-127482166D02*
X87098190Y-127815500D01*
X87574380Y-128053595D02*
X86574380Y-128053595D01*
X86574380Y-127672642D01*
X86622000Y-127577404D01*
X86669619Y-127529785D01*
X86764857Y-127482166D01*
X86907714Y-127482166D01*
X87002952Y-127529785D01*
X87050571Y-127577404D01*
X87098190Y-127672642D01*
X87098190Y-128053595D01*
X86574380Y-126577404D02*
X86574380Y-127053595D01*
X87050571Y-127101214D01*
X87002952Y-127053595D01*
X86955333Y-126958357D01*
X86955333Y-126720261D01*
X87002952Y-126625023D01*
X87050571Y-126577404D01*
X87145809Y-126529785D01*
X87383904Y-126529785D01*
X87479142Y-126577404D01*
X87526761Y-126625023D01*
X87574380Y-126720261D01*
X87574380Y-126958357D01*
X87526761Y-127053595D01*
X87479142Y-127101214D01*
X90765333Y-130373380D02*
X90432000Y-129897190D01*
X90193904Y-130373380D02*
X90193904Y-129373380D01*
X90574857Y-129373380D01*
X90670095Y-129421000D01*
X90717714Y-129468619D01*
X90765333Y-129563857D01*
X90765333Y-129706714D01*
X90717714Y-129801952D01*
X90670095Y-129849571D01*
X90574857Y-129897190D01*
X90193904Y-129897190D01*
X91622476Y-129373380D02*
X91432000Y-129373380D01*
X91336761Y-129421000D01*
X91289142Y-129468619D01*
X91193904Y-129611476D01*
X91146285Y-129801952D01*
X91146285Y-130182904D01*
X91193904Y-130278142D01*
X91241523Y-130325761D01*
X91336761Y-130373380D01*
X91527238Y-130373380D01*
X91622476Y-130325761D01*
X91670095Y-130278142D01*
X91717714Y-130182904D01*
X91717714Y-129944809D01*
X91670095Y-129849571D01*
X91622476Y-129801952D01*
X91527238Y-129754333D01*
X91336761Y-129754333D01*
X91241523Y-129801952D01*
X91193904Y-129849571D01*
X91146285Y-129944809D01*
X111450380Y-127994166D02*
X110974190Y-128327500D01*
X111450380Y-128565595D02*
X110450380Y-128565595D01*
X110450380Y-128184642D01*
X110498000Y-128089404D01*
X110545619Y-128041785D01*
X110640857Y-127994166D01*
X110783714Y-127994166D01*
X110878952Y-128041785D01*
X110926571Y-128089404D01*
X110974190Y-128184642D01*
X110974190Y-128565595D01*
X110450380Y-127660833D02*
X110450380Y-126994166D01*
X111450380Y-127422738D01*
X108910380Y-128055666D02*
X108434190Y-128389000D01*
X108910380Y-128627095D02*
X107910380Y-128627095D01*
X107910380Y-128246142D01*
X107958000Y-128150904D01*
X108005619Y-128103285D01*
X108100857Y-128055666D01*
X108243714Y-128055666D01*
X108338952Y-128103285D01*
X108386571Y-128150904D01*
X108434190Y-128246142D01*
X108434190Y-128627095D01*
X108338952Y-127484238D02*
X108291333Y-127579476D01*
X108243714Y-127627095D01*
X108148476Y-127674714D01*
X108100857Y-127674714D01*
X108005619Y-127627095D01*
X107958000Y-127579476D01*
X107910380Y-127484238D01*
X107910380Y-127293761D01*
X107958000Y-127198523D01*
X108005619Y-127150904D01*
X108100857Y-127103285D01*
X108148476Y-127103285D01*
X108243714Y-127150904D01*
X108291333Y-127198523D01*
X108338952Y-127293761D01*
X108338952Y-127484238D01*
X108386571Y-127579476D01*
X108434190Y-127627095D01*
X108529428Y-127674714D01*
X108719904Y-127674714D01*
X108815142Y-127627095D01*
X108862761Y-127579476D01*
X108910380Y-127484238D01*
X108910380Y-127293761D01*
X108862761Y-127198523D01*
X108815142Y-127150904D01*
X108719904Y-127103285D01*
X108529428Y-127103285D01*
X108434190Y-127150904D01*
X108386571Y-127198523D01*
X108338952Y-127293761D01*
X85979095Y-117562380D02*
X85979095Y-118371904D01*
X86026714Y-118467142D01*
X86074333Y-118514761D01*
X86169571Y-118562380D01*
X86360047Y-118562380D01*
X86455285Y-118514761D01*
X86502904Y-118467142D01*
X86550523Y-118371904D01*
X86550523Y-117562380D01*
X86931476Y-117562380D02*
X87550523Y-117562380D01*
X87217190Y-117943333D01*
X87360047Y-117943333D01*
X87455285Y-117990952D01*
X87502904Y-118038571D01*
X87550523Y-118133809D01*
X87550523Y-118371904D01*
X87502904Y-118467142D01*
X87455285Y-118514761D01*
X87360047Y-118562380D01*
X87074333Y-118562380D01*
X86979095Y-118514761D01*
X86931476Y-118467142D01*
M02*
