G04 #@! TF.GenerationSoftware,KiCad,Pcbnew,(5.1.0)-1*
G04 #@! TF.CreationDate,2019-08-23T12:12:23+10:00*
G04 #@! TF.ProjectId,APPS,41505053-2e6b-4696-9361-645f70636258,rev?*
G04 #@! TF.SameCoordinates,Original*
G04 #@! TF.FileFunction,Soldermask,Bot*
G04 #@! TF.FilePolarity,Negative*
%FSLAX46Y46*%
G04 Gerber Fmt 4.6, Leading zero omitted, Abs format (unit mm)*
G04 Created by KiCad (PCBNEW (5.1.0)-1) date 2019-08-23 12:12:23*
%MOMM*%
%LPD*%
G04 APERTURE LIST*
%ADD10C,0.100000*%
G04 APERTURE END LIST*
D10*
G36*
X195320256Y-132376298D02*
G01*
X195426579Y-132397447D01*
X195727042Y-132521903D01*
X195997451Y-132702585D01*
X196227415Y-132932549D01*
X196408097Y-133202958D01*
X196532553Y-133503421D01*
X196596000Y-133822391D01*
X196596000Y-134147609D01*
X196532553Y-134466579D01*
X196408097Y-134767042D01*
X196227415Y-135037451D01*
X195997451Y-135267415D01*
X195727042Y-135448097D01*
X195426579Y-135572553D01*
X195320256Y-135593702D01*
X195107611Y-135636000D01*
X194782389Y-135636000D01*
X194569744Y-135593702D01*
X194463421Y-135572553D01*
X194162958Y-135448097D01*
X193892549Y-135267415D01*
X193662585Y-135037451D01*
X193481903Y-134767042D01*
X193357447Y-134466579D01*
X193294000Y-134147609D01*
X193294000Y-133822391D01*
X193357447Y-133503421D01*
X193481903Y-133202958D01*
X193662585Y-132932549D01*
X193892549Y-132702585D01*
X194162958Y-132521903D01*
X194463421Y-132397447D01*
X194569744Y-132376298D01*
X194782389Y-132334000D01*
X195107611Y-132334000D01*
X195320256Y-132376298D01*
X195320256Y-132376298D01*
G37*
G36*
X115320256Y-132376298D02*
G01*
X115426579Y-132397447D01*
X115727042Y-132521903D01*
X115997451Y-132702585D01*
X116227415Y-132932549D01*
X116408097Y-133202958D01*
X116532553Y-133503421D01*
X116596000Y-133822391D01*
X116596000Y-134147609D01*
X116532553Y-134466579D01*
X116408097Y-134767042D01*
X116227415Y-135037451D01*
X115997451Y-135267415D01*
X115727042Y-135448097D01*
X115426579Y-135572553D01*
X115320256Y-135593702D01*
X115107611Y-135636000D01*
X114782389Y-135636000D01*
X114569744Y-135593702D01*
X114463421Y-135572553D01*
X114162958Y-135448097D01*
X113892549Y-135267415D01*
X113662585Y-135037451D01*
X113481903Y-134767042D01*
X113357447Y-134466579D01*
X113294000Y-134147609D01*
X113294000Y-133822391D01*
X113357447Y-133503421D01*
X113481903Y-133202958D01*
X113662585Y-132932549D01*
X113892549Y-132702585D01*
X114162958Y-132521903D01*
X114463421Y-132397447D01*
X114569744Y-132376298D01*
X114782389Y-132334000D01*
X115107611Y-132334000D01*
X115320256Y-132376298D01*
X115320256Y-132376298D01*
G37*
G36*
X186994031Y-124867621D02*
G01*
X187023486Y-124876556D01*
X187050623Y-124891062D01*
X187074414Y-124910586D01*
X187093938Y-124934377D01*
X187108444Y-124961514D01*
X187117379Y-124990969D01*
X187121000Y-125027734D01*
X187121000Y-127502266D01*
X187117379Y-127539031D01*
X187108444Y-127568486D01*
X187093938Y-127595623D01*
X187074414Y-127619414D01*
X187050623Y-127638938D01*
X187023486Y-127653444D01*
X186994031Y-127662379D01*
X186957266Y-127666000D01*
X183882734Y-127666000D01*
X183845969Y-127662379D01*
X183816514Y-127653444D01*
X183789377Y-127638938D01*
X183765586Y-127619414D01*
X183746062Y-127595623D01*
X183731556Y-127568486D01*
X183722621Y-127539031D01*
X183719000Y-127502266D01*
X183719000Y-125027734D01*
X183722621Y-124990969D01*
X183731556Y-124961514D01*
X183746062Y-124934377D01*
X183765586Y-124910586D01*
X183789377Y-124891062D01*
X183816514Y-124876556D01*
X183845969Y-124867621D01*
X183882734Y-124864000D01*
X186957266Y-124864000D01*
X186994031Y-124867621D01*
X186994031Y-124867621D01*
G37*
G36*
X191391731Y-124874136D02*
G01*
X191494644Y-124884272D01*
X191690017Y-124943538D01*
X191758737Y-124964384D01*
X191961625Y-125072830D01*
X192002120Y-125094475D01*
X192057691Y-125140082D01*
X192215450Y-125269550D01*
X192344918Y-125427309D01*
X192390525Y-125482880D01*
X192390526Y-125482882D01*
X192520616Y-125726263D01*
X192520617Y-125726267D01*
X192600728Y-125990356D01*
X192627778Y-126265000D01*
X192600728Y-126539644D01*
X192541462Y-126735017D01*
X192520616Y-126803737D01*
X192397964Y-127033202D01*
X192390525Y-127047120D01*
X192344918Y-127102691D01*
X192215450Y-127260450D01*
X192057691Y-127389918D01*
X192002120Y-127435525D01*
X192002118Y-127435526D01*
X191758737Y-127565616D01*
X191690017Y-127586462D01*
X191494644Y-127645728D01*
X191391731Y-127655864D01*
X191288820Y-127666000D01*
X190551180Y-127666000D01*
X190448269Y-127655864D01*
X190345356Y-127645728D01*
X190149983Y-127586462D01*
X190081263Y-127565616D01*
X189837882Y-127435526D01*
X189837880Y-127435525D01*
X189782309Y-127389918D01*
X189624550Y-127260450D01*
X189495082Y-127102691D01*
X189449475Y-127047120D01*
X189442036Y-127033202D01*
X189319384Y-126803737D01*
X189298538Y-126735017D01*
X189239272Y-126539644D01*
X189212222Y-126265000D01*
X189239272Y-125990356D01*
X189319383Y-125726267D01*
X189319384Y-125726263D01*
X189449474Y-125482882D01*
X189449475Y-125482880D01*
X189495082Y-125427309D01*
X189624550Y-125269550D01*
X189782309Y-125140082D01*
X189837880Y-125094475D01*
X189878375Y-125072830D01*
X190081263Y-124964384D01*
X190149983Y-124943538D01*
X190345356Y-124884272D01*
X190448269Y-124874136D01*
X190551180Y-124864000D01*
X191288820Y-124864000D01*
X191391731Y-124874136D01*
X191391731Y-124874136D01*
G37*
G36*
X191391731Y-120674136D02*
G01*
X191494644Y-120684272D01*
X191690017Y-120743538D01*
X191758737Y-120764384D01*
X191988202Y-120887036D01*
X192002120Y-120894475D01*
X192057691Y-120940082D01*
X192215450Y-121069550D01*
X192344918Y-121227309D01*
X192390525Y-121282880D01*
X192390526Y-121282882D01*
X192520616Y-121526263D01*
X192520617Y-121526267D01*
X192600728Y-121790356D01*
X192627778Y-122065000D01*
X192600728Y-122339644D01*
X192541462Y-122535017D01*
X192520616Y-122603737D01*
X192397964Y-122833202D01*
X192390525Y-122847120D01*
X192344918Y-122902691D01*
X192215450Y-123060450D01*
X192057691Y-123189918D01*
X192002120Y-123235525D01*
X192002118Y-123235526D01*
X191758737Y-123365616D01*
X191690017Y-123386462D01*
X191494644Y-123445728D01*
X191391731Y-123455864D01*
X191288820Y-123466000D01*
X190551180Y-123466000D01*
X190448269Y-123455864D01*
X190345356Y-123445728D01*
X190149983Y-123386462D01*
X190081263Y-123365616D01*
X189837882Y-123235526D01*
X189837880Y-123235525D01*
X189782309Y-123189918D01*
X189624550Y-123060450D01*
X189495082Y-122902691D01*
X189449475Y-122847120D01*
X189442036Y-122833202D01*
X189319384Y-122603737D01*
X189298538Y-122535017D01*
X189239272Y-122339644D01*
X189212222Y-122065000D01*
X189239272Y-121790356D01*
X189319383Y-121526267D01*
X189319384Y-121526263D01*
X189449474Y-121282882D01*
X189449475Y-121282880D01*
X189495082Y-121227309D01*
X189624550Y-121069550D01*
X189782309Y-120940082D01*
X189837880Y-120894475D01*
X189851798Y-120887036D01*
X190081263Y-120764384D01*
X190149983Y-120743538D01*
X190345356Y-120684272D01*
X190448269Y-120674136D01*
X190551180Y-120664000D01*
X191288820Y-120664000D01*
X191391731Y-120674136D01*
X191391731Y-120674136D01*
G37*
G36*
X185891731Y-120674136D02*
G01*
X185994644Y-120684272D01*
X186190017Y-120743538D01*
X186258737Y-120764384D01*
X186488202Y-120887036D01*
X186502120Y-120894475D01*
X186557691Y-120940082D01*
X186715450Y-121069550D01*
X186844918Y-121227309D01*
X186890525Y-121282880D01*
X186890526Y-121282882D01*
X187020616Y-121526263D01*
X187020617Y-121526267D01*
X187100728Y-121790356D01*
X187127778Y-122065000D01*
X187100728Y-122339644D01*
X187041462Y-122535017D01*
X187020616Y-122603737D01*
X186897964Y-122833202D01*
X186890525Y-122847120D01*
X186844918Y-122902691D01*
X186715450Y-123060450D01*
X186557691Y-123189918D01*
X186502120Y-123235525D01*
X186502118Y-123235526D01*
X186258737Y-123365616D01*
X186190017Y-123386462D01*
X185994644Y-123445728D01*
X185891731Y-123455864D01*
X185788820Y-123466000D01*
X185051180Y-123466000D01*
X184948269Y-123455864D01*
X184845356Y-123445728D01*
X184649983Y-123386462D01*
X184581263Y-123365616D01*
X184337882Y-123235526D01*
X184337880Y-123235525D01*
X184282309Y-123189918D01*
X184124550Y-123060450D01*
X183995082Y-122902691D01*
X183949475Y-122847120D01*
X183942036Y-122833202D01*
X183819384Y-122603737D01*
X183798538Y-122535017D01*
X183739272Y-122339644D01*
X183712222Y-122065000D01*
X183739272Y-121790356D01*
X183819383Y-121526267D01*
X183819384Y-121526263D01*
X183949474Y-121282882D01*
X183949475Y-121282880D01*
X183995082Y-121227309D01*
X184124550Y-121069550D01*
X184282309Y-120940082D01*
X184337880Y-120894475D01*
X184351798Y-120887036D01*
X184581263Y-120764384D01*
X184649983Y-120743538D01*
X184845356Y-120684272D01*
X184948269Y-120674136D01*
X185051180Y-120664000D01*
X185788820Y-120664000D01*
X185891731Y-120674136D01*
X185891731Y-120674136D01*
G37*
G36*
X191391731Y-116474136D02*
G01*
X191494644Y-116484272D01*
X191690017Y-116543538D01*
X191758737Y-116564384D01*
X191988202Y-116687036D01*
X192002120Y-116694475D01*
X192057691Y-116740082D01*
X192215450Y-116869550D01*
X192344918Y-117027309D01*
X192390525Y-117082880D01*
X192390526Y-117082882D01*
X192520616Y-117326263D01*
X192520617Y-117326267D01*
X192600728Y-117590356D01*
X192627778Y-117865000D01*
X192600728Y-118139644D01*
X192541462Y-118335017D01*
X192520616Y-118403737D01*
X192397964Y-118633202D01*
X192390525Y-118647120D01*
X192344918Y-118702691D01*
X192215450Y-118860450D01*
X192057691Y-118989918D01*
X192002120Y-119035525D01*
X192002118Y-119035526D01*
X191758737Y-119165616D01*
X191690017Y-119186462D01*
X191494644Y-119245728D01*
X191391731Y-119255864D01*
X191288820Y-119266000D01*
X190551180Y-119266000D01*
X190448269Y-119255864D01*
X190345356Y-119245728D01*
X190149983Y-119186462D01*
X190081263Y-119165616D01*
X189837882Y-119035526D01*
X189837880Y-119035525D01*
X189782309Y-118989918D01*
X189624550Y-118860450D01*
X189495082Y-118702691D01*
X189449475Y-118647120D01*
X189442036Y-118633202D01*
X189319384Y-118403737D01*
X189298538Y-118335017D01*
X189239272Y-118139644D01*
X189212222Y-117865000D01*
X189239272Y-117590356D01*
X189319383Y-117326267D01*
X189319384Y-117326263D01*
X189449474Y-117082882D01*
X189449475Y-117082880D01*
X189495082Y-117027309D01*
X189624550Y-116869550D01*
X189782309Y-116740082D01*
X189837880Y-116694475D01*
X189851798Y-116687036D01*
X190081263Y-116564384D01*
X190149983Y-116543538D01*
X190345356Y-116484272D01*
X190448269Y-116474136D01*
X190551180Y-116464000D01*
X191288820Y-116464000D01*
X191391731Y-116474136D01*
X191391731Y-116474136D01*
G37*
G36*
X185891731Y-116474136D02*
G01*
X185994644Y-116484272D01*
X186190017Y-116543538D01*
X186258737Y-116564384D01*
X186488202Y-116687036D01*
X186502120Y-116694475D01*
X186557691Y-116740082D01*
X186715450Y-116869550D01*
X186844918Y-117027309D01*
X186890525Y-117082880D01*
X186890526Y-117082882D01*
X187020616Y-117326263D01*
X187020617Y-117326267D01*
X187100728Y-117590356D01*
X187127778Y-117865000D01*
X187100728Y-118139644D01*
X187041462Y-118335017D01*
X187020616Y-118403737D01*
X186897964Y-118633202D01*
X186890525Y-118647120D01*
X186844918Y-118702691D01*
X186715450Y-118860450D01*
X186557691Y-118989918D01*
X186502120Y-119035525D01*
X186502118Y-119035526D01*
X186258737Y-119165616D01*
X186190017Y-119186462D01*
X185994644Y-119245728D01*
X185891731Y-119255864D01*
X185788820Y-119266000D01*
X185051180Y-119266000D01*
X184948269Y-119255864D01*
X184845356Y-119245728D01*
X184649983Y-119186462D01*
X184581263Y-119165616D01*
X184337882Y-119035526D01*
X184337880Y-119035525D01*
X184282309Y-118989918D01*
X184124550Y-118860450D01*
X183995082Y-118702691D01*
X183949475Y-118647120D01*
X183942036Y-118633202D01*
X183819384Y-118403737D01*
X183798538Y-118335017D01*
X183739272Y-118139644D01*
X183712222Y-117865000D01*
X183739272Y-117590356D01*
X183819383Y-117326267D01*
X183819384Y-117326263D01*
X183949474Y-117082882D01*
X183949475Y-117082880D01*
X183995082Y-117027309D01*
X184124550Y-116869550D01*
X184282309Y-116740082D01*
X184337880Y-116694475D01*
X184351798Y-116687036D01*
X184581263Y-116564384D01*
X184649983Y-116543538D01*
X184845356Y-116484272D01*
X184948269Y-116474136D01*
X185051180Y-116464000D01*
X185788820Y-116464000D01*
X185891731Y-116474136D01*
X185891731Y-116474136D01*
G37*
G36*
X185891731Y-112274136D02*
G01*
X185994644Y-112284272D01*
X186190017Y-112343538D01*
X186258737Y-112364384D01*
X186488202Y-112487036D01*
X186502120Y-112494475D01*
X186557691Y-112540082D01*
X186715450Y-112669550D01*
X186844918Y-112827309D01*
X186890525Y-112882880D01*
X186890526Y-112882882D01*
X187020616Y-113126263D01*
X187020617Y-113126267D01*
X187100728Y-113390356D01*
X187127778Y-113665000D01*
X187100728Y-113939644D01*
X187041462Y-114135017D01*
X187020616Y-114203737D01*
X186897964Y-114433202D01*
X186890525Y-114447120D01*
X186844918Y-114502691D01*
X186715450Y-114660450D01*
X186557691Y-114789918D01*
X186502120Y-114835525D01*
X186502118Y-114835526D01*
X186258737Y-114965616D01*
X186190017Y-114986462D01*
X185994644Y-115045728D01*
X185891731Y-115055864D01*
X185788820Y-115066000D01*
X185051180Y-115066000D01*
X184948269Y-115055864D01*
X184845356Y-115045728D01*
X184649983Y-114986462D01*
X184581263Y-114965616D01*
X184337882Y-114835526D01*
X184337880Y-114835525D01*
X184282309Y-114789918D01*
X184124550Y-114660450D01*
X183995082Y-114502691D01*
X183949475Y-114447120D01*
X183942036Y-114433202D01*
X183819384Y-114203737D01*
X183798538Y-114135017D01*
X183739272Y-113939644D01*
X183712222Y-113665000D01*
X183739272Y-113390356D01*
X183819383Y-113126267D01*
X183819384Y-113126263D01*
X183949474Y-112882882D01*
X183949475Y-112882880D01*
X183995082Y-112827309D01*
X184124550Y-112669550D01*
X184282309Y-112540082D01*
X184337880Y-112494475D01*
X184351798Y-112487036D01*
X184581263Y-112364384D01*
X184649983Y-112343538D01*
X184845356Y-112284272D01*
X184948269Y-112274136D01*
X185051180Y-112264000D01*
X185788820Y-112264000D01*
X185891731Y-112274136D01*
X185891731Y-112274136D01*
G37*
G36*
X191391731Y-112274136D02*
G01*
X191494644Y-112284272D01*
X191690017Y-112343538D01*
X191758737Y-112364384D01*
X191988202Y-112487036D01*
X192002120Y-112494475D01*
X192057691Y-112540082D01*
X192215450Y-112669550D01*
X192344918Y-112827309D01*
X192390525Y-112882880D01*
X192390526Y-112882882D01*
X192520616Y-113126263D01*
X192520617Y-113126267D01*
X192600728Y-113390356D01*
X192627778Y-113665000D01*
X192600728Y-113939644D01*
X192541462Y-114135017D01*
X192520616Y-114203737D01*
X192397964Y-114433202D01*
X192390525Y-114447120D01*
X192344918Y-114502691D01*
X192215450Y-114660450D01*
X192057691Y-114789918D01*
X192002120Y-114835525D01*
X192002118Y-114835526D01*
X191758737Y-114965616D01*
X191690017Y-114986462D01*
X191494644Y-115045728D01*
X191391731Y-115055864D01*
X191288820Y-115066000D01*
X190551180Y-115066000D01*
X190448269Y-115055864D01*
X190345356Y-115045728D01*
X190149983Y-114986462D01*
X190081263Y-114965616D01*
X189837882Y-114835526D01*
X189837880Y-114835525D01*
X189782309Y-114789918D01*
X189624550Y-114660450D01*
X189495082Y-114502691D01*
X189449475Y-114447120D01*
X189442036Y-114433202D01*
X189319384Y-114203737D01*
X189298538Y-114135017D01*
X189239272Y-113939644D01*
X189212222Y-113665000D01*
X189239272Y-113390356D01*
X189319383Y-113126267D01*
X189319384Y-113126263D01*
X189449474Y-112882882D01*
X189449475Y-112882880D01*
X189495082Y-112827309D01*
X189624550Y-112669550D01*
X189782309Y-112540082D01*
X189837880Y-112494475D01*
X189851798Y-112487036D01*
X190081263Y-112364384D01*
X190149983Y-112343538D01*
X190345356Y-112284272D01*
X190448269Y-112274136D01*
X190551180Y-112264000D01*
X191288820Y-112264000D01*
X191391731Y-112274136D01*
X191391731Y-112274136D01*
G37*
G36*
X186994031Y-97027621D02*
G01*
X187023486Y-97036556D01*
X187050623Y-97051062D01*
X187074414Y-97070586D01*
X187093938Y-97094377D01*
X187108444Y-97121514D01*
X187117379Y-97150969D01*
X187121000Y-97187734D01*
X187121000Y-99662266D01*
X187117379Y-99699031D01*
X187108444Y-99728486D01*
X187093938Y-99755623D01*
X187074414Y-99779414D01*
X187050623Y-99798938D01*
X187023486Y-99813444D01*
X186994031Y-99822379D01*
X186957266Y-99826000D01*
X183882734Y-99826000D01*
X183845969Y-99822379D01*
X183816514Y-99813444D01*
X183789377Y-99798938D01*
X183765586Y-99779414D01*
X183746062Y-99755623D01*
X183731556Y-99728486D01*
X183722621Y-99699031D01*
X183719000Y-99662266D01*
X183719000Y-97187734D01*
X183722621Y-97150969D01*
X183731556Y-97121514D01*
X183746062Y-97094377D01*
X183765586Y-97070586D01*
X183789377Y-97051062D01*
X183816514Y-97036556D01*
X183845969Y-97027621D01*
X183882734Y-97024000D01*
X186957266Y-97024000D01*
X186994031Y-97027621D01*
X186994031Y-97027621D01*
G37*
G36*
X191391731Y-97034136D02*
G01*
X191494644Y-97044272D01*
X191690017Y-97103538D01*
X191758737Y-97124384D01*
X191961625Y-97232830D01*
X192002120Y-97254475D01*
X192057691Y-97300082D01*
X192215450Y-97429550D01*
X192344918Y-97587309D01*
X192390525Y-97642880D01*
X192390526Y-97642882D01*
X192520616Y-97886263D01*
X192520617Y-97886267D01*
X192600728Y-98150356D01*
X192627778Y-98425000D01*
X192600728Y-98699644D01*
X192541462Y-98895017D01*
X192520616Y-98963737D01*
X192397964Y-99193202D01*
X192390525Y-99207120D01*
X192344918Y-99262691D01*
X192215450Y-99420450D01*
X192057691Y-99549918D01*
X192002120Y-99595525D01*
X192002118Y-99595526D01*
X191758737Y-99725616D01*
X191690017Y-99746462D01*
X191494644Y-99805728D01*
X191391731Y-99815864D01*
X191288820Y-99826000D01*
X190551180Y-99826000D01*
X190448269Y-99815864D01*
X190345356Y-99805728D01*
X190149983Y-99746462D01*
X190081263Y-99725616D01*
X189837882Y-99595526D01*
X189837880Y-99595525D01*
X189782309Y-99549918D01*
X189624550Y-99420450D01*
X189495082Y-99262691D01*
X189449475Y-99207120D01*
X189442036Y-99193202D01*
X189319384Y-98963737D01*
X189298538Y-98895017D01*
X189239272Y-98699644D01*
X189212222Y-98425000D01*
X189239272Y-98150356D01*
X189319383Y-97886267D01*
X189319384Y-97886263D01*
X189449474Y-97642882D01*
X189449475Y-97642880D01*
X189495082Y-97587309D01*
X189624550Y-97429550D01*
X189782309Y-97300082D01*
X189837880Y-97254475D01*
X189878375Y-97232830D01*
X190081263Y-97124384D01*
X190149983Y-97103538D01*
X190345356Y-97044272D01*
X190448269Y-97034136D01*
X190551180Y-97024000D01*
X191288820Y-97024000D01*
X191391731Y-97034136D01*
X191391731Y-97034136D01*
G37*
G36*
X131806564Y-91064389D02*
G01*
X131997833Y-91143615D01*
X131997835Y-91143616D01*
X132169973Y-91258635D01*
X132316365Y-91405027D01*
X132431385Y-91577167D01*
X132510611Y-91768436D01*
X132551000Y-91971484D01*
X132551000Y-92178516D01*
X132510611Y-92381564D01*
X132431385Y-92572833D01*
X132431384Y-92572835D01*
X132316365Y-92744973D01*
X132169973Y-92891365D01*
X131997835Y-93006384D01*
X131997834Y-93006385D01*
X131997833Y-93006385D01*
X131806564Y-93085611D01*
X131603516Y-93126000D01*
X131396484Y-93126000D01*
X131193436Y-93085611D01*
X131002167Y-93006385D01*
X131002166Y-93006385D01*
X131002165Y-93006384D01*
X130830027Y-92891365D01*
X130683635Y-92744973D01*
X130568616Y-92572835D01*
X130568615Y-92572833D01*
X130489389Y-92381564D01*
X130449000Y-92178516D01*
X130449000Y-91971484D01*
X130489389Y-91768436D01*
X130568615Y-91577167D01*
X130683635Y-91405027D01*
X130830027Y-91258635D01*
X131002165Y-91143616D01*
X131002167Y-91143615D01*
X131193436Y-91064389D01*
X131396484Y-91024000D01*
X131603516Y-91024000D01*
X131806564Y-91064389D01*
X131806564Y-91064389D01*
G37*
G36*
X127306564Y-91064389D02*
G01*
X127497833Y-91143615D01*
X127497835Y-91143616D01*
X127669973Y-91258635D01*
X127816365Y-91405027D01*
X127931385Y-91577167D01*
X128010611Y-91768436D01*
X128051000Y-91971484D01*
X128051000Y-92178516D01*
X128010611Y-92381564D01*
X127931385Y-92572833D01*
X127931384Y-92572835D01*
X127816365Y-92744973D01*
X127669973Y-92891365D01*
X127497835Y-93006384D01*
X127497834Y-93006385D01*
X127497833Y-93006385D01*
X127306564Y-93085611D01*
X127103516Y-93126000D01*
X126896484Y-93126000D01*
X126693436Y-93085611D01*
X126502167Y-93006385D01*
X126502166Y-93006385D01*
X126502165Y-93006384D01*
X126330027Y-92891365D01*
X126183635Y-92744973D01*
X126068616Y-92572835D01*
X126068615Y-92572833D01*
X125989389Y-92381564D01*
X125949000Y-92178516D01*
X125949000Y-91971484D01*
X125989389Y-91768436D01*
X126068615Y-91577167D01*
X126183635Y-91405027D01*
X126330027Y-91258635D01*
X126502165Y-91143616D01*
X126502167Y-91143615D01*
X126693436Y-91064389D01*
X126896484Y-91024000D01*
X127103516Y-91024000D01*
X127306564Y-91064389D01*
X127306564Y-91064389D01*
G37*
G36*
X127306564Y-84564389D02*
G01*
X127497833Y-84643615D01*
X127497835Y-84643616D01*
X127669973Y-84758635D01*
X127816365Y-84905027D01*
X127931385Y-85077167D01*
X128010611Y-85268436D01*
X128051000Y-85471484D01*
X128051000Y-85678516D01*
X128010611Y-85881564D01*
X127931385Y-86072833D01*
X127931384Y-86072835D01*
X127816365Y-86244973D01*
X127669973Y-86391365D01*
X127497835Y-86506384D01*
X127497834Y-86506385D01*
X127497833Y-86506385D01*
X127306564Y-86585611D01*
X127103516Y-86626000D01*
X126896484Y-86626000D01*
X126693436Y-86585611D01*
X126502167Y-86506385D01*
X126502166Y-86506385D01*
X126502165Y-86506384D01*
X126330027Y-86391365D01*
X126183635Y-86244973D01*
X126068616Y-86072835D01*
X126068615Y-86072833D01*
X125989389Y-85881564D01*
X125949000Y-85678516D01*
X125949000Y-85471484D01*
X125989389Y-85268436D01*
X126068615Y-85077167D01*
X126183635Y-84905027D01*
X126330027Y-84758635D01*
X126502165Y-84643616D01*
X126502167Y-84643615D01*
X126693436Y-84564389D01*
X126896484Y-84524000D01*
X127103516Y-84524000D01*
X127306564Y-84564389D01*
X127306564Y-84564389D01*
G37*
G36*
X131806564Y-84564389D02*
G01*
X131997833Y-84643615D01*
X131997835Y-84643616D01*
X132169973Y-84758635D01*
X132316365Y-84905027D01*
X132431385Y-85077167D01*
X132510611Y-85268436D01*
X132551000Y-85471484D01*
X132551000Y-85678516D01*
X132510611Y-85881564D01*
X132431385Y-86072833D01*
X132431384Y-86072835D01*
X132316365Y-86244973D01*
X132169973Y-86391365D01*
X131997835Y-86506384D01*
X131997834Y-86506385D01*
X131997833Y-86506385D01*
X131806564Y-86585611D01*
X131603516Y-86626000D01*
X131396484Y-86626000D01*
X131193436Y-86585611D01*
X131002167Y-86506385D01*
X131002166Y-86506385D01*
X131002165Y-86506384D01*
X130830027Y-86391365D01*
X130683635Y-86244973D01*
X130568616Y-86072835D01*
X130568615Y-86072833D01*
X130489389Y-85881564D01*
X130449000Y-85678516D01*
X130449000Y-85471484D01*
X130489389Y-85268436D01*
X130568615Y-85077167D01*
X130683635Y-84905027D01*
X130830027Y-84758635D01*
X131002165Y-84643616D01*
X131002167Y-84643615D01*
X131193436Y-84564389D01*
X131396484Y-84524000D01*
X131603516Y-84524000D01*
X131806564Y-84564389D01*
X131806564Y-84564389D01*
G37*
G36*
X115320256Y-52376298D02*
G01*
X115426579Y-52397447D01*
X115727042Y-52521903D01*
X115997451Y-52702585D01*
X116227415Y-52932549D01*
X116408097Y-53202958D01*
X116532553Y-53503421D01*
X116596000Y-53822391D01*
X116596000Y-54147609D01*
X116532553Y-54466579D01*
X116408097Y-54767042D01*
X116227415Y-55037451D01*
X115997451Y-55267415D01*
X115727042Y-55448097D01*
X115426579Y-55572553D01*
X115320256Y-55593702D01*
X115107611Y-55636000D01*
X114782389Y-55636000D01*
X114569744Y-55593702D01*
X114463421Y-55572553D01*
X114162958Y-55448097D01*
X113892549Y-55267415D01*
X113662585Y-55037451D01*
X113481903Y-54767042D01*
X113357447Y-54466579D01*
X113294000Y-54147609D01*
X113294000Y-53822391D01*
X113357447Y-53503421D01*
X113481903Y-53202958D01*
X113662585Y-52932549D01*
X113892549Y-52702585D01*
X114162958Y-52521903D01*
X114463421Y-52397447D01*
X114569744Y-52376298D01*
X114782389Y-52334000D01*
X115107611Y-52334000D01*
X115320256Y-52376298D01*
X115320256Y-52376298D01*
G37*
G36*
X195320256Y-52376298D02*
G01*
X195426579Y-52397447D01*
X195727042Y-52521903D01*
X195997451Y-52702585D01*
X196227415Y-52932549D01*
X196408097Y-53202958D01*
X196532553Y-53503421D01*
X196596000Y-53822391D01*
X196596000Y-54147609D01*
X196532553Y-54466579D01*
X196408097Y-54767042D01*
X196227415Y-55037451D01*
X195997451Y-55267415D01*
X195727042Y-55448097D01*
X195426579Y-55572553D01*
X195320256Y-55593702D01*
X195107611Y-55636000D01*
X194782389Y-55636000D01*
X194569744Y-55593702D01*
X194463421Y-55572553D01*
X194162958Y-55448097D01*
X193892549Y-55267415D01*
X193662585Y-55037451D01*
X193481903Y-54767042D01*
X193357447Y-54466579D01*
X193294000Y-54147609D01*
X193294000Y-53822391D01*
X193357447Y-53503421D01*
X193481903Y-53202958D01*
X193662585Y-52932549D01*
X193892549Y-52702585D01*
X194162958Y-52521903D01*
X194463421Y-52397447D01*
X194569744Y-52376298D01*
X194782389Y-52334000D01*
X195107611Y-52334000D01*
X195320256Y-52376298D01*
X195320256Y-52376298D01*
G37*
M02*
