M48
INCH,TZ
T1C0.0157
T2C0.0394
T3C0.0433
T4C0.0551
%
G90
G05
T1
X41397Y-36020
X41397Y-37051
X41397Y-39321
X41397Y-40821
X42060Y-30646
X42255Y-36500
X42460Y-35096
X42855Y-36600
X43523Y-37860
X43523Y-40860
X43755Y-42850
X43855Y-27350
X43960Y-29460
X43960Y-32646
X44105Y-36150
X44705Y-32700
X44713Y-28400
X44955Y-35200
X44955Y-42850
X45026Y-39620
X45409Y-29417
X45440Y-25297
X45455Y-30550
X45461Y-27423
X45584Y-28480
X45586Y-31475
X45834Y-39620
X45940Y-27423
X46105Y-42800
X46471Y-31543
X46674Y-26360
X46725Y-30520
X46756Y-28480
X46855Y-39950
X46955Y-29450
X47042Y-30950
X47105Y-30000
X47305Y-41050
X47305Y-42800
X47506Y-39519
X47655Y-26631
X48155Y-24650
X48155Y-30100
X48284Y-40071
X48528Y-29976
X48850Y-35540
X48855Y-36500
X48899Y-31660
X48940Y-28403
X48955Y-26250
X49144Y-29340
X49155Y-27320
X49521Y-37762
X49855Y-39849
X50030Y-33580
X50114Y-27320
X50296Y-25340
X50935Y-30080
X50960Y-33497
X51055Y-40450
X51074Y-38960
X51144Y-32560
X51205Y-26250
X51364Y-29340
X51415Y-27320
X51560Y-40558
X51669Y-28403
X51755Y-41100
X51955Y-37650
X52305Y-27850
X52316Y-26161
X52334Y-27320
X52460Y-33497
X52460Y-35623
X52532Y-30373
X52700Y-26277
X52805Y-24200
X53060Y-40558
X53280Y-29325
X53280Y-30475
X53555Y-38700
X53605Y-25250
X53664Y-36615
X54555Y-25250
X54735Y-38555
X54950Y-27705
X54955Y-27150
X55095Y-31660
X55505Y-25250
X55560Y-27729
X55568Y-26913
X55575Y-33208
X55575Y-34015
X55605Y-36550
X55705Y-31050
X55755Y-28975
X56054Y-28388
X56092Y-31638
X56230Y-27300
X56390Y-33450
X56455Y-25250
X56779Y-37640
X57138Y-40519
X57455Y-25250
X57655Y-37250
X58196Y-30785
X58751Y-28496
X59715Y-29600
X59971Y-30300
X61939Y-30300
T2
X54455Y-43700
X46255Y-23800
X58630Y-43800
X58895Y-24400
X50155Y-23800
T3
X49450Y-41741
X49450Y-44300
X51222Y-41741
X51222Y-44300
T4
X59767Y-32284
X59767Y-33938
X59767Y-35591
X59767Y-37245
X61421Y-32284
X61421Y-33938
X61421Y-35591
X61421Y-37245
X59726Y-39700
X59726Y-41354
X61379Y-39700
X61379Y-41354
X59490Y-26850
X61655Y-26850
T0
M30
