G04 #@! TF.GenerationSoftware,KiCad,Pcbnew,(5.1.6)-1*
G04 #@! TF.CreationDate,2020-10-21T13:59:54+11:00*
G04 #@! TF.ProjectId,DashDriver-V1,44617368-4472-4697-9665-722d56312e6b,rev?*
G04 #@! TF.SameCoordinates,Original*
G04 #@! TF.FileFunction,Soldermask,Top*
G04 #@! TF.FilePolarity,Negative*
%FSLAX46Y46*%
G04 Gerber Fmt 4.6, Leading zero omitted, Abs format (unit mm)*
G04 Created by KiCad (PCBNEW (5.1.6)-1) date 2020-10-21 13:59:54*
%MOMM*%
%LPD*%
G01*
G04 APERTURE LIST*
%ADD10C,0.100000*%
G04 APERTURE END LIST*
D10*
G36*
X154783256Y-89031298D02*
G01*
X154889579Y-89052447D01*
X155190042Y-89176903D01*
X155460451Y-89357585D01*
X155690415Y-89587549D01*
X155855095Y-89834010D01*
X155871098Y-89857960D01*
X155876337Y-89870608D01*
X155958861Y-90069838D01*
X155995553Y-90158422D01*
X156059000Y-90477389D01*
X156059000Y-90802611D01*
X156016702Y-91015256D01*
X155995553Y-91121579D01*
X155871097Y-91422042D01*
X155690415Y-91692451D01*
X155460451Y-91922415D01*
X155190042Y-92103097D01*
X154889579Y-92227553D01*
X154783256Y-92248702D01*
X154570611Y-92291000D01*
X154245389Y-92291000D01*
X154032744Y-92248702D01*
X153926421Y-92227553D01*
X153625958Y-92103097D01*
X153355549Y-91922415D01*
X153125585Y-91692451D01*
X152944903Y-91422042D01*
X152820447Y-91121579D01*
X152799298Y-91015256D01*
X152757000Y-90802611D01*
X152757000Y-90477389D01*
X152820447Y-90158422D01*
X152857140Y-90069838D01*
X152939663Y-89870608D01*
X152944902Y-89857960D01*
X152960905Y-89834010D01*
X153125585Y-89587549D01*
X153355549Y-89357585D01*
X153625958Y-89176903D01*
X153926421Y-89052447D01*
X154032744Y-89031298D01*
X154245389Y-88989000D01*
X154570611Y-88989000D01*
X154783256Y-89031298D01*
G37*
G36*
X89783256Y-89031298D02*
G01*
X89889579Y-89052447D01*
X90190042Y-89176903D01*
X90460451Y-89357585D01*
X90690415Y-89587549D01*
X90855095Y-89834010D01*
X90871098Y-89857960D01*
X90876337Y-89870608D01*
X90958861Y-90069838D01*
X90995553Y-90158422D01*
X91059000Y-90477389D01*
X91059000Y-90802611D01*
X91016702Y-91015256D01*
X90995553Y-91121579D01*
X90871097Y-91422042D01*
X90690415Y-91692451D01*
X90460451Y-91922415D01*
X90190042Y-92103097D01*
X89889579Y-92227553D01*
X89783256Y-92248702D01*
X89570611Y-92291000D01*
X89245389Y-92291000D01*
X89032744Y-92248702D01*
X88926421Y-92227553D01*
X88625958Y-92103097D01*
X88355549Y-91922415D01*
X88125585Y-91692451D01*
X87944903Y-91422042D01*
X87820447Y-91121579D01*
X87799298Y-91015256D01*
X87757000Y-90802611D01*
X87757000Y-90477389D01*
X87820447Y-90158422D01*
X87857140Y-90069838D01*
X87939663Y-89870608D01*
X87944902Y-89857960D01*
X87960905Y-89834010D01*
X88125585Y-89587549D01*
X88355549Y-89357585D01*
X88625958Y-89176903D01*
X88926421Y-89052447D01*
X89032744Y-89031298D01*
X89245389Y-88989000D01*
X89570611Y-88989000D01*
X89783256Y-89031298D01*
G37*
G36*
X94950721Y-89770174D02*
G01*
X95050995Y-89811709D01*
X95050996Y-89811710D01*
X95141242Y-89872010D01*
X95217990Y-89948758D01*
X95217991Y-89948760D01*
X95278291Y-90039005D01*
X95319826Y-90139279D01*
X95341000Y-90245730D01*
X95341000Y-90354270D01*
X95319826Y-90460721D01*
X95278291Y-90560995D01*
X95278290Y-90560996D01*
X95217990Y-90651242D01*
X95141242Y-90727990D01*
X95107867Y-90750290D01*
X95050995Y-90788291D01*
X94950721Y-90829826D01*
X94844270Y-90851000D01*
X94735730Y-90851000D01*
X94629279Y-90829826D01*
X94529005Y-90788291D01*
X94472133Y-90750290D01*
X94438758Y-90727990D01*
X94362010Y-90651242D01*
X94301710Y-90560996D01*
X94301709Y-90560995D01*
X94260174Y-90460721D01*
X94239000Y-90354270D01*
X94239000Y-90245730D01*
X94260174Y-90139279D01*
X94301709Y-90039005D01*
X94362009Y-89948760D01*
X94362010Y-89948758D01*
X94438758Y-89872010D01*
X94529004Y-89811710D01*
X94529005Y-89811709D01*
X94629279Y-89770174D01*
X94735730Y-89749000D01*
X94844270Y-89749000D01*
X94950721Y-89770174D01*
G37*
G36*
X103950721Y-89770174D02*
G01*
X104050995Y-89811709D01*
X104050996Y-89811710D01*
X104141242Y-89872010D01*
X104217990Y-89948758D01*
X104217991Y-89948760D01*
X104278291Y-90039005D01*
X104319826Y-90139279D01*
X104341000Y-90245730D01*
X104341000Y-90354270D01*
X104319826Y-90460721D01*
X104278291Y-90560995D01*
X104278290Y-90560996D01*
X104217990Y-90651242D01*
X104141242Y-90727990D01*
X104107867Y-90750290D01*
X104050995Y-90788291D01*
X103950721Y-90829826D01*
X103844270Y-90851000D01*
X103735730Y-90851000D01*
X103629279Y-90829826D01*
X103529005Y-90788291D01*
X103472133Y-90750290D01*
X103438758Y-90727990D01*
X103362010Y-90651242D01*
X103301710Y-90560996D01*
X103301709Y-90560995D01*
X103260174Y-90460721D01*
X103239000Y-90354270D01*
X103239000Y-90245730D01*
X103260174Y-90139279D01*
X103301709Y-90039005D01*
X103362009Y-89948760D01*
X103362010Y-89948758D01*
X103438758Y-89872010D01*
X103529004Y-89811710D01*
X103529005Y-89811709D01*
X103629279Y-89770174D01*
X103735730Y-89749000D01*
X103844270Y-89749000D01*
X103950721Y-89770174D01*
G37*
G36*
X128650721Y-89770174D02*
G01*
X128750995Y-89811709D01*
X128750996Y-89811710D01*
X128841242Y-89872010D01*
X128917990Y-89948758D01*
X128917991Y-89948760D01*
X128978291Y-90039005D01*
X129019826Y-90139279D01*
X129041000Y-90245730D01*
X129041000Y-90354270D01*
X129019826Y-90460721D01*
X128978291Y-90560995D01*
X128978290Y-90560996D01*
X128917990Y-90651242D01*
X128841242Y-90727990D01*
X128807867Y-90750290D01*
X128750995Y-90788291D01*
X128650721Y-90829826D01*
X128544270Y-90851000D01*
X128435730Y-90851000D01*
X128329279Y-90829826D01*
X128229005Y-90788291D01*
X128172133Y-90750290D01*
X128138758Y-90727990D01*
X128062010Y-90651242D01*
X128001710Y-90560996D01*
X128001709Y-90560995D01*
X127960174Y-90460721D01*
X127939000Y-90354270D01*
X127939000Y-90245730D01*
X127960174Y-90139279D01*
X128001709Y-90039005D01*
X128062009Y-89948760D01*
X128062010Y-89948758D01*
X128138758Y-89872010D01*
X128229004Y-89811710D01*
X128229005Y-89811709D01*
X128329279Y-89770174D01*
X128435730Y-89749000D01*
X128544270Y-89749000D01*
X128650721Y-89770174D01*
G37*
G36*
X107650721Y-89770174D02*
G01*
X107750995Y-89811709D01*
X107750996Y-89811710D01*
X107841242Y-89872010D01*
X107917990Y-89948758D01*
X107917991Y-89948760D01*
X107978291Y-90039005D01*
X108019826Y-90139279D01*
X108041000Y-90245730D01*
X108041000Y-90354270D01*
X108019826Y-90460721D01*
X107978291Y-90560995D01*
X107978290Y-90560996D01*
X107917990Y-90651242D01*
X107841242Y-90727990D01*
X107807867Y-90750290D01*
X107750995Y-90788291D01*
X107650721Y-90829826D01*
X107544270Y-90851000D01*
X107435730Y-90851000D01*
X107329279Y-90829826D01*
X107229005Y-90788291D01*
X107172133Y-90750290D01*
X107138758Y-90727990D01*
X107062010Y-90651242D01*
X107001710Y-90560996D01*
X107001709Y-90560995D01*
X106960174Y-90460721D01*
X106939000Y-90354270D01*
X106939000Y-90245730D01*
X106960174Y-90139279D01*
X107001709Y-90039005D01*
X107062009Y-89948760D01*
X107062010Y-89948758D01*
X107138758Y-89872010D01*
X107229004Y-89811710D01*
X107229005Y-89811709D01*
X107329279Y-89770174D01*
X107435730Y-89749000D01*
X107544270Y-89749000D01*
X107650721Y-89770174D01*
G37*
G36*
X143423721Y-89732174D02*
G01*
X143523995Y-89773709D01*
X143523996Y-89773710D01*
X143614242Y-89834010D01*
X143690990Y-89910758D01*
X143690991Y-89910760D01*
X143751291Y-90001005D01*
X143792826Y-90101279D01*
X143814000Y-90207730D01*
X143814000Y-90316270D01*
X143792826Y-90422721D01*
X143751291Y-90522995D01*
X143751290Y-90522996D01*
X143690990Y-90613242D01*
X143614242Y-90689990D01*
X143568812Y-90720345D01*
X143523995Y-90750291D01*
X143423721Y-90791826D01*
X143317270Y-90813000D01*
X143208730Y-90813000D01*
X143102279Y-90791826D01*
X143002005Y-90750291D01*
X142957188Y-90720345D01*
X142911758Y-90689990D01*
X142835010Y-90613242D01*
X142774710Y-90522996D01*
X142774709Y-90522995D01*
X142733174Y-90422721D01*
X142712000Y-90316270D01*
X142712000Y-90207730D01*
X142733174Y-90101279D01*
X142774709Y-90001005D01*
X142835009Y-89910760D01*
X142835010Y-89910758D01*
X142911758Y-89834010D01*
X143002004Y-89773710D01*
X143002005Y-89773709D01*
X143102279Y-89732174D01*
X143208730Y-89711000D01*
X143317270Y-89711000D01*
X143423721Y-89732174D01*
G37*
G36*
X134423721Y-89732174D02*
G01*
X134523995Y-89773709D01*
X134523996Y-89773710D01*
X134614242Y-89834010D01*
X134690990Y-89910758D01*
X134690991Y-89910760D01*
X134751291Y-90001005D01*
X134792826Y-90101279D01*
X134814000Y-90207730D01*
X134814000Y-90316270D01*
X134792826Y-90422721D01*
X134751291Y-90522995D01*
X134751290Y-90522996D01*
X134690990Y-90613242D01*
X134614242Y-90689990D01*
X134568812Y-90720345D01*
X134523995Y-90750291D01*
X134423721Y-90791826D01*
X134317270Y-90813000D01*
X134208730Y-90813000D01*
X134102279Y-90791826D01*
X134002005Y-90750291D01*
X133957188Y-90720345D01*
X133911758Y-90689990D01*
X133835010Y-90613242D01*
X133774710Y-90522996D01*
X133774709Y-90522995D01*
X133733174Y-90422721D01*
X133712000Y-90316270D01*
X133712000Y-90207730D01*
X133733174Y-90101279D01*
X133774709Y-90001005D01*
X133835009Y-89910760D01*
X133835010Y-89910758D01*
X133911758Y-89834010D01*
X134002004Y-89773710D01*
X134002005Y-89773709D01*
X134102279Y-89732174D01*
X134208730Y-89711000D01*
X134317270Y-89711000D01*
X134423721Y-89732174D01*
G37*
G36*
X122723642Y-88589781D02*
G01*
X122869414Y-88650162D01*
X122869416Y-88650163D01*
X123000608Y-88737822D01*
X123112178Y-88849392D01*
X123199837Y-88980584D01*
X123199838Y-88980586D01*
X123260219Y-89126358D01*
X123291000Y-89281107D01*
X123291000Y-89438893D01*
X123260219Y-89593642D01*
X123199838Y-89739414D01*
X123199837Y-89739416D01*
X123112178Y-89870608D01*
X123000608Y-89982178D01*
X122869416Y-90069837D01*
X122869415Y-90069838D01*
X122869414Y-90069838D01*
X122723642Y-90130219D01*
X122568893Y-90161000D01*
X122411107Y-90161000D01*
X122256358Y-90130219D01*
X122110586Y-90069838D01*
X122110585Y-90069838D01*
X122110584Y-90069837D01*
X121979392Y-89982178D01*
X121867822Y-89870608D01*
X121780163Y-89739416D01*
X121780162Y-89739414D01*
X121719781Y-89593642D01*
X121689000Y-89438893D01*
X121689000Y-89281107D01*
X121719781Y-89126358D01*
X121780162Y-88980586D01*
X121780163Y-88980584D01*
X121867822Y-88849392D01*
X121979392Y-88737822D01*
X122110584Y-88650163D01*
X122110586Y-88650162D01*
X122256358Y-88589781D01*
X122411107Y-88559000D01*
X122568893Y-88559000D01*
X122723642Y-88589781D01*
G37*
G36*
X101023642Y-88589781D02*
G01*
X101169414Y-88650162D01*
X101169416Y-88650163D01*
X101300608Y-88737822D01*
X101412178Y-88849392D01*
X101499837Y-88980584D01*
X101499838Y-88980586D01*
X101560219Y-89126358D01*
X101591000Y-89281107D01*
X101591000Y-89438893D01*
X101560219Y-89593642D01*
X101499838Y-89739414D01*
X101499837Y-89739416D01*
X101412178Y-89870608D01*
X101300608Y-89982178D01*
X101169416Y-90069837D01*
X101169415Y-90069838D01*
X101169414Y-90069838D01*
X101023642Y-90130219D01*
X100868893Y-90161000D01*
X100711107Y-90161000D01*
X100556358Y-90130219D01*
X100410586Y-90069838D01*
X100410585Y-90069838D01*
X100410584Y-90069837D01*
X100279392Y-89982178D01*
X100167822Y-89870608D01*
X100080163Y-89739416D01*
X100080162Y-89739414D01*
X100019781Y-89593642D01*
X99989000Y-89438893D01*
X99989000Y-89281107D01*
X100019781Y-89126358D01*
X100080162Y-88980586D01*
X100080163Y-88980584D01*
X100167822Y-88849392D01*
X100279392Y-88737822D01*
X100410584Y-88650163D01*
X100410586Y-88650162D01*
X100556358Y-88589781D01*
X100711107Y-88559000D01*
X100868893Y-88559000D01*
X101023642Y-88589781D01*
G37*
G36*
X98023642Y-88589781D02*
G01*
X98169414Y-88650162D01*
X98169416Y-88650163D01*
X98300608Y-88737822D01*
X98412178Y-88849392D01*
X98499837Y-88980584D01*
X98499838Y-88980586D01*
X98560219Y-89126358D01*
X98591000Y-89281107D01*
X98591000Y-89438893D01*
X98560219Y-89593642D01*
X98499838Y-89739414D01*
X98499837Y-89739416D01*
X98412178Y-89870608D01*
X98300608Y-89982178D01*
X98169416Y-90069837D01*
X98169415Y-90069838D01*
X98169414Y-90069838D01*
X98023642Y-90130219D01*
X97868893Y-90161000D01*
X97711107Y-90161000D01*
X97556358Y-90130219D01*
X97410586Y-90069838D01*
X97410585Y-90069838D01*
X97410584Y-90069837D01*
X97279392Y-89982178D01*
X97167822Y-89870608D01*
X97080163Y-89739416D01*
X97080162Y-89739414D01*
X97019781Y-89593642D01*
X96989000Y-89438893D01*
X96989000Y-89281107D01*
X97019781Y-89126358D01*
X97080162Y-88980586D01*
X97080163Y-88980584D01*
X97167822Y-88849392D01*
X97279392Y-88737822D01*
X97410584Y-88650163D01*
X97410586Y-88650162D01*
X97556358Y-88589781D01*
X97711107Y-88559000D01*
X97868893Y-88559000D01*
X98023642Y-88589781D01*
G37*
G36*
X110723642Y-88589781D02*
G01*
X110869414Y-88650162D01*
X110869416Y-88650163D01*
X111000608Y-88737822D01*
X111112178Y-88849392D01*
X111199837Y-88980584D01*
X111199838Y-88980586D01*
X111260219Y-89126358D01*
X111291000Y-89281107D01*
X111291000Y-89438893D01*
X111260219Y-89593642D01*
X111199838Y-89739414D01*
X111199837Y-89739416D01*
X111112178Y-89870608D01*
X111000608Y-89982178D01*
X110869416Y-90069837D01*
X110869415Y-90069838D01*
X110869414Y-90069838D01*
X110723642Y-90130219D01*
X110568893Y-90161000D01*
X110411107Y-90161000D01*
X110256358Y-90130219D01*
X110110586Y-90069838D01*
X110110585Y-90069838D01*
X110110584Y-90069837D01*
X109979392Y-89982178D01*
X109867822Y-89870608D01*
X109780163Y-89739416D01*
X109780162Y-89739414D01*
X109719781Y-89593642D01*
X109689000Y-89438893D01*
X109689000Y-89281107D01*
X109719781Y-89126358D01*
X109780162Y-88980586D01*
X109780163Y-88980584D01*
X109867822Y-88849392D01*
X109979392Y-88737822D01*
X110110584Y-88650163D01*
X110110586Y-88650162D01*
X110256358Y-88589781D01*
X110411107Y-88559000D01*
X110568893Y-88559000D01*
X110723642Y-88589781D01*
G37*
G36*
X125723642Y-88589781D02*
G01*
X125869414Y-88650162D01*
X125869416Y-88650163D01*
X126000608Y-88737822D01*
X126112178Y-88849392D01*
X126199837Y-88980584D01*
X126199838Y-88980586D01*
X126260219Y-89126358D01*
X126291000Y-89281107D01*
X126291000Y-89438893D01*
X126260219Y-89593642D01*
X126199838Y-89739414D01*
X126199837Y-89739416D01*
X126112178Y-89870608D01*
X126000608Y-89982178D01*
X125869416Y-90069837D01*
X125869415Y-90069838D01*
X125869414Y-90069838D01*
X125723642Y-90130219D01*
X125568893Y-90161000D01*
X125411107Y-90161000D01*
X125256358Y-90130219D01*
X125110586Y-90069838D01*
X125110585Y-90069838D01*
X125110584Y-90069837D01*
X124979392Y-89982178D01*
X124867822Y-89870608D01*
X124780163Y-89739416D01*
X124780162Y-89739414D01*
X124719781Y-89593642D01*
X124689000Y-89438893D01*
X124689000Y-89281107D01*
X124719781Y-89126358D01*
X124780162Y-88980586D01*
X124780163Y-88980584D01*
X124867822Y-88849392D01*
X124979392Y-88737822D01*
X125110584Y-88650163D01*
X125110586Y-88650162D01*
X125256358Y-88589781D01*
X125411107Y-88559000D01*
X125568893Y-88559000D01*
X125723642Y-88589781D01*
G37*
G36*
X119723642Y-88589781D02*
G01*
X119869414Y-88650162D01*
X119869416Y-88650163D01*
X120000608Y-88737822D01*
X120112178Y-88849392D01*
X120199837Y-88980584D01*
X120199838Y-88980586D01*
X120260219Y-89126358D01*
X120291000Y-89281107D01*
X120291000Y-89438893D01*
X120260219Y-89593642D01*
X120199838Y-89739414D01*
X120199837Y-89739416D01*
X120112178Y-89870608D01*
X120000608Y-89982178D01*
X119869416Y-90069837D01*
X119869415Y-90069838D01*
X119869414Y-90069838D01*
X119723642Y-90130219D01*
X119568893Y-90161000D01*
X119411107Y-90161000D01*
X119256358Y-90130219D01*
X119110586Y-90069838D01*
X119110585Y-90069838D01*
X119110584Y-90069837D01*
X118979392Y-89982178D01*
X118867822Y-89870608D01*
X118780163Y-89739416D01*
X118780162Y-89739414D01*
X118719781Y-89593642D01*
X118689000Y-89438893D01*
X118689000Y-89281107D01*
X118719781Y-89126358D01*
X118780162Y-88980586D01*
X118780163Y-88980584D01*
X118867822Y-88849392D01*
X118979392Y-88737822D01*
X119110584Y-88650163D01*
X119110586Y-88650162D01*
X119256358Y-88589781D01*
X119411107Y-88559000D01*
X119568893Y-88559000D01*
X119723642Y-88589781D01*
G37*
G36*
X116723642Y-88589781D02*
G01*
X116869414Y-88650162D01*
X116869416Y-88650163D01*
X117000608Y-88737822D01*
X117112178Y-88849392D01*
X117199837Y-88980584D01*
X117199838Y-88980586D01*
X117260219Y-89126358D01*
X117291000Y-89281107D01*
X117291000Y-89438893D01*
X117260219Y-89593642D01*
X117199838Y-89739414D01*
X117199837Y-89739416D01*
X117112178Y-89870608D01*
X117000608Y-89982178D01*
X116869416Y-90069837D01*
X116869415Y-90069838D01*
X116869414Y-90069838D01*
X116723642Y-90130219D01*
X116568893Y-90161000D01*
X116411107Y-90161000D01*
X116256358Y-90130219D01*
X116110586Y-90069838D01*
X116110585Y-90069838D01*
X116110584Y-90069837D01*
X115979392Y-89982178D01*
X115867822Y-89870608D01*
X115780163Y-89739416D01*
X115780162Y-89739414D01*
X115719781Y-89593642D01*
X115689000Y-89438893D01*
X115689000Y-89281107D01*
X115719781Y-89126358D01*
X115780162Y-88980586D01*
X115780163Y-88980584D01*
X115867822Y-88849392D01*
X115979392Y-88737822D01*
X116110584Y-88650163D01*
X116110586Y-88650162D01*
X116256358Y-88589781D01*
X116411107Y-88559000D01*
X116568893Y-88559000D01*
X116723642Y-88589781D01*
G37*
G36*
X113723642Y-88589781D02*
G01*
X113869414Y-88650162D01*
X113869416Y-88650163D01*
X114000608Y-88737822D01*
X114112178Y-88849392D01*
X114199837Y-88980584D01*
X114199838Y-88980586D01*
X114260219Y-89126358D01*
X114291000Y-89281107D01*
X114291000Y-89438893D01*
X114260219Y-89593642D01*
X114199838Y-89739414D01*
X114199837Y-89739416D01*
X114112178Y-89870608D01*
X114000608Y-89982178D01*
X113869416Y-90069837D01*
X113869415Y-90069838D01*
X113869414Y-90069838D01*
X113723642Y-90130219D01*
X113568893Y-90161000D01*
X113411107Y-90161000D01*
X113256358Y-90130219D01*
X113110586Y-90069838D01*
X113110585Y-90069838D01*
X113110584Y-90069837D01*
X112979392Y-89982178D01*
X112867822Y-89870608D01*
X112780163Y-89739416D01*
X112780162Y-89739414D01*
X112719781Y-89593642D01*
X112689000Y-89438893D01*
X112689000Y-89281107D01*
X112719781Y-89126358D01*
X112780162Y-88980586D01*
X112780163Y-88980584D01*
X112867822Y-88849392D01*
X112979392Y-88737822D01*
X113110584Y-88650163D01*
X113110586Y-88650162D01*
X113256358Y-88589781D01*
X113411107Y-88559000D01*
X113568893Y-88559000D01*
X113723642Y-88589781D01*
G37*
G36*
X140496642Y-88551781D02*
G01*
X140642414Y-88612162D01*
X140642416Y-88612163D01*
X140773608Y-88699822D01*
X140885178Y-88811392D01*
X140910569Y-88849393D01*
X140972838Y-88942586D01*
X141033219Y-89088358D01*
X141064000Y-89243107D01*
X141064000Y-89400893D01*
X141033219Y-89555642D01*
X141017478Y-89593643D01*
X140972837Y-89701416D01*
X140885178Y-89832608D01*
X140773608Y-89944178D01*
X140642416Y-90031837D01*
X140642415Y-90031838D01*
X140642414Y-90031838D01*
X140496642Y-90092219D01*
X140341893Y-90123000D01*
X140184107Y-90123000D01*
X140029358Y-90092219D01*
X139883586Y-90031838D01*
X139883585Y-90031838D01*
X139883584Y-90031837D01*
X139752392Y-89944178D01*
X139640822Y-89832608D01*
X139553163Y-89701416D01*
X139508522Y-89593643D01*
X139492781Y-89555642D01*
X139462000Y-89400893D01*
X139462000Y-89243107D01*
X139492781Y-89088358D01*
X139553162Y-88942586D01*
X139615431Y-88849393D01*
X139640822Y-88811392D01*
X139752392Y-88699822D01*
X139883584Y-88612163D01*
X139883586Y-88612162D01*
X140029358Y-88551781D01*
X140184107Y-88521000D01*
X140341893Y-88521000D01*
X140496642Y-88551781D01*
G37*
G36*
X137496642Y-88551781D02*
G01*
X137642414Y-88612162D01*
X137642416Y-88612163D01*
X137773608Y-88699822D01*
X137885178Y-88811392D01*
X137910569Y-88849393D01*
X137972838Y-88942586D01*
X138033219Y-89088358D01*
X138064000Y-89243107D01*
X138064000Y-89400893D01*
X138033219Y-89555642D01*
X138017478Y-89593643D01*
X137972837Y-89701416D01*
X137885178Y-89832608D01*
X137773608Y-89944178D01*
X137642416Y-90031837D01*
X137642415Y-90031838D01*
X137642414Y-90031838D01*
X137496642Y-90092219D01*
X137341893Y-90123000D01*
X137184107Y-90123000D01*
X137029358Y-90092219D01*
X136883586Y-90031838D01*
X136883585Y-90031838D01*
X136883584Y-90031837D01*
X136752392Y-89944178D01*
X136640822Y-89832608D01*
X136553163Y-89701416D01*
X136508522Y-89593643D01*
X136492781Y-89555642D01*
X136462000Y-89400893D01*
X136462000Y-89243107D01*
X136492781Y-89088358D01*
X136553162Y-88942586D01*
X136615431Y-88849393D01*
X136640822Y-88811392D01*
X136752392Y-88699822D01*
X136883584Y-88612163D01*
X136883586Y-88612162D01*
X137029358Y-88551781D01*
X137184107Y-88521000D01*
X137341893Y-88521000D01*
X137496642Y-88551781D01*
G37*
G36*
X98443048Y-85563122D02*
G01*
X98477387Y-85573539D01*
X98509036Y-85590456D01*
X98536778Y-85613222D01*
X98559544Y-85640964D01*
X98576461Y-85672613D01*
X98586878Y-85706952D01*
X98591000Y-85748807D01*
X98591000Y-86971193D01*
X98586878Y-87013048D01*
X98576461Y-87047387D01*
X98559544Y-87079036D01*
X98536778Y-87106778D01*
X98509036Y-87129544D01*
X98477387Y-87146461D01*
X98443048Y-87156878D01*
X98401193Y-87161000D01*
X97178807Y-87161000D01*
X97136952Y-87156878D01*
X97102613Y-87146461D01*
X97070964Y-87129544D01*
X97043222Y-87106778D01*
X97020456Y-87079036D01*
X97003539Y-87047387D01*
X96993122Y-87013048D01*
X96989000Y-86971193D01*
X96989000Y-85748807D01*
X96993122Y-85706952D01*
X97003539Y-85672613D01*
X97020456Y-85640964D01*
X97043222Y-85613222D01*
X97070964Y-85590456D01*
X97102613Y-85573539D01*
X97136952Y-85563122D01*
X97178807Y-85559000D01*
X98401193Y-85559000D01*
X98443048Y-85563122D01*
G37*
G36*
X101023642Y-85589781D02*
G01*
X101144067Y-85639663D01*
X101169416Y-85650163D01*
X101300608Y-85737822D01*
X101412178Y-85849392D01*
X101499837Y-85980584D01*
X101499838Y-85980586D01*
X101560219Y-86126358D01*
X101591000Y-86281107D01*
X101591000Y-86438893D01*
X101560219Y-86593642D01*
X101515578Y-86701414D01*
X101499837Y-86739416D01*
X101412178Y-86870608D01*
X101300608Y-86982178D01*
X101169416Y-87069837D01*
X101169415Y-87069838D01*
X101169414Y-87069838D01*
X101023642Y-87130219D01*
X100868893Y-87161000D01*
X100711107Y-87161000D01*
X100556358Y-87130219D01*
X100410586Y-87069838D01*
X100410585Y-87069838D01*
X100410584Y-87069837D01*
X100279392Y-86982178D01*
X100167822Y-86870608D01*
X100080163Y-86739416D01*
X100064422Y-86701414D01*
X100019781Y-86593642D01*
X99989000Y-86438893D01*
X99989000Y-86281107D01*
X100019781Y-86126358D01*
X100080162Y-85980586D01*
X100080163Y-85980584D01*
X100167822Y-85849392D01*
X100279392Y-85737822D01*
X100410584Y-85650163D01*
X100435933Y-85639663D01*
X100556358Y-85589781D01*
X100711107Y-85559000D01*
X100868893Y-85559000D01*
X101023642Y-85589781D01*
G37*
G36*
X111143048Y-85563122D02*
G01*
X111177387Y-85573539D01*
X111209036Y-85590456D01*
X111236778Y-85613222D01*
X111259544Y-85640964D01*
X111276461Y-85672613D01*
X111286878Y-85706952D01*
X111291000Y-85748807D01*
X111291000Y-86971193D01*
X111286878Y-87013048D01*
X111276461Y-87047387D01*
X111259544Y-87079036D01*
X111236778Y-87106778D01*
X111209036Y-87129544D01*
X111177387Y-87146461D01*
X111143048Y-87156878D01*
X111101193Y-87161000D01*
X109878807Y-87161000D01*
X109836952Y-87156878D01*
X109802613Y-87146461D01*
X109770964Y-87129544D01*
X109743222Y-87106778D01*
X109720456Y-87079036D01*
X109703539Y-87047387D01*
X109693122Y-87013048D01*
X109689000Y-86971193D01*
X109689000Y-85748807D01*
X109693122Y-85706952D01*
X109703539Y-85672613D01*
X109720456Y-85640964D01*
X109743222Y-85613222D01*
X109770964Y-85590456D01*
X109802613Y-85573539D01*
X109836952Y-85563122D01*
X109878807Y-85559000D01*
X111101193Y-85559000D01*
X111143048Y-85563122D01*
G37*
G36*
X113723642Y-85589781D02*
G01*
X113844067Y-85639663D01*
X113869416Y-85650163D01*
X114000608Y-85737822D01*
X114112178Y-85849392D01*
X114199837Y-85980584D01*
X114199838Y-85980586D01*
X114260219Y-86126358D01*
X114291000Y-86281107D01*
X114291000Y-86438893D01*
X114260219Y-86593642D01*
X114215578Y-86701414D01*
X114199837Y-86739416D01*
X114112178Y-86870608D01*
X114000608Y-86982178D01*
X113869416Y-87069837D01*
X113869415Y-87069838D01*
X113869414Y-87069838D01*
X113723642Y-87130219D01*
X113568893Y-87161000D01*
X113411107Y-87161000D01*
X113256358Y-87130219D01*
X113110586Y-87069838D01*
X113110585Y-87069838D01*
X113110584Y-87069837D01*
X112979392Y-86982178D01*
X112867822Y-86870608D01*
X112780163Y-86739416D01*
X112764422Y-86701414D01*
X112719781Y-86593642D01*
X112689000Y-86438893D01*
X112689000Y-86281107D01*
X112719781Y-86126358D01*
X112780162Y-85980586D01*
X112780163Y-85980584D01*
X112867822Y-85849392D01*
X112979392Y-85737822D01*
X113110584Y-85650163D01*
X113135933Y-85639663D01*
X113256358Y-85589781D01*
X113411107Y-85559000D01*
X113568893Y-85559000D01*
X113723642Y-85589781D01*
G37*
G36*
X119723642Y-85589781D02*
G01*
X119844067Y-85639663D01*
X119869416Y-85650163D01*
X120000608Y-85737822D01*
X120112178Y-85849392D01*
X120199837Y-85980584D01*
X120199838Y-85980586D01*
X120260219Y-86126358D01*
X120291000Y-86281107D01*
X120291000Y-86438893D01*
X120260219Y-86593642D01*
X120215578Y-86701414D01*
X120199837Y-86739416D01*
X120112178Y-86870608D01*
X120000608Y-86982178D01*
X119869416Y-87069837D01*
X119869415Y-87069838D01*
X119869414Y-87069838D01*
X119723642Y-87130219D01*
X119568893Y-87161000D01*
X119411107Y-87161000D01*
X119256358Y-87130219D01*
X119110586Y-87069838D01*
X119110585Y-87069838D01*
X119110584Y-87069837D01*
X118979392Y-86982178D01*
X118867822Y-86870608D01*
X118780163Y-86739416D01*
X118764422Y-86701414D01*
X118719781Y-86593642D01*
X118689000Y-86438893D01*
X118689000Y-86281107D01*
X118719781Y-86126358D01*
X118780162Y-85980586D01*
X118780163Y-85980584D01*
X118867822Y-85849392D01*
X118979392Y-85737822D01*
X119110584Y-85650163D01*
X119135933Y-85639663D01*
X119256358Y-85589781D01*
X119411107Y-85559000D01*
X119568893Y-85559000D01*
X119723642Y-85589781D01*
G37*
G36*
X122723642Y-85589781D02*
G01*
X122844067Y-85639663D01*
X122869416Y-85650163D01*
X123000608Y-85737822D01*
X123112178Y-85849392D01*
X123199837Y-85980584D01*
X123199838Y-85980586D01*
X123260219Y-86126358D01*
X123291000Y-86281107D01*
X123291000Y-86438893D01*
X123260219Y-86593642D01*
X123215578Y-86701414D01*
X123199837Y-86739416D01*
X123112178Y-86870608D01*
X123000608Y-86982178D01*
X122869416Y-87069837D01*
X122869415Y-87069838D01*
X122869414Y-87069838D01*
X122723642Y-87130219D01*
X122568893Y-87161000D01*
X122411107Y-87161000D01*
X122256358Y-87130219D01*
X122110586Y-87069838D01*
X122110585Y-87069838D01*
X122110584Y-87069837D01*
X121979392Y-86982178D01*
X121867822Y-86870608D01*
X121780163Y-86739416D01*
X121764422Y-86701414D01*
X121719781Y-86593642D01*
X121689000Y-86438893D01*
X121689000Y-86281107D01*
X121719781Y-86126358D01*
X121780162Y-85980586D01*
X121780163Y-85980584D01*
X121867822Y-85849392D01*
X121979392Y-85737822D01*
X122110584Y-85650163D01*
X122135933Y-85639663D01*
X122256358Y-85589781D01*
X122411107Y-85559000D01*
X122568893Y-85559000D01*
X122723642Y-85589781D01*
G37*
G36*
X125723642Y-85589781D02*
G01*
X125844067Y-85639663D01*
X125869416Y-85650163D01*
X126000608Y-85737822D01*
X126112178Y-85849392D01*
X126199837Y-85980584D01*
X126199838Y-85980586D01*
X126260219Y-86126358D01*
X126291000Y-86281107D01*
X126291000Y-86438893D01*
X126260219Y-86593642D01*
X126215578Y-86701414D01*
X126199837Y-86739416D01*
X126112178Y-86870608D01*
X126000608Y-86982178D01*
X125869416Y-87069837D01*
X125869415Y-87069838D01*
X125869414Y-87069838D01*
X125723642Y-87130219D01*
X125568893Y-87161000D01*
X125411107Y-87161000D01*
X125256358Y-87130219D01*
X125110586Y-87069838D01*
X125110585Y-87069838D01*
X125110584Y-87069837D01*
X124979392Y-86982178D01*
X124867822Y-86870608D01*
X124780163Y-86739416D01*
X124764422Y-86701414D01*
X124719781Y-86593642D01*
X124689000Y-86438893D01*
X124689000Y-86281107D01*
X124719781Y-86126358D01*
X124780162Y-85980586D01*
X124780163Y-85980584D01*
X124867822Y-85849392D01*
X124979392Y-85737822D01*
X125110584Y-85650163D01*
X125135933Y-85639663D01*
X125256358Y-85589781D01*
X125411107Y-85559000D01*
X125568893Y-85559000D01*
X125723642Y-85589781D01*
G37*
G36*
X116723642Y-85589781D02*
G01*
X116844067Y-85639663D01*
X116869416Y-85650163D01*
X117000608Y-85737822D01*
X117112178Y-85849392D01*
X117199837Y-85980584D01*
X117199838Y-85980586D01*
X117260219Y-86126358D01*
X117291000Y-86281107D01*
X117291000Y-86438893D01*
X117260219Y-86593642D01*
X117215578Y-86701414D01*
X117199837Y-86739416D01*
X117112178Y-86870608D01*
X117000608Y-86982178D01*
X116869416Y-87069837D01*
X116869415Y-87069838D01*
X116869414Y-87069838D01*
X116723642Y-87130219D01*
X116568893Y-87161000D01*
X116411107Y-87161000D01*
X116256358Y-87130219D01*
X116110586Y-87069838D01*
X116110585Y-87069838D01*
X116110584Y-87069837D01*
X115979392Y-86982178D01*
X115867822Y-86870608D01*
X115780163Y-86739416D01*
X115764422Y-86701414D01*
X115719781Y-86593642D01*
X115689000Y-86438893D01*
X115689000Y-86281107D01*
X115719781Y-86126358D01*
X115780162Y-85980586D01*
X115780163Y-85980584D01*
X115867822Y-85849392D01*
X115979392Y-85737822D01*
X116110584Y-85650163D01*
X116135933Y-85639663D01*
X116256358Y-85589781D01*
X116411107Y-85559000D01*
X116568893Y-85559000D01*
X116723642Y-85589781D01*
G37*
G36*
X140496642Y-85551781D02*
G01*
X140620208Y-85602964D01*
X140642416Y-85612163D01*
X140773608Y-85699822D01*
X140885178Y-85811392D01*
X140910569Y-85849393D01*
X140972838Y-85942586D01*
X141033219Y-86088358D01*
X141064000Y-86243107D01*
X141064000Y-86400893D01*
X141033219Y-86555642D01*
X141017478Y-86593643D01*
X140972837Y-86701416D01*
X140885178Y-86832608D01*
X140773608Y-86944178D01*
X140642416Y-87031837D01*
X140642415Y-87031838D01*
X140642414Y-87031838D01*
X140496642Y-87092219D01*
X140341893Y-87123000D01*
X140184107Y-87123000D01*
X140029358Y-87092219D01*
X139883586Y-87031838D01*
X139883585Y-87031838D01*
X139883584Y-87031837D01*
X139752392Y-86944178D01*
X139640822Y-86832608D01*
X139553163Y-86701416D01*
X139508522Y-86593643D01*
X139492781Y-86555642D01*
X139462000Y-86400893D01*
X139462000Y-86243107D01*
X139492781Y-86088358D01*
X139553162Y-85942586D01*
X139615431Y-85849393D01*
X139640822Y-85811392D01*
X139752392Y-85699822D01*
X139883584Y-85612163D01*
X139905792Y-85602964D01*
X140029358Y-85551781D01*
X140184107Y-85521000D01*
X140341893Y-85521000D01*
X140496642Y-85551781D01*
G37*
G36*
X137916048Y-85525122D02*
G01*
X137950387Y-85535539D01*
X137982036Y-85552456D01*
X138009778Y-85575222D01*
X138032544Y-85602964D01*
X138049461Y-85634613D01*
X138059878Y-85668952D01*
X138064000Y-85710807D01*
X138064000Y-86933193D01*
X138059878Y-86975048D01*
X138049461Y-87009387D01*
X138032544Y-87041036D01*
X138009778Y-87068778D01*
X137982036Y-87091544D01*
X137950387Y-87108461D01*
X137916048Y-87118878D01*
X137874193Y-87123000D01*
X136651807Y-87123000D01*
X136609952Y-87118878D01*
X136575613Y-87108461D01*
X136543964Y-87091544D01*
X136516222Y-87068778D01*
X136493456Y-87041036D01*
X136476539Y-87009387D01*
X136466122Y-86975048D01*
X136462000Y-86933193D01*
X136462000Y-85710807D01*
X136466122Y-85668952D01*
X136476539Y-85634613D01*
X136493456Y-85602964D01*
X136516222Y-85575222D01*
X136543964Y-85552456D01*
X136575613Y-85535539D01*
X136609952Y-85525122D01*
X136651807Y-85521000D01*
X137874193Y-85521000D01*
X137916048Y-85525122D01*
G37*
G36*
X92294000Y-86822000D02*
G01*
X91554000Y-86822000D01*
X91554000Y-85382000D01*
X92294000Y-85382000D01*
X92294000Y-86822000D01*
G37*
G36*
X88230000Y-86822000D02*
G01*
X87490000Y-86822000D01*
X87490000Y-85382000D01*
X88230000Y-85382000D01*
X88230000Y-86822000D01*
G37*
G36*
X93244000Y-84722000D02*
G01*
X92504000Y-84722000D01*
X92504000Y-83282000D01*
X93244000Y-83282000D01*
X93244000Y-84722000D01*
G37*
G36*
X91344000Y-84722000D02*
G01*
X90604000Y-84722000D01*
X90604000Y-83282000D01*
X91344000Y-83282000D01*
X91344000Y-84722000D01*
G37*
G36*
X89180000Y-84722000D02*
G01*
X88440000Y-84722000D01*
X88440000Y-83282000D01*
X89180000Y-83282000D01*
X89180000Y-84722000D01*
G37*
G36*
X87280000Y-84722000D02*
G01*
X86540000Y-84722000D01*
X86540000Y-83282000D01*
X87280000Y-83282000D01*
X87280000Y-84722000D01*
G37*
G36*
X140892674Y-78336465D02*
G01*
X140930367Y-78347899D01*
X140965103Y-78366466D01*
X140995548Y-78391452D01*
X141020534Y-78421897D01*
X141039101Y-78456633D01*
X141050535Y-78494326D01*
X141055000Y-78539661D01*
X141055000Y-79626339D01*
X141050535Y-79671674D01*
X141039101Y-79709367D01*
X141020534Y-79744103D01*
X140995548Y-79774548D01*
X140965103Y-79799534D01*
X140930367Y-79818101D01*
X140892674Y-79829535D01*
X140847339Y-79834000D01*
X140010661Y-79834000D01*
X139965326Y-79829535D01*
X139927633Y-79818101D01*
X139892897Y-79799534D01*
X139862452Y-79774548D01*
X139837466Y-79744103D01*
X139818899Y-79709367D01*
X139807465Y-79671674D01*
X139803000Y-79626339D01*
X139803000Y-78539661D01*
X139807465Y-78494326D01*
X139818899Y-78456633D01*
X139837466Y-78421897D01*
X139862452Y-78391452D01*
X139892897Y-78366466D01*
X139927633Y-78347899D01*
X139965326Y-78336465D01*
X140010661Y-78332000D01*
X140847339Y-78332000D01*
X140892674Y-78336465D01*
G37*
G36*
X142942674Y-78336465D02*
G01*
X142980367Y-78347899D01*
X143015103Y-78366466D01*
X143045548Y-78391452D01*
X143070534Y-78421897D01*
X143089101Y-78456633D01*
X143100535Y-78494326D01*
X143105000Y-78539661D01*
X143105000Y-79626339D01*
X143100535Y-79671674D01*
X143089101Y-79709367D01*
X143070534Y-79744103D01*
X143045548Y-79774548D01*
X143015103Y-79799534D01*
X142980367Y-79818101D01*
X142942674Y-79829535D01*
X142897339Y-79834000D01*
X142060661Y-79834000D01*
X142015326Y-79829535D01*
X141977633Y-79818101D01*
X141942897Y-79799534D01*
X141912452Y-79774548D01*
X141887466Y-79744103D01*
X141868899Y-79709367D01*
X141857465Y-79671674D01*
X141853000Y-79626339D01*
X141853000Y-78539661D01*
X141857465Y-78494326D01*
X141868899Y-78456633D01*
X141887466Y-78421897D01*
X141912452Y-78391452D01*
X141942897Y-78366466D01*
X141977633Y-78347899D01*
X142015326Y-78336465D01*
X142060661Y-78332000D01*
X142897339Y-78332000D01*
X142942674Y-78336465D01*
G37*
G36*
X143554562Y-75621181D02*
G01*
X143589481Y-75631774D01*
X143621663Y-75648976D01*
X143649873Y-75672127D01*
X143673024Y-75700337D01*
X143690226Y-75732519D01*
X143700819Y-75767438D01*
X143705000Y-75809895D01*
X143705000Y-77276105D01*
X143700819Y-77318562D01*
X143690226Y-77353481D01*
X143673024Y-77385663D01*
X143649873Y-77413873D01*
X143621663Y-77437024D01*
X143589481Y-77454226D01*
X143554562Y-77464819D01*
X143512105Y-77469000D01*
X142370895Y-77469000D01*
X142328438Y-77464819D01*
X142293519Y-77454226D01*
X142261337Y-77437024D01*
X142233127Y-77413873D01*
X142209976Y-77385663D01*
X142192774Y-77353481D01*
X142182181Y-77318562D01*
X142178000Y-77276105D01*
X142178000Y-75809895D01*
X142182181Y-75767438D01*
X142192774Y-75732519D01*
X142209976Y-75700337D01*
X142233127Y-75672127D01*
X142261337Y-75648976D01*
X142293519Y-75631774D01*
X142328438Y-75621181D01*
X142370895Y-75617000D01*
X143512105Y-75617000D01*
X143554562Y-75621181D01*
G37*
G36*
X140579562Y-75621181D02*
G01*
X140614481Y-75631774D01*
X140646663Y-75648976D01*
X140674873Y-75672127D01*
X140698024Y-75700337D01*
X140715226Y-75732519D01*
X140725819Y-75767438D01*
X140730000Y-75809895D01*
X140730000Y-77276105D01*
X140725819Y-77318562D01*
X140715226Y-77353481D01*
X140698024Y-77385663D01*
X140674873Y-77413873D01*
X140646663Y-77437024D01*
X140614481Y-77454226D01*
X140579562Y-77464819D01*
X140537105Y-77469000D01*
X139395895Y-77469000D01*
X139353438Y-77464819D01*
X139318519Y-77454226D01*
X139286337Y-77437024D01*
X139258127Y-77413873D01*
X139234976Y-77385663D01*
X139217774Y-77353481D01*
X139207181Y-77318562D01*
X139203000Y-77276105D01*
X139203000Y-75809895D01*
X139207181Y-75767438D01*
X139217774Y-75732519D01*
X139234976Y-75700337D01*
X139258127Y-75672127D01*
X139286337Y-75648976D01*
X139318519Y-75631774D01*
X139353438Y-75621181D01*
X139395895Y-75617000D01*
X140537105Y-75617000D01*
X140579562Y-75621181D01*
G37*
G36*
X92161142Y-73602242D02*
G01*
X92309101Y-73663529D01*
X92442255Y-73752499D01*
X92555501Y-73865745D01*
X92644471Y-73998899D01*
X92705758Y-74146858D01*
X92737000Y-74303925D01*
X92737000Y-74464075D01*
X92705758Y-74621142D01*
X92644471Y-74769101D01*
X92555501Y-74902255D01*
X92442255Y-75015501D01*
X92309101Y-75104471D01*
X92161142Y-75165758D01*
X92004075Y-75197000D01*
X91843925Y-75197000D01*
X91686858Y-75165758D01*
X91538899Y-75104471D01*
X91405745Y-75015501D01*
X91292499Y-74902255D01*
X91203529Y-74769101D01*
X91142242Y-74621142D01*
X91111000Y-74464075D01*
X91111000Y-74303925D01*
X91142242Y-74146858D01*
X91203529Y-73998899D01*
X91292499Y-73865745D01*
X91405745Y-73752499D01*
X91538899Y-73663529D01*
X91686858Y-73602242D01*
X91843925Y-73571000D01*
X92004075Y-73571000D01*
X92161142Y-73602242D01*
G37*
G36*
X143536562Y-73291181D02*
G01*
X143571481Y-73301774D01*
X143603663Y-73318976D01*
X143631873Y-73342127D01*
X143655024Y-73370337D01*
X143672226Y-73402519D01*
X143682819Y-73437438D01*
X143687000Y-73479895D01*
X143687000Y-74946105D01*
X143682819Y-74988562D01*
X143672226Y-75023481D01*
X143655024Y-75055663D01*
X143631873Y-75083873D01*
X143603663Y-75107024D01*
X143571481Y-75124226D01*
X143536562Y-75134819D01*
X143494105Y-75139000D01*
X142352895Y-75139000D01*
X142310438Y-75134819D01*
X142275519Y-75124226D01*
X142243337Y-75107024D01*
X142215127Y-75083873D01*
X142191976Y-75055663D01*
X142174774Y-75023481D01*
X142164181Y-74988562D01*
X142160000Y-74946105D01*
X142160000Y-73479895D01*
X142164181Y-73437438D01*
X142174774Y-73402519D01*
X142191976Y-73370337D01*
X142215127Y-73342127D01*
X142243337Y-73318976D01*
X142275519Y-73301774D01*
X142310438Y-73291181D01*
X142352895Y-73287000D01*
X143494105Y-73287000D01*
X143536562Y-73291181D01*
G37*
G36*
X140561562Y-73291181D02*
G01*
X140596481Y-73301774D01*
X140628663Y-73318976D01*
X140656873Y-73342127D01*
X140680024Y-73370337D01*
X140697226Y-73402519D01*
X140707819Y-73437438D01*
X140712000Y-73479895D01*
X140712000Y-74946105D01*
X140707819Y-74988562D01*
X140697226Y-75023481D01*
X140680024Y-75055663D01*
X140656873Y-75083873D01*
X140628663Y-75107024D01*
X140596481Y-75124226D01*
X140561562Y-75134819D01*
X140519105Y-75139000D01*
X139377895Y-75139000D01*
X139335438Y-75134819D01*
X139300519Y-75124226D01*
X139268337Y-75107024D01*
X139240127Y-75083873D01*
X139216976Y-75055663D01*
X139199774Y-75023481D01*
X139189181Y-74988562D01*
X139185000Y-74946105D01*
X139185000Y-73479895D01*
X139189181Y-73437438D01*
X139199774Y-73402519D01*
X139216976Y-73370337D01*
X139240127Y-73342127D01*
X139268337Y-73318976D01*
X139300519Y-73301774D01*
X139335438Y-73291181D01*
X139377895Y-73287000D01*
X140519105Y-73287000D01*
X140561562Y-73291181D01*
G37*
G36*
X92161142Y-71062242D02*
G01*
X92309101Y-71123529D01*
X92442255Y-71212499D01*
X92555501Y-71325745D01*
X92644471Y-71458899D01*
X92705758Y-71606858D01*
X92737000Y-71763925D01*
X92737000Y-71924075D01*
X92705758Y-72081142D01*
X92644471Y-72229101D01*
X92555501Y-72362255D01*
X92442255Y-72475501D01*
X92309101Y-72564471D01*
X92161142Y-72625758D01*
X92004075Y-72657000D01*
X91843925Y-72657000D01*
X91686858Y-72625758D01*
X91538899Y-72564471D01*
X91405745Y-72475501D01*
X91292499Y-72362255D01*
X91203529Y-72229101D01*
X91142242Y-72081142D01*
X91111000Y-71924075D01*
X91111000Y-71763925D01*
X91142242Y-71606858D01*
X91203529Y-71458899D01*
X91292499Y-71325745D01*
X91405745Y-71212499D01*
X91538899Y-71123529D01*
X91686858Y-71062242D01*
X91843925Y-71031000D01*
X92004075Y-71031000D01*
X92161142Y-71062242D01*
G37*
G36*
X103930562Y-69525181D02*
G01*
X103965481Y-69535774D01*
X103997663Y-69552976D01*
X104025873Y-69576127D01*
X104049024Y-69604337D01*
X104066226Y-69636519D01*
X104076819Y-69671438D01*
X104081000Y-69713895D01*
X104081000Y-71180105D01*
X104076819Y-71222562D01*
X104066226Y-71257481D01*
X104049024Y-71289663D01*
X104025873Y-71317873D01*
X103997663Y-71341024D01*
X103965481Y-71358226D01*
X103930562Y-71368819D01*
X103888105Y-71373000D01*
X102746895Y-71373000D01*
X102704438Y-71368819D01*
X102669519Y-71358226D01*
X102637337Y-71341024D01*
X102609127Y-71317873D01*
X102585976Y-71289663D01*
X102568774Y-71257481D01*
X102558181Y-71222562D01*
X102554000Y-71180105D01*
X102554000Y-69713895D01*
X102558181Y-69671438D01*
X102568774Y-69636519D01*
X102585976Y-69604337D01*
X102609127Y-69576127D01*
X102637337Y-69552976D01*
X102669519Y-69535774D01*
X102704438Y-69525181D01*
X102746895Y-69521000D01*
X103888105Y-69521000D01*
X103930562Y-69525181D01*
G37*
G36*
X100955562Y-69525181D02*
G01*
X100990481Y-69535774D01*
X101022663Y-69552976D01*
X101050873Y-69576127D01*
X101074024Y-69604337D01*
X101091226Y-69636519D01*
X101101819Y-69671438D01*
X101106000Y-69713895D01*
X101106000Y-71180105D01*
X101101819Y-71222562D01*
X101091226Y-71257481D01*
X101074024Y-71289663D01*
X101050873Y-71317873D01*
X101022663Y-71341024D01*
X100990481Y-71358226D01*
X100955562Y-71368819D01*
X100913105Y-71373000D01*
X99771895Y-71373000D01*
X99729438Y-71368819D01*
X99694519Y-71358226D01*
X99662337Y-71341024D01*
X99634127Y-71317873D01*
X99610976Y-71289663D01*
X99593774Y-71257481D01*
X99583181Y-71222562D01*
X99579000Y-71180105D01*
X99579000Y-69713895D01*
X99583181Y-69671438D01*
X99593774Y-69636519D01*
X99610976Y-69604337D01*
X99634127Y-69576127D01*
X99662337Y-69552976D01*
X99694519Y-69535774D01*
X99729438Y-69525181D01*
X99771895Y-69521000D01*
X100913105Y-69521000D01*
X100955562Y-69525181D01*
G37*
G36*
X110026562Y-69144181D02*
G01*
X110061481Y-69154774D01*
X110093663Y-69171976D01*
X110121873Y-69195127D01*
X110145024Y-69223337D01*
X110162226Y-69255519D01*
X110172819Y-69290438D01*
X110177000Y-69332895D01*
X110177000Y-70799105D01*
X110172819Y-70841562D01*
X110162226Y-70876481D01*
X110145024Y-70908663D01*
X110121873Y-70936873D01*
X110093663Y-70960024D01*
X110061481Y-70977226D01*
X110026562Y-70987819D01*
X109984105Y-70992000D01*
X108842895Y-70992000D01*
X108800438Y-70987819D01*
X108765519Y-70977226D01*
X108733337Y-70960024D01*
X108705127Y-70936873D01*
X108681976Y-70908663D01*
X108664774Y-70876481D01*
X108654181Y-70841562D01*
X108650000Y-70799105D01*
X108650000Y-69332895D01*
X108654181Y-69290438D01*
X108664774Y-69255519D01*
X108681976Y-69223337D01*
X108705127Y-69195127D01*
X108733337Y-69171976D01*
X108765519Y-69154774D01*
X108800438Y-69144181D01*
X108842895Y-69140000D01*
X109984105Y-69140000D01*
X110026562Y-69144181D01*
G37*
G36*
X107051562Y-69144181D02*
G01*
X107086481Y-69154774D01*
X107118663Y-69171976D01*
X107146873Y-69195127D01*
X107170024Y-69223337D01*
X107187226Y-69255519D01*
X107197819Y-69290438D01*
X107202000Y-69332895D01*
X107202000Y-70799105D01*
X107197819Y-70841562D01*
X107187226Y-70876481D01*
X107170024Y-70908663D01*
X107146873Y-70936873D01*
X107118663Y-70960024D01*
X107086481Y-70977226D01*
X107051562Y-70987819D01*
X107009105Y-70992000D01*
X105867895Y-70992000D01*
X105825438Y-70987819D01*
X105790519Y-70977226D01*
X105758337Y-70960024D01*
X105730127Y-70936873D01*
X105706976Y-70908663D01*
X105689774Y-70876481D01*
X105679181Y-70841562D01*
X105675000Y-70799105D01*
X105675000Y-69332895D01*
X105679181Y-69290438D01*
X105689774Y-69255519D01*
X105706976Y-69223337D01*
X105730127Y-69195127D01*
X105758337Y-69171976D01*
X105790519Y-69154774D01*
X105825438Y-69144181D01*
X105867895Y-69140000D01*
X107009105Y-69140000D01*
X107051562Y-69144181D01*
G37*
G36*
X113909562Y-69144181D02*
G01*
X113944481Y-69154774D01*
X113976663Y-69171976D01*
X114004873Y-69195127D01*
X114028024Y-69223337D01*
X114045226Y-69255519D01*
X114055819Y-69290438D01*
X114060000Y-69332895D01*
X114060000Y-70799105D01*
X114055819Y-70841562D01*
X114045226Y-70876481D01*
X114028024Y-70908663D01*
X114004873Y-70936873D01*
X113976663Y-70960024D01*
X113944481Y-70977226D01*
X113909562Y-70987819D01*
X113867105Y-70992000D01*
X112725895Y-70992000D01*
X112683438Y-70987819D01*
X112648519Y-70977226D01*
X112616337Y-70960024D01*
X112588127Y-70936873D01*
X112564976Y-70908663D01*
X112547774Y-70876481D01*
X112537181Y-70841562D01*
X112533000Y-70799105D01*
X112533000Y-69332895D01*
X112537181Y-69290438D01*
X112547774Y-69255519D01*
X112564976Y-69223337D01*
X112588127Y-69195127D01*
X112616337Y-69171976D01*
X112648519Y-69154774D01*
X112683438Y-69144181D01*
X112725895Y-69140000D01*
X113867105Y-69140000D01*
X113909562Y-69144181D01*
G37*
G36*
X116884562Y-69144181D02*
G01*
X116919481Y-69154774D01*
X116951663Y-69171976D01*
X116979873Y-69195127D01*
X117003024Y-69223337D01*
X117020226Y-69255519D01*
X117030819Y-69290438D01*
X117035000Y-69332895D01*
X117035000Y-70799105D01*
X117030819Y-70841562D01*
X117020226Y-70876481D01*
X117003024Y-70908663D01*
X116979873Y-70936873D01*
X116951663Y-70960024D01*
X116919481Y-70977226D01*
X116884562Y-70987819D01*
X116842105Y-70992000D01*
X115700895Y-70992000D01*
X115658438Y-70987819D01*
X115623519Y-70977226D01*
X115591337Y-70960024D01*
X115563127Y-70936873D01*
X115539976Y-70908663D01*
X115522774Y-70876481D01*
X115512181Y-70841562D01*
X115508000Y-70799105D01*
X115508000Y-69332895D01*
X115512181Y-69290438D01*
X115522774Y-69255519D01*
X115539976Y-69223337D01*
X115563127Y-69195127D01*
X115591337Y-69171976D01*
X115623519Y-69154774D01*
X115658438Y-69144181D01*
X115700895Y-69140000D01*
X116842105Y-69140000D01*
X116884562Y-69144181D01*
G37*
G36*
X122980562Y-69144181D02*
G01*
X123015481Y-69154774D01*
X123047663Y-69171976D01*
X123075873Y-69195127D01*
X123099024Y-69223337D01*
X123116226Y-69255519D01*
X123126819Y-69290438D01*
X123131000Y-69332895D01*
X123131000Y-70799105D01*
X123126819Y-70841562D01*
X123116226Y-70876481D01*
X123099024Y-70908663D01*
X123075873Y-70936873D01*
X123047663Y-70960024D01*
X123015481Y-70977226D01*
X122980562Y-70987819D01*
X122938105Y-70992000D01*
X121796895Y-70992000D01*
X121754438Y-70987819D01*
X121719519Y-70977226D01*
X121687337Y-70960024D01*
X121659127Y-70936873D01*
X121635976Y-70908663D01*
X121618774Y-70876481D01*
X121608181Y-70841562D01*
X121604000Y-70799105D01*
X121604000Y-69332895D01*
X121608181Y-69290438D01*
X121618774Y-69255519D01*
X121635976Y-69223337D01*
X121659127Y-69195127D01*
X121687337Y-69171976D01*
X121719519Y-69154774D01*
X121754438Y-69144181D01*
X121796895Y-69140000D01*
X122938105Y-69140000D01*
X122980562Y-69144181D01*
G37*
G36*
X120005562Y-69144181D02*
G01*
X120040481Y-69154774D01*
X120072663Y-69171976D01*
X120100873Y-69195127D01*
X120124024Y-69223337D01*
X120141226Y-69255519D01*
X120151819Y-69290438D01*
X120156000Y-69332895D01*
X120156000Y-70799105D01*
X120151819Y-70841562D01*
X120141226Y-70876481D01*
X120124024Y-70908663D01*
X120100873Y-70936873D01*
X120072663Y-70960024D01*
X120040481Y-70977226D01*
X120005562Y-70987819D01*
X119963105Y-70992000D01*
X118821895Y-70992000D01*
X118779438Y-70987819D01*
X118744519Y-70977226D01*
X118712337Y-70960024D01*
X118684127Y-70936873D01*
X118660976Y-70908663D01*
X118643774Y-70876481D01*
X118633181Y-70841562D01*
X118629000Y-70799105D01*
X118629000Y-69332895D01*
X118633181Y-69290438D01*
X118643774Y-69255519D01*
X118660976Y-69223337D01*
X118684127Y-69195127D01*
X118712337Y-69171976D01*
X118744519Y-69154774D01*
X118779438Y-69144181D01*
X118821895Y-69140000D01*
X119963105Y-69140000D01*
X120005562Y-69144181D01*
G37*
G36*
X126863562Y-69144181D02*
G01*
X126898481Y-69154774D01*
X126930663Y-69171976D01*
X126958873Y-69195127D01*
X126982024Y-69223337D01*
X126999226Y-69255519D01*
X127009819Y-69290438D01*
X127014000Y-69332895D01*
X127014000Y-70799105D01*
X127009819Y-70841562D01*
X126999226Y-70876481D01*
X126982024Y-70908663D01*
X126958873Y-70936873D01*
X126930663Y-70960024D01*
X126898481Y-70977226D01*
X126863562Y-70987819D01*
X126821105Y-70992000D01*
X125679895Y-70992000D01*
X125637438Y-70987819D01*
X125602519Y-70977226D01*
X125570337Y-70960024D01*
X125542127Y-70936873D01*
X125518976Y-70908663D01*
X125501774Y-70876481D01*
X125491181Y-70841562D01*
X125487000Y-70799105D01*
X125487000Y-69332895D01*
X125491181Y-69290438D01*
X125501774Y-69255519D01*
X125518976Y-69223337D01*
X125542127Y-69195127D01*
X125570337Y-69171976D01*
X125602519Y-69154774D01*
X125637438Y-69144181D01*
X125679895Y-69140000D01*
X126821105Y-69140000D01*
X126863562Y-69144181D01*
G37*
G36*
X129838562Y-69144181D02*
G01*
X129873481Y-69154774D01*
X129905663Y-69171976D01*
X129933873Y-69195127D01*
X129957024Y-69223337D01*
X129974226Y-69255519D01*
X129984819Y-69290438D01*
X129989000Y-69332895D01*
X129989000Y-70799105D01*
X129984819Y-70841562D01*
X129974226Y-70876481D01*
X129957024Y-70908663D01*
X129933873Y-70936873D01*
X129905663Y-70960024D01*
X129873481Y-70977226D01*
X129838562Y-70987819D01*
X129796105Y-70992000D01*
X128654895Y-70992000D01*
X128612438Y-70987819D01*
X128577519Y-70977226D01*
X128545337Y-70960024D01*
X128517127Y-70936873D01*
X128493976Y-70908663D01*
X128476774Y-70876481D01*
X128466181Y-70841562D01*
X128462000Y-70799105D01*
X128462000Y-69332895D01*
X128466181Y-69290438D01*
X128476774Y-69255519D01*
X128493976Y-69223337D01*
X128517127Y-69195127D01*
X128545337Y-69171976D01*
X128577519Y-69154774D01*
X128612438Y-69144181D01*
X128654895Y-69140000D01*
X129796105Y-69140000D01*
X129838562Y-69144181D01*
G37*
G36*
X92161142Y-68522242D02*
G01*
X92309101Y-68583529D01*
X92442255Y-68672499D01*
X92555501Y-68785745D01*
X92644471Y-68918899D01*
X92705758Y-69066858D01*
X92737000Y-69223925D01*
X92737000Y-69384075D01*
X92705758Y-69541142D01*
X92644471Y-69689101D01*
X92555501Y-69822255D01*
X92442255Y-69935501D01*
X92309101Y-70024471D01*
X92161142Y-70085758D01*
X92004075Y-70117000D01*
X91843925Y-70117000D01*
X91686858Y-70085758D01*
X91538899Y-70024471D01*
X91405745Y-69935501D01*
X91292499Y-69822255D01*
X91203529Y-69689101D01*
X91142242Y-69541142D01*
X91111000Y-69384075D01*
X91111000Y-69223925D01*
X91142242Y-69066858D01*
X91203529Y-68918899D01*
X91292499Y-68785745D01*
X91405745Y-68672499D01*
X91538899Y-68583529D01*
X91686858Y-68522242D01*
X91843925Y-68491000D01*
X92004075Y-68491000D01*
X92161142Y-68522242D01*
G37*
G36*
X145226585Y-66512802D02*
G01*
X145376410Y-66542604D01*
X145658674Y-66659521D01*
X145912705Y-66829259D01*
X146128741Y-67045295D01*
X146298479Y-67299326D01*
X146415396Y-67581590D01*
X146475000Y-67881240D01*
X146475000Y-68186760D01*
X146415396Y-68486410D01*
X146298479Y-68768674D01*
X146128741Y-69022705D01*
X145912705Y-69238741D01*
X145658674Y-69408479D01*
X145376410Y-69525396D01*
X145237756Y-69552976D01*
X145076761Y-69585000D01*
X144771239Y-69585000D01*
X144610244Y-69552976D01*
X144471590Y-69525396D01*
X144189326Y-69408479D01*
X143935295Y-69238741D01*
X143719259Y-69022705D01*
X143549521Y-68768674D01*
X143432604Y-68486410D01*
X143373000Y-68186760D01*
X143373000Y-67881240D01*
X143432604Y-67581590D01*
X143549521Y-67299326D01*
X143719259Y-67045295D01*
X143935295Y-66829259D01*
X144189326Y-66659521D01*
X144471590Y-66542604D01*
X144621415Y-66512802D01*
X144771239Y-66483000D01*
X145076761Y-66483000D01*
X145226585Y-66512802D01*
G37*
G36*
X103930562Y-66858181D02*
G01*
X103965481Y-66868774D01*
X103997663Y-66885976D01*
X104025873Y-66909127D01*
X104049024Y-66937337D01*
X104066226Y-66969519D01*
X104076819Y-67004438D01*
X104081000Y-67046895D01*
X104081000Y-68513105D01*
X104076819Y-68555562D01*
X104066226Y-68590481D01*
X104049024Y-68622663D01*
X104025873Y-68650873D01*
X103997663Y-68674024D01*
X103965481Y-68691226D01*
X103930562Y-68701819D01*
X103888105Y-68706000D01*
X102746895Y-68706000D01*
X102704438Y-68701819D01*
X102669519Y-68691226D01*
X102637337Y-68674024D01*
X102609127Y-68650873D01*
X102585976Y-68622663D01*
X102568774Y-68590481D01*
X102558181Y-68555562D01*
X102554000Y-68513105D01*
X102554000Y-67046895D01*
X102558181Y-67004438D01*
X102568774Y-66969519D01*
X102585976Y-66937337D01*
X102609127Y-66909127D01*
X102637337Y-66885976D01*
X102669519Y-66868774D01*
X102704438Y-66858181D01*
X102746895Y-66854000D01*
X103888105Y-66854000D01*
X103930562Y-66858181D01*
G37*
G36*
X100955562Y-66858181D02*
G01*
X100990481Y-66868774D01*
X101022663Y-66885976D01*
X101050873Y-66909127D01*
X101074024Y-66937337D01*
X101091226Y-66969519D01*
X101101819Y-67004438D01*
X101106000Y-67046895D01*
X101106000Y-68513105D01*
X101101819Y-68555562D01*
X101091226Y-68590481D01*
X101074024Y-68622663D01*
X101050873Y-68650873D01*
X101022663Y-68674024D01*
X100990481Y-68691226D01*
X100955562Y-68701819D01*
X100913105Y-68706000D01*
X99771895Y-68706000D01*
X99729438Y-68701819D01*
X99694519Y-68691226D01*
X99662337Y-68674024D01*
X99634127Y-68650873D01*
X99610976Y-68622663D01*
X99593774Y-68590481D01*
X99583181Y-68555562D01*
X99579000Y-68513105D01*
X99579000Y-67046895D01*
X99583181Y-67004438D01*
X99593774Y-66969519D01*
X99610976Y-66937337D01*
X99634127Y-66909127D01*
X99662337Y-66885976D01*
X99694519Y-66868774D01*
X99729438Y-66858181D01*
X99771895Y-66854000D01*
X100913105Y-66854000D01*
X100955562Y-66858181D01*
G37*
G36*
X110026562Y-66858181D02*
G01*
X110061481Y-66868774D01*
X110093663Y-66885976D01*
X110121873Y-66909127D01*
X110145024Y-66937337D01*
X110162226Y-66969519D01*
X110172819Y-67004438D01*
X110177000Y-67046895D01*
X110177000Y-68513105D01*
X110172819Y-68555562D01*
X110162226Y-68590481D01*
X110145024Y-68622663D01*
X110121873Y-68650873D01*
X110093663Y-68674024D01*
X110061481Y-68691226D01*
X110026562Y-68701819D01*
X109984105Y-68706000D01*
X108842895Y-68706000D01*
X108800438Y-68701819D01*
X108765519Y-68691226D01*
X108733337Y-68674024D01*
X108705127Y-68650873D01*
X108681976Y-68622663D01*
X108664774Y-68590481D01*
X108654181Y-68555562D01*
X108650000Y-68513105D01*
X108650000Y-67046895D01*
X108654181Y-67004438D01*
X108664774Y-66969519D01*
X108681976Y-66937337D01*
X108705127Y-66909127D01*
X108733337Y-66885976D01*
X108765519Y-66868774D01*
X108800438Y-66858181D01*
X108842895Y-66854000D01*
X109984105Y-66854000D01*
X110026562Y-66858181D01*
G37*
G36*
X120005562Y-66858181D02*
G01*
X120040481Y-66868774D01*
X120072663Y-66885976D01*
X120100873Y-66909127D01*
X120124024Y-66937337D01*
X120141226Y-66969519D01*
X120151819Y-67004438D01*
X120156000Y-67046895D01*
X120156000Y-68513105D01*
X120151819Y-68555562D01*
X120141226Y-68590481D01*
X120124024Y-68622663D01*
X120100873Y-68650873D01*
X120072663Y-68674024D01*
X120040481Y-68691226D01*
X120005562Y-68701819D01*
X119963105Y-68706000D01*
X118821895Y-68706000D01*
X118779438Y-68701819D01*
X118744519Y-68691226D01*
X118712337Y-68674024D01*
X118684127Y-68650873D01*
X118660976Y-68622663D01*
X118643774Y-68590481D01*
X118633181Y-68555562D01*
X118629000Y-68513105D01*
X118629000Y-67046895D01*
X118633181Y-67004438D01*
X118643774Y-66969519D01*
X118660976Y-66937337D01*
X118684127Y-66909127D01*
X118712337Y-66885976D01*
X118744519Y-66868774D01*
X118779438Y-66858181D01*
X118821895Y-66854000D01*
X119963105Y-66854000D01*
X120005562Y-66858181D01*
G37*
G36*
X122980562Y-66858181D02*
G01*
X123015481Y-66868774D01*
X123047663Y-66885976D01*
X123075873Y-66909127D01*
X123099024Y-66937337D01*
X123116226Y-66969519D01*
X123126819Y-67004438D01*
X123131000Y-67046895D01*
X123131000Y-68513105D01*
X123126819Y-68555562D01*
X123116226Y-68590481D01*
X123099024Y-68622663D01*
X123075873Y-68650873D01*
X123047663Y-68674024D01*
X123015481Y-68691226D01*
X122980562Y-68701819D01*
X122938105Y-68706000D01*
X121796895Y-68706000D01*
X121754438Y-68701819D01*
X121719519Y-68691226D01*
X121687337Y-68674024D01*
X121659127Y-68650873D01*
X121635976Y-68622663D01*
X121618774Y-68590481D01*
X121608181Y-68555562D01*
X121604000Y-68513105D01*
X121604000Y-67046895D01*
X121608181Y-67004438D01*
X121618774Y-66969519D01*
X121635976Y-66937337D01*
X121659127Y-66909127D01*
X121687337Y-66885976D01*
X121719519Y-66868774D01*
X121754438Y-66858181D01*
X121796895Y-66854000D01*
X122938105Y-66854000D01*
X122980562Y-66858181D01*
G37*
G36*
X113909562Y-66858181D02*
G01*
X113944481Y-66868774D01*
X113976663Y-66885976D01*
X114004873Y-66909127D01*
X114028024Y-66937337D01*
X114045226Y-66969519D01*
X114055819Y-67004438D01*
X114060000Y-67046895D01*
X114060000Y-68513105D01*
X114055819Y-68555562D01*
X114045226Y-68590481D01*
X114028024Y-68622663D01*
X114004873Y-68650873D01*
X113976663Y-68674024D01*
X113944481Y-68691226D01*
X113909562Y-68701819D01*
X113867105Y-68706000D01*
X112725895Y-68706000D01*
X112683438Y-68701819D01*
X112648519Y-68691226D01*
X112616337Y-68674024D01*
X112588127Y-68650873D01*
X112564976Y-68622663D01*
X112547774Y-68590481D01*
X112537181Y-68555562D01*
X112533000Y-68513105D01*
X112533000Y-67046895D01*
X112537181Y-67004438D01*
X112547774Y-66969519D01*
X112564976Y-66937337D01*
X112588127Y-66909127D01*
X112616337Y-66885976D01*
X112648519Y-66868774D01*
X112683438Y-66858181D01*
X112725895Y-66854000D01*
X113867105Y-66854000D01*
X113909562Y-66858181D01*
G37*
G36*
X116884562Y-66858181D02*
G01*
X116919481Y-66868774D01*
X116951663Y-66885976D01*
X116979873Y-66909127D01*
X117003024Y-66937337D01*
X117020226Y-66969519D01*
X117030819Y-67004438D01*
X117035000Y-67046895D01*
X117035000Y-68513105D01*
X117030819Y-68555562D01*
X117020226Y-68590481D01*
X117003024Y-68622663D01*
X116979873Y-68650873D01*
X116951663Y-68674024D01*
X116919481Y-68691226D01*
X116884562Y-68701819D01*
X116842105Y-68706000D01*
X115700895Y-68706000D01*
X115658438Y-68701819D01*
X115623519Y-68691226D01*
X115591337Y-68674024D01*
X115563127Y-68650873D01*
X115539976Y-68622663D01*
X115522774Y-68590481D01*
X115512181Y-68555562D01*
X115508000Y-68513105D01*
X115508000Y-67046895D01*
X115512181Y-67004438D01*
X115522774Y-66969519D01*
X115539976Y-66937337D01*
X115563127Y-66909127D01*
X115591337Y-66885976D01*
X115623519Y-66868774D01*
X115658438Y-66858181D01*
X115700895Y-66854000D01*
X116842105Y-66854000D01*
X116884562Y-66858181D01*
G37*
G36*
X129838562Y-66858181D02*
G01*
X129873481Y-66868774D01*
X129905663Y-66885976D01*
X129933873Y-66909127D01*
X129957024Y-66937337D01*
X129974226Y-66969519D01*
X129984819Y-67004438D01*
X129989000Y-67046895D01*
X129989000Y-68513105D01*
X129984819Y-68555562D01*
X129974226Y-68590481D01*
X129957024Y-68622663D01*
X129933873Y-68650873D01*
X129905663Y-68674024D01*
X129873481Y-68691226D01*
X129838562Y-68701819D01*
X129796105Y-68706000D01*
X128654895Y-68706000D01*
X128612438Y-68701819D01*
X128577519Y-68691226D01*
X128545337Y-68674024D01*
X128517127Y-68650873D01*
X128493976Y-68622663D01*
X128476774Y-68590481D01*
X128466181Y-68555562D01*
X128462000Y-68513105D01*
X128462000Y-67046895D01*
X128466181Y-67004438D01*
X128476774Y-66969519D01*
X128493976Y-66937337D01*
X128517127Y-66909127D01*
X128545337Y-66885976D01*
X128577519Y-66868774D01*
X128612438Y-66858181D01*
X128654895Y-66854000D01*
X129796105Y-66854000D01*
X129838562Y-66858181D01*
G37*
G36*
X107051562Y-66858181D02*
G01*
X107086481Y-66868774D01*
X107118663Y-66885976D01*
X107146873Y-66909127D01*
X107170024Y-66937337D01*
X107187226Y-66969519D01*
X107197819Y-67004438D01*
X107202000Y-67046895D01*
X107202000Y-68513105D01*
X107197819Y-68555562D01*
X107187226Y-68590481D01*
X107170024Y-68622663D01*
X107146873Y-68650873D01*
X107118663Y-68674024D01*
X107086481Y-68691226D01*
X107051562Y-68701819D01*
X107009105Y-68706000D01*
X105867895Y-68706000D01*
X105825438Y-68701819D01*
X105790519Y-68691226D01*
X105758337Y-68674024D01*
X105730127Y-68650873D01*
X105706976Y-68622663D01*
X105689774Y-68590481D01*
X105679181Y-68555562D01*
X105675000Y-68513105D01*
X105675000Y-67046895D01*
X105679181Y-67004438D01*
X105689774Y-66969519D01*
X105706976Y-66937337D01*
X105730127Y-66909127D01*
X105758337Y-66885976D01*
X105790519Y-66868774D01*
X105825438Y-66858181D01*
X105867895Y-66854000D01*
X107009105Y-66854000D01*
X107051562Y-66858181D01*
G37*
G36*
X126863562Y-66858181D02*
G01*
X126898481Y-66868774D01*
X126930663Y-66885976D01*
X126958873Y-66909127D01*
X126982024Y-66937337D01*
X126999226Y-66969519D01*
X127009819Y-67004438D01*
X127014000Y-67046895D01*
X127014000Y-68513105D01*
X127009819Y-68555562D01*
X126999226Y-68590481D01*
X126982024Y-68622663D01*
X126958873Y-68650873D01*
X126930663Y-68674024D01*
X126898481Y-68691226D01*
X126863562Y-68701819D01*
X126821105Y-68706000D01*
X125679895Y-68706000D01*
X125637438Y-68701819D01*
X125602519Y-68691226D01*
X125570337Y-68674024D01*
X125542127Y-68650873D01*
X125518976Y-68622663D01*
X125501774Y-68590481D01*
X125491181Y-68555562D01*
X125487000Y-68513105D01*
X125487000Y-67046895D01*
X125491181Y-67004438D01*
X125501774Y-66969519D01*
X125518976Y-66937337D01*
X125542127Y-66909127D01*
X125570337Y-66885976D01*
X125602519Y-66868774D01*
X125637438Y-66858181D01*
X125679895Y-66854000D01*
X126821105Y-66854000D01*
X126863562Y-66858181D01*
G37*
G36*
X92161142Y-65982242D02*
G01*
X92309101Y-66043529D01*
X92442255Y-66132499D01*
X92555501Y-66245745D01*
X92644471Y-66378899D01*
X92705758Y-66526858D01*
X92737000Y-66683925D01*
X92737000Y-66844075D01*
X92705758Y-67001142D01*
X92644471Y-67149101D01*
X92555501Y-67282255D01*
X92442255Y-67395501D01*
X92309101Y-67484471D01*
X92161142Y-67545758D01*
X92004075Y-67577000D01*
X91843925Y-67577000D01*
X91686858Y-67545758D01*
X91538899Y-67484471D01*
X91405745Y-67395501D01*
X91292499Y-67282255D01*
X91203529Y-67149101D01*
X91142242Y-67001142D01*
X91111000Y-66844075D01*
X91111000Y-66683925D01*
X91142242Y-66526858D01*
X91203529Y-66378899D01*
X91292499Y-66245745D01*
X91405745Y-66132499D01*
X91538899Y-66043529D01*
X91686858Y-65982242D01*
X91843925Y-65951000D01*
X92004075Y-65951000D01*
X92161142Y-65982242D01*
G37*
G36*
X92161142Y-63442242D02*
G01*
X92309101Y-63503529D01*
X92442255Y-63592499D01*
X92555501Y-63705745D01*
X92644471Y-63838899D01*
X92705758Y-63986858D01*
X92737000Y-64143925D01*
X92737000Y-64304075D01*
X92705758Y-64461142D01*
X92644471Y-64609101D01*
X92555501Y-64742255D01*
X92442255Y-64855501D01*
X92309101Y-64944471D01*
X92161142Y-65005758D01*
X92004075Y-65037000D01*
X91843925Y-65037000D01*
X91686858Y-65005758D01*
X91538899Y-64944471D01*
X91405745Y-64855501D01*
X91292499Y-64742255D01*
X91203529Y-64609101D01*
X91142242Y-64461142D01*
X91111000Y-64304075D01*
X91111000Y-64143925D01*
X91142242Y-63986858D01*
X91203529Y-63838899D01*
X91292499Y-63705745D01*
X91405745Y-63592499D01*
X91538899Y-63503529D01*
X91686858Y-63442242D01*
X91843925Y-63411000D01*
X92004075Y-63411000D01*
X92161142Y-63442242D01*
G37*
G36*
X143196674Y-62588465D02*
G01*
X143234367Y-62599899D01*
X143269103Y-62618466D01*
X143299548Y-62643452D01*
X143324534Y-62673897D01*
X143343101Y-62708633D01*
X143354535Y-62746326D01*
X143359000Y-62791661D01*
X143359000Y-63878339D01*
X143354535Y-63923674D01*
X143343101Y-63961367D01*
X143324534Y-63996103D01*
X143299548Y-64026548D01*
X143269103Y-64051534D01*
X143234367Y-64070101D01*
X143196674Y-64081535D01*
X143151339Y-64086000D01*
X142314661Y-64086000D01*
X142269326Y-64081535D01*
X142231633Y-64070101D01*
X142196897Y-64051534D01*
X142166452Y-64026548D01*
X142141466Y-63996103D01*
X142122899Y-63961367D01*
X142111465Y-63923674D01*
X142107000Y-63878339D01*
X142107000Y-62791661D01*
X142111465Y-62746326D01*
X142122899Y-62708633D01*
X142141466Y-62673897D01*
X142166452Y-62643452D01*
X142196897Y-62618466D01*
X142231633Y-62599899D01*
X142269326Y-62588465D01*
X142314661Y-62584000D01*
X143151339Y-62584000D01*
X143196674Y-62588465D01*
G37*
G36*
X141146674Y-62588465D02*
G01*
X141184367Y-62599899D01*
X141219103Y-62618466D01*
X141249548Y-62643452D01*
X141274534Y-62673897D01*
X141293101Y-62708633D01*
X141304535Y-62746326D01*
X141309000Y-62791661D01*
X141309000Y-63878339D01*
X141304535Y-63923674D01*
X141293101Y-63961367D01*
X141274534Y-63996103D01*
X141249548Y-64026548D01*
X141219103Y-64051534D01*
X141184367Y-64070101D01*
X141146674Y-64081535D01*
X141101339Y-64086000D01*
X140264661Y-64086000D01*
X140219326Y-64081535D01*
X140181633Y-64070101D01*
X140146897Y-64051534D01*
X140116452Y-64026548D01*
X140091466Y-63996103D01*
X140072899Y-63961367D01*
X140061465Y-63923674D01*
X140057000Y-63878339D01*
X140057000Y-62791661D01*
X140061465Y-62746326D01*
X140072899Y-62708633D01*
X140091466Y-62673897D01*
X140116452Y-62643452D01*
X140146897Y-62618466D01*
X140181633Y-62599899D01*
X140219326Y-62588465D01*
X140264661Y-62584000D01*
X141101339Y-62584000D01*
X141146674Y-62588465D01*
G37*
G36*
X92737000Y-62497000D02*
G01*
X91111000Y-62497000D01*
X91111000Y-60871000D01*
X92737000Y-60871000D01*
X92737000Y-62497000D01*
G37*
G36*
X140833562Y-60254181D02*
G01*
X140868481Y-60264774D01*
X140900663Y-60281976D01*
X140928873Y-60305127D01*
X140952024Y-60333337D01*
X140969226Y-60365519D01*
X140979819Y-60400438D01*
X140984000Y-60442895D01*
X140984000Y-61909105D01*
X140979819Y-61951562D01*
X140969226Y-61986481D01*
X140952024Y-62018663D01*
X140928873Y-62046873D01*
X140900663Y-62070024D01*
X140868481Y-62087226D01*
X140833562Y-62097819D01*
X140791105Y-62102000D01*
X139649895Y-62102000D01*
X139607438Y-62097819D01*
X139572519Y-62087226D01*
X139540337Y-62070024D01*
X139512127Y-62046873D01*
X139488976Y-62018663D01*
X139471774Y-61986481D01*
X139461181Y-61951562D01*
X139457000Y-61909105D01*
X139457000Y-60442895D01*
X139461181Y-60400438D01*
X139471774Y-60365519D01*
X139488976Y-60333337D01*
X139512127Y-60305127D01*
X139540337Y-60281976D01*
X139572519Y-60264774D01*
X139607438Y-60254181D01*
X139649895Y-60250000D01*
X140791105Y-60250000D01*
X140833562Y-60254181D01*
G37*
G36*
X143808562Y-60254181D02*
G01*
X143843481Y-60264774D01*
X143875663Y-60281976D01*
X143903873Y-60305127D01*
X143927024Y-60333337D01*
X143944226Y-60365519D01*
X143954819Y-60400438D01*
X143959000Y-60442895D01*
X143959000Y-61909105D01*
X143954819Y-61951562D01*
X143944226Y-61986481D01*
X143927024Y-62018663D01*
X143903873Y-62046873D01*
X143875663Y-62070024D01*
X143843481Y-62087226D01*
X143808562Y-62097819D01*
X143766105Y-62102000D01*
X142624895Y-62102000D01*
X142582438Y-62097819D01*
X142547519Y-62087226D01*
X142515337Y-62070024D01*
X142487127Y-62046873D01*
X142463976Y-62018663D01*
X142446774Y-61986481D01*
X142436181Y-61951562D01*
X142432000Y-61909105D01*
X142432000Y-60442895D01*
X142436181Y-60400438D01*
X142446774Y-60365519D01*
X142463976Y-60333337D01*
X142487127Y-60305127D01*
X142515337Y-60281976D01*
X142547519Y-60264774D01*
X142582438Y-60254181D01*
X142624895Y-60250000D01*
X143766105Y-60250000D01*
X143808562Y-60254181D01*
G37*
G36*
X100954562Y-60507181D02*
G01*
X100989481Y-60517774D01*
X101021663Y-60534976D01*
X101049873Y-60558127D01*
X101073024Y-60586337D01*
X101090226Y-60618519D01*
X101100819Y-60653438D01*
X101105000Y-60695895D01*
X101105000Y-61837105D01*
X101100819Y-61879562D01*
X101090226Y-61914481D01*
X101073024Y-61946663D01*
X101049873Y-61974873D01*
X101021663Y-61998024D01*
X100989481Y-62015226D01*
X100954562Y-62025819D01*
X100912105Y-62030000D01*
X99445895Y-62030000D01*
X99403438Y-62025819D01*
X99368519Y-62015226D01*
X99336337Y-61998024D01*
X99308127Y-61974873D01*
X99284976Y-61946663D01*
X99267774Y-61914481D01*
X99257181Y-61879562D01*
X99253000Y-61837105D01*
X99253000Y-60695895D01*
X99257181Y-60653438D01*
X99267774Y-60618519D01*
X99284976Y-60586337D01*
X99308127Y-60558127D01*
X99336337Y-60534976D01*
X99368519Y-60517774D01*
X99403438Y-60507181D01*
X99445895Y-60503000D01*
X100912105Y-60503000D01*
X100954562Y-60507181D01*
G37*
G36*
X105907562Y-60507181D02*
G01*
X105942481Y-60517774D01*
X105974663Y-60534976D01*
X106002873Y-60558127D01*
X106026024Y-60586337D01*
X106043226Y-60618519D01*
X106053819Y-60653438D01*
X106058000Y-60695895D01*
X106058000Y-61837105D01*
X106053819Y-61879562D01*
X106043226Y-61914481D01*
X106026024Y-61946663D01*
X106002873Y-61974873D01*
X105974663Y-61998024D01*
X105942481Y-62015226D01*
X105907562Y-62025819D01*
X105865105Y-62030000D01*
X104398895Y-62030000D01*
X104356438Y-62025819D01*
X104321519Y-62015226D01*
X104289337Y-61998024D01*
X104261127Y-61974873D01*
X104237976Y-61946663D01*
X104220774Y-61914481D01*
X104210181Y-61879562D01*
X104206000Y-61837105D01*
X104206000Y-60695895D01*
X104210181Y-60653438D01*
X104220774Y-60618519D01*
X104237976Y-60586337D01*
X104261127Y-60558127D01*
X104289337Y-60534976D01*
X104321519Y-60517774D01*
X104356438Y-60507181D01*
X104398895Y-60503000D01*
X105865105Y-60503000D01*
X105907562Y-60507181D01*
G37*
G36*
X110860562Y-60507181D02*
G01*
X110895481Y-60517774D01*
X110927663Y-60534976D01*
X110955873Y-60558127D01*
X110979024Y-60586337D01*
X110996226Y-60618519D01*
X111006819Y-60653438D01*
X111011000Y-60695895D01*
X111011000Y-61837105D01*
X111006819Y-61879562D01*
X110996226Y-61914481D01*
X110979024Y-61946663D01*
X110955873Y-61974873D01*
X110927663Y-61998024D01*
X110895481Y-62015226D01*
X110860562Y-62025819D01*
X110818105Y-62030000D01*
X109351895Y-62030000D01*
X109309438Y-62025819D01*
X109274519Y-62015226D01*
X109242337Y-61998024D01*
X109214127Y-61974873D01*
X109190976Y-61946663D01*
X109173774Y-61914481D01*
X109163181Y-61879562D01*
X109159000Y-61837105D01*
X109159000Y-60695895D01*
X109163181Y-60653438D01*
X109173774Y-60618519D01*
X109190976Y-60586337D01*
X109214127Y-60558127D01*
X109242337Y-60534976D01*
X109274519Y-60517774D01*
X109309438Y-60507181D01*
X109351895Y-60503000D01*
X110818105Y-60503000D01*
X110860562Y-60507181D01*
G37*
G36*
X115813562Y-60507181D02*
G01*
X115848481Y-60517774D01*
X115880663Y-60534976D01*
X115908873Y-60558127D01*
X115932024Y-60586337D01*
X115949226Y-60618519D01*
X115959819Y-60653438D01*
X115964000Y-60695895D01*
X115964000Y-61837105D01*
X115959819Y-61879562D01*
X115949226Y-61914481D01*
X115932024Y-61946663D01*
X115908873Y-61974873D01*
X115880663Y-61998024D01*
X115848481Y-62015226D01*
X115813562Y-62025819D01*
X115771105Y-62030000D01*
X114304895Y-62030000D01*
X114262438Y-62025819D01*
X114227519Y-62015226D01*
X114195337Y-61998024D01*
X114167127Y-61974873D01*
X114143976Y-61946663D01*
X114126774Y-61914481D01*
X114116181Y-61879562D01*
X114112000Y-61837105D01*
X114112000Y-60695895D01*
X114116181Y-60653438D01*
X114126774Y-60618519D01*
X114143976Y-60586337D01*
X114167127Y-60558127D01*
X114195337Y-60534976D01*
X114227519Y-60517774D01*
X114262438Y-60507181D01*
X114304895Y-60503000D01*
X115771105Y-60503000D01*
X115813562Y-60507181D01*
G37*
G36*
X120766562Y-60507181D02*
G01*
X120801481Y-60517774D01*
X120833663Y-60534976D01*
X120861873Y-60558127D01*
X120885024Y-60586337D01*
X120902226Y-60618519D01*
X120912819Y-60653438D01*
X120917000Y-60695895D01*
X120917000Y-61837105D01*
X120912819Y-61879562D01*
X120902226Y-61914481D01*
X120885024Y-61946663D01*
X120861873Y-61974873D01*
X120833663Y-61998024D01*
X120801481Y-62015226D01*
X120766562Y-62025819D01*
X120724105Y-62030000D01*
X119257895Y-62030000D01*
X119215438Y-62025819D01*
X119180519Y-62015226D01*
X119148337Y-61998024D01*
X119120127Y-61974873D01*
X119096976Y-61946663D01*
X119079774Y-61914481D01*
X119069181Y-61879562D01*
X119065000Y-61837105D01*
X119065000Y-60695895D01*
X119069181Y-60653438D01*
X119079774Y-60618519D01*
X119096976Y-60586337D01*
X119120127Y-60558127D01*
X119148337Y-60534976D01*
X119180519Y-60517774D01*
X119215438Y-60507181D01*
X119257895Y-60503000D01*
X120724105Y-60503000D01*
X120766562Y-60507181D01*
G37*
G36*
X143815562Y-57899181D02*
G01*
X143850481Y-57909774D01*
X143882663Y-57926976D01*
X143910873Y-57950127D01*
X143934024Y-57978337D01*
X143951226Y-58010519D01*
X143961819Y-58045438D01*
X143966000Y-58087895D01*
X143966000Y-59554105D01*
X143961819Y-59596562D01*
X143951226Y-59631481D01*
X143934024Y-59663663D01*
X143910873Y-59691873D01*
X143882663Y-59715024D01*
X143850481Y-59732226D01*
X143815562Y-59742819D01*
X143773105Y-59747000D01*
X142631895Y-59747000D01*
X142589438Y-59742819D01*
X142554519Y-59732226D01*
X142522337Y-59715024D01*
X142494127Y-59691873D01*
X142470976Y-59663663D01*
X142453774Y-59631481D01*
X142443181Y-59596562D01*
X142439000Y-59554105D01*
X142439000Y-58087895D01*
X142443181Y-58045438D01*
X142453774Y-58010519D01*
X142470976Y-57978337D01*
X142494127Y-57950127D01*
X142522337Y-57926976D01*
X142554519Y-57909774D01*
X142589438Y-57899181D01*
X142631895Y-57895000D01*
X143773105Y-57895000D01*
X143815562Y-57899181D01*
G37*
G36*
X140840562Y-57899181D02*
G01*
X140875481Y-57909774D01*
X140907663Y-57926976D01*
X140935873Y-57950127D01*
X140959024Y-57978337D01*
X140976226Y-58010519D01*
X140986819Y-58045438D01*
X140991000Y-58087895D01*
X140991000Y-59554105D01*
X140986819Y-59596562D01*
X140976226Y-59631481D01*
X140959024Y-59663663D01*
X140935873Y-59691873D01*
X140907663Y-59715024D01*
X140875481Y-59732226D01*
X140840562Y-59742819D01*
X140798105Y-59747000D01*
X139656895Y-59747000D01*
X139614438Y-59742819D01*
X139579519Y-59732226D01*
X139547337Y-59715024D01*
X139519127Y-59691873D01*
X139495976Y-59663663D01*
X139478774Y-59631481D01*
X139468181Y-59596562D01*
X139464000Y-59554105D01*
X139464000Y-58087895D01*
X139468181Y-58045438D01*
X139478774Y-58010519D01*
X139495976Y-57978337D01*
X139519127Y-57950127D01*
X139547337Y-57926976D01*
X139579519Y-57909774D01*
X139614438Y-57899181D01*
X139656895Y-57895000D01*
X140798105Y-57895000D01*
X140840562Y-57899181D01*
G37*
G36*
X105907562Y-57532181D02*
G01*
X105942481Y-57542774D01*
X105974663Y-57559976D01*
X106002873Y-57583127D01*
X106026024Y-57611337D01*
X106043226Y-57643519D01*
X106053819Y-57678438D01*
X106058000Y-57720895D01*
X106058000Y-58862105D01*
X106053819Y-58904562D01*
X106043226Y-58939481D01*
X106026024Y-58971663D01*
X106002873Y-58999873D01*
X105974663Y-59023024D01*
X105942481Y-59040226D01*
X105907562Y-59050819D01*
X105865105Y-59055000D01*
X104398895Y-59055000D01*
X104356438Y-59050819D01*
X104321519Y-59040226D01*
X104289337Y-59023024D01*
X104261127Y-58999873D01*
X104237976Y-58971663D01*
X104220774Y-58939481D01*
X104210181Y-58904562D01*
X104206000Y-58862105D01*
X104206000Y-57720895D01*
X104210181Y-57678438D01*
X104220774Y-57643519D01*
X104237976Y-57611337D01*
X104261127Y-57583127D01*
X104289337Y-57559976D01*
X104321519Y-57542774D01*
X104356438Y-57532181D01*
X104398895Y-57528000D01*
X105865105Y-57528000D01*
X105907562Y-57532181D01*
G37*
G36*
X115813562Y-57532181D02*
G01*
X115848481Y-57542774D01*
X115880663Y-57559976D01*
X115908873Y-57583127D01*
X115932024Y-57611337D01*
X115949226Y-57643519D01*
X115959819Y-57678438D01*
X115964000Y-57720895D01*
X115964000Y-58862105D01*
X115959819Y-58904562D01*
X115949226Y-58939481D01*
X115932024Y-58971663D01*
X115908873Y-58999873D01*
X115880663Y-59023024D01*
X115848481Y-59040226D01*
X115813562Y-59050819D01*
X115771105Y-59055000D01*
X114304895Y-59055000D01*
X114262438Y-59050819D01*
X114227519Y-59040226D01*
X114195337Y-59023024D01*
X114167127Y-58999873D01*
X114143976Y-58971663D01*
X114126774Y-58939481D01*
X114116181Y-58904562D01*
X114112000Y-58862105D01*
X114112000Y-57720895D01*
X114116181Y-57678438D01*
X114126774Y-57643519D01*
X114143976Y-57611337D01*
X114167127Y-57583127D01*
X114195337Y-57559976D01*
X114227519Y-57542774D01*
X114262438Y-57532181D01*
X114304895Y-57528000D01*
X115771105Y-57528000D01*
X115813562Y-57532181D01*
G37*
G36*
X120766562Y-57532181D02*
G01*
X120801481Y-57542774D01*
X120833663Y-57559976D01*
X120861873Y-57583127D01*
X120885024Y-57611337D01*
X120902226Y-57643519D01*
X120912819Y-57678438D01*
X120917000Y-57720895D01*
X120917000Y-58862105D01*
X120912819Y-58904562D01*
X120902226Y-58939481D01*
X120885024Y-58971663D01*
X120861873Y-58999873D01*
X120833663Y-59023024D01*
X120801481Y-59040226D01*
X120766562Y-59050819D01*
X120724105Y-59055000D01*
X119257895Y-59055000D01*
X119215438Y-59050819D01*
X119180519Y-59040226D01*
X119148337Y-59023024D01*
X119120127Y-58999873D01*
X119096976Y-58971663D01*
X119079774Y-58939481D01*
X119069181Y-58904562D01*
X119065000Y-58862105D01*
X119065000Y-57720895D01*
X119069181Y-57678438D01*
X119079774Y-57643519D01*
X119096976Y-57611337D01*
X119120127Y-57583127D01*
X119148337Y-57559976D01*
X119180519Y-57542774D01*
X119215438Y-57532181D01*
X119257895Y-57528000D01*
X120724105Y-57528000D01*
X120766562Y-57532181D01*
G37*
G36*
X100954562Y-57532181D02*
G01*
X100989481Y-57542774D01*
X101021663Y-57559976D01*
X101049873Y-57583127D01*
X101073024Y-57611337D01*
X101090226Y-57643519D01*
X101100819Y-57678438D01*
X101105000Y-57720895D01*
X101105000Y-58862105D01*
X101100819Y-58904562D01*
X101090226Y-58939481D01*
X101073024Y-58971663D01*
X101049873Y-58999873D01*
X101021663Y-59023024D01*
X100989481Y-59040226D01*
X100954562Y-59050819D01*
X100912105Y-59055000D01*
X99445895Y-59055000D01*
X99403438Y-59050819D01*
X99368519Y-59040226D01*
X99336337Y-59023024D01*
X99308127Y-58999873D01*
X99284976Y-58971663D01*
X99267774Y-58939481D01*
X99257181Y-58904562D01*
X99253000Y-58862105D01*
X99253000Y-57720895D01*
X99257181Y-57678438D01*
X99267774Y-57643519D01*
X99284976Y-57611337D01*
X99308127Y-57583127D01*
X99336337Y-57559976D01*
X99368519Y-57542774D01*
X99403438Y-57532181D01*
X99445895Y-57528000D01*
X100912105Y-57528000D01*
X100954562Y-57532181D01*
G37*
G36*
X110860562Y-57532181D02*
G01*
X110895481Y-57542774D01*
X110927663Y-57559976D01*
X110955873Y-57583127D01*
X110979024Y-57611337D01*
X110996226Y-57643519D01*
X111006819Y-57678438D01*
X111011000Y-57720895D01*
X111011000Y-58862105D01*
X111006819Y-58904562D01*
X110996226Y-58939481D01*
X110979024Y-58971663D01*
X110955873Y-58999873D01*
X110927663Y-59023024D01*
X110895481Y-59040226D01*
X110860562Y-59050819D01*
X110818105Y-59055000D01*
X109351895Y-59055000D01*
X109309438Y-59050819D01*
X109274519Y-59040226D01*
X109242337Y-59023024D01*
X109214127Y-58999873D01*
X109190976Y-58971663D01*
X109173774Y-58939481D01*
X109163181Y-58904562D01*
X109159000Y-58862105D01*
X109159000Y-57720895D01*
X109163181Y-57678438D01*
X109173774Y-57643519D01*
X109190976Y-57611337D01*
X109214127Y-57583127D01*
X109242337Y-57559976D01*
X109274519Y-57542774D01*
X109309438Y-57532181D01*
X109351895Y-57528000D01*
X110818105Y-57528000D01*
X110860562Y-57532181D01*
G37*
G36*
X99855000Y-55425000D02*
G01*
X97553000Y-55425000D01*
X97553000Y-53823000D01*
X99855000Y-53823000D01*
X99855000Y-55425000D01*
G37*
G36*
X115818228Y-53029703D02*
G01*
X115973100Y-53093853D01*
X116112481Y-53186985D01*
X116231015Y-53305519D01*
X116324147Y-53444900D01*
X116388297Y-53599772D01*
X116421000Y-53764184D01*
X116421000Y-53931816D01*
X116388297Y-54096228D01*
X116324147Y-54251100D01*
X116231015Y-54390481D01*
X116112481Y-54509015D01*
X115973100Y-54602147D01*
X115818228Y-54666297D01*
X115653816Y-54699000D01*
X115486184Y-54699000D01*
X115321772Y-54666297D01*
X115166900Y-54602147D01*
X115027519Y-54509015D01*
X114908985Y-54390481D01*
X114815853Y-54251100D01*
X114751703Y-54096228D01*
X114719000Y-53931816D01*
X114719000Y-53764184D01*
X114751703Y-53599772D01*
X114815853Y-53444900D01*
X114908985Y-53305519D01*
X115027519Y-53186985D01*
X115166900Y-53093853D01*
X115321772Y-53029703D01*
X115486184Y-52997000D01*
X115653816Y-52997000D01*
X115818228Y-53029703D01*
G37*
G36*
X138678228Y-53029703D02*
G01*
X138833100Y-53093853D01*
X138972481Y-53186985D01*
X139091015Y-53305519D01*
X139184147Y-53444900D01*
X139248297Y-53599772D01*
X139281000Y-53764184D01*
X139281000Y-53931816D01*
X139248297Y-54096228D01*
X139184147Y-54251100D01*
X139091015Y-54390481D01*
X138972481Y-54509015D01*
X138833100Y-54602147D01*
X138678228Y-54666297D01*
X138513816Y-54699000D01*
X138346184Y-54699000D01*
X138181772Y-54666297D01*
X138026900Y-54602147D01*
X137887519Y-54509015D01*
X137768985Y-54390481D01*
X137675853Y-54251100D01*
X137611703Y-54096228D01*
X137579000Y-53931816D01*
X137579000Y-53764184D01*
X137611703Y-53599772D01*
X137675853Y-53444900D01*
X137768985Y-53305519D01*
X137887519Y-53186985D01*
X138026900Y-53093853D01*
X138181772Y-53029703D01*
X138346184Y-52997000D01*
X138513816Y-52997000D01*
X138678228Y-53029703D01*
G37*
G36*
X136138228Y-53029703D02*
G01*
X136293100Y-53093853D01*
X136432481Y-53186985D01*
X136551015Y-53305519D01*
X136644147Y-53444900D01*
X136708297Y-53599772D01*
X136741000Y-53764184D01*
X136741000Y-53931816D01*
X136708297Y-54096228D01*
X136644147Y-54251100D01*
X136551015Y-54390481D01*
X136432481Y-54509015D01*
X136293100Y-54602147D01*
X136138228Y-54666297D01*
X135973816Y-54699000D01*
X135806184Y-54699000D01*
X135641772Y-54666297D01*
X135486900Y-54602147D01*
X135347519Y-54509015D01*
X135228985Y-54390481D01*
X135135853Y-54251100D01*
X135071703Y-54096228D01*
X135039000Y-53931816D01*
X135039000Y-53764184D01*
X135071703Y-53599772D01*
X135135853Y-53444900D01*
X135228985Y-53305519D01*
X135347519Y-53186985D01*
X135486900Y-53093853D01*
X135641772Y-53029703D01*
X135806184Y-52997000D01*
X135973816Y-52997000D01*
X136138228Y-53029703D01*
G37*
G36*
X108801000Y-54699000D02*
G01*
X107099000Y-54699000D01*
X107099000Y-52997000D01*
X108801000Y-52997000D01*
X108801000Y-54699000D01*
G37*
G36*
X118358228Y-53029703D02*
G01*
X118513100Y-53093853D01*
X118652481Y-53186985D01*
X118771015Y-53305519D01*
X118864147Y-53444900D01*
X118928297Y-53599772D01*
X118961000Y-53764184D01*
X118961000Y-53931816D01*
X118928297Y-54096228D01*
X118864147Y-54251100D01*
X118771015Y-54390481D01*
X118652481Y-54509015D01*
X118513100Y-54602147D01*
X118358228Y-54666297D01*
X118193816Y-54699000D01*
X118026184Y-54699000D01*
X117861772Y-54666297D01*
X117706900Y-54602147D01*
X117567519Y-54509015D01*
X117448985Y-54390481D01*
X117355853Y-54251100D01*
X117291703Y-54096228D01*
X117259000Y-53931816D01*
X117259000Y-53764184D01*
X117291703Y-53599772D01*
X117355853Y-53444900D01*
X117448985Y-53305519D01*
X117567519Y-53186985D01*
X117706900Y-53093853D01*
X117861772Y-53029703D01*
X118026184Y-52997000D01*
X118193816Y-52997000D01*
X118358228Y-53029703D01*
G37*
G36*
X120898228Y-53029703D02*
G01*
X121053100Y-53093853D01*
X121192481Y-53186985D01*
X121311015Y-53305519D01*
X121404147Y-53444900D01*
X121468297Y-53599772D01*
X121501000Y-53764184D01*
X121501000Y-53931816D01*
X121468297Y-54096228D01*
X121404147Y-54251100D01*
X121311015Y-54390481D01*
X121192481Y-54509015D01*
X121053100Y-54602147D01*
X120898228Y-54666297D01*
X120733816Y-54699000D01*
X120566184Y-54699000D01*
X120401772Y-54666297D01*
X120246900Y-54602147D01*
X120107519Y-54509015D01*
X119988985Y-54390481D01*
X119895853Y-54251100D01*
X119831703Y-54096228D01*
X119799000Y-53931816D01*
X119799000Y-53764184D01*
X119831703Y-53599772D01*
X119895853Y-53444900D01*
X119988985Y-53305519D01*
X120107519Y-53186985D01*
X120246900Y-53093853D01*
X120401772Y-53029703D01*
X120566184Y-52997000D01*
X120733816Y-52997000D01*
X120898228Y-53029703D01*
G37*
G36*
X123438228Y-53029703D02*
G01*
X123593100Y-53093853D01*
X123732481Y-53186985D01*
X123851015Y-53305519D01*
X123944147Y-53444900D01*
X124008297Y-53599772D01*
X124041000Y-53764184D01*
X124041000Y-53931816D01*
X124008297Y-54096228D01*
X123944147Y-54251100D01*
X123851015Y-54390481D01*
X123732481Y-54509015D01*
X123593100Y-54602147D01*
X123438228Y-54666297D01*
X123273816Y-54699000D01*
X123106184Y-54699000D01*
X122941772Y-54666297D01*
X122786900Y-54602147D01*
X122647519Y-54509015D01*
X122528985Y-54390481D01*
X122435853Y-54251100D01*
X122371703Y-54096228D01*
X122339000Y-53931816D01*
X122339000Y-53764184D01*
X122371703Y-53599772D01*
X122435853Y-53444900D01*
X122528985Y-53305519D01*
X122647519Y-53186985D01*
X122786900Y-53093853D01*
X122941772Y-53029703D01*
X123106184Y-52997000D01*
X123273816Y-52997000D01*
X123438228Y-53029703D01*
G37*
G36*
X141218228Y-53029703D02*
G01*
X141373100Y-53093853D01*
X141512481Y-53186985D01*
X141631015Y-53305519D01*
X141724147Y-53444900D01*
X141788297Y-53599772D01*
X141821000Y-53764184D01*
X141821000Y-53931816D01*
X141788297Y-54096228D01*
X141724147Y-54251100D01*
X141631015Y-54390481D01*
X141512481Y-54509015D01*
X141373100Y-54602147D01*
X141218228Y-54666297D01*
X141053816Y-54699000D01*
X140886184Y-54699000D01*
X140721772Y-54666297D01*
X140566900Y-54602147D01*
X140427519Y-54509015D01*
X140308985Y-54390481D01*
X140215853Y-54251100D01*
X140151703Y-54096228D01*
X140119000Y-53931816D01*
X140119000Y-53764184D01*
X140151703Y-53599772D01*
X140215853Y-53444900D01*
X140308985Y-53305519D01*
X140427519Y-53186985D01*
X140566900Y-53093853D01*
X140721772Y-53029703D01*
X140886184Y-52997000D01*
X141053816Y-52997000D01*
X141218228Y-53029703D01*
G37*
G36*
X113278228Y-53029703D02*
G01*
X113433100Y-53093853D01*
X113572481Y-53186985D01*
X113691015Y-53305519D01*
X113784147Y-53444900D01*
X113848297Y-53599772D01*
X113881000Y-53764184D01*
X113881000Y-53931816D01*
X113848297Y-54096228D01*
X113784147Y-54251100D01*
X113691015Y-54390481D01*
X113572481Y-54509015D01*
X113433100Y-54602147D01*
X113278228Y-54666297D01*
X113113816Y-54699000D01*
X112946184Y-54699000D01*
X112781772Y-54666297D01*
X112626900Y-54602147D01*
X112487519Y-54509015D01*
X112368985Y-54390481D01*
X112275853Y-54251100D01*
X112211703Y-54096228D01*
X112179000Y-53931816D01*
X112179000Y-53764184D01*
X112211703Y-53599772D01*
X112275853Y-53444900D01*
X112368985Y-53305519D01*
X112487519Y-53186985D01*
X112626900Y-53093853D01*
X112781772Y-53029703D01*
X112946184Y-52997000D01*
X113113816Y-52997000D01*
X113278228Y-53029703D01*
G37*
G36*
X128518228Y-53029703D02*
G01*
X128673100Y-53093853D01*
X128812481Y-53186985D01*
X128931015Y-53305519D01*
X129024147Y-53444900D01*
X129088297Y-53599772D01*
X129121000Y-53764184D01*
X129121000Y-53931816D01*
X129088297Y-54096228D01*
X129024147Y-54251100D01*
X128931015Y-54390481D01*
X128812481Y-54509015D01*
X128673100Y-54602147D01*
X128518228Y-54666297D01*
X128353816Y-54699000D01*
X128186184Y-54699000D01*
X128021772Y-54666297D01*
X127866900Y-54602147D01*
X127727519Y-54509015D01*
X127608985Y-54390481D01*
X127515853Y-54251100D01*
X127451703Y-54096228D01*
X127419000Y-53931816D01*
X127419000Y-53764184D01*
X127451703Y-53599772D01*
X127515853Y-53444900D01*
X127608985Y-53305519D01*
X127727519Y-53186985D01*
X127866900Y-53093853D01*
X128021772Y-53029703D01*
X128186184Y-52997000D01*
X128353816Y-52997000D01*
X128518228Y-53029703D01*
G37*
G36*
X131058228Y-53029703D02*
G01*
X131213100Y-53093853D01*
X131352481Y-53186985D01*
X131471015Y-53305519D01*
X131564147Y-53444900D01*
X131628297Y-53599772D01*
X131661000Y-53764184D01*
X131661000Y-53931816D01*
X131628297Y-54096228D01*
X131564147Y-54251100D01*
X131471015Y-54390481D01*
X131352481Y-54509015D01*
X131213100Y-54602147D01*
X131058228Y-54666297D01*
X130893816Y-54699000D01*
X130726184Y-54699000D01*
X130561772Y-54666297D01*
X130406900Y-54602147D01*
X130267519Y-54509015D01*
X130148985Y-54390481D01*
X130055853Y-54251100D01*
X129991703Y-54096228D01*
X129959000Y-53931816D01*
X129959000Y-53764184D01*
X129991703Y-53599772D01*
X130055853Y-53444900D01*
X130148985Y-53305519D01*
X130267519Y-53186985D01*
X130406900Y-53093853D01*
X130561772Y-53029703D01*
X130726184Y-52997000D01*
X130893816Y-52997000D01*
X131058228Y-53029703D01*
G37*
G36*
X110738228Y-53029703D02*
G01*
X110893100Y-53093853D01*
X111032481Y-53186985D01*
X111151015Y-53305519D01*
X111244147Y-53444900D01*
X111308297Y-53599772D01*
X111341000Y-53764184D01*
X111341000Y-53931816D01*
X111308297Y-54096228D01*
X111244147Y-54251100D01*
X111151015Y-54390481D01*
X111032481Y-54509015D01*
X110893100Y-54602147D01*
X110738228Y-54666297D01*
X110573816Y-54699000D01*
X110406184Y-54699000D01*
X110241772Y-54666297D01*
X110086900Y-54602147D01*
X109947519Y-54509015D01*
X109828985Y-54390481D01*
X109735853Y-54251100D01*
X109671703Y-54096228D01*
X109639000Y-53931816D01*
X109639000Y-53764184D01*
X109671703Y-53599772D01*
X109735853Y-53444900D01*
X109828985Y-53305519D01*
X109947519Y-53186985D01*
X110086900Y-53093853D01*
X110241772Y-53029703D01*
X110406184Y-52997000D01*
X110573816Y-52997000D01*
X110738228Y-53029703D01*
G37*
G36*
X133598228Y-53029703D02*
G01*
X133753100Y-53093853D01*
X133892481Y-53186985D01*
X134011015Y-53305519D01*
X134104147Y-53444900D01*
X134168297Y-53599772D01*
X134201000Y-53764184D01*
X134201000Y-53931816D01*
X134168297Y-54096228D01*
X134104147Y-54251100D01*
X134011015Y-54390481D01*
X133892481Y-54509015D01*
X133753100Y-54602147D01*
X133598228Y-54666297D01*
X133433816Y-54699000D01*
X133266184Y-54699000D01*
X133101772Y-54666297D01*
X132946900Y-54602147D01*
X132807519Y-54509015D01*
X132688985Y-54390481D01*
X132595853Y-54251100D01*
X132531703Y-54096228D01*
X132499000Y-53931816D01*
X132499000Y-53764184D01*
X132531703Y-53599772D01*
X132595853Y-53444900D01*
X132688985Y-53305519D01*
X132807519Y-53186985D01*
X132946900Y-53093853D01*
X133101772Y-53029703D01*
X133266184Y-52997000D01*
X133433816Y-52997000D01*
X133598228Y-53029703D01*
G37*
G36*
X125978228Y-53029703D02*
G01*
X126133100Y-53093853D01*
X126272481Y-53186985D01*
X126391015Y-53305519D01*
X126484147Y-53444900D01*
X126548297Y-53599772D01*
X126581000Y-53764184D01*
X126581000Y-53931816D01*
X126548297Y-54096228D01*
X126484147Y-54251100D01*
X126391015Y-54390481D01*
X126272481Y-54509015D01*
X126133100Y-54602147D01*
X125978228Y-54666297D01*
X125813816Y-54699000D01*
X125646184Y-54699000D01*
X125481772Y-54666297D01*
X125326900Y-54602147D01*
X125187519Y-54509015D01*
X125068985Y-54390481D01*
X124975853Y-54251100D01*
X124911703Y-54096228D01*
X124879000Y-53931816D01*
X124879000Y-53764184D01*
X124911703Y-53599772D01*
X124975853Y-53444900D01*
X125068985Y-53305519D01*
X125187519Y-53186985D01*
X125326900Y-53093853D01*
X125481772Y-53029703D01*
X125646184Y-52997000D01*
X125813816Y-52997000D01*
X125978228Y-53029703D01*
G37*
G36*
X106155000Y-54275000D02*
G01*
X103853000Y-54275000D01*
X103853000Y-50373000D01*
X106155000Y-50373000D01*
X106155000Y-54275000D01*
G37*
G36*
X99855000Y-53125000D02*
G01*
X97553000Y-53125000D01*
X97553000Y-51523000D01*
X99855000Y-51523000D01*
X99855000Y-53125000D01*
G37*
G36*
X157242721Y-51162174D02*
G01*
X157342995Y-51203709D01*
X157342996Y-51203710D01*
X157433242Y-51264010D01*
X157509990Y-51340758D01*
X157509991Y-51340760D01*
X157570291Y-51431005D01*
X157611826Y-51531279D01*
X157633000Y-51637730D01*
X157633000Y-51746270D01*
X157611826Y-51852721D01*
X157570291Y-51952995D01*
X157570290Y-51952996D01*
X157509990Y-52043242D01*
X157433242Y-52119990D01*
X157387812Y-52150345D01*
X157342995Y-52180291D01*
X157242721Y-52221826D01*
X157136270Y-52243000D01*
X157027730Y-52243000D01*
X156921279Y-52221826D01*
X156821005Y-52180291D01*
X156776188Y-52150345D01*
X156730758Y-52119990D01*
X156654010Y-52043242D01*
X156593710Y-51952996D01*
X156593709Y-51952995D01*
X156552174Y-51852721D01*
X156531000Y-51746270D01*
X156531000Y-51637730D01*
X156552174Y-51531279D01*
X156593709Y-51431005D01*
X156654009Y-51340760D01*
X156654010Y-51340758D01*
X156730758Y-51264010D01*
X156821004Y-51203710D01*
X156821005Y-51203709D01*
X156921279Y-51162174D01*
X157027730Y-51141000D01*
X157136270Y-51141000D01*
X157242721Y-51162174D01*
G37*
G36*
X145242721Y-51162174D02*
G01*
X145342995Y-51203709D01*
X145342996Y-51203710D01*
X145433242Y-51264010D01*
X145509990Y-51340758D01*
X145509991Y-51340760D01*
X145570291Y-51431005D01*
X145611826Y-51531279D01*
X145633000Y-51637730D01*
X145633000Y-51746270D01*
X145611826Y-51852721D01*
X145570291Y-51952995D01*
X145570290Y-51952996D01*
X145509990Y-52043242D01*
X145433242Y-52119990D01*
X145387812Y-52150345D01*
X145342995Y-52180291D01*
X145242721Y-52221826D01*
X145136270Y-52243000D01*
X145027730Y-52243000D01*
X144921279Y-52221826D01*
X144821005Y-52180291D01*
X144776188Y-52150345D01*
X144730758Y-52119990D01*
X144654010Y-52043242D01*
X144593710Y-51952996D01*
X144593709Y-51952995D01*
X144552174Y-51852721D01*
X144531000Y-51746270D01*
X144531000Y-51637730D01*
X144552174Y-51531279D01*
X144593709Y-51431005D01*
X144654009Y-51340760D01*
X144654010Y-51340758D01*
X144730758Y-51264010D01*
X144821004Y-51203710D01*
X144821005Y-51203709D01*
X144921279Y-51162174D01*
X145027730Y-51141000D01*
X145136270Y-51141000D01*
X145242721Y-51162174D01*
G37*
G36*
X87076721Y-50654174D02*
G01*
X87176995Y-50695709D01*
X87213127Y-50719852D01*
X87267242Y-50756010D01*
X87343990Y-50832758D01*
X87343991Y-50832760D01*
X87404291Y-50923005D01*
X87445826Y-51023279D01*
X87467000Y-51129730D01*
X87467000Y-51238270D01*
X87445826Y-51344721D01*
X87404291Y-51444995D01*
X87404290Y-51444996D01*
X87343990Y-51535242D01*
X87267242Y-51611990D01*
X87228719Y-51637730D01*
X87176995Y-51672291D01*
X87076721Y-51713826D01*
X86970270Y-51735000D01*
X86861730Y-51735000D01*
X86755279Y-51713826D01*
X86655005Y-51672291D01*
X86603281Y-51637730D01*
X86564758Y-51611990D01*
X86488010Y-51535242D01*
X86427710Y-51444996D01*
X86427709Y-51444995D01*
X86386174Y-51344721D01*
X86365000Y-51238270D01*
X86365000Y-51129730D01*
X86386174Y-51023279D01*
X86427709Y-50923005D01*
X86488009Y-50832760D01*
X86488010Y-50832758D01*
X86564758Y-50756010D01*
X86618873Y-50719852D01*
X86655005Y-50695709D01*
X86755279Y-50654174D01*
X86861730Y-50633000D01*
X86970270Y-50633000D01*
X87076721Y-50654174D01*
G37*
G36*
X96076721Y-50654174D02*
G01*
X96176995Y-50695709D01*
X96213127Y-50719852D01*
X96267242Y-50756010D01*
X96343990Y-50832758D01*
X96343991Y-50832760D01*
X96404291Y-50923005D01*
X96445826Y-51023279D01*
X96467000Y-51129730D01*
X96467000Y-51238270D01*
X96445826Y-51344721D01*
X96404291Y-51444995D01*
X96404290Y-51444996D01*
X96343990Y-51535242D01*
X96267242Y-51611990D01*
X96228719Y-51637730D01*
X96176995Y-51672291D01*
X96076721Y-51713826D01*
X95970270Y-51735000D01*
X95861730Y-51735000D01*
X95755279Y-51713826D01*
X95655005Y-51672291D01*
X95603281Y-51637730D01*
X95564758Y-51611990D01*
X95488010Y-51535242D01*
X95427710Y-51444996D01*
X95427709Y-51444995D01*
X95386174Y-51344721D01*
X95365000Y-51238270D01*
X95365000Y-51129730D01*
X95386174Y-51023279D01*
X95427709Y-50923005D01*
X95488009Y-50832760D01*
X95488010Y-50832758D01*
X95564758Y-50756010D01*
X95618873Y-50719852D01*
X95655005Y-50695709D01*
X95755279Y-50654174D01*
X95861730Y-50633000D01*
X95970270Y-50633000D01*
X96076721Y-50654174D01*
G37*
G36*
X148315642Y-49981781D02*
G01*
X148461414Y-50042162D01*
X148461416Y-50042163D01*
X148592608Y-50129822D01*
X148704178Y-50241392D01*
X148791837Y-50372584D01*
X148791838Y-50372586D01*
X148852219Y-50518358D01*
X148883000Y-50673107D01*
X148883000Y-50830893D01*
X148852219Y-50985642D01*
X148792535Y-51129731D01*
X148791837Y-51131416D01*
X148704178Y-51262608D01*
X148592608Y-51374178D01*
X148461416Y-51461837D01*
X148461415Y-51461838D01*
X148461414Y-51461838D01*
X148315642Y-51522219D01*
X148160893Y-51553000D01*
X148003107Y-51553000D01*
X147848358Y-51522219D01*
X147702586Y-51461838D01*
X147702585Y-51461838D01*
X147702584Y-51461837D01*
X147571392Y-51374178D01*
X147459822Y-51262608D01*
X147372163Y-51131416D01*
X147371465Y-51129731D01*
X147311781Y-50985642D01*
X147281000Y-50830893D01*
X147281000Y-50673107D01*
X147311781Y-50518358D01*
X147372162Y-50372586D01*
X147372163Y-50372584D01*
X147459822Y-50241392D01*
X147571392Y-50129822D01*
X147702584Y-50042163D01*
X147702586Y-50042162D01*
X147848358Y-49981781D01*
X148003107Y-49951000D01*
X148160893Y-49951000D01*
X148315642Y-49981781D01*
G37*
G36*
X151315642Y-49981781D02*
G01*
X151461414Y-50042162D01*
X151461416Y-50042163D01*
X151592608Y-50129822D01*
X151704178Y-50241392D01*
X151791837Y-50372584D01*
X151791838Y-50372586D01*
X151852219Y-50518358D01*
X151883000Y-50673107D01*
X151883000Y-50830893D01*
X151852219Y-50985642D01*
X151792535Y-51129731D01*
X151791837Y-51131416D01*
X151704178Y-51262608D01*
X151592608Y-51374178D01*
X151461416Y-51461837D01*
X151461415Y-51461838D01*
X151461414Y-51461838D01*
X151315642Y-51522219D01*
X151160893Y-51553000D01*
X151003107Y-51553000D01*
X150848358Y-51522219D01*
X150702586Y-51461838D01*
X150702585Y-51461838D01*
X150702584Y-51461837D01*
X150571392Y-51374178D01*
X150459822Y-51262608D01*
X150372163Y-51131416D01*
X150371465Y-51129731D01*
X150311781Y-50985642D01*
X150281000Y-50830893D01*
X150281000Y-50673107D01*
X150311781Y-50518358D01*
X150372162Y-50372586D01*
X150372163Y-50372584D01*
X150459822Y-50241392D01*
X150571392Y-50129822D01*
X150702584Y-50042163D01*
X150702586Y-50042162D01*
X150848358Y-49981781D01*
X151003107Y-49951000D01*
X151160893Y-49951000D01*
X151315642Y-49981781D01*
G37*
G36*
X154315642Y-49981781D02*
G01*
X154461414Y-50042162D01*
X154461416Y-50042163D01*
X154592608Y-50129822D01*
X154704178Y-50241392D01*
X154791837Y-50372584D01*
X154791838Y-50372586D01*
X154852219Y-50518358D01*
X154883000Y-50673107D01*
X154883000Y-50830893D01*
X154852219Y-50985642D01*
X154792535Y-51129731D01*
X154791837Y-51131416D01*
X154704178Y-51262608D01*
X154592608Y-51374178D01*
X154461416Y-51461837D01*
X154461415Y-51461838D01*
X154461414Y-51461838D01*
X154315642Y-51522219D01*
X154160893Y-51553000D01*
X154003107Y-51553000D01*
X153848358Y-51522219D01*
X153702586Y-51461838D01*
X153702585Y-51461838D01*
X153702584Y-51461837D01*
X153571392Y-51374178D01*
X153459822Y-51262608D01*
X153372163Y-51131416D01*
X153371465Y-51129731D01*
X153311781Y-50985642D01*
X153281000Y-50830893D01*
X153281000Y-50673107D01*
X153311781Y-50518358D01*
X153372162Y-50372586D01*
X153372163Y-50372584D01*
X153459822Y-50241392D01*
X153571392Y-50129822D01*
X153702584Y-50042163D01*
X153702586Y-50042162D01*
X153848358Y-49981781D01*
X154003107Y-49951000D01*
X154160893Y-49951000D01*
X154315642Y-49981781D01*
G37*
G36*
X90149642Y-49473781D02*
G01*
X90295414Y-49534162D01*
X90295416Y-49534163D01*
X90426608Y-49621822D01*
X90538178Y-49733392D01*
X90625837Y-49864584D01*
X90625838Y-49864586D01*
X90686219Y-50010358D01*
X90717000Y-50165107D01*
X90717000Y-50322893D01*
X90686219Y-50477642D01*
X90625838Y-50623414D01*
X90625837Y-50623416D01*
X90538178Y-50754608D01*
X90426608Y-50866178D01*
X90295416Y-50953837D01*
X90295415Y-50953838D01*
X90295414Y-50953838D01*
X90149642Y-51014219D01*
X89994893Y-51045000D01*
X89837107Y-51045000D01*
X89682358Y-51014219D01*
X89536586Y-50953838D01*
X89536585Y-50953838D01*
X89536584Y-50953837D01*
X89405392Y-50866178D01*
X89293822Y-50754608D01*
X89206163Y-50623416D01*
X89206162Y-50623414D01*
X89145781Y-50477642D01*
X89115000Y-50322893D01*
X89115000Y-50165107D01*
X89145781Y-50010358D01*
X89206162Y-49864586D01*
X89206163Y-49864584D01*
X89293822Y-49733392D01*
X89405392Y-49621822D01*
X89536584Y-49534163D01*
X89536586Y-49534162D01*
X89682358Y-49473781D01*
X89837107Y-49443000D01*
X89994893Y-49443000D01*
X90149642Y-49473781D01*
G37*
G36*
X93149642Y-49473781D02*
G01*
X93295414Y-49534162D01*
X93295416Y-49534163D01*
X93426608Y-49621822D01*
X93538178Y-49733392D01*
X93625837Y-49864584D01*
X93625838Y-49864586D01*
X93686219Y-50010358D01*
X93717000Y-50165107D01*
X93717000Y-50322893D01*
X93686219Y-50477642D01*
X93625838Y-50623414D01*
X93625837Y-50623416D01*
X93538178Y-50754608D01*
X93426608Y-50866178D01*
X93295416Y-50953837D01*
X93295415Y-50953838D01*
X93295414Y-50953838D01*
X93149642Y-51014219D01*
X92994893Y-51045000D01*
X92837107Y-51045000D01*
X92682358Y-51014219D01*
X92536586Y-50953838D01*
X92536585Y-50953838D01*
X92536584Y-50953837D01*
X92405392Y-50866178D01*
X92293822Y-50754608D01*
X92206163Y-50623416D01*
X92206162Y-50623414D01*
X92145781Y-50477642D01*
X92115000Y-50322893D01*
X92115000Y-50165107D01*
X92145781Y-50010358D01*
X92206162Y-49864586D01*
X92206163Y-49864584D01*
X92293822Y-49733392D01*
X92405392Y-49621822D01*
X92536584Y-49534163D01*
X92536586Y-49534162D01*
X92682358Y-49473781D01*
X92837107Y-49443000D01*
X92994893Y-49443000D01*
X93149642Y-49473781D01*
G37*
G36*
X99855000Y-50825000D02*
G01*
X97553000Y-50825000D01*
X97553000Y-49223000D01*
X99855000Y-49223000D01*
X99855000Y-50825000D01*
G37*
G36*
X127267562Y-49242181D02*
G01*
X127302481Y-49252774D01*
X127334663Y-49269976D01*
X127362873Y-49293127D01*
X127386024Y-49321337D01*
X127403226Y-49353519D01*
X127413819Y-49388438D01*
X127418000Y-49430895D01*
X127418000Y-50572105D01*
X127413819Y-50614562D01*
X127403226Y-50649481D01*
X127386024Y-50681663D01*
X127362873Y-50709873D01*
X127334663Y-50733024D01*
X127302481Y-50750226D01*
X127267562Y-50760819D01*
X127225105Y-50765000D01*
X125758895Y-50765000D01*
X125716438Y-50760819D01*
X125681519Y-50750226D01*
X125649337Y-50733024D01*
X125621127Y-50709873D01*
X125597976Y-50681663D01*
X125580774Y-50649481D01*
X125570181Y-50614562D01*
X125566000Y-50572105D01*
X125566000Y-49430895D01*
X125570181Y-49388438D01*
X125580774Y-49353519D01*
X125597976Y-49321337D01*
X125621127Y-49293127D01*
X125649337Y-49269976D01*
X125681519Y-49252774D01*
X125716438Y-49242181D01*
X125758895Y-49238000D01*
X127225105Y-49238000D01*
X127267562Y-49242181D01*
G37*
G36*
X132093562Y-49242181D02*
G01*
X132128481Y-49252774D01*
X132160663Y-49269976D01*
X132188873Y-49293127D01*
X132212024Y-49321337D01*
X132229226Y-49353519D01*
X132239819Y-49388438D01*
X132244000Y-49430895D01*
X132244000Y-50572105D01*
X132239819Y-50614562D01*
X132229226Y-50649481D01*
X132212024Y-50681663D01*
X132188873Y-50709873D01*
X132160663Y-50733024D01*
X132128481Y-50750226D01*
X132093562Y-50760819D01*
X132051105Y-50765000D01*
X130584895Y-50765000D01*
X130542438Y-50760819D01*
X130507519Y-50750226D01*
X130475337Y-50733024D01*
X130447127Y-50709873D01*
X130423976Y-50681663D01*
X130406774Y-50649481D01*
X130396181Y-50614562D01*
X130392000Y-50572105D01*
X130392000Y-49430895D01*
X130396181Y-49388438D01*
X130406774Y-49353519D01*
X130423976Y-49321337D01*
X130447127Y-49293127D01*
X130475337Y-49269976D01*
X130507519Y-49252774D01*
X130542438Y-49242181D01*
X130584895Y-49238000D01*
X132051105Y-49238000D01*
X132093562Y-49242181D01*
G37*
G36*
X134379562Y-49242181D02*
G01*
X134414481Y-49252774D01*
X134446663Y-49269976D01*
X134474873Y-49293127D01*
X134498024Y-49321337D01*
X134515226Y-49353519D01*
X134525819Y-49388438D01*
X134530000Y-49430895D01*
X134530000Y-50572105D01*
X134525819Y-50614562D01*
X134515226Y-50649481D01*
X134498024Y-50681663D01*
X134474873Y-50709873D01*
X134446663Y-50733024D01*
X134414481Y-50750226D01*
X134379562Y-50760819D01*
X134337105Y-50765000D01*
X132870895Y-50765000D01*
X132828438Y-50760819D01*
X132793519Y-50750226D01*
X132761337Y-50733024D01*
X132733127Y-50709873D01*
X132709976Y-50681663D01*
X132692774Y-50649481D01*
X132682181Y-50614562D01*
X132678000Y-50572105D01*
X132678000Y-49430895D01*
X132682181Y-49388438D01*
X132692774Y-49353519D01*
X132709976Y-49321337D01*
X132733127Y-49293127D01*
X132761337Y-49269976D01*
X132793519Y-49252774D01*
X132828438Y-49242181D01*
X132870895Y-49238000D01*
X134337105Y-49238000D01*
X134379562Y-49242181D01*
G37*
G36*
X124957562Y-49240681D02*
G01*
X124992481Y-49251274D01*
X125024663Y-49268476D01*
X125052873Y-49291627D01*
X125076024Y-49319837D01*
X125093226Y-49352019D01*
X125103819Y-49386938D01*
X125108000Y-49429395D01*
X125108000Y-50570605D01*
X125103819Y-50613062D01*
X125093226Y-50647981D01*
X125076024Y-50680163D01*
X125052873Y-50708373D01*
X125024663Y-50731524D01*
X124992481Y-50748726D01*
X124957562Y-50759319D01*
X124915105Y-50763500D01*
X123448895Y-50763500D01*
X123406438Y-50759319D01*
X123371519Y-50748726D01*
X123339337Y-50731524D01*
X123311127Y-50708373D01*
X123287976Y-50680163D01*
X123270774Y-50647981D01*
X123260181Y-50613062D01*
X123256000Y-50570605D01*
X123256000Y-49429395D01*
X123260181Y-49386938D01*
X123270774Y-49352019D01*
X123287976Y-49319837D01*
X123311127Y-49291627D01*
X123339337Y-49268476D01*
X123371519Y-49251274D01*
X123406438Y-49240681D01*
X123448895Y-49236500D01*
X124915105Y-49236500D01*
X124957562Y-49240681D01*
G37*
G36*
X129366674Y-48917465D02*
G01*
X129404367Y-48928899D01*
X129439103Y-48947466D01*
X129469548Y-48972452D01*
X129494534Y-49002897D01*
X129513101Y-49037633D01*
X129524535Y-49075326D01*
X129529000Y-49120661D01*
X129529000Y-49957339D01*
X129524535Y-50002674D01*
X129513101Y-50040367D01*
X129494534Y-50075103D01*
X129469548Y-50105548D01*
X129439103Y-50130534D01*
X129404367Y-50149101D01*
X129366674Y-50160535D01*
X129321339Y-50165000D01*
X128234661Y-50165000D01*
X128189326Y-50160535D01*
X128151633Y-50149101D01*
X128116897Y-50130534D01*
X128086452Y-50105548D01*
X128061466Y-50075103D01*
X128042899Y-50040367D01*
X128031465Y-50002674D01*
X128027000Y-49957339D01*
X128027000Y-49120661D01*
X128031465Y-49075326D01*
X128042899Y-49037633D01*
X128061466Y-49002897D01*
X128086452Y-48972452D01*
X128116897Y-48947466D01*
X128151633Y-48928899D01*
X128189326Y-48917465D01*
X128234661Y-48913000D01*
X129321339Y-48913000D01*
X129366674Y-48917465D01*
G37*
G36*
X136478674Y-48917465D02*
G01*
X136516367Y-48928899D01*
X136551103Y-48947466D01*
X136581548Y-48972452D01*
X136606534Y-49002897D01*
X136625101Y-49037633D01*
X136636535Y-49075326D01*
X136641000Y-49120661D01*
X136641000Y-49957339D01*
X136636535Y-50002674D01*
X136625101Y-50040367D01*
X136606534Y-50075103D01*
X136581548Y-50105548D01*
X136551103Y-50130534D01*
X136516367Y-50149101D01*
X136478674Y-50160535D01*
X136433339Y-50165000D01*
X135346661Y-50165000D01*
X135301326Y-50160535D01*
X135263633Y-50149101D01*
X135228897Y-50130534D01*
X135198452Y-50105548D01*
X135173466Y-50075103D01*
X135154899Y-50040367D01*
X135143465Y-50002674D01*
X135139000Y-49957339D01*
X135139000Y-49120661D01*
X135143465Y-49075326D01*
X135154899Y-49037633D01*
X135173466Y-49002897D01*
X135198452Y-48972452D01*
X135228897Y-48947466D01*
X135263633Y-48928899D01*
X135301326Y-48917465D01*
X135346661Y-48913000D01*
X136433339Y-48913000D01*
X136478674Y-48917465D01*
G37*
G36*
X121377000Y-49738000D02*
G01*
X120637000Y-49738000D01*
X120637000Y-48298000D01*
X121377000Y-48298000D01*
X121377000Y-49738000D01*
G37*
G36*
X151315642Y-46981781D02*
G01*
X151439208Y-47032964D01*
X151461416Y-47042163D01*
X151592608Y-47129822D01*
X151704178Y-47241392D01*
X151791837Y-47372584D01*
X151791838Y-47372586D01*
X151852219Y-47518358D01*
X151883000Y-47673107D01*
X151883000Y-47830893D01*
X151852219Y-47985642D01*
X151800803Y-48109770D01*
X151791837Y-48131416D01*
X151704178Y-48262608D01*
X151592608Y-48374178D01*
X151461416Y-48461837D01*
X151461415Y-48461838D01*
X151461414Y-48461838D01*
X151315642Y-48522219D01*
X151160893Y-48553000D01*
X151003107Y-48553000D01*
X150848358Y-48522219D01*
X150702586Y-48461838D01*
X150702585Y-48461838D01*
X150702584Y-48461837D01*
X150571392Y-48374178D01*
X150459822Y-48262608D01*
X150372163Y-48131416D01*
X150363197Y-48109770D01*
X150311781Y-47985642D01*
X150281000Y-47830893D01*
X150281000Y-47673107D01*
X150311781Y-47518358D01*
X150372162Y-47372586D01*
X150372163Y-47372584D01*
X150459822Y-47241392D01*
X150571392Y-47129822D01*
X150702584Y-47042163D01*
X150724792Y-47032964D01*
X150848358Y-46981781D01*
X151003107Y-46951000D01*
X151160893Y-46951000D01*
X151315642Y-46981781D01*
G37*
G36*
X154315642Y-46981781D02*
G01*
X154439208Y-47032964D01*
X154461416Y-47042163D01*
X154592608Y-47129822D01*
X154704178Y-47241392D01*
X154791837Y-47372584D01*
X154791838Y-47372586D01*
X154852219Y-47518358D01*
X154883000Y-47673107D01*
X154883000Y-47830893D01*
X154852219Y-47985642D01*
X154800803Y-48109770D01*
X154791837Y-48131416D01*
X154704178Y-48262608D01*
X154592608Y-48374178D01*
X154461416Y-48461837D01*
X154461415Y-48461838D01*
X154461414Y-48461838D01*
X154315642Y-48522219D01*
X154160893Y-48553000D01*
X154003107Y-48553000D01*
X153848358Y-48522219D01*
X153702586Y-48461838D01*
X153702585Y-48461838D01*
X153702584Y-48461837D01*
X153571392Y-48374178D01*
X153459822Y-48262608D01*
X153372163Y-48131416D01*
X153363197Y-48109770D01*
X153311781Y-47985642D01*
X153281000Y-47830893D01*
X153281000Y-47673107D01*
X153311781Y-47518358D01*
X153372162Y-47372586D01*
X153372163Y-47372584D01*
X153459822Y-47241392D01*
X153571392Y-47129822D01*
X153702584Y-47042163D01*
X153724792Y-47032964D01*
X153848358Y-46981781D01*
X154003107Y-46951000D01*
X154160893Y-46951000D01*
X154315642Y-46981781D01*
G37*
G36*
X148735048Y-46955122D02*
G01*
X148769387Y-46965539D01*
X148801036Y-46982456D01*
X148828778Y-47005222D01*
X148851544Y-47032964D01*
X148868461Y-47064613D01*
X148878878Y-47098952D01*
X148883000Y-47140807D01*
X148883000Y-48363193D01*
X148878878Y-48405048D01*
X148868461Y-48439387D01*
X148851544Y-48471036D01*
X148828778Y-48498778D01*
X148801036Y-48521544D01*
X148769387Y-48538461D01*
X148735048Y-48548878D01*
X148693193Y-48553000D01*
X147470807Y-48553000D01*
X147428952Y-48548878D01*
X147394613Y-48538461D01*
X147362964Y-48521544D01*
X147335222Y-48498778D01*
X147312456Y-48471036D01*
X147295539Y-48439387D01*
X147285122Y-48405048D01*
X147281000Y-48363193D01*
X147281000Y-47140807D01*
X147285122Y-47098952D01*
X147295539Y-47064613D01*
X147312456Y-47032964D01*
X147335222Y-47005222D01*
X147362964Y-46982456D01*
X147394613Y-46965539D01*
X147428952Y-46955122D01*
X147470807Y-46951000D01*
X148693193Y-46951000D01*
X148735048Y-46955122D01*
G37*
G36*
X101837928Y-47530764D02*
G01*
X101859009Y-47537160D01*
X101878445Y-47547548D01*
X101895476Y-47561524D01*
X101909452Y-47578555D01*
X101919840Y-47597991D01*
X101926236Y-47619072D01*
X101929000Y-47647140D01*
X101929000Y-48110860D01*
X101926236Y-48138928D01*
X101919840Y-48160009D01*
X101909452Y-48179445D01*
X101895476Y-48196476D01*
X101878445Y-48210452D01*
X101859009Y-48220840D01*
X101837928Y-48227236D01*
X101809860Y-48230000D01*
X99996140Y-48230000D01*
X99968072Y-48227236D01*
X99946991Y-48220840D01*
X99927555Y-48210452D01*
X99910524Y-48196476D01*
X99896548Y-48179445D01*
X99886160Y-48160009D01*
X99879764Y-48138928D01*
X99877000Y-48110860D01*
X99877000Y-47647140D01*
X99879764Y-47619072D01*
X99886160Y-47597991D01*
X99896548Y-47578555D01*
X99910524Y-47561524D01*
X99927555Y-47547548D01*
X99946991Y-47537160D01*
X99968072Y-47530764D01*
X99996140Y-47528000D01*
X101809860Y-47528000D01*
X101837928Y-47530764D01*
G37*
G36*
X106787928Y-47530764D02*
G01*
X106809009Y-47537160D01*
X106828445Y-47547548D01*
X106845476Y-47561524D01*
X106859452Y-47578555D01*
X106869840Y-47597991D01*
X106876236Y-47619072D01*
X106879000Y-47647140D01*
X106879000Y-48110860D01*
X106876236Y-48138928D01*
X106869840Y-48160009D01*
X106859452Y-48179445D01*
X106845476Y-48196476D01*
X106828445Y-48210452D01*
X106809009Y-48220840D01*
X106787928Y-48227236D01*
X106759860Y-48230000D01*
X104946140Y-48230000D01*
X104918072Y-48227236D01*
X104896991Y-48220840D01*
X104877555Y-48210452D01*
X104860524Y-48196476D01*
X104846548Y-48179445D01*
X104836160Y-48160009D01*
X104829764Y-48138928D01*
X104827000Y-48110860D01*
X104827000Y-47647140D01*
X104829764Y-47619072D01*
X104836160Y-47597991D01*
X104846548Y-47578555D01*
X104860524Y-47561524D01*
X104877555Y-47547548D01*
X104896991Y-47537160D01*
X104918072Y-47530764D01*
X104946140Y-47528000D01*
X106759860Y-47528000D01*
X106787928Y-47530764D01*
G37*
G36*
X136478674Y-46867465D02*
G01*
X136516367Y-46878899D01*
X136551103Y-46897466D01*
X136581548Y-46922452D01*
X136606534Y-46952897D01*
X136625101Y-46987633D01*
X136636535Y-47025326D01*
X136641000Y-47070661D01*
X136641000Y-47907339D01*
X136636535Y-47952674D01*
X136625101Y-47990367D01*
X136606534Y-48025103D01*
X136581548Y-48055548D01*
X136551103Y-48080534D01*
X136516367Y-48099101D01*
X136478674Y-48110535D01*
X136433339Y-48115000D01*
X135346661Y-48115000D01*
X135301326Y-48110535D01*
X135263633Y-48099101D01*
X135228897Y-48080534D01*
X135198452Y-48055548D01*
X135173466Y-48025103D01*
X135154899Y-47990367D01*
X135143465Y-47952674D01*
X135139000Y-47907339D01*
X135139000Y-47070661D01*
X135143465Y-47025326D01*
X135154899Y-46987633D01*
X135173466Y-46952897D01*
X135198452Y-46922452D01*
X135228897Y-46897466D01*
X135263633Y-46878899D01*
X135301326Y-46867465D01*
X135346661Y-46863000D01*
X136433339Y-46863000D01*
X136478674Y-46867465D01*
G37*
G36*
X129366674Y-46867465D02*
G01*
X129404367Y-46878899D01*
X129439103Y-46897466D01*
X129469548Y-46922452D01*
X129494534Y-46952897D01*
X129513101Y-46987633D01*
X129524535Y-47025326D01*
X129529000Y-47070661D01*
X129529000Y-47907339D01*
X129524535Y-47952674D01*
X129513101Y-47990367D01*
X129494534Y-48025103D01*
X129469548Y-48055548D01*
X129439103Y-48080534D01*
X129404367Y-48099101D01*
X129366674Y-48110535D01*
X129321339Y-48115000D01*
X128234661Y-48115000D01*
X128189326Y-48110535D01*
X128151633Y-48099101D01*
X128116897Y-48080534D01*
X128086452Y-48055548D01*
X128061466Y-48025103D01*
X128042899Y-47990367D01*
X128031465Y-47952674D01*
X128027000Y-47907339D01*
X128027000Y-47070661D01*
X128031465Y-47025326D01*
X128042899Y-46987633D01*
X128061466Y-46952897D01*
X128086452Y-46922452D01*
X128116897Y-46897466D01*
X128151633Y-46878899D01*
X128189326Y-46867465D01*
X128234661Y-46863000D01*
X129321339Y-46863000D01*
X129366674Y-46867465D01*
G37*
G36*
X93149642Y-46473781D02*
G01*
X93295414Y-46534162D01*
X93295416Y-46534163D01*
X93426608Y-46621822D01*
X93538178Y-46733392D01*
X93625837Y-46864584D01*
X93625838Y-46864586D01*
X93686219Y-47010358D01*
X93717000Y-47165107D01*
X93717000Y-47322893D01*
X93686219Y-47477642D01*
X93625958Y-47623124D01*
X93625837Y-47623416D01*
X93538178Y-47754608D01*
X93426608Y-47866178D01*
X93295416Y-47953837D01*
X93295415Y-47953838D01*
X93295414Y-47953838D01*
X93149642Y-48014219D01*
X92994893Y-48045000D01*
X92837107Y-48045000D01*
X92682358Y-48014219D01*
X92536586Y-47953838D01*
X92536585Y-47953838D01*
X92536584Y-47953837D01*
X92405392Y-47866178D01*
X92293822Y-47754608D01*
X92206163Y-47623416D01*
X92206042Y-47623124D01*
X92145781Y-47477642D01*
X92115000Y-47322893D01*
X92115000Y-47165107D01*
X92145781Y-47010358D01*
X92206162Y-46864586D01*
X92206163Y-46864584D01*
X92293822Y-46733392D01*
X92405392Y-46621822D01*
X92536584Y-46534163D01*
X92536586Y-46534162D01*
X92682358Y-46473781D01*
X92837107Y-46443000D01*
X92994893Y-46443000D01*
X93149642Y-46473781D01*
G37*
G36*
X90569048Y-46447122D02*
G01*
X90603387Y-46457539D01*
X90635036Y-46474456D01*
X90662778Y-46497222D01*
X90685544Y-46524964D01*
X90702461Y-46556613D01*
X90712878Y-46590952D01*
X90717000Y-46632807D01*
X90717000Y-47855193D01*
X90712878Y-47897048D01*
X90702461Y-47931387D01*
X90685544Y-47963036D01*
X90662778Y-47990778D01*
X90635036Y-48013544D01*
X90603387Y-48030461D01*
X90569048Y-48040878D01*
X90527193Y-48045000D01*
X89304807Y-48045000D01*
X89262952Y-48040878D01*
X89228613Y-48030461D01*
X89196964Y-48013544D01*
X89169222Y-47990778D01*
X89146456Y-47963036D01*
X89129539Y-47931387D01*
X89119122Y-47897048D01*
X89115000Y-47855193D01*
X89115000Y-46632807D01*
X89119122Y-46590952D01*
X89129539Y-46556613D01*
X89146456Y-46524964D01*
X89169222Y-46497222D01*
X89196964Y-46474456D01*
X89228613Y-46457539D01*
X89262952Y-46447122D01*
X89304807Y-46443000D01*
X90527193Y-46443000D01*
X90569048Y-46447122D01*
G37*
G36*
X132093562Y-46267181D02*
G01*
X132128481Y-46277774D01*
X132160663Y-46294976D01*
X132188873Y-46318127D01*
X132212024Y-46346337D01*
X132229226Y-46378519D01*
X132239819Y-46413438D01*
X132244000Y-46455895D01*
X132244000Y-47597105D01*
X132239819Y-47639562D01*
X132229226Y-47674481D01*
X132212024Y-47706663D01*
X132188873Y-47734873D01*
X132160663Y-47758024D01*
X132128481Y-47775226D01*
X132093562Y-47785819D01*
X132051105Y-47790000D01*
X130584895Y-47790000D01*
X130542438Y-47785819D01*
X130507519Y-47775226D01*
X130475337Y-47758024D01*
X130447127Y-47734873D01*
X130423976Y-47706663D01*
X130406774Y-47674481D01*
X130396181Y-47639562D01*
X130392000Y-47597105D01*
X130392000Y-46455895D01*
X130396181Y-46413438D01*
X130406774Y-46378519D01*
X130423976Y-46346337D01*
X130447127Y-46318127D01*
X130475337Y-46294976D01*
X130507519Y-46277774D01*
X130542438Y-46267181D01*
X130584895Y-46263000D01*
X132051105Y-46263000D01*
X132093562Y-46267181D01*
G37*
G36*
X134379562Y-46267181D02*
G01*
X134414481Y-46277774D01*
X134446663Y-46294976D01*
X134474873Y-46318127D01*
X134498024Y-46346337D01*
X134515226Y-46378519D01*
X134525819Y-46413438D01*
X134530000Y-46455895D01*
X134530000Y-47597105D01*
X134525819Y-47639562D01*
X134515226Y-47674481D01*
X134498024Y-47706663D01*
X134474873Y-47734873D01*
X134446663Y-47758024D01*
X134414481Y-47775226D01*
X134379562Y-47785819D01*
X134337105Y-47790000D01*
X132870895Y-47790000D01*
X132828438Y-47785819D01*
X132793519Y-47775226D01*
X132761337Y-47758024D01*
X132733127Y-47734873D01*
X132709976Y-47706663D01*
X132692774Y-47674481D01*
X132682181Y-47639562D01*
X132678000Y-47597105D01*
X132678000Y-46455895D01*
X132682181Y-46413438D01*
X132692774Y-46378519D01*
X132709976Y-46346337D01*
X132733127Y-46318127D01*
X132761337Y-46294976D01*
X132793519Y-46277774D01*
X132828438Y-46267181D01*
X132870895Y-46263000D01*
X134337105Y-46263000D01*
X134379562Y-46267181D01*
G37*
G36*
X127267562Y-46267181D02*
G01*
X127302481Y-46277774D01*
X127334663Y-46294976D01*
X127362873Y-46318127D01*
X127386024Y-46346337D01*
X127403226Y-46378519D01*
X127413819Y-46413438D01*
X127418000Y-46455895D01*
X127418000Y-47597105D01*
X127413819Y-47639562D01*
X127403226Y-47674481D01*
X127386024Y-47706663D01*
X127362873Y-47734873D01*
X127334663Y-47758024D01*
X127302481Y-47775226D01*
X127267562Y-47785819D01*
X127225105Y-47790000D01*
X125758895Y-47790000D01*
X125716438Y-47785819D01*
X125681519Y-47775226D01*
X125649337Y-47758024D01*
X125621127Y-47734873D01*
X125597976Y-47706663D01*
X125580774Y-47674481D01*
X125570181Y-47639562D01*
X125566000Y-47597105D01*
X125566000Y-46455895D01*
X125570181Y-46413438D01*
X125580774Y-46378519D01*
X125597976Y-46346337D01*
X125621127Y-46318127D01*
X125649337Y-46294976D01*
X125681519Y-46277774D01*
X125716438Y-46267181D01*
X125758895Y-46263000D01*
X127225105Y-46263000D01*
X127267562Y-46267181D01*
G37*
G36*
X124957562Y-46265681D02*
G01*
X124992481Y-46276274D01*
X125024663Y-46293476D01*
X125052873Y-46316627D01*
X125076024Y-46344837D01*
X125093226Y-46377019D01*
X125103819Y-46411938D01*
X125108000Y-46454395D01*
X125108000Y-47595605D01*
X125103819Y-47638062D01*
X125093226Y-47672981D01*
X125076024Y-47705163D01*
X125052873Y-47733373D01*
X125024663Y-47756524D01*
X124992481Y-47773726D01*
X124957562Y-47784319D01*
X124915105Y-47788500D01*
X123448895Y-47788500D01*
X123406438Y-47784319D01*
X123371519Y-47773726D01*
X123339337Y-47756524D01*
X123311127Y-47733373D01*
X123287976Y-47705163D01*
X123270774Y-47672981D01*
X123260181Y-47638062D01*
X123256000Y-47595605D01*
X123256000Y-46454395D01*
X123260181Y-46411938D01*
X123270774Y-46377019D01*
X123287976Y-46344837D01*
X123311127Y-46316627D01*
X123339337Y-46293476D01*
X123371519Y-46276274D01*
X123406438Y-46265681D01*
X123448895Y-46261500D01*
X124915105Y-46261500D01*
X124957562Y-46265681D01*
G37*
G36*
X122327000Y-47638000D02*
G01*
X121587000Y-47638000D01*
X121587000Y-46198000D01*
X122327000Y-46198000D01*
X122327000Y-47638000D01*
G37*
G36*
X120427000Y-47638000D02*
G01*
X119687000Y-47638000D01*
X119687000Y-46198000D01*
X120427000Y-46198000D01*
X120427000Y-47638000D01*
G37*
G36*
X106787928Y-46260764D02*
G01*
X106809009Y-46267160D01*
X106828445Y-46277548D01*
X106845476Y-46291524D01*
X106859452Y-46308555D01*
X106869840Y-46327991D01*
X106876236Y-46349072D01*
X106879000Y-46377140D01*
X106879000Y-46840860D01*
X106876236Y-46868928D01*
X106869840Y-46890009D01*
X106859452Y-46909445D01*
X106845476Y-46926476D01*
X106828445Y-46940452D01*
X106809009Y-46950840D01*
X106787928Y-46957236D01*
X106759860Y-46960000D01*
X104946140Y-46960000D01*
X104918072Y-46957236D01*
X104896991Y-46950840D01*
X104877555Y-46940452D01*
X104860524Y-46926476D01*
X104846548Y-46909445D01*
X104836160Y-46890009D01*
X104829764Y-46868928D01*
X104827000Y-46840860D01*
X104827000Y-46377140D01*
X104829764Y-46349072D01*
X104836160Y-46327991D01*
X104846548Y-46308555D01*
X104860524Y-46291524D01*
X104877555Y-46277548D01*
X104896991Y-46267160D01*
X104918072Y-46260764D01*
X104946140Y-46258000D01*
X106759860Y-46258000D01*
X106787928Y-46260764D01*
G37*
G36*
X101837928Y-46260764D02*
G01*
X101859009Y-46267160D01*
X101878445Y-46277548D01*
X101895476Y-46291524D01*
X101909452Y-46308555D01*
X101919840Y-46327991D01*
X101926236Y-46349072D01*
X101929000Y-46377140D01*
X101929000Y-46840860D01*
X101926236Y-46868928D01*
X101919840Y-46890009D01*
X101909452Y-46909445D01*
X101895476Y-46926476D01*
X101878445Y-46940452D01*
X101859009Y-46950840D01*
X101837928Y-46957236D01*
X101809860Y-46960000D01*
X99996140Y-46960000D01*
X99968072Y-46957236D01*
X99946991Y-46950840D01*
X99927555Y-46940452D01*
X99910524Y-46926476D01*
X99896548Y-46909445D01*
X99886160Y-46890009D01*
X99879764Y-46868928D01*
X99877000Y-46840860D01*
X99877000Y-46377140D01*
X99879764Y-46349072D01*
X99886160Y-46327991D01*
X99896548Y-46308555D01*
X99910524Y-46291524D01*
X99927555Y-46277548D01*
X99946991Y-46267160D01*
X99968072Y-46260764D01*
X99996140Y-46258000D01*
X101809860Y-46258000D01*
X101837928Y-46260764D01*
G37*
G36*
X101837928Y-44990764D02*
G01*
X101859009Y-44997160D01*
X101878445Y-45007548D01*
X101895476Y-45021524D01*
X101909452Y-45038555D01*
X101919840Y-45057991D01*
X101926236Y-45079072D01*
X101929000Y-45107140D01*
X101929000Y-45570860D01*
X101926236Y-45598928D01*
X101919840Y-45620009D01*
X101909452Y-45639445D01*
X101895476Y-45656476D01*
X101878445Y-45670452D01*
X101859009Y-45680840D01*
X101837928Y-45687236D01*
X101809860Y-45690000D01*
X99996140Y-45690000D01*
X99968072Y-45687236D01*
X99946991Y-45680840D01*
X99927555Y-45670452D01*
X99910524Y-45656476D01*
X99896548Y-45639445D01*
X99886160Y-45620009D01*
X99879764Y-45598928D01*
X99877000Y-45570860D01*
X99877000Y-45107140D01*
X99879764Y-45079072D01*
X99886160Y-45057991D01*
X99896548Y-45038555D01*
X99910524Y-45021524D01*
X99927555Y-45007548D01*
X99946991Y-44997160D01*
X99968072Y-44990764D01*
X99996140Y-44988000D01*
X101809860Y-44988000D01*
X101837928Y-44990764D01*
G37*
G36*
X106787928Y-44990764D02*
G01*
X106809009Y-44997160D01*
X106828445Y-45007548D01*
X106845476Y-45021524D01*
X106859452Y-45038555D01*
X106869840Y-45057991D01*
X106876236Y-45079072D01*
X106879000Y-45107140D01*
X106879000Y-45570860D01*
X106876236Y-45598928D01*
X106869840Y-45620009D01*
X106859452Y-45639445D01*
X106845476Y-45656476D01*
X106828445Y-45670452D01*
X106809009Y-45680840D01*
X106787928Y-45687236D01*
X106759860Y-45690000D01*
X104946140Y-45690000D01*
X104918072Y-45687236D01*
X104896991Y-45680840D01*
X104877555Y-45670452D01*
X104860524Y-45656476D01*
X104846548Y-45639445D01*
X104836160Y-45620009D01*
X104829764Y-45598928D01*
X104827000Y-45570860D01*
X104827000Y-45107140D01*
X104829764Y-45079072D01*
X104836160Y-45057991D01*
X104846548Y-45038555D01*
X104860524Y-45021524D01*
X104877555Y-45007548D01*
X104896991Y-44997160D01*
X104918072Y-44990764D01*
X104946140Y-44988000D01*
X106759860Y-44988000D01*
X106787928Y-44990764D01*
G37*
G36*
X113013928Y-44101764D02*
G01*
X113035009Y-44108160D01*
X113054445Y-44118548D01*
X113071476Y-44132524D01*
X113085452Y-44149555D01*
X113095840Y-44168991D01*
X113102236Y-44190072D01*
X113105000Y-44218140D01*
X113105000Y-44681860D01*
X113102236Y-44709928D01*
X113095840Y-44731009D01*
X113085452Y-44750445D01*
X113071476Y-44767476D01*
X113054445Y-44781452D01*
X113035009Y-44791840D01*
X113013928Y-44798236D01*
X112985860Y-44801000D01*
X111172140Y-44801000D01*
X111144072Y-44798236D01*
X111122991Y-44791840D01*
X111103555Y-44781452D01*
X111086524Y-44767476D01*
X111072548Y-44750445D01*
X111062160Y-44731009D01*
X111055764Y-44709928D01*
X111053000Y-44681860D01*
X111053000Y-44218140D01*
X111055764Y-44190072D01*
X111062160Y-44168991D01*
X111072548Y-44149555D01*
X111086524Y-44132524D01*
X111103555Y-44118548D01*
X111122991Y-44108160D01*
X111144072Y-44101764D01*
X111172140Y-44099000D01*
X112985860Y-44099000D01*
X113013928Y-44101764D01*
G37*
G36*
X117963928Y-44101764D02*
G01*
X117985009Y-44108160D01*
X118004445Y-44118548D01*
X118021476Y-44132524D01*
X118035452Y-44149555D01*
X118045840Y-44168991D01*
X118052236Y-44190072D01*
X118055000Y-44218140D01*
X118055000Y-44681860D01*
X118052236Y-44709928D01*
X118045840Y-44731009D01*
X118035452Y-44750445D01*
X118021476Y-44767476D01*
X118004445Y-44781452D01*
X117985009Y-44791840D01*
X117963928Y-44798236D01*
X117935860Y-44801000D01*
X116122140Y-44801000D01*
X116094072Y-44798236D01*
X116072991Y-44791840D01*
X116053555Y-44781452D01*
X116036524Y-44767476D01*
X116022548Y-44750445D01*
X116012160Y-44731009D01*
X116005764Y-44709928D01*
X116003000Y-44681860D01*
X116003000Y-44218140D01*
X116005764Y-44190072D01*
X116012160Y-44168991D01*
X116022548Y-44149555D01*
X116036524Y-44132524D01*
X116053555Y-44118548D01*
X116072991Y-44108160D01*
X116094072Y-44101764D01*
X116122140Y-44099000D01*
X117935860Y-44099000D01*
X117963928Y-44101764D01*
G37*
G36*
X106787928Y-43720764D02*
G01*
X106809009Y-43727160D01*
X106828445Y-43737548D01*
X106845476Y-43751524D01*
X106859452Y-43768555D01*
X106869840Y-43787991D01*
X106876236Y-43809072D01*
X106879000Y-43837140D01*
X106879000Y-44300860D01*
X106876236Y-44328928D01*
X106869840Y-44350009D01*
X106859452Y-44369445D01*
X106845476Y-44386476D01*
X106828445Y-44400452D01*
X106809009Y-44410840D01*
X106787928Y-44417236D01*
X106759860Y-44420000D01*
X104946140Y-44420000D01*
X104918072Y-44417236D01*
X104896991Y-44410840D01*
X104877555Y-44400452D01*
X104860524Y-44386476D01*
X104846548Y-44369445D01*
X104836160Y-44350009D01*
X104829764Y-44328928D01*
X104827000Y-44300860D01*
X104827000Y-43837140D01*
X104829764Y-43809072D01*
X104836160Y-43787991D01*
X104846548Y-43768555D01*
X104860524Y-43751524D01*
X104877555Y-43737548D01*
X104896991Y-43727160D01*
X104918072Y-43720764D01*
X104946140Y-43718000D01*
X106759860Y-43718000D01*
X106787928Y-43720764D01*
G37*
G36*
X101837928Y-43720764D02*
G01*
X101859009Y-43727160D01*
X101878445Y-43737548D01*
X101895476Y-43751524D01*
X101909452Y-43768555D01*
X101919840Y-43787991D01*
X101926236Y-43809072D01*
X101929000Y-43837140D01*
X101929000Y-44300860D01*
X101926236Y-44328928D01*
X101919840Y-44350009D01*
X101909452Y-44369445D01*
X101895476Y-44386476D01*
X101878445Y-44400452D01*
X101859009Y-44410840D01*
X101837928Y-44417236D01*
X101809860Y-44420000D01*
X99996140Y-44420000D01*
X99968072Y-44417236D01*
X99946991Y-44410840D01*
X99927555Y-44400452D01*
X99910524Y-44386476D01*
X99896548Y-44369445D01*
X99886160Y-44350009D01*
X99879764Y-44328928D01*
X99877000Y-44300860D01*
X99877000Y-43837140D01*
X99879764Y-43809072D01*
X99886160Y-43787991D01*
X99896548Y-43768555D01*
X99910524Y-43751524D01*
X99927555Y-43737548D01*
X99946991Y-43727160D01*
X99968072Y-43720764D01*
X99996140Y-43718000D01*
X101809860Y-43718000D01*
X101837928Y-43720764D01*
G37*
G36*
X134736000Y-43680000D02*
G01*
X133996000Y-43680000D01*
X133996000Y-42240000D01*
X134736000Y-42240000D01*
X134736000Y-43680000D01*
G37*
G36*
X113013928Y-42831764D02*
G01*
X113035009Y-42838160D01*
X113054445Y-42848548D01*
X113071476Y-42862524D01*
X113085452Y-42879555D01*
X113095840Y-42898991D01*
X113102236Y-42920072D01*
X113105000Y-42948140D01*
X113105000Y-43411860D01*
X113102236Y-43439928D01*
X113095840Y-43461009D01*
X113085452Y-43480445D01*
X113071476Y-43497476D01*
X113054445Y-43511452D01*
X113035009Y-43521840D01*
X113013928Y-43528236D01*
X112985860Y-43531000D01*
X111172140Y-43531000D01*
X111144072Y-43528236D01*
X111122991Y-43521840D01*
X111103555Y-43511452D01*
X111086524Y-43497476D01*
X111072548Y-43480445D01*
X111062160Y-43461009D01*
X111055764Y-43439928D01*
X111053000Y-43411860D01*
X111053000Y-42948140D01*
X111055764Y-42920072D01*
X111062160Y-42898991D01*
X111072548Y-42879555D01*
X111086524Y-42862524D01*
X111103555Y-42848548D01*
X111122991Y-42838160D01*
X111144072Y-42831764D01*
X111172140Y-42829000D01*
X112985860Y-42829000D01*
X113013928Y-42831764D01*
G37*
G36*
X117963928Y-42831764D02*
G01*
X117985009Y-42838160D01*
X118004445Y-42848548D01*
X118021476Y-42862524D01*
X118035452Y-42879555D01*
X118045840Y-42898991D01*
X118052236Y-42920072D01*
X118055000Y-42948140D01*
X118055000Y-43411860D01*
X118052236Y-43439928D01*
X118045840Y-43461009D01*
X118035452Y-43480445D01*
X118021476Y-43497476D01*
X118004445Y-43511452D01*
X117985009Y-43521840D01*
X117963928Y-43528236D01*
X117935860Y-43531000D01*
X116122140Y-43531000D01*
X116094072Y-43528236D01*
X116072991Y-43521840D01*
X116053555Y-43511452D01*
X116036524Y-43497476D01*
X116022548Y-43480445D01*
X116012160Y-43461009D01*
X116005764Y-43439928D01*
X116003000Y-43411860D01*
X116003000Y-42948140D01*
X116005764Y-42920072D01*
X116012160Y-42898991D01*
X116022548Y-42879555D01*
X116036524Y-42862524D01*
X116053555Y-42848548D01*
X116072991Y-42838160D01*
X116094072Y-42831764D01*
X116122140Y-42829000D01*
X117935860Y-42829000D01*
X117963928Y-42831764D01*
G37*
G36*
X123944000Y-43230000D02*
G01*
X122504000Y-43230000D01*
X122504000Y-42490000D01*
X123944000Y-42490000D01*
X123944000Y-43230000D01*
G37*
G36*
X130006000Y-43164000D02*
G01*
X128566000Y-43164000D01*
X128566000Y-42424000D01*
X130006000Y-42424000D01*
X130006000Y-43164000D01*
G37*
G36*
X89783256Y-39031298D02*
G01*
X89889579Y-39052447D01*
X90190042Y-39176903D01*
X90460451Y-39357585D01*
X90690415Y-39587549D01*
X90871097Y-39857958D01*
X90992522Y-40151103D01*
X90995553Y-40158422D01*
X91059000Y-40477389D01*
X91059000Y-40802611D01*
X91022077Y-40988236D01*
X90995553Y-41121579D01*
X90871097Y-41422042D01*
X90690415Y-41692451D01*
X90460451Y-41922415D01*
X90190042Y-42103097D01*
X89889579Y-42227553D01*
X89819704Y-42241452D01*
X89570611Y-42291000D01*
X89245389Y-42291000D01*
X88996296Y-42241452D01*
X88926421Y-42227553D01*
X88625958Y-42103097D01*
X88355549Y-41922415D01*
X88125585Y-41692451D01*
X87944903Y-41422042D01*
X87820447Y-41121579D01*
X87793923Y-40988236D01*
X87757000Y-40802611D01*
X87757000Y-40477389D01*
X87820447Y-40158422D01*
X87823479Y-40151103D01*
X87944903Y-39857958D01*
X88125585Y-39587549D01*
X88355549Y-39357585D01*
X88625958Y-39176903D01*
X88926421Y-39052447D01*
X89032744Y-39031298D01*
X89245389Y-38989000D01*
X89570611Y-38989000D01*
X89783256Y-39031298D01*
G37*
G36*
X101172674Y-41043465D02*
G01*
X101210367Y-41054899D01*
X101245103Y-41073466D01*
X101275548Y-41098452D01*
X101300534Y-41128897D01*
X101319101Y-41163633D01*
X101330535Y-41201326D01*
X101335000Y-41246661D01*
X101335000Y-42083339D01*
X101330535Y-42128674D01*
X101319101Y-42166367D01*
X101300534Y-42201103D01*
X101275548Y-42231548D01*
X101245103Y-42256534D01*
X101210367Y-42275101D01*
X101172674Y-42286535D01*
X101127339Y-42291000D01*
X100040661Y-42291000D01*
X99995326Y-42286535D01*
X99957633Y-42275101D01*
X99922897Y-42256534D01*
X99892452Y-42231548D01*
X99867466Y-42201103D01*
X99848899Y-42166367D01*
X99837465Y-42128674D01*
X99833000Y-42083339D01*
X99833000Y-41246661D01*
X99837465Y-41201326D01*
X99848899Y-41163633D01*
X99867466Y-41128897D01*
X99892452Y-41098452D01*
X99922897Y-41073466D01*
X99957633Y-41054899D01*
X99995326Y-41043465D01*
X100040661Y-41039000D01*
X101127339Y-41039000D01*
X101172674Y-41043465D01*
G37*
G36*
X154783256Y-39031298D02*
G01*
X154889579Y-39052447D01*
X155190042Y-39176903D01*
X155460451Y-39357585D01*
X155690415Y-39587549D01*
X155871097Y-39857958D01*
X155992522Y-40151103D01*
X155995553Y-40158422D01*
X156059000Y-40477389D01*
X156059000Y-40802611D01*
X156022077Y-40988236D01*
X155995553Y-41121579D01*
X155871097Y-41422042D01*
X155690415Y-41692451D01*
X155460451Y-41922415D01*
X155190042Y-42103097D01*
X154889579Y-42227553D01*
X154819704Y-42241452D01*
X154570611Y-42291000D01*
X154245389Y-42291000D01*
X153996296Y-42241452D01*
X153926421Y-42227553D01*
X153625958Y-42103097D01*
X153355549Y-41922415D01*
X153125585Y-41692451D01*
X152944903Y-41422042D01*
X152820447Y-41121579D01*
X152793923Y-40988236D01*
X152757000Y-40802611D01*
X152757000Y-40477389D01*
X152820447Y-40158422D01*
X152823479Y-40151103D01*
X152944903Y-39857958D01*
X153125585Y-39587549D01*
X153355549Y-39357585D01*
X153625958Y-39176903D01*
X153926421Y-39052447D01*
X154032744Y-39031298D01*
X154245389Y-38989000D01*
X154570611Y-38989000D01*
X154783256Y-39031298D01*
G37*
G36*
X96600674Y-41043465D02*
G01*
X96638367Y-41054899D01*
X96673103Y-41073466D01*
X96703548Y-41098452D01*
X96728534Y-41128897D01*
X96747101Y-41163633D01*
X96758535Y-41201326D01*
X96763000Y-41246661D01*
X96763000Y-42083339D01*
X96758535Y-42128674D01*
X96747101Y-42166367D01*
X96728534Y-42201103D01*
X96703548Y-42231548D01*
X96673103Y-42256534D01*
X96638367Y-42275101D01*
X96600674Y-42286535D01*
X96555339Y-42291000D01*
X95468661Y-42291000D01*
X95423326Y-42286535D01*
X95385633Y-42275101D01*
X95350897Y-42256534D01*
X95320452Y-42231548D01*
X95295466Y-42201103D01*
X95276899Y-42166367D01*
X95265465Y-42128674D01*
X95261000Y-42083339D01*
X95261000Y-41246661D01*
X95265465Y-41201326D01*
X95276899Y-41163633D01*
X95295466Y-41128897D01*
X95320452Y-41098452D01*
X95350897Y-41073466D01*
X95385633Y-41054899D01*
X95423326Y-41043465D01*
X95468661Y-41039000D01*
X96555339Y-41039000D01*
X96600674Y-41043465D01*
G37*
G36*
X121844000Y-42280000D02*
G01*
X120404000Y-42280000D01*
X120404000Y-41540000D01*
X121844000Y-41540000D01*
X121844000Y-42280000D01*
G37*
G36*
X113013928Y-41561764D02*
G01*
X113035009Y-41568160D01*
X113054445Y-41578548D01*
X113071476Y-41592524D01*
X113085452Y-41609555D01*
X113095840Y-41628991D01*
X113102236Y-41650072D01*
X113105000Y-41678140D01*
X113105000Y-42141860D01*
X113102236Y-42169928D01*
X113095840Y-42191009D01*
X113085452Y-42210445D01*
X113071476Y-42227476D01*
X113054445Y-42241452D01*
X113035009Y-42251840D01*
X113013928Y-42258236D01*
X112985860Y-42261000D01*
X111172140Y-42261000D01*
X111144072Y-42258236D01*
X111122991Y-42251840D01*
X111103555Y-42241452D01*
X111086524Y-42227476D01*
X111072548Y-42210445D01*
X111062160Y-42191009D01*
X111055764Y-42169928D01*
X111053000Y-42141860D01*
X111053000Y-41678140D01*
X111055764Y-41650072D01*
X111062160Y-41628991D01*
X111072548Y-41609555D01*
X111086524Y-41592524D01*
X111103555Y-41578548D01*
X111122991Y-41568160D01*
X111144072Y-41561764D01*
X111172140Y-41559000D01*
X112985860Y-41559000D01*
X113013928Y-41561764D01*
G37*
G36*
X117963928Y-41561764D02*
G01*
X117985009Y-41568160D01*
X118004445Y-41578548D01*
X118021476Y-41592524D01*
X118035452Y-41609555D01*
X118045840Y-41628991D01*
X118052236Y-41650072D01*
X118055000Y-41678140D01*
X118055000Y-42141860D01*
X118052236Y-42169928D01*
X118045840Y-42191009D01*
X118035452Y-42210445D01*
X118021476Y-42227476D01*
X118004445Y-42241452D01*
X117985009Y-42251840D01*
X117963928Y-42258236D01*
X117935860Y-42261000D01*
X116122140Y-42261000D01*
X116094072Y-42258236D01*
X116072991Y-42251840D01*
X116053555Y-42241452D01*
X116036524Y-42227476D01*
X116022548Y-42210445D01*
X116012160Y-42191009D01*
X116005764Y-42169928D01*
X116003000Y-42141860D01*
X116003000Y-41678140D01*
X116005764Y-41650072D01*
X116012160Y-41628991D01*
X116022548Y-41609555D01*
X116036524Y-41592524D01*
X116053555Y-41578548D01*
X116072991Y-41568160D01*
X116094072Y-41561764D01*
X116122140Y-41559000D01*
X117935860Y-41559000D01*
X117963928Y-41561764D01*
G37*
G36*
X127906000Y-42214000D02*
G01*
X126466000Y-42214000D01*
X126466000Y-41474000D01*
X127906000Y-41474000D01*
X127906000Y-42214000D01*
G37*
G36*
X133786000Y-41580000D02*
G01*
X133046000Y-41580000D01*
X133046000Y-40140000D01*
X133786000Y-40140000D01*
X133786000Y-41580000D01*
G37*
G36*
X135686000Y-41580000D02*
G01*
X134946000Y-41580000D01*
X134946000Y-40140000D01*
X135686000Y-40140000D01*
X135686000Y-41580000D01*
G37*
G36*
X123944000Y-41330000D02*
G01*
X122504000Y-41330000D01*
X122504000Y-40590000D01*
X123944000Y-40590000D01*
X123944000Y-41330000D01*
G37*
G36*
X130006000Y-41264000D02*
G01*
X128566000Y-41264000D01*
X128566000Y-40524000D01*
X130006000Y-40524000D01*
X130006000Y-41264000D01*
G37*
G36*
X117963928Y-40291764D02*
G01*
X117985009Y-40298160D01*
X118004445Y-40308548D01*
X118021476Y-40322524D01*
X118035452Y-40339555D01*
X118045840Y-40358991D01*
X118052236Y-40380072D01*
X118055000Y-40408140D01*
X118055000Y-40871860D01*
X118052236Y-40899928D01*
X118045840Y-40921009D01*
X118035452Y-40940445D01*
X118021476Y-40957476D01*
X118004445Y-40971452D01*
X117985009Y-40981840D01*
X117963928Y-40988236D01*
X117935860Y-40991000D01*
X116122140Y-40991000D01*
X116094072Y-40988236D01*
X116072991Y-40981840D01*
X116053555Y-40971452D01*
X116036524Y-40957476D01*
X116022548Y-40940445D01*
X116012160Y-40921009D01*
X116005764Y-40899928D01*
X116003000Y-40871860D01*
X116003000Y-40408140D01*
X116005764Y-40380072D01*
X116012160Y-40358991D01*
X116022548Y-40339555D01*
X116036524Y-40322524D01*
X116053555Y-40308548D01*
X116072991Y-40298160D01*
X116094072Y-40291764D01*
X116122140Y-40289000D01*
X117935860Y-40289000D01*
X117963928Y-40291764D01*
G37*
G36*
X113013928Y-40291764D02*
G01*
X113035009Y-40298160D01*
X113054445Y-40308548D01*
X113071476Y-40322524D01*
X113085452Y-40339555D01*
X113095840Y-40358991D01*
X113102236Y-40380072D01*
X113105000Y-40408140D01*
X113105000Y-40871860D01*
X113102236Y-40899928D01*
X113095840Y-40921009D01*
X113085452Y-40940445D01*
X113071476Y-40957476D01*
X113054445Y-40971452D01*
X113035009Y-40981840D01*
X113013928Y-40988236D01*
X112985860Y-40991000D01*
X111172140Y-40991000D01*
X111144072Y-40988236D01*
X111122991Y-40981840D01*
X111103555Y-40971452D01*
X111086524Y-40957476D01*
X111072548Y-40940445D01*
X111062160Y-40921009D01*
X111055764Y-40899928D01*
X111053000Y-40871860D01*
X111053000Y-40408140D01*
X111055764Y-40380072D01*
X111062160Y-40358991D01*
X111072548Y-40339555D01*
X111086524Y-40322524D01*
X111103555Y-40308548D01*
X111122991Y-40298160D01*
X111144072Y-40291764D01*
X111172140Y-40289000D01*
X112985860Y-40289000D01*
X113013928Y-40291764D01*
G37*
G36*
X96600674Y-38993465D02*
G01*
X96638367Y-39004899D01*
X96673103Y-39023466D01*
X96703548Y-39048452D01*
X96728534Y-39078897D01*
X96747101Y-39113633D01*
X96758535Y-39151326D01*
X96763000Y-39196661D01*
X96763000Y-40033339D01*
X96758535Y-40078674D01*
X96747101Y-40116367D01*
X96728534Y-40151103D01*
X96703548Y-40181548D01*
X96673103Y-40206534D01*
X96638367Y-40225101D01*
X96600674Y-40236535D01*
X96555339Y-40241000D01*
X95468661Y-40241000D01*
X95423326Y-40236535D01*
X95385633Y-40225101D01*
X95350897Y-40206534D01*
X95320452Y-40181548D01*
X95295466Y-40151103D01*
X95276899Y-40116367D01*
X95265465Y-40078674D01*
X95261000Y-40033339D01*
X95261000Y-39196661D01*
X95265465Y-39151326D01*
X95276899Y-39113633D01*
X95295466Y-39078897D01*
X95320452Y-39048452D01*
X95350897Y-39023466D01*
X95385633Y-39004899D01*
X95423326Y-38993465D01*
X95468661Y-38989000D01*
X96555339Y-38989000D01*
X96600674Y-38993465D01*
G37*
G36*
X101172674Y-38993465D02*
G01*
X101210367Y-39004899D01*
X101245103Y-39023466D01*
X101275548Y-39048452D01*
X101300534Y-39078897D01*
X101319101Y-39113633D01*
X101330535Y-39151326D01*
X101335000Y-39196661D01*
X101335000Y-40033339D01*
X101330535Y-40078674D01*
X101319101Y-40116367D01*
X101300534Y-40151103D01*
X101275548Y-40181548D01*
X101245103Y-40206534D01*
X101210367Y-40225101D01*
X101172674Y-40236535D01*
X101127339Y-40241000D01*
X100040661Y-40241000D01*
X99995326Y-40236535D01*
X99957633Y-40225101D01*
X99922897Y-40206534D01*
X99892452Y-40181548D01*
X99867466Y-40151103D01*
X99848899Y-40116367D01*
X99837465Y-40078674D01*
X99833000Y-40033339D01*
X99833000Y-39196661D01*
X99837465Y-39151326D01*
X99848899Y-39113633D01*
X99867466Y-39078897D01*
X99892452Y-39048452D01*
X99922897Y-39023466D01*
X99957633Y-39004899D01*
X99995326Y-38993465D01*
X100040661Y-38989000D01*
X101127339Y-38989000D01*
X101172674Y-38993465D01*
G37*
G36*
X108198228Y-37789703D02*
G01*
X108353100Y-37853853D01*
X108492481Y-37946985D01*
X108611015Y-38065519D01*
X108704147Y-38204900D01*
X108768297Y-38359772D01*
X108801000Y-38524184D01*
X108801000Y-38691816D01*
X108768297Y-38856228D01*
X108704147Y-39011100D01*
X108611015Y-39150481D01*
X108492481Y-39269015D01*
X108353100Y-39362147D01*
X108198228Y-39426297D01*
X108033816Y-39459000D01*
X107866184Y-39459000D01*
X107701772Y-39426297D01*
X107546900Y-39362147D01*
X107407519Y-39269015D01*
X107288985Y-39150481D01*
X107195853Y-39011100D01*
X107131703Y-38856228D01*
X107099000Y-38691816D01*
X107099000Y-38524184D01*
X107131703Y-38359772D01*
X107195853Y-38204900D01*
X107288985Y-38065519D01*
X107407519Y-37946985D01*
X107546900Y-37853853D01*
X107701772Y-37789703D01*
X107866184Y-37757000D01*
X108033816Y-37757000D01*
X108198228Y-37789703D01*
G37*
G36*
X110738228Y-37789703D02*
G01*
X110893100Y-37853853D01*
X111032481Y-37946985D01*
X111151015Y-38065519D01*
X111244147Y-38204900D01*
X111308297Y-38359772D01*
X111341000Y-38524184D01*
X111341000Y-38691816D01*
X111308297Y-38856228D01*
X111244147Y-39011100D01*
X111151015Y-39150481D01*
X111032481Y-39269015D01*
X110893100Y-39362147D01*
X110738228Y-39426297D01*
X110573816Y-39459000D01*
X110406184Y-39459000D01*
X110241772Y-39426297D01*
X110086900Y-39362147D01*
X109947519Y-39269015D01*
X109828985Y-39150481D01*
X109735853Y-39011100D01*
X109671703Y-38856228D01*
X109639000Y-38691816D01*
X109639000Y-38524184D01*
X109671703Y-38359772D01*
X109735853Y-38204900D01*
X109828985Y-38065519D01*
X109947519Y-37946985D01*
X110086900Y-37853853D01*
X110241772Y-37789703D01*
X110406184Y-37757000D01*
X110573816Y-37757000D01*
X110738228Y-37789703D01*
G37*
G36*
X113278228Y-37789703D02*
G01*
X113433100Y-37853853D01*
X113572481Y-37946985D01*
X113691015Y-38065519D01*
X113784147Y-38204900D01*
X113848297Y-38359772D01*
X113881000Y-38524184D01*
X113881000Y-38691816D01*
X113848297Y-38856228D01*
X113784147Y-39011100D01*
X113691015Y-39150481D01*
X113572481Y-39269015D01*
X113433100Y-39362147D01*
X113278228Y-39426297D01*
X113113816Y-39459000D01*
X112946184Y-39459000D01*
X112781772Y-39426297D01*
X112626900Y-39362147D01*
X112487519Y-39269015D01*
X112368985Y-39150481D01*
X112275853Y-39011100D01*
X112211703Y-38856228D01*
X112179000Y-38691816D01*
X112179000Y-38524184D01*
X112211703Y-38359772D01*
X112275853Y-38204900D01*
X112368985Y-38065519D01*
X112487519Y-37946985D01*
X112626900Y-37853853D01*
X112781772Y-37789703D01*
X112946184Y-37757000D01*
X113113816Y-37757000D01*
X113278228Y-37789703D01*
G37*
G36*
X115818228Y-37789703D02*
G01*
X115973100Y-37853853D01*
X116112481Y-37946985D01*
X116231015Y-38065519D01*
X116324147Y-38204900D01*
X116388297Y-38359772D01*
X116421000Y-38524184D01*
X116421000Y-38691816D01*
X116388297Y-38856228D01*
X116324147Y-39011100D01*
X116231015Y-39150481D01*
X116112481Y-39269015D01*
X115973100Y-39362147D01*
X115818228Y-39426297D01*
X115653816Y-39459000D01*
X115486184Y-39459000D01*
X115321772Y-39426297D01*
X115166900Y-39362147D01*
X115027519Y-39269015D01*
X114908985Y-39150481D01*
X114815853Y-39011100D01*
X114751703Y-38856228D01*
X114719000Y-38691816D01*
X114719000Y-38524184D01*
X114751703Y-38359772D01*
X114815853Y-38204900D01*
X114908985Y-38065519D01*
X115027519Y-37946985D01*
X115166900Y-37853853D01*
X115321772Y-37789703D01*
X115486184Y-37757000D01*
X115653816Y-37757000D01*
X115818228Y-37789703D01*
G37*
G36*
X118358228Y-37789703D02*
G01*
X118513100Y-37853853D01*
X118652481Y-37946985D01*
X118771015Y-38065519D01*
X118864147Y-38204900D01*
X118928297Y-38359772D01*
X118961000Y-38524184D01*
X118961000Y-38691816D01*
X118928297Y-38856228D01*
X118864147Y-39011100D01*
X118771015Y-39150481D01*
X118652481Y-39269015D01*
X118513100Y-39362147D01*
X118358228Y-39426297D01*
X118193816Y-39459000D01*
X118026184Y-39459000D01*
X117861772Y-39426297D01*
X117706900Y-39362147D01*
X117567519Y-39269015D01*
X117448985Y-39150481D01*
X117355853Y-39011100D01*
X117291703Y-38856228D01*
X117259000Y-38691816D01*
X117259000Y-38524184D01*
X117291703Y-38359772D01*
X117355853Y-38204900D01*
X117448985Y-38065519D01*
X117567519Y-37946985D01*
X117706900Y-37853853D01*
X117861772Y-37789703D01*
X118026184Y-37757000D01*
X118193816Y-37757000D01*
X118358228Y-37789703D01*
G37*
G36*
X120898228Y-37789703D02*
G01*
X121053100Y-37853853D01*
X121192481Y-37946985D01*
X121311015Y-38065519D01*
X121404147Y-38204900D01*
X121468297Y-38359772D01*
X121501000Y-38524184D01*
X121501000Y-38691816D01*
X121468297Y-38856228D01*
X121404147Y-39011100D01*
X121311015Y-39150481D01*
X121192481Y-39269015D01*
X121053100Y-39362147D01*
X120898228Y-39426297D01*
X120733816Y-39459000D01*
X120566184Y-39459000D01*
X120401772Y-39426297D01*
X120246900Y-39362147D01*
X120107519Y-39269015D01*
X119988985Y-39150481D01*
X119895853Y-39011100D01*
X119831703Y-38856228D01*
X119799000Y-38691816D01*
X119799000Y-38524184D01*
X119831703Y-38359772D01*
X119895853Y-38204900D01*
X119988985Y-38065519D01*
X120107519Y-37946985D01*
X120246900Y-37853853D01*
X120401772Y-37789703D01*
X120566184Y-37757000D01*
X120733816Y-37757000D01*
X120898228Y-37789703D01*
G37*
G36*
X123438228Y-37789703D02*
G01*
X123593100Y-37853853D01*
X123732481Y-37946985D01*
X123851015Y-38065519D01*
X123944147Y-38204900D01*
X124008297Y-38359772D01*
X124041000Y-38524184D01*
X124041000Y-38691816D01*
X124008297Y-38856228D01*
X123944147Y-39011100D01*
X123851015Y-39150481D01*
X123732481Y-39269015D01*
X123593100Y-39362147D01*
X123438228Y-39426297D01*
X123273816Y-39459000D01*
X123106184Y-39459000D01*
X122941772Y-39426297D01*
X122786900Y-39362147D01*
X122647519Y-39269015D01*
X122528985Y-39150481D01*
X122435853Y-39011100D01*
X122371703Y-38856228D01*
X122339000Y-38691816D01*
X122339000Y-38524184D01*
X122371703Y-38359772D01*
X122435853Y-38204900D01*
X122528985Y-38065519D01*
X122647519Y-37946985D01*
X122786900Y-37853853D01*
X122941772Y-37789703D01*
X123106184Y-37757000D01*
X123273816Y-37757000D01*
X123438228Y-37789703D01*
G37*
G36*
X125978228Y-37789703D02*
G01*
X126133100Y-37853853D01*
X126272481Y-37946985D01*
X126391015Y-38065519D01*
X126484147Y-38204900D01*
X126548297Y-38359772D01*
X126581000Y-38524184D01*
X126581000Y-38691816D01*
X126548297Y-38856228D01*
X126484147Y-39011100D01*
X126391015Y-39150481D01*
X126272481Y-39269015D01*
X126133100Y-39362147D01*
X125978228Y-39426297D01*
X125813816Y-39459000D01*
X125646184Y-39459000D01*
X125481772Y-39426297D01*
X125326900Y-39362147D01*
X125187519Y-39269015D01*
X125068985Y-39150481D01*
X124975853Y-39011100D01*
X124911703Y-38856228D01*
X124879000Y-38691816D01*
X124879000Y-38524184D01*
X124911703Y-38359772D01*
X124975853Y-38204900D01*
X125068985Y-38065519D01*
X125187519Y-37946985D01*
X125326900Y-37853853D01*
X125481772Y-37789703D01*
X125646184Y-37757000D01*
X125813816Y-37757000D01*
X125978228Y-37789703D01*
G37*
G36*
X128518228Y-37789703D02*
G01*
X128673100Y-37853853D01*
X128812481Y-37946985D01*
X128931015Y-38065519D01*
X129024147Y-38204900D01*
X129088297Y-38359772D01*
X129121000Y-38524184D01*
X129121000Y-38691816D01*
X129088297Y-38856228D01*
X129024147Y-39011100D01*
X128931015Y-39150481D01*
X128812481Y-39269015D01*
X128673100Y-39362147D01*
X128518228Y-39426297D01*
X128353816Y-39459000D01*
X128186184Y-39459000D01*
X128021772Y-39426297D01*
X127866900Y-39362147D01*
X127727519Y-39269015D01*
X127608985Y-39150481D01*
X127515853Y-39011100D01*
X127451703Y-38856228D01*
X127419000Y-38691816D01*
X127419000Y-38524184D01*
X127451703Y-38359772D01*
X127515853Y-38204900D01*
X127608985Y-38065519D01*
X127727519Y-37946985D01*
X127866900Y-37853853D01*
X128021772Y-37789703D01*
X128186184Y-37757000D01*
X128353816Y-37757000D01*
X128518228Y-37789703D01*
G37*
G36*
X141218228Y-37789703D02*
G01*
X141373100Y-37853853D01*
X141512481Y-37946985D01*
X141631015Y-38065519D01*
X141724147Y-38204900D01*
X141788297Y-38359772D01*
X141821000Y-38524184D01*
X141821000Y-38691816D01*
X141788297Y-38856228D01*
X141724147Y-39011100D01*
X141631015Y-39150481D01*
X141512481Y-39269015D01*
X141373100Y-39362147D01*
X141218228Y-39426297D01*
X141053816Y-39459000D01*
X140886184Y-39459000D01*
X140721772Y-39426297D01*
X140566900Y-39362147D01*
X140427519Y-39269015D01*
X140308985Y-39150481D01*
X140215853Y-39011100D01*
X140151703Y-38856228D01*
X140119000Y-38691816D01*
X140119000Y-38524184D01*
X140151703Y-38359772D01*
X140215853Y-38204900D01*
X140308985Y-38065519D01*
X140427519Y-37946985D01*
X140566900Y-37853853D01*
X140721772Y-37789703D01*
X140886184Y-37757000D01*
X141053816Y-37757000D01*
X141218228Y-37789703D01*
G37*
G36*
X138678228Y-37789703D02*
G01*
X138833100Y-37853853D01*
X138972481Y-37946985D01*
X139091015Y-38065519D01*
X139184147Y-38204900D01*
X139248297Y-38359772D01*
X139281000Y-38524184D01*
X139281000Y-38691816D01*
X139248297Y-38856228D01*
X139184147Y-39011100D01*
X139091015Y-39150481D01*
X138972481Y-39269015D01*
X138833100Y-39362147D01*
X138678228Y-39426297D01*
X138513816Y-39459000D01*
X138346184Y-39459000D01*
X138181772Y-39426297D01*
X138026900Y-39362147D01*
X137887519Y-39269015D01*
X137768985Y-39150481D01*
X137675853Y-39011100D01*
X137611703Y-38856228D01*
X137579000Y-38691816D01*
X137579000Y-38524184D01*
X137611703Y-38359772D01*
X137675853Y-38204900D01*
X137768985Y-38065519D01*
X137887519Y-37946985D01*
X138026900Y-37853853D01*
X138181772Y-37789703D01*
X138346184Y-37757000D01*
X138513816Y-37757000D01*
X138678228Y-37789703D01*
G37*
G36*
X131058228Y-37789703D02*
G01*
X131213100Y-37853853D01*
X131352481Y-37946985D01*
X131471015Y-38065519D01*
X131564147Y-38204900D01*
X131628297Y-38359772D01*
X131661000Y-38524184D01*
X131661000Y-38691816D01*
X131628297Y-38856228D01*
X131564147Y-39011100D01*
X131471015Y-39150481D01*
X131352481Y-39269015D01*
X131213100Y-39362147D01*
X131058228Y-39426297D01*
X130893816Y-39459000D01*
X130726184Y-39459000D01*
X130561772Y-39426297D01*
X130406900Y-39362147D01*
X130267519Y-39269015D01*
X130148985Y-39150481D01*
X130055853Y-39011100D01*
X129991703Y-38856228D01*
X129959000Y-38691816D01*
X129959000Y-38524184D01*
X129991703Y-38359772D01*
X130055853Y-38204900D01*
X130148985Y-38065519D01*
X130267519Y-37946985D01*
X130406900Y-37853853D01*
X130561772Y-37789703D01*
X130726184Y-37757000D01*
X130893816Y-37757000D01*
X131058228Y-37789703D01*
G37*
G36*
X133598228Y-37789703D02*
G01*
X133753100Y-37853853D01*
X133892481Y-37946985D01*
X134011015Y-38065519D01*
X134104147Y-38204900D01*
X134168297Y-38359772D01*
X134201000Y-38524184D01*
X134201000Y-38691816D01*
X134168297Y-38856228D01*
X134104147Y-39011100D01*
X134011015Y-39150481D01*
X133892481Y-39269015D01*
X133753100Y-39362147D01*
X133598228Y-39426297D01*
X133433816Y-39459000D01*
X133266184Y-39459000D01*
X133101772Y-39426297D01*
X132946900Y-39362147D01*
X132807519Y-39269015D01*
X132688985Y-39150481D01*
X132595853Y-39011100D01*
X132531703Y-38856228D01*
X132499000Y-38691816D01*
X132499000Y-38524184D01*
X132531703Y-38359772D01*
X132595853Y-38204900D01*
X132688985Y-38065519D01*
X132807519Y-37946985D01*
X132946900Y-37853853D01*
X133101772Y-37789703D01*
X133266184Y-37757000D01*
X133433816Y-37757000D01*
X133598228Y-37789703D01*
G37*
G36*
X136138228Y-37789703D02*
G01*
X136293100Y-37853853D01*
X136432481Y-37946985D01*
X136551015Y-38065519D01*
X136644147Y-38204900D01*
X136708297Y-38359772D01*
X136741000Y-38524184D01*
X136741000Y-38691816D01*
X136708297Y-38856228D01*
X136644147Y-39011100D01*
X136551015Y-39150481D01*
X136432481Y-39269015D01*
X136293100Y-39362147D01*
X136138228Y-39426297D01*
X135973816Y-39459000D01*
X135806184Y-39459000D01*
X135641772Y-39426297D01*
X135486900Y-39362147D01*
X135347519Y-39269015D01*
X135228985Y-39150481D01*
X135135853Y-39011100D01*
X135071703Y-38856228D01*
X135039000Y-38691816D01*
X135039000Y-38524184D01*
X135071703Y-38359772D01*
X135135853Y-38204900D01*
X135228985Y-38065519D01*
X135347519Y-37946985D01*
X135486900Y-37853853D01*
X135641772Y-37789703D01*
X135806184Y-37757000D01*
X135973816Y-37757000D01*
X136138228Y-37789703D01*
G37*
M02*
