M48
INCH,TZ
T1C0.0157
T2C0.0300
T3C0.0394
T4C0.0433
%
G90
G05
T1
X34640Y-34086
X34971Y-33065
X36591Y-33185
X37091Y-22085
X37741Y-27735
X37791Y-15535
X37941Y-24435
X38600Y-19600
X38700Y-20500
X38700Y-21500
X39000Y-17400
X39391Y-27735
X39441Y-22949
X39600Y-15600
X39650Y-17850
X39691Y-26685
X39700Y-18350
X40091Y-21285
X40491Y-26685
X40600Y-16600
X40691Y-27585
X40900Y-16300
X41340Y-21235
X41391Y-22949
X41500Y-17800
X41600Y-18400
X42117Y-26672
X42800Y-18700
X42841Y-26685
X43091Y-27585
X43341Y-22949
X43500Y-18752
X44050Y-16500
X44050Y-17000
X44605Y-27585
X44817Y-26672
X45291Y-22949
X45541Y-26685
X46000Y-17100
X46150Y-16450
X47191Y-26685
X47241Y-18485
X47241Y-22949
X47700Y-16400
X47800Y-17500
X47991Y-26685
X48191Y-27585
X48600Y-16100
X48600Y-16900
X48900Y-19600
X49691Y-27585
X49800Y-19686
X49891Y-26685
X50000Y-16400
X50000Y-17500
X50691Y-26685
X50891Y-27585
X51000Y-16100
X51000Y-16900
X51700Y-19600
X51711Y-18514
X51800Y-17500
X52091Y-28285
X52100Y-16100
X52391Y-22385
X52614Y-19686
X52891Y-22385
X52900Y-17100
X53300Y-16100
X53800Y-17300
X54291Y-17285
X55141Y-30135
X55391Y-24935
X56191Y-24935
X56291Y-30135
X56391Y-23135
X56541Y-19485
T2
X36191Y-24285
X36191Y-25285
X36191Y-26285
X36191Y-27285
X36191Y-28285
X36191Y-29285
T3
X38500Y-34000
X38500Y-35181
X39681Y-34000
X39681Y-35181
X35400Y-18600
X35400Y-19781
X36581Y-18600
X36581Y-19781
X54041Y-33985
X54041Y-35166
X55222Y-33985
X55222Y-35166
X43500Y-34000
X43500Y-35181
X44681Y-34000
X44681Y-35181
X45862Y-34000
X45862Y-35181
X47043Y-34000
X47043Y-35181
X48224Y-34000
X48224Y-35181
X49406Y-34000
X49406Y-35181
X58300Y-18800
X58300Y-19981
X59481Y-18800
X59481Y-19981
X60662Y-18800
X60662Y-19981
T4
X42500Y-15200
X42500Y-21200
X43500Y-15200
X43500Y-21200
X44500Y-15200
X44500Y-21200
X45500Y-15200
X45500Y-21200
X46500Y-15200
X46500Y-21200
X47500Y-15200
X47500Y-21200
X48500Y-15200
X48500Y-21200
X49500Y-15200
X49500Y-21200
X50500Y-15200
X50500Y-21200
X51500Y-15200
X51500Y-21200
X52500Y-15200
X52500Y-21200
X53500Y-15200
X53500Y-21200
X54500Y-15200
X54500Y-21200
X55500Y-15200
X55500Y-21200
T0
M30
