M48
INCH,TZ
T1C0.0157
T2C0.0315
T3C0.0551
T4C0.0591
%
G90
G05
T1
X27717Y-37717
X27778Y-36517
X29264Y-39919
X29667Y-32642
X29717Y-33367
X29817Y-39317
X29842Y-38567
X30117Y-37117
X30810Y-38179
X31317Y-38517
X31339Y-41317
X31342Y-40867
X31492Y-42317
X31667Y-38117
X31842Y-41442
X32017Y-39317
X32049Y-37492
X32415Y-35815
X32517Y-42517
X32654Y-39322
X33317Y-36517
X33685Y-41448
X33717Y-40117
X34117Y-39317
X34317Y-36441
X34336Y-38357
X34385Y-41448
X34667Y-36717
X34717Y-37572
X35100Y-40117
X35192Y-33417
X35242Y-32592
X35263Y-37217
X35317Y-41967
X35392Y-37952
X36055Y-41055
X36517Y-39767
X36617Y-38817
X36799Y-36813
X37260Y-36155
X37517Y-38317
X37717Y-37217
X37817Y-39817
X37917Y-40467
X39093Y-35343
X39417Y-37517
X39517Y-40467
X39917Y-36617
X40855Y-33404
X40942Y-32592
X40998Y-34649
X41067Y-40467
X41917Y-36217
X42642Y-40442
X44035Y-32131
X44088Y-28613
X44267Y-40467
X44367Y-39467
X45617Y-31617
X46226Y-31007
X46351Y-29567
X46568Y-26403
X46568Y-27308
X46568Y-28214
T2
X34150Y-29200
X35150Y-29200
X36150Y-29200
X39750Y-29200
X40750Y-29200
X41750Y-29200
X28650Y-29200
X29650Y-29200
X30650Y-29200
T3
X31157Y-24313
X31157Y-25967
X32811Y-24313
X32811Y-25967
X34464Y-24313
X34464Y-25967
X37250Y-24326
X37250Y-25979
X38904Y-24326
X38904Y-25979
X41785Y-24274
X41785Y-25927
T4
X27850Y-31000
X42550Y-31000
X31550Y-34817
X36950Y-31000
X28317Y-26467
X31450Y-31000
X38950Y-31000
X42650Y-34800
X33350Y-31000
X37050Y-34800
T0
M30
