G04 #@! TF.GenerationSoftware,KiCad,Pcbnew,(5.1.0)-1*
G04 #@! TF.CreationDate,2019-10-16T14:08:09+11:00*
G04 #@! TF.ProjectId,BSPD,42535044-2e6b-4696-9361-645f70636258,rev?*
G04 #@! TF.SameCoordinates,Original*
G04 #@! TF.FileFunction,Legend,Top*
G04 #@! TF.FilePolarity,Positive*
%FSLAX46Y46*%
G04 Gerber Fmt 4.6, Leading zero omitted, Abs format (unit mm)*
G04 Created by KiCad (PCBNEW (5.1.0)-1) date 2019-10-16 14:08:09*
%MOMM*%
%LPD*%
G04 APERTURE LIST*
%ADD10C,0.150000*%
%ADD11C,0.010000*%
%ADD12C,0.120000*%
G04 APERTURE END LIST*
D10*
X111381380Y-79615333D02*
X111381380Y-79424857D01*
X111429000Y-79329619D01*
X111524238Y-79234380D01*
X111714714Y-79186761D01*
X112048047Y-79186761D01*
X112238523Y-79234380D01*
X112333761Y-79329619D01*
X112381380Y-79424857D01*
X112381380Y-79615333D01*
X112333761Y-79710571D01*
X112238523Y-79805809D01*
X112048047Y-79853428D01*
X111714714Y-79853428D01*
X111524238Y-79805809D01*
X111429000Y-79710571D01*
X111381380Y-79615333D01*
X111714714Y-78329619D02*
X112381380Y-78329619D01*
X111714714Y-78758190D02*
X112238523Y-78758190D01*
X112333761Y-78710571D01*
X112381380Y-78615333D01*
X112381380Y-78472476D01*
X112333761Y-78377238D01*
X112286142Y-78329619D01*
X111714714Y-77996285D02*
X111714714Y-77615333D01*
X111381380Y-77853428D02*
X112238523Y-77853428D01*
X112333761Y-77805809D01*
X112381380Y-77710571D01*
X112381380Y-77615333D01*
X111270142Y-108523571D02*
X111317761Y-108571190D01*
X111365380Y-108714047D01*
X111365380Y-108809285D01*
X111317761Y-108952142D01*
X111222523Y-109047380D01*
X111127285Y-109095000D01*
X110936809Y-109142619D01*
X110793952Y-109142619D01*
X110603476Y-109095000D01*
X110508238Y-109047380D01*
X110413000Y-108952142D01*
X110365380Y-108809285D01*
X110365380Y-108714047D01*
X110413000Y-108571190D01*
X110460619Y-108523571D01*
X110698714Y-107666428D02*
X111365380Y-107666428D01*
X110698714Y-108095000D02*
X111222523Y-108095000D01*
X111317761Y-108047380D01*
X111365380Y-107952142D01*
X111365380Y-107809285D01*
X111317761Y-107714047D01*
X111270142Y-107666428D01*
X111365380Y-107190238D02*
X110698714Y-107190238D01*
X110889190Y-107190238D02*
X110793952Y-107142619D01*
X110746333Y-107095000D01*
X110698714Y-106999761D01*
X110698714Y-106904523D01*
X111365380Y-106571190D02*
X110698714Y-106571190D01*
X110889190Y-106571190D02*
X110793952Y-106523571D01*
X110746333Y-106475952D01*
X110698714Y-106380714D01*
X110698714Y-106285476D01*
X111317761Y-105571190D02*
X111365380Y-105666428D01*
X111365380Y-105856904D01*
X111317761Y-105952142D01*
X111222523Y-105999761D01*
X110841571Y-105999761D01*
X110746333Y-105952142D01*
X110698714Y-105856904D01*
X110698714Y-105666428D01*
X110746333Y-105571190D01*
X110841571Y-105523571D01*
X110936809Y-105523571D01*
X111032047Y-105999761D01*
X110698714Y-105095000D02*
X111365380Y-105095000D01*
X110793952Y-105095000D02*
X110746333Y-105047380D01*
X110698714Y-104952142D01*
X110698714Y-104809285D01*
X110746333Y-104714047D01*
X110841571Y-104666428D01*
X111365380Y-104666428D01*
X110698714Y-104333095D02*
X110698714Y-103952142D01*
X110365380Y-104190238D02*
X111222523Y-104190238D01*
X111317761Y-104142619D01*
X111365380Y-104047380D01*
X111365380Y-103952142D01*
X106777571Y-108714047D02*
X106825190Y-108571190D01*
X106872809Y-108523571D01*
X106968047Y-108475952D01*
X107110904Y-108475952D01*
X107206142Y-108523571D01*
X107253761Y-108571190D01*
X107301380Y-108666428D01*
X107301380Y-109047380D01*
X106301380Y-109047380D01*
X106301380Y-108714047D01*
X106349000Y-108618809D01*
X106396619Y-108571190D01*
X106491857Y-108523571D01*
X106587095Y-108523571D01*
X106682333Y-108571190D01*
X106729952Y-108618809D01*
X106777571Y-108714047D01*
X106777571Y-109047380D01*
X107301380Y-108047380D02*
X106634714Y-108047380D01*
X106825190Y-108047380D02*
X106729952Y-107999761D01*
X106682333Y-107952142D01*
X106634714Y-107856904D01*
X106634714Y-107761666D01*
X107301380Y-107428333D02*
X106301380Y-107428333D01*
X106920428Y-107333095D02*
X107301380Y-107047380D01*
X106634714Y-107047380D02*
X107015666Y-107428333D01*
X106777571Y-106285476D02*
X106777571Y-106618809D01*
X107301380Y-106618809D02*
X106301380Y-106618809D01*
X106301380Y-106142619D01*
X107301380Y-105761666D02*
X106634714Y-105761666D01*
X106825190Y-105761666D02*
X106729952Y-105714047D01*
X106682333Y-105666428D01*
X106634714Y-105571190D01*
X106634714Y-105475952D01*
X106634714Y-105142619D02*
X107301380Y-105142619D01*
X106729952Y-105142619D02*
X106682333Y-105095000D01*
X106634714Y-104999761D01*
X106634714Y-104856904D01*
X106682333Y-104761666D01*
X106777571Y-104714047D01*
X107301380Y-104714047D01*
X106634714Y-104380714D02*
X106634714Y-103999761D01*
X106301380Y-104237857D02*
X107158523Y-104237857D01*
X107253761Y-104190238D01*
X107301380Y-104095000D01*
X107301380Y-103999761D01*
X102713571Y-109055333D02*
X102761190Y-108912476D01*
X102808809Y-108864857D01*
X102904047Y-108817238D01*
X103046904Y-108817238D01*
X103142142Y-108864857D01*
X103189761Y-108912476D01*
X103237380Y-109007714D01*
X103237380Y-109388666D01*
X102237380Y-109388666D01*
X102237380Y-109055333D01*
X102285000Y-108960095D01*
X102332619Y-108912476D01*
X102427857Y-108864857D01*
X102523095Y-108864857D01*
X102618333Y-108912476D01*
X102665952Y-108960095D01*
X102713571Y-109055333D01*
X102713571Y-109388666D01*
X103237380Y-108388666D02*
X102570714Y-108388666D01*
X102761190Y-108388666D02*
X102665952Y-108341047D01*
X102618333Y-108293428D01*
X102570714Y-108198190D01*
X102570714Y-108102952D01*
X103237380Y-107769619D02*
X102237380Y-107769619D01*
X102856428Y-107674380D02*
X103237380Y-107388666D01*
X102570714Y-107388666D02*
X102951666Y-107769619D01*
X103237380Y-106388666D02*
X102761190Y-106722000D01*
X103237380Y-106960095D02*
X102237380Y-106960095D01*
X102237380Y-106579142D01*
X102285000Y-106483904D01*
X102332619Y-106436285D01*
X102427857Y-106388666D01*
X102570714Y-106388666D01*
X102665952Y-106436285D01*
X102713571Y-106483904D01*
X102761190Y-106579142D01*
X102761190Y-106960095D01*
X103189761Y-105579142D02*
X103237380Y-105674380D01*
X103237380Y-105864857D01*
X103189761Y-105960095D01*
X103094523Y-106007714D01*
X102713571Y-106007714D01*
X102618333Y-105960095D01*
X102570714Y-105864857D01*
X102570714Y-105674380D01*
X102618333Y-105579142D01*
X102713571Y-105531523D01*
X102808809Y-105531523D01*
X102904047Y-106007714D01*
X103237380Y-104674380D02*
X102713571Y-104674380D01*
X102618333Y-104722000D01*
X102570714Y-104817238D01*
X102570714Y-105007714D01*
X102618333Y-105102952D01*
X103189761Y-104674380D02*
X103237380Y-104769619D01*
X103237380Y-105007714D01*
X103189761Y-105102952D01*
X103094523Y-105150571D01*
X102999285Y-105150571D01*
X102904047Y-105102952D01*
X102856428Y-105007714D01*
X102856428Y-104769619D01*
X102808809Y-104674380D01*
X103237380Y-104198190D02*
X102570714Y-104198190D01*
X102761190Y-104198190D02*
X102665952Y-104150571D01*
X102618333Y-104102952D01*
X102570714Y-104007714D01*
X102570714Y-103912476D01*
X99300380Y-107666333D02*
X98300380Y-107666333D01*
X98300380Y-107285380D01*
X98348000Y-107190142D01*
X98395619Y-107142523D01*
X98490857Y-107094904D01*
X98633714Y-107094904D01*
X98728952Y-107142523D01*
X98776571Y-107190142D01*
X98824190Y-107285380D01*
X98824190Y-107666333D01*
X99300380Y-106523476D02*
X99252761Y-106618714D01*
X99157523Y-106666333D01*
X98300380Y-106666333D01*
X99300380Y-105713952D02*
X98776571Y-105713952D01*
X98681333Y-105761571D01*
X98633714Y-105856809D01*
X98633714Y-106047285D01*
X98681333Y-106142523D01*
X99252761Y-105713952D02*
X99300380Y-105809190D01*
X99300380Y-106047285D01*
X99252761Y-106142523D01*
X99157523Y-106190142D01*
X99062285Y-106190142D01*
X98967047Y-106142523D01*
X98919428Y-106047285D01*
X98919428Y-105809190D01*
X98871809Y-105713952D01*
X98633714Y-104809190D02*
X99300380Y-104809190D01*
X98633714Y-105237761D02*
X99157523Y-105237761D01*
X99252761Y-105190142D01*
X99300380Y-105094904D01*
X99300380Y-104952047D01*
X99252761Y-104856809D01*
X99205142Y-104809190D01*
X99252761Y-104380619D02*
X99300380Y-104285380D01*
X99300380Y-104094904D01*
X99252761Y-103999666D01*
X99157523Y-103952047D01*
X99109904Y-103952047D01*
X99014666Y-103999666D01*
X98967047Y-104094904D01*
X98967047Y-104237761D01*
X98919428Y-104333000D01*
X98824190Y-104380619D01*
X98776571Y-104380619D01*
X98681333Y-104333000D01*
X98633714Y-104237761D01*
X98633714Y-104094904D01*
X98681333Y-103999666D01*
X94123000Y-108991809D02*
X94123000Y-107944190D01*
X94490380Y-108563238D02*
X94490380Y-108372761D01*
X94538000Y-108277523D01*
X94633238Y-108182285D01*
X94823714Y-108134666D01*
X95157047Y-108134666D01*
X95347523Y-108182285D01*
X95442761Y-108277523D01*
X95490380Y-108372761D01*
X95490380Y-108563238D01*
X95442761Y-108658476D01*
X95347523Y-108753714D01*
X95157047Y-108801333D01*
X94823714Y-108801333D01*
X94633238Y-108753714D01*
X94538000Y-108658476D01*
X94490380Y-108563238D01*
X94123000Y-107944190D02*
X94123000Y-106944190D01*
X95395142Y-107134666D02*
X95442761Y-107182285D01*
X95490380Y-107325142D01*
X95490380Y-107420380D01*
X95442761Y-107563238D01*
X95347523Y-107658476D01*
X95252285Y-107706095D01*
X95061809Y-107753714D01*
X94918952Y-107753714D01*
X94728476Y-107706095D01*
X94633238Y-107658476D01*
X94538000Y-107563238D01*
X94490380Y-107420380D01*
X94490380Y-107325142D01*
X94538000Y-107182285D01*
X94585619Y-107134666D01*
X94123000Y-106944190D02*
X94123000Y-105896571D01*
X94442761Y-105991809D02*
X95728476Y-106848952D01*
X94123000Y-105896571D02*
X94123000Y-104944190D01*
X95442761Y-105706095D02*
X95490380Y-105563238D01*
X95490380Y-105325142D01*
X95442761Y-105229904D01*
X95395142Y-105182285D01*
X95299904Y-105134666D01*
X95204666Y-105134666D01*
X95109428Y-105182285D01*
X95061809Y-105229904D01*
X95014190Y-105325142D01*
X94966571Y-105515619D01*
X94918952Y-105610857D01*
X94871333Y-105658476D01*
X94776095Y-105706095D01*
X94680857Y-105706095D01*
X94585619Y-105658476D01*
X94538000Y-105610857D01*
X94490380Y-105515619D01*
X94490380Y-105277523D01*
X94538000Y-105134666D01*
X94123000Y-104944190D02*
X94123000Y-103944190D01*
X95395142Y-104134666D02*
X95442761Y-104182285D01*
X95490380Y-104325142D01*
X95490380Y-104420380D01*
X95442761Y-104563238D01*
X95347523Y-104658476D01*
X95252285Y-104706095D01*
X95061809Y-104753714D01*
X94918952Y-104753714D01*
X94728476Y-104706095D01*
X94633238Y-104658476D01*
X94538000Y-104563238D01*
X94490380Y-104420380D01*
X94490380Y-104325142D01*
X94538000Y-104182285D01*
X94585619Y-104134666D01*
X84021285Y-108444380D02*
X84021285Y-107444380D01*
X84354619Y-108158666D01*
X84687952Y-107444380D01*
X84687952Y-108444380D01*
X85830809Y-107444380D02*
X86068904Y-108444380D01*
X86259380Y-107730095D01*
X86449857Y-108444380D01*
X86687952Y-107444380D01*
X87068904Y-108444380D02*
X87068904Y-107444380D01*
X87497476Y-108444380D02*
X87497476Y-107920571D01*
X87449857Y-107825333D01*
X87354619Y-107777714D01*
X87211761Y-107777714D01*
X87116523Y-107825333D01*
X87068904Y-107872952D01*
X87973666Y-108444380D02*
X87973666Y-107777714D01*
X87973666Y-107444380D02*
X87926047Y-107492000D01*
X87973666Y-107539619D01*
X88021285Y-107492000D01*
X87973666Y-107444380D01*
X87973666Y-107539619D01*
X88307000Y-107777714D02*
X88687952Y-107777714D01*
X88449857Y-107444380D02*
X88449857Y-108301523D01*
X88497476Y-108396761D01*
X88592714Y-108444380D01*
X88687952Y-108444380D01*
X88926047Y-107777714D02*
X89116523Y-108444380D01*
X89307000Y-107968190D01*
X89497476Y-108444380D01*
X89687952Y-107777714D01*
X90211761Y-108444380D02*
X90116523Y-108396761D01*
X90068904Y-108349142D01*
X90021285Y-108253904D01*
X90021285Y-107968190D01*
X90068904Y-107872952D01*
X90116523Y-107825333D01*
X90211761Y-107777714D01*
X90354619Y-107777714D01*
X90449857Y-107825333D01*
X90497476Y-107872952D01*
X90545095Y-107968190D01*
X90545095Y-108253904D01*
X90497476Y-108349142D01*
X90449857Y-108396761D01*
X90354619Y-108444380D01*
X90211761Y-108444380D01*
X90973666Y-108444380D02*
X90973666Y-107777714D01*
X90973666Y-107968190D02*
X91021285Y-107872952D01*
X91068904Y-107825333D01*
X91164142Y-107777714D01*
X91259380Y-107777714D01*
X91449857Y-107777714D02*
X91830809Y-107777714D01*
X91592714Y-107444380D02*
X91592714Y-108301523D01*
X91640333Y-108396761D01*
X91735571Y-108444380D01*
X91830809Y-108444380D01*
X92164142Y-108444380D02*
X92164142Y-107444380D01*
X92592714Y-108444380D02*
X92592714Y-107920571D01*
X92545095Y-107825333D01*
X92449857Y-107777714D01*
X92307000Y-107777714D01*
X92211761Y-107825333D01*
X92164142Y-107872952D01*
X76303523Y-107942071D02*
X76446380Y-107989690D01*
X76494000Y-108037309D01*
X76541619Y-108132547D01*
X76541619Y-108275404D01*
X76494000Y-108370642D01*
X76446380Y-108418261D01*
X76351142Y-108465880D01*
X75970190Y-108465880D01*
X75970190Y-107465880D01*
X76303523Y-107465880D01*
X76398761Y-107513500D01*
X76446380Y-107561119D01*
X76494000Y-107656357D01*
X76494000Y-107751595D01*
X76446380Y-107846833D01*
X76398761Y-107894452D01*
X76303523Y-107942071D01*
X75970190Y-107942071D01*
X76922571Y-108418261D02*
X77065428Y-108465880D01*
X77303523Y-108465880D01*
X77398761Y-108418261D01*
X77446380Y-108370642D01*
X77494000Y-108275404D01*
X77494000Y-108180166D01*
X77446380Y-108084928D01*
X77398761Y-108037309D01*
X77303523Y-107989690D01*
X77113047Y-107942071D01*
X77017809Y-107894452D01*
X76970190Y-107846833D01*
X76922571Y-107751595D01*
X76922571Y-107656357D01*
X76970190Y-107561119D01*
X77017809Y-107513500D01*
X77113047Y-107465880D01*
X77351142Y-107465880D01*
X77494000Y-107513500D01*
X77922571Y-108465880D02*
X77922571Y-107465880D01*
X78303523Y-107465880D01*
X78398761Y-107513500D01*
X78446380Y-107561119D01*
X78494000Y-107656357D01*
X78494000Y-107799214D01*
X78446380Y-107894452D01*
X78398761Y-107942071D01*
X78303523Y-107989690D01*
X77922571Y-107989690D01*
X78922571Y-108465880D02*
X78922571Y-107465880D01*
X79160666Y-107465880D01*
X79303523Y-107513500D01*
X79398761Y-107608738D01*
X79446380Y-107703976D01*
X79494000Y-107894452D01*
X79494000Y-108037309D01*
X79446380Y-108227785D01*
X79398761Y-108323023D01*
X79303523Y-108418261D01*
X79160666Y-108465880D01*
X78922571Y-108465880D01*
X80541619Y-107465880D02*
X80874952Y-108465880D01*
X81208285Y-107465880D01*
X82065428Y-108465880D02*
X81494000Y-108465880D01*
X81779714Y-108465880D02*
X81779714Y-107465880D01*
X81684476Y-107608738D01*
X81589238Y-107703976D01*
X81494000Y-107751595D01*
D11*
G36*
X109763716Y-91661015D02*
G01*
X109884895Y-91664383D01*
X109978189Y-91669483D01*
X110035300Y-91675894D01*
X110049400Y-91681392D01*
X110039059Y-91709830D01*
X110010141Y-91777157D01*
X109965801Y-91876345D01*
X109909195Y-92000367D01*
X109843478Y-92142194D01*
X109818439Y-92195742D01*
X109758721Y-92323267D01*
X109681012Y-92489394D01*
X109588787Y-92686682D01*
X109485522Y-92907692D01*
X109374692Y-93144984D01*
X109259774Y-93391118D01*
X109144243Y-93638654D01*
X109066118Y-93806100D01*
X108892622Y-94178082D01*
X108739148Y-94506979D01*
X108604124Y-94795685D01*
X108485975Y-95047096D01*
X108383130Y-95264108D01*
X108294015Y-95449616D01*
X108217058Y-95606515D01*
X108150687Y-95737701D01*
X108093327Y-95846071D01*
X108043408Y-95934518D01*
X107999355Y-96005940D01*
X107959597Y-96063231D01*
X107922560Y-96109287D01*
X107886671Y-96147004D01*
X107850359Y-96179277D01*
X107812049Y-96209001D01*
X107770170Y-96239073D01*
X107728682Y-96268432D01*
X107480231Y-96418713D01*
X107214916Y-96524745D01*
X107127780Y-96549460D01*
X107012226Y-96571198D01*
X106862629Y-96587726D01*
X106695390Y-96598368D01*
X106526910Y-96602446D01*
X106373589Y-96599281D01*
X106251827Y-96588196D01*
X106239400Y-96586178D01*
X106046327Y-96533182D01*
X105886579Y-96449343D01*
X105763303Y-96338637D01*
X105679646Y-96205040D01*
X105638755Y-96052529D01*
X105643778Y-95885079D01*
X105651956Y-95844013D01*
X105665787Y-95807017D01*
X105699223Y-95728187D01*
X105750366Y-95611636D01*
X105817320Y-95461477D01*
X105898187Y-95281821D01*
X105991069Y-95076781D01*
X106094069Y-94850470D01*
X106205289Y-94607000D01*
X106322831Y-94350484D01*
X106444799Y-94085033D01*
X106569294Y-93814760D01*
X106694419Y-93543778D01*
X106818276Y-93276199D01*
X106938968Y-93016135D01*
X107054598Y-92767699D01*
X107163267Y-92535004D01*
X107263078Y-92322161D01*
X107352134Y-92133283D01*
X107428538Y-91972482D01*
X107490390Y-91843872D01*
X107535795Y-91751563D01*
X107562854Y-91699669D01*
X107568264Y-91690952D01*
X107600040Y-91680206D01*
X107670332Y-91672210D01*
X107769239Y-91666884D01*
X107886863Y-91664149D01*
X108013304Y-91663925D01*
X108138663Y-91666132D01*
X108253039Y-91670690D01*
X108346534Y-91677521D01*
X108409248Y-91686544D01*
X108431281Y-91697679D01*
X108431244Y-91697900D01*
X108419940Y-91724186D01*
X108388647Y-91793158D01*
X108338906Y-91901491D01*
X108272260Y-92045860D01*
X108190253Y-92222941D01*
X108094427Y-92429410D01*
X107986326Y-92661941D01*
X107867491Y-92917210D01*
X107739467Y-93191892D01*
X107603795Y-93482663D01*
X107472394Y-93763998D01*
X107331172Y-94066327D01*
X107196265Y-94355360D01*
X107069203Y-94627805D01*
X106951518Y-94880369D01*
X106844739Y-95109758D01*
X106750398Y-95312681D01*
X106670026Y-95485845D01*
X106605154Y-95625957D01*
X106557312Y-95729724D01*
X106528031Y-95793854D01*
X106518800Y-95815048D01*
X106541996Y-95823462D01*
X106603344Y-95827076D01*
X106690475Y-95826455D01*
X106791026Y-95822165D01*
X106892630Y-95814771D01*
X106982921Y-95804839D01*
X107049535Y-95792935D01*
X107059023Y-95790339D01*
X107166624Y-95750711D01*
X107250676Y-95699161D01*
X107321063Y-95625931D01*
X107387672Y-95521264D01*
X107443855Y-95410490D01*
X107464924Y-95366293D01*
X107485636Y-95322749D01*
X107507426Y-95276785D01*
X107531733Y-95225328D01*
X107559994Y-95165304D01*
X107593646Y-95093641D01*
X107634126Y-95007264D01*
X107682872Y-94903100D01*
X107741321Y-94778077D01*
X107810910Y-94629121D01*
X107893077Y-94453158D01*
X107989258Y-94247116D01*
X108100892Y-94007921D01*
X108229415Y-93732500D01*
X108376264Y-93417780D01*
X108542878Y-93060687D01*
X108577282Y-92986950D01*
X109196500Y-91659800D01*
X109622950Y-91659800D01*
X109763716Y-91661015D01*
X109763716Y-91661015D01*
G37*
X109763716Y-91661015D02*
X109884895Y-91664383D01*
X109978189Y-91669483D01*
X110035300Y-91675894D01*
X110049400Y-91681392D01*
X110039059Y-91709830D01*
X110010141Y-91777157D01*
X109965801Y-91876345D01*
X109909195Y-92000367D01*
X109843478Y-92142194D01*
X109818439Y-92195742D01*
X109758721Y-92323267D01*
X109681012Y-92489394D01*
X109588787Y-92686682D01*
X109485522Y-92907692D01*
X109374692Y-93144984D01*
X109259774Y-93391118D01*
X109144243Y-93638654D01*
X109066118Y-93806100D01*
X108892622Y-94178082D01*
X108739148Y-94506979D01*
X108604124Y-94795685D01*
X108485975Y-95047096D01*
X108383130Y-95264108D01*
X108294015Y-95449616D01*
X108217058Y-95606515D01*
X108150687Y-95737701D01*
X108093327Y-95846071D01*
X108043408Y-95934518D01*
X107999355Y-96005940D01*
X107959597Y-96063231D01*
X107922560Y-96109287D01*
X107886671Y-96147004D01*
X107850359Y-96179277D01*
X107812049Y-96209001D01*
X107770170Y-96239073D01*
X107728682Y-96268432D01*
X107480231Y-96418713D01*
X107214916Y-96524745D01*
X107127780Y-96549460D01*
X107012226Y-96571198D01*
X106862629Y-96587726D01*
X106695390Y-96598368D01*
X106526910Y-96602446D01*
X106373589Y-96599281D01*
X106251827Y-96588196D01*
X106239400Y-96586178D01*
X106046327Y-96533182D01*
X105886579Y-96449343D01*
X105763303Y-96338637D01*
X105679646Y-96205040D01*
X105638755Y-96052529D01*
X105643778Y-95885079D01*
X105651956Y-95844013D01*
X105665787Y-95807017D01*
X105699223Y-95728187D01*
X105750366Y-95611636D01*
X105817320Y-95461477D01*
X105898187Y-95281821D01*
X105991069Y-95076781D01*
X106094069Y-94850470D01*
X106205289Y-94607000D01*
X106322831Y-94350484D01*
X106444799Y-94085033D01*
X106569294Y-93814760D01*
X106694419Y-93543778D01*
X106818276Y-93276199D01*
X106938968Y-93016135D01*
X107054598Y-92767699D01*
X107163267Y-92535004D01*
X107263078Y-92322161D01*
X107352134Y-92133283D01*
X107428538Y-91972482D01*
X107490390Y-91843872D01*
X107535795Y-91751563D01*
X107562854Y-91699669D01*
X107568264Y-91690952D01*
X107600040Y-91680206D01*
X107670332Y-91672210D01*
X107769239Y-91666884D01*
X107886863Y-91664149D01*
X108013304Y-91663925D01*
X108138663Y-91666132D01*
X108253039Y-91670690D01*
X108346534Y-91677521D01*
X108409248Y-91686544D01*
X108431281Y-91697679D01*
X108431244Y-91697900D01*
X108419940Y-91724186D01*
X108388647Y-91793158D01*
X108338906Y-91901491D01*
X108272260Y-92045860D01*
X108190253Y-92222941D01*
X108094427Y-92429410D01*
X107986326Y-92661941D01*
X107867491Y-92917210D01*
X107739467Y-93191892D01*
X107603795Y-93482663D01*
X107472394Y-93763998D01*
X107331172Y-94066327D01*
X107196265Y-94355360D01*
X107069203Y-94627805D01*
X106951518Y-94880369D01*
X106844739Y-95109758D01*
X106750398Y-95312681D01*
X106670026Y-95485845D01*
X106605154Y-95625957D01*
X106557312Y-95729724D01*
X106528031Y-95793854D01*
X106518800Y-95815048D01*
X106541996Y-95823462D01*
X106603344Y-95827076D01*
X106690475Y-95826455D01*
X106791026Y-95822165D01*
X106892630Y-95814771D01*
X106982921Y-95804839D01*
X107049535Y-95792935D01*
X107059023Y-95790339D01*
X107166624Y-95750711D01*
X107250676Y-95699161D01*
X107321063Y-95625931D01*
X107387672Y-95521264D01*
X107443855Y-95410490D01*
X107464924Y-95366293D01*
X107485636Y-95322749D01*
X107507426Y-95276785D01*
X107531733Y-95225328D01*
X107559994Y-95165304D01*
X107593646Y-95093641D01*
X107634126Y-95007264D01*
X107682872Y-94903100D01*
X107741321Y-94778077D01*
X107810910Y-94629121D01*
X107893077Y-94453158D01*
X107989258Y-94247116D01*
X108100892Y-94007921D01*
X108229415Y-93732500D01*
X108376264Y-93417780D01*
X108542878Y-93060687D01*
X108577282Y-92986950D01*
X109196500Y-91659800D01*
X109622950Y-91659800D01*
X109763716Y-91661015D01*
G36*
X105962817Y-91675110D02*
G01*
X106078083Y-91678077D01*
X106164238Y-91684457D01*
X106232119Y-91695437D01*
X106292565Y-91712205D01*
X106351333Y-91733926D01*
X106515909Y-91820997D01*
X106641136Y-91933853D01*
X106724342Y-92068121D01*
X106762855Y-92219430D01*
X106754004Y-92383408D01*
X106752584Y-92390373D01*
X106736782Y-92437156D01*
X106700341Y-92527218D01*
X106644432Y-92657959D01*
X106570226Y-92826778D01*
X106478896Y-93031076D01*
X106371611Y-93268251D01*
X106249543Y-93535703D01*
X106113863Y-93830832D01*
X105965743Y-94151038D01*
X105806355Y-94493719D01*
X105773352Y-94564457D01*
X104823158Y-96600100D01*
X104409249Y-96607100D01*
X104268919Y-96608301D01*
X104146563Y-96607130D01*
X104051126Y-96603848D01*
X103991556Y-96598719D01*
X103976183Y-96594400D01*
X103982594Y-96568004D01*
X104008672Y-96500478D01*
X104052319Y-96396591D01*
X104111435Y-96261112D01*
X104183920Y-96098811D01*
X104267676Y-95914457D01*
X104360602Y-95712820D01*
X104426494Y-95571400D01*
X104534470Y-95340545D01*
X104643686Y-95106857D01*
X104750524Y-94878091D01*
X104851365Y-94662001D01*
X104942591Y-94466343D01*
X105020583Y-94298871D01*
X105081722Y-94167342D01*
X105096121Y-94136300D01*
X105165318Y-93987270D01*
X105250066Y-93805133D01*
X105344357Y-93602778D01*
X105442184Y-93393095D01*
X105537537Y-93188975D01*
X105587476Y-93082200D01*
X105878670Y-92459900D01*
X105658985Y-92452255D01*
X105517457Y-92450367D01*
X105399350Y-92458484D01*
X105299558Y-92481108D01*
X105212970Y-92522741D01*
X105134478Y-92587885D01*
X105058975Y-92681040D01*
X104981350Y-92806708D01*
X104896496Y-92969391D01*
X104799305Y-93173590D01*
X104771125Y-93234600D01*
X104690486Y-93409590D01*
X104607978Y-93588144D01*
X104528936Y-93758749D01*
X104458698Y-93909892D01*
X104402599Y-94030061D01*
X104388502Y-94060100D01*
X104350849Y-94140375D01*
X104294522Y-94260722D01*
X104222312Y-94415170D01*
X104137007Y-94597748D01*
X104041397Y-94802485D01*
X103938272Y-95023409D01*
X103830419Y-95254548D01*
X103730018Y-95469800D01*
X103202902Y-96600100D01*
X102778051Y-96607064D01*
X102610357Y-96608774D01*
X102488714Y-96607433D01*
X102408448Y-96602786D01*
X102364886Y-96594582D01*
X102353200Y-96584027D01*
X102363603Y-96554943D01*
X102393237Y-96485127D01*
X102439737Y-96379828D01*
X102500739Y-96244297D01*
X102573877Y-96083782D01*
X102656788Y-95903534D01*
X102747107Y-95708802D01*
X102756768Y-95688063D01*
X102974012Y-95222038D01*
X103170892Y-94799998D01*
X103348403Y-94419839D01*
X103507543Y-94079456D01*
X103649307Y-93776744D01*
X103774694Y-93509598D01*
X103884700Y-93275914D01*
X103980322Y-93073586D01*
X104062556Y-92900511D01*
X104132400Y-92754583D01*
X104190850Y-92633698D01*
X104238903Y-92535750D01*
X104277556Y-92458635D01*
X104307807Y-92400249D01*
X104330650Y-92358487D01*
X104345290Y-92334016D01*
X104481475Y-92163368D01*
X104658411Y-92008069D01*
X104866867Y-91874396D01*
X105097609Y-91768629D01*
X105248800Y-91719551D01*
X105337262Y-91699667D01*
X105439393Y-91686142D01*
X105566043Y-91678096D01*
X105728064Y-91674654D01*
X105807600Y-91674369D01*
X105962817Y-91675110D01*
X105962817Y-91675110D01*
G37*
X105962817Y-91675110D02*
X106078083Y-91678077D01*
X106164238Y-91684457D01*
X106232119Y-91695437D01*
X106292565Y-91712205D01*
X106351333Y-91733926D01*
X106515909Y-91820997D01*
X106641136Y-91933853D01*
X106724342Y-92068121D01*
X106762855Y-92219430D01*
X106754004Y-92383408D01*
X106752584Y-92390373D01*
X106736782Y-92437156D01*
X106700341Y-92527218D01*
X106644432Y-92657959D01*
X106570226Y-92826778D01*
X106478896Y-93031076D01*
X106371611Y-93268251D01*
X106249543Y-93535703D01*
X106113863Y-93830832D01*
X105965743Y-94151038D01*
X105806355Y-94493719D01*
X105773352Y-94564457D01*
X104823158Y-96600100D01*
X104409249Y-96607100D01*
X104268919Y-96608301D01*
X104146563Y-96607130D01*
X104051126Y-96603848D01*
X103991556Y-96598719D01*
X103976183Y-96594400D01*
X103982594Y-96568004D01*
X104008672Y-96500478D01*
X104052319Y-96396591D01*
X104111435Y-96261112D01*
X104183920Y-96098811D01*
X104267676Y-95914457D01*
X104360602Y-95712820D01*
X104426494Y-95571400D01*
X104534470Y-95340545D01*
X104643686Y-95106857D01*
X104750524Y-94878091D01*
X104851365Y-94662001D01*
X104942591Y-94466343D01*
X105020583Y-94298871D01*
X105081722Y-94167342D01*
X105096121Y-94136300D01*
X105165318Y-93987270D01*
X105250066Y-93805133D01*
X105344357Y-93602778D01*
X105442184Y-93393095D01*
X105537537Y-93188975D01*
X105587476Y-93082200D01*
X105878670Y-92459900D01*
X105658985Y-92452255D01*
X105517457Y-92450367D01*
X105399350Y-92458484D01*
X105299558Y-92481108D01*
X105212970Y-92522741D01*
X105134478Y-92587885D01*
X105058975Y-92681040D01*
X104981350Y-92806708D01*
X104896496Y-92969391D01*
X104799305Y-93173590D01*
X104771125Y-93234600D01*
X104690486Y-93409590D01*
X104607978Y-93588144D01*
X104528936Y-93758749D01*
X104458698Y-93909892D01*
X104402599Y-94030061D01*
X104388502Y-94060100D01*
X104350849Y-94140375D01*
X104294522Y-94260722D01*
X104222312Y-94415170D01*
X104137007Y-94597748D01*
X104041397Y-94802485D01*
X103938272Y-95023409D01*
X103830419Y-95254548D01*
X103730018Y-95469800D01*
X103202902Y-96600100D01*
X102778051Y-96607064D01*
X102610357Y-96608774D01*
X102488714Y-96607433D01*
X102408448Y-96602786D01*
X102364886Y-96594582D01*
X102353200Y-96584027D01*
X102363603Y-96554943D01*
X102393237Y-96485127D01*
X102439737Y-96379828D01*
X102500739Y-96244297D01*
X102573877Y-96083782D01*
X102656788Y-95903534D01*
X102747107Y-95708802D01*
X102756768Y-95688063D01*
X102974012Y-95222038D01*
X103170892Y-94799998D01*
X103348403Y-94419839D01*
X103507543Y-94079456D01*
X103649307Y-93776744D01*
X103774694Y-93509598D01*
X103884700Y-93275914D01*
X103980322Y-93073586D01*
X104062556Y-92900511D01*
X104132400Y-92754583D01*
X104190850Y-92633698D01*
X104238903Y-92535750D01*
X104277556Y-92458635D01*
X104307807Y-92400249D01*
X104330650Y-92358487D01*
X104345290Y-92334016D01*
X104481475Y-92163368D01*
X104658411Y-92008069D01*
X104866867Y-91874396D01*
X105097609Y-91768629D01*
X105248800Y-91719551D01*
X105337262Y-91699667D01*
X105439393Y-91686142D01*
X105566043Y-91678096D01*
X105728064Y-91674654D01*
X105807600Y-91674369D01*
X105962817Y-91675110D01*
G36*
X107257253Y-97021366D02*
G01*
X107353957Y-97025265D01*
X107419624Y-97033512D01*
X107460824Y-97046814D01*
X107484127Y-97065877D01*
X107493216Y-97082781D01*
X107494886Y-97142564D01*
X107467257Y-97202563D01*
X107422204Y-97242289D01*
X107397372Y-97248146D01*
X107327894Y-97255243D01*
X107287150Y-97263809D01*
X107242217Y-97266196D01*
X107230000Y-97238062D01*
X107223972Y-97220510D01*
X107200502Y-97208719D01*
X107151509Y-97201599D01*
X107068910Y-97198059D01*
X106944625Y-97197010D01*
X106925627Y-97197000D01*
X106621255Y-97197000D01*
X106560223Y-97317650D01*
X106515520Y-97409409D01*
X106473496Y-97501042D01*
X106459491Y-97533550D01*
X106419792Y-97628800D01*
X106731918Y-97628800D01*
X106862367Y-97628450D01*
X106951173Y-97626266D01*
X107007490Y-97620541D01*
X107040476Y-97609572D01*
X107059287Y-97591653D01*
X107072978Y-97565300D01*
X107101910Y-97501800D01*
X106937355Y-97501800D01*
X106853421Y-97500180D01*
X106794131Y-97495942D01*
X106772800Y-97490295D01*
X106782210Y-97461233D01*
X106802277Y-97414095D01*
X106816802Y-97386198D01*
X106836463Y-97367754D01*
X106870868Y-97356806D01*
X106929627Y-97351402D01*
X107022347Y-97349584D01*
X107120293Y-97349400D01*
X107408832Y-97349400D01*
X107360990Y-97444650D01*
X107316387Y-97535272D01*
X107271794Y-97628484D01*
X107268149Y-97636268D01*
X107237372Y-97693676D01*
X107201122Y-97736596D01*
X107152010Y-97767052D01*
X107082645Y-97787066D01*
X106985637Y-97798663D01*
X106853597Y-97803867D01*
X106679134Y-97804699D01*
X106653411Y-97804594D01*
X106509671Y-97803194D01*
X106382707Y-97800593D01*
X106281656Y-97797086D01*
X106215661Y-97792967D01*
X106194950Y-97789778D01*
X106168855Y-97761028D01*
X106167685Y-97703192D01*
X106192294Y-97612556D01*
X106243533Y-97485406D01*
X106286181Y-97392643D01*
X106345126Y-97269025D01*
X106393750Y-97177465D01*
X106440910Y-97113000D01*
X106495465Y-97070666D01*
X106566270Y-97045502D01*
X106662184Y-97032543D01*
X106792063Y-97026826D01*
X106944445Y-97023789D01*
X107122939Y-97021109D01*
X107257253Y-97021366D01*
X107257253Y-97021366D01*
G37*
X107257253Y-97021366D02*
X107353957Y-97025265D01*
X107419624Y-97033512D01*
X107460824Y-97046814D01*
X107484127Y-97065877D01*
X107493216Y-97082781D01*
X107494886Y-97142564D01*
X107467257Y-97202563D01*
X107422204Y-97242289D01*
X107397372Y-97248146D01*
X107327894Y-97255243D01*
X107287150Y-97263809D01*
X107242217Y-97266196D01*
X107230000Y-97238062D01*
X107223972Y-97220510D01*
X107200502Y-97208719D01*
X107151509Y-97201599D01*
X107068910Y-97198059D01*
X106944625Y-97197010D01*
X106925627Y-97197000D01*
X106621255Y-97197000D01*
X106560223Y-97317650D01*
X106515520Y-97409409D01*
X106473496Y-97501042D01*
X106459491Y-97533550D01*
X106419792Y-97628800D01*
X106731918Y-97628800D01*
X106862367Y-97628450D01*
X106951173Y-97626266D01*
X107007490Y-97620541D01*
X107040476Y-97609572D01*
X107059287Y-97591653D01*
X107072978Y-97565300D01*
X107101910Y-97501800D01*
X106937355Y-97501800D01*
X106853421Y-97500180D01*
X106794131Y-97495942D01*
X106772800Y-97490295D01*
X106782210Y-97461233D01*
X106802277Y-97414095D01*
X106816802Y-97386198D01*
X106836463Y-97367754D01*
X106870868Y-97356806D01*
X106929627Y-97351402D01*
X107022347Y-97349584D01*
X107120293Y-97349400D01*
X107408832Y-97349400D01*
X107360990Y-97444650D01*
X107316387Y-97535272D01*
X107271794Y-97628484D01*
X107268149Y-97636268D01*
X107237372Y-97693676D01*
X107201122Y-97736596D01*
X107152010Y-97767052D01*
X107082645Y-97787066D01*
X106985637Y-97798663D01*
X106853597Y-97803867D01*
X106679134Y-97804699D01*
X106653411Y-97804594D01*
X106509671Y-97803194D01*
X106382707Y-97800593D01*
X106281656Y-97797086D01*
X106215661Y-97792967D01*
X106194950Y-97789778D01*
X106168855Y-97761028D01*
X106167685Y-97703192D01*
X106192294Y-97612556D01*
X106243533Y-97485406D01*
X106286181Y-97392643D01*
X106345126Y-97269025D01*
X106393750Y-97177465D01*
X106440910Y-97113000D01*
X106495465Y-97070666D01*
X106566270Y-97045502D01*
X106662184Y-97032543D01*
X106792063Y-97026826D01*
X106944445Y-97023789D01*
X107122939Y-97021109D01*
X107257253Y-97021366D01*
G36*
X106073357Y-97021702D02*
G01*
X106109511Y-97027964D01*
X106112400Y-97030650D01*
X106102179Y-97056345D01*
X106073915Y-97120081D01*
X106031199Y-97213941D01*
X105977627Y-97330005D01*
X105936628Y-97418000D01*
X105871084Y-97557398D01*
X105822284Y-97657408D01*
X105785661Y-97724755D01*
X105756644Y-97766162D01*
X105730664Y-97788353D01*
X105703153Y-97798052D01*
X105676088Y-97801416D01*
X105638549Y-97801686D01*
X105603215Y-97791292D01*
X105562403Y-97764386D01*
X105508430Y-97715118D01*
X105433615Y-97637640D01*
X105367477Y-97566466D01*
X105282338Y-97475850D01*
X105208844Y-97400636D01*
X105154076Y-97347852D01*
X105125112Y-97324529D01*
X105123275Y-97324000D01*
X105105033Y-97345678D01*
X105071749Y-97404255D01*
X105028633Y-97490040D01*
X104993481Y-97565300D01*
X104884046Y-97806600D01*
X104772206Y-97806600D01*
X104707047Y-97802205D01*
X104671347Y-97791091D01*
X104668833Y-97784584D01*
X104682078Y-97755186D01*
X104713222Y-97688136D01*
X104758407Y-97591684D01*
X104813770Y-97474079D01*
X104853063Y-97390884D01*
X104918913Y-97252478D01*
X104967830Y-97153521D01*
X105004321Y-97087405D01*
X105032891Y-97047526D01*
X105058049Y-97027275D01*
X105084299Y-97020048D01*
X105106609Y-97019200D01*
X105144814Y-97025002D01*
X105188164Y-97046027D01*
X105243828Y-97087701D01*
X105318975Y-97155452D01*
X105420773Y-97254706D01*
X105430490Y-97264375D01*
X105676589Y-97509551D01*
X105791161Y-97264375D01*
X105905732Y-97019200D01*
X106009066Y-97019200D01*
X106073357Y-97021702D01*
X106073357Y-97021702D01*
G37*
X106073357Y-97021702D02*
X106109511Y-97027964D01*
X106112400Y-97030650D01*
X106102179Y-97056345D01*
X106073915Y-97120081D01*
X106031199Y-97213941D01*
X105977627Y-97330005D01*
X105936628Y-97418000D01*
X105871084Y-97557398D01*
X105822284Y-97657408D01*
X105785661Y-97724755D01*
X105756644Y-97766162D01*
X105730664Y-97788353D01*
X105703153Y-97798052D01*
X105676088Y-97801416D01*
X105638549Y-97801686D01*
X105603215Y-97791292D01*
X105562403Y-97764386D01*
X105508430Y-97715118D01*
X105433615Y-97637640D01*
X105367477Y-97566466D01*
X105282338Y-97475850D01*
X105208844Y-97400636D01*
X105154076Y-97347852D01*
X105125112Y-97324529D01*
X105123275Y-97324000D01*
X105105033Y-97345678D01*
X105071749Y-97404255D01*
X105028633Y-97490040D01*
X104993481Y-97565300D01*
X104884046Y-97806600D01*
X104772206Y-97806600D01*
X104707047Y-97802205D01*
X104671347Y-97791091D01*
X104668833Y-97784584D01*
X104682078Y-97755186D01*
X104713222Y-97688136D01*
X104758407Y-97591684D01*
X104813770Y-97474079D01*
X104853063Y-97390884D01*
X104918913Y-97252478D01*
X104967830Y-97153521D01*
X105004321Y-97087405D01*
X105032891Y-97047526D01*
X105058049Y-97027275D01*
X105084299Y-97020048D01*
X105106609Y-97019200D01*
X105144814Y-97025002D01*
X105188164Y-97046027D01*
X105243828Y-97087701D01*
X105318975Y-97155452D01*
X105420773Y-97254706D01*
X105430490Y-97264375D01*
X105676589Y-97509551D01*
X105791161Y-97264375D01*
X105905732Y-97019200D01*
X106009066Y-97019200D01*
X106073357Y-97021702D01*
G36*
X104658268Y-97025138D02*
G01*
X104664600Y-97028667D01*
X104654319Y-97054609D01*
X104625884Y-97118533D01*
X104582905Y-97212521D01*
X104528993Y-97328653D01*
X104487375Y-97417409D01*
X104310150Y-97793900D01*
X104195275Y-97801641D01*
X104127395Y-97802221D01*
X104086928Y-97794828D01*
X104081822Y-97788941D01*
X104092567Y-97760059D01*
X104121330Y-97693502D01*
X104164423Y-97597528D01*
X104218159Y-97480391D01*
X104255464Y-97400200D01*
X104427684Y-97031900D01*
X104546142Y-97024158D01*
X104615655Y-97021962D01*
X104658268Y-97025138D01*
X104658268Y-97025138D01*
G37*
X104658268Y-97025138D02*
X104664600Y-97028667D01*
X104654319Y-97054609D01*
X104625884Y-97118533D01*
X104582905Y-97212521D01*
X104528993Y-97328653D01*
X104487375Y-97417409D01*
X104310150Y-97793900D01*
X104195275Y-97801641D01*
X104127395Y-97802221D01*
X104086928Y-97794828D01*
X104081822Y-97788941D01*
X104092567Y-97760059D01*
X104121330Y-97693502D01*
X104164423Y-97597528D01*
X104218159Y-97480391D01*
X104255464Y-97400200D01*
X104427684Y-97031900D01*
X104546142Y-97024158D01*
X104615655Y-97021962D01*
X104658268Y-97025138D01*
G36*
X103871903Y-97025336D02*
G01*
X103961980Y-97034906D01*
X104018361Y-97052409D01*
X104046709Y-97079316D01*
X104052684Y-97117098D01*
X104047148Y-97148597D01*
X104007286Y-97241025D01*
X103939001Y-97295137D01*
X103857258Y-97316329D01*
X103785114Y-97322717D01*
X103755364Y-97311999D01*
X103760768Y-97277881D01*
X103776493Y-97246130D01*
X103785481Y-97224522D01*
X103779411Y-97210400D01*
X103750282Y-97202179D01*
X103690093Y-97198271D01*
X103590844Y-97197091D01*
X103528843Y-97197027D01*
X103254900Y-97197055D01*
X103166000Y-97392075D01*
X103124311Y-97483781D01*
X103090872Y-97557816D01*
X103071192Y-97601962D01*
X103068633Y-97607947D01*
X103088671Y-97616458D01*
X103149474Y-97623293D01*
X103241015Y-97627645D01*
X103328331Y-97628800D01*
X103596495Y-97628800D01*
X103636384Y-97551662D01*
X103667762Y-97501541D01*
X103704013Y-97484513D01*
X103766750Y-97490879D01*
X103770387Y-97491531D01*
X103833829Y-97504622D01*
X103871401Y-97515432D01*
X103874268Y-97517055D01*
X103874500Y-97547062D01*
X103851976Y-97601501D01*
X103815051Y-97664646D01*
X103772080Y-97720770D01*
X103758884Y-97734241D01*
X103732661Y-97756517D01*
X103703102Y-97772659D01*
X103661755Y-97783864D01*
X103600172Y-97791332D01*
X103509901Y-97796261D01*
X103382491Y-97799849D01*
X103281804Y-97801914D01*
X103124700Y-97804354D01*
X103010480Y-97804258D01*
X102931265Y-97801031D01*
X102879175Y-97794079D01*
X102846332Y-97782806D01*
X102825716Y-97767487D01*
X102805904Y-97744363D01*
X102796835Y-97718400D01*
X102800705Y-97681357D01*
X102819710Y-97624993D01*
X102856047Y-97541065D01*
X102911912Y-97421333D01*
X102925748Y-97392098D01*
X102986067Y-97266617D01*
X103036889Y-97174315D01*
X103087411Y-97109925D01*
X103146827Y-97068177D01*
X103224332Y-97043805D01*
X103329120Y-97031539D01*
X103470387Y-97026112D01*
X103568022Y-97024113D01*
X103742471Y-97022229D01*
X103871903Y-97025336D01*
X103871903Y-97025336D01*
G37*
X103871903Y-97025336D02*
X103961980Y-97034906D01*
X104018361Y-97052409D01*
X104046709Y-97079316D01*
X104052684Y-97117098D01*
X104047148Y-97148597D01*
X104007286Y-97241025D01*
X103939001Y-97295137D01*
X103857258Y-97316329D01*
X103785114Y-97322717D01*
X103755364Y-97311999D01*
X103760768Y-97277881D01*
X103776493Y-97246130D01*
X103785481Y-97224522D01*
X103779411Y-97210400D01*
X103750282Y-97202179D01*
X103690093Y-97198271D01*
X103590844Y-97197091D01*
X103528843Y-97197027D01*
X103254900Y-97197055D01*
X103166000Y-97392075D01*
X103124311Y-97483781D01*
X103090872Y-97557816D01*
X103071192Y-97601962D01*
X103068633Y-97607947D01*
X103088671Y-97616458D01*
X103149474Y-97623293D01*
X103241015Y-97627645D01*
X103328331Y-97628800D01*
X103596495Y-97628800D01*
X103636384Y-97551662D01*
X103667762Y-97501541D01*
X103704013Y-97484513D01*
X103766750Y-97490879D01*
X103770387Y-97491531D01*
X103833829Y-97504622D01*
X103871401Y-97515432D01*
X103874268Y-97517055D01*
X103874500Y-97547062D01*
X103851976Y-97601501D01*
X103815051Y-97664646D01*
X103772080Y-97720770D01*
X103758884Y-97734241D01*
X103732661Y-97756517D01*
X103703102Y-97772659D01*
X103661755Y-97783864D01*
X103600172Y-97791332D01*
X103509901Y-97796261D01*
X103382491Y-97799849D01*
X103281804Y-97801914D01*
X103124700Y-97804354D01*
X103010480Y-97804258D01*
X102931265Y-97801031D01*
X102879175Y-97794079D01*
X102846332Y-97782806D01*
X102825716Y-97767487D01*
X102805904Y-97744363D01*
X102796835Y-97718400D01*
X102800705Y-97681357D01*
X102819710Y-97624993D01*
X102856047Y-97541065D01*
X102911912Y-97421333D01*
X102925748Y-97392098D01*
X102986067Y-97266617D01*
X103036889Y-97174315D01*
X103087411Y-97109925D01*
X103146827Y-97068177D01*
X103224332Y-97043805D01*
X103329120Y-97031539D01*
X103470387Y-97026112D01*
X103568022Y-97024113D01*
X103742471Y-97022229D01*
X103871903Y-97025336D01*
G36*
X102362067Y-97020897D02*
G01*
X102400360Y-97023916D01*
X102404212Y-97025550D01*
X102409536Y-97051200D01*
X102424069Y-97117694D01*
X102445886Y-97216310D01*
X102473062Y-97338325D01*
X102488421Y-97407006D01*
X102516839Y-97538099D01*
X102539504Y-97650863D01*
X102554774Y-97736420D01*
X102561002Y-97785891D01*
X102560176Y-97794356D01*
X102529717Y-97801512D01*
X102466056Y-97805921D01*
X102425166Y-97806600D01*
X102350268Y-97803581D01*
X102313553Y-97791239D01*
X102302596Y-97764641D01*
X102302400Y-97757877D01*
X102299414Y-97702643D01*
X102284753Y-97665900D01*
X102249858Y-97643900D01*
X102186169Y-97632894D01*
X102085130Y-97629136D01*
X102007655Y-97628800D01*
X101743746Y-97628800D01*
X101645344Y-97717700D01*
X101572445Y-97774903D01*
X101506637Y-97801163D01*
X101439954Y-97806600D01*
X101376492Y-97801402D01*
X101343067Y-97788301D01*
X101341433Y-97781606D01*
X101362251Y-97758209D01*
X101415787Y-97706691D01*
X101496399Y-97632235D01*
X101598444Y-97540026D01*
X101672471Y-97474200D01*
X101908700Y-97474200D01*
X102257950Y-97476400D01*
X102242075Y-97397025D01*
X102230586Y-97324741D01*
X102226200Y-97270025D01*
X102221814Y-97236259D01*
X102204408Y-97227855D01*
X102167610Y-97247629D01*
X102105048Y-97298395D01*
X102048400Y-97348580D01*
X101908700Y-97474200D01*
X101672471Y-97474200D01*
X101716280Y-97435245D01*
X101769000Y-97388844D01*
X101906869Y-97268291D01*
X102012771Y-97177357D01*
X102092671Y-97111870D01*
X102152532Y-97067657D01*
X102198318Y-97040546D01*
X102235995Y-97026365D01*
X102271526Y-97020941D01*
X102296050Y-97020137D01*
X102362067Y-97020897D01*
X102362067Y-97020897D01*
G37*
X102362067Y-97020897D02*
X102400360Y-97023916D01*
X102404212Y-97025550D01*
X102409536Y-97051200D01*
X102424069Y-97117694D01*
X102445886Y-97216310D01*
X102473062Y-97338325D01*
X102488421Y-97407006D01*
X102516839Y-97538099D01*
X102539504Y-97650863D01*
X102554774Y-97736420D01*
X102561002Y-97785891D01*
X102560176Y-97794356D01*
X102529717Y-97801512D01*
X102466056Y-97805921D01*
X102425166Y-97806600D01*
X102350268Y-97803581D01*
X102313553Y-97791239D01*
X102302596Y-97764641D01*
X102302400Y-97757877D01*
X102299414Y-97702643D01*
X102284753Y-97665900D01*
X102249858Y-97643900D01*
X102186169Y-97632894D01*
X102085130Y-97629136D01*
X102007655Y-97628800D01*
X101743746Y-97628800D01*
X101645344Y-97717700D01*
X101572445Y-97774903D01*
X101506637Y-97801163D01*
X101439954Y-97806600D01*
X101376492Y-97801402D01*
X101343067Y-97788301D01*
X101341433Y-97781606D01*
X101362251Y-97758209D01*
X101415787Y-97706691D01*
X101496399Y-97632235D01*
X101598444Y-97540026D01*
X101672471Y-97474200D01*
X101908700Y-97474200D01*
X102257950Y-97476400D01*
X102242075Y-97397025D01*
X102230586Y-97324741D01*
X102226200Y-97270025D01*
X102221814Y-97236259D01*
X102204408Y-97227855D01*
X102167610Y-97247629D01*
X102105048Y-97298395D01*
X102048400Y-97348580D01*
X101908700Y-97474200D01*
X101672471Y-97474200D01*
X101716280Y-97435245D01*
X101769000Y-97388844D01*
X101906869Y-97268291D01*
X102012771Y-97177357D01*
X102092671Y-97111870D01*
X102152532Y-97067657D01*
X102198318Y-97040546D01*
X102235995Y-97026365D01*
X102271526Y-97020941D01*
X102296050Y-97020137D01*
X102362067Y-97020897D01*
G36*
X101050321Y-97020787D02*
G01*
X101181916Y-97025221D01*
X101284359Y-97032015D01*
X101348973Y-97040677D01*
X101364269Y-97045493D01*
X101402416Y-97082007D01*
X101409823Y-97139542D01*
X101386539Y-97226036D01*
X101365661Y-97277444D01*
X101292725Y-97402077D01*
X101199383Y-97482419D01*
X101086766Y-97521485D01*
X100980660Y-97539900D01*
X101097399Y-97673250D01*
X101214139Y-97806600D01*
X100892030Y-97806600D01*
X100782923Y-97666900D01*
X100722063Y-97592416D01*
X100676801Y-97550373D01*
X100633491Y-97531671D01*
X100578488Y-97527213D01*
X100573388Y-97527200D01*
X100516472Y-97529819D01*
X100479714Y-97545054D01*
X100450268Y-97583966D01*
X100415288Y-97657618D01*
X100411177Y-97666900D01*
X100349395Y-97806600D01*
X100231581Y-97806600D01*
X100164271Y-97802298D01*
X100125945Y-97791364D01*
X100122233Y-97783989D01*
X100135476Y-97754374D01*
X100166606Y-97687128D01*
X100211762Y-97590526D01*
X100267078Y-97472846D01*
X100306029Y-97390289D01*
X100328944Y-97341788D01*
X100575146Y-97341788D01*
X100598750Y-97349412D01*
X100662628Y-97354175D01*
X100756313Y-97355596D01*
X100842041Y-97354111D01*
X100961108Y-97350064D01*
X101039711Y-97344667D01*
X101088166Y-97335228D01*
X101116790Y-97319053D01*
X101135900Y-97293448D01*
X101145881Y-97274782D01*
X101166985Y-97220847D01*
X101167443Y-97188191D01*
X101166853Y-97187520D01*
X101136152Y-97180733D01*
X101066457Y-97175387D01*
X100969570Y-97172191D01*
X100901818Y-97171600D01*
X100652704Y-97171600D01*
X100613952Y-97246538D01*
X100587258Y-97303742D01*
X100575203Y-97340605D01*
X100575146Y-97341788D01*
X100328944Y-97341788D01*
X100481358Y-97019200D01*
X100898249Y-97019200D01*
X101050321Y-97020787D01*
X101050321Y-97020787D01*
G37*
X101050321Y-97020787D02*
X101181916Y-97025221D01*
X101284359Y-97032015D01*
X101348973Y-97040677D01*
X101364269Y-97045493D01*
X101402416Y-97082007D01*
X101409823Y-97139542D01*
X101386539Y-97226036D01*
X101365661Y-97277444D01*
X101292725Y-97402077D01*
X101199383Y-97482419D01*
X101086766Y-97521485D01*
X100980660Y-97539900D01*
X101097399Y-97673250D01*
X101214139Y-97806600D01*
X100892030Y-97806600D01*
X100782923Y-97666900D01*
X100722063Y-97592416D01*
X100676801Y-97550373D01*
X100633491Y-97531671D01*
X100578488Y-97527213D01*
X100573388Y-97527200D01*
X100516472Y-97529819D01*
X100479714Y-97545054D01*
X100450268Y-97583966D01*
X100415288Y-97657618D01*
X100411177Y-97666900D01*
X100349395Y-97806600D01*
X100231581Y-97806600D01*
X100164271Y-97802298D01*
X100125945Y-97791364D01*
X100122233Y-97783989D01*
X100135476Y-97754374D01*
X100166606Y-97687128D01*
X100211762Y-97590526D01*
X100267078Y-97472846D01*
X100306029Y-97390289D01*
X100328944Y-97341788D01*
X100575146Y-97341788D01*
X100598750Y-97349412D01*
X100662628Y-97354175D01*
X100756313Y-97355596D01*
X100842041Y-97354111D01*
X100961108Y-97350064D01*
X101039711Y-97344667D01*
X101088166Y-97335228D01*
X101116790Y-97319053D01*
X101135900Y-97293448D01*
X101145881Y-97274782D01*
X101166985Y-97220847D01*
X101167443Y-97188191D01*
X101166853Y-97187520D01*
X101136152Y-97180733D01*
X101066457Y-97175387D01*
X100969570Y-97172191D01*
X100901818Y-97171600D01*
X100652704Y-97171600D01*
X100613952Y-97246538D01*
X100587258Y-97303742D01*
X100575203Y-97340605D01*
X100575146Y-97341788D01*
X100328944Y-97341788D01*
X100481358Y-97019200D01*
X100898249Y-97019200D01*
X101050321Y-97020787D01*
G36*
X101287472Y-90459649D02*
G01*
X101317460Y-90547144D01*
X101343296Y-90614937D01*
X101359618Y-90649005D01*
X101360112Y-90649598D01*
X101376318Y-90636630D01*
X101404849Y-90585893D01*
X101440399Y-90507262D01*
X101452218Y-90478254D01*
X101527700Y-90288410D01*
X101723676Y-90288305D01*
X101803851Y-90291054D01*
X101910335Y-90298556D01*
X102032361Y-90309592D01*
X102159165Y-90322942D01*
X102279981Y-90337386D01*
X102384043Y-90351704D01*
X102460586Y-90364677D01*
X102498843Y-90375084D01*
X102500599Y-90376333D01*
X102508140Y-90403489D01*
X102520968Y-90468514D01*
X102536707Y-90559057D01*
X102541945Y-90591245D01*
X102558618Y-90688009D01*
X102573894Y-90763821D01*
X102585142Y-90806002D01*
X102587400Y-90810267D01*
X102606775Y-90798176D01*
X102643017Y-90753782D01*
X102670243Y-90714166D01*
X102726230Y-90630512D01*
X102783154Y-90549213D01*
X102801008Y-90524781D01*
X102861296Y-90443863D01*
X103045398Y-90493978D01*
X103149659Y-90523870D01*
X103281889Y-90563933D01*
X103421958Y-90607992D01*
X103505792Y-90635227D01*
X103782085Y-90726361D01*
X103769912Y-90979149D01*
X103757740Y-91231938D01*
X104126358Y-90865780D01*
X104439929Y-91029919D01*
X104587388Y-91108953D01*
X104732876Y-91190259D01*
X104869975Y-91269892D01*
X104992271Y-91343907D01*
X105093348Y-91408362D01*
X105166790Y-91459312D01*
X105206182Y-91492814D01*
X105210341Y-91503525D01*
X105180113Y-91519508D01*
X105116494Y-91546034D01*
X105044609Y-91573180D01*
X104834409Y-91666524D01*
X104638273Y-91791638D01*
X104443965Y-91956550D01*
X104409340Y-91990000D01*
X104306620Y-92096688D01*
X104218792Y-92202861D01*
X104138958Y-92319119D01*
X104060218Y-92456065D01*
X103975673Y-92624301D01*
X103921763Y-92739300D01*
X103864081Y-92863791D01*
X103793460Y-93015037D01*
X103718839Y-93173946D01*
X103649159Y-93321427D01*
X103649098Y-93321556D01*
X103493386Y-93649813D01*
X103447372Y-93575556D01*
X103347802Y-93454933D01*
X103214406Y-93362814D01*
X103043041Y-93296974D01*
X102858499Y-93259142D01*
X102650950Y-93244508D01*
X102416525Y-93253587D01*
X102172069Y-93284223D01*
X101934427Y-93334260D01*
X101720442Y-93401541D01*
X101707800Y-93406442D01*
X101584201Y-93454992D01*
X101949650Y-93472091D01*
X102095181Y-93480840D01*
X102235878Y-93492733D01*
X102357436Y-93506337D01*
X102445547Y-93520219D01*
X102458545Y-93523055D01*
X102644466Y-93586297D01*
X102792425Y-93678062D01*
X102900008Y-93795952D01*
X102964802Y-93937572D01*
X102983007Y-94043602D01*
X102973249Y-94196274D01*
X102926451Y-94371945D01*
X102846444Y-94563442D01*
X102737060Y-94763595D01*
X102602129Y-94965232D01*
X102445482Y-95161180D01*
X102306946Y-95309182D01*
X102071459Y-95523607D01*
X101799501Y-95737872D01*
X101504533Y-95942455D01*
X101200017Y-96127837D01*
X100991350Y-96239589D01*
X100742149Y-96386817D01*
X100496020Y-96572663D01*
X100265541Y-96785843D01*
X100063292Y-97015072D01*
X99946873Y-97176550D01*
X99895280Y-97262177D01*
X99837469Y-97368549D01*
X99778590Y-97484824D01*
X99723794Y-97600158D01*
X99678230Y-97703710D01*
X99647049Y-97784638D01*
X99635400Y-97832100D01*
X99635400Y-97832281D01*
X99612123Y-97872941D01*
X99548455Y-97920826D01*
X99453640Y-97972344D01*
X99336924Y-98023903D01*
X99207549Y-98071912D01*
X99074762Y-98112781D01*
X98947805Y-98142917D01*
X98835923Y-98158730D01*
X98791319Y-98160194D01*
X98707581Y-98156669D01*
X98641448Y-98149881D01*
X98619400Y-98145161D01*
X98576571Y-98127270D01*
X98506115Y-98094805D01*
X98447950Y-98066813D01*
X98366608Y-98021509D01*
X98325152Y-97982324D01*
X98314600Y-97945269D01*
X98325202Y-97901452D01*
X98354110Y-97823066D01*
X98396974Y-97721012D01*
X98449444Y-97606189D01*
X98452306Y-97600172D01*
X98463845Y-97575814D01*
X98762763Y-97575814D01*
X98763678Y-97637437D01*
X98766689Y-97725024D01*
X98767456Y-97743040D01*
X98772695Y-97834104D01*
X98778944Y-97901479D01*
X98784997Y-97932759D01*
X98785990Y-97933600D01*
X98802466Y-97913166D01*
X98832504Y-97861430D01*
X98849001Y-97830037D01*
X98901835Y-97726474D01*
X98835524Y-97639537D01*
X98794057Y-97586541D01*
X98767915Y-97555715D01*
X98764157Y-97552540D01*
X98762763Y-97575814D01*
X98463845Y-97575814D01*
X98493963Y-97512242D01*
X98553788Y-97385185D01*
X98628534Y-97225942D01*
X98714949Y-97041451D01*
X98809785Y-96838651D01*
X98909793Y-96624480D01*
X99011722Y-96405876D01*
X99033653Y-96358800D01*
X99132038Y-96147689D01*
X99245734Y-95903939D01*
X99371835Y-95633766D01*
X99507433Y-95343386D01*
X99649624Y-95039014D01*
X99795501Y-94726866D01*
X99942157Y-94413159D01*
X100002543Y-94284033D01*
X100542232Y-94284033D01*
X100550266Y-94287180D01*
X100556144Y-94283299D01*
X100589327Y-94257686D01*
X100651872Y-94209254D01*
X100733018Y-94146342D01*
X100778400Y-94111132D01*
X100862875Y-94045444D01*
X100932218Y-93991283D01*
X100976578Y-93956351D01*
X100986688Y-93948188D01*
X100988159Y-93918576D01*
X100976568Y-93852879D01*
X100954283Y-93763416D01*
X100944725Y-93729891D01*
X100884973Y-93526700D01*
X100744537Y-93821775D01*
X100665907Y-93988067D01*
X100608114Y-94113148D01*
X100569404Y-94201309D01*
X100548028Y-94256840D01*
X100542232Y-94284033D01*
X100002543Y-94284033D01*
X100086687Y-94104107D01*
X100226184Y-93805926D01*
X100357742Y-93524833D01*
X100478455Y-93267044D01*
X100585417Y-93038773D01*
X100675721Y-92846237D01*
X100724620Y-92742111D01*
X100775072Y-92632322D01*
X100816189Y-92538213D01*
X100843723Y-92469834D01*
X100853431Y-92437311D01*
X100833714Y-92416834D01*
X100777454Y-92368238D01*
X100688309Y-92294462D01*
X100569936Y-92198442D01*
X100425993Y-92083117D01*
X100260138Y-91951424D01*
X100076030Y-91806300D01*
X99877326Y-91650683D01*
X99813835Y-91601197D01*
X101769375Y-91601197D01*
X101776334Y-91697359D01*
X101794188Y-91813571D01*
X101819140Y-91931553D01*
X101847393Y-92033029D01*
X101871661Y-92093583D01*
X101901665Y-92138944D01*
X101917264Y-92140896D01*
X101917502Y-92105016D01*
X101901424Y-92036883D01*
X101888322Y-91996350D01*
X101867675Y-91915971D01*
X101850937Y-91812263D01*
X101838920Y-91697978D01*
X101832437Y-91585863D01*
X101832298Y-91488670D01*
X101839317Y-91419148D01*
X101849881Y-91392719D01*
X101881421Y-91394199D01*
X101936194Y-91428228D01*
X102005867Y-91487553D01*
X102082106Y-91564921D01*
X102156577Y-91653081D01*
X102171370Y-91672500D01*
X102228087Y-91744691D01*
X102258458Y-91774956D01*
X102262546Y-91764765D01*
X102240412Y-91715588D01*
X102192117Y-91628897D01*
X102167817Y-91587917D01*
X102113512Y-91506958D01*
X102048178Y-91423273D01*
X101980186Y-91345901D01*
X101917905Y-91283877D01*
X101869707Y-91246240D01*
X101845845Y-91240301D01*
X101824246Y-91275814D01*
X101802640Y-91346889D01*
X101784236Y-91438389D01*
X101772240Y-91535179D01*
X101769375Y-91601197D01*
X99813835Y-91601197D01*
X99761231Y-91560197D01*
X99556104Y-91400286D01*
X99363549Y-91249578D01*
X99187214Y-91110970D01*
X99030745Y-90987357D01*
X98897791Y-90881635D01*
X98791998Y-90796699D01*
X98717014Y-90735446D01*
X98676486Y-90700771D01*
X98670200Y-90694026D01*
X98693581Y-90679339D01*
X98758356Y-90655159D01*
X98856476Y-90623643D01*
X98979887Y-90586948D01*
X99120539Y-90547232D01*
X99270381Y-90506651D01*
X99421360Y-90467364D01*
X99565427Y-90431527D01*
X99694529Y-90401297D01*
X99800615Y-90378832D01*
X99875634Y-90366288D01*
X99900460Y-90364400D01*
X99917020Y-90384906D01*
X99951925Y-90439662D01*
X99998825Y-90518525D01*
X100019730Y-90554916D01*
X100070101Y-90638092D01*
X100112450Y-90698208D01*
X100140190Y-90726319D01*
X100145963Y-90726366D01*
X100159561Y-90693920D01*
X100179426Y-90625258D01*
X100201715Y-90533946D01*
X100206237Y-90513650D01*
X100248675Y-90320001D01*
X100364682Y-90304100D01*
X100432338Y-90298340D01*
X100537908Y-90293510D01*
X100668511Y-90290028D01*
X100811264Y-90288309D01*
X100856074Y-90288199D01*
X101231458Y-90288199D01*
X101287472Y-90459649D01*
X101287472Y-90459649D01*
G37*
X101287472Y-90459649D02*
X101317460Y-90547144D01*
X101343296Y-90614937D01*
X101359618Y-90649005D01*
X101360112Y-90649598D01*
X101376318Y-90636630D01*
X101404849Y-90585893D01*
X101440399Y-90507262D01*
X101452218Y-90478254D01*
X101527700Y-90288410D01*
X101723676Y-90288305D01*
X101803851Y-90291054D01*
X101910335Y-90298556D01*
X102032361Y-90309592D01*
X102159165Y-90322942D01*
X102279981Y-90337386D01*
X102384043Y-90351704D01*
X102460586Y-90364677D01*
X102498843Y-90375084D01*
X102500599Y-90376333D01*
X102508140Y-90403489D01*
X102520968Y-90468514D01*
X102536707Y-90559057D01*
X102541945Y-90591245D01*
X102558618Y-90688009D01*
X102573894Y-90763821D01*
X102585142Y-90806002D01*
X102587400Y-90810267D01*
X102606775Y-90798176D01*
X102643017Y-90753782D01*
X102670243Y-90714166D01*
X102726230Y-90630512D01*
X102783154Y-90549213D01*
X102801008Y-90524781D01*
X102861296Y-90443863D01*
X103045398Y-90493978D01*
X103149659Y-90523870D01*
X103281889Y-90563933D01*
X103421958Y-90607992D01*
X103505792Y-90635227D01*
X103782085Y-90726361D01*
X103769912Y-90979149D01*
X103757740Y-91231938D01*
X104126358Y-90865780D01*
X104439929Y-91029919D01*
X104587388Y-91108953D01*
X104732876Y-91190259D01*
X104869975Y-91269892D01*
X104992271Y-91343907D01*
X105093348Y-91408362D01*
X105166790Y-91459312D01*
X105206182Y-91492814D01*
X105210341Y-91503525D01*
X105180113Y-91519508D01*
X105116494Y-91546034D01*
X105044609Y-91573180D01*
X104834409Y-91666524D01*
X104638273Y-91791638D01*
X104443965Y-91956550D01*
X104409340Y-91990000D01*
X104306620Y-92096688D01*
X104218792Y-92202861D01*
X104138958Y-92319119D01*
X104060218Y-92456065D01*
X103975673Y-92624301D01*
X103921763Y-92739300D01*
X103864081Y-92863791D01*
X103793460Y-93015037D01*
X103718839Y-93173946D01*
X103649159Y-93321427D01*
X103649098Y-93321556D01*
X103493386Y-93649813D01*
X103447372Y-93575556D01*
X103347802Y-93454933D01*
X103214406Y-93362814D01*
X103043041Y-93296974D01*
X102858499Y-93259142D01*
X102650950Y-93244508D01*
X102416525Y-93253587D01*
X102172069Y-93284223D01*
X101934427Y-93334260D01*
X101720442Y-93401541D01*
X101707800Y-93406442D01*
X101584201Y-93454992D01*
X101949650Y-93472091D01*
X102095181Y-93480840D01*
X102235878Y-93492733D01*
X102357436Y-93506337D01*
X102445547Y-93520219D01*
X102458545Y-93523055D01*
X102644466Y-93586297D01*
X102792425Y-93678062D01*
X102900008Y-93795952D01*
X102964802Y-93937572D01*
X102983007Y-94043602D01*
X102973249Y-94196274D01*
X102926451Y-94371945D01*
X102846444Y-94563442D01*
X102737060Y-94763595D01*
X102602129Y-94965232D01*
X102445482Y-95161180D01*
X102306946Y-95309182D01*
X102071459Y-95523607D01*
X101799501Y-95737872D01*
X101504533Y-95942455D01*
X101200017Y-96127837D01*
X100991350Y-96239589D01*
X100742149Y-96386817D01*
X100496020Y-96572663D01*
X100265541Y-96785843D01*
X100063292Y-97015072D01*
X99946873Y-97176550D01*
X99895280Y-97262177D01*
X99837469Y-97368549D01*
X99778590Y-97484824D01*
X99723794Y-97600158D01*
X99678230Y-97703710D01*
X99647049Y-97784638D01*
X99635400Y-97832100D01*
X99635400Y-97832281D01*
X99612123Y-97872941D01*
X99548455Y-97920826D01*
X99453640Y-97972344D01*
X99336924Y-98023903D01*
X99207549Y-98071912D01*
X99074762Y-98112781D01*
X98947805Y-98142917D01*
X98835923Y-98158730D01*
X98791319Y-98160194D01*
X98707581Y-98156669D01*
X98641448Y-98149881D01*
X98619400Y-98145161D01*
X98576571Y-98127270D01*
X98506115Y-98094805D01*
X98447950Y-98066813D01*
X98366608Y-98021509D01*
X98325152Y-97982324D01*
X98314600Y-97945269D01*
X98325202Y-97901452D01*
X98354110Y-97823066D01*
X98396974Y-97721012D01*
X98449444Y-97606189D01*
X98452306Y-97600172D01*
X98463845Y-97575814D01*
X98762763Y-97575814D01*
X98763678Y-97637437D01*
X98766689Y-97725024D01*
X98767456Y-97743040D01*
X98772695Y-97834104D01*
X98778944Y-97901479D01*
X98784997Y-97932759D01*
X98785990Y-97933600D01*
X98802466Y-97913166D01*
X98832504Y-97861430D01*
X98849001Y-97830037D01*
X98901835Y-97726474D01*
X98835524Y-97639537D01*
X98794057Y-97586541D01*
X98767915Y-97555715D01*
X98764157Y-97552540D01*
X98762763Y-97575814D01*
X98463845Y-97575814D01*
X98493963Y-97512242D01*
X98553788Y-97385185D01*
X98628534Y-97225942D01*
X98714949Y-97041451D01*
X98809785Y-96838651D01*
X98909793Y-96624480D01*
X99011722Y-96405876D01*
X99033653Y-96358800D01*
X99132038Y-96147689D01*
X99245734Y-95903939D01*
X99371835Y-95633766D01*
X99507433Y-95343386D01*
X99649624Y-95039014D01*
X99795501Y-94726866D01*
X99942157Y-94413159D01*
X100002543Y-94284033D01*
X100542232Y-94284033D01*
X100550266Y-94287180D01*
X100556144Y-94283299D01*
X100589327Y-94257686D01*
X100651872Y-94209254D01*
X100733018Y-94146342D01*
X100778400Y-94111132D01*
X100862875Y-94045444D01*
X100932218Y-93991283D01*
X100976578Y-93956351D01*
X100986688Y-93948188D01*
X100988159Y-93918576D01*
X100976568Y-93852879D01*
X100954283Y-93763416D01*
X100944725Y-93729891D01*
X100884973Y-93526700D01*
X100744537Y-93821775D01*
X100665907Y-93988067D01*
X100608114Y-94113148D01*
X100569404Y-94201309D01*
X100548028Y-94256840D01*
X100542232Y-94284033D01*
X100002543Y-94284033D01*
X100086687Y-94104107D01*
X100226184Y-93805926D01*
X100357742Y-93524833D01*
X100478455Y-93267044D01*
X100585417Y-93038773D01*
X100675721Y-92846237D01*
X100724620Y-92742111D01*
X100775072Y-92632322D01*
X100816189Y-92538213D01*
X100843723Y-92469834D01*
X100853431Y-92437311D01*
X100833714Y-92416834D01*
X100777454Y-92368238D01*
X100688309Y-92294462D01*
X100569936Y-92198442D01*
X100425993Y-92083117D01*
X100260138Y-91951424D01*
X100076030Y-91806300D01*
X99877326Y-91650683D01*
X99813835Y-91601197D01*
X101769375Y-91601197D01*
X101776334Y-91697359D01*
X101794188Y-91813571D01*
X101819140Y-91931553D01*
X101847393Y-92033029D01*
X101871661Y-92093583D01*
X101901665Y-92138944D01*
X101917264Y-92140896D01*
X101917502Y-92105016D01*
X101901424Y-92036883D01*
X101888322Y-91996350D01*
X101867675Y-91915971D01*
X101850937Y-91812263D01*
X101838920Y-91697978D01*
X101832437Y-91585863D01*
X101832298Y-91488670D01*
X101839317Y-91419148D01*
X101849881Y-91392719D01*
X101881421Y-91394199D01*
X101936194Y-91428228D01*
X102005867Y-91487553D01*
X102082106Y-91564921D01*
X102156577Y-91653081D01*
X102171370Y-91672500D01*
X102228087Y-91744691D01*
X102258458Y-91774956D01*
X102262546Y-91764765D01*
X102240412Y-91715588D01*
X102192117Y-91628897D01*
X102167817Y-91587917D01*
X102113512Y-91506958D01*
X102048178Y-91423273D01*
X101980186Y-91345901D01*
X101917905Y-91283877D01*
X101869707Y-91246240D01*
X101845845Y-91240301D01*
X101824246Y-91275814D01*
X101802640Y-91346889D01*
X101784236Y-91438389D01*
X101772240Y-91535179D01*
X101769375Y-91601197D01*
X99813835Y-91601197D01*
X99761231Y-91560197D01*
X99556104Y-91400286D01*
X99363549Y-91249578D01*
X99187214Y-91110970D01*
X99030745Y-90987357D01*
X98897791Y-90881635D01*
X98791998Y-90796699D01*
X98717014Y-90735446D01*
X98676486Y-90700771D01*
X98670200Y-90694026D01*
X98693581Y-90679339D01*
X98758356Y-90655159D01*
X98856476Y-90623643D01*
X98979887Y-90586948D01*
X99120539Y-90547232D01*
X99270381Y-90506651D01*
X99421360Y-90467364D01*
X99565427Y-90431527D01*
X99694529Y-90401297D01*
X99800615Y-90378832D01*
X99875634Y-90366288D01*
X99900460Y-90364400D01*
X99917020Y-90384906D01*
X99951925Y-90439662D01*
X99998825Y-90518525D01*
X100019730Y-90554916D01*
X100070101Y-90638092D01*
X100112450Y-90698208D01*
X100140190Y-90726319D01*
X100145963Y-90726366D01*
X100159561Y-90693920D01*
X100179426Y-90625258D01*
X100201715Y-90533946D01*
X100206237Y-90513650D01*
X100248675Y-90320001D01*
X100364682Y-90304100D01*
X100432338Y-90298340D01*
X100537908Y-90293510D01*
X100668511Y-90290028D01*
X100811264Y-90288309D01*
X100856074Y-90288199D01*
X101231458Y-90288199D01*
X101287472Y-90459649D01*
D10*
X95255000Y-92459000D02*
X95255000Y-91084000D01*
X86380000Y-92459000D02*
X86380000Y-96609000D01*
X95280000Y-92459000D02*
X95280000Y-96609000D01*
X86380000Y-92459000D02*
X86495000Y-92459000D01*
X86380000Y-96609000D02*
X86495000Y-96609000D01*
X95280000Y-96609000D02*
X95165000Y-96609000D01*
X95280000Y-92459000D02*
X95255000Y-92459000D01*
X78872000Y-92200500D02*
X78872000Y-90825500D01*
X69997000Y-92200500D02*
X69997000Y-96350500D01*
X78897000Y-92200500D02*
X78897000Y-96350500D01*
X69997000Y-92200500D02*
X70112000Y-92200500D01*
X69997000Y-96350500D02*
X70112000Y-96350500D01*
X78897000Y-96350500D02*
X78782000Y-96350500D01*
X78897000Y-92200500D02*
X78872000Y-92200500D01*
D12*
X94014500Y-99464500D02*
X94014500Y-102324500D01*
X95934500Y-99464500D02*
X94014500Y-99464500D01*
X95934500Y-102324500D02*
X95934500Y-99464500D01*
X75569578Y-79196000D02*
X75052422Y-79196000D01*
X75569578Y-77776000D02*
X75052422Y-77776000D01*
X89796252Y-79196000D02*
X89273748Y-79196000D01*
X89796252Y-77776000D02*
X89273748Y-77776000D01*
X103766252Y-77776000D02*
X103243748Y-77776000D01*
X103766252Y-79196000D02*
X103243748Y-79196000D01*
X114889748Y-87159000D02*
X115412252Y-87159000D01*
X114889748Y-85739000D02*
X115412252Y-85739000D01*
X119631000Y-76749000D02*
X112731000Y-76749000D01*
X119631000Y-73449000D02*
X112731000Y-73449000D01*
X119631000Y-76749000D02*
X119631000Y-73449000D01*
X110020400Y-99375400D02*
X110020400Y-102235400D01*
X111940400Y-99375400D02*
X110020400Y-99375400D01*
X111940400Y-102235400D02*
X111940400Y-99375400D01*
X107952600Y-102260800D02*
X107952600Y-99400800D01*
X107952600Y-99400800D02*
X106032600Y-99400800D01*
X106032600Y-99400800D02*
X106032600Y-102260800D01*
X102019400Y-99562200D02*
X102019400Y-102422200D01*
X103939400Y-99562200D02*
X102019400Y-99562200D01*
X103939400Y-102422200D02*
X103939400Y-99562200D01*
X99900800Y-102413200D02*
X99900800Y-99553200D01*
X99900800Y-99553200D02*
X97980800Y-99553200D01*
X97980800Y-99553200D02*
X97980800Y-102413200D01*
X116674000Y-88272000D02*
X113374000Y-88272000D01*
X113374000Y-88272000D02*
X113374000Y-95172000D01*
X116674000Y-88272000D02*
X116674000Y-95172000D01*
X112809000Y-83639000D02*
X112809000Y-80779000D01*
X112809000Y-80779000D02*
X110889000Y-80779000D01*
X110889000Y-80779000D02*
X110889000Y-83639000D01*
X78939000Y-58455000D02*
X76089000Y-58455000D01*
X81529000Y-68515000D02*
X81529000Y-69915000D01*
X85149000Y-68515000D02*
X85149000Y-69915000D01*
X85149000Y-69915000D02*
X83339000Y-69915000D01*
X76089000Y-58455000D02*
X76089000Y-61305000D01*
X90349000Y-68515000D02*
X85149000Y-68515000D01*
X83339000Y-58695000D02*
X90349000Y-58695000D01*
X76329000Y-68515000D02*
X81529000Y-68515000D01*
X90349000Y-58695000D02*
X90349000Y-68515000D01*
X83339000Y-58695000D02*
X76329000Y-58695000D01*
X81529000Y-69915000D02*
X83339000Y-69915000D01*
X76329000Y-58695000D02*
X76329000Y-68515000D01*
X96715000Y-58727000D02*
X91805000Y-58727000D01*
X91805000Y-58727000D02*
X91805000Y-68547000D01*
X91805000Y-68547000D02*
X94905000Y-68547000D01*
X94905000Y-68547000D02*
X94905000Y-69947000D01*
X94905000Y-69947000D02*
X96715000Y-69947000D01*
X96715000Y-58727000D02*
X101625000Y-58727000D01*
X101625000Y-58727000D02*
X101625000Y-68547000D01*
X101625000Y-68547000D02*
X98525000Y-68547000D01*
X98525000Y-68547000D02*
X98525000Y-69947000D01*
X98525000Y-69947000D02*
X96715000Y-69947000D01*
X94415000Y-58487000D02*
X91565000Y-58487000D01*
X91565000Y-58487000D02*
X91565000Y-61337000D01*
X103324000Y-58695000D02*
X103324000Y-68515000D01*
X108944000Y-68515000D02*
X107944000Y-68515000D01*
X103324000Y-68515000D02*
X104324000Y-68515000D01*
X106134000Y-58695000D02*
X103324000Y-58695000D01*
X108944000Y-58695000D02*
X108944000Y-68515000D01*
X106134000Y-58695000D02*
X108944000Y-58695000D01*
X104324000Y-69915000D02*
X106134000Y-69915000D01*
X104324000Y-68515000D02*
X104324000Y-69915000D01*
X105934000Y-58455000D02*
X103084000Y-58455000D01*
X103084000Y-58455000D02*
X103084000Y-61305000D01*
X107944000Y-68515000D02*
X107944000Y-69915000D01*
X107944000Y-69915000D02*
X106134000Y-69915000D01*
X80835000Y-84385564D02*
X80835000Y-83181436D01*
X79015000Y-84385564D02*
X79015000Y-83181436D01*
X92985000Y-84385564D02*
X92985000Y-83181436D01*
X94805000Y-84385564D02*
X94805000Y-83181436D01*
X69998000Y-84373564D02*
X69998000Y-83169436D01*
X71818000Y-84373564D02*
X71818000Y-83169436D01*
X83841000Y-83169436D02*
X83841000Y-84373564D01*
X85661000Y-83169436D02*
X85661000Y-84373564D01*
X108987000Y-84385564D02*
X108987000Y-83181436D01*
X107167000Y-84385564D02*
X107167000Y-83181436D01*
X98065000Y-84500564D02*
X98065000Y-83296436D01*
X99885000Y-84500564D02*
X99885000Y-83296436D01*
X112759000Y-93782064D02*
X112759000Y-92577936D01*
X110939000Y-93782064D02*
X110939000Y-92577936D01*
X112759000Y-88575064D02*
X112759000Y-87370936D01*
X110939000Y-88575064D02*
X110939000Y-87370936D01*
X117543000Y-92577936D02*
X117543000Y-93782064D01*
X119363000Y-92577936D02*
X119363000Y-93782064D01*
X117543000Y-88575064D02*
X117543000Y-87370936D01*
X119363000Y-88575064D02*
X119363000Y-87370936D01*
X78786000Y-74664000D02*
X78786000Y-76628000D01*
X78786000Y-71888000D02*
X78786000Y-73674000D01*
X71836000Y-74664000D02*
X71836000Y-76628000D01*
X71836000Y-71888000D02*
X71836000Y-73674000D01*
X71836000Y-76628000D02*
X78786000Y-76628000D01*
X71836000Y-71888000D02*
X78786000Y-71888000D01*
X85806000Y-71888000D02*
X92756000Y-71888000D01*
X85806000Y-76628000D02*
X92756000Y-76628000D01*
X85806000Y-71888000D02*
X85806000Y-73674000D01*
X85806000Y-74664000D02*
X85806000Y-76628000D01*
X92756000Y-71888000D02*
X92756000Y-73674000D01*
X92756000Y-74664000D02*
X92756000Y-76628000D01*
X106980000Y-74664000D02*
X106980000Y-76628000D01*
X106980000Y-71888000D02*
X106980000Y-73674000D01*
X100030000Y-74664000D02*
X100030000Y-76628000D01*
X100030000Y-71888000D02*
X100030000Y-73674000D01*
X100030000Y-76628000D02*
X106980000Y-76628000D01*
X100030000Y-71888000D02*
X106980000Y-71888000D01*
X81583000Y-78740000D02*
G75*
G03X81583000Y-78740000I-1700000J0D01*
G01*
X95553000Y-78740000D02*
G75*
G03X95553000Y-78740000I-1700000J0D01*
G01*
X72439000Y-78740000D02*
G75*
G03X72439000Y-78740000I-1700000J0D01*
G01*
X86409000Y-78740000D02*
G75*
G03X86409000Y-78740000I-1700000J0D01*
G01*
X109777000Y-78740000D02*
G75*
G03X109777000Y-78740000I-1700000J0D01*
G01*
X100633000Y-78740000D02*
G75*
G03X100633000Y-78740000I-1700000J0D01*
G01*
X81837000Y-88434000D02*
G75*
G03X81837000Y-88434000I-1700000J0D01*
G01*
X95807000Y-88392000D02*
G75*
G03X95807000Y-88392000I-1700000J0D01*
G01*
X110031000Y-88392000D02*
G75*
G03X110031000Y-88392000I-1700000J0D01*
G01*
X73624000Y-67225000D02*
G75*
G03X73624000Y-67225000I-1700000J0D01*
G01*
D10*
X77954999Y-81716001D02*
X77904999Y-81716001D01*
X77954999Y-85866001D02*
X77809999Y-85866001D01*
X72804999Y-85866001D02*
X72949999Y-85866001D01*
X72804999Y-81716001D02*
X72949999Y-81716001D01*
X77954999Y-81716001D02*
X77954999Y-85866001D01*
X72804999Y-81716001D02*
X72804999Y-85866001D01*
X77904999Y-81716001D02*
X77904999Y-80316001D01*
X91854999Y-81702001D02*
X91854999Y-80302001D01*
X86754999Y-81702001D02*
X86754999Y-85852001D01*
X91904999Y-81702001D02*
X91904999Y-85852001D01*
X86754999Y-81702001D02*
X86899999Y-81702001D01*
X86754999Y-85852001D02*
X86899999Y-85852001D01*
X91904999Y-85852001D02*
X91759999Y-85852001D01*
X91904999Y-81702001D02*
X91854999Y-81702001D01*
X106024999Y-81734001D02*
X106024999Y-80334001D01*
X100924999Y-81734001D02*
X100924999Y-85884001D01*
X106074999Y-81734001D02*
X106074999Y-85884001D01*
X100924999Y-81734001D02*
X101069999Y-81734001D01*
X100924999Y-85884001D02*
X101069999Y-85884001D01*
X106074999Y-85884001D02*
X105929999Y-85884001D01*
X106074999Y-81734001D02*
X106024999Y-81734001D01*
D12*
X113223200Y-65952600D02*
X113223200Y-67212600D01*
X113223200Y-72772600D02*
X113223200Y-71512600D01*
X116983200Y-65952600D02*
X113223200Y-65952600D01*
X119233200Y-72772600D02*
X113223200Y-72772600D01*
X83653999Y-92668999D02*
X81853999Y-92668999D01*
X81853999Y-95888999D02*
X84303999Y-95888999D01*
D10*
X114205001Y-83359999D02*
X114255001Y-83359999D01*
X114205001Y-79209999D02*
X114350001Y-79209999D01*
X119355001Y-79209999D02*
X119210001Y-79209999D01*
X119355001Y-83359999D02*
X119210001Y-83359999D01*
X114205001Y-83359999D02*
X114205001Y-79209999D01*
X119355001Y-83359999D02*
X119355001Y-79209999D01*
X114255001Y-83359999D02*
X114255001Y-84759999D01*
X75492000Y-104653000D02*
X75542000Y-104653000D01*
X75492000Y-100503000D02*
X75637000Y-100503000D01*
X80642000Y-100503000D02*
X80497000Y-100503000D01*
X80642000Y-104653000D02*
X80497000Y-104653000D01*
X75492000Y-104653000D02*
X75492000Y-100503000D01*
X80642000Y-104653000D02*
X80642000Y-100503000D01*
X75542000Y-104653000D02*
X75542000Y-106053000D01*
X81130000Y-104653000D02*
X81130000Y-106053000D01*
X86230000Y-104653000D02*
X86230000Y-100503000D01*
X81080000Y-104653000D02*
X81080000Y-100503000D01*
X86230000Y-104653000D02*
X86085000Y-104653000D01*
X86230000Y-100503000D02*
X86085000Y-100503000D01*
X81080000Y-100503000D02*
X81225000Y-100503000D01*
X81080000Y-104653000D02*
X81130000Y-104653000D01*
X86668000Y-104653000D02*
X86718000Y-104653000D01*
X86668000Y-100503000D02*
X86813000Y-100503000D01*
X91818000Y-100503000D02*
X91673000Y-100503000D01*
X91818000Y-104653000D02*
X91673000Y-104653000D01*
X86668000Y-104653000D02*
X86668000Y-100503000D01*
X91818000Y-104653000D02*
X91818000Y-100503000D01*
X86718000Y-104653000D02*
X86718000Y-106053000D01*
X90172380Y-95772095D02*
X90981904Y-95772095D01*
X91077142Y-95724476D01*
X91124761Y-95676857D01*
X91172380Y-95581619D01*
X91172380Y-95391142D01*
X91124761Y-95295904D01*
X91077142Y-95248285D01*
X90981904Y-95200666D01*
X90172380Y-95200666D01*
X91172380Y-94200666D02*
X91172380Y-94772095D01*
X91172380Y-94486380D02*
X90172380Y-94486380D01*
X90315238Y-94581619D01*
X90410476Y-94676857D01*
X90458095Y-94772095D01*
X90267619Y-93819714D02*
X90220000Y-93772095D01*
X90172380Y-93676857D01*
X90172380Y-93438761D01*
X90220000Y-93343523D01*
X90267619Y-93295904D01*
X90362857Y-93248285D01*
X90458095Y-93248285D01*
X90600952Y-93295904D01*
X91172380Y-93867333D01*
X91172380Y-93248285D01*
X73916380Y-95037904D02*
X74725904Y-95037904D01*
X74821142Y-94990285D01*
X74868761Y-94942666D01*
X74916380Y-94847428D01*
X74916380Y-94656952D01*
X74868761Y-94561714D01*
X74821142Y-94514095D01*
X74725904Y-94466476D01*
X73916380Y-94466476D01*
X74249714Y-93561714D02*
X74916380Y-93561714D01*
X73868761Y-93799809D02*
X74583047Y-94037904D01*
X74583047Y-93418857D01*
X95363380Y-102062595D02*
X94363380Y-102062595D01*
X94363380Y-101824500D01*
X94411000Y-101681642D01*
X94506238Y-101586404D01*
X94601476Y-101538785D01*
X94791952Y-101491166D01*
X94934809Y-101491166D01*
X95125285Y-101538785D01*
X95220523Y-101586404D01*
X95315761Y-101681642D01*
X95363380Y-101824500D01*
X95363380Y-102062595D01*
X95363380Y-101014976D02*
X95363380Y-100824500D01*
X95315761Y-100729261D01*
X95268142Y-100681642D01*
X95125285Y-100586404D01*
X94934809Y-100538785D01*
X94553857Y-100538785D01*
X94458619Y-100586404D01*
X94411000Y-100634023D01*
X94363380Y-100729261D01*
X94363380Y-100919738D01*
X94411000Y-101014976D01*
X94458619Y-101062595D01*
X94553857Y-101110214D01*
X94791952Y-101110214D01*
X94887190Y-101062595D01*
X94934809Y-101014976D01*
X94982428Y-100919738D01*
X94982428Y-100729261D01*
X94934809Y-100634023D01*
X94887190Y-100586404D01*
X94791952Y-100538785D01*
X111610580Y-101973495D02*
X110610580Y-101973495D01*
X110610580Y-101735400D01*
X110658200Y-101592542D01*
X110753438Y-101497304D01*
X110848676Y-101449685D01*
X111039152Y-101402066D01*
X111182009Y-101402066D01*
X111372485Y-101449685D01*
X111467723Y-101497304D01*
X111562961Y-101592542D01*
X111610580Y-101735400D01*
X111610580Y-101973495D01*
X110610580Y-101068733D02*
X110610580Y-100449685D01*
X110991533Y-100783019D01*
X110991533Y-100640161D01*
X111039152Y-100544923D01*
X111086771Y-100497304D01*
X111182009Y-100449685D01*
X111420104Y-100449685D01*
X111515342Y-100497304D01*
X111562961Y-100544923D01*
X111610580Y-100640161D01*
X111610580Y-100925876D01*
X111562961Y-101021114D01*
X111515342Y-101068733D01*
X107546580Y-101998895D02*
X106546580Y-101998895D01*
X106546580Y-101760800D01*
X106594200Y-101617942D01*
X106689438Y-101522704D01*
X106784676Y-101475085D01*
X106975152Y-101427466D01*
X107118009Y-101427466D01*
X107308485Y-101475085D01*
X107403723Y-101522704D01*
X107498961Y-101617942D01*
X107546580Y-101760800D01*
X107546580Y-101998895D01*
X106879914Y-100570323D02*
X107546580Y-100570323D01*
X106498961Y-100808419D02*
X107213247Y-101046514D01*
X107213247Y-100427466D01*
X103533380Y-102173095D02*
X102533380Y-102173095D01*
X102533380Y-101935000D01*
X102581000Y-101792142D01*
X102676238Y-101696904D01*
X102771476Y-101649285D01*
X102961952Y-101601666D01*
X103104809Y-101601666D01*
X103295285Y-101649285D01*
X103390523Y-101696904D01*
X103485761Y-101792142D01*
X103533380Y-101935000D01*
X103533380Y-102173095D01*
X102533380Y-100696904D02*
X102533380Y-101173095D01*
X103009571Y-101220714D01*
X102961952Y-101173095D01*
X102914333Y-101077857D01*
X102914333Y-100839761D01*
X102961952Y-100744523D01*
X103009571Y-100696904D01*
X103104809Y-100649285D01*
X103342904Y-100649285D01*
X103438142Y-100696904D01*
X103485761Y-100744523D01*
X103533380Y-100839761D01*
X103533380Y-101077857D01*
X103485761Y-101173095D01*
X103438142Y-101220714D01*
X99316980Y-102151295D02*
X98316980Y-102151295D01*
X98316980Y-101913200D01*
X98364600Y-101770342D01*
X98459838Y-101675104D01*
X98555076Y-101627485D01*
X98745552Y-101579866D01*
X98888409Y-101579866D01*
X99078885Y-101627485D01*
X99174123Y-101675104D01*
X99269361Y-101770342D01*
X99316980Y-101913200D01*
X99316980Y-102151295D01*
X98316980Y-100722723D02*
X98316980Y-100913200D01*
X98364600Y-101008438D01*
X98412219Y-101056057D01*
X98555076Y-101151295D01*
X98745552Y-101198914D01*
X99126504Y-101198914D01*
X99221742Y-101151295D01*
X99269361Y-101103676D01*
X99316980Y-101008438D01*
X99316980Y-100817961D01*
X99269361Y-100722723D01*
X99221742Y-100675104D01*
X99126504Y-100627485D01*
X98888409Y-100627485D01*
X98793171Y-100675104D01*
X98745552Y-100722723D01*
X98697933Y-100817961D01*
X98697933Y-101008438D01*
X98745552Y-101103676D01*
X98793171Y-101151295D01*
X98888409Y-101198914D01*
X79901238Y-76186380D02*
X79567904Y-75710190D01*
X79329809Y-76186380D02*
X79329809Y-75186380D01*
X79710761Y-75186380D01*
X79806000Y-75234000D01*
X79853619Y-75281619D01*
X79901238Y-75376857D01*
X79901238Y-75519714D01*
X79853619Y-75614952D01*
X79806000Y-75662571D01*
X79710761Y-75710190D01*
X79329809Y-75710190D01*
X80710761Y-76138761D02*
X80615523Y-76186380D01*
X80425047Y-76186380D01*
X80329809Y-76138761D01*
X80282190Y-76043523D01*
X80282190Y-75662571D01*
X80329809Y-75567333D01*
X80425047Y-75519714D01*
X80615523Y-75519714D01*
X80710761Y-75567333D01*
X80758380Y-75662571D01*
X80758380Y-75757809D01*
X80282190Y-75853047D01*
X81044095Y-75519714D02*
X81425047Y-75519714D01*
X81186952Y-76186380D02*
X81186952Y-75329238D01*
X81234571Y-75234000D01*
X81329809Y-75186380D01*
X81425047Y-75186380D01*
X93871238Y-76186380D02*
X93537904Y-75710190D01*
X93299809Y-76186380D02*
X93299809Y-75186380D01*
X93680761Y-75186380D01*
X93776000Y-75234000D01*
X93823619Y-75281619D01*
X93871238Y-75376857D01*
X93871238Y-75519714D01*
X93823619Y-75614952D01*
X93776000Y-75662571D01*
X93680761Y-75710190D01*
X93299809Y-75710190D01*
X94680761Y-76138761D02*
X94585523Y-76186380D01*
X94395047Y-76186380D01*
X94299809Y-76138761D01*
X94252190Y-76043523D01*
X94252190Y-75662571D01*
X94299809Y-75567333D01*
X94395047Y-75519714D01*
X94585523Y-75519714D01*
X94680761Y-75567333D01*
X94728380Y-75662571D01*
X94728380Y-75757809D01*
X94252190Y-75853047D01*
X95014095Y-75519714D02*
X95395047Y-75519714D01*
X95156952Y-76186380D02*
X95156952Y-75329238D01*
X95204571Y-75234000D01*
X95299809Y-75186380D01*
X95395047Y-75186380D01*
X69423809Y-76138761D02*
X69566666Y-76186380D01*
X69804761Y-76186380D01*
X69900000Y-76138761D01*
X69947619Y-76091142D01*
X69995238Y-75995904D01*
X69995238Y-75900666D01*
X69947619Y-75805428D01*
X69900000Y-75757809D01*
X69804761Y-75710190D01*
X69614285Y-75662571D01*
X69519047Y-75614952D01*
X69471428Y-75567333D01*
X69423809Y-75472095D01*
X69423809Y-75376857D01*
X69471428Y-75281619D01*
X69519047Y-75234000D01*
X69614285Y-75186380D01*
X69852380Y-75186380D01*
X69995238Y-75234000D01*
X70423809Y-76186380D02*
X70423809Y-75519714D01*
X70423809Y-75186380D02*
X70376190Y-75234000D01*
X70423809Y-75281619D01*
X70471428Y-75234000D01*
X70423809Y-75186380D01*
X70423809Y-75281619D01*
X71328571Y-75519714D02*
X71328571Y-76329238D01*
X71280952Y-76424476D01*
X71233333Y-76472095D01*
X71138095Y-76519714D01*
X70995238Y-76519714D01*
X70900000Y-76472095D01*
X71328571Y-76138761D02*
X71233333Y-76186380D01*
X71042857Y-76186380D01*
X70947619Y-76138761D01*
X70900000Y-76091142D01*
X70852380Y-75995904D01*
X70852380Y-75710190D01*
X70900000Y-75614952D01*
X70947619Y-75567333D01*
X71042857Y-75519714D01*
X71233333Y-75519714D01*
X71328571Y-75567333D01*
X83393809Y-76138761D02*
X83536666Y-76186380D01*
X83774761Y-76186380D01*
X83870000Y-76138761D01*
X83917619Y-76091142D01*
X83965238Y-75995904D01*
X83965238Y-75900666D01*
X83917619Y-75805428D01*
X83870000Y-75757809D01*
X83774761Y-75710190D01*
X83584285Y-75662571D01*
X83489047Y-75614952D01*
X83441428Y-75567333D01*
X83393809Y-75472095D01*
X83393809Y-75376857D01*
X83441428Y-75281619D01*
X83489047Y-75234000D01*
X83584285Y-75186380D01*
X83822380Y-75186380D01*
X83965238Y-75234000D01*
X84393809Y-76186380D02*
X84393809Y-75519714D01*
X84393809Y-75186380D02*
X84346190Y-75234000D01*
X84393809Y-75281619D01*
X84441428Y-75234000D01*
X84393809Y-75186380D01*
X84393809Y-75281619D01*
X85298571Y-75519714D02*
X85298571Y-76329238D01*
X85250952Y-76424476D01*
X85203333Y-76472095D01*
X85108095Y-76519714D01*
X84965238Y-76519714D01*
X84870000Y-76472095D01*
X85298571Y-76138761D02*
X85203333Y-76186380D01*
X85012857Y-76186380D01*
X84917619Y-76138761D01*
X84870000Y-76091142D01*
X84822380Y-75995904D01*
X84822380Y-75710190D01*
X84870000Y-75614952D01*
X84917619Y-75567333D01*
X85012857Y-75519714D01*
X85203333Y-75519714D01*
X85298571Y-75567333D01*
X108095238Y-76186380D02*
X107761904Y-75710190D01*
X107523809Y-76186380D02*
X107523809Y-75186380D01*
X107904761Y-75186380D01*
X108000000Y-75234000D01*
X108047619Y-75281619D01*
X108095238Y-75376857D01*
X108095238Y-75519714D01*
X108047619Y-75614952D01*
X108000000Y-75662571D01*
X107904761Y-75710190D01*
X107523809Y-75710190D01*
X108904761Y-76138761D02*
X108809523Y-76186380D01*
X108619047Y-76186380D01*
X108523809Y-76138761D01*
X108476190Y-76043523D01*
X108476190Y-75662571D01*
X108523809Y-75567333D01*
X108619047Y-75519714D01*
X108809523Y-75519714D01*
X108904761Y-75567333D01*
X108952380Y-75662571D01*
X108952380Y-75757809D01*
X108476190Y-75853047D01*
X109238095Y-75519714D02*
X109619047Y-75519714D01*
X109380952Y-76186380D02*
X109380952Y-75329238D01*
X109428571Y-75234000D01*
X109523809Y-75186380D01*
X109619047Y-75186380D01*
X97617809Y-76138761D02*
X97760666Y-76186380D01*
X97998761Y-76186380D01*
X98094000Y-76138761D01*
X98141619Y-76091142D01*
X98189238Y-75995904D01*
X98189238Y-75900666D01*
X98141619Y-75805428D01*
X98094000Y-75757809D01*
X97998761Y-75710190D01*
X97808285Y-75662571D01*
X97713047Y-75614952D01*
X97665428Y-75567333D01*
X97617809Y-75472095D01*
X97617809Y-75376857D01*
X97665428Y-75281619D01*
X97713047Y-75234000D01*
X97808285Y-75186380D01*
X98046380Y-75186380D01*
X98189238Y-75234000D01*
X98617809Y-76186380D02*
X98617809Y-75519714D01*
X98617809Y-75186380D02*
X98570190Y-75234000D01*
X98617809Y-75281619D01*
X98665428Y-75234000D01*
X98617809Y-75186380D01*
X98617809Y-75281619D01*
X99522571Y-75519714D02*
X99522571Y-76329238D01*
X99474952Y-76424476D01*
X99427333Y-76472095D01*
X99332095Y-76519714D01*
X99189238Y-76519714D01*
X99094000Y-76472095D01*
X99522571Y-76138761D02*
X99427333Y-76186380D01*
X99236857Y-76186380D01*
X99141619Y-76138761D01*
X99094000Y-76091142D01*
X99046380Y-75995904D01*
X99046380Y-75710190D01*
X99094000Y-75614952D01*
X99141619Y-75567333D01*
X99236857Y-75519714D01*
X99427333Y-75519714D01*
X99522571Y-75567333D01*
X72852952Y-88912571D02*
X72995809Y-88960190D01*
X73043428Y-89007809D01*
X73091047Y-89103047D01*
X73091047Y-89245904D01*
X73043428Y-89341142D01*
X72995809Y-89388761D01*
X72900571Y-89436380D01*
X72519619Y-89436380D01*
X72519619Y-88436380D01*
X72852952Y-88436380D01*
X72948190Y-88484000D01*
X72995809Y-88531619D01*
X73043428Y-88626857D01*
X73043428Y-88722095D01*
X72995809Y-88817333D01*
X72948190Y-88864952D01*
X72852952Y-88912571D01*
X72519619Y-88912571D01*
X73519619Y-89436380D02*
X73519619Y-88769714D01*
X73519619Y-88960190D02*
X73567238Y-88864952D01*
X73614857Y-88817333D01*
X73710095Y-88769714D01*
X73805333Y-88769714D01*
X74138666Y-89436380D02*
X74138666Y-88436380D01*
X74233904Y-89055428D02*
X74519619Y-89436380D01*
X74519619Y-88769714D02*
X74138666Y-89150666D01*
X75281523Y-88912571D02*
X74948190Y-88912571D01*
X74948190Y-89436380D02*
X74948190Y-88436380D01*
X75424380Y-88436380D01*
X75805333Y-89436380D02*
X75805333Y-88769714D01*
X75805333Y-88960190D02*
X75852952Y-88864952D01*
X75900571Y-88817333D01*
X75995809Y-88769714D01*
X76091047Y-88769714D01*
X76424380Y-88769714D02*
X76424380Y-89436380D01*
X76424380Y-88864952D02*
X76472000Y-88817333D01*
X76567238Y-88769714D01*
X76710095Y-88769714D01*
X76805333Y-88817333D01*
X76852952Y-88912571D01*
X76852952Y-89436380D01*
X77186285Y-88769714D02*
X77567238Y-88769714D01*
X77329142Y-88436380D02*
X77329142Y-89293523D01*
X77376761Y-89388761D01*
X77472000Y-89436380D01*
X77567238Y-89436380D01*
X86354666Y-88616571D02*
X86497523Y-88664190D01*
X86545142Y-88711809D01*
X86592761Y-88807047D01*
X86592761Y-88949904D01*
X86545142Y-89045142D01*
X86497523Y-89092761D01*
X86402285Y-89140380D01*
X86021333Y-89140380D01*
X86021333Y-88140380D01*
X86354666Y-88140380D01*
X86449904Y-88188000D01*
X86497523Y-88235619D01*
X86545142Y-88330857D01*
X86545142Y-88426095D01*
X86497523Y-88521333D01*
X86449904Y-88568952D01*
X86354666Y-88616571D01*
X86021333Y-88616571D01*
X87021333Y-89140380D02*
X87021333Y-88473714D01*
X87021333Y-88664190D02*
X87068952Y-88568952D01*
X87116571Y-88521333D01*
X87211809Y-88473714D01*
X87307047Y-88473714D01*
X87640380Y-89140380D02*
X87640380Y-88140380D01*
X87735619Y-88759428D02*
X88021333Y-89140380D01*
X88021333Y-88473714D02*
X87640380Y-88854666D01*
X89021333Y-89140380D02*
X88688000Y-88664190D01*
X88449904Y-89140380D02*
X88449904Y-88140380D01*
X88830857Y-88140380D01*
X88926095Y-88188000D01*
X88973714Y-88235619D01*
X89021333Y-88330857D01*
X89021333Y-88473714D01*
X88973714Y-88568952D01*
X88926095Y-88616571D01*
X88830857Y-88664190D01*
X88449904Y-88664190D01*
X89830857Y-89092761D02*
X89735619Y-89140380D01*
X89545142Y-89140380D01*
X89449904Y-89092761D01*
X89402285Y-88997523D01*
X89402285Y-88616571D01*
X89449904Y-88521333D01*
X89545142Y-88473714D01*
X89735619Y-88473714D01*
X89830857Y-88521333D01*
X89878476Y-88616571D01*
X89878476Y-88711809D01*
X89402285Y-88807047D01*
X90735619Y-89140380D02*
X90735619Y-88616571D01*
X90688000Y-88521333D01*
X90592761Y-88473714D01*
X90402285Y-88473714D01*
X90307047Y-88521333D01*
X90735619Y-89092761D02*
X90640380Y-89140380D01*
X90402285Y-89140380D01*
X90307047Y-89092761D01*
X90259428Y-88997523D01*
X90259428Y-88902285D01*
X90307047Y-88807047D01*
X90402285Y-88759428D01*
X90640380Y-88759428D01*
X90735619Y-88711809D01*
X91211809Y-89140380D02*
X91211809Y-88473714D01*
X91211809Y-88664190D02*
X91259428Y-88568952D01*
X91307047Y-88521333D01*
X91402285Y-88473714D01*
X91497523Y-88473714D01*
X101237428Y-89045142D02*
X101189809Y-89092761D01*
X101046952Y-89140380D01*
X100951714Y-89140380D01*
X100808857Y-89092761D01*
X100713619Y-88997523D01*
X100666000Y-88902285D01*
X100618380Y-88711809D01*
X100618380Y-88568952D01*
X100666000Y-88378476D01*
X100713619Y-88283238D01*
X100808857Y-88188000D01*
X100951714Y-88140380D01*
X101046952Y-88140380D01*
X101189809Y-88188000D01*
X101237428Y-88235619D01*
X102094571Y-88473714D02*
X102094571Y-89140380D01*
X101666000Y-88473714D02*
X101666000Y-88997523D01*
X101713619Y-89092761D01*
X101808857Y-89140380D01*
X101951714Y-89140380D01*
X102046952Y-89092761D01*
X102094571Y-89045142D01*
X102570761Y-89140380D02*
X102570761Y-88473714D01*
X102570761Y-88664190D02*
X102618380Y-88568952D01*
X102666000Y-88521333D01*
X102761238Y-88473714D01*
X102856476Y-88473714D01*
X103189809Y-89140380D02*
X103189809Y-88473714D01*
X103189809Y-88664190D02*
X103237428Y-88568952D01*
X103285047Y-88521333D01*
X103380285Y-88473714D01*
X103475523Y-88473714D01*
X104189809Y-89092761D02*
X104094571Y-89140380D01*
X103904095Y-89140380D01*
X103808857Y-89092761D01*
X103761238Y-88997523D01*
X103761238Y-88616571D01*
X103808857Y-88521333D01*
X103904095Y-88473714D01*
X104094571Y-88473714D01*
X104189809Y-88521333D01*
X104237428Y-88616571D01*
X104237428Y-88711809D01*
X103761238Y-88807047D01*
X104666000Y-88473714D02*
X104666000Y-89140380D01*
X104666000Y-88568952D02*
X104713619Y-88521333D01*
X104808857Y-88473714D01*
X104951714Y-88473714D01*
X105046952Y-88521333D01*
X105094571Y-88616571D01*
X105094571Y-89140380D01*
X105427904Y-88473714D02*
X105808857Y-88473714D01*
X105570761Y-88140380D02*
X105570761Y-88997523D01*
X105618380Y-89092761D01*
X105713619Y-89140380D01*
X105808857Y-89140380D01*
X71162095Y-69646000D02*
X71066857Y-69598380D01*
X70924000Y-69598380D01*
X70781142Y-69646000D01*
X70685904Y-69741238D01*
X70638285Y-69836476D01*
X70590666Y-70026952D01*
X70590666Y-70169809D01*
X70638285Y-70360285D01*
X70685904Y-70455523D01*
X70781142Y-70550761D01*
X70924000Y-70598380D01*
X71019238Y-70598380D01*
X71162095Y-70550761D01*
X71209714Y-70503142D01*
X71209714Y-70169809D01*
X71019238Y-70169809D01*
X71638285Y-70598380D02*
X71638285Y-69598380D01*
X72209714Y-70598380D01*
X72209714Y-69598380D01*
X72685904Y-70598380D02*
X72685904Y-69598380D01*
X72924000Y-69598380D01*
X73066857Y-69646000D01*
X73162095Y-69741238D01*
X73209714Y-69836476D01*
X73257333Y-70026952D01*
X73257333Y-70169809D01*
X73209714Y-70360285D01*
X73162095Y-70455523D01*
X73066857Y-70550761D01*
X72924000Y-70598380D01*
X72685904Y-70598380D01*
X74852380Y-84581904D02*
X75661904Y-84581904D01*
X75757142Y-84534285D01*
X75804761Y-84486666D01*
X75852380Y-84391428D01*
X75852380Y-84200952D01*
X75804761Y-84105714D01*
X75757142Y-84058095D01*
X75661904Y-84010476D01*
X74852380Y-84010476D01*
X75852380Y-83010476D02*
X75852380Y-83581904D01*
X75852380Y-83296190D02*
X74852380Y-83296190D01*
X74995238Y-83391428D01*
X75090476Y-83486666D01*
X75138095Y-83581904D01*
X88822380Y-84581904D02*
X89631904Y-84581904D01*
X89727142Y-84534285D01*
X89774761Y-84486666D01*
X89822380Y-84391428D01*
X89822380Y-84200952D01*
X89774761Y-84105714D01*
X89727142Y-84058095D01*
X89631904Y-84010476D01*
X88822380Y-84010476D01*
X88917619Y-83581904D02*
X88870000Y-83534285D01*
X88822380Y-83439047D01*
X88822380Y-83200952D01*
X88870000Y-83105714D01*
X88917619Y-83058095D01*
X89012857Y-83010476D01*
X89108095Y-83010476D01*
X89250952Y-83058095D01*
X89822380Y-83629523D01*
X89822380Y-83010476D01*
X103046380Y-84570905D02*
X103855904Y-84570905D01*
X103951142Y-84523286D01*
X103998761Y-84475667D01*
X104046380Y-84380429D01*
X104046380Y-84189953D01*
X103998761Y-84094715D01*
X103951142Y-84047096D01*
X103855904Y-83999477D01*
X103046380Y-83999477D01*
X103046380Y-83618524D02*
X103046380Y-82999477D01*
X103427333Y-83332810D01*
X103427333Y-83189953D01*
X103474952Y-83094715D01*
X103522571Y-83047096D01*
X103617809Y-82999477D01*
X103855904Y-82999477D01*
X103951142Y-83047096D01*
X103998761Y-83094715D01*
X104046380Y-83189953D01*
X104046380Y-83475667D01*
X103998761Y-83570905D01*
X103951142Y-83618524D01*
X114498295Y-68725980D02*
X114498295Y-69535504D01*
X114545914Y-69630742D01*
X114593533Y-69678361D01*
X114688771Y-69725980D01*
X114879247Y-69725980D01*
X114974485Y-69678361D01*
X115022104Y-69630742D01*
X115069723Y-69535504D01*
X115069723Y-68725980D01*
X115974485Y-68725980D02*
X115784009Y-68725980D01*
X115688771Y-68773600D01*
X115641152Y-68821219D01*
X115545914Y-68964076D01*
X115498295Y-69154552D01*
X115498295Y-69535504D01*
X115545914Y-69630742D01*
X115593533Y-69678361D01*
X115688771Y-69725980D01*
X115879247Y-69725980D01*
X115974485Y-69678361D01*
X116022104Y-69630742D01*
X116069723Y-69535504D01*
X116069723Y-69297409D01*
X116022104Y-69202171D01*
X115974485Y-69154552D01*
X115879247Y-69106933D01*
X115688771Y-69106933D01*
X115593533Y-69154552D01*
X115545914Y-69202171D01*
X115498295Y-69297409D01*
X82206379Y-95122904D02*
X83015903Y-95122904D01*
X83111141Y-95075285D01*
X83158760Y-95027666D01*
X83206379Y-94932428D01*
X83206379Y-94741952D01*
X83158760Y-94646714D01*
X83111141Y-94599095D01*
X83015903Y-94551476D01*
X82206379Y-94551476D01*
X82206379Y-94170523D02*
X82206379Y-93503857D01*
X83206379Y-93932428D01*
X116254380Y-82168904D02*
X117063904Y-82168904D01*
X117159142Y-82121285D01*
X117206761Y-82073666D01*
X117254380Y-81978428D01*
X117254380Y-81787952D01*
X117206761Y-81692714D01*
X117159142Y-81645095D01*
X117063904Y-81597476D01*
X116254380Y-81597476D01*
X116682952Y-80978428D02*
X116635333Y-81073666D01*
X116587714Y-81121285D01*
X116492476Y-81168904D01*
X116444857Y-81168904D01*
X116349619Y-81121285D01*
X116302000Y-81073666D01*
X116254380Y-80978428D01*
X116254380Y-80787952D01*
X116302000Y-80692714D01*
X116349619Y-80645095D01*
X116444857Y-80597476D01*
X116492476Y-80597476D01*
X116587714Y-80645095D01*
X116635333Y-80692714D01*
X116682952Y-80787952D01*
X116682952Y-80978428D01*
X116730571Y-81073666D01*
X116778190Y-81121285D01*
X116873428Y-81168904D01*
X117063904Y-81168904D01*
X117159142Y-81121285D01*
X117206761Y-81073666D01*
X117254380Y-80978428D01*
X117254380Y-80787952D01*
X117206761Y-80692714D01*
X117159142Y-80645095D01*
X117063904Y-80597476D01*
X116873428Y-80597476D01*
X116778190Y-80645095D01*
X116730571Y-80692714D01*
X116682952Y-80787952D01*
X77773380Y-103250904D02*
X78582904Y-103250904D01*
X78678142Y-103203285D01*
X78725761Y-103155666D01*
X78773380Y-103060428D01*
X78773380Y-102869952D01*
X78725761Y-102774714D01*
X78678142Y-102727095D01*
X78582904Y-102679476D01*
X77773380Y-102679476D01*
X78773380Y-102155666D02*
X78773380Y-101965190D01*
X78725761Y-101869952D01*
X78678142Y-101822333D01*
X78535285Y-101727095D01*
X78344809Y-101679476D01*
X77963857Y-101679476D01*
X77868619Y-101727095D01*
X77821000Y-101774714D01*
X77773380Y-101869952D01*
X77773380Y-102060428D01*
X77821000Y-102155666D01*
X77868619Y-102203285D01*
X77963857Y-102250904D01*
X78201952Y-102250904D01*
X78297190Y-102203285D01*
X78344809Y-102155666D01*
X78392428Y-102060428D01*
X78392428Y-101869952D01*
X78344809Y-101774714D01*
X78297190Y-101727095D01*
X78201952Y-101679476D01*
X83361380Y-103816095D02*
X84170904Y-103816095D01*
X84266142Y-103768476D01*
X84313761Y-103720857D01*
X84361380Y-103625619D01*
X84361380Y-103435142D01*
X84313761Y-103339904D01*
X84266142Y-103292285D01*
X84170904Y-103244666D01*
X83361380Y-103244666D01*
X84361380Y-102244666D02*
X84361380Y-102816095D01*
X84361380Y-102530380D02*
X83361380Y-102530380D01*
X83504238Y-102625619D01*
X83599476Y-102720857D01*
X83647095Y-102816095D01*
X83361380Y-101625619D02*
X83361380Y-101530380D01*
X83409000Y-101435142D01*
X83456619Y-101387523D01*
X83551857Y-101339904D01*
X83742333Y-101292285D01*
X83980428Y-101292285D01*
X84170904Y-101339904D01*
X84266142Y-101387523D01*
X84313761Y-101435142D01*
X84361380Y-101530380D01*
X84361380Y-101625619D01*
X84313761Y-101720857D01*
X84266142Y-101768476D01*
X84170904Y-101816095D01*
X83980428Y-101863714D01*
X83742333Y-101863714D01*
X83551857Y-101816095D01*
X83456619Y-101768476D01*
X83409000Y-101720857D01*
X83361380Y-101625619D01*
X88949380Y-103816095D02*
X89758904Y-103816095D01*
X89854142Y-103768476D01*
X89901761Y-103720857D01*
X89949380Y-103625619D01*
X89949380Y-103435142D01*
X89901761Y-103339904D01*
X89854142Y-103292285D01*
X89758904Y-103244666D01*
X88949380Y-103244666D01*
X89949380Y-102244666D02*
X89949380Y-102816095D01*
X89949380Y-102530380D02*
X88949380Y-102530380D01*
X89092238Y-102625619D01*
X89187476Y-102720857D01*
X89235095Y-102816095D01*
X89949380Y-101292285D02*
X89949380Y-101863714D01*
X89949380Y-101578000D02*
X88949380Y-101578000D01*
X89092238Y-101673238D01*
X89187476Y-101768476D01*
X89235095Y-101863714D01*
M02*
