G04 #@! TF.GenerationSoftware,KiCad,Pcbnew,(5.1.0)-1*
G04 #@! TF.CreationDate,2019-10-16T14:08:09+11:00*
G04 #@! TF.ProjectId,BSPD,42535044-2e6b-4696-9361-645f70636258,rev?*
G04 #@! TF.SameCoordinates,Original*
G04 #@! TF.FileFunction,Copper,L1,Top*
G04 #@! TF.FilePolarity,Positive*
%FSLAX46Y46*%
G04 Gerber Fmt 4.6, Leading zero omitted, Abs format (unit mm)*
G04 Created by KiCad (PCBNEW (5.1.0)-1) date 2019-10-16 14:08:09*
%MOMM*%
%LPD*%
G04 APERTURE LIST*
%ADD10R,0.600000X1.500000*%
%ADD11C,0.100000*%
%ADD12C,1.150000*%
%ADD13C,0.975000*%
%ADD14R,3.500000X1.800000*%
%ADD15R,1.800000X3.500000*%
%ADD16O,2.700000X3.300000*%
%ADD17C,2.700000*%
%ADD18C,1.425000*%
%ADD19C,1.440000*%
%ADD20C,3.000000*%
%ADD21R,0.600000X1.550000*%
%ADD22R,2.000000X3.800000*%
%ADD23R,2.000000X1.500000*%
%ADD24R,1.560000X0.650000*%
%ADD25C,0.800000*%
%ADD26C,0.250000*%
G04 APERTURE END LIST*
D10*
X94640000Y-97234000D03*
X93370000Y-97234000D03*
X92100000Y-97234000D03*
X90830000Y-97234000D03*
X89560000Y-97234000D03*
X88290000Y-97234000D03*
X87020000Y-97234000D03*
X87020000Y-91834000D03*
X88290000Y-91834000D03*
X89560000Y-91834000D03*
X90830000Y-91834000D03*
X92100000Y-91834000D03*
X93370000Y-91834000D03*
X94640000Y-91834000D03*
X78257000Y-96975500D03*
X76987000Y-96975500D03*
X75717000Y-96975500D03*
X74447000Y-96975500D03*
X73177000Y-96975500D03*
X71907000Y-96975500D03*
X70637000Y-96975500D03*
X70637000Y-91575500D03*
X71907000Y-91575500D03*
X73177000Y-91575500D03*
X74447000Y-91575500D03*
X75717000Y-91575500D03*
X76987000Y-91575500D03*
X78257000Y-91575500D03*
D11*
G36*
X95449005Y-101775704D02*
G01*
X95473273Y-101779304D01*
X95497072Y-101785265D01*
X95520171Y-101793530D01*
X95542350Y-101804020D01*
X95563393Y-101816632D01*
X95583099Y-101831247D01*
X95601277Y-101847723D01*
X95617753Y-101865901D01*
X95632368Y-101885607D01*
X95644980Y-101906650D01*
X95655470Y-101928829D01*
X95663735Y-101951928D01*
X95669696Y-101975727D01*
X95673296Y-101999995D01*
X95674500Y-102024499D01*
X95674500Y-102674501D01*
X95673296Y-102699005D01*
X95669696Y-102723273D01*
X95663735Y-102747072D01*
X95655470Y-102770171D01*
X95644980Y-102792350D01*
X95632368Y-102813393D01*
X95617753Y-102833099D01*
X95601277Y-102851277D01*
X95583099Y-102867753D01*
X95563393Y-102882368D01*
X95542350Y-102894980D01*
X95520171Y-102905470D01*
X95497072Y-102913735D01*
X95473273Y-102919696D01*
X95449005Y-102923296D01*
X95424501Y-102924500D01*
X94524499Y-102924500D01*
X94499995Y-102923296D01*
X94475727Y-102919696D01*
X94451928Y-102913735D01*
X94428829Y-102905470D01*
X94406650Y-102894980D01*
X94385607Y-102882368D01*
X94365901Y-102867753D01*
X94347723Y-102851277D01*
X94331247Y-102833099D01*
X94316632Y-102813393D01*
X94304020Y-102792350D01*
X94293530Y-102770171D01*
X94285265Y-102747072D01*
X94279304Y-102723273D01*
X94275704Y-102699005D01*
X94274500Y-102674501D01*
X94274500Y-102024499D01*
X94275704Y-101999995D01*
X94279304Y-101975727D01*
X94285265Y-101951928D01*
X94293530Y-101928829D01*
X94304020Y-101906650D01*
X94316632Y-101885607D01*
X94331247Y-101865901D01*
X94347723Y-101847723D01*
X94365901Y-101831247D01*
X94385607Y-101816632D01*
X94406650Y-101804020D01*
X94428829Y-101793530D01*
X94451928Y-101785265D01*
X94475727Y-101779304D01*
X94499995Y-101775704D01*
X94524499Y-101774500D01*
X95424501Y-101774500D01*
X95449005Y-101775704D01*
X95449005Y-101775704D01*
G37*
D12*
X94974500Y-102349500D03*
D11*
G36*
X95449005Y-99725704D02*
G01*
X95473273Y-99729304D01*
X95497072Y-99735265D01*
X95520171Y-99743530D01*
X95542350Y-99754020D01*
X95563393Y-99766632D01*
X95583099Y-99781247D01*
X95601277Y-99797723D01*
X95617753Y-99815901D01*
X95632368Y-99835607D01*
X95644980Y-99856650D01*
X95655470Y-99878829D01*
X95663735Y-99901928D01*
X95669696Y-99925727D01*
X95673296Y-99949995D01*
X95674500Y-99974499D01*
X95674500Y-100624501D01*
X95673296Y-100649005D01*
X95669696Y-100673273D01*
X95663735Y-100697072D01*
X95655470Y-100720171D01*
X95644980Y-100742350D01*
X95632368Y-100763393D01*
X95617753Y-100783099D01*
X95601277Y-100801277D01*
X95583099Y-100817753D01*
X95563393Y-100832368D01*
X95542350Y-100844980D01*
X95520171Y-100855470D01*
X95497072Y-100863735D01*
X95473273Y-100869696D01*
X95449005Y-100873296D01*
X95424501Y-100874500D01*
X94524499Y-100874500D01*
X94499995Y-100873296D01*
X94475727Y-100869696D01*
X94451928Y-100863735D01*
X94428829Y-100855470D01*
X94406650Y-100844980D01*
X94385607Y-100832368D01*
X94365901Y-100817753D01*
X94347723Y-100801277D01*
X94331247Y-100783099D01*
X94316632Y-100763393D01*
X94304020Y-100742350D01*
X94293530Y-100720171D01*
X94285265Y-100697072D01*
X94279304Y-100673273D01*
X94275704Y-100649005D01*
X94274500Y-100624501D01*
X94274500Y-99974499D01*
X94275704Y-99949995D01*
X94279304Y-99925727D01*
X94285265Y-99901928D01*
X94293530Y-99878829D01*
X94304020Y-99856650D01*
X94316632Y-99835607D01*
X94331247Y-99815901D01*
X94347723Y-99797723D01*
X94365901Y-99781247D01*
X94385607Y-99766632D01*
X94406650Y-99754020D01*
X94428829Y-99743530D01*
X94451928Y-99735265D01*
X94475727Y-99729304D01*
X94499995Y-99725704D01*
X94524499Y-99724500D01*
X95424501Y-99724500D01*
X95449005Y-99725704D01*
X95449005Y-99725704D01*
G37*
D12*
X94974500Y-100299500D03*
D11*
G36*
X76516142Y-77787174D02*
G01*
X76539803Y-77790684D01*
X76563007Y-77796496D01*
X76585529Y-77804554D01*
X76607153Y-77814782D01*
X76627670Y-77827079D01*
X76646883Y-77841329D01*
X76664607Y-77857393D01*
X76680671Y-77875117D01*
X76694921Y-77894330D01*
X76707218Y-77914847D01*
X76717446Y-77936471D01*
X76725504Y-77958993D01*
X76731316Y-77982197D01*
X76734826Y-78005858D01*
X76736000Y-78029750D01*
X76736000Y-78942250D01*
X76734826Y-78966142D01*
X76731316Y-78989803D01*
X76725504Y-79013007D01*
X76717446Y-79035529D01*
X76707218Y-79057153D01*
X76694921Y-79077670D01*
X76680671Y-79096883D01*
X76664607Y-79114607D01*
X76646883Y-79130671D01*
X76627670Y-79144921D01*
X76607153Y-79157218D01*
X76585529Y-79167446D01*
X76563007Y-79175504D01*
X76539803Y-79181316D01*
X76516142Y-79184826D01*
X76492250Y-79186000D01*
X76004750Y-79186000D01*
X75980858Y-79184826D01*
X75957197Y-79181316D01*
X75933993Y-79175504D01*
X75911471Y-79167446D01*
X75889847Y-79157218D01*
X75869330Y-79144921D01*
X75850117Y-79130671D01*
X75832393Y-79114607D01*
X75816329Y-79096883D01*
X75802079Y-79077670D01*
X75789782Y-79057153D01*
X75779554Y-79035529D01*
X75771496Y-79013007D01*
X75765684Y-78989803D01*
X75762174Y-78966142D01*
X75761000Y-78942250D01*
X75761000Y-78029750D01*
X75762174Y-78005858D01*
X75765684Y-77982197D01*
X75771496Y-77958993D01*
X75779554Y-77936471D01*
X75789782Y-77914847D01*
X75802079Y-77894330D01*
X75816329Y-77875117D01*
X75832393Y-77857393D01*
X75850117Y-77841329D01*
X75869330Y-77827079D01*
X75889847Y-77814782D01*
X75911471Y-77804554D01*
X75933993Y-77796496D01*
X75957197Y-77790684D01*
X75980858Y-77787174D01*
X76004750Y-77786000D01*
X76492250Y-77786000D01*
X76516142Y-77787174D01*
X76516142Y-77787174D01*
G37*
D13*
X76248500Y-78486000D03*
D11*
G36*
X74641142Y-77787174D02*
G01*
X74664803Y-77790684D01*
X74688007Y-77796496D01*
X74710529Y-77804554D01*
X74732153Y-77814782D01*
X74752670Y-77827079D01*
X74771883Y-77841329D01*
X74789607Y-77857393D01*
X74805671Y-77875117D01*
X74819921Y-77894330D01*
X74832218Y-77914847D01*
X74842446Y-77936471D01*
X74850504Y-77958993D01*
X74856316Y-77982197D01*
X74859826Y-78005858D01*
X74861000Y-78029750D01*
X74861000Y-78942250D01*
X74859826Y-78966142D01*
X74856316Y-78989803D01*
X74850504Y-79013007D01*
X74842446Y-79035529D01*
X74832218Y-79057153D01*
X74819921Y-79077670D01*
X74805671Y-79096883D01*
X74789607Y-79114607D01*
X74771883Y-79130671D01*
X74752670Y-79144921D01*
X74732153Y-79157218D01*
X74710529Y-79167446D01*
X74688007Y-79175504D01*
X74664803Y-79181316D01*
X74641142Y-79184826D01*
X74617250Y-79186000D01*
X74129750Y-79186000D01*
X74105858Y-79184826D01*
X74082197Y-79181316D01*
X74058993Y-79175504D01*
X74036471Y-79167446D01*
X74014847Y-79157218D01*
X73994330Y-79144921D01*
X73975117Y-79130671D01*
X73957393Y-79114607D01*
X73941329Y-79096883D01*
X73927079Y-79077670D01*
X73914782Y-79057153D01*
X73904554Y-79035529D01*
X73896496Y-79013007D01*
X73890684Y-78989803D01*
X73887174Y-78966142D01*
X73886000Y-78942250D01*
X73886000Y-78029750D01*
X73887174Y-78005858D01*
X73890684Y-77982197D01*
X73896496Y-77958993D01*
X73904554Y-77936471D01*
X73914782Y-77914847D01*
X73927079Y-77894330D01*
X73941329Y-77875117D01*
X73957393Y-77857393D01*
X73975117Y-77841329D01*
X73994330Y-77827079D01*
X74014847Y-77814782D01*
X74036471Y-77804554D01*
X74058993Y-77796496D01*
X74082197Y-77790684D01*
X74105858Y-77787174D01*
X74129750Y-77786000D01*
X74617250Y-77786000D01*
X74641142Y-77787174D01*
X74641142Y-77787174D01*
G37*
D13*
X74373500Y-78486000D03*
D11*
G36*
X90909505Y-77787204D02*
G01*
X90933773Y-77790804D01*
X90957572Y-77796765D01*
X90980671Y-77805030D01*
X91002850Y-77815520D01*
X91023893Y-77828132D01*
X91043599Y-77842747D01*
X91061777Y-77859223D01*
X91078253Y-77877401D01*
X91092868Y-77897107D01*
X91105480Y-77918150D01*
X91115970Y-77940329D01*
X91124235Y-77963428D01*
X91130196Y-77987227D01*
X91133796Y-78011495D01*
X91135000Y-78035999D01*
X91135000Y-78936001D01*
X91133796Y-78960505D01*
X91130196Y-78984773D01*
X91124235Y-79008572D01*
X91115970Y-79031671D01*
X91105480Y-79053850D01*
X91092868Y-79074893D01*
X91078253Y-79094599D01*
X91061777Y-79112777D01*
X91043599Y-79129253D01*
X91023893Y-79143868D01*
X91002850Y-79156480D01*
X90980671Y-79166970D01*
X90957572Y-79175235D01*
X90933773Y-79181196D01*
X90909505Y-79184796D01*
X90885001Y-79186000D01*
X90234999Y-79186000D01*
X90210495Y-79184796D01*
X90186227Y-79181196D01*
X90162428Y-79175235D01*
X90139329Y-79166970D01*
X90117150Y-79156480D01*
X90096107Y-79143868D01*
X90076401Y-79129253D01*
X90058223Y-79112777D01*
X90041747Y-79094599D01*
X90027132Y-79074893D01*
X90014520Y-79053850D01*
X90004030Y-79031671D01*
X89995765Y-79008572D01*
X89989804Y-78984773D01*
X89986204Y-78960505D01*
X89985000Y-78936001D01*
X89985000Y-78035999D01*
X89986204Y-78011495D01*
X89989804Y-77987227D01*
X89995765Y-77963428D01*
X90004030Y-77940329D01*
X90014520Y-77918150D01*
X90027132Y-77897107D01*
X90041747Y-77877401D01*
X90058223Y-77859223D01*
X90076401Y-77842747D01*
X90096107Y-77828132D01*
X90117150Y-77815520D01*
X90139329Y-77805030D01*
X90162428Y-77796765D01*
X90186227Y-77790804D01*
X90210495Y-77787204D01*
X90234999Y-77786000D01*
X90885001Y-77786000D01*
X90909505Y-77787204D01*
X90909505Y-77787204D01*
G37*
D12*
X90560000Y-78486000D03*
D11*
G36*
X88859505Y-77787204D02*
G01*
X88883773Y-77790804D01*
X88907572Y-77796765D01*
X88930671Y-77805030D01*
X88952850Y-77815520D01*
X88973893Y-77828132D01*
X88993599Y-77842747D01*
X89011777Y-77859223D01*
X89028253Y-77877401D01*
X89042868Y-77897107D01*
X89055480Y-77918150D01*
X89065970Y-77940329D01*
X89074235Y-77963428D01*
X89080196Y-77987227D01*
X89083796Y-78011495D01*
X89085000Y-78035999D01*
X89085000Y-78936001D01*
X89083796Y-78960505D01*
X89080196Y-78984773D01*
X89074235Y-79008572D01*
X89065970Y-79031671D01*
X89055480Y-79053850D01*
X89042868Y-79074893D01*
X89028253Y-79094599D01*
X89011777Y-79112777D01*
X88993599Y-79129253D01*
X88973893Y-79143868D01*
X88952850Y-79156480D01*
X88930671Y-79166970D01*
X88907572Y-79175235D01*
X88883773Y-79181196D01*
X88859505Y-79184796D01*
X88835001Y-79186000D01*
X88184999Y-79186000D01*
X88160495Y-79184796D01*
X88136227Y-79181196D01*
X88112428Y-79175235D01*
X88089329Y-79166970D01*
X88067150Y-79156480D01*
X88046107Y-79143868D01*
X88026401Y-79129253D01*
X88008223Y-79112777D01*
X87991747Y-79094599D01*
X87977132Y-79074893D01*
X87964520Y-79053850D01*
X87954030Y-79031671D01*
X87945765Y-79008572D01*
X87939804Y-78984773D01*
X87936204Y-78960505D01*
X87935000Y-78936001D01*
X87935000Y-78035999D01*
X87936204Y-78011495D01*
X87939804Y-77987227D01*
X87945765Y-77963428D01*
X87954030Y-77940329D01*
X87964520Y-77918150D01*
X87977132Y-77897107D01*
X87991747Y-77877401D01*
X88008223Y-77859223D01*
X88026401Y-77842747D01*
X88046107Y-77828132D01*
X88067150Y-77815520D01*
X88089329Y-77805030D01*
X88112428Y-77796765D01*
X88136227Y-77790804D01*
X88160495Y-77787204D01*
X88184999Y-77786000D01*
X88835001Y-77786000D01*
X88859505Y-77787204D01*
X88859505Y-77787204D01*
G37*
D12*
X88510000Y-78486000D03*
D11*
G36*
X102829505Y-77787204D02*
G01*
X102853773Y-77790804D01*
X102877572Y-77796765D01*
X102900671Y-77805030D01*
X102922850Y-77815520D01*
X102943893Y-77828132D01*
X102963599Y-77842747D01*
X102981777Y-77859223D01*
X102998253Y-77877401D01*
X103012868Y-77897107D01*
X103025480Y-77918150D01*
X103035970Y-77940329D01*
X103044235Y-77963428D01*
X103050196Y-77987227D01*
X103053796Y-78011495D01*
X103055000Y-78035999D01*
X103055000Y-78936001D01*
X103053796Y-78960505D01*
X103050196Y-78984773D01*
X103044235Y-79008572D01*
X103035970Y-79031671D01*
X103025480Y-79053850D01*
X103012868Y-79074893D01*
X102998253Y-79094599D01*
X102981777Y-79112777D01*
X102963599Y-79129253D01*
X102943893Y-79143868D01*
X102922850Y-79156480D01*
X102900671Y-79166970D01*
X102877572Y-79175235D01*
X102853773Y-79181196D01*
X102829505Y-79184796D01*
X102805001Y-79186000D01*
X102154999Y-79186000D01*
X102130495Y-79184796D01*
X102106227Y-79181196D01*
X102082428Y-79175235D01*
X102059329Y-79166970D01*
X102037150Y-79156480D01*
X102016107Y-79143868D01*
X101996401Y-79129253D01*
X101978223Y-79112777D01*
X101961747Y-79094599D01*
X101947132Y-79074893D01*
X101934520Y-79053850D01*
X101924030Y-79031671D01*
X101915765Y-79008572D01*
X101909804Y-78984773D01*
X101906204Y-78960505D01*
X101905000Y-78936001D01*
X101905000Y-78035999D01*
X101906204Y-78011495D01*
X101909804Y-77987227D01*
X101915765Y-77963428D01*
X101924030Y-77940329D01*
X101934520Y-77918150D01*
X101947132Y-77897107D01*
X101961747Y-77877401D01*
X101978223Y-77859223D01*
X101996401Y-77842747D01*
X102016107Y-77828132D01*
X102037150Y-77815520D01*
X102059329Y-77805030D01*
X102082428Y-77796765D01*
X102106227Y-77790804D01*
X102130495Y-77787204D01*
X102154999Y-77786000D01*
X102805001Y-77786000D01*
X102829505Y-77787204D01*
X102829505Y-77787204D01*
G37*
D12*
X102480000Y-78486000D03*
D11*
G36*
X104879505Y-77787204D02*
G01*
X104903773Y-77790804D01*
X104927572Y-77796765D01*
X104950671Y-77805030D01*
X104972850Y-77815520D01*
X104993893Y-77828132D01*
X105013599Y-77842747D01*
X105031777Y-77859223D01*
X105048253Y-77877401D01*
X105062868Y-77897107D01*
X105075480Y-77918150D01*
X105085970Y-77940329D01*
X105094235Y-77963428D01*
X105100196Y-77987227D01*
X105103796Y-78011495D01*
X105105000Y-78035999D01*
X105105000Y-78936001D01*
X105103796Y-78960505D01*
X105100196Y-78984773D01*
X105094235Y-79008572D01*
X105085970Y-79031671D01*
X105075480Y-79053850D01*
X105062868Y-79074893D01*
X105048253Y-79094599D01*
X105031777Y-79112777D01*
X105013599Y-79129253D01*
X104993893Y-79143868D01*
X104972850Y-79156480D01*
X104950671Y-79166970D01*
X104927572Y-79175235D01*
X104903773Y-79181196D01*
X104879505Y-79184796D01*
X104855001Y-79186000D01*
X104204999Y-79186000D01*
X104180495Y-79184796D01*
X104156227Y-79181196D01*
X104132428Y-79175235D01*
X104109329Y-79166970D01*
X104087150Y-79156480D01*
X104066107Y-79143868D01*
X104046401Y-79129253D01*
X104028223Y-79112777D01*
X104011747Y-79094599D01*
X103997132Y-79074893D01*
X103984520Y-79053850D01*
X103974030Y-79031671D01*
X103965765Y-79008572D01*
X103959804Y-78984773D01*
X103956204Y-78960505D01*
X103955000Y-78936001D01*
X103955000Y-78035999D01*
X103956204Y-78011495D01*
X103959804Y-77987227D01*
X103965765Y-77963428D01*
X103974030Y-77940329D01*
X103984520Y-77918150D01*
X103997132Y-77897107D01*
X104011747Y-77877401D01*
X104028223Y-77859223D01*
X104046401Y-77842747D01*
X104066107Y-77828132D01*
X104087150Y-77815520D01*
X104109329Y-77805030D01*
X104132428Y-77796765D01*
X104156227Y-77790804D01*
X104180495Y-77787204D01*
X104204999Y-77786000D01*
X104855001Y-77786000D01*
X104879505Y-77787204D01*
X104879505Y-77787204D01*
G37*
D12*
X104530000Y-78486000D03*
D11*
G36*
X116525505Y-85750204D02*
G01*
X116549773Y-85753804D01*
X116573572Y-85759765D01*
X116596671Y-85768030D01*
X116618850Y-85778520D01*
X116639893Y-85791132D01*
X116659599Y-85805747D01*
X116677777Y-85822223D01*
X116694253Y-85840401D01*
X116708868Y-85860107D01*
X116721480Y-85881150D01*
X116731970Y-85903329D01*
X116740235Y-85926428D01*
X116746196Y-85950227D01*
X116749796Y-85974495D01*
X116751000Y-85998999D01*
X116751000Y-86899001D01*
X116749796Y-86923505D01*
X116746196Y-86947773D01*
X116740235Y-86971572D01*
X116731970Y-86994671D01*
X116721480Y-87016850D01*
X116708868Y-87037893D01*
X116694253Y-87057599D01*
X116677777Y-87075777D01*
X116659599Y-87092253D01*
X116639893Y-87106868D01*
X116618850Y-87119480D01*
X116596671Y-87129970D01*
X116573572Y-87138235D01*
X116549773Y-87144196D01*
X116525505Y-87147796D01*
X116501001Y-87149000D01*
X115850999Y-87149000D01*
X115826495Y-87147796D01*
X115802227Y-87144196D01*
X115778428Y-87138235D01*
X115755329Y-87129970D01*
X115733150Y-87119480D01*
X115712107Y-87106868D01*
X115692401Y-87092253D01*
X115674223Y-87075777D01*
X115657747Y-87057599D01*
X115643132Y-87037893D01*
X115630520Y-87016850D01*
X115620030Y-86994671D01*
X115611765Y-86971572D01*
X115605804Y-86947773D01*
X115602204Y-86923505D01*
X115601000Y-86899001D01*
X115601000Y-85998999D01*
X115602204Y-85974495D01*
X115605804Y-85950227D01*
X115611765Y-85926428D01*
X115620030Y-85903329D01*
X115630520Y-85881150D01*
X115643132Y-85860107D01*
X115657747Y-85840401D01*
X115674223Y-85822223D01*
X115692401Y-85805747D01*
X115712107Y-85791132D01*
X115733150Y-85778520D01*
X115755329Y-85768030D01*
X115778428Y-85759765D01*
X115802227Y-85753804D01*
X115826495Y-85750204D01*
X115850999Y-85749000D01*
X116501001Y-85749000D01*
X116525505Y-85750204D01*
X116525505Y-85750204D01*
G37*
D12*
X116176000Y-86449000D03*
D11*
G36*
X114475505Y-85750204D02*
G01*
X114499773Y-85753804D01*
X114523572Y-85759765D01*
X114546671Y-85768030D01*
X114568850Y-85778520D01*
X114589893Y-85791132D01*
X114609599Y-85805747D01*
X114627777Y-85822223D01*
X114644253Y-85840401D01*
X114658868Y-85860107D01*
X114671480Y-85881150D01*
X114681970Y-85903329D01*
X114690235Y-85926428D01*
X114696196Y-85950227D01*
X114699796Y-85974495D01*
X114701000Y-85998999D01*
X114701000Y-86899001D01*
X114699796Y-86923505D01*
X114696196Y-86947773D01*
X114690235Y-86971572D01*
X114681970Y-86994671D01*
X114671480Y-87016850D01*
X114658868Y-87037893D01*
X114644253Y-87057599D01*
X114627777Y-87075777D01*
X114609599Y-87092253D01*
X114589893Y-87106868D01*
X114568850Y-87119480D01*
X114546671Y-87129970D01*
X114523572Y-87138235D01*
X114499773Y-87144196D01*
X114475505Y-87147796D01*
X114451001Y-87149000D01*
X113800999Y-87149000D01*
X113776495Y-87147796D01*
X113752227Y-87144196D01*
X113728428Y-87138235D01*
X113705329Y-87129970D01*
X113683150Y-87119480D01*
X113662107Y-87106868D01*
X113642401Y-87092253D01*
X113624223Y-87075777D01*
X113607747Y-87057599D01*
X113593132Y-87037893D01*
X113580520Y-87016850D01*
X113570030Y-86994671D01*
X113561765Y-86971572D01*
X113555804Y-86947773D01*
X113552204Y-86923505D01*
X113551000Y-86899001D01*
X113551000Y-85998999D01*
X113552204Y-85974495D01*
X113555804Y-85950227D01*
X113561765Y-85926428D01*
X113570030Y-85903329D01*
X113580520Y-85881150D01*
X113593132Y-85860107D01*
X113607747Y-85840401D01*
X113624223Y-85822223D01*
X113642401Y-85805747D01*
X113662107Y-85791132D01*
X113683150Y-85778520D01*
X113705329Y-85768030D01*
X113728428Y-85759765D01*
X113752227Y-85753804D01*
X113776495Y-85750204D01*
X113800999Y-85749000D01*
X114451001Y-85749000D01*
X114475505Y-85750204D01*
X114475505Y-85750204D01*
G37*
D12*
X114126000Y-86449000D03*
D14*
X112731000Y-75099000D03*
X117731000Y-75099000D03*
D11*
G36*
X111454905Y-101686604D02*
G01*
X111479173Y-101690204D01*
X111502972Y-101696165D01*
X111526071Y-101704430D01*
X111548250Y-101714920D01*
X111569293Y-101727532D01*
X111588999Y-101742147D01*
X111607177Y-101758623D01*
X111623653Y-101776801D01*
X111638268Y-101796507D01*
X111650880Y-101817550D01*
X111661370Y-101839729D01*
X111669635Y-101862828D01*
X111675596Y-101886627D01*
X111679196Y-101910895D01*
X111680400Y-101935399D01*
X111680400Y-102585401D01*
X111679196Y-102609905D01*
X111675596Y-102634173D01*
X111669635Y-102657972D01*
X111661370Y-102681071D01*
X111650880Y-102703250D01*
X111638268Y-102724293D01*
X111623653Y-102743999D01*
X111607177Y-102762177D01*
X111588999Y-102778653D01*
X111569293Y-102793268D01*
X111548250Y-102805880D01*
X111526071Y-102816370D01*
X111502972Y-102824635D01*
X111479173Y-102830596D01*
X111454905Y-102834196D01*
X111430401Y-102835400D01*
X110530399Y-102835400D01*
X110505895Y-102834196D01*
X110481627Y-102830596D01*
X110457828Y-102824635D01*
X110434729Y-102816370D01*
X110412550Y-102805880D01*
X110391507Y-102793268D01*
X110371801Y-102778653D01*
X110353623Y-102762177D01*
X110337147Y-102743999D01*
X110322532Y-102724293D01*
X110309920Y-102703250D01*
X110299430Y-102681071D01*
X110291165Y-102657972D01*
X110285204Y-102634173D01*
X110281604Y-102609905D01*
X110280400Y-102585401D01*
X110280400Y-101935399D01*
X110281604Y-101910895D01*
X110285204Y-101886627D01*
X110291165Y-101862828D01*
X110299430Y-101839729D01*
X110309920Y-101817550D01*
X110322532Y-101796507D01*
X110337147Y-101776801D01*
X110353623Y-101758623D01*
X110371801Y-101742147D01*
X110391507Y-101727532D01*
X110412550Y-101714920D01*
X110434729Y-101704430D01*
X110457828Y-101696165D01*
X110481627Y-101690204D01*
X110505895Y-101686604D01*
X110530399Y-101685400D01*
X111430401Y-101685400D01*
X111454905Y-101686604D01*
X111454905Y-101686604D01*
G37*
D12*
X110980400Y-102260400D03*
D11*
G36*
X111454905Y-99636604D02*
G01*
X111479173Y-99640204D01*
X111502972Y-99646165D01*
X111526071Y-99654430D01*
X111548250Y-99664920D01*
X111569293Y-99677532D01*
X111588999Y-99692147D01*
X111607177Y-99708623D01*
X111623653Y-99726801D01*
X111638268Y-99746507D01*
X111650880Y-99767550D01*
X111661370Y-99789729D01*
X111669635Y-99812828D01*
X111675596Y-99836627D01*
X111679196Y-99860895D01*
X111680400Y-99885399D01*
X111680400Y-100535401D01*
X111679196Y-100559905D01*
X111675596Y-100584173D01*
X111669635Y-100607972D01*
X111661370Y-100631071D01*
X111650880Y-100653250D01*
X111638268Y-100674293D01*
X111623653Y-100693999D01*
X111607177Y-100712177D01*
X111588999Y-100728653D01*
X111569293Y-100743268D01*
X111548250Y-100755880D01*
X111526071Y-100766370D01*
X111502972Y-100774635D01*
X111479173Y-100780596D01*
X111454905Y-100784196D01*
X111430401Y-100785400D01*
X110530399Y-100785400D01*
X110505895Y-100784196D01*
X110481627Y-100780596D01*
X110457828Y-100774635D01*
X110434729Y-100766370D01*
X110412550Y-100755880D01*
X110391507Y-100743268D01*
X110371801Y-100728653D01*
X110353623Y-100712177D01*
X110337147Y-100693999D01*
X110322532Y-100674293D01*
X110309920Y-100653250D01*
X110299430Y-100631071D01*
X110291165Y-100607972D01*
X110285204Y-100584173D01*
X110281604Y-100559905D01*
X110280400Y-100535401D01*
X110280400Y-99885399D01*
X110281604Y-99860895D01*
X110285204Y-99836627D01*
X110291165Y-99812828D01*
X110299430Y-99789729D01*
X110309920Y-99767550D01*
X110322532Y-99746507D01*
X110337147Y-99726801D01*
X110353623Y-99708623D01*
X110371801Y-99692147D01*
X110391507Y-99677532D01*
X110412550Y-99664920D01*
X110434729Y-99654430D01*
X110457828Y-99646165D01*
X110481627Y-99640204D01*
X110505895Y-99636604D01*
X110530399Y-99635400D01*
X111430401Y-99635400D01*
X111454905Y-99636604D01*
X111454905Y-99636604D01*
G37*
D12*
X110980400Y-100210400D03*
D11*
G36*
X107467105Y-99662004D02*
G01*
X107491373Y-99665604D01*
X107515172Y-99671565D01*
X107538271Y-99679830D01*
X107560450Y-99690320D01*
X107581493Y-99702932D01*
X107601199Y-99717547D01*
X107619377Y-99734023D01*
X107635853Y-99752201D01*
X107650468Y-99771907D01*
X107663080Y-99792950D01*
X107673570Y-99815129D01*
X107681835Y-99838228D01*
X107687796Y-99862027D01*
X107691396Y-99886295D01*
X107692600Y-99910799D01*
X107692600Y-100560801D01*
X107691396Y-100585305D01*
X107687796Y-100609573D01*
X107681835Y-100633372D01*
X107673570Y-100656471D01*
X107663080Y-100678650D01*
X107650468Y-100699693D01*
X107635853Y-100719399D01*
X107619377Y-100737577D01*
X107601199Y-100754053D01*
X107581493Y-100768668D01*
X107560450Y-100781280D01*
X107538271Y-100791770D01*
X107515172Y-100800035D01*
X107491373Y-100805996D01*
X107467105Y-100809596D01*
X107442601Y-100810800D01*
X106542599Y-100810800D01*
X106518095Y-100809596D01*
X106493827Y-100805996D01*
X106470028Y-100800035D01*
X106446929Y-100791770D01*
X106424750Y-100781280D01*
X106403707Y-100768668D01*
X106384001Y-100754053D01*
X106365823Y-100737577D01*
X106349347Y-100719399D01*
X106334732Y-100699693D01*
X106322120Y-100678650D01*
X106311630Y-100656471D01*
X106303365Y-100633372D01*
X106297404Y-100609573D01*
X106293804Y-100585305D01*
X106292600Y-100560801D01*
X106292600Y-99910799D01*
X106293804Y-99886295D01*
X106297404Y-99862027D01*
X106303365Y-99838228D01*
X106311630Y-99815129D01*
X106322120Y-99792950D01*
X106334732Y-99771907D01*
X106349347Y-99752201D01*
X106365823Y-99734023D01*
X106384001Y-99717547D01*
X106403707Y-99702932D01*
X106424750Y-99690320D01*
X106446929Y-99679830D01*
X106470028Y-99671565D01*
X106493827Y-99665604D01*
X106518095Y-99662004D01*
X106542599Y-99660800D01*
X107442601Y-99660800D01*
X107467105Y-99662004D01*
X107467105Y-99662004D01*
G37*
D12*
X106992600Y-100235800D03*
D11*
G36*
X107467105Y-101712004D02*
G01*
X107491373Y-101715604D01*
X107515172Y-101721565D01*
X107538271Y-101729830D01*
X107560450Y-101740320D01*
X107581493Y-101752932D01*
X107601199Y-101767547D01*
X107619377Y-101784023D01*
X107635853Y-101802201D01*
X107650468Y-101821907D01*
X107663080Y-101842950D01*
X107673570Y-101865129D01*
X107681835Y-101888228D01*
X107687796Y-101912027D01*
X107691396Y-101936295D01*
X107692600Y-101960799D01*
X107692600Y-102610801D01*
X107691396Y-102635305D01*
X107687796Y-102659573D01*
X107681835Y-102683372D01*
X107673570Y-102706471D01*
X107663080Y-102728650D01*
X107650468Y-102749693D01*
X107635853Y-102769399D01*
X107619377Y-102787577D01*
X107601199Y-102804053D01*
X107581493Y-102818668D01*
X107560450Y-102831280D01*
X107538271Y-102841770D01*
X107515172Y-102850035D01*
X107491373Y-102855996D01*
X107467105Y-102859596D01*
X107442601Y-102860800D01*
X106542599Y-102860800D01*
X106518095Y-102859596D01*
X106493827Y-102855996D01*
X106470028Y-102850035D01*
X106446929Y-102841770D01*
X106424750Y-102831280D01*
X106403707Y-102818668D01*
X106384001Y-102804053D01*
X106365823Y-102787577D01*
X106349347Y-102769399D01*
X106334732Y-102749693D01*
X106322120Y-102728650D01*
X106311630Y-102706471D01*
X106303365Y-102683372D01*
X106297404Y-102659573D01*
X106293804Y-102635305D01*
X106292600Y-102610801D01*
X106292600Y-101960799D01*
X106293804Y-101936295D01*
X106297404Y-101912027D01*
X106303365Y-101888228D01*
X106311630Y-101865129D01*
X106322120Y-101842950D01*
X106334732Y-101821907D01*
X106349347Y-101802201D01*
X106365823Y-101784023D01*
X106384001Y-101767547D01*
X106403707Y-101752932D01*
X106424750Y-101740320D01*
X106446929Y-101729830D01*
X106470028Y-101721565D01*
X106493827Y-101715604D01*
X106518095Y-101712004D01*
X106542599Y-101710800D01*
X107442601Y-101710800D01*
X107467105Y-101712004D01*
X107467105Y-101712004D01*
G37*
D12*
X106992600Y-102285800D03*
D11*
G36*
X103453905Y-101873404D02*
G01*
X103478173Y-101877004D01*
X103501972Y-101882965D01*
X103525071Y-101891230D01*
X103547250Y-101901720D01*
X103568293Y-101914332D01*
X103587999Y-101928947D01*
X103606177Y-101945423D01*
X103622653Y-101963601D01*
X103637268Y-101983307D01*
X103649880Y-102004350D01*
X103660370Y-102026529D01*
X103668635Y-102049628D01*
X103674596Y-102073427D01*
X103678196Y-102097695D01*
X103679400Y-102122199D01*
X103679400Y-102772201D01*
X103678196Y-102796705D01*
X103674596Y-102820973D01*
X103668635Y-102844772D01*
X103660370Y-102867871D01*
X103649880Y-102890050D01*
X103637268Y-102911093D01*
X103622653Y-102930799D01*
X103606177Y-102948977D01*
X103587999Y-102965453D01*
X103568293Y-102980068D01*
X103547250Y-102992680D01*
X103525071Y-103003170D01*
X103501972Y-103011435D01*
X103478173Y-103017396D01*
X103453905Y-103020996D01*
X103429401Y-103022200D01*
X102529399Y-103022200D01*
X102504895Y-103020996D01*
X102480627Y-103017396D01*
X102456828Y-103011435D01*
X102433729Y-103003170D01*
X102411550Y-102992680D01*
X102390507Y-102980068D01*
X102370801Y-102965453D01*
X102352623Y-102948977D01*
X102336147Y-102930799D01*
X102321532Y-102911093D01*
X102308920Y-102890050D01*
X102298430Y-102867871D01*
X102290165Y-102844772D01*
X102284204Y-102820973D01*
X102280604Y-102796705D01*
X102279400Y-102772201D01*
X102279400Y-102122199D01*
X102280604Y-102097695D01*
X102284204Y-102073427D01*
X102290165Y-102049628D01*
X102298430Y-102026529D01*
X102308920Y-102004350D01*
X102321532Y-101983307D01*
X102336147Y-101963601D01*
X102352623Y-101945423D01*
X102370801Y-101928947D01*
X102390507Y-101914332D01*
X102411550Y-101901720D01*
X102433729Y-101891230D01*
X102456828Y-101882965D01*
X102480627Y-101877004D01*
X102504895Y-101873404D01*
X102529399Y-101872200D01*
X103429401Y-101872200D01*
X103453905Y-101873404D01*
X103453905Y-101873404D01*
G37*
D12*
X102979400Y-102447200D03*
D11*
G36*
X103453905Y-99823404D02*
G01*
X103478173Y-99827004D01*
X103501972Y-99832965D01*
X103525071Y-99841230D01*
X103547250Y-99851720D01*
X103568293Y-99864332D01*
X103587999Y-99878947D01*
X103606177Y-99895423D01*
X103622653Y-99913601D01*
X103637268Y-99933307D01*
X103649880Y-99954350D01*
X103660370Y-99976529D01*
X103668635Y-99999628D01*
X103674596Y-100023427D01*
X103678196Y-100047695D01*
X103679400Y-100072199D01*
X103679400Y-100722201D01*
X103678196Y-100746705D01*
X103674596Y-100770973D01*
X103668635Y-100794772D01*
X103660370Y-100817871D01*
X103649880Y-100840050D01*
X103637268Y-100861093D01*
X103622653Y-100880799D01*
X103606177Y-100898977D01*
X103587999Y-100915453D01*
X103568293Y-100930068D01*
X103547250Y-100942680D01*
X103525071Y-100953170D01*
X103501972Y-100961435D01*
X103478173Y-100967396D01*
X103453905Y-100970996D01*
X103429401Y-100972200D01*
X102529399Y-100972200D01*
X102504895Y-100970996D01*
X102480627Y-100967396D01*
X102456828Y-100961435D01*
X102433729Y-100953170D01*
X102411550Y-100942680D01*
X102390507Y-100930068D01*
X102370801Y-100915453D01*
X102352623Y-100898977D01*
X102336147Y-100880799D01*
X102321532Y-100861093D01*
X102308920Y-100840050D01*
X102298430Y-100817871D01*
X102290165Y-100794772D01*
X102284204Y-100770973D01*
X102280604Y-100746705D01*
X102279400Y-100722201D01*
X102279400Y-100072199D01*
X102280604Y-100047695D01*
X102284204Y-100023427D01*
X102290165Y-99999628D01*
X102298430Y-99976529D01*
X102308920Y-99954350D01*
X102321532Y-99933307D01*
X102336147Y-99913601D01*
X102352623Y-99895423D01*
X102370801Y-99878947D01*
X102390507Y-99864332D01*
X102411550Y-99851720D01*
X102433729Y-99841230D01*
X102456828Y-99832965D01*
X102480627Y-99827004D01*
X102504895Y-99823404D01*
X102529399Y-99822200D01*
X103429401Y-99822200D01*
X103453905Y-99823404D01*
X103453905Y-99823404D01*
G37*
D12*
X102979400Y-100397200D03*
D11*
G36*
X99415305Y-99814404D02*
G01*
X99439573Y-99818004D01*
X99463372Y-99823965D01*
X99486471Y-99832230D01*
X99508650Y-99842720D01*
X99529693Y-99855332D01*
X99549399Y-99869947D01*
X99567577Y-99886423D01*
X99584053Y-99904601D01*
X99598668Y-99924307D01*
X99611280Y-99945350D01*
X99621770Y-99967529D01*
X99630035Y-99990628D01*
X99635996Y-100014427D01*
X99639596Y-100038695D01*
X99640800Y-100063199D01*
X99640800Y-100713201D01*
X99639596Y-100737705D01*
X99635996Y-100761973D01*
X99630035Y-100785772D01*
X99621770Y-100808871D01*
X99611280Y-100831050D01*
X99598668Y-100852093D01*
X99584053Y-100871799D01*
X99567577Y-100889977D01*
X99549399Y-100906453D01*
X99529693Y-100921068D01*
X99508650Y-100933680D01*
X99486471Y-100944170D01*
X99463372Y-100952435D01*
X99439573Y-100958396D01*
X99415305Y-100961996D01*
X99390801Y-100963200D01*
X98490799Y-100963200D01*
X98466295Y-100961996D01*
X98442027Y-100958396D01*
X98418228Y-100952435D01*
X98395129Y-100944170D01*
X98372950Y-100933680D01*
X98351907Y-100921068D01*
X98332201Y-100906453D01*
X98314023Y-100889977D01*
X98297547Y-100871799D01*
X98282932Y-100852093D01*
X98270320Y-100831050D01*
X98259830Y-100808871D01*
X98251565Y-100785772D01*
X98245604Y-100761973D01*
X98242004Y-100737705D01*
X98240800Y-100713201D01*
X98240800Y-100063199D01*
X98242004Y-100038695D01*
X98245604Y-100014427D01*
X98251565Y-99990628D01*
X98259830Y-99967529D01*
X98270320Y-99945350D01*
X98282932Y-99924307D01*
X98297547Y-99904601D01*
X98314023Y-99886423D01*
X98332201Y-99869947D01*
X98351907Y-99855332D01*
X98372950Y-99842720D01*
X98395129Y-99832230D01*
X98418228Y-99823965D01*
X98442027Y-99818004D01*
X98466295Y-99814404D01*
X98490799Y-99813200D01*
X99390801Y-99813200D01*
X99415305Y-99814404D01*
X99415305Y-99814404D01*
G37*
D12*
X98940800Y-100388200D03*
D11*
G36*
X99415305Y-101864404D02*
G01*
X99439573Y-101868004D01*
X99463372Y-101873965D01*
X99486471Y-101882230D01*
X99508650Y-101892720D01*
X99529693Y-101905332D01*
X99549399Y-101919947D01*
X99567577Y-101936423D01*
X99584053Y-101954601D01*
X99598668Y-101974307D01*
X99611280Y-101995350D01*
X99621770Y-102017529D01*
X99630035Y-102040628D01*
X99635996Y-102064427D01*
X99639596Y-102088695D01*
X99640800Y-102113199D01*
X99640800Y-102763201D01*
X99639596Y-102787705D01*
X99635996Y-102811973D01*
X99630035Y-102835772D01*
X99621770Y-102858871D01*
X99611280Y-102881050D01*
X99598668Y-102902093D01*
X99584053Y-102921799D01*
X99567577Y-102939977D01*
X99549399Y-102956453D01*
X99529693Y-102971068D01*
X99508650Y-102983680D01*
X99486471Y-102994170D01*
X99463372Y-103002435D01*
X99439573Y-103008396D01*
X99415305Y-103011996D01*
X99390801Y-103013200D01*
X98490799Y-103013200D01*
X98466295Y-103011996D01*
X98442027Y-103008396D01*
X98418228Y-103002435D01*
X98395129Y-102994170D01*
X98372950Y-102983680D01*
X98351907Y-102971068D01*
X98332201Y-102956453D01*
X98314023Y-102939977D01*
X98297547Y-102921799D01*
X98282932Y-102902093D01*
X98270320Y-102881050D01*
X98259830Y-102858871D01*
X98251565Y-102835772D01*
X98245604Y-102811973D01*
X98242004Y-102787705D01*
X98240800Y-102763201D01*
X98240800Y-102113199D01*
X98242004Y-102088695D01*
X98245604Y-102064427D01*
X98251565Y-102040628D01*
X98259830Y-102017529D01*
X98270320Y-101995350D01*
X98282932Y-101974307D01*
X98297547Y-101954601D01*
X98314023Y-101936423D01*
X98332201Y-101919947D01*
X98351907Y-101905332D01*
X98372950Y-101892720D01*
X98395129Y-101882230D01*
X98418228Y-101873965D01*
X98442027Y-101868004D01*
X98466295Y-101864404D01*
X98490799Y-101863200D01*
X99390801Y-101863200D01*
X99415305Y-101864404D01*
X99415305Y-101864404D01*
G37*
D12*
X98940800Y-102438200D03*
D15*
X115024000Y-90172000D03*
X115024000Y-95172000D03*
D11*
G36*
X112323505Y-81040204D02*
G01*
X112347773Y-81043804D01*
X112371572Y-81049765D01*
X112394671Y-81058030D01*
X112416850Y-81068520D01*
X112437893Y-81081132D01*
X112457599Y-81095747D01*
X112475777Y-81112223D01*
X112492253Y-81130401D01*
X112506868Y-81150107D01*
X112519480Y-81171150D01*
X112529970Y-81193329D01*
X112538235Y-81216428D01*
X112544196Y-81240227D01*
X112547796Y-81264495D01*
X112549000Y-81288999D01*
X112549000Y-81939001D01*
X112547796Y-81963505D01*
X112544196Y-81987773D01*
X112538235Y-82011572D01*
X112529970Y-82034671D01*
X112519480Y-82056850D01*
X112506868Y-82077893D01*
X112492253Y-82097599D01*
X112475777Y-82115777D01*
X112457599Y-82132253D01*
X112437893Y-82146868D01*
X112416850Y-82159480D01*
X112394671Y-82169970D01*
X112371572Y-82178235D01*
X112347773Y-82184196D01*
X112323505Y-82187796D01*
X112299001Y-82189000D01*
X111398999Y-82189000D01*
X111374495Y-82187796D01*
X111350227Y-82184196D01*
X111326428Y-82178235D01*
X111303329Y-82169970D01*
X111281150Y-82159480D01*
X111260107Y-82146868D01*
X111240401Y-82132253D01*
X111222223Y-82115777D01*
X111205747Y-82097599D01*
X111191132Y-82077893D01*
X111178520Y-82056850D01*
X111168030Y-82034671D01*
X111159765Y-82011572D01*
X111153804Y-81987773D01*
X111150204Y-81963505D01*
X111149000Y-81939001D01*
X111149000Y-81288999D01*
X111150204Y-81264495D01*
X111153804Y-81240227D01*
X111159765Y-81216428D01*
X111168030Y-81193329D01*
X111178520Y-81171150D01*
X111191132Y-81150107D01*
X111205747Y-81130401D01*
X111222223Y-81112223D01*
X111240401Y-81095747D01*
X111260107Y-81081132D01*
X111281150Y-81068520D01*
X111303329Y-81058030D01*
X111326428Y-81049765D01*
X111350227Y-81043804D01*
X111374495Y-81040204D01*
X111398999Y-81039000D01*
X112299001Y-81039000D01*
X112323505Y-81040204D01*
X112323505Y-81040204D01*
G37*
D12*
X111849000Y-81614000D03*
D11*
G36*
X112323505Y-83090204D02*
G01*
X112347773Y-83093804D01*
X112371572Y-83099765D01*
X112394671Y-83108030D01*
X112416850Y-83118520D01*
X112437893Y-83131132D01*
X112457599Y-83145747D01*
X112475777Y-83162223D01*
X112492253Y-83180401D01*
X112506868Y-83200107D01*
X112519480Y-83221150D01*
X112529970Y-83243329D01*
X112538235Y-83266428D01*
X112544196Y-83290227D01*
X112547796Y-83314495D01*
X112549000Y-83338999D01*
X112549000Y-83989001D01*
X112547796Y-84013505D01*
X112544196Y-84037773D01*
X112538235Y-84061572D01*
X112529970Y-84084671D01*
X112519480Y-84106850D01*
X112506868Y-84127893D01*
X112492253Y-84147599D01*
X112475777Y-84165777D01*
X112457599Y-84182253D01*
X112437893Y-84196868D01*
X112416850Y-84209480D01*
X112394671Y-84219970D01*
X112371572Y-84228235D01*
X112347773Y-84234196D01*
X112323505Y-84237796D01*
X112299001Y-84239000D01*
X111398999Y-84239000D01*
X111374495Y-84237796D01*
X111350227Y-84234196D01*
X111326428Y-84228235D01*
X111303329Y-84219970D01*
X111281150Y-84209480D01*
X111260107Y-84196868D01*
X111240401Y-84182253D01*
X111222223Y-84165777D01*
X111205747Y-84147599D01*
X111191132Y-84127893D01*
X111178520Y-84106850D01*
X111168030Y-84084671D01*
X111159765Y-84061572D01*
X111153804Y-84037773D01*
X111150204Y-84013505D01*
X111149000Y-83989001D01*
X111149000Y-83338999D01*
X111150204Y-83314495D01*
X111153804Y-83290227D01*
X111159765Y-83266428D01*
X111168030Y-83243329D01*
X111178520Y-83221150D01*
X111191132Y-83200107D01*
X111205747Y-83180401D01*
X111222223Y-83162223D01*
X111240401Y-83145747D01*
X111260107Y-83131132D01*
X111281150Y-83118520D01*
X111303329Y-83108030D01*
X111326428Y-83099765D01*
X111350227Y-83093804D01*
X111374495Y-83090204D01*
X111398999Y-83089000D01*
X112299001Y-83089000D01*
X112323505Y-83090204D01*
X112323505Y-83090204D01*
G37*
D12*
X111849000Y-83664000D03*
D16*
X83339000Y-61755000D03*
X79139000Y-65955000D03*
X87539000Y-65955000D03*
X83339000Y-65955000D03*
X87539000Y-61755000D03*
D11*
G36*
X80263503Y-60106204D02*
G01*
X80287772Y-60109804D01*
X80311570Y-60115765D01*
X80334670Y-60124030D01*
X80356849Y-60134520D01*
X80377892Y-60147133D01*
X80397598Y-60161748D01*
X80415776Y-60178224D01*
X80432252Y-60196402D01*
X80446867Y-60216108D01*
X80459480Y-60237151D01*
X80469970Y-60259330D01*
X80478235Y-60282430D01*
X80484196Y-60306228D01*
X80487796Y-60330497D01*
X80489000Y-60355001D01*
X80489000Y-63154999D01*
X80487796Y-63179503D01*
X80484196Y-63203772D01*
X80478235Y-63227570D01*
X80469970Y-63250670D01*
X80459480Y-63272849D01*
X80446867Y-63293892D01*
X80432252Y-63313598D01*
X80415776Y-63331776D01*
X80397598Y-63348252D01*
X80377892Y-63362867D01*
X80356849Y-63375480D01*
X80334670Y-63385970D01*
X80311570Y-63394235D01*
X80287772Y-63400196D01*
X80263503Y-63403796D01*
X80238999Y-63405000D01*
X78039001Y-63405000D01*
X78014497Y-63403796D01*
X77990228Y-63400196D01*
X77966430Y-63394235D01*
X77943330Y-63385970D01*
X77921151Y-63375480D01*
X77900108Y-63362867D01*
X77880402Y-63348252D01*
X77862224Y-63331776D01*
X77845748Y-63313598D01*
X77831133Y-63293892D01*
X77818520Y-63272849D01*
X77808030Y-63250670D01*
X77799765Y-63227570D01*
X77793804Y-63203772D01*
X77790204Y-63179503D01*
X77789000Y-63154999D01*
X77789000Y-60355001D01*
X77790204Y-60330497D01*
X77793804Y-60306228D01*
X77799765Y-60282430D01*
X77808030Y-60259330D01*
X77818520Y-60237151D01*
X77831133Y-60216108D01*
X77845748Y-60196402D01*
X77862224Y-60178224D01*
X77880402Y-60161748D01*
X77900108Y-60147133D01*
X77921151Y-60134520D01*
X77943330Y-60124030D01*
X77966430Y-60115765D01*
X77990228Y-60109804D01*
X78014497Y-60106204D01*
X78039001Y-60105000D01*
X80238999Y-60105000D01*
X80263503Y-60106204D01*
X80263503Y-60106204D01*
G37*
D17*
X79139000Y-61755000D03*
D11*
G36*
X95739503Y-60138204D02*
G01*
X95763772Y-60141804D01*
X95787570Y-60147765D01*
X95810670Y-60156030D01*
X95832849Y-60166520D01*
X95853892Y-60179133D01*
X95873598Y-60193748D01*
X95891776Y-60210224D01*
X95908252Y-60228402D01*
X95922867Y-60248108D01*
X95935480Y-60269151D01*
X95945970Y-60291330D01*
X95954235Y-60314430D01*
X95960196Y-60338228D01*
X95963796Y-60362497D01*
X95965000Y-60387001D01*
X95965000Y-63186999D01*
X95963796Y-63211503D01*
X95960196Y-63235772D01*
X95954235Y-63259570D01*
X95945970Y-63282670D01*
X95935480Y-63304849D01*
X95922867Y-63325892D01*
X95908252Y-63345598D01*
X95891776Y-63363776D01*
X95873598Y-63380252D01*
X95853892Y-63394867D01*
X95832849Y-63407480D01*
X95810670Y-63417970D01*
X95787570Y-63426235D01*
X95763772Y-63432196D01*
X95739503Y-63435796D01*
X95714999Y-63437000D01*
X93515001Y-63437000D01*
X93490497Y-63435796D01*
X93466228Y-63432196D01*
X93442430Y-63426235D01*
X93419330Y-63417970D01*
X93397151Y-63407480D01*
X93376108Y-63394867D01*
X93356402Y-63380252D01*
X93338224Y-63363776D01*
X93321748Y-63345598D01*
X93307133Y-63325892D01*
X93294520Y-63304849D01*
X93284030Y-63282670D01*
X93275765Y-63259570D01*
X93269804Y-63235772D01*
X93266204Y-63211503D01*
X93265000Y-63186999D01*
X93265000Y-60387001D01*
X93266204Y-60362497D01*
X93269804Y-60338228D01*
X93275765Y-60314430D01*
X93284030Y-60291330D01*
X93294520Y-60269151D01*
X93307133Y-60248108D01*
X93321748Y-60228402D01*
X93338224Y-60210224D01*
X93356402Y-60193748D01*
X93376108Y-60179133D01*
X93397151Y-60166520D01*
X93419330Y-60156030D01*
X93442430Y-60147765D01*
X93466228Y-60141804D01*
X93490497Y-60138204D01*
X93515001Y-60137000D01*
X95714999Y-60137000D01*
X95739503Y-60138204D01*
X95739503Y-60138204D01*
G37*
D17*
X94615000Y-61787000D03*
D16*
X98815000Y-61787000D03*
X94615000Y-65987000D03*
X98815000Y-65987000D03*
X106134000Y-65855000D03*
D11*
G36*
X107258503Y-60006204D02*
G01*
X107282772Y-60009804D01*
X107306570Y-60015765D01*
X107329670Y-60024030D01*
X107351849Y-60034520D01*
X107372892Y-60047133D01*
X107392598Y-60061748D01*
X107410776Y-60078224D01*
X107427252Y-60096402D01*
X107441867Y-60116108D01*
X107454480Y-60137151D01*
X107464970Y-60159330D01*
X107473235Y-60182430D01*
X107479196Y-60206228D01*
X107482796Y-60230497D01*
X107484000Y-60255001D01*
X107484000Y-63054999D01*
X107482796Y-63079503D01*
X107479196Y-63103772D01*
X107473235Y-63127570D01*
X107464970Y-63150670D01*
X107454480Y-63172849D01*
X107441867Y-63193892D01*
X107427252Y-63213598D01*
X107410776Y-63231776D01*
X107392598Y-63248252D01*
X107372892Y-63262867D01*
X107351849Y-63275480D01*
X107329670Y-63285970D01*
X107306570Y-63294235D01*
X107282772Y-63300196D01*
X107258503Y-63303796D01*
X107233999Y-63305000D01*
X105034001Y-63305000D01*
X105009497Y-63303796D01*
X104985228Y-63300196D01*
X104961430Y-63294235D01*
X104938330Y-63285970D01*
X104916151Y-63275480D01*
X104895108Y-63262867D01*
X104875402Y-63248252D01*
X104857224Y-63231776D01*
X104840748Y-63213598D01*
X104826133Y-63193892D01*
X104813520Y-63172849D01*
X104803030Y-63150670D01*
X104794765Y-63127570D01*
X104788804Y-63103772D01*
X104785204Y-63079503D01*
X104784000Y-63054999D01*
X104784000Y-60255001D01*
X104785204Y-60230497D01*
X104788804Y-60206228D01*
X104794765Y-60182430D01*
X104803030Y-60159330D01*
X104813520Y-60137151D01*
X104826133Y-60116108D01*
X104840748Y-60096402D01*
X104857224Y-60078224D01*
X104875402Y-60061748D01*
X104895108Y-60047133D01*
X104916151Y-60034520D01*
X104938330Y-60024030D01*
X104961430Y-60015765D01*
X104985228Y-60009804D01*
X105009497Y-60006204D01*
X105034001Y-60005000D01*
X107233999Y-60005000D01*
X107258503Y-60006204D01*
X107258503Y-60006204D01*
G37*
D17*
X106134000Y-61655000D03*
D11*
G36*
X80574504Y-81584704D02*
G01*
X80598773Y-81588304D01*
X80622571Y-81594265D01*
X80645671Y-81602530D01*
X80667849Y-81613020D01*
X80688893Y-81625633D01*
X80708598Y-81640247D01*
X80726777Y-81656723D01*
X80743253Y-81674902D01*
X80757867Y-81694607D01*
X80770480Y-81715651D01*
X80780970Y-81737829D01*
X80789235Y-81760929D01*
X80795196Y-81784727D01*
X80798796Y-81808996D01*
X80800000Y-81833500D01*
X80800000Y-82758500D01*
X80798796Y-82783004D01*
X80795196Y-82807273D01*
X80789235Y-82831071D01*
X80780970Y-82854171D01*
X80770480Y-82876349D01*
X80757867Y-82897393D01*
X80743253Y-82917098D01*
X80726777Y-82935277D01*
X80708598Y-82951753D01*
X80688893Y-82966367D01*
X80667849Y-82978980D01*
X80645671Y-82989470D01*
X80622571Y-82997735D01*
X80598773Y-83003696D01*
X80574504Y-83007296D01*
X80550000Y-83008500D01*
X79300000Y-83008500D01*
X79275496Y-83007296D01*
X79251227Y-83003696D01*
X79227429Y-82997735D01*
X79204329Y-82989470D01*
X79182151Y-82978980D01*
X79161107Y-82966367D01*
X79141402Y-82951753D01*
X79123223Y-82935277D01*
X79106747Y-82917098D01*
X79092133Y-82897393D01*
X79079520Y-82876349D01*
X79069030Y-82854171D01*
X79060765Y-82831071D01*
X79054804Y-82807273D01*
X79051204Y-82783004D01*
X79050000Y-82758500D01*
X79050000Y-81833500D01*
X79051204Y-81808996D01*
X79054804Y-81784727D01*
X79060765Y-81760929D01*
X79069030Y-81737829D01*
X79079520Y-81715651D01*
X79092133Y-81694607D01*
X79106747Y-81674902D01*
X79123223Y-81656723D01*
X79141402Y-81640247D01*
X79161107Y-81625633D01*
X79182151Y-81613020D01*
X79204329Y-81602530D01*
X79227429Y-81594265D01*
X79251227Y-81588304D01*
X79275496Y-81584704D01*
X79300000Y-81583500D01*
X80550000Y-81583500D01*
X80574504Y-81584704D01*
X80574504Y-81584704D01*
G37*
D18*
X79925000Y-82296000D03*
D11*
G36*
X80574504Y-84559704D02*
G01*
X80598773Y-84563304D01*
X80622571Y-84569265D01*
X80645671Y-84577530D01*
X80667849Y-84588020D01*
X80688893Y-84600633D01*
X80708598Y-84615247D01*
X80726777Y-84631723D01*
X80743253Y-84649902D01*
X80757867Y-84669607D01*
X80770480Y-84690651D01*
X80780970Y-84712829D01*
X80789235Y-84735929D01*
X80795196Y-84759727D01*
X80798796Y-84783996D01*
X80800000Y-84808500D01*
X80800000Y-85733500D01*
X80798796Y-85758004D01*
X80795196Y-85782273D01*
X80789235Y-85806071D01*
X80780970Y-85829171D01*
X80770480Y-85851349D01*
X80757867Y-85872393D01*
X80743253Y-85892098D01*
X80726777Y-85910277D01*
X80708598Y-85926753D01*
X80688893Y-85941367D01*
X80667849Y-85953980D01*
X80645671Y-85964470D01*
X80622571Y-85972735D01*
X80598773Y-85978696D01*
X80574504Y-85982296D01*
X80550000Y-85983500D01*
X79300000Y-85983500D01*
X79275496Y-85982296D01*
X79251227Y-85978696D01*
X79227429Y-85972735D01*
X79204329Y-85964470D01*
X79182151Y-85953980D01*
X79161107Y-85941367D01*
X79141402Y-85926753D01*
X79123223Y-85910277D01*
X79106747Y-85892098D01*
X79092133Y-85872393D01*
X79079520Y-85851349D01*
X79069030Y-85829171D01*
X79060765Y-85806071D01*
X79054804Y-85782273D01*
X79051204Y-85758004D01*
X79050000Y-85733500D01*
X79050000Y-84808500D01*
X79051204Y-84783996D01*
X79054804Y-84759727D01*
X79060765Y-84735929D01*
X79069030Y-84712829D01*
X79079520Y-84690651D01*
X79092133Y-84669607D01*
X79106747Y-84649902D01*
X79123223Y-84631723D01*
X79141402Y-84615247D01*
X79161107Y-84600633D01*
X79182151Y-84588020D01*
X79204329Y-84577530D01*
X79227429Y-84569265D01*
X79251227Y-84563304D01*
X79275496Y-84559704D01*
X79300000Y-84558500D01*
X80550000Y-84558500D01*
X80574504Y-84559704D01*
X80574504Y-84559704D01*
G37*
D18*
X79925000Y-85271000D03*
D11*
G36*
X94544504Y-84559704D02*
G01*
X94568773Y-84563304D01*
X94592571Y-84569265D01*
X94615671Y-84577530D01*
X94637849Y-84588020D01*
X94658893Y-84600633D01*
X94678598Y-84615247D01*
X94696777Y-84631723D01*
X94713253Y-84649902D01*
X94727867Y-84669607D01*
X94740480Y-84690651D01*
X94750970Y-84712829D01*
X94759235Y-84735929D01*
X94765196Y-84759727D01*
X94768796Y-84783996D01*
X94770000Y-84808500D01*
X94770000Y-85733500D01*
X94768796Y-85758004D01*
X94765196Y-85782273D01*
X94759235Y-85806071D01*
X94750970Y-85829171D01*
X94740480Y-85851349D01*
X94727867Y-85872393D01*
X94713253Y-85892098D01*
X94696777Y-85910277D01*
X94678598Y-85926753D01*
X94658893Y-85941367D01*
X94637849Y-85953980D01*
X94615671Y-85964470D01*
X94592571Y-85972735D01*
X94568773Y-85978696D01*
X94544504Y-85982296D01*
X94520000Y-85983500D01*
X93270000Y-85983500D01*
X93245496Y-85982296D01*
X93221227Y-85978696D01*
X93197429Y-85972735D01*
X93174329Y-85964470D01*
X93152151Y-85953980D01*
X93131107Y-85941367D01*
X93111402Y-85926753D01*
X93093223Y-85910277D01*
X93076747Y-85892098D01*
X93062133Y-85872393D01*
X93049520Y-85851349D01*
X93039030Y-85829171D01*
X93030765Y-85806071D01*
X93024804Y-85782273D01*
X93021204Y-85758004D01*
X93020000Y-85733500D01*
X93020000Y-84808500D01*
X93021204Y-84783996D01*
X93024804Y-84759727D01*
X93030765Y-84735929D01*
X93039030Y-84712829D01*
X93049520Y-84690651D01*
X93062133Y-84669607D01*
X93076747Y-84649902D01*
X93093223Y-84631723D01*
X93111402Y-84615247D01*
X93131107Y-84600633D01*
X93152151Y-84588020D01*
X93174329Y-84577530D01*
X93197429Y-84569265D01*
X93221227Y-84563304D01*
X93245496Y-84559704D01*
X93270000Y-84558500D01*
X94520000Y-84558500D01*
X94544504Y-84559704D01*
X94544504Y-84559704D01*
G37*
D18*
X93895000Y-85271000D03*
D11*
G36*
X94544504Y-81584704D02*
G01*
X94568773Y-81588304D01*
X94592571Y-81594265D01*
X94615671Y-81602530D01*
X94637849Y-81613020D01*
X94658893Y-81625633D01*
X94678598Y-81640247D01*
X94696777Y-81656723D01*
X94713253Y-81674902D01*
X94727867Y-81694607D01*
X94740480Y-81715651D01*
X94750970Y-81737829D01*
X94759235Y-81760929D01*
X94765196Y-81784727D01*
X94768796Y-81808996D01*
X94770000Y-81833500D01*
X94770000Y-82758500D01*
X94768796Y-82783004D01*
X94765196Y-82807273D01*
X94759235Y-82831071D01*
X94750970Y-82854171D01*
X94740480Y-82876349D01*
X94727867Y-82897393D01*
X94713253Y-82917098D01*
X94696777Y-82935277D01*
X94678598Y-82951753D01*
X94658893Y-82966367D01*
X94637849Y-82978980D01*
X94615671Y-82989470D01*
X94592571Y-82997735D01*
X94568773Y-83003696D01*
X94544504Y-83007296D01*
X94520000Y-83008500D01*
X93270000Y-83008500D01*
X93245496Y-83007296D01*
X93221227Y-83003696D01*
X93197429Y-82997735D01*
X93174329Y-82989470D01*
X93152151Y-82978980D01*
X93131107Y-82966367D01*
X93111402Y-82951753D01*
X93093223Y-82935277D01*
X93076747Y-82917098D01*
X93062133Y-82897393D01*
X93049520Y-82876349D01*
X93039030Y-82854171D01*
X93030765Y-82831071D01*
X93024804Y-82807273D01*
X93021204Y-82783004D01*
X93020000Y-82758500D01*
X93020000Y-81833500D01*
X93021204Y-81808996D01*
X93024804Y-81784727D01*
X93030765Y-81760929D01*
X93039030Y-81737829D01*
X93049520Y-81715651D01*
X93062133Y-81694607D01*
X93076747Y-81674902D01*
X93093223Y-81656723D01*
X93111402Y-81640247D01*
X93131107Y-81625633D01*
X93152151Y-81613020D01*
X93174329Y-81602530D01*
X93197429Y-81594265D01*
X93221227Y-81588304D01*
X93245496Y-81584704D01*
X93270000Y-81583500D01*
X94520000Y-81583500D01*
X94544504Y-81584704D01*
X94544504Y-81584704D01*
G37*
D18*
X93895000Y-82296000D03*
D11*
G36*
X71557504Y-84547704D02*
G01*
X71581773Y-84551304D01*
X71605571Y-84557265D01*
X71628671Y-84565530D01*
X71650849Y-84576020D01*
X71671893Y-84588633D01*
X71691598Y-84603247D01*
X71709777Y-84619723D01*
X71726253Y-84637902D01*
X71740867Y-84657607D01*
X71753480Y-84678651D01*
X71763970Y-84700829D01*
X71772235Y-84723929D01*
X71778196Y-84747727D01*
X71781796Y-84771996D01*
X71783000Y-84796500D01*
X71783000Y-85721500D01*
X71781796Y-85746004D01*
X71778196Y-85770273D01*
X71772235Y-85794071D01*
X71763970Y-85817171D01*
X71753480Y-85839349D01*
X71740867Y-85860393D01*
X71726253Y-85880098D01*
X71709777Y-85898277D01*
X71691598Y-85914753D01*
X71671893Y-85929367D01*
X71650849Y-85941980D01*
X71628671Y-85952470D01*
X71605571Y-85960735D01*
X71581773Y-85966696D01*
X71557504Y-85970296D01*
X71533000Y-85971500D01*
X70283000Y-85971500D01*
X70258496Y-85970296D01*
X70234227Y-85966696D01*
X70210429Y-85960735D01*
X70187329Y-85952470D01*
X70165151Y-85941980D01*
X70144107Y-85929367D01*
X70124402Y-85914753D01*
X70106223Y-85898277D01*
X70089747Y-85880098D01*
X70075133Y-85860393D01*
X70062520Y-85839349D01*
X70052030Y-85817171D01*
X70043765Y-85794071D01*
X70037804Y-85770273D01*
X70034204Y-85746004D01*
X70033000Y-85721500D01*
X70033000Y-84796500D01*
X70034204Y-84771996D01*
X70037804Y-84747727D01*
X70043765Y-84723929D01*
X70052030Y-84700829D01*
X70062520Y-84678651D01*
X70075133Y-84657607D01*
X70089747Y-84637902D01*
X70106223Y-84619723D01*
X70124402Y-84603247D01*
X70144107Y-84588633D01*
X70165151Y-84576020D01*
X70187329Y-84565530D01*
X70210429Y-84557265D01*
X70234227Y-84551304D01*
X70258496Y-84547704D01*
X70283000Y-84546500D01*
X71533000Y-84546500D01*
X71557504Y-84547704D01*
X71557504Y-84547704D01*
G37*
D18*
X70908000Y-85259000D03*
D11*
G36*
X71557504Y-81572704D02*
G01*
X71581773Y-81576304D01*
X71605571Y-81582265D01*
X71628671Y-81590530D01*
X71650849Y-81601020D01*
X71671893Y-81613633D01*
X71691598Y-81628247D01*
X71709777Y-81644723D01*
X71726253Y-81662902D01*
X71740867Y-81682607D01*
X71753480Y-81703651D01*
X71763970Y-81725829D01*
X71772235Y-81748929D01*
X71778196Y-81772727D01*
X71781796Y-81796996D01*
X71783000Y-81821500D01*
X71783000Y-82746500D01*
X71781796Y-82771004D01*
X71778196Y-82795273D01*
X71772235Y-82819071D01*
X71763970Y-82842171D01*
X71753480Y-82864349D01*
X71740867Y-82885393D01*
X71726253Y-82905098D01*
X71709777Y-82923277D01*
X71691598Y-82939753D01*
X71671893Y-82954367D01*
X71650849Y-82966980D01*
X71628671Y-82977470D01*
X71605571Y-82985735D01*
X71581773Y-82991696D01*
X71557504Y-82995296D01*
X71533000Y-82996500D01*
X70283000Y-82996500D01*
X70258496Y-82995296D01*
X70234227Y-82991696D01*
X70210429Y-82985735D01*
X70187329Y-82977470D01*
X70165151Y-82966980D01*
X70144107Y-82954367D01*
X70124402Y-82939753D01*
X70106223Y-82923277D01*
X70089747Y-82905098D01*
X70075133Y-82885393D01*
X70062520Y-82864349D01*
X70052030Y-82842171D01*
X70043765Y-82819071D01*
X70037804Y-82795273D01*
X70034204Y-82771004D01*
X70033000Y-82746500D01*
X70033000Y-81821500D01*
X70034204Y-81796996D01*
X70037804Y-81772727D01*
X70043765Y-81748929D01*
X70052030Y-81725829D01*
X70062520Y-81703651D01*
X70075133Y-81682607D01*
X70089747Y-81662902D01*
X70106223Y-81644723D01*
X70124402Y-81628247D01*
X70144107Y-81613633D01*
X70165151Y-81601020D01*
X70187329Y-81590530D01*
X70210429Y-81582265D01*
X70234227Y-81576304D01*
X70258496Y-81572704D01*
X70283000Y-81571500D01*
X71533000Y-81571500D01*
X71557504Y-81572704D01*
X71557504Y-81572704D01*
G37*
D18*
X70908000Y-82284000D03*
D11*
G36*
X85400504Y-84547704D02*
G01*
X85424773Y-84551304D01*
X85448571Y-84557265D01*
X85471671Y-84565530D01*
X85493849Y-84576020D01*
X85514893Y-84588633D01*
X85534598Y-84603247D01*
X85552777Y-84619723D01*
X85569253Y-84637902D01*
X85583867Y-84657607D01*
X85596480Y-84678651D01*
X85606970Y-84700829D01*
X85615235Y-84723929D01*
X85621196Y-84747727D01*
X85624796Y-84771996D01*
X85626000Y-84796500D01*
X85626000Y-85721500D01*
X85624796Y-85746004D01*
X85621196Y-85770273D01*
X85615235Y-85794071D01*
X85606970Y-85817171D01*
X85596480Y-85839349D01*
X85583867Y-85860393D01*
X85569253Y-85880098D01*
X85552777Y-85898277D01*
X85534598Y-85914753D01*
X85514893Y-85929367D01*
X85493849Y-85941980D01*
X85471671Y-85952470D01*
X85448571Y-85960735D01*
X85424773Y-85966696D01*
X85400504Y-85970296D01*
X85376000Y-85971500D01*
X84126000Y-85971500D01*
X84101496Y-85970296D01*
X84077227Y-85966696D01*
X84053429Y-85960735D01*
X84030329Y-85952470D01*
X84008151Y-85941980D01*
X83987107Y-85929367D01*
X83967402Y-85914753D01*
X83949223Y-85898277D01*
X83932747Y-85880098D01*
X83918133Y-85860393D01*
X83905520Y-85839349D01*
X83895030Y-85817171D01*
X83886765Y-85794071D01*
X83880804Y-85770273D01*
X83877204Y-85746004D01*
X83876000Y-85721500D01*
X83876000Y-84796500D01*
X83877204Y-84771996D01*
X83880804Y-84747727D01*
X83886765Y-84723929D01*
X83895030Y-84700829D01*
X83905520Y-84678651D01*
X83918133Y-84657607D01*
X83932747Y-84637902D01*
X83949223Y-84619723D01*
X83967402Y-84603247D01*
X83987107Y-84588633D01*
X84008151Y-84576020D01*
X84030329Y-84565530D01*
X84053429Y-84557265D01*
X84077227Y-84551304D01*
X84101496Y-84547704D01*
X84126000Y-84546500D01*
X85376000Y-84546500D01*
X85400504Y-84547704D01*
X85400504Y-84547704D01*
G37*
D18*
X84751000Y-85259000D03*
D11*
G36*
X85400504Y-81572704D02*
G01*
X85424773Y-81576304D01*
X85448571Y-81582265D01*
X85471671Y-81590530D01*
X85493849Y-81601020D01*
X85514893Y-81613633D01*
X85534598Y-81628247D01*
X85552777Y-81644723D01*
X85569253Y-81662902D01*
X85583867Y-81682607D01*
X85596480Y-81703651D01*
X85606970Y-81725829D01*
X85615235Y-81748929D01*
X85621196Y-81772727D01*
X85624796Y-81796996D01*
X85626000Y-81821500D01*
X85626000Y-82746500D01*
X85624796Y-82771004D01*
X85621196Y-82795273D01*
X85615235Y-82819071D01*
X85606970Y-82842171D01*
X85596480Y-82864349D01*
X85583867Y-82885393D01*
X85569253Y-82905098D01*
X85552777Y-82923277D01*
X85534598Y-82939753D01*
X85514893Y-82954367D01*
X85493849Y-82966980D01*
X85471671Y-82977470D01*
X85448571Y-82985735D01*
X85424773Y-82991696D01*
X85400504Y-82995296D01*
X85376000Y-82996500D01*
X84126000Y-82996500D01*
X84101496Y-82995296D01*
X84077227Y-82991696D01*
X84053429Y-82985735D01*
X84030329Y-82977470D01*
X84008151Y-82966980D01*
X83987107Y-82954367D01*
X83967402Y-82939753D01*
X83949223Y-82923277D01*
X83932747Y-82905098D01*
X83918133Y-82885393D01*
X83905520Y-82864349D01*
X83895030Y-82842171D01*
X83886765Y-82819071D01*
X83880804Y-82795273D01*
X83877204Y-82771004D01*
X83876000Y-82746500D01*
X83876000Y-81821500D01*
X83877204Y-81796996D01*
X83880804Y-81772727D01*
X83886765Y-81748929D01*
X83895030Y-81725829D01*
X83905520Y-81703651D01*
X83918133Y-81682607D01*
X83932747Y-81662902D01*
X83949223Y-81644723D01*
X83967402Y-81628247D01*
X83987107Y-81613633D01*
X84008151Y-81601020D01*
X84030329Y-81590530D01*
X84053429Y-81582265D01*
X84077227Y-81576304D01*
X84101496Y-81572704D01*
X84126000Y-81571500D01*
X85376000Y-81571500D01*
X85400504Y-81572704D01*
X85400504Y-81572704D01*
G37*
D18*
X84751000Y-82284000D03*
D11*
G36*
X108726504Y-81584704D02*
G01*
X108750773Y-81588304D01*
X108774571Y-81594265D01*
X108797671Y-81602530D01*
X108819849Y-81613020D01*
X108840893Y-81625633D01*
X108860598Y-81640247D01*
X108878777Y-81656723D01*
X108895253Y-81674902D01*
X108909867Y-81694607D01*
X108922480Y-81715651D01*
X108932970Y-81737829D01*
X108941235Y-81760929D01*
X108947196Y-81784727D01*
X108950796Y-81808996D01*
X108952000Y-81833500D01*
X108952000Y-82758500D01*
X108950796Y-82783004D01*
X108947196Y-82807273D01*
X108941235Y-82831071D01*
X108932970Y-82854171D01*
X108922480Y-82876349D01*
X108909867Y-82897393D01*
X108895253Y-82917098D01*
X108878777Y-82935277D01*
X108860598Y-82951753D01*
X108840893Y-82966367D01*
X108819849Y-82978980D01*
X108797671Y-82989470D01*
X108774571Y-82997735D01*
X108750773Y-83003696D01*
X108726504Y-83007296D01*
X108702000Y-83008500D01*
X107452000Y-83008500D01*
X107427496Y-83007296D01*
X107403227Y-83003696D01*
X107379429Y-82997735D01*
X107356329Y-82989470D01*
X107334151Y-82978980D01*
X107313107Y-82966367D01*
X107293402Y-82951753D01*
X107275223Y-82935277D01*
X107258747Y-82917098D01*
X107244133Y-82897393D01*
X107231520Y-82876349D01*
X107221030Y-82854171D01*
X107212765Y-82831071D01*
X107206804Y-82807273D01*
X107203204Y-82783004D01*
X107202000Y-82758500D01*
X107202000Y-81833500D01*
X107203204Y-81808996D01*
X107206804Y-81784727D01*
X107212765Y-81760929D01*
X107221030Y-81737829D01*
X107231520Y-81715651D01*
X107244133Y-81694607D01*
X107258747Y-81674902D01*
X107275223Y-81656723D01*
X107293402Y-81640247D01*
X107313107Y-81625633D01*
X107334151Y-81613020D01*
X107356329Y-81602530D01*
X107379429Y-81594265D01*
X107403227Y-81588304D01*
X107427496Y-81584704D01*
X107452000Y-81583500D01*
X108702000Y-81583500D01*
X108726504Y-81584704D01*
X108726504Y-81584704D01*
G37*
D18*
X108077000Y-82296000D03*
D11*
G36*
X108726504Y-84559704D02*
G01*
X108750773Y-84563304D01*
X108774571Y-84569265D01*
X108797671Y-84577530D01*
X108819849Y-84588020D01*
X108840893Y-84600633D01*
X108860598Y-84615247D01*
X108878777Y-84631723D01*
X108895253Y-84649902D01*
X108909867Y-84669607D01*
X108922480Y-84690651D01*
X108932970Y-84712829D01*
X108941235Y-84735929D01*
X108947196Y-84759727D01*
X108950796Y-84783996D01*
X108952000Y-84808500D01*
X108952000Y-85733500D01*
X108950796Y-85758004D01*
X108947196Y-85782273D01*
X108941235Y-85806071D01*
X108932970Y-85829171D01*
X108922480Y-85851349D01*
X108909867Y-85872393D01*
X108895253Y-85892098D01*
X108878777Y-85910277D01*
X108860598Y-85926753D01*
X108840893Y-85941367D01*
X108819849Y-85953980D01*
X108797671Y-85964470D01*
X108774571Y-85972735D01*
X108750773Y-85978696D01*
X108726504Y-85982296D01*
X108702000Y-85983500D01*
X107452000Y-85983500D01*
X107427496Y-85982296D01*
X107403227Y-85978696D01*
X107379429Y-85972735D01*
X107356329Y-85964470D01*
X107334151Y-85953980D01*
X107313107Y-85941367D01*
X107293402Y-85926753D01*
X107275223Y-85910277D01*
X107258747Y-85892098D01*
X107244133Y-85872393D01*
X107231520Y-85851349D01*
X107221030Y-85829171D01*
X107212765Y-85806071D01*
X107206804Y-85782273D01*
X107203204Y-85758004D01*
X107202000Y-85733500D01*
X107202000Y-84808500D01*
X107203204Y-84783996D01*
X107206804Y-84759727D01*
X107212765Y-84735929D01*
X107221030Y-84712829D01*
X107231520Y-84690651D01*
X107244133Y-84669607D01*
X107258747Y-84649902D01*
X107275223Y-84631723D01*
X107293402Y-84615247D01*
X107313107Y-84600633D01*
X107334151Y-84588020D01*
X107356329Y-84577530D01*
X107379429Y-84569265D01*
X107403227Y-84563304D01*
X107427496Y-84559704D01*
X107452000Y-84558500D01*
X108702000Y-84558500D01*
X108726504Y-84559704D01*
X108726504Y-84559704D01*
G37*
D18*
X108077000Y-85271000D03*
D11*
G36*
X99624504Y-84674704D02*
G01*
X99648773Y-84678304D01*
X99672571Y-84684265D01*
X99695671Y-84692530D01*
X99717849Y-84703020D01*
X99738893Y-84715633D01*
X99758598Y-84730247D01*
X99776777Y-84746723D01*
X99793253Y-84764902D01*
X99807867Y-84784607D01*
X99820480Y-84805651D01*
X99830970Y-84827829D01*
X99839235Y-84850929D01*
X99845196Y-84874727D01*
X99848796Y-84898996D01*
X99850000Y-84923500D01*
X99850000Y-85848500D01*
X99848796Y-85873004D01*
X99845196Y-85897273D01*
X99839235Y-85921071D01*
X99830970Y-85944171D01*
X99820480Y-85966349D01*
X99807867Y-85987393D01*
X99793253Y-86007098D01*
X99776777Y-86025277D01*
X99758598Y-86041753D01*
X99738893Y-86056367D01*
X99717849Y-86068980D01*
X99695671Y-86079470D01*
X99672571Y-86087735D01*
X99648773Y-86093696D01*
X99624504Y-86097296D01*
X99600000Y-86098500D01*
X98350000Y-86098500D01*
X98325496Y-86097296D01*
X98301227Y-86093696D01*
X98277429Y-86087735D01*
X98254329Y-86079470D01*
X98232151Y-86068980D01*
X98211107Y-86056367D01*
X98191402Y-86041753D01*
X98173223Y-86025277D01*
X98156747Y-86007098D01*
X98142133Y-85987393D01*
X98129520Y-85966349D01*
X98119030Y-85944171D01*
X98110765Y-85921071D01*
X98104804Y-85897273D01*
X98101204Y-85873004D01*
X98100000Y-85848500D01*
X98100000Y-84923500D01*
X98101204Y-84898996D01*
X98104804Y-84874727D01*
X98110765Y-84850929D01*
X98119030Y-84827829D01*
X98129520Y-84805651D01*
X98142133Y-84784607D01*
X98156747Y-84764902D01*
X98173223Y-84746723D01*
X98191402Y-84730247D01*
X98211107Y-84715633D01*
X98232151Y-84703020D01*
X98254329Y-84692530D01*
X98277429Y-84684265D01*
X98301227Y-84678304D01*
X98325496Y-84674704D01*
X98350000Y-84673500D01*
X99600000Y-84673500D01*
X99624504Y-84674704D01*
X99624504Y-84674704D01*
G37*
D18*
X98975000Y-85386000D03*
D11*
G36*
X99624504Y-81699704D02*
G01*
X99648773Y-81703304D01*
X99672571Y-81709265D01*
X99695671Y-81717530D01*
X99717849Y-81728020D01*
X99738893Y-81740633D01*
X99758598Y-81755247D01*
X99776777Y-81771723D01*
X99793253Y-81789902D01*
X99807867Y-81809607D01*
X99820480Y-81830651D01*
X99830970Y-81852829D01*
X99839235Y-81875929D01*
X99845196Y-81899727D01*
X99848796Y-81923996D01*
X99850000Y-81948500D01*
X99850000Y-82873500D01*
X99848796Y-82898004D01*
X99845196Y-82922273D01*
X99839235Y-82946071D01*
X99830970Y-82969171D01*
X99820480Y-82991349D01*
X99807867Y-83012393D01*
X99793253Y-83032098D01*
X99776777Y-83050277D01*
X99758598Y-83066753D01*
X99738893Y-83081367D01*
X99717849Y-83093980D01*
X99695671Y-83104470D01*
X99672571Y-83112735D01*
X99648773Y-83118696D01*
X99624504Y-83122296D01*
X99600000Y-83123500D01*
X98350000Y-83123500D01*
X98325496Y-83122296D01*
X98301227Y-83118696D01*
X98277429Y-83112735D01*
X98254329Y-83104470D01*
X98232151Y-83093980D01*
X98211107Y-83081367D01*
X98191402Y-83066753D01*
X98173223Y-83050277D01*
X98156747Y-83032098D01*
X98142133Y-83012393D01*
X98129520Y-82991349D01*
X98119030Y-82969171D01*
X98110765Y-82946071D01*
X98104804Y-82922273D01*
X98101204Y-82898004D01*
X98100000Y-82873500D01*
X98100000Y-81948500D01*
X98101204Y-81923996D01*
X98104804Y-81899727D01*
X98110765Y-81875929D01*
X98119030Y-81852829D01*
X98129520Y-81830651D01*
X98142133Y-81809607D01*
X98156747Y-81789902D01*
X98173223Y-81771723D01*
X98191402Y-81755247D01*
X98211107Y-81740633D01*
X98232151Y-81728020D01*
X98254329Y-81717530D01*
X98277429Y-81709265D01*
X98301227Y-81703304D01*
X98325496Y-81699704D01*
X98350000Y-81698500D01*
X99600000Y-81698500D01*
X99624504Y-81699704D01*
X99624504Y-81699704D01*
G37*
D18*
X98975000Y-82411000D03*
D11*
G36*
X112498504Y-90981204D02*
G01*
X112522773Y-90984804D01*
X112546571Y-90990765D01*
X112569671Y-90999030D01*
X112591849Y-91009520D01*
X112612893Y-91022133D01*
X112632598Y-91036747D01*
X112650777Y-91053223D01*
X112667253Y-91071402D01*
X112681867Y-91091107D01*
X112694480Y-91112151D01*
X112704970Y-91134329D01*
X112713235Y-91157429D01*
X112719196Y-91181227D01*
X112722796Y-91205496D01*
X112724000Y-91230000D01*
X112724000Y-92155000D01*
X112722796Y-92179504D01*
X112719196Y-92203773D01*
X112713235Y-92227571D01*
X112704970Y-92250671D01*
X112694480Y-92272849D01*
X112681867Y-92293893D01*
X112667253Y-92313598D01*
X112650777Y-92331777D01*
X112632598Y-92348253D01*
X112612893Y-92362867D01*
X112591849Y-92375480D01*
X112569671Y-92385970D01*
X112546571Y-92394235D01*
X112522773Y-92400196D01*
X112498504Y-92403796D01*
X112474000Y-92405000D01*
X111224000Y-92405000D01*
X111199496Y-92403796D01*
X111175227Y-92400196D01*
X111151429Y-92394235D01*
X111128329Y-92385970D01*
X111106151Y-92375480D01*
X111085107Y-92362867D01*
X111065402Y-92348253D01*
X111047223Y-92331777D01*
X111030747Y-92313598D01*
X111016133Y-92293893D01*
X111003520Y-92272849D01*
X110993030Y-92250671D01*
X110984765Y-92227571D01*
X110978804Y-92203773D01*
X110975204Y-92179504D01*
X110974000Y-92155000D01*
X110974000Y-91230000D01*
X110975204Y-91205496D01*
X110978804Y-91181227D01*
X110984765Y-91157429D01*
X110993030Y-91134329D01*
X111003520Y-91112151D01*
X111016133Y-91091107D01*
X111030747Y-91071402D01*
X111047223Y-91053223D01*
X111065402Y-91036747D01*
X111085107Y-91022133D01*
X111106151Y-91009520D01*
X111128329Y-90999030D01*
X111151429Y-90990765D01*
X111175227Y-90984804D01*
X111199496Y-90981204D01*
X111224000Y-90980000D01*
X112474000Y-90980000D01*
X112498504Y-90981204D01*
X112498504Y-90981204D01*
G37*
D18*
X111849000Y-91692500D03*
D11*
G36*
X112498504Y-93956204D02*
G01*
X112522773Y-93959804D01*
X112546571Y-93965765D01*
X112569671Y-93974030D01*
X112591849Y-93984520D01*
X112612893Y-93997133D01*
X112632598Y-94011747D01*
X112650777Y-94028223D01*
X112667253Y-94046402D01*
X112681867Y-94066107D01*
X112694480Y-94087151D01*
X112704970Y-94109329D01*
X112713235Y-94132429D01*
X112719196Y-94156227D01*
X112722796Y-94180496D01*
X112724000Y-94205000D01*
X112724000Y-95130000D01*
X112722796Y-95154504D01*
X112719196Y-95178773D01*
X112713235Y-95202571D01*
X112704970Y-95225671D01*
X112694480Y-95247849D01*
X112681867Y-95268893D01*
X112667253Y-95288598D01*
X112650777Y-95306777D01*
X112632598Y-95323253D01*
X112612893Y-95337867D01*
X112591849Y-95350480D01*
X112569671Y-95360970D01*
X112546571Y-95369235D01*
X112522773Y-95375196D01*
X112498504Y-95378796D01*
X112474000Y-95380000D01*
X111224000Y-95380000D01*
X111199496Y-95378796D01*
X111175227Y-95375196D01*
X111151429Y-95369235D01*
X111128329Y-95360970D01*
X111106151Y-95350480D01*
X111085107Y-95337867D01*
X111065402Y-95323253D01*
X111047223Y-95306777D01*
X111030747Y-95288598D01*
X111016133Y-95268893D01*
X111003520Y-95247849D01*
X110993030Y-95225671D01*
X110984765Y-95202571D01*
X110978804Y-95178773D01*
X110975204Y-95154504D01*
X110974000Y-95130000D01*
X110974000Y-94205000D01*
X110975204Y-94180496D01*
X110978804Y-94156227D01*
X110984765Y-94132429D01*
X110993030Y-94109329D01*
X111003520Y-94087151D01*
X111016133Y-94066107D01*
X111030747Y-94046402D01*
X111047223Y-94028223D01*
X111065402Y-94011747D01*
X111085107Y-93997133D01*
X111106151Y-93984520D01*
X111128329Y-93974030D01*
X111151429Y-93965765D01*
X111175227Y-93959804D01*
X111199496Y-93956204D01*
X111224000Y-93955000D01*
X112474000Y-93955000D01*
X112498504Y-93956204D01*
X112498504Y-93956204D01*
G37*
D18*
X111849000Y-94667500D03*
D11*
G36*
X112498504Y-85774204D02*
G01*
X112522773Y-85777804D01*
X112546571Y-85783765D01*
X112569671Y-85792030D01*
X112591849Y-85802520D01*
X112612893Y-85815133D01*
X112632598Y-85829747D01*
X112650777Y-85846223D01*
X112667253Y-85864402D01*
X112681867Y-85884107D01*
X112694480Y-85905151D01*
X112704970Y-85927329D01*
X112713235Y-85950429D01*
X112719196Y-85974227D01*
X112722796Y-85998496D01*
X112724000Y-86023000D01*
X112724000Y-86948000D01*
X112722796Y-86972504D01*
X112719196Y-86996773D01*
X112713235Y-87020571D01*
X112704970Y-87043671D01*
X112694480Y-87065849D01*
X112681867Y-87086893D01*
X112667253Y-87106598D01*
X112650777Y-87124777D01*
X112632598Y-87141253D01*
X112612893Y-87155867D01*
X112591849Y-87168480D01*
X112569671Y-87178970D01*
X112546571Y-87187235D01*
X112522773Y-87193196D01*
X112498504Y-87196796D01*
X112474000Y-87198000D01*
X111224000Y-87198000D01*
X111199496Y-87196796D01*
X111175227Y-87193196D01*
X111151429Y-87187235D01*
X111128329Y-87178970D01*
X111106151Y-87168480D01*
X111085107Y-87155867D01*
X111065402Y-87141253D01*
X111047223Y-87124777D01*
X111030747Y-87106598D01*
X111016133Y-87086893D01*
X111003520Y-87065849D01*
X110993030Y-87043671D01*
X110984765Y-87020571D01*
X110978804Y-86996773D01*
X110975204Y-86972504D01*
X110974000Y-86948000D01*
X110974000Y-86023000D01*
X110975204Y-85998496D01*
X110978804Y-85974227D01*
X110984765Y-85950429D01*
X110993030Y-85927329D01*
X111003520Y-85905151D01*
X111016133Y-85884107D01*
X111030747Y-85864402D01*
X111047223Y-85846223D01*
X111065402Y-85829747D01*
X111085107Y-85815133D01*
X111106151Y-85802520D01*
X111128329Y-85792030D01*
X111151429Y-85783765D01*
X111175227Y-85777804D01*
X111199496Y-85774204D01*
X111224000Y-85773000D01*
X112474000Y-85773000D01*
X112498504Y-85774204D01*
X112498504Y-85774204D01*
G37*
D18*
X111849000Y-86485500D03*
D11*
G36*
X112498504Y-88749204D02*
G01*
X112522773Y-88752804D01*
X112546571Y-88758765D01*
X112569671Y-88767030D01*
X112591849Y-88777520D01*
X112612893Y-88790133D01*
X112632598Y-88804747D01*
X112650777Y-88821223D01*
X112667253Y-88839402D01*
X112681867Y-88859107D01*
X112694480Y-88880151D01*
X112704970Y-88902329D01*
X112713235Y-88925429D01*
X112719196Y-88949227D01*
X112722796Y-88973496D01*
X112724000Y-88998000D01*
X112724000Y-89923000D01*
X112722796Y-89947504D01*
X112719196Y-89971773D01*
X112713235Y-89995571D01*
X112704970Y-90018671D01*
X112694480Y-90040849D01*
X112681867Y-90061893D01*
X112667253Y-90081598D01*
X112650777Y-90099777D01*
X112632598Y-90116253D01*
X112612893Y-90130867D01*
X112591849Y-90143480D01*
X112569671Y-90153970D01*
X112546571Y-90162235D01*
X112522773Y-90168196D01*
X112498504Y-90171796D01*
X112474000Y-90173000D01*
X111224000Y-90173000D01*
X111199496Y-90171796D01*
X111175227Y-90168196D01*
X111151429Y-90162235D01*
X111128329Y-90153970D01*
X111106151Y-90143480D01*
X111085107Y-90130867D01*
X111065402Y-90116253D01*
X111047223Y-90099777D01*
X111030747Y-90081598D01*
X111016133Y-90061893D01*
X111003520Y-90040849D01*
X110993030Y-90018671D01*
X110984765Y-89995571D01*
X110978804Y-89971773D01*
X110975204Y-89947504D01*
X110974000Y-89923000D01*
X110974000Y-88998000D01*
X110975204Y-88973496D01*
X110978804Y-88949227D01*
X110984765Y-88925429D01*
X110993030Y-88902329D01*
X111003520Y-88880151D01*
X111016133Y-88859107D01*
X111030747Y-88839402D01*
X111047223Y-88821223D01*
X111065402Y-88804747D01*
X111085107Y-88790133D01*
X111106151Y-88777520D01*
X111128329Y-88767030D01*
X111151429Y-88758765D01*
X111175227Y-88752804D01*
X111199496Y-88749204D01*
X111224000Y-88748000D01*
X112474000Y-88748000D01*
X112498504Y-88749204D01*
X112498504Y-88749204D01*
G37*
D18*
X111849000Y-89460500D03*
D11*
G36*
X119102504Y-93956204D02*
G01*
X119126773Y-93959804D01*
X119150571Y-93965765D01*
X119173671Y-93974030D01*
X119195849Y-93984520D01*
X119216893Y-93997133D01*
X119236598Y-94011747D01*
X119254777Y-94028223D01*
X119271253Y-94046402D01*
X119285867Y-94066107D01*
X119298480Y-94087151D01*
X119308970Y-94109329D01*
X119317235Y-94132429D01*
X119323196Y-94156227D01*
X119326796Y-94180496D01*
X119328000Y-94205000D01*
X119328000Y-95130000D01*
X119326796Y-95154504D01*
X119323196Y-95178773D01*
X119317235Y-95202571D01*
X119308970Y-95225671D01*
X119298480Y-95247849D01*
X119285867Y-95268893D01*
X119271253Y-95288598D01*
X119254777Y-95306777D01*
X119236598Y-95323253D01*
X119216893Y-95337867D01*
X119195849Y-95350480D01*
X119173671Y-95360970D01*
X119150571Y-95369235D01*
X119126773Y-95375196D01*
X119102504Y-95378796D01*
X119078000Y-95380000D01*
X117828000Y-95380000D01*
X117803496Y-95378796D01*
X117779227Y-95375196D01*
X117755429Y-95369235D01*
X117732329Y-95360970D01*
X117710151Y-95350480D01*
X117689107Y-95337867D01*
X117669402Y-95323253D01*
X117651223Y-95306777D01*
X117634747Y-95288598D01*
X117620133Y-95268893D01*
X117607520Y-95247849D01*
X117597030Y-95225671D01*
X117588765Y-95202571D01*
X117582804Y-95178773D01*
X117579204Y-95154504D01*
X117578000Y-95130000D01*
X117578000Y-94205000D01*
X117579204Y-94180496D01*
X117582804Y-94156227D01*
X117588765Y-94132429D01*
X117597030Y-94109329D01*
X117607520Y-94087151D01*
X117620133Y-94066107D01*
X117634747Y-94046402D01*
X117651223Y-94028223D01*
X117669402Y-94011747D01*
X117689107Y-93997133D01*
X117710151Y-93984520D01*
X117732329Y-93974030D01*
X117755429Y-93965765D01*
X117779227Y-93959804D01*
X117803496Y-93956204D01*
X117828000Y-93955000D01*
X119078000Y-93955000D01*
X119102504Y-93956204D01*
X119102504Y-93956204D01*
G37*
D18*
X118453000Y-94667500D03*
D11*
G36*
X119102504Y-90981204D02*
G01*
X119126773Y-90984804D01*
X119150571Y-90990765D01*
X119173671Y-90999030D01*
X119195849Y-91009520D01*
X119216893Y-91022133D01*
X119236598Y-91036747D01*
X119254777Y-91053223D01*
X119271253Y-91071402D01*
X119285867Y-91091107D01*
X119298480Y-91112151D01*
X119308970Y-91134329D01*
X119317235Y-91157429D01*
X119323196Y-91181227D01*
X119326796Y-91205496D01*
X119328000Y-91230000D01*
X119328000Y-92155000D01*
X119326796Y-92179504D01*
X119323196Y-92203773D01*
X119317235Y-92227571D01*
X119308970Y-92250671D01*
X119298480Y-92272849D01*
X119285867Y-92293893D01*
X119271253Y-92313598D01*
X119254777Y-92331777D01*
X119236598Y-92348253D01*
X119216893Y-92362867D01*
X119195849Y-92375480D01*
X119173671Y-92385970D01*
X119150571Y-92394235D01*
X119126773Y-92400196D01*
X119102504Y-92403796D01*
X119078000Y-92405000D01*
X117828000Y-92405000D01*
X117803496Y-92403796D01*
X117779227Y-92400196D01*
X117755429Y-92394235D01*
X117732329Y-92385970D01*
X117710151Y-92375480D01*
X117689107Y-92362867D01*
X117669402Y-92348253D01*
X117651223Y-92331777D01*
X117634747Y-92313598D01*
X117620133Y-92293893D01*
X117607520Y-92272849D01*
X117597030Y-92250671D01*
X117588765Y-92227571D01*
X117582804Y-92203773D01*
X117579204Y-92179504D01*
X117578000Y-92155000D01*
X117578000Y-91230000D01*
X117579204Y-91205496D01*
X117582804Y-91181227D01*
X117588765Y-91157429D01*
X117597030Y-91134329D01*
X117607520Y-91112151D01*
X117620133Y-91091107D01*
X117634747Y-91071402D01*
X117651223Y-91053223D01*
X117669402Y-91036747D01*
X117689107Y-91022133D01*
X117710151Y-91009520D01*
X117732329Y-90999030D01*
X117755429Y-90990765D01*
X117779227Y-90984804D01*
X117803496Y-90981204D01*
X117828000Y-90980000D01*
X119078000Y-90980000D01*
X119102504Y-90981204D01*
X119102504Y-90981204D01*
G37*
D18*
X118453000Y-91692500D03*
D11*
G36*
X119102504Y-88749204D02*
G01*
X119126773Y-88752804D01*
X119150571Y-88758765D01*
X119173671Y-88767030D01*
X119195849Y-88777520D01*
X119216893Y-88790133D01*
X119236598Y-88804747D01*
X119254777Y-88821223D01*
X119271253Y-88839402D01*
X119285867Y-88859107D01*
X119298480Y-88880151D01*
X119308970Y-88902329D01*
X119317235Y-88925429D01*
X119323196Y-88949227D01*
X119326796Y-88973496D01*
X119328000Y-88998000D01*
X119328000Y-89923000D01*
X119326796Y-89947504D01*
X119323196Y-89971773D01*
X119317235Y-89995571D01*
X119308970Y-90018671D01*
X119298480Y-90040849D01*
X119285867Y-90061893D01*
X119271253Y-90081598D01*
X119254777Y-90099777D01*
X119236598Y-90116253D01*
X119216893Y-90130867D01*
X119195849Y-90143480D01*
X119173671Y-90153970D01*
X119150571Y-90162235D01*
X119126773Y-90168196D01*
X119102504Y-90171796D01*
X119078000Y-90173000D01*
X117828000Y-90173000D01*
X117803496Y-90171796D01*
X117779227Y-90168196D01*
X117755429Y-90162235D01*
X117732329Y-90153970D01*
X117710151Y-90143480D01*
X117689107Y-90130867D01*
X117669402Y-90116253D01*
X117651223Y-90099777D01*
X117634747Y-90081598D01*
X117620133Y-90061893D01*
X117607520Y-90040849D01*
X117597030Y-90018671D01*
X117588765Y-89995571D01*
X117582804Y-89971773D01*
X117579204Y-89947504D01*
X117578000Y-89923000D01*
X117578000Y-88998000D01*
X117579204Y-88973496D01*
X117582804Y-88949227D01*
X117588765Y-88925429D01*
X117597030Y-88902329D01*
X117607520Y-88880151D01*
X117620133Y-88859107D01*
X117634747Y-88839402D01*
X117651223Y-88821223D01*
X117669402Y-88804747D01*
X117689107Y-88790133D01*
X117710151Y-88777520D01*
X117732329Y-88767030D01*
X117755429Y-88758765D01*
X117779227Y-88752804D01*
X117803496Y-88749204D01*
X117828000Y-88748000D01*
X119078000Y-88748000D01*
X119102504Y-88749204D01*
X119102504Y-88749204D01*
G37*
D18*
X118453000Y-89460500D03*
D11*
G36*
X119102504Y-85774204D02*
G01*
X119126773Y-85777804D01*
X119150571Y-85783765D01*
X119173671Y-85792030D01*
X119195849Y-85802520D01*
X119216893Y-85815133D01*
X119236598Y-85829747D01*
X119254777Y-85846223D01*
X119271253Y-85864402D01*
X119285867Y-85884107D01*
X119298480Y-85905151D01*
X119308970Y-85927329D01*
X119317235Y-85950429D01*
X119323196Y-85974227D01*
X119326796Y-85998496D01*
X119328000Y-86023000D01*
X119328000Y-86948000D01*
X119326796Y-86972504D01*
X119323196Y-86996773D01*
X119317235Y-87020571D01*
X119308970Y-87043671D01*
X119298480Y-87065849D01*
X119285867Y-87086893D01*
X119271253Y-87106598D01*
X119254777Y-87124777D01*
X119236598Y-87141253D01*
X119216893Y-87155867D01*
X119195849Y-87168480D01*
X119173671Y-87178970D01*
X119150571Y-87187235D01*
X119126773Y-87193196D01*
X119102504Y-87196796D01*
X119078000Y-87198000D01*
X117828000Y-87198000D01*
X117803496Y-87196796D01*
X117779227Y-87193196D01*
X117755429Y-87187235D01*
X117732329Y-87178970D01*
X117710151Y-87168480D01*
X117689107Y-87155867D01*
X117669402Y-87141253D01*
X117651223Y-87124777D01*
X117634747Y-87106598D01*
X117620133Y-87086893D01*
X117607520Y-87065849D01*
X117597030Y-87043671D01*
X117588765Y-87020571D01*
X117582804Y-86996773D01*
X117579204Y-86972504D01*
X117578000Y-86948000D01*
X117578000Y-86023000D01*
X117579204Y-85998496D01*
X117582804Y-85974227D01*
X117588765Y-85950429D01*
X117597030Y-85927329D01*
X117607520Y-85905151D01*
X117620133Y-85884107D01*
X117634747Y-85864402D01*
X117651223Y-85846223D01*
X117669402Y-85829747D01*
X117689107Y-85815133D01*
X117710151Y-85802520D01*
X117732329Y-85792030D01*
X117755429Y-85783765D01*
X117779227Y-85777804D01*
X117803496Y-85774204D01*
X117828000Y-85773000D01*
X119078000Y-85773000D01*
X119102504Y-85774204D01*
X119102504Y-85774204D01*
G37*
D18*
X118453000Y-86485500D03*
D19*
X72771000Y-74168000D03*
X75311000Y-74168000D03*
X77851000Y-74168000D03*
X91821000Y-74168000D03*
X89281000Y-74168000D03*
X86741000Y-74168000D03*
X100965000Y-74168000D03*
X103505000Y-74168000D03*
X106045000Y-74168000D03*
D20*
X79883000Y-78740000D03*
X93853000Y-78740000D03*
X70739000Y-78740000D03*
X84709000Y-78740000D03*
X108077000Y-78740000D03*
X98933000Y-78740000D03*
X80137000Y-88434000D03*
X94107000Y-88392000D03*
X108331000Y-88392000D03*
X71924000Y-67225000D03*
D21*
X77284999Y-81091001D03*
X76014999Y-81091001D03*
X74744999Y-81091001D03*
X73474999Y-81091001D03*
X73474999Y-86491001D03*
X74744999Y-86491001D03*
X76014999Y-86491001D03*
X77284999Y-86491001D03*
X91234999Y-86477001D03*
X89964999Y-86477001D03*
X88694999Y-86477001D03*
X87424999Y-86477001D03*
X87424999Y-81077001D03*
X88694999Y-81077001D03*
X89964999Y-81077001D03*
X91234999Y-81077001D03*
X105404999Y-86509001D03*
X104134999Y-86509001D03*
X102864999Y-86509001D03*
X101594999Y-86509001D03*
X101594999Y-81109001D03*
X102864999Y-81109001D03*
X104134999Y-81109001D03*
X105404999Y-81109001D03*
D22*
X111983200Y-69362600D03*
D23*
X118283200Y-69362600D03*
X118283200Y-67062600D03*
X118283200Y-71662600D03*
D24*
X84103999Y-95228999D03*
X84103999Y-94278999D03*
X84103999Y-93328999D03*
X81403999Y-93328999D03*
X81403999Y-95228999D03*
D21*
X114875001Y-83984999D03*
X116145001Y-83984999D03*
X117415001Y-83984999D03*
X118685001Y-83984999D03*
X118685001Y-78584999D03*
X117415001Y-78584999D03*
X116145001Y-78584999D03*
X114875001Y-78584999D03*
X76162000Y-105278000D03*
X77432000Y-105278000D03*
X78702000Y-105278000D03*
X79972000Y-105278000D03*
X79972000Y-99878000D03*
X78702000Y-99878000D03*
X77432000Y-99878000D03*
X76162000Y-99878000D03*
X81750000Y-99878000D03*
X83020000Y-99878000D03*
X84290000Y-99878000D03*
X85560000Y-99878000D03*
X85560000Y-105278000D03*
X84290000Y-105278000D03*
X83020000Y-105278000D03*
X81750000Y-105278000D03*
X87338000Y-105278000D03*
X88608000Y-105278000D03*
X89878000Y-105278000D03*
X91148000Y-105278000D03*
X91148000Y-99878000D03*
X89878000Y-99878000D03*
X88608000Y-99878000D03*
X87338000Y-99878000D03*
D25*
X79607500Y-103801000D03*
X89704000Y-106595000D03*
X111983200Y-72676700D03*
X75480000Y-84751000D03*
X89386500Y-84878000D03*
X115866000Y-80306000D03*
X103770500Y-84845000D03*
X106468000Y-91990000D03*
X101388000Y-93006000D03*
X95800000Y-94530000D03*
X76496000Y-94276000D03*
X86656000Y-99864000D03*
X81322000Y-99864000D03*
X75734000Y-99864000D03*
X78257000Y-96975500D03*
X95292000Y-97324000D03*
X104134999Y-88009307D03*
X81403999Y-95228999D03*
X118283200Y-69362600D03*
X118283200Y-71662600D03*
X112691000Y-100245000D03*
X75353000Y-82909500D03*
X89513500Y-82782500D03*
X103991500Y-82782500D03*
X117415001Y-78756999D03*
X84624000Y-92752000D03*
X70556999Y-92752000D03*
X79602002Y-104944000D03*
X85640000Y-101896000D03*
X91578654Y-104278654D03*
X87164000Y-92559000D03*
X85560000Y-105278000D03*
X82333347Y-90969347D03*
X89568000Y-94530000D03*
X89153000Y-101896000D03*
X96054000Y-101134000D03*
X74329653Y-101395347D03*
X112437000Y-102785000D03*
X108309500Y-102721500D03*
X104309000Y-102785000D03*
X100372000Y-102785000D03*
X111849000Y-81614000D03*
X99297312Y-89772312D03*
X82592000Y-107992000D03*
X92752000Y-101007000D03*
X75797500Y-97959000D03*
X87338000Y-105278000D03*
X79988500Y-107484000D03*
X80877500Y-105261500D03*
X88180000Y-95433999D03*
X82939999Y-99878000D03*
X96308000Y-102785000D03*
X117731000Y-75099000D03*
X118283200Y-67062600D03*
X93006000Y-98594000D03*
X87212652Y-97426652D03*
X100118000Y-95292000D03*
X80433000Y-96816000D03*
X88053000Y-93260000D03*
X70400000Y-95800000D03*
X94640000Y-91834000D03*
X79544000Y-97832000D03*
X93469999Y-93504990D03*
X89894500Y-96398000D03*
D26*
X76248500Y-75105500D02*
X75311000Y-74168000D01*
X76248500Y-78486000D02*
X76248500Y-75105500D01*
X79629000Y-78486000D02*
X79883000Y-78740000D01*
X76248500Y-78486000D02*
X79629000Y-78486000D01*
X76248500Y-80857500D02*
X76014999Y-81091001D01*
X76248500Y-78486000D02*
X76248500Y-80857500D01*
X79925000Y-78782000D02*
X79883000Y-78740000D01*
X79925000Y-82296000D02*
X79925000Y-78782000D01*
X74744999Y-78857499D02*
X74373500Y-78486000D01*
X74744999Y-81091001D02*
X74744999Y-78857499D01*
X79139000Y-67855000D02*
X79139000Y-65955000D01*
X74265999Y-72728001D02*
X79139000Y-67855000D01*
X74265999Y-77578499D02*
X74265999Y-72728001D01*
X74373500Y-77686000D02*
X74265999Y-77578499D01*
X74373500Y-78486000D02*
X74373500Y-77686000D01*
X74119500Y-78740000D02*
X74373500Y-78486000D01*
X70739000Y-78740000D02*
X74119500Y-78740000D01*
X84290000Y-99878000D02*
X84290000Y-105278000D01*
X83288000Y-103801000D02*
X79607500Y-103801000D01*
X84290000Y-105278000D02*
X84290000Y-104803000D01*
X84290000Y-104803000D02*
X83288000Y-103801000D01*
X93895000Y-78782000D02*
X93853000Y-78740000D01*
X93895000Y-82296000D02*
X93895000Y-78782000D01*
X89964999Y-79081001D02*
X90560000Y-78486000D01*
X89964999Y-81077001D02*
X89964999Y-79081001D01*
X90560000Y-75447000D02*
X89281000Y-74168000D01*
X90560000Y-78486000D02*
X90560000Y-75447000D01*
X90814000Y-78740000D02*
X90560000Y-78486000D01*
X93853000Y-78740000D02*
X90814000Y-78740000D01*
X80814010Y-63430010D02*
X79139000Y-61755000D01*
X80814010Y-69787612D02*
X80814010Y-63430010D01*
X88510000Y-77483602D02*
X80814010Y-69787612D01*
X88510000Y-78486000D02*
X88510000Y-77483602D01*
X84963000Y-78486000D02*
X84709000Y-78740000D01*
X88510000Y-78486000D02*
X84963000Y-78486000D01*
X88694999Y-78670999D02*
X88510000Y-78486000D01*
X88694999Y-81077001D02*
X88694999Y-78670999D01*
X89878000Y-99878000D02*
X89878000Y-105278000D01*
X89878000Y-105278000D02*
X89878000Y-106421000D01*
X89878000Y-106421000D02*
X89704000Y-106595000D01*
X77284999Y-86016001D02*
X77284999Y-86491001D01*
X76527998Y-85259000D02*
X77284999Y-86016001D01*
X91234999Y-86002001D02*
X91234999Y-86477001D01*
X90491998Y-85259000D02*
X91234999Y-86002001D01*
X105404999Y-86034001D02*
X105404999Y-86509001D01*
X104756998Y-85386000D02*
X105404999Y-86034001D01*
X111983200Y-74351200D02*
X112731000Y-75099000D01*
X118283200Y-69362600D02*
X111983200Y-69362600D01*
X113581000Y-75099000D02*
X112731000Y-75099000D01*
X114806001Y-76324001D02*
X113581000Y-75099000D01*
X116899003Y-76324001D02*
X114806001Y-76324001D01*
X118685001Y-78109999D02*
X116899003Y-76324001D01*
X118685001Y-78584999D02*
X118685001Y-78109999D01*
X116745997Y-76324001D02*
X116899003Y-76324001D01*
X115520000Y-77549998D02*
X116745997Y-76324001D01*
X115520000Y-78490000D02*
X115520000Y-77549998D01*
X115425001Y-78584999D02*
X115520000Y-78490000D01*
X114875001Y-78584999D02*
X115425001Y-78584999D01*
X111983200Y-69362600D02*
X111983200Y-72676700D01*
X111983200Y-72676700D02*
X111983200Y-74351200D01*
X87539000Y-61755000D02*
X87539000Y-65955000D01*
X75226000Y-85005000D02*
X75226000Y-85259000D01*
X75480000Y-84751000D02*
X75226000Y-85005000D01*
X70908000Y-85259000D02*
X75226000Y-85259000D01*
X75226000Y-85259000D02*
X76527998Y-85259000D01*
X89196000Y-85068500D02*
X89196000Y-85259000D01*
X89386500Y-84878000D02*
X89196000Y-85068500D01*
X84751000Y-85259000D02*
X89196000Y-85259000D01*
X89196000Y-85259000D02*
X90491998Y-85259000D01*
X103674000Y-84941500D02*
X103674000Y-85386000D01*
X103737500Y-84878000D02*
X103674000Y-84941500D01*
X98975000Y-85386000D02*
X103674000Y-85386000D01*
X103674000Y-85386000D02*
X104756998Y-85386000D01*
X118453000Y-85673000D02*
X118453000Y-86485500D01*
X118040002Y-85260002D02*
X118453000Y-85673000D01*
X118040002Y-82480002D02*
X118040002Y-85260002D01*
X115866000Y-80306000D02*
X118040002Y-82480002D01*
X114875001Y-79315001D02*
X114875001Y-78584999D01*
X115866000Y-80306000D02*
X114875001Y-79315001D01*
X106468000Y-91990000D02*
X105452000Y-93006000D01*
X105452000Y-93006000D02*
X101388000Y-93006000D01*
X94640000Y-97234000D02*
X94640000Y-95690000D01*
X94640000Y-95690000D02*
X95800000Y-94530000D01*
X99864000Y-94530000D02*
X101388000Y-93006000D01*
X95800000Y-94530000D02*
X99864000Y-94530000D01*
X79421000Y-94276000D02*
X76496000Y-94276000D01*
X81403999Y-95228999D02*
X80373999Y-95228999D01*
X80373999Y-95228999D02*
X79421000Y-94276000D01*
X87324000Y-99864000D02*
X87338000Y-99878000D01*
X86656000Y-99864000D02*
X87324000Y-99864000D01*
X81736000Y-99864000D02*
X81750000Y-99878000D01*
X81322000Y-99864000D02*
X81736000Y-99864000D01*
X76148000Y-99864000D02*
X76162000Y-99878000D01*
X75734000Y-99864000D02*
X76148000Y-99864000D01*
X94730000Y-97324000D02*
X94640000Y-97234000D01*
X95292000Y-97324000D02*
X94730000Y-97324000D01*
X101388000Y-93006000D02*
X101388000Y-90756306D01*
X101388000Y-90756306D02*
X104134999Y-88009307D01*
X91234999Y-81552001D02*
X91234999Y-81077001D01*
X90609998Y-82177002D02*
X91234999Y-81552001D01*
X87424999Y-81552001D02*
X88050000Y-82177002D01*
X87424999Y-81077001D02*
X87424999Y-81552001D01*
X77284999Y-81566001D02*
X77284999Y-81091001D01*
X76659998Y-82191002D02*
X77284999Y-81566001D01*
X73474999Y-81566001D02*
X74100000Y-82191002D01*
X73474999Y-81091001D02*
X73474999Y-81566001D01*
X105404999Y-81584001D02*
X105404999Y-81109001D01*
X104779998Y-82209002D02*
X105404999Y-81584001D01*
X101594999Y-81584001D02*
X102220000Y-82209002D01*
X101594999Y-81109001D02*
X101594999Y-81584001D01*
X116176000Y-87249000D02*
X116176000Y-86449000D01*
X116249001Y-87322001D02*
X116176000Y-87249000D01*
X116249001Y-92590501D02*
X116249001Y-87322001D01*
X118326000Y-94667500D02*
X116249001Y-92590501D01*
X118685001Y-84459999D02*
X118685001Y-83984999D01*
X118685001Y-80329999D02*
X118685001Y-83984999D01*
X117415001Y-79059999D02*
X118685001Y-80329999D01*
X117415001Y-78584999D02*
X117415001Y-78756999D01*
X98852100Y-100299500D02*
X98940800Y-100388200D01*
X94974500Y-100299500D02*
X98852100Y-100299500D01*
X102970400Y-100388200D02*
X102979400Y-100397200D01*
X98940800Y-100388200D02*
X102970400Y-100388200D01*
X106831200Y-100397200D02*
X106992600Y-100235800D01*
X102979400Y-100397200D02*
X106831200Y-100397200D01*
X110955000Y-100235800D02*
X110980400Y-100210400D01*
X106992600Y-100235800D02*
X110955000Y-100235800D01*
X110980400Y-100210400D02*
X112656400Y-100210400D01*
X112656400Y-100210400D02*
X112691000Y-100245000D01*
X117681653Y-95438847D02*
X118453000Y-94667500D01*
X117681653Y-95820032D02*
X117681653Y-95438847D01*
X113256685Y-100245000D02*
X117681653Y-95820032D01*
X112691000Y-100245000D02*
X113256685Y-100245000D01*
X75333002Y-82889502D02*
X75353000Y-82909500D01*
X75333002Y-82191002D02*
X75333002Y-82889502D01*
X75333002Y-82191002D02*
X76659998Y-82191002D01*
X74100000Y-82191002D02*
X75333002Y-82191002D01*
X89473687Y-82177002D02*
X89420498Y-82177002D01*
X89513500Y-82216815D02*
X89473687Y-82177002D01*
X89513500Y-82782500D02*
X89513500Y-82216815D01*
X88050000Y-82177002D02*
X89420498Y-82177002D01*
X89420498Y-82177002D02*
X90609998Y-82177002D01*
X103612498Y-82403498D02*
X103991500Y-82782500D01*
X103612498Y-82209002D02*
X103612498Y-82403498D01*
X103612498Y-82209002D02*
X104779998Y-82209002D01*
X102220000Y-82209002D02*
X103612498Y-82209002D01*
X117415001Y-78756999D02*
X117415001Y-79059999D01*
X84624000Y-92808998D02*
X84103999Y-93328999D01*
X84624000Y-92752000D02*
X84624000Y-92808998D01*
X70637000Y-92671999D02*
X70556999Y-92752000D01*
X70637000Y-91575500D02*
X70637000Y-92671999D01*
X79638000Y-104944000D02*
X79972000Y-105278000D01*
X79602002Y-104944000D02*
X79638000Y-104944000D01*
X85560000Y-101976000D02*
X85640000Y-101896000D01*
X91148000Y-105278000D02*
X91148000Y-104709308D01*
X91148000Y-104709308D02*
X91578654Y-104278654D01*
X87164000Y-91978000D02*
X87020000Y-91834000D01*
X87164000Y-92559000D02*
X87164000Y-91978000D01*
X84624000Y-92752000D02*
X82846000Y-90974000D01*
X85560000Y-105278000D02*
X85560000Y-101976000D01*
X82846000Y-90974000D02*
X82338000Y-90974000D01*
X82338000Y-90974000D02*
X82333347Y-90969347D01*
X88249998Y-94530000D02*
X89568000Y-94530000D01*
X87164000Y-93444002D02*
X88249998Y-94530000D01*
X87164000Y-92559000D02*
X87164000Y-93444002D01*
X85640000Y-101896000D02*
X89153000Y-101896000D01*
X95809000Y-101134000D02*
X94974500Y-100299500D01*
X96054000Y-101134000D02*
X95809000Y-101134000D01*
X102864999Y-78870999D02*
X102480000Y-78486000D01*
X102864999Y-81109001D02*
X102864999Y-78870999D01*
X102226000Y-78740000D02*
X102480000Y-78486000D01*
X98933000Y-78740000D02*
X102226000Y-78740000D01*
X98815000Y-62087000D02*
X98815000Y-61787000D01*
X102010001Y-65282001D02*
X98815000Y-62087000D01*
X102010001Y-77216001D02*
X102010001Y-65282001D01*
X102480000Y-77686000D02*
X102010001Y-77216001D01*
X102480000Y-78486000D02*
X102480000Y-77686000D01*
X78702000Y-99878000D02*
X78702000Y-105278000D01*
X75294347Y-101395347D02*
X74329653Y-101395347D01*
X78702000Y-105278000D02*
X78702000Y-104803000D01*
X78702000Y-104803000D02*
X75294347Y-101395347D01*
X104134999Y-78881001D02*
X104530000Y-78486000D01*
X104134999Y-81109001D02*
X104134999Y-78881001D01*
X107823000Y-78486000D02*
X108077000Y-78740000D01*
X104530000Y-78486000D02*
X107823000Y-78486000D01*
X108077000Y-82296000D02*
X108077000Y-78740000D01*
X104530000Y-75193000D02*
X103505000Y-74168000D01*
X104530000Y-78486000D02*
X104530000Y-75193000D01*
X115024000Y-87347000D02*
X114126000Y-86449000D01*
X115024000Y-90172000D02*
X115024000Y-87347000D01*
X114089500Y-86485500D02*
X114126000Y-86449000D01*
X111849000Y-86485500D02*
X114089500Y-86485500D01*
X117415001Y-84459999D02*
X117415001Y-83984999D01*
X117415001Y-83509999D02*
X117415001Y-83984999D01*
X116790000Y-82884998D02*
X117415001Y-83509999D01*
X115585000Y-82884998D02*
X116790000Y-82884998D01*
X115500002Y-82969996D02*
X115585000Y-82884998D01*
X115500002Y-85074998D02*
X115500002Y-82969996D01*
X115019500Y-85555500D02*
X115500002Y-85074998D01*
X114126000Y-86449000D02*
X115019500Y-85555500D01*
X115019500Y-85555500D02*
X115151010Y-85423990D01*
X111505000Y-102785000D02*
X110980400Y-102260400D01*
X112437000Y-102785000D02*
X111505000Y-102785000D01*
X107428300Y-102721500D02*
X106992600Y-102285800D01*
X108309500Y-102721500D02*
X107428300Y-102721500D01*
X103317200Y-102785000D02*
X102979400Y-102447200D01*
X104309000Y-102785000D02*
X103317200Y-102785000D01*
X99287600Y-102785000D02*
X98940800Y-102438200D01*
X100372000Y-102785000D02*
X99287600Y-102785000D01*
X114519500Y-94667500D02*
X115024000Y-95172000D01*
X111849000Y-94667500D02*
X114519500Y-94667500D01*
X114875001Y-80478003D02*
X109897000Y-75500002D01*
X114875001Y-83984999D02*
X114875001Y-80478003D01*
X103326831Y-63630010D02*
X98920821Y-59224000D01*
X107472178Y-63630010D02*
X103326831Y-63630010D01*
X109897000Y-75500002D02*
X109897000Y-66054832D01*
X109897000Y-66054832D02*
X107472178Y-63630010D01*
X97178000Y-59224000D02*
X94615000Y-61787000D01*
X98920821Y-59224000D02*
X97178000Y-59224000D01*
X112169999Y-83984999D02*
X111849000Y-83664000D01*
X114875001Y-83984999D02*
X112169999Y-83984999D01*
X99297312Y-87609002D02*
X103509998Y-87609002D01*
X97774990Y-86086680D02*
X99297312Y-87609002D01*
X97774990Y-82636010D02*
X97774990Y-86086680D01*
X103509998Y-87609002D02*
X104134999Y-86984001D01*
X98000000Y-82411000D02*
X97774990Y-82636010D01*
X98975000Y-82411000D02*
X98000000Y-82411000D01*
X105542998Y-88392000D02*
X108331000Y-88392000D01*
X104134999Y-86984001D02*
X105542998Y-88392000D01*
X104134999Y-86509001D02*
X104134999Y-86984001D01*
X108331000Y-85525000D02*
X108077000Y-85271000D01*
X108331000Y-88392000D02*
X108331000Y-85525000D01*
X97774990Y-87425012D02*
X97774990Y-86086680D01*
X94983001Y-90217001D02*
X97774990Y-87425012D01*
X87001997Y-90217001D02*
X94983001Y-90217001D01*
X86394999Y-90823999D02*
X87001997Y-90217001D01*
X86394999Y-93967999D02*
X86394999Y-90823999D01*
X85133999Y-95228999D02*
X86394999Y-93967999D01*
X84103999Y-95228999D02*
X85133999Y-95228999D01*
X99297312Y-87609002D02*
X99297312Y-89772312D01*
X118326000Y-91692500D02*
X118326000Y-89460500D01*
X117249382Y-88256882D02*
X118453000Y-89460500D01*
X117249382Y-85536228D02*
X117249382Y-88256882D01*
X116723153Y-85009999D02*
X117249382Y-85536228D01*
X116695001Y-85009999D02*
X116723153Y-85009999D01*
X116145001Y-84459999D02*
X116695001Y-85009999D01*
X116145001Y-83984999D02*
X116145001Y-84459999D01*
X83020000Y-107564000D02*
X83020000Y-105278000D01*
X82592000Y-107992000D02*
X83020000Y-107564000D01*
X77432000Y-105753000D02*
X77432000Y-105278000D01*
X78057001Y-106378001D02*
X77432000Y-105753000D01*
X80978001Y-106378001D02*
X78057001Y-106378001D01*
X82592000Y-107992000D02*
X80978001Y-106378001D01*
X88608000Y-105753000D02*
X88608000Y-105278000D01*
X87982999Y-106378001D02*
X88608000Y-105753000D01*
X82592000Y-107992000D02*
X84205999Y-106378001D01*
X84205999Y-106378001D02*
X87982999Y-106378001D01*
X92277000Y-101007000D02*
X91148000Y-99878000D01*
X92752000Y-101007000D02*
X92277000Y-101007000D01*
X86185001Y-100978001D02*
X85560000Y-100353000D01*
X91148000Y-99878000D02*
X91148000Y-100353000D01*
X79972000Y-100353000D02*
X79972000Y-99878000D01*
X80597001Y-100978001D02*
X79972000Y-100353000D01*
X85560000Y-99878000D02*
X85560000Y-100353000D01*
X85560000Y-99403000D02*
X85560000Y-99878000D01*
X84934999Y-98777999D02*
X85560000Y-99403000D01*
X83729999Y-98777999D02*
X84934999Y-98777999D01*
X83664999Y-98842999D02*
X83729999Y-98777999D01*
X83664999Y-100893003D02*
X83664999Y-98842999D01*
X83580001Y-100978001D02*
X83664999Y-100893003D01*
X80597001Y-100978001D02*
X83580001Y-100978001D01*
X91148000Y-99403000D02*
X91148000Y-99878000D01*
X90522999Y-98777999D02*
X91148000Y-99403000D01*
X89317999Y-98777999D02*
X90522999Y-98777999D01*
X89252999Y-98842999D02*
X89317999Y-98777999D01*
X89252999Y-100893003D02*
X89252999Y-98842999D01*
X89168001Y-100978001D02*
X89252999Y-100893003D01*
X86185001Y-100978001D02*
X89168001Y-100978001D01*
X73474999Y-86491001D02*
X74744999Y-86491001D01*
X88694999Y-86477001D02*
X87424999Y-86477001D01*
X101594999Y-86509001D02*
X102864999Y-86509001D01*
X75717000Y-96975500D02*
X75717000Y-97878500D01*
X75717000Y-97878500D02*
X75797500Y-97959000D01*
X95365001Y-90923999D02*
X95365001Y-92869499D01*
X95200001Y-90758999D02*
X95365001Y-90923999D01*
X91455001Y-90758999D02*
X95200001Y-90758999D01*
X90830000Y-91834000D02*
X90830000Y-91384000D01*
X90830000Y-91384000D02*
X91455001Y-90758999D01*
X95365001Y-92869499D02*
X93550999Y-94683501D01*
X81221501Y-108717001D02*
X79988500Y-107484000D01*
X88655001Y-108717001D02*
X81221501Y-108717001D01*
X90503001Y-106869001D02*
X88655001Y-108717001D01*
X93995001Y-95127503D02*
X93995001Y-98244001D01*
X93550999Y-94683501D02*
X93995001Y-95127503D01*
X93995001Y-98244001D02*
X93930001Y-98309001D01*
X93930001Y-98309001D02*
X93930001Y-100902001D01*
X93930001Y-100902001D02*
X90503001Y-104329001D01*
X90503001Y-104329001D02*
X90503001Y-106869001D01*
X81733500Y-105261500D02*
X81750000Y-105278000D01*
X80877500Y-105261500D02*
X81733500Y-105261500D01*
X89560000Y-92100000D02*
X89560000Y-91834000D01*
X90720000Y-93260000D02*
X89560000Y-92100000D01*
X90720000Y-94784000D02*
X90720000Y-93260000D01*
X88180000Y-95433999D02*
X90070001Y-95433999D01*
X90070001Y-95433999D02*
X90720000Y-94784000D01*
X95410000Y-102785000D02*
X94974500Y-102349500D01*
X96308000Y-102785000D02*
X95410000Y-102785000D01*
X88290000Y-97684000D02*
X88933989Y-98327989D01*
X88290000Y-97234000D02*
X88290000Y-97684000D01*
X92744999Y-98308977D02*
X92764011Y-98327989D01*
X92744999Y-93478999D02*
X92744999Y-98308977D01*
X92100000Y-92834000D02*
X92744999Y-93478999D01*
X92100000Y-91834000D02*
X92100000Y-92834000D01*
X92764011Y-98327989D02*
X93002989Y-98327989D01*
X88933989Y-98327989D02*
X92549489Y-98327989D01*
X92549489Y-98327989D02*
X92764011Y-98327989D01*
X92815500Y-98594000D02*
X92549489Y-98327989D01*
X93006000Y-98594000D02*
X92815500Y-98594000D01*
X111849000Y-91692500D02*
X111849000Y-89460500D01*
X87020000Y-97234000D02*
X87212652Y-97426652D01*
X111097500Y-90212000D02*
X111849000Y-89460500D01*
X110278000Y-90212000D02*
X111097500Y-90212000D01*
X105198000Y-95292000D02*
X110278000Y-90212000D01*
X100118000Y-95292000D02*
X105198000Y-95292000D01*
X74252011Y-95450489D02*
X79067489Y-95450489D01*
X73177000Y-96975500D02*
X73177000Y-96525500D01*
X73177000Y-96525500D02*
X74252011Y-95450489D01*
X79067489Y-95450489D02*
X80433000Y-96816000D01*
X88053000Y-92071000D02*
X88290000Y-91834000D01*
X88053000Y-93260000D02*
X88053000Y-92071000D01*
X71907000Y-91575500D02*
X71907000Y-96975500D01*
X70637000Y-96975500D02*
X70637000Y-95817000D01*
X70637000Y-95817000D02*
X70654000Y-95800000D01*
X88608000Y-99403000D02*
X88608000Y-99878000D01*
X87532989Y-98327989D02*
X88608000Y-99403000D01*
X83543599Y-98327989D02*
X87532989Y-98327989D01*
X83314587Y-98557001D02*
X83543599Y-98327989D01*
X78118501Y-98557001D02*
X83314587Y-98557001D01*
X76987000Y-97425500D02*
X78118501Y-98557001D01*
X76987000Y-96975500D02*
X76987000Y-97425500D01*
X78817001Y-95900499D02*
X79544000Y-96627498D01*
X75072001Y-95900499D02*
X78817001Y-95900499D01*
X74447000Y-96975500D02*
X74447000Y-96525500D01*
X74447000Y-96525500D02*
X75072001Y-95900499D01*
X79544000Y-96627498D02*
X79544000Y-97832000D01*
X93469999Y-91933999D02*
X93370000Y-91834000D01*
X93469999Y-93504990D02*
X93469999Y-91933999D01*
X82998998Y-94203998D02*
X83073999Y-94278999D01*
X82998998Y-93158998D02*
X82998998Y-94203998D01*
X82490501Y-92650501D02*
X82998998Y-93158998D01*
X75792001Y-92650501D02*
X82490501Y-92650501D01*
X75717000Y-92575500D02*
X75792001Y-92650501D01*
X83073999Y-94278999D02*
X84103999Y-94278999D01*
X75717000Y-91575500D02*
X75717000Y-92575500D01*
X89560000Y-96784000D02*
X89560000Y-97234000D01*
X88934999Y-96158999D02*
X89560000Y-96784000D01*
X83343997Y-96158999D02*
X88934999Y-96158999D01*
X82998998Y-95814000D02*
X83343997Y-96158999D01*
X82998998Y-94840408D02*
X82998998Y-95814000D01*
X81487589Y-93328999D02*
X82998998Y-94840408D01*
X81403999Y-93328999D02*
X81487589Y-93328999D01*
X89894500Y-96899500D02*
X89560000Y-97234000D01*
X89894500Y-96398000D02*
X89894500Y-96899500D01*
X73177000Y-92575500D02*
X73177000Y-91575500D01*
X77432000Y-99403000D02*
X76806999Y-98777999D01*
X77432000Y-99878000D02*
X77432000Y-99403000D01*
X76806999Y-98777999D02*
X73344497Y-98777999D01*
X73344497Y-98777999D02*
X72551999Y-97985501D01*
X72551999Y-97985501D02*
X72551999Y-93200501D01*
X72551999Y-93200501D02*
X73177000Y-92575500D01*
X74447000Y-91575500D02*
X74447000Y-91125500D01*
X71281999Y-90565499D02*
X71281999Y-95157999D01*
X71346999Y-90500499D02*
X71281999Y-90565499D01*
X74447000Y-91125500D02*
X73821999Y-90500499D01*
X73821999Y-90500499D02*
X71346999Y-90500499D01*
X76162000Y-104253000D02*
X76162000Y-105278000D01*
X71262001Y-99353001D02*
X76162000Y-104253000D01*
X71262001Y-95177997D02*
X71262001Y-99353001D01*
X71281999Y-95157999D02*
X71262001Y-95177997D01*
X69707990Y-83484010D02*
X70908000Y-82284000D01*
X71339312Y-87591002D02*
X69707990Y-85959680D01*
X69707990Y-85959680D02*
X69707990Y-83484010D01*
X75389998Y-87591002D02*
X71339312Y-87591002D01*
X76014999Y-86966001D02*
X75389998Y-87591002D01*
X76014999Y-86491001D02*
X76014999Y-86966001D01*
X76636998Y-88138000D02*
X80137000Y-88138000D01*
X76014999Y-87516001D02*
X76636998Y-88138000D01*
X80137000Y-85483000D02*
X79925000Y-85271000D01*
X80137000Y-88138000D02*
X80137000Y-85483000D01*
X76987000Y-88488002D02*
X76987000Y-91575500D01*
X76014999Y-87516001D02*
X76987000Y-88488002D01*
X76014999Y-86491001D02*
X76014999Y-87516001D01*
X89339998Y-87577002D02*
X89964999Y-86952001D01*
X85168312Y-87577002D02*
X89339998Y-87577002D01*
X83550990Y-85959680D02*
X85168312Y-87577002D01*
X83550990Y-82509010D02*
X83550990Y-85959680D01*
X83776000Y-82284000D02*
X83550990Y-82509010D01*
X84751000Y-82284000D02*
X83776000Y-82284000D01*
X93895000Y-88180000D02*
X94107000Y-88392000D01*
X93895000Y-85271000D02*
X93895000Y-88180000D01*
X91404998Y-88392000D02*
X94107000Y-88392000D01*
X89964999Y-86952001D02*
X91404998Y-88392000D01*
X89964999Y-86477001D02*
X89964999Y-86952001D01*
X84652690Y-87577002D02*
X85168312Y-87577002D01*
X80654192Y-91575500D02*
X84652690Y-87577002D01*
X78257000Y-91575500D02*
X80654192Y-91575500D01*
M02*
