M48
INCH,TZ
T1C0.0157
T2C0.0433
T3C0.0551
%
G90
G05
T1
X46250Y-46250
X46424Y-34674
X46500Y-33000
X46500Y-45500
X46750Y-32000
X47250Y-43000
X47250Y-44000
X47590Y-44393
X47750Y-45500
X47785Y-35000
X48000Y-26250
X48500Y-31750
X48500Y-39250
X48750Y-35000
X48750Y-43000
X48800Y-24441
X49000Y-26250
X49000Y-41250
X49000Y-44750
X49216Y-37497
X49500Y-24500
X49500Y-39750
X49500Y-42500
X49500Y-44750
X49750Y-28250
X49750Y-31000
X50000Y-26500
X50250Y-28750
X50500Y-30000
X50750Y-25250
X51000Y-32500
X51250Y-37750
X51500Y-31250
X51864Y-25614
X52250Y-32500
X52500Y-26250
X52500Y-27250
X52750Y-46500
X52750Y-48500
X53000Y-24000
X53000Y-26000
X53000Y-29750
X53000Y-33000
X53250Y-47500
X53250Y-48750
X53500Y-24500
X54250Y-31250
X54250Y-31750
X54465Y-24500
X54465Y-30750
X55000Y-43750
X55250Y-29750
X55750Y-45500
X56250Y-31465
X56250Y-32250
X56500Y-40500
X57000Y-30750
X57500Y-27000
X57500Y-36465
X57500Y-37035
X57500Y-40000
X57750Y-29500
X57750Y-31750
X58000Y-46500
X58250Y-44250
X58500Y-32250
X58750Y-31500
X58750Y-40500
X58750Y-45750
X59250Y-42000
X59500Y-34285
X59500Y-39750
X59750Y-35750
X60250Y-43250
X60500Y-32250
X60500Y-33000
X60750Y-41750
X61000Y-45250
X61035Y-40050
X61050Y-40785
X61750Y-41750
X61965Y-46500
X62250Y-39650
X62250Y-49250
X62750Y-25250
X62750Y-34000
X62750Y-34500
X63000Y-48250
X63327Y-30173
X63500Y-40500
X63535Y-27035
X64250Y-31500
X64250Y-35000
X64250Y-39250
X64250Y-47750
X64284Y-24216
X64465Y-38750
X64500Y-41500
X64750Y-37150
X64999Y-31285
X65000Y-24000
X65500Y-41750
X66250Y-32000
X66250Y-32750
X66250Y-36465
X66250Y-47750
X66500Y-35000
X66750Y-36465
X66750Y-37035
X67000Y-29000
X67250Y-43750
X67250Y-47000
X67250Y-48750
X67750Y-31250
X68250Y-44500
X68250Y-45500
X68404Y-38346
X68500Y-49250
X68750Y-46750
X68750Y-48000
X69250Y-32000
X69250Y-32750
X69250Y-36465
X69250Y-37250
X69500Y-44500
X69750Y-36465
X70250Y-39750
X70250Y-42500
X70750Y-31250
X71750Y-45250
X71750Y-46250
X72000Y-43750
X72250Y-32000
X72250Y-32750
X72500Y-36750
X73000Y-39750
X73250Y-36465
X73715Y-47250
X73750Y-31250
X74000Y-45500
X74000Y-46500
X74285Y-45778
X74285Y-47000
X74750Y-47250
X74923Y-36423
X75250Y-32000
X75250Y-32750
X75250Y-37000
T2
X50000Y-33691
X50000Y-36250
X51772Y-33691
X51772Y-36250
T3
X73000Y-38750
X75165Y-38750
X73000Y-44750
X73000Y-46404
X73000Y-48057
X73000Y-49711
X75165Y-44750
X75165Y-46404
X75165Y-48057
X75165Y-49711
T0
M30
