G04 #@! TF.GenerationSoftware,KiCad,Pcbnew,(5.1.6)-1*
G04 #@! TF.CreationDate,2020-10-21T13:59:54+11:00*
G04 #@! TF.ProjectId,DashDriver-V1,44617368-4472-4697-9665-722d56312e6b,rev?*
G04 #@! TF.SameCoordinates,Original*
G04 #@! TF.FileFunction,Paste,Top*
G04 #@! TF.FilePolarity,Positive*
%FSLAX46Y46*%
G04 Gerber Fmt 4.6, Leading zero omitted, Abs format (unit mm)*
G04 Created by KiCad (PCBNEW (5.1.6)-1) date 2020-10-21 13:59:54*
%MOMM*%
%LPD*%
G01*
G04 APERTURE LIST*
%ADD10R,0.600000X1.300000*%
%ADD11R,1.300000X0.600000*%
%ADD12R,2.200000X1.500000*%
%ADD13R,2.200000X3.800000*%
G04 APERTURE END LIST*
G36*
G01*
X120616000Y-59004000D02*
X119366000Y-59004000D01*
G75*
G02*
X119116000Y-58754000I0J250000D01*
G01*
X119116000Y-57829000D01*
G75*
G02*
X119366000Y-57579000I250000J0D01*
G01*
X120616000Y-57579000D01*
G75*
G02*
X120866000Y-57829000I0J-250000D01*
G01*
X120866000Y-58754000D01*
G75*
G02*
X120616000Y-59004000I-250000J0D01*
G01*
G37*
G36*
G01*
X120616000Y-61979000D02*
X119366000Y-61979000D01*
G75*
G02*
X119116000Y-61729000I0J250000D01*
G01*
X119116000Y-60804000D01*
G75*
G02*
X119366000Y-60554000I250000J0D01*
G01*
X120616000Y-60554000D01*
G75*
G02*
X120866000Y-60804000I0J-250000D01*
G01*
X120866000Y-61729000D01*
G75*
G02*
X120616000Y-61979000I-250000J0D01*
G01*
G37*
G36*
G01*
X115663000Y-59004000D02*
X114413000Y-59004000D01*
G75*
G02*
X114163000Y-58754000I0J250000D01*
G01*
X114163000Y-57829000D01*
G75*
G02*
X114413000Y-57579000I250000J0D01*
G01*
X115663000Y-57579000D01*
G75*
G02*
X115913000Y-57829000I0J-250000D01*
G01*
X115913000Y-58754000D01*
G75*
G02*
X115663000Y-59004000I-250000J0D01*
G01*
G37*
G36*
G01*
X115663000Y-61979000D02*
X114413000Y-61979000D01*
G75*
G02*
X114163000Y-61729000I0J250000D01*
G01*
X114163000Y-60804000D01*
G75*
G02*
X114413000Y-60554000I250000J0D01*
G01*
X115663000Y-60554000D01*
G75*
G02*
X115913000Y-60804000I0J-250000D01*
G01*
X115913000Y-61729000D01*
G75*
G02*
X115663000Y-61979000I-250000J0D01*
G01*
G37*
G36*
G01*
X110710000Y-59004000D02*
X109460000Y-59004000D01*
G75*
G02*
X109210000Y-58754000I0J250000D01*
G01*
X109210000Y-57829000D01*
G75*
G02*
X109460000Y-57579000I250000J0D01*
G01*
X110710000Y-57579000D01*
G75*
G02*
X110960000Y-57829000I0J-250000D01*
G01*
X110960000Y-58754000D01*
G75*
G02*
X110710000Y-59004000I-250000J0D01*
G01*
G37*
G36*
G01*
X110710000Y-61979000D02*
X109460000Y-61979000D01*
G75*
G02*
X109210000Y-61729000I0J250000D01*
G01*
X109210000Y-60804000D01*
G75*
G02*
X109460000Y-60554000I250000J0D01*
G01*
X110710000Y-60554000D01*
G75*
G02*
X110960000Y-60804000I0J-250000D01*
G01*
X110960000Y-61729000D01*
G75*
G02*
X110710000Y-61979000I-250000J0D01*
G01*
G37*
G36*
G01*
X105757000Y-59004000D02*
X104507000Y-59004000D01*
G75*
G02*
X104257000Y-58754000I0J250000D01*
G01*
X104257000Y-57829000D01*
G75*
G02*
X104507000Y-57579000I250000J0D01*
G01*
X105757000Y-57579000D01*
G75*
G02*
X106007000Y-57829000I0J-250000D01*
G01*
X106007000Y-58754000D01*
G75*
G02*
X105757000Y-59004000I-250000J0D01*
G01*
G37*
G36*
G01*
X105757000Y-61979000D02*
X104507000Y-61979000D01*
G75*
G02*
X104257000Y-61729000I0J250000D01*
G01*
X104257000Y-60804000D01*
G75*
G02*
X104507000Y-60554000I250000J0D01*
G01*
X105757000Y-60554000D01*
G75*
G02*
X106007000Y-60804000I0J-250000D01*
G01*
X106007000Y-61729000D01*
G75*
G02*
X105757000Y-61979000I-250000J0D01*
G01*
G37*
G36*
G01*
X100804000Y-59004000D02*
X99554000Y-59004000D01*
G75*
G02*
X99304000Y-58754000I0J250000D01*
G01*
X99304000Y-57829000D01*
G75*
G02*
X99554000Y-57579000I250000J0D01*
G01*
X100804000Y-57579000D01*
G75*
G02*
X101054000Y-57829000I0J-250000D01*
G01*
X101054000Y-58754000D01*
G75*
G02*
X100804000Y-59004000I-250000J0D01*
G01*
G37*
G36*
G01*
X100804000Y-61979000D02*
X99554000Y-61979000D01*
G75*
G02*
X99304000Y-61729000I0J250000D01*
G01*
X99304000Y-60804000D01*
G75*
G02*
X99554000Y-60554000I250000J0D01*
G01*
X100804000Y-60554000D01*
G75*
G02*
X101054000Y-60804000I0J-250000D01*
G01*
X101054000Y-61729000D01*
G75*
G02*
X100804000Y-61979000I-250000J0D01*
G01*
G37*
G36*
G01*
X140679000Y-75918000D02*
X140679000Y-77168000D01*
G75*
G02*
X140429000Y-77418000I-250000J0D01*
G01*
X139504000Y-77418000D01*
G75*
G02*
X139254000Y-77168000I0J250000D01*
G01*
X139254000Y-75918000D01*
G75*
G02*
X139504000Y-75668000I250000J0D01*
G01*
X140429000Y-75668000D01*
G75*
G02*
X140679000Y-75918000I0J-250000D01*
G01*
G37*
G36*
G01*
X143654000Y-75918000D02*
X143654000Y-77168000D01*
G75*
G02*
X143404000Y-77418000I-250000J0D01*
G01*
X142479000Y-77418000D01*
G75*
G02*
X142229000Y-77168000I0J250000D01*
G01*
X142229000Y-75918000D01*
G75*
G02*
X142479000Y-75668000I250000J0D01*
G01*
X143404000Y-75668000D01*
G75*
G02*
X143654000Y-75918000I0J-250000D01*
G01*
G37*
G36*
G01*
X140933000Y-60551000D02*
X140933000Y-61801000D01*
G75*
G02*
X140683000Y-62051000I-250000J0D01*
G01*
X139758000Y-62051000D01*
G75*
G02*
X139508000Y-61801000I0J250000D01*
G01*
X139508000Y-60551000D01*
G75*
G02*
X139758000Y-60301000I250000J0D01*
G01*
X140683000Y-60301000D01*
G75*
G02*
X140933000Y-60551000I0J-250000D01*
G01*
G37*
G36*
G01*
X143908000Y-60551000D02*
X143908000Y-61801000D01*
G75*
G02*
X143658000Y-62051000I-250000J0D01*
G01*
X142733000Y-62051000D01*
G75*
G02*
X142483000Y-61801000I0J250000D01*
G01*
X142483000Y-60551000D01*
G75*
G02*
X142733000Y-60301000I250000J0D01*
G01*
X143658000Y-60301000D01*
G75*
G02*
X143908000Y-60551000I0J-250000D01*
G01*
G37*
G36*
G01*
X142211000Y-74838000D02*
X142211000Y-73588000D01*
G75*
G02*
X142461000Y-73338000I250000J0D01*
G01*
X143386000Y-73338000D01*
G75*
G02*
X143636000Y-73588000I0J-250000D01*
G01*
X143636000Y-74838000D01*
G75*
G02*
X143386000Y-75088000I-250000J0D01*
G01*
X142461000Y-75088000D01*
G75*
G02*
X142211000Y-74838000I0J250000D01*
G01*
G37*
G36*
G01*
X139236000Y-74838000D02*
X139236000Y-73588000D01*
G75*
G02*
X139486000Y-73338000I250000J0D01*
G01*
X140411000Y-73338000D01*
G75*
G02*
X140661000Y-73588000I0J-250000D01*
G01*
X140661000Y-74838000D01*
G75*
G02*
X140411000Y-75088000I-250000J0D01*
G01*
X139486000Y-75088000D01*
G75*
G02*
X139236000Y-74838000I0J250000D01*
G01*
G37*
G36*
G01*
X142490000Y-59446000D02*
X142490000Y-58196000D01*
G75*
G02*
X142740000Y-57946000I250000J0D01*
G01*
X143665000Y-57946000D01*
G75*
G02*
X143915000Y-58196000I0J-250000D01*
G01*
X143915000Y-59446000D01*
G75*
G02*
X143665000Y-59696000I-250000J0D01*
G01*
X142740000Y-59696000D01*
G75*
G02*
X142490000Y-59446000I0J250000D01*
G01*
G37*
G36*
G01*
X139515000Y-59446000D02*
X139515000Y-58196000D01*
G75*
G02*
X139765000Y-57946000I250000J0D01*
G01*
X140690000Y-57946000D01*
G75*
G02*
X140940000Y-58196000I0J-250000D01*
G01*
X140940000Y-59446000D01*
G75*
G02*
X140690000Y-59696000I-250000J0D01*
G01*
X139765000Y-59696000D01*
G75*
G02*
X139515000Y-59446000I0J250000D01*
G01*
G37*
G36*
G01*
X124807000Y-47737500D02*
X123557000Y-47737500D01*
G75*
G02*
X123307000Y-47487500I0J250000D01*
G01*
X123307000Y-46562500D01*
G75*
G02*
X123557000Y-46312500I250000J0D01*
G01*
X124807000Y-46312500D01*
G75*
G02*
X125057000Y-46562500I0J-250000D01*
G01*
X125057000Y-47487500D01*
G75*
G02*
X124807000Y-47737500I-250000J0D01*
G01*
G37*
G36*
G01*
X124807000Y-50712500D02*
X123557000Y-50712500D01*
G75*
G02*
X123307000Y-50462500I0J250000D01*
G01*
X123307000Y-49537500D01*
G75*
G02*
X123557000Y-49287500I250000J0D01*
G01*
X124807000Y-49287500D01*
G75*
G02*
X125057000Y-49537500I0J-250000D01*
G01*
X125057000Y-50462500D01*
G75*
G02*
X124807000Y-50712500I-250000J0D01*
G01*
G37*
D10*
X121957000Y-46918000D03*
X120057000Y-46918000D03*
X121007000Y-49018000D03*
G36*
G01*
X141004000Y-78632999D02*
X141004000Y-79533001D01*
G75*
G02*
X140754001Y-79783000I-249999J0D01*
G01*
X140103999Y-79783000D01*
G75*
G02*
X139854000Y-79533001I0J249999D01*
G01*
X139854000Y-78632999D01*
G75*
G02*
X140103999Y-78383000I249999J0D01*
G01*
X140754001Y-78383000D01*
G75*
G02*
X141004000Y-78632999I0J-249999D01*
G01*
G37*
G36*
G01*
X143054000Y-78632999D02*
X143054000Y-79533001D01*
G75*
G02*
X142804001Y-79783000I-249999J0D01*
G01*
X142153999Y-79783000D01*
G75*
G02*
X141904000Y-79533001I0J249999D01*
G01*
X141904000Y-78632999D01*
G75*
G02*
X142153999Y-78383000I249999J0D01*
G01*
X142804001Y-78383000D01*
G75*
G02*
X143054000Y-78632999I0J-249999D01*
G01*
G37*
G36*
G01*
X141258000Y-62884999D02*
X141258000Y-63785001D01*
G75*
G02*
X141008001Y-64035000I-249999J0D01*
G01*
X140357999Y-64035000D01*
G75*
G02*
X140108000Y-63785001I0J249999D01*
G01*
X140108000Y-62884999D01*
G75*
G02*
X140357999Y-62635000I249999J0D01*
G01*
X141008001Y-62635000D01*
G75*
G02*
X141258000Y-62884999I0J-249999D01*
G01*
G37*
G36*
G01*
X143308000Y-62884999D02*
X143308000Y-63785001D01*
G75*
G02*
X143058001Y-64035000I-249999J0D01*
G01*
X142407999Y-64035000D01*
G75*
G02*
X142158000Y-63785001I0J249999D01*
G01*
X142158000Y-62884999D01*
G75*
G02*
X142407999Y-62635000I249999J0D01*
G01*
X143058001Y-62635000D01*
G75*
G02*
X143308000Y-62884999I0J-249999D01*
G01*
G37*
G36*
G01*
X135439999Y-46914000D02*
X136340001Y-46914000D01*
G75*
G02*
X136590000Y-47163999I0J-249999D01*
G01*
X136590000Y-47814001D01*
G75*
G02*
X136340001Y-48064000I-249999J0D01*
G01*
X135439999Y-48064000D01*
G75*
G02*
X135190000Y-47814001I0J249999D01*
G01*
X135190000Y-47163999D01*
G75*
G02*
X135439999Y-46914000I249999J0D01*
G01*
G37*
G36*
G01*
X135439999Y-48964000D02*
X136340001Y-48964000D01*
G75*
G02*
X136590000Y-49213999I0J-249999D01*
G01*
X136590000Y-49864001D01*
G75*
G02*
X136340001Y-50114000I-249999J0D01*
G01*
X135439999Y-50114000D01*
G75*
G02*
X135190000Y-49864001I0J249999D01*
G01*
X135190000Y-49213999D01*
G75*
G02*
X135439999Y-48964000I249999J0D01*
G01*
G37*
G36*
G01*
X128327999Y-46914000D02*
X129228001Y-46914000D01*
G75*
G02*
X129478000Y-47163999I0J-249999D01*
G01*
X129478000Y-47814001D01*
G75*
G02*
X129228001Y-48064000I-249999J0D01*
G01*
X128327999Y-48064000D01*
G75*
G02*
X128078000Y-47814001I0J249999D01*
G01*
X128078000Y-47163999D01*
G75*
G02*
X128327999Y-46914000I249999J0D01*
G01*
G37*
G36*
G01*
X128327999Y-48964000D02*
X129228001Y-48964000D01*
G75*
G02*
X129478000Y-49213999I0J-249999D01*
G01*
X129478000Y-49864001D01*
G75*
G02*
X129228001Y-50114000I-249999J0D01*
G01*
X128327999Y-50114000D01*
G75*
G02*
X128078000Y-49864001I0J249999D01*
G01*
X128078000Y-49213999D01*
G75*
G02*
X128327999Y-48964000I249999J0D01*
G01*
G37*
G36*
G01*
X95561999Y-41090000D02*
X96462001Y-41090000D01*
G75*
G02*
X96712000Y-41339999I0J-249999D01*
G01*
X96712000Y-41990001D01*
G75*
G02*
X96462001Y-42240000I-249999J0D01*
G01*
X95561999Y-42240000D01*
G75*
G02*
X95312000Y-41990001I0J249999D01*
G01*
X95312000Y-41339999D01*
G75*
G02*
X95561999Y-41090000I249999J0D01*
G01*
G37*
G36*
G01*
X95561999Y-39040000D02*
X96462001Y-39040000D01*
G75*
G02*
X96712000Y-39289999I0J-249999D01*
G01*
X96712000Y-39940001D01*
G75*
G02*
X96462001Y-40190000I-249999J0D01*
G01*
X95561999Y-40190000D01*
G75*
G02*
X95312000Y-39940001I0J249999D01*
G01*
X95312000Y-39289999D01*
G75*
G02*
X95561999Y-39040000I249999J0D01*
G01*
G37*
G36*
G01*
X100133999Y-39040000D02*
X101034001Y-39040000D01*
G75*
G02*
X101284000Y-39289999I0J-249999D01*
G01*
X101284000Y-39940001D01*
G75*
G02*
X101034001Y-40190000I-249999J0D01*
G01*
X100133999Y-40190000D01*
G75*
G02*
X99884000Y-39940001I0J249999D01*
G01*
X99884000Y-39289999D01*
G75*
G02*
X100133999Y-39040000I249999J0D01*
G01*
G37*
G36*
G01*
X100133999Y-41090000D02*
X101034001Y-41090000D01*
G75*
G02*
X101284000Y-41339999I0J-249999D01*
G01*
X101284000Y-41990001D01*
G75*
G02*
X101034001Y-42240000I-249999J0D01*
G01*
X100133999Y-42240000D01*
G75*
G02*
X99884000Y-41990001I0J249999D01*
G01*
X99884000Y-41339999D01*
G75*
G02*
X100133999Y-41090000I249999J0D01*
G01*
G37*
X87860000Y-86102000D03*
X86910000Y-84002000D03*
X88810000Y-84002000D03*
X92874000Y-84002000D03*
X90974000Y-84002000D03*
X91924000Y-86102000D03*
D11*
X129286000Y-42794000D03*
X129286000Y-40894000D03*
X127186000Y-41844000D03*
D10*
X134366000Y-42960000D03*
X133416000Y-40860000D03*
X135316000Y-40860000D03*
D11*
X121124000Y-41910000D03*
X123224000Y-40960000D03*
X123224000Y-42860000D03*
G36*
G01*
X131943000Y-47739000D02*
X130693000Y-47739000D01*
G75*
G02*
X130443000Y-47489000I0J250000D01*
G01*
X130443000Y-46564000D01*
G75*
G02*
X130693000Y-46314000I250000J0D01*
G01*
X131943000Y-46314000D01*
G75*
G02*
X132193000Y-46564000I0J-250000D01*
G01*
X132193000Y-47489000D01*
G75*
G02*
X131943000Y-47739000I-250000J0D01*
G01*
G37*
G36*
G01*
X131943000Y-50714000D02*
X130693000Y-50714000D01*
G75*
G02*
X130443000Y-50464000I0J250000D01*
G01*
X130443000Y-49539000D01*
G75*
G02*
X130693000Y-49289000I250000J0D01*
G01*
X131943000Y-49289000D01*
G75*
G02*
X132193000Y-49539000I0J-250000D01*
G01*
X132193000Y-50464000D01*
G75*
G02*
X131943000Y-50714000I-250000J0D01*
G01*
G37*
G36*
G01*
X132979000Y-46314000D02*
X134229000Y-46314000D01*
G75*
G02*
X134479000Y-46564000I0J-250000D01*
G01*
X134479000Y-47489000D01*
G75*
G02*
X134229000Y-47739000I-250000J0D01*
G01*
X132979000Y-47739000D01*
G75*
G02*
X132729000Y-47489000I0J250000D01*
G01*
X132729000Y-46564000D01*
G75*
G02*
X132979000Y-46314000I250000J0D01*
G01*
G37*
G36*
G01*
X132979000Y-49289000D02*
X134229000Y-49289000D01*
G75*
G02*
X134479000Y-49539000I0J-250000D01*
G01*
X134479000Y-50464000D01*
G75*
G02*
X134229000Y-50714000I-250000J0D01*
G01*
X132979000Y-50714000D01*
G75*
G02*
X132729000Y-50464000I0J250000D01*
G01*
X132729000Y-49539000D01*
G75*
G02*
X132979000Y-49289000I250000J0D01*
G01*
G37*
G36*
G01*
X125867000Y-49289000D02*
X127117000Y-49289000D01*
G75*
G02*
X127367000Y-49539000I0J-250000D01*
G01*
X127367000Y-50464000D01*
G75*
G02*
X127117000Y-50714000I-250000J0D01*
G01*
X125867000Y-50714000D01*
G75*
G02*
X125617000Y-50464000I0J250000D01*
G01*
X125617000Y-49539000D01*
G75*
G02*
X125867000Y-49289000I250000J0D01*
G01*
G37*
G36*
G01*
X125867000Y-46314000D02*
X127117000Y-46314000D01*
G75*
G02*
X127367000Y-46564000I0J-250000D01*
G01*
X127367000Y-47489000D01*
G75*
G02*
X127117000Y-47739000I-250000J0D01*
G01*
X125867000Y-47739000D01*
G75*
G02*
X125617000Y-47489000I0J250000D01*
G01*
X125617000Y-46564000D01*
G75*
G02*
X125867000Y-46314000I250000J0D01*
G01*
G37*
G36*
G01*
X99630000Y-68405000D02*
X99630000Y-67155000D01*
G75*
G02*
X99880000Y-66905000I250000J0D01*
G01*
X100805000Y-66905000D01*
G75*
G02*
X101055000Y-67155000I0J-250000D01*
G01*
X101055000Y-68405000D01*
G75*
G02*
X100805000Y-68655000I-250000J0D01*
G01*
X99880000Y-68655000D01*
G75*
G02*
X99630000Y-68405000I0J250000D01*
G01*
G37*
G36*
G01*
X102605000Y-68405000D02*
X102605000Y-67155000D01*
G75*
G02*
X102855000Y-66905000I250000J0D01*
G01*
X103780000Y-66905000D01*
G75*
G02*
X104030000Y-67155000I0J-250000D01*
G01*
X104030000Y-68405000D01*
G75*
G02*
X103780000Y-68655000I-250000J0D01*
G01*
X102855000Y-68655000D01*
G75*
G02*
X102605000Y-68405000I0J250000D01*
G01*
G37*
G36*
G01*
X102605000Y-71072000D02*
X102605000Y-69822000D01*
G75*
G02*
X102855000Y-69572000I250000J0D01*
G01*
X103780000Y-69572000D01*
G75*
G02*
X104030000Y-69822000I0J-250000D01*
G01*
X104030000Y-71072000D01*
G75*
G02*
X103780000Y-71322000I-250000J0D01*
G01*
X102855000Y-71322000D01*
G75*
G02*
X102605000Y-71072000I0J250000D01*
G01*
G37*
G36*
G01*
X99630000Y-71072000D02*
X99630000Y-69822000D01*
G75*
G02*
X99880000Y-69572000I250000J0D01*
G01*
X100805000Y-69572000D01*
G75*
G02*
X101055000Y-69822000I0J-250000D01*
G01*
X101055000Y-71072000D01*
G75*
G02*
X100805000Y-71322000I-250000J0D01*
G01*
X99880000Y-71322000D01*
G75*
G02*
X99630000Y-71072000I0J250000D01*
G01*
G37*
G36*
G01*
X108701000Y-68405000D02*
X108701000Y-67155000D01*
G75*
G02*
X108951000Y-66905000I250000J0D01*
G01*
X109876000Y-66905000D01*
G75*
G02*
X110126000Y-67155000I0J-250000D01*
G01*
X110126000Y-68405000D01*
G75*
G02*
X109876000Y-68655000I-250000J0D01*
G01*
X108951000Y-68655000D01*
G75*
G02*
X108701000Y-68405000I0J250000D01*
G01*
G37*
G36*
G01*
X105726000Y-68405000D02*
X105726000Y-67155000D01*
G75*
G02*
X105976000Y-66905000I250000J0D01*
G01*
X106901000Y-66905000D01*
G75*
G02*
X107151000Y-67155000I0J-250000D01*
G01*
X107151000Y-68405000D01*
G75*
G02*
X106901000Y-68655000I-250000J0D01*
G01*
X105976000Y-68655000D01*
G75*
G02*
X105726000Y-68405000I0J250000D01*
G01*
G37*
G36*
G01*
X105726000Y-70691000D02*
X105726000Y-69441000D01*
G75*
G02*
X105976000Y-69191000I250000J0D01*
G01*
X106901000Y-69191000D01*
G75*
G02*
X107151000Y-69441000I0J-250000D01*
G01*
X107151000Y-70691000D01*
G75*
G02*
X106901000Y-70941000I-250000J0D01*
G01*
X105976000Y-70941000D01*
G75*
G02*
X105726000Y-70691000I0J250000D01*
G01*
G37*
G36*
G01*
X108701000Y-70691000D02*
X108701000Y-69441000D01*
G75*
G02*
X108951000Y-69191000I250000J0D01*
G01*
X109876000Y-69191000D01*
G75*
G02*
X110126000Y-69441000I0J-250000D01*
G01*
X110126000Y-70691000D01*
G75*
G02*
X109876000Y-70941000I-250000J0D01*
G01*
X108951000Y-70941000D01*
G75*
G02*
X108701000Y-70691000I0J250000D01*
G01*
G37*
G36*
G01*
X118680000Y-68405000D02*
X118680000Y-67155000D01*
G75*
G02*
X118930000Y-66905000I250000J0D01*
G01*
X119855000Y-66905000D01*
G75*
G02*
X120105000Y-67155000I0J-250000D01*
G01*
X120105000Y-68405000D01*
G75*
G02*
X119855000Y-68655000I-250000J0D01*
G01*
X118930000Y-68655000D01*
G75*
G02*
X118680000Y-68405000I0J250000D01*
G01*
G37*
G36*
G01*
X121655000Y-68405000D02*
X121655000Y-67155000D01*
G75*
G02*
X121905000Y-66905000I250000J0D01*
G01*
X122830000Y-66905000D01*
G75*
G02*
X123080000Y-67155000I0J-250000D01*
G01*
X123080000Y-68405000D01*
G75*
G02*
X122830000Y-68655000I-250000J0D01*
G01*
X121905000Y-68655000D01*
G75*
G02*
X121655000Y-68405000I0J250000D01*
G01*
G37*
G36*
G01*
X121655000Y-70691000D02*
X121655000Y-69441000D01*
G75*
G02*
X121905000Y-69191000I250000J0D01*
G01*
X122830000Y-69191000D01*
G75*
G02*
X123080000Y-69441000I0J-250000D01*
G01*
X123080000Y-70691000D01*
G75*
G02*
X122830000Y-70941000I-250000J0D01*
G01*
X121905000Y-70941000D01*
G75*
G02*
X121655000Y-70691000I0J250000D01*
G01*
G37*
G36*
G01*
X118680000Y-70691000D02*
X118680000Y-69441000D01*
G75*
G02*
X118930000Y-69191000I250000J0D01*
G01*
X119855000Y-69191000D01*
G75*
G02*
X120105000Y-69441000I0J-250000D01*
G01*
X120105000Y-70691000D01*
G75*
G02*
X119855000Y-70941000I-250000J0D01*
G01*
X118930000Y-70941000D01*
G75*
G02*
X118680000Y-70691000I0J250000D01*
G01*
G37*
G36*
G01*
X125538000Y-68405000D02*
X125538000Y-67155000D01*
G75*
G02*
X125788000Y-66905000I250000J0D01*
G01*
X126713000Y-66905000D01*
G75*
G02*
X126963000Y-67155000I0J-250000D01*
G01*
X126963000Y-68405000D01*
G75*
G02*
X126713000Y-68655000I-250000J0D01*
G01*
X125788000Y-68655000D01*
G75*
G02*
X125538000Y-68405000I0J250000D01*
G01*
G37*
G36*
G01*
X128513000Y-68405000D02*
X128513000Y-67155000D01*
G75*
G02*
X128763000Y-66905000I250000J0D01*
G01*
X129688000Y-66905000D01*
G75*
G02*
X129938000Y-67155000I0J-250000D01*
G01*
X129938000Y-68405000D01*
G75*
G02*
X129688000Y-68655000I-250000J0D01*
G01*
X128763000Y-68655000D01*
G75*
G02*
X128513000Y-68405000I0J250000D01*
G01*
G37*
G36*
G01*
X129938000Y-69441000D02*
X129938000Y-70691000D01*
G75*
G02*
X129688000Y-70941000I-250000J0D01*
G01*
X128763000Y-70941000D01*
G75*
G02*
X128513000Y-70691000I0J250000D01*
G01*
X128513000Y-69441000D01*
G75*
G02*
X128763000Y-69191000I250000J0D01*
G01*
X129688000Y-69191000D01*
G75*
G02*
X129938000Y-69441000I0J-250000D01*
G01*
G37*
G36*
G01*
X126963000Y-69441000D02*
X126963000Y-70691000D01*
G75*
G02*
X126713000Y-70941000I-250000J0D01*
G01*
X125788000Y-70941000D01*
G75*
G02*
X125538000Y-70691000I0J250000D01*
G01*
X125538000Y-69441000D01*
G75*
G02*
X125788000Y-69191000I250000J0D01*
G01*
X126713000Y-69191000D01*
G75*
G02*
X126963000Y-69441000I0J-250000D01*
G01*
G37*
G36*
G01*
X112584000Y-68405000D02*
X112584000Y-67155000D01*
G75*
G02*
X112834000Y-66905000I250000J0D01*
G01*
X113759000Y-66905000D01*
G75*
G02*
X114009000Y-67155000I0J-250000D01*
G01*
X114009000Y-68405000D01*
G75*
G02*
X113759000Y-68655000I-250000J0D01*
G01*
X112834000Y-68655000D01*
G75*
G02*
X112584000Y-68405000I0J250000D01*
G01*
G37*
G36*
G01*
X115559000Y-68405000D02*
X115559000Y-67155000D01*
G75*
G02*
X115809000Y-66905000I250000J0D01*
G01*
X116734000Y-66905000D01*
G75*
G02*
X116984000Y-67155000I0J-250000D01*
G01*
X116984000Y-68405000D01*
G75*
G02*
X116734000Y-68655000I-250000J0D01*
G01*
X115809000Y-68655000D01*
G75*
G02*
X115559000Y-68405000I0J250000D01*
G01*
G37*
G36*
G01*
X114009000Y-69441000D02*
X114009000Y-70691000D01*
G75*
G02*
X113759000Y-70941000I-250000J0D01*
G01*
X112834000Y-70941000D01*
G75*
G02*
X112584000Y-70691000I0J250000D01*
G01*
X112584000Y-69441000D01*
G75*
G02*
X112834000Y-69191000I250000J0D01*
G01*
X113759000Y-69191000D01*
G75*
G02*
X114009000Y-69441000I0J-250000D01*
G01*
G37*
G36*
G01*
X116984000Y-69441000D02*
X116984000Y-70691000D01*
G75*
G02*
X116734000Y-70941000I-250000J0D01*
G01*
X115809000Y-70941000D01*
G75*
G02*
X115559000Y-70691000I0J250000D01*
G01*
X115559000Y-69441000D01*
G75*
G02*
X115809000Y-69191000I250000J0D01*
G01*
X116734000Y-69191000D01*
G75*
G02*
X116984000Y-69441000I0J-250000D01*
G01*
G37*
D12*
X98704000Y-54624000D03*
X98704000Y-52324000D03*
X98704000Y-50024000D03*
D13*
X105004000Y-52324000D03*
G36*
G01*
X113054000Y-44300000D02*
X113054000Y-44600000D01*
G75*
G02*
X112904000Y-44750000I-150000J0D01*
G01*
X111254000Y-44750000D01*
G75*
G02*
X111104000Y-44600000I0J150000D01*
G01*
X111104000Y-44300000D01*
G75*
G02*
X111254000Y-44150000I150000J0D01*
G01*
X112904000Y-44150000D01*
G75*
G02*
X113054000Y-44300000I0J-150000D01*
G01*
G37*
G36*
G01*
X113054000Y-43030000D02*
X113054000Y-43330000D01*
G75*
G02*
X112904000Y-43480000I-150000J0D01*
G01*
X111254000Y-43480000D01*
G75*
G02*
X111104000Y-43330000I0J150000D01*
G01*
X111104000Y-43030000D01*
G75*
G02*
X111254000Y-42880000I150000J0D01*
G01*
X112904000Y-42880000D01*
G75*
G02*
X113054000Y-43030000I0J-150000D01*
G01*
G37*
G36*
G01*
X113054000Y-41760000D02*
X113054000Y-42060000D01*
G75*
G02*
X112904000Y-42210000I-150000J0D01*
G01*
X111254000Y-42210000D01*
G75*
G02*
X111104000Y-42060000I0J150000D01*
G01*
X111104000Y-41760000D01*
G75*
G02*
X111254000Y-41610000I150000J0D01*
G01*
X112904000Y-41610000D01*
G75*
G02*
X113054000Y-41760000I0J-150000D01*
G01*
G37*
G36*
G01*
X113054000Y-40490000D02*
X113054000Y-40790000D01*
G75*
G02*
X112904000Y-40940000I-150000J0D01*
G01*
X111254000Y-40940000D01*
G75*
G02*
X111104000Y-40790000I0J150000D01*
G01*
X111104000Y-40490000D01*
G75*
G02*
X111254000Y-40340000I150000J0D01*
G01*
X112904000Y-40340000D01*
G75*
G02*
X113054000Y-40490000I0J-150000D01*
G01*
G37*
G36*
G01*
X118004000Y-40490000D02*
X118004000Y-40790000D01*
G75*
G02*
X117854000Y-40940000I-150000J0D01*
G01*
X116204000Y-40940000D01*
G75*
G02*
X116054000Y-40790000I0J150000D01*
G01*
X116054000Y-40490000D01*
G75*
G02*
X116204000Y-40340000I150000J0D01*
G01*
X117854000Y-40340000D01*
G75*
G02*
X118004000Y-40490000I0J-150000D01*
G01*
G37*
G36*
G01*
X118004000Y-41760000D02*
X118004000Y-42060000D01*
G75*
G02*
X117854000Y-42210000I-150000J0D01*
G01*
X116204000Y-42210000D01*
G75*
G02*
X116054000Y-42060000I0J150000D01*
G01*
X116054000Y-41760000D01*
G75*
G02*
X116204000Y-41610000I150000J0D01*
G01*
X117854000Y-41610000D01*
G75*
G02*
X118004000Y-41760000I0J-150000D01*
G01*
G37*
G36*
G01*
X118004000Y-43030000D02*
X118004000Y-43330000D01*
G75*
G02*
X117854000Y-43480000I-150000J0D01*
G01*
X116204000Y-43480000D01*
G75*
G02*
X116054000Y-43330000I0J150000D01*
G01*
X116054000Y-43030000D01*
G75*
G02*
X116204000Y-42880000I150000J0D01*
G01*
X117854000Y-42880000D01*
G75*
G02*
X118004000Y-43030000I0J-150000D01*
G01*
G37*
G36*
G01*
X118004000Y-44300000D02*
X118004000Y-44600000D01*
G75*
G02*
X117854000Y-44750000I-150000J0D01*
G01*
X116204000Y-44750000D01*
G75*
G02*
X116054000Y-44600000I0J150000D01*
G01*
X116054000Y-44300000D01*
G75*
G02*
X116204000Y-44150000I150000J0D01*
G01*
X117854000Y-44150000D01*
G75*
G02*
X118004000Y-44300000I0J-150000D01*
G01*
G37*
G36*
G01*
X106828000Y-47729000D02*
X106828000Y-48029000D01*
G75*
G02*
X106678000Y-48179000I-150000J0D01*
G01*
X105028000Y-48179000D01*
G75*
G02*
X104878000Y-48029000I0J150000D01*
G01*
X104878000Y-47729000D01*
G75*
G02*
X105028000Y-47579000I150000J0D01*
G01*
X106678000Y-47579000D01*
G75*
G02*
X106828000Y-47729000I0J-150000D01*
G01*
G37*
G36*
G01*
X106828000Y-46459000D02*
X106828000Y-46759000D01*
G75*
G02*
X106678000Y-46909000I-150000J0D01*
G01*
X105028000Y-46909000D01*
G75*
G02*
X104878000Y-46759000I0J150000D01*
G01*
X104878000Y-46459000D01*
G75*
G02*
X105028000Y-46309000I150000J0D01*
G01*
X106678000Y-46309000D01*
G75*
G02*
X106828000Y-46459000I0J-150000D01*
G01*
G37*
G36*
G01*
X106828000Y-45189000D02*
X106828000Y-45489000D01*
G75*
G02*
X106678000Y-45639000I-150000J0D01*
G01*
X105028000Y-45639000D01*
G75*
G02*
X104878000Y-45489000I0J150000D01*
G01*
X104878000Y-45189000D01*
G75*
G02*
X105028000Y-45039000I150000J0D01*
G01*
X106678000Y-45039000D01*
G75*
G02*
X106828000Y-45189000I0J-150000D01*
G01*
G37*
G36*
G01*
X106828000Y-43919000D02*
X106828000Y-44219000D01*
G75*
G02*
X106678000Y-44369000I-150000J0D01*
G01*
X105028000Y-44369000D01*
G75*
G02*
X104878000Y-44219000I0J150000D01*
G01*
X104878000Y-43919000D01*
G75*
G02*
X105028000Y-43769000I150000J0D01*
G01*
X106678000Y-43769000D01*
G75*
G02*
X106828000Y-43919000I0J-150000D01*
G01*
G37*
G36*
G01*
X101878000Y-43919000D02*
X101878000Y-44219000D01*
G75*
G02*
X101728000Y-44369000I-150000J0D01*
G01*
X100078000Y-44369000D01*
G75*
G02*
X99928000Y-44219000I0J150000D01*
G01*
X99928000Y-43919000D01*
G75*
G02*
X100078000Y-43769000I150000J0D01*
G01*
X101728000Y-43769000D01*
G75*
G02*
X101878000Y-43919000I0J-150000D01*
G01*
G37*
G36*
G01*
X101878000Y-45189000D02*
X101878000Y-45489000D01*
G75*
G02*
X101728000Y-45639000I-150000J0D01*
G01*
X100078000Y-45639000D01*
G75*
G02*
X99928000Y-45489000I0J150000D01*
G01*
X99928000Y-45189000D01*
G75*
G02*
X100078000Y-45039000I150000J0D01*
G01*
X101728000Y-45039000D01*
G75*
G02*
X101878000Y-45189000I0J-150000D01*
G01*
G37*
G36*
G01*
X101878000Y-46459000D02*
X101878000Y-46759000D01*
G75*
G02*
X101728000Y-46909000I-150000J0D01*
G01*
X100078000Y-46909000D01*
G75*
G02*
X99928000Y-46759000I0J150000D01*
G01*
X99928000Y-46459000D01*
G75*
G02*
X100078000Y-46309000I150000J0D01*
G01*
X101728000Y-46309000D01*
G75*
G02*
X101878000Y-46459000I0J-150000D01*
G01*
G37*
G36*
G01*
X101878000Y-47729000D02*
X101878000Y-48029000D01*
G75*
G02*
X101728000Y-48179000I-150000J0D01*
G01*
X100078000Y-48179000D01*
G75*
G02*
X99928000Y-48029000I0J150000D01*
G01*
X99928000Y-47729000D01*
G75*
G02*
X100078000Y-47579000I150000J0D01*
G01*
X101728000Y-47579000D01*
G75*
G02*
X101878000Y-47729000I0J-150000D01*
G01*
G37*
M02*
