G04 #@! TF.GenerationSoftware,KiCad,Pcbnew,(5.1.0)-1*
G04 #@! TF.CreationDate,2019-10-16T14:08:09+11:00*
G04 #@! TF.ProjectId,BSPD,42535044-2e6b-4696-9361-645f70636258,rev?*
G04 #@! TF.SameCoordinates,Original*
G04 #@! TF.FileFunction,Soldermask,Bot*
G04 #@! TF.FilePolarity,Negative*
%FSLAX46Y46*%
G04 Gerber Fmt 4.6, Leading zero omitted, Abs format (unit mm)*
G04 Created by KiCad (PCBNEW (5.1.0)-1) date 2019-10-16 14:08:09*
%MOMM*%
%LPD*%
G04 APERTURE LIST*
%ADD10C,0.100000*%
G04 APERTURE END LIST*
D10*
G36*
X79177562Y-107070181D02*
G01*
X79212481Y-107080774D01*
X79244663Y-107097976D01*
X79272873Y-107121127D01*
X79296024Y-107149337D01*
X79313226Y-107181519D01*
X79323819Y-107216438D01*
X79328000Y-107258895D01*
X79328000Y-108725105D01*
X79323819Y-108767562D01*
X79313226Y-108802481D01*
X79296024Y-108834663D01*
X79272873Y-108862873D01*
X79244663Y-108886024D01*
X79212481Y-108903226D01*
X79177562Y-108913819D01*
X79135105Y-108918000D01*
X77993895Y-108918000D01*
X77951438Y-108913819D01*
X77916519Y-108903226D01*
X77884337Y-108886024D01*
X77856127Y-108862873D01*
X77832976Y-108834663D01*
X77815774Y-108802481D01*
X77805181Y-108767562D01*
X77801000Y-108725105D01*
X77801000Y-107258895D01*
X77805181Y-107216438D01*
X77815774Y-107181519D01*
X77832976Y-107149337D01*
X77856127Y-107121127D01*
X77884337Y-107097976D01*
X77916519Y-107080774D01*
X77951438Y-107070181D01*
X77993895Y-107066000D01*
X79135105Y-107066000D01*
X79177562Y-107070181D01*
X79177562Y-107070181D01*
G37*
G36*
X94381062Y-107070181D02*
G01*
X94415981Y-107080774D01*
X94448163Y-107097976D01*
X94476373Y-107121127D01*
X94499524Y-107149337D01*
X94516726Y-107181519D01*
X94527319Y-107216438D01*
X94531500Y-107258895D01*
X94531500Y-108725105D01*
X94527319Y-108767562D01*
X94516726Y-108802481D01*
X94499524Y-108834663D01*
X94476373Y-108862873D01*
X94448163Y-108886024D01*
X94415981Y-108903226D01*
X94381062Y-108913819D01*
X94338605Y-108918000D01*
X93197395Y-108918000D01*
X93154938Y-108913819D01*
X93120019Y-108903226D01*
X93087837Y-108886024D01*
X93059627Y-108862873D01*
X93036476Y-108834663D01*
X93019274Y-108802481D01*
X93008681Y-108767562D01*
X93004500Y-108725105D01*
X93004500Y-107258895D01*
X93008681Y-107216438D01*
X93019274Y-107181519D01*
X93036476Y-107149337D01*
X93059627Y-107121127D01*
X93087837Y-107097976D01*
X93120019Y-107080774D01*
X93154938Y-107070181D01*
X93197395Y-107066000D01*
X94338605Y-107066000D01*
X94381062Y-107070181D01*
X94381062Y-107070181D01*
G37*
G36*
X89301062Y-107070181D02*
G01*
X89335981Y-107080774D01*
X89368163Y-107097976D01*
X89396373Y-107121127D01*
X89419524Y-107149337D01*
X89436726Y-107181519D01*
X89447319Y-107216438D01*
X89451500Y-107258895D01*
X89451500Y-108725105D01*
X89447319Y-108767562D01*
X89436726Y-108802481D01*
X89419524Y-108834663D01*
X89396373Y-108862873D01*
X89368163Y-108886024D01*
X89335981Y-108903226D01*
X89301062Y-108913819D01*
X89258605Y-108918000D01*
X88117395Y-108918000D01*
X88074938Y-108913819D01*
X88040019Y-108903226D01*
X88007837Y-108886024D01*
X87979627Y-108862873D01*
X87956476Y-108834663D01*
X87939274Y-108802481D01*
X87928681Y-108767562D01*
X87924500Y-108725105D01*
X87924500Y-107258895D01*
X87928681Y-107216438D01*
X87939274Y-107181519D01*
X87956476Y-107149337D01*
X87979627Y-107121127D01*
X88007837Y-107097976D01*
X88040019Y-107080774D01*
X88074938Y-107070181D01*
X88117395Y-107066000D01*
X89258605Y-107066000D01*
X89301062Y-107070181D01*
X89301062Y-107070181D01*
G37*
G36*
X92276062Y-107070181D02*
G01*
X92310981Y-107080774D01*
X92343163Y-107097976D01*
X92371373Y-107121127D01*
X92394524Y-107149337D01*
X92411726Y-107181519D01*
X92422319Y-107216438D01*
X92426500Y-107258895D01*
X92426500Y-108725105D01*
X92422319Y-108767562D01*
X92411726Y-108802481D01*
X92394524Y-108834663D01*
X92371373Y-108862873D01*
X92343163Y-108886024D01*
X92310981Y-108903226D01*
X92276062Y-108913819D01*
X92233605Y-108918000D01*
X91092395Y-108918000D01*
X91049938Y-108913819D01*
X91015019Y-108903226D01*
X90982837Y-108886024D01*
X90954627Y-108862873D01*
X90931476Y-108834663D01*
X90914274Y-108802481D01*
X90903681Y-108767562D01*
X90899500Y-108725105D01*
X90899500Y-107258895D01*
X90903681Y-107216438D01*
X90914274Y-107181519D01*
X90931476Y-107149337D01*
X90954627Y-107121127D01*
X90982837Y-107097976D01*
X91015019Y-107080774D01*
X91049938Y-107070181D01*
X91092395Y-107066000D01*
X92233605Y-107066000D01*
X92276062Y-107070181D01*
X92276062Y-107070181D01*
G37*
G36*
X84257562Y-107070181D02*
G01*
X84292481Y-107080774D01*
X84324663Y-107097976D01*
X84352873Y-107121127D01*
X84376024Y-107149337D01*
X84393226Y-107181519D01*
X84403819Y-107216438D01*
X84408000Y-107258895D01*
X84408000Y-108725105D01*
X84403819Y-108767562D01*
X84393226Y-108802481D01*
X84376024Y-108834663D01*
X84352873Y-108862873D01*
X84324663Y-108886024D01*
X84292481Y-108903226D01*
X84257562Y-108913819D01*
X84215105Y-108918000D01*
X83073895Y-108918000D01*
X83031438Y-108913819D01*
X82996519Y-108903226D01*
X82964337Y-108886024D01*
X82936127Y-108862873D01*
X82912976Y-108834663D01*
X82895774Y-108802481D01*
X82885181Y-108767562D01*
X82881000Y-108725105D01*
X82881000Y-107258895D01*
X82885181Y-107216438D01*
X82895774Y-107181519D01*
X82912976Y-107149337D01*
X82936127Y-107121127D01*
X82964337Y-107097976D01*
X82996519Y-107080774D01*
X83031438Y-107070181D01*
X83073895Y-107066000D01*
X84215105Y-107066000D01*
X84257562Y-107070181D01*
X84257562Y-107070181D01*
G37*
G36*
X87232562Y-107070181D02*
G01*
X87267481Y-107080774D01*
X87299663Y-107097976D01*
X87327873Y-107121127D01*
X87351024Y-107149337D01*
X87368226Y-107181519D01*
X87378819Y-107216438D01*
X87383000Y-107258895D01*
X87383000Y-108725105D01*
X87378819Y-108767562D01*
X87368226Y-108802481D01*
X87351024Y-108834663D01*
X87327873Y-108862873D01*
X87299663Y-108886024D01*
X87267481Y-108903226D01*
X87232562Y-108913819D01*
X87190105Y-108918000D01*
X86048895Y-108918000D01*
X86006438Y-108913819D01*
X85971519Y-108903226D01*
X85939337Y-108886024D01*
X85911127Y-108862873D01*
X85887976Y-108834663D01*
X85870774Y-108802481D01*
X85860181Y-108767562D01*
X85856000Y-108725105D01*
X85856000Y-107258895D01*
X85860181Y-107216438D01*
X85870774Y-107181519D01*
X85887976Y-107149337D01*
X85911127Y-107121127D01*
X85939337Y-107097976D01*
X85971519Y-107080774D01*
X86006438Y-107070181D01*
X86048895Y-107066000D01*
X87190105Y-107066000D01*
X87232562Y-107070181D01*
X87232562Y-107070181D01*
G37*
G36*
X82152562Y-107070181D02*
G01*
X82187481Y-107080774D01*
X82219663Y-107097976D01*
X82247873Y-107121127D01*
X82271024Y-107149337D01*
X82288226Y-107181519D01*
X82298819Y-107216438D01*
X82303000Y-107258895D01*
X82303000Y-108725105D01*
X82298819Y-108767562D01*
X82288226Y-108802481D01*
X82271024Y-108834663D01*
X82247873Y-108862873D01*
X82219663Y-108886024D01*
X82187481Y-108903226D01*
X82152562Y-108913819D01*
X82110105Y-108918000D01*
X80968895Y-108918000D01*
X80926438Y-108913819D01*
X80891519Y-108903226D01*
X80859337Y-108886024D01*
X80831127Y-108862873D01*
X80807976Y-108834663D01*
X80790774Y-108802481D01*
X80780181Y-108767562D01*
X80776000Y-108725105D01*
X80776000Y-107258895D01*
X80780181Y-107216438D01*
X80790774Y-107181519D01*
X80807976Y-107149337D01*
X80831127Y-107121127D01*
X80859337Y-107097976D01*
X80891519Y-107080774D01*
X80926438Y-107070181D01*
X80968895Y-107066000D01*
X82110105Y-107066000D01*
X82152562Y-107070181D01*
X82152562Y-107070181D01*
G37*
G36*
X97356062Y-107070181D02*
G01*
X97390981Y-107080774D01*
X97423163Y-107097976D01*
X97451373Y-107121127D01*
X97474524Y-107149337D01*
X97491726Y-107181519D01*
X97502319Y-107216438D01*
X97506500Y-107258895D01*
X97506500Y-108725105D01*
X97502319Y-108767562D01*
X97491726Y-108802481D01*
X97474524Y-108834663D01*
X97451373Y-108862873D01*
X97423163Y-108886024D01*
X97390981Y-108903226D01*
X97356062Y-108913819D01*
X97313605Y-108918000D01*
X96172395Y-108918000D01*
X96129938Y-108913819D01*
X96095019Y-108903226D01*
X96062837Y-108886024D01*
X96034627Y-108862873D01*
X96011476Y-108834663D01*
X95994274Y-108802481D01*
X95983681Y-108767562D01*
X95979500Y-108725105D01*
X95979500Y-107258895D01*
X95983681Y-107216438D01*
X95994274Y-107181519D01*
X96011476Y-107149337D01*
X96034627Y-107121127D01*
X96062837Y-107097976D01*
X96095019Y-107080774D01*
X96129938Y-107070181D01*
X96172395Y-107066000D01*
X97313605Y-107066000D01*
X97356062Y-107070181D01*
X97356062Y-107070181D01*
G37*
G36*
X71749256Y-104351298D02*
G01*
X71855579Y-104372447D01*
X72156042Y-104496903D01*
X72426451Y-104677585D01*
X72656415Y-104907549D01*
X72837097Y-105177958D01*
X72961553Y-105478421D01*
X73025000Y-105797391D01*
X73025000Y-106122609D01*
X72961553Y-106441579D01*
X72837097Y-106742042D01*
X72656415Y-107012451D01*
X72426451Y-107242415D01*
X72156042Y-107423097D01*
X71855579Y-107547553D01*
X71749256Y-107568702D01*
X71536611Y-107611000D01*
X71211389Y-107611000D01*
X70998744Y-107568702D01*
X70892421Y-107547553D01*
X70591958Y-107423097D01*
X70321549Y-107242415D01*
X70091585Y-107012451D01*
X69910903Y-106742042D01*
X69786447Y-106441579D01*
X69723000Y-106122609D01*
X69723000Y-105797391D01*
X69786447Y-105478421D01*
X69910903Y-105177958D01*
X70091585Y-104907549D01*
X70321549Y-104677585D01*
X70591958Y-104496903D01*
X70892421Y-104372447D01*
X70998744Y-104351298D01*
X71211389Y-104309000D01*
X71536611Y-104309000D01*
X71749256Y-104351298D01*
X71749256Y-104351298D01*
G37*
G36*
X116749256Y-104351298D02*
G01*
X116855579Y-104372447D01*
X117156042Y-104496903D01*
X117426451Y-104677585D01*
X117656415Y-104907549D01*
X117837097Y-105177958D01*
X117961553Y-105478421D01*
X118025000Y-105797391D01*
X118025000Y-106122609D01*
X117961553Y-106441579D01*
X117837097Y-106742042D01*
X117656415Y-107012451D01*
X117426451Y-107242415D01*
X117156042Y-107423097D01*
X116855579Y-107547553D01*
X116749256Y-107568702D01*
X116536611Y-107611000D01*
X116211389Y-107611000D01*
X115998744Y-107568702D01*
X115892421Y-107547553D01*
X115591958Y-107423097D01*
X115321549Y-107242415D01*
X115091585Y-107012451D01*
X114910903Y-106742042D01*
X114786447Y-106441579D01*
X114723000Y-106122609D01*
X114723000Y-105797391D01*
X114786447Y-105478421D01*
X114910903Y-105177958D01*
X115091585Y-104907549D01*
X115321549Y-104677585D01*
X115591958Y-104496903D01*
X115892421Y-104372447D01*
X115998744Y-104351298D01*
X116211389Y-104309000D01*
X116536611Y-104309000D01*
X116749256Y-104351298D01*
X116749256Y-104351298D01*
G37*
G36*
X82465674Y-102981465D02*
G01*
X82503367Y-102992899D01*
X82538103Y-103011466D01*
X82568548Y-103036452D01*
X82593534Y-103066897D01*
X82612101Y-103101633D01*
X82623535Y-103139326D01*
X82628000Y-103184661D01*
X82628000Y-104021339D01*
X82623535Y-104066674D01*
X82612101Y-104104367D01*
X82593534Y-104139103D01*
X82568548Y-104169548D01*
X82538103Y-104194534D01*
X82503367Y-104213101D01*
X82465674Y-104224535D01*
X82420339Y-104229000D01*
X81333661Y-104229000D01*
X81288326Y-104224535D01*
X81250633Y-104213101D01*
X81215897Y-104194534D01*
X81185452Y-104169548D01*
X81160466Y-104139103D01*
X81141899Y-104104367D01*
X81130465Y-104066674D01*
X81126000Y-104021339D01*
X81126000Y-103184661D01*
X81130465Y-103139326D01*
X81141899Y-103101633D01*
X81160466Y-103066897D01*
X81185452Y-103036452D01*
X81215897Y-103011466D01*
X81250633Y-102992899D01*
X81288326Y-102981465D01*
X81333661Y-102977000D01*
X82420339Y-102977000D01*
X82465674Y-102981465D01*
X82465674Y-102981465D01*
G37*
G36*
X88053674Y-102981465D02*
G01*
X88091367Y-102992899D01*
X88126103Y-103011466D01*
X88156548Y-103036452D01*
X88181534Y-103066897D01*
X88200101Y-103101633D01*
X88211535Y-103139326D01*
X88216000Y-103184661D01*
X88216000Y-104021339D01*
X88211535Y-104066674D01*
X88200101Y-104104367D01*
X88181534Y-104139103D01*
X88156548Y-104169548D01*
X88126103Y-104194534D01*
X88091367Y-104213101D01*
X88053674Y-104224535D01*
X88008339Y-104229000D01*
X86921661Y-104229000D01*
X86876326Y-104224535D01*
X86838633Y-104213101D01*
X86803897Y-104194534D01*
X86773452Y-104169548D01*
X86748466Y-104139103D01*
X86729899Y-104104367D01*
X86718465Y-104066674D01*
X86714000Y-104021339D01*
X86714000Y-103184661D01*
X86718465Y-103139326D01*
X86729899Y-103101633D01*
X86748466Y-103066897D01*
X86773452Y-103036452D01*
X86803897Y-103011466D01*
X86838633Y-102992899D01*
X86876326Y-102981465D01*
X86921661Y-102977000D01*
X88008339Y-102977000D01*
X88053674Y-102981465D01*
X88053674Y-102981465D01*
G37*
G36*
X76877674Y-102981465D02*
G01*
X76915367Y-102992899D01*
X76950103Y-103011466D01*
X76980548Y-103036452D01*
X77005534Y-103066897D01*
X77024101Y-103101633D01*
X77035535Y-103139326D01*
X77040000Y-103184661D01*
X77040000Y-104021339D01*
X77035535Y-104066674D01*
X77024101Y-104104367D01*
X77005534Y-104139103D01*
X76980548Y-104169548D01*
X76950103Y-104194534D01*
X76915367Y-104213101D01*
X76877674Y-104224535D01*
X76832339Y-104229000D01*
X75745661Y-104229000D01*
X75700326Y-104224535D01*
X75662633Y-104213101D01*
X75627897Y-104194534D01*
X75597452Y-104169548D01*
X75572466Y-104139103D01*
X75553899Y-104104367D01*
X75542465Y-104066674D01*
X75538000Y-104021339D01*
X75538000Y-103184661D01*
X75542465Y-103139326D01*
X75553899Y-103101633D01*
X75572466Y-103066897D01*
X75597452Y-103036452D01*
X75627897Y-103011466D01*
X75662633Y-102992899D01*
X75700326Y-102981465D01*
X75745661Y-102977000D01*
X76832339Y-102977000D01*
X76877674Y-102981465D01*
X76877674Y-102981465D01*
G37*
G36*
X111755962Y-102009081D02*
G01*
X111790881Y-102019674D01*
X111823063Y-102036876D01*
X111851273Y-102060027D01*
X111874424Y-102088237D01*
X111891626Y-102120419D01*
X111902219Y-102155338D01*
X111906400Y-102197795D01*
X111906400Y-103339005D01*
X111902219Y-103381462D01*
X111891626Y-103416381D01*
X111874424Y-103448563D01*
X111851273Y-103476773D01*
X111823063Y-103499924D01*
X111790881Y-103517126D01*
X111755962Y-103527719D01*
X111713505Y-103531900D01*
X110247295Y-103531900D01*
X110204838Y-103527719D01*
X110169919Y-103517126D01*
X110137737Y-103499924D01*
X110109527Y-103476773D01*
X110086376Y-103448563D01*
X110069174Y-103416381D01*
X110058581Y-103381462D01*
X110054400Y-103339005D01*
X110054400Y-102197795D01*
X110058581Y-102155338D01*
X110069174Y-102120419D01*
X110086376Y-102088237D01*
X110109527Y-102060027D01*
X110137737Y-102036876D01*
X110169919Y-102019674D01*
X110204838Y-102009081D01*
X110247295Y-102004900D01*
X111713505Y-102004900D01*
X111755962Y-102009081D01*
X111755962Y-102009081D01*
G37*
G36*
X107768162Y-101997981D02*
G01*
X107803081Y-102008574D01*
X107835263Y-102025776D01*
X107863473Y-102048927D01*
X107886624Y-102077137D01*
X107903826Y-102109319D01*
X107914419Y-102144238D01*
X107918600Y-102186695D01*
X107918600Y-103327905D01*
X107914419Y-103370362D01*
X107903826Y-103405281D01*
X107886624Y-103437463D01*
X107863473Y-103465673D01*
X107835263Y-103488824D01*
X107803081Y-103506026D01*
X107768162Y-103516619D01*
X107725705Y-103520800D01*
X106259495Y-103520800D01*
X106217038Y-103516619D01*
X106182119Y-103506026D01*
X106149937Y-103488824D01*
X106121727Y-103465673D01*
X106098576Y-103437463D01*
X106081374Y-103405281D01*
X106070781Y-103370362D01*
X106066600Y-103327905D01*
X106066600Y-102186695D01*
X106070781Y-102144238D01*
X106081374Y-102109319D01*
X106098576Y-102077137D01*
X106121727Y-102048927D01*
X106149937Y-102025776D01*
X106182119Y-102008574D01*
X106217038Y-101997981D01*
X106259495Y-101993800D01*
X107725705Y-101993800D01*
X107768162Y-101997981D01*
X107768162Y-101997981D01*
G37*
G36*
X95750062Y-101989181D02*
G01*
X95784981Y-101999774D01*
X95817163Y-102016976D01*
X95845373Y-102040127D01*
X95868524Y-102068337D01*
X95885726Y-102100519D01*
X95896319Y-102135438D01*
X95900500Y-102177895D01*
X95900500Y-103319105D01*
X95896319Y-103361562D01*
X95885726Y-103396481D01*
X95868524Y-103428663D01*
X95845373Y-103456873D01*
X95817163Y-103480024D01*
X95784981Y-103497226D01*
X95750062Y-103507819D01*
X95707605Y-103512000D01*
X94241395Y-103512000D01*
X94198938Y-103507819D01*
X94164019Y-103497226D01*
X94131837Y-103480024D01*
X94103627Y-103456873D01*
X94080476Y-103428663D01*
X94063274Y-103396481D01*
X94052681Y-103361562D01*
X94048500Y-103319105D01*
X94048500Y-102177895D01*
X94052681Y-102135438D01*
X94063274Y-102100519D01*
X94080476Y-102068337D01*
X94103627Y-102040127D01*
X94131837Y-102016976D01*
X94164019Y-101999774D01*
X94198938Y-101989181D01*
X94241395Y-101985000D01*
X95707605Y-101985000D01*
X95750062Y-101989181D01*
X95750062Y-101989181D01*
G37*
G36*
X103763762Y-101989181D02*
G01*
X103798681Y-101999774D01*
X103830863Y-102016976D01*
X103859073Y-102040127D01*
X103882224Y-102068337D01*
X103899426Y-102100519D01*
X103910019Y-102135438D01*
X103914200Y-102177895D01*
X103914200Y-103319105D01*
X103910019Y-103361562D01*
X103899426Y-103396481D01*
X103882224Y-103428663D01*
X103859073Y-103456873D01*
X103830863Y-103480024D01*
X103798681Y-103497226D01*
X103763762Y-103507819D01*
X103721305Y-103512000D01*
X102255095Y-103512000D01*
X102212638Y-103507819D01*
X102177719Y-103497226D01*
X102145537Y-103480024D01*
X102117327Y-103456873D01*
X102094176Y-103428663D01*
X102076974Y-103396481D01*
X102066381Y-103361562D01*
X102062200Y-103319105D01*
X102062200Y-102177895D01*
X102066381Y-102135438D01*
X102076974Y-102100519D01*
X102094176Y-102068337D01*
X102117327Y-102040127D01*
X102145537Y-102016976D01*
X102177719Y-101999774D01*
X102212638Y-101989181D01*
X102255095Y-101985000D01*
X103721305Y-101985000D01*
X103763762Y-101989181D01*
X103763762Y-101989181D01*
G37*
G36*
X99775962Y-101989181D02*
G01*
X99810881Y-101999774D01*
X99843063Y-102016976D01*
X99871273Y-102040127D01*
X99894424Y-102068337D01*
X99911626Y-102100519D01*
X99922219Y-102135438D01*
X99926400Y-102177895D01*
X99926400Y-103319105D01*
X99922219Y-103361562D01*
X99911626Y-103396481D01*
X99894424Y-103428663D01*
X99871273Y-103456873D01*
X99843063Y-103480024D01*
X99810881Y-103497226D01*
X99775962Y-103507819D01*
X99733505Y-103512000D01*
X98267295Y-103512000D01*
X98224838Y-103507819D01*
X98189919Y-103497226D01*
X98157737Y-103480024D01*
X98129527Y-103456873D01*
X98106376Y-103428663D01*
X98089174Y-103396481D01*
X98078581Y-103361562D01*
X98074400Y-103319105D01*
X98074400Y-102177895D01*
X98078581Y-102135438D01*
X98089174Y-102100519D01*
X98106376Y-102068337D01*
X98129527Y-102040127D01*
X98157737Y-102016976D01*
X98189919Y-101999774D01*
X98224838Y-101989181D01*
X98267295Y-101985000D01*
X99733505Y-101985000D01*
X99775962Y-101989181D01*
X99775962Y-101989181D01*
G37*
G36*
X88053674Y-100931465D02*
G01*
X88091367Y-100942899D01*
X88126103Y-100961466D01*
X88156548Y-100986452D01*
X88181534Y-101016897D01*
X88200101Y-101051633D01*
X88211535Y-101089326D01*
X88216000Y-101134661D01*
X88216000Y-101971339D01*
X88211535Y-102016674D01*
X88200101Y-102054367D01*
X88181534Y-102089103D01*
X88156548Y-102119548D01*
X88126103Y-102144534D01*
X88091367Y-102163101D01*
X88053674Y-102174535D01*
X88008339Y-102179000D01*
X86921661Y-102179000D01*
X86876326Y-102174535D01*
X86838633Y-102163101D01*
X86803897Y-102144534D01*
X86773452Y-102119548D01*
X86748466Y-102089103D01*
X86729899Y-102054367D01*
X86718465Y-102016674D01*
X86714000Y-101971339D01*
X86714000Y-101134661D01*
X86718465Y-101089326D01*
X86729899Y-101051633D01*
X86748466Y-101016897D01*
X86773452Y-100986452D01*
X86803897Y-100961466D01*
X86838633Y-100942899D01*
X86876326Y-100931465D01*
X86921661Y-100927000D01*
X88008339Y-100927000D01*
X88053674Y-100931465D01*
X88053674Y-100931465D01*
G37*
G36*
X82465674Y-100931465D02*
G01*
X82503367Y-100942899D01*
X82538103Y-100961466D01*
X82568548Y-100986452D01*
X82593534Y-101016897D01*
X82612101Y-101051633D01*
X82623535Y-101089326D01*
X82628000Y-101134661D01*
X82628000Y-101971339D01*
X82623535Y-102016674D01*
X82612101Y-102054367D01*
X82593534Y-102089103D01*
X82568548Y-102119548D01*
X82538103Y-102144534D01*
X82503367Y-102163101D01*
X82465674Y-102174535D01*
X82420339Y-102179000D01*
X81333661Y-102179000D01*
X81288326Y-102174535D01*
X81250633Y-102163101D01*
X81215897Y-102144534D01*
X81185452Y-102119548D01*
X81160466Y-102089103D01*
X81141899Y-102054367D01*
X81130465Y-102016674D01*
X81126000Y-101971339D01*
X81126000Y-101134661D01*
X81130465Y-101089326D01*
X81141899Y-101051633D01*
X81160466Y-101016897D01*
X81185452Y-100986452D01*
X81215897Y-100961466D01*
X81250633Y-100942899D01*
X81288326Y-100931465D01*
X81333661Y-100927000D01*
X82420339Y-100927000D01*
X82465674Y-100931465D01*
X82465674Y-100931465D01*
G37*
G36*
X76877674Y-100931465D02*
G01*
X76915367Y-100942899D01*
X76950103Y-100961466D01*
X76980548Y-100986452D01*
X77005534Y-101016897D01*
X77024101Y-101051633D01*
X77035535Y-101089326D01*
X77040000Y-101134661D01*
X77040000Y-101971339D01*
X77035535Y-102016674D01*
X77024101Y-102054367D01*
X77005534Y-102089103D01*
X76980548Y-102119548D01*
X76950103Y-102144534D01*
X76915367Y-102163101D01*
X76877674Y-102174535D01*
X76832339Y-102179000D01*
X75745661Y-102179000D01*
X75700326Y-102174535D01*
X75662633Y-102163101D01*
X75627897Y-102144534D01*
X75597452Y-102119548D01*
X75572466Y-102089103D01*
X75553899Y-102054367D01*
X75542465Y-102016674D01*
X75538000Y-101971339D01*
X75538000Y-101134661D01*
X75542465Y-101089326D01*
X75553899Y-101051633D01*
X75572466Y-101016897D01*
X75597452Y-100986452D01*
X75627897Y-100961466D01*
X75662633Y-100942899D01*
X75700326Y-100931465D01*
X75745661Y-100927000D01*
X76832339Y-100927000D01*
X76877674Y-100931465D01*
X76877674Y-100931465D01*
G37*
G36*
X111755962Y-99034081D02*
G01*
X111790881Y-99044674D01*
X111823063Y-99061876D01*
X111851273Y-99085027D01*
X111874424Y-99113237D01*
X111891626Y-99145419D01*
X111902219Y-99180338D01*
X111906400Y-99222795D01*
X111906400Y-100364005D01*
X111902219Y-100406462D01*
X111891626Y-100441381D01*
X111874424Y-100473563D01*
X111851273Y-100501773D01*
X111823063Y-100524924D01*
X111790881Y-100542126D01*
X111755962Y-100552719D01*
X111713505Y-100556900D01*
X110247295Y-100556900D01*
X110204838Y-100552719D01*
X110169919Y-100542126D01*
X110137737Y-100524924D01*
X110109527Y-100501773D01*
X110086376Y-100473563D01*
X110069174Y-100441381D01*
X110058581Y-100406462D01*
X110054400Y-100364005D01*
X110054400Y-99222795D01*
X110058581Y-99180338D01*
X110069174Y-99145419D01*
X110086376Y-99113237D01*
X110109527Y-99085027D01*
X110137737Y-99061876D01*
X110169919Y-99044674D01*
X110204838Y-99034081D01*
X110247295Y-99029900D01*
X111713505Y-99029900D01*
X111755962Y-99034081D01*
X111755962Y-99034081D01*
G37*
G36*
X107768162Y-99022981D02*
G01*
X107803081Y-99033574D01*
X107835263Y-99050776D01*
X107863473Y-99073927D01*
X107886624Y-99102137D01*
X107903826Y-99134319D01*
X107914419Y-99169238D01*
X107918600Y-99211695D01*
X107918600Y-100352905D01*
X107914419Y-100395362D01*
X107903826Y-100430281D01*
X107886624Y-100462463D01*
X107863473Y-100490673D01*
X107835263Y-100513824D01*
X107803081Y-100531026D01*
X107768162Y-100541619D01*
X107725705Y-100545800D01*
X106259495Y-100545800D01*
X106217038Y-100541619D01*
X106182119Y-100531026D01*
X106149937Y-100513824D01*
X106121727Y-100490673D01*
X106098576Y-100462463D01*
X106081374Y-100430281D01*
X106070781Y-100395362D01*
X106066600Y-100352905D01*
X106066600Y-99211695D01*
X106070781Y-99169238D01*
X106081374Y-99134319D01*
X106098576Y-99102137D01*
X106121727Y-99073927D01*
X106149937Y-99050776D01*
X106182119Y-99033574D01*
X106217038Y-99022981D01*
X106259495Y-99018800D01*
X107725705Y-99018800D01*
X107768162Y-99022981D01*
X107768162Y-99022981D01*
G37*
G36*
X95750062Y-99014181D02*
G01*
X95784981Y-99024774D01*
X95817163Y-99041976D01*
X95845373Y-99065127D01*
X95868524Y-99093337D01*
X95885726Y-99125519D01*
X95896319Y-99160438D01*
X95900500Y-99202895D01*
X95900500Y-100344105D01*
X95896319Y-100386562D01*
X95885726Y-100421481D01*
X95868524Y-100453663D01*
X95845373Y-100481873D01*
X95817163Y-100505024D01*
X95784981Y-100522226D01*
X95750062Y-100532819D01*
X95707605Y-100537000D01*
X94241395Y-100537000D01*
X94198938Y-100532819D01*
X94164019Y-100522226D01*
X94131837Y-100505024D01*
X94103627Y-100481873D01*
X94080476Y-100453663D01*
X94063274Y-100421481D01*
X94052681Y-100386562D01*
X94048500Y-100344105D01*
X94048500Y-99202895D01*
X94052681Y-99160438D01*
X94063274Y-99125519D01*
X94080476Y-99093337D01*
X94103627Y-99065127D01*
X94131837Y-99041976D01*
X94164019Y-99024774D01*
X94198938Y-99014181D01*
X94241395Y-99010000D01*
X95707605Y-99010000D01*
X95750062Y-99014181D01*
X95750062Y-99014181D01*
G37*
G36*
X103763762Y-99014181D02*
G01*
X103798681Y-99024774D01*
X103830863Y-99041976D01*
X103859073Y-99065127D01*
X103882224Y-99093337D01*
X103899426Y-99125519D01*
X103910019Y-99160438D01*
X103914200Y-99202895D01*
X103914200Y-100344105D01*
X103910019Y-100386562D01*
X103899426Y-100421481D01*
X103882224Y-100453663D01*
X103859073Y-100481873D01*
X103830863Y-100505024D01*
X103798681Y-100522226D01*
X103763762Y-100532819D01*
X103721305Y-100537000D01*
X102255095Y-100537000D01*
X102212638Y-100532819D01*
X102177719Y-100522226D01*
X102145537Y-100505024D01*
X102117327Y-100481873D01*
X102094176Y-100453663D01*
X102076974Y-100421481D01*
X102066381Y-100386562D01*
X102062200Y-100344105D01*
X102062200Y-99202895D01*
X102066381Y-99160438D01*
X102076974Y-99125519D01*
X102094176Y-99093337D01*
X102117327Y-99065127D01*
X102145537Y-99041976D01*
X102177719Y-99024774D01*
X102212638Y-99014181D01*
X102255095Y-99010000D01*
X103721305Y-99010000D01*
X103763762Y-99014181D01*
X103763762Y-99014181D01*
G37*
G36*
X99775962Y-99014181D02*
G01*
X99810881Y-99024774D01*
X99843063Y-99041976D01*
X99871273Y-99065127D01*
X99894424Y-99093337D01*
X99911626Y-99125519D01*
X99922219Y-99160438D01*
X99926400Y-99202895D01*
X99926400Y-100344105D01*
X99922219Y-100386562D01*
X99911626Y-100421481D01*
X99894424Y-100453663D01*
X99871273Y-100481873D01*
X99843063Y-100505024D01*
X99810881Y-100522226D01*
X99775962Y-100532819D01*
X99733505Y-100537000D01*
X98267295Y-100537000D01*
X98224838Y-100532819D01*
X98189919Y-100522226D01*
X98157737Y-100505024D01*
X98129527Y-100481873D01*
X98106376Y-100453663D01*
X98089174Y-100421481D01*
X98078581Y-100386562D01*
X98074400Y-100344105D01*
X98074400Y-99202895D01*
X98078581Y-99160438D01*
X98089174Y-99125519D01*
X98106376Y-99093337D01*
X98129527Y-99065127D01*
X98157737Y-99041976D01*
X98189919Y-99024774D01*
X98224838Y-99014181D01*
X98267295Y-99010000D01*
X99733505Y-99010000D01*
X99775962Y-99014181D01*
X99775962Y-99014181D01*
G37*
G36*
X104364000Y-97735000D02*
G01*
X103662000Y-97735000D01*
X103662000Y-96133000D01*
X104364000Y-96133000D01*
X104364000Y-97735000D01*
X104364000Y-97735000D01*
G37*
G36*
X98014000Y-97735000D02*
G01*
X97312000Y-97735000D01*
X97312000Y-96133000D01*
X98014000Y-96133000D01*
X98014000Y-97735000D01*
X98014000Y-97735000D01*
G37*
G36*
X99284000Y-97735000D02*
G01*
X98582000Y-97735000D01*
X98582000Y-96133000D01*
X99284000Y-96133000D01*
X99284000Y-97735000D01*
X99284000Y-97735000D01*
G37*
G36*
X100554000Y-97735000D02*
G01*
X99852000Y-97735000D01*
X99852000Y-96133000D01*
X100554000Y-96133000D01*
X100554000Y-97735000D01*
X100554000Y-97735000D01*
G37*
G36*
X103094000Y-97735000D02*
G01*
X102392000Y-97735000D01*
X102392000Y-96133000D01*
X103094000Y-96133000D01*
X103094000Y-97735000D01*
X103094000Y-97735000D01*
G37*
G36*
X105634000Y-97735000D02*
G01*
X104932000Y-97735000D01*
X104932000Y-96133000D01*
X105634000Y-96133000D01*
X105634000Y-97735000D01*
X105634000Y-97735000D01*
G37*
G36*
X101824000Y-97735000D02*
G01*
X101122000Y-97735000D01*
X101122000Y-96133000D01*
X101824000Y-96133000D01*
X101824000Y-97735000D01*
X101824000Y-97735000D01*
G37*
G36*
X108326674Y-94797465D02*
G01*
X108364367Y-94808899D01*
X108399103Y-94827466D01*
X108429548Y-94852452D01*
X108454534Y-94882897D01*
X108473101Y-94917633D01*
X108484535Y-94955326D01*
X108489000Y-95000661D01*
X108489000Y-95837339D01*
X108484535Y-95882674D01*
X108473101Y-95920367D01*
X108454534Y-95955103D01*
X108429548Y-95985548D01*
X108399103Y-96010534D01*
X108364367Y-96029101D01*
X108326674Y-96040535D01*
X108281339Y-96045000D01*
X107194661Y-96045000D01*
X107149326Y-96040535D01*
X107111633Y-96029101D01*
X107076897Y-96010534D01*
X107046452Y-95985548D01*
X107021466Y-95955103D01*
X107002899Y-95920367D01*
X106991465Y-95882674D01*
X106987000Y-95837339D01*
X106987000Y-95000661D01*
X106991465Y-94955326D01*
X107002899Y-94917633D01*
X107021466Y-94882897D01*
X107046452Y-94852452D01*
X107076897Y-94827466D01*
X107111633Y-94808899D01*
X107149326Y-94797465D01*
X107194661Y-94793000D01*
X108281339Y-94793000D01*
X108326674Y-94797465D01*
X108326674Y-94797465D01*
G37*
G36*
X82242674Y-94249465D02*
G01*
X82280367Y-94260899D01*
X82315103Y-94279466D01*
X82345548Y-94304452D01*
X82370534Y-94334897D01*
X82389101Y-94369633D01*
X82400535Y-94407326D01*
X82405000Y-94452661D01*
X82405000Y-95539339D01*
X82400535Y-95584674D01*
X82389101Y-95622367D01*
X82370534Y-95657103D01*
X82345548Y-95687548D01*
X82315103Y-95712534D01*
X82280367Y-95731101D01*
X82242674Y-95742535D01*
X82197339Y-95747000D01*
X81360661Y-95747000D01*
X81315326Y-95742535D01*
X81277633Y-95731101D01*
X81242897Y-95712534D01*
X81212452Y-95687548D01*
X81187466Y-95657103D01*
X81168899Y-95622367D01*
X81157465Y-95584674D01*
X81153000Y-95539339D01*
X81153000Y-94452661D01*
X81157465Y-94407326D01*
X81168899Y-94369633D01*
X81187466Y-94334897D01*
X81212452Y-94304452D01*
X81242897Y-94279466D01*
X81277633Y-94260899D01*
X81315326Y-94249465D01*
X81360661Y-94245000D01*
X82197339Y-94245000D01*
X82242674Y-94249465D01*
X82242674Y-94249465D01*
G37*
G36*
X84292674Y-94249465D02*
G01*
X84330367Y-94260899D01*
X84365103Y-94279466D01*
X84395548Y-94304452D01*
X84420534Y-94334897D01*
X84439101Y-94369633D01*
X84450535Y-94407326D01*
X84455000Y-94452661D01*
X84455000Y-95539339D01*
X84450535Y-95584674D01*
X84439101Y-95622367D01*
X84420534Y-95657103D01*
X84395548Y-95687548D01*
X84365103Y-95712534D01*
X84330367Y-95731101D01*
X84292674Y-95742535D01*
X84247339Y-95747000D01*
X83410661Y-95747000D01*
X83365326Y-95742535D01*
X83327633Y-95731101D01*
X83292897Y-95712534D01*
X83262452Y-95687548D01*
X83237466Y-95657103D01*
X83218899Y-95622367D01*
X83207465Y-95584674D01*
X83203000Y-95539339D01*
X83203000Y-94452661D01*
X83207465Y-94407326D01*
X83218899Y-94369633D01*
X83237466Y-94334897D01*
X83262452Y-94304452D01*
X83292897Y-94279466D01*
X83327633Y-94260899D01*
X83365326Y-94249465D01*
X83410661Y-94245000D01*
X84247339Y-94245000D01*
X84292674Y-94249465D01*
X84292674Y-94249465D01*
G37*
G36*
X92081674Y-93783465D02*
G01*
X92119367Y-93794899D01*
X92154103Y-93813466D01*
X92184548Y-93838452D01*
X92209534Y-93868897D01*
X92228101Y-93903633D01*
X92239535Y-93941326D01*
X92244000Y-93986661D01*
X92244000Y-95073339D01*
X92239535Y-95118674D01*
X92228101Y-95156367D01*
X92209534Y-95191103D01*
X92184548Y-95221548D01*
X92154103Y-95246534D01*
X92119367Y-95265101D01*
X92081674Y-95276535D01*
X92036339Y-95281000D01*
X91199661Y-95281000D01*
X91154326Y-95276535D01*
X91116633Y-95265101D01*
X91081897Y-95246534D01*
X91051452Y-95221548D01*
X91026466Y-95191103D01*
X91007899Y-95156367D01*
X90996465Y-95118674D01*
X90992000Y-95073339D01*
X90992000Y-93986661D01*
X90996465Y-93941326D01*
X91007899Y-93903633D01*
X91026466Y-93868897D01*
X91051452Y-93838452D01*
X91081897Y-93813466D01*
X91116633Y-93794899D01*
X91154326Y-93783465D01*
X91199661Y-93779000D01*
X92036339Y-93779000D01*
X92081674Y-93783465D01*
X92081674Y-93783465D01*
G37*
G36*
X90031674Y-93783465D02*
G01*
X90069367Y-93794899D01*
X90104103Y-93813466D01*
X90134548Y-93838452D01*
X90159534Y-93868897D01*
X90178101Y-93903633D01*
X90189535Y-93941326D01*
X90194000Y-93986661D01*
X90194000Y-95073339D01*
X90189535Y-95118674D01*
X90178101Y-95156367D01*
X90159534Y-95191103D01*
X90134548Y-95221548D01*
X90104103Y-95246534D01*
X90069367Y-95265101D01*
X90031674Y-95276535D01*
X89986339Y-95281000D01*
X89149661Y-95281000D01*
X89104326Y-95276535D01*
X89066633Y-95265101D01*
X89031897Y-95246534D01*
X89001452Y-95221548D01*
X88976466Y-95191103D01*
X88957899Y-95156367D01*
X88946465Y-95118674D01*
X88942000Y-95073339D01*
X88942000Y-93986661D01*
X88946465Y-93941326D01*
X88957899Y-93903633D01*
X88976466Y-93868897D01*
X89001452Y-93838452D01*
X89031897Y-93813466D01*
X89066633Y-93794899D01*
X89104326Y-93783465D01*
X89149661Y-93779000D01*
X89986339Y-93779000D01*
X90031674Y-93783465D01*
X90031674Y-93783465D01*
G37*
G36*
X73911674Y-93592965D02*
G01*
X73949367Y-93604399D01*
X73984103Y-93622966D01*
X74014548Y-93647952D01*
X74039534Y-93678397D01*
X74058101Y-93713133D01*
X74069535Y-93750826D01*
X74074000Y-93796161D01*
X74074000Y-94882839D01*
X74069535Y-94928174D01*
X74058101Y-94965867D01*
X74039534Y-95000603D01*
X74014548Y-95031048D01*
X73984103Y-95056034D01*
X73949367Y-95074601D01*
X73911674Y-95086035D01*
X73866339Y-95090500D01*
X73029661Y-95090500D01*
X72984326Y-95086035D01*
X72946633Y-95074601D01*
X72911897Y-95056034D01*
X72881452Y-95031048D01*
X72856466Y-95000603D01*
X72837899Y-94965867D01*
X72826465Y-94928174D01*
X72822000Y-94882839D01*
X72822000Y-93796161D01*
X72826465Y-93750826D01*
X72837899Y-93713133D01*
X72856466Y-93678397D01*
X72881452Y-93647952D01*
X72911897Y-93622966D01*
X72946633Y-93604399D01*
X72984326Y-93592965D01*
X73029661Y-93588500D01*
X73866339Y-93588500D01*
X73911674Y-93592965D01*
X73911674Y-93592965D01*
G37*
G36*
X75961674Y-93592965D02*
G01*
X75999367Y-93604399D01*
X76034103Y-93622966D01*
X76064548Y-93647952D01*
X76089534Y-93678397D01*
X76108101Y-93713133D01*
X76119535Y-93750826D01*
X76124000Y-93796161D01*
X76124000Y-94882839D01*
X76119535Y-94928174D01*
X76108101Y-94965867D01*
X76089534Y-95000603D01*
X76064548Y-95031048D01*
X76034103Y-95056034D01*
X75999367Y-95074601D01*
X75961674Y-95086035D01*
X75916339Y-95090500D01*
X75079661Y-95090500D01*
X75034326Y-95086035D01*
X74996633Y-95074601D01*
X74961897Y-95056034D01*
X74931452Y-95031048D01*
X74906466Y-95000603D01*
X74887899Y-94965867D01*
X74876465Y-94928174D01*
X74872000Y-94882839D01*
X74872000Y-93796161D01*
X74876465Y-93750826D01*
X74887899Y-93713133D01*
X74906466Y-93678397D01*
X74931452Y-93647952D01*
X74961897Y-93622966D01*
X74996633Y-93604399D01*
X75034326Y-93592965D01*
X75079661Y-93588500D01*
X75916339Y-93588500D01*
X75961674Y-93592965D01*
X75961674Y-93592965D01*
G37*
G36*
X108326674Y-92747465D02*
G01*
X108364367Y-92758899D01*
X108399103Y-92777466D01*
X108429548Y-92802452D01*
X108454534Y-92832897D01*
X108473101Y-92867633D01*
X108484535Y-92905326D01*
X108489000Y-92950661D01*
X108489000Y-93787339D01*
X108484535Y-93832674D01*
X108473101Y-93870367D01*
X108454534Y-93905103D01*
X108429548Y-93935548D01*
X108399103Y-93960534D01*
X108364367Y-93979101D01*
X108326674Y-93990535D01*
X108281339Y-93995000D01*
X107194661Y-93995000D01*
X107149326Y-93990535D01*
X107111633Y-93979101D01*
X107076897Y-93960534D01*
X107046452Y-93935548D01*
X107021466Y-93905103D01*
X107002899Y-93870367D01*
X106991465Y-93832674D01*
X106987000Y-93787339D01*
X106987000Y-92950661D01*
X106991465Y-92905326D01*
X107002899Y-92867633D01*
X107021466Y-92832897D01*
X107046452Y-92802452D01*
X107076897Y-92777466D01*
X107111633Y-92758899D01*
X107149326Y-92747465D01*
X107194661Y-92743000D01*
X108281339Y-92743000D01*
X108326674Y-92747465D01*
X108326674Y-92747465D01*
G37*
G36*
X100554000Y-92335000D02*
G01*
X99852000Y-92335000D01*
X99852000Y-90733000D01*
X100554000Y-90733000D01*
X100554000Y-92335000D01*
X100554000Y-92335000D01*
G37*
G36*
X99284000Y-92335000D02*
G01*
X98582000Y-92335000D01*
X98582000Y-90733000D01*
X99284000Y-90733000D01*
X99284000Y-92335000D01*
X99284000Y-92335000D01*
G37*
G36*
X98014000Y-92335000D02*
G01*
X97312000Y-92335000D01*
X97312000Y-90733000D01*
X98014000Y-90733000D01*
X98014000Y-92335000D01*
X98014000Y-92335000D01*
G37*
G36*
X101824000Y-92335000D02*
G01*
X101122000Y-92335000D01*
X101122000Y-90733000D01*
X101824000Y-90733000D01*
X101824000Y-92335000D01*
X101824000Y-92335000D01*
G37*
G36*
X103094000Y-92335000D02*
G01*
X102392000Y-92335000D01*
X102392000Y-90733000D01*
X103094000Y-90733000D01*
X103094000Y-92335000D01*
X103094000Y-92335000D01*
G37*
G36*
X104364000Y-92335000D02*
G01*
X103662000Y-92335000D01*
X103662000Y-90733000D01*
X104364000Y-90733000D01*
X104364000Y-92335000D01*
X104364000Y-92335000D01*
G37*
G36*
X105634000Y-92335000D02*
G01*
X104932000Y-92335000D01*
X104932000Y-90733000D01*
X105634000Y-90733000D01*
X105634000Y-92335000D01*
X105634000Y-92335000D01*
G37*
G36*
X80439585Y-86912802D02*
G01*
X80589410Y-86942604D01*
X80871674Y-87059521D01*
X81125705Y-87229259D01*
X81341741Y-87445295D01*
X81511479Y-87699326D01*
X81628396Y-87981590D01*
X81628396Y-87981591D01*
X81679646Y-88239239D01*
X81688000Y-88281240D01*
X81688000Y-88586760D01*
X81628396Y-88886410D01*
X81511479Y-89168674D01*
X81341741Y-89422705D01*
X81125705Y-89638741D01*
X80871674Y-89808479D01*
X80589410Y-89925396D01*
X80439585Y-89955198D01*
X80289761Y-89985000D01*
X79984239Y-89985000D01*
X79834415Y-89955198D01*
X79684590Y-89925396D01*
X79402326Y-89808479D01*
X79148295Y-89638741D01*
X78932259Y-89422705D01*
X78762521Y-89168674D01*
X78645604Y-88886410D01*
X78586000Y-88586760D01*
X78586000Y-88281240D01*
X78594355Y-88239239D01*
X78645604Y-87981591D01*
X78645604Y-87981590D01*
X78762521Y-87699326D01*
X78932259Y-87445295D01*
X79148295Y-87229259D01*
X79402326Y-87059521D01*
X79684590Y-86942604D01*
X79834415Y-86912802D01*
X79984239Y-86883000D01*
X80289761Y-86883000D01*
X80439585Y-86912802D01*
X80439585Y-86912802D01*
G37*
G36*
X108633585Y-86870802D02*
G01*
X108783410Y-86900604D01*
X109065674Y-87017521D01*
X109319705Y-87187259D01*
X109535741Y-87403295D01*
X109705479Y-87657326D01*
X109822396Y-87939590D01*
X109852198Y-88089415D01*
X109882000Y-88239239D01*
X109882000Y-88544761D01*
X109852198Y-88694585D01*
X109822396Y-88844410D01*
X109705479Y-89126674D01*
X109535741Y-89380705D01*
X109319705Y-89596741D01*
X109065674Y-89766479D01*
X108783410Y-89883396D01*
X108633585Y-89913198D01*
X108483761Y-89943000D01*
X108178239Y-89943000D01*
X108028415Y-89913198D01*
X107878590Y-89883396D01*
X107596326Y-89766479D01*
X107342295Y-89596741D01*
X107126259Y-89380705D01*
X106956521Y-89126674D01*
X106839604Y-88844410D01*
X106809802Y-88694585D01*
X106780000Y-88544761D01*
X106780000Y-88239239D01*
X106809802Y-88089415D01*
X106839604Y-87939590D01*
X106956521Y-87657326D01*
X107126259Y-87403295D01*
X107342295Y-87187259D01*
X107596326Y-87017521D01*
X107878590Y-86900604D01*
X108028415Y-86870802D01*
X108178239Y-86841000D01*
X108483761Y-86841000D01*
X108633585Y-86870802D01*
X108633585Y-86870802D01*
G37*
G36*
X94409585Y-86870802D02*
G01*
X94559410Y-86900604D01*
X94841674Y-87017521D01*
X95095705Y-87187259D01*
X95311741Y-87403295D01*
X95481479Y-87657326D01*
X95598396Y-87939590D01*
X95628198Y-88089415D01*
X95658000Y-88239239D01*
X95658000Y-88544761D01*
X95628198Y-88694585D01*
X95598396Y-88844410D01*
X95481479Y-89126674D01*
X95311741Y-89380705D01*
X95095705Y-89596741D01*
X94841674Y-89766479D01*
X94559410Y-89883396D01*
X94409585Y-89913198D01*
X94259761Y-89943000D01*
X93954239Y-89943000D01*
X93804415Y-89913198D01*
X93654590Y-89883396D01*
X93372326Y-89766479D01*
X93118295Y-89596741D01*
X92902259Y-89380705D01*
X92732521Y-89126674D01*
X92615604Y-88844410D01*
X92585802Y-88694585D01*
X92556000Y-88544761D01*
X92556000Y-88239239D01*
X92585802Y-88089415D01*
X92615604Y-87939590D01*
X92732521Y-87657326D01*
X92902259Y-87403295D01*
X93118295Y-87187259D01*
X93372326Y-87017521D01*
X93654590Y-86900604D01*
X93804415Y-86870802D01*
X93954239Y-86841000D01*
X94259761Y-86841000D01*
X94409585Y-86870802D01*
X94409585Y-86870802D01*
G37*
G36*
X77931674Y-84223465D02*
G01*
X77969367Y-84234899D01*
X78004103Y-84253466D01*
X78034548Y-84278452D01*
X78059534Y-84308897D01*
X78078101Y-84343633D01*
X78089535Y-84381326D01*
X78094000Y-84426661D01*
X78094000Y-85263339D01*
X78089535Y-85308674D01*
X78078101Y-85346367D01*
X78059534Y-85381103D01*
X78034548Y-85411548D01*
X78004103Y-85436534D01*
X77969367Y-85455101D01*
X77931674Y-85466535D01*
X77886339Y-85471000D01*
X76799661Y-85471000D01*
X76754326Y-85466535D01*
X76716633Y-85455101D01*
X76681897Y-85436534D01*
X76651452Y-85411548D01*
X76626466Y-85381103D01*
X76607899Y-85346367D01*
X76596465Y-85308674D01*
X76592000Y-85263339D01*
X76592000Y-84426661D01*
X76596465Y-84381326D01*
X76607899Y-84343633D01*
X76626466Y-84308897D01*
X76651452Y-84278452D01*
X76681897Y-84253466D01*
X76716633Y-84234899D01*
X76754326Y-84223465D01*
X76799661Y-84219000D01*
X77886339Y-84219000D01*
X77931674Y-84223465D01*
X77931674Y-84223465D01*
G37*
G36*
X91647674Y-84223465D02*
G01*
X91685367Y-84234899D01*
X91720103Y-84253466D01*
X91750548Y-84278452D01*
X91775534Y-84308897D01*
X91794101Y-84343633D01*
X91805535Y-84381326D01*
X91810000Y-84426661D01*
X91810000Y-85263339D01*
X91805535Y-85308674D01*
X91794101Y-85346367D01*
X91775534Y-85381103D01*
X91750548Y-85411548D01*
X91720103Y-85436534D01*
X91685367Y-85455101D01*
X91647674Y-85466535D01*
X91602339Y-85471000D01*
X90515661Y-85471000D01*
X90470326Y-85466535D01*
X90432633Y-85455101D01*
X90397897Y-85436534D01*
X90367452Y-85411548D01*
X90342466Y-85381103D01*
X90323899Y-85346367D01*
X90312465Y-85308674D01*
X90308000Y-85263339D01*
X90308000Y-84426661D01*
X90312465Y-84381326D01*
X90323899Y-84343633D01*
X90342466Y-84308897D01*
X90367452Y-84278452D01*
X90397897Y-84253466D01*
X90432633Y-84234899D01*
X90470326Y-84223465D01*
X90515661Y-84219000D01*
X91602339Y-84219000D01*
X91647674Y-84223465D01*
X91647674Y-84223465D01*
G37*
G36*
X105871674Y-84223465D02*
G01*
X105909367Y-84234899D01*
X105944103Y-84253466D01*
X105974548Y-84278452D01*
X105999534Y-84308897D01*
X106018101Y-84343633D01*
X106029535Y-84381326D01*
X106034000Y-84426661D01*
X106034000Y-85263339D01*
X106029535Y-85308674D01*
X106018101Y-85346367D01*
X105999534Y-85381103D01*
X105974548Y-85411548D01*
X105944103Y-85436534D01*
X105909367Y-85455101D01*
X105871674Y-85466535D01*
X105826339Y-85471000D01*
X104739661Y-85471000D01*
X104694326Y-85466535D01*
X104656633Y-85455101D01*
X104621897Y-85436534D01*
X104591452Y-85411548D01*
X104566466Y-85381103D01*
X104547899Y-85346367D01*
X104536465Y-85308674D01*
X104532000Y-85263339D01*
X104532000Y-84426661D01*
X104536465Y-84381326D01*
X104547899Y-84343633D01*
X104566466Y-84308897D01*
X104591452Y-84278452D01*
X104621897Y-84253466D01*
X104656633Y-84234899D01*
X104694326Y-84223465D01*
X104739661Y-84219000D01*
X105826339Y-84219000D01*
X105871674Y-84223465D01*
X105871674Y-84223465D01*
G37*
G36*
X112624562Y-83584681D02*
G01*
X112659481Y-83595274D01*
X112691663Y-83612476D01*
X112719873Y-83635627D01*
X112743024Y-83663837D01*
X112760226Y-83696019D01*
X112770819Y-83730938D01*
X112775000Y-83773395D01*
X112775000Y-84914605D01*
X112770819Y-84957062D01*
X112760226Y-84991981D01*
X112743024Y-85024163D01*
X112719873Y-85052373D01*
X112691663Y-85075524D01*
X112659481Y-85092726D01*
X112624562Y-85103319D01*
X112582105Y-85107500D01*
X111115895Y-85107500D01*
X111073438Y-85103319D01*
X111038519Y-85092726D01*
X111006337Y-85075524D01*
X110978127Y-85052373D01*
X110954976Y-85024163D01*
X110937774Y-84991981D01*
X110927181Y-84957062D01*
X110923000Y-84914605D01*
X110923000Y-83773395D01*
X110927181Y-83730938D01*
X110937774Y-83696019D01*
X110954976Y-83663837D01*
X110978127Y-83635627D01*
X111006337Y-83612476D01*
X111038519Y-83595274D01*
X111073438Y-83584681D01*
X111115895Y-83580500D01*
X112582105Y-83580500D01*
X112624562Y-83584681D01*
X112624562Y-83584681D01*
G37*
G36*
X77931674Y-82173465D02*
G01*
X77969367Y-82184899D01*
X78004103Y-82203466D01*
X78034548Y-82228452D01*
X78059534Y-82258897D01*
X78078101Y-82293633D01*
X78089535Y-82331326D01*
X78094000Y-82376661D01*
X78094000Y-83213339D01*
X78089535Y-83258674D01*
X78078101Y-83296367D01*
X78059534Y-83331103D01*
X78034548Y-83361548D01*
X78004103Y-83386534D01*
X77969367Y-83405101D01*
X77931674Y-83416535D01*
X77886339Y-83421000D01*
X76799661Y-83421000D01*
X76754326Y-83416535D01*
X76716633Y-83405101D01*
X76681897Y-83386534D01*
X76651452Y-83361548D01*
X76626466Y-83331103D01*
X76607899Y-83296367D01*
X76596465Y-83258674D01*
X76592000Y-83213339D01*
X76592000Y-82376661D01*
X76596465Y-82331326D01*
X76607899Y-82293633D01*
X76626466Y-82258897D01*
X76651452Y-82228452D01*
X76681897Y-82203466D01*
X76716633Y-82184899D01*
X76754326Y-82173465D01*
X76799661Y-82169000D01*
X77886339Y-82169000D01*
X77931674Y-82173465D01*
X77931674Y-82173465D01*
G37*
G36*
X91647674Y-82173465D02*
G01*
X91685367Y-82184899D01*
X91720103Y-82203466D01*
X91750548Y-82228452D01*
X91775534Y-82258897D01*
X91794101Y-82293633D01*
X91805535Y-82331326D01*
X91810000Y-82376661D01*
X91810000Y-83213339D01*
X91805535Y-83258674D01*
X91794101Y-83296367D01*
X91775534Y-83331103D01*
X91750548Y-83361548D01*
X91720103Y-83386534D01*
X91685367Y-83405101D01*
X91647674Y-83416535D01*
X91602339Y-83421000D01*
X90515661Y-83421000D01*
X90470326Y-83416535D01*
X90432633Y-83405101D01*
X90397897Y-83386534D01*
X90367452Y-83361548D01*
X90342466Y-83331103D01*
X90323899Y-83296367D01*
X90312465Y-83258674D01*
X90308000Y-83213339D01*
X90308000Y-82376661D01*
X90312465Y-82331326D01*
X90323899Y-82293633D01*
X90342466Y-82258897D01*
X90367452Y-82228452D01*
X90397897Y-82203466D01*
X90432633Y-82184899D01*
X90470326Y-82173465D01*
X90515661Y-82169000D01*
X91602339Y-82169000D01*
X91647674Y-82173465D01*
X91647674Y-82173465D01*
G37*
G36*
X105871674Y-82173465D02*
G01*
X105909367Y-82184899D01*
X105944103Y-82203466D01*
X105974548Y-82228452D01*
X105999534Y-82258897D01*
X106018101Y-82293633D01*
X106029535Y-82331326D01*
X106034000Y-82376661D01*
X106034000Y-83213339D01*
X106029535Y-83258674D01*
X106018101Y-83296367D01*
X105999534Y-83331103D01*
X105974548Y-83361548D01*
X105944103Y-83386534D01*
X105909367Y-83405101D01*
X105871674Y-83416535D01*
X105826339Y-83421000D01*
X104739661Y-83421000D01*
X104694326Y-83416535D01*
X104656633Y-83405101D01*
X104621897Y-83386534D01*
X104591452Y-83361548D01*
X104566466Y-83331103D01*
X104547899Y-83296367D01*
X104536465Y-83258674D01*
X104532000Y-83213339D01*
X104532000Y-82376661D01*
X104536465Y-82331326D01*
X104547899Y-82293633D01*
X104566466Y-82258897D01*
X104591452Y-82228452D01*
X104621897Y-82203466D01*
X104656633Y-82184899D01*
X104694326Y-82173465D01*
X104739661Y-82169000D01*
X105826339Y-82169000D01*
X105871674Y-82173465D01*
X105871674Y-82173465D01*
G37*
G36*
X115485674Y-81645465D02*
G01*
X115523367Y-81656899D01*
X115558103Y-81675466D01*
X115588548Y-81700452D01*
X115613534Y-81730897D01*
X115632101Y-81765633D01*
X115643535Y-81803326D01*
X115648000Y-81848661D01*
X115648000Y-82685339D01*
X115643535Y-82730674D01*
X115632101Y-82768367D01*
X115613534Y-82803103D01*
X115588548Y-82833548D01*
X115558103Y-82858534D01*
X115523367Y-82877101D01*
X115485674Y-82888535D01*
X115440339Y-82893000D01*
X114353661Y-82893000D01*
X114308326Y-82888535D01*
X114270633Y-82877101D01*
X114235897Y-82858534D01*
X114205452Y-82833548D01*
X114180466Y-82803103D01*
X114161899Y-82768367D01*
X114150465Y-82730674D01*
X114146000Y-82685339D01*
X114146000Y-81848661D01*
X114150465Y-81803326D01*
X114161899Y-81765633D01*
X114180466Y-81730897D01*
X114205452Y-81700452D01*
X114235897Y-81675466D01*
X114270633Y-81656899D01*
X114308326Y-81645465D01*
X114353661Y-81641000D01*
X115440339Y-81641000D01*
X115485674Y-81645465D01*
X115485674Y-81645465D01*
G37*
G36*
X112624562Y-80609681D02*
G01*
X112659481Y-80620274D01*
X112691663Y-80637476D01*
X112719873Y-80660627D01*
X112743024Y-80688837D01*
X112760226Y-80721019D01*
X112770819Y-80755938D01*
X112775000Y-80798395D01*
X112775000Y-81939605D01*
X112770819Y-81982062D01*
X112760226Y-82016981D01*
X112743024Y-82049163D01*
X112719873Y-82077373D01*
X112691663Y-82100524D01*
X112659481Y-82117726D01*
X112624562Y-82128319D01*
X112582105Y-82132500D01*
X111115895Y-82132500D01*
X111073438Y-82128319D01*
X111038519Y-82117726D01*
X111006337Y-82100524D01*
X110978127Y-82077373D01*
X110954976Y-82049163D01*
X110937774Y-82016981D01*
X110927181Y-81982062D01*
X110923000Y-81939605D01*
X110923000Y-80798395D01*
X110927181Y-80755938D01*
X110937774Y-80721019D01*
X110954976Y-80688837D01*
X110978127Y-80660627D01*
X111006337Y-80637476D01*
X111038519Y-80620274D01*
X111073438Y-80609681D01*
X111115895Y-80605500D01*
X112582105Y-80605500D01*
X112624562Y-80609681D01*
X112624562Y-80609681D01*
G37*
G36*
X115485674Y-79595465D02*
G01*
X115523367Y-79606899D01*
X115558103Y-79625466D01*
X115588548Y-79650452D01*
X115613534Y-79680897D01*
X115632101Y-79715633D01*
X115643535Y-79753326D01*
X115648000Y-79798661D01*
X115648000Y-80635339D01*
X115643535Y-80680674D01*
X115632101Y-80718367D01*
X115613534Y-80753103D01*
X115588548Y-80783548D01*
X115558103Y-80808534D01*
X115523367Y-80827101D01*
X115485674Y-80838535D01*
X115440339Y-80843000D01*
X114353661Y-80843000D01*
X114308326Y-80838535D01*
X114270633Y-80827101D01*
X114235897Y-80808534D01*
X114205452Y-80783548D01*
X114180466Y-80753103D01*
X114161899Y-80718367D01*
X114150465Y-80680674D01*
X114146000Y-80635339D01*
X114146000Y-79798661D01*
X114150465Y-79753326D01*
X114161899Y-79715633D01*
X114180466Y-79680897D01*
X114205452Y-79650452D01*
X114235897Y-79625466D01*
X114270633Y-79606899D01*
X114308326Y-79595465D01*
X114353661Y-79591000D01*
X115440339Y-79591000D01*
X115485674Y-79595465D01*
X115485674Y-79595465D01*
G37*
G36*
X108379585Y-77218802D02*
G01*
X108529410Y-77248604D01*
X108811674Y-77365521D01*
X109065705Y-77535259D01*
X109281741Y-77751295D01*
X109451479Y-78005326D01*
X109568396Y-78287590D01*
X109628000Y-78587240D01*
X109628000Y-78892760D01*
X109568396Y-79192410D01*
X109451479Y-79474674D01*
X109281741Y-79728705D01*
X109065705Y-79944741D01*
X108811674Y-80114479D01*
X108529410Y-80231396D01*
X108379585Y-80261198D01*
X108229761Y-80291000D01*
X107924239Y-80291000D01*
X107774415Y-80261198D01*
X107624590Y-80231396D01*
X107342326Y-80114479D01*
X107088295Y-79944741D01*
X106872259Y-79728705D01*
X106702521Y-79474674D01*
X106585604Y-79192410D01*
X106526000Y-78892760D01*
X106526000Y-78587240D01*
X106585604Y-78287590D01*
X106702521Y-78005326D01*
X106872259Y-77751295D01*
X107088295Y-77535259D01*
X107342326Y-77365521D01*
X107624590Y-77248604D01*
X107774415Y-77218802D01*
X107924239Y-77189000D01*
X108229761Y-77189000D01*
X108379585Y-77218802D01*
X108379585Y-77218802D01*
G37*
G36*
X99235585Y-77218802D02*
G01*
X99385410Y-77248604D01*
X99667674Y-77365521D01*
X99921705Y-77535259D01*
X100137741Y-77751295D01*
X100307479Y-78005326D01*
X100424396Y-78287590D01*
X100484000Y-78587240D01*
X100484000Y-78892760D01*
X100424396Y-79192410D01*
X100307479Y-79474674D01*
X100137741Y-79728705D01*
X99921705Y-79944741D01*
X99667674Y-80114479D01*
X99385410Y-80231396D01*
X99235585Y-80261198D01*
X99085761Y-80291000D01*
X98780239Y-80291000D01*
X98630415Y-80261198D01*
X98480590Y-80231396D01*
X98198326Y-80114479D01*
X97944295Y-79944741D01*
X97728259Y-79728705D01*
X97558521Y-79474674D01*
X97441604Y-79192410D01*
X97382000Y-78892760D01*
X97382000Y-78587240D01*
X97441604Y-78287590D01*
X97558521Y-78005326D01*
X97728259Y-77751295D01*
X97944295Y-77535259D01*
X98198326Y-77365521D01*
X98480590Y-77248604D01*
X98630415Y-77218802D01*
X98780239Y-77189000D01*
X99085761Y-77189000D01*
X99235585Y-77218802D01*
X99235585Y-77218802D01*
G37*
G36*
X94155585Y-77218802D02*
G01*
X94305410Y-77248604D01*
X94587674Y-77365521D01*
X94841705Y-77535259D01*
X95057741Y-77751295D01*
X95227479Y-78005326D01*
X95344396Y-78287590D01*
X95404000Y-78587240D01*
X95404000Y-78892760D01*
X95344396Y-79192410D01*
X95227479Y-79474674D01*
X95057741Y-79728705D01*
X94841705Y-79944741D01*
X94587674Y-80114479D01*
X94305410Y-80231396D01*
X94155585Y-80261198D01*
X94005761Y-80291000D01*
X93700239Y-80291000D01*
X93550415Y-80261198D01*
X93400590Y-80231396D01*
X93118326Y-80114479D01*
X92864295Y-79944741D01*
X92648259Y-79728705D01*
X92478521Y-79474674D01*
X92361604Y-79192410D01*
X92302000Y-78892760D01*
X92302000Y-78587240D01*
X92361604Y-78287590D01*
X92478521Y-78005326D01*
X92648259Y-77751295D01*
X92864295Y-77535259D01*
X93118326Y-77365521D01*
X93400590Y-77248604D01*
X93550415Y-77218802D01*
X93700239Y-77189000D01*
X94005761Y-77189000D01*
X94155585Y-77218802D01*
X94155585Y-77218802D01*
G37*
G36*
X85011585Y-77218802D02*
G01*
X85161410Y-77248604D01*
X85443674Y-77365521D01*
X85697705Y-77535259D01*
X85913741Y-77751295D01*
X86083479Y-78005326D01*
X86200396Y-78287590D01*
X86260000Y-78587240D01*
X86260000Y-78892760D01*
X86200396Y-79192410D01*
X86083479Y-79474674D01*
X85913741Y-79728705D01*
X85697705Y-79944741D01*
X85443674Y-80114479D01*
X85161410Y-80231396D01*
X85011585Y-80261198D01*
X84861761Y-80291000D01*
X84556239Y-80291000D01*
X84406415Y-80261198D01*
X84256590Y-80231396D01*
X83974326Y-80114479D01*
X83720295Y-79944741D01*
X83504259Y-79728705D01*
X83334521Y-79474674D01*
X83217604Y-79192410D01*
X83158000Y-78892760D01*
X83158000Y-78587240D01*
X83217604Y-78287590D01*
X83334521Y-78005326D01*
X83504259Y-77751295D01*
X83720295Y-77535259D01*
X83974326Y-77365521D01*
X84256590Y-77248604D01*
X84406415Y-77218802D01*
X84556239Y-77189000D01*
X84861761Y-77189000D01*
X85011585Y-77218802D01*
X85011585Y-77218802D01*
G37*
G36*
X80185585Y-77218802D02*
G01*
X80335410Y-77248604D01*
X80617674Y-77365521D01*
X80871705Y-77535259D01*
X81087741Y-77751295D01*
X81257479Y-78005326D01*
X81374396Y-78287590D01*
X81434000Y-78587240D01*
X81434000Y-78892760D01*
X81374396Y-79192410D01*
X81257479Y-79474674D01*
X81087741Y-79728705D01*
X80871705Y-79944741D01*
X80617674Y-80114479D01*
X80335410Y-80231396D01*
X80185585Y-80261198D01*
X80035761Y-80291000D01*
X79730239Y-80291000D01*
X79580415Y-80261198D01*
X79430590Y-80231396D01*
X79148326Y-80114479D01*
X78894295Y-79944741D01*
X78678259Y-79728705D01*
X78508521Y-79474674D01*
X78391604Y-79192410D01*
X78332000Y-78892760D01*
X78332000Y-78587240D01*
X78391604Y-78287590D01*
X78508521Y-78005326D01*
X78678259Y-77751295D01*
X78894295Y-77535259D01*
X79148326Y-77365521D01*
X79430590Y-77248604D01*
X79580415Y-77218802D01*
X79730239Y-77189000D01*
X80035761Y-77189000D01*
X80185585Y-77218802D01*
X80185585Y-77218802D01*
G37*
G36*
X71041585Y-77218802D02*
G01*
X71191410Y-77248604D01*
X71473674Y-77365521D01*
X71727705Y-77535259D01*
X71943741Y-77751295D01*
X72113479Y-78005326D01*
X72230396Y-78287590D01*
X72290000Y-78587240D01*
X72290000Y-78892760D01*
X72230396Y-79192410D01*
X72113479Y-79474674D01*
X71943741Y-79728705D01*
X71727705Y-79944741D01*
X71473674Y-80114479D01*
X71191410Y-80231396D01*
X71041585Y-80261198D01*
X70891761Y-80291000D01*
X70586239Y-80291000D01*
X70436415Y-80261198D01*
X70286590Y-80231396D01*
X70004326Y-80114479D01*
X69750295Y-79944741D01*
X69534259Y-79728705D01*
X69364521Y-79474674D01*
X69247604Y-79192410D01*
X69188000Y-78892760D01*
X69188000Y-78587240D01*
X69247604Y-78287590D01*
X69364521Y-78005326D01*
X69534259Y-77751295D01*
X69750295Y-77535259D01*
X70004326Y-77365521D01*
X70286590Y-77248604D01*
X70436415Y-77218802D01*
X70586239Y-77189000D01*
X70891761Y-77189000D01*
X71041585Y-77218802D01*
X71041585Y-77218802D01*
G37*
G36*
X75436589Y-73406876D02*
G01*
X75535893Y-73426629D01*
X75676206Y-73484748D01*
X75802484Y-73569125D01*
X75909875Y-73676516D01*
X75994252Y-73802794D01*
X76052371Y-73943107D01*
X76082000Y-74092063D01*
X76082000Y-74243937D01*
X76052371Y-74392893D01*
X75994252Y-74533206D01*
X75909875Y-74659484D01*
X75802484Y-74766875D01*
X75676206Y-74851252D01*
X75535893Y-74909371D01*
X75436589Y-74929124D01*
X75386938Y-74939000D01*
X75235062Y-74939000D01*
X75185411Y-74929124D01*
X75086107Y-74909371D01*
X74945794Y-74851252D01*
X74819516Y-74766875D01*
X74712125Y-74659484D01*
X74627748Y-74533206D01*
X74569629Y-74392893D01*
X74540000Y-74243937D01*
X74540000Y-74092063D01*
X74569629Y-73943107D01*
X74627748Y-73802794D01*
X74712125Y-73676516D01*
X74819516Y-73569125D01*
X74945794Y-73484748D01*
X75086107Y-73426629D01*
X75185411Y-73406876D01*
X75235062Y-73397000D01*
X75386938Y-73397000D01*
X75436589Y-73406876D01*
X75436589Y-73406876D01*
G37*
G36*
X72896589Y-73406876D02*
G01*
X72995893Y-73426629D01*
X73136206Y-73484748D01*
X73262484Y-73569125D01*
X73369875Y-73676516D01*
X73454252Y-73802794D01*
X73512371Y-73943107D01*
X73542000Y-74092063D01*
X73542000Y-74243937D01*
X73512371Y-74392893D01*
X73454252Y-74533206D01*
X73369875Y-74659484D01*
X73262484Y-74766875D01*
X73136206Y-74851252D01*
X72995893Y-74909371D01*
X72896589Y-74929124D01*
X72846938Y-74939000D01*
X72695062Y-74939000D01*
X72645411Y-74929124D01*
X72546107Y-74909371D01*
X72405794Y-74851252D01*
X72279516Y-74766875D01*
X72172125Y-74659484D01*
X72087748Y-74533206D01*
X72029629Y-74392893D01*
X72000000Y-74243937D01*
X72000000Y-74092063D01*
X72029629Y-73943107D01*
X72087748Y-73802794D01*
X72172125Y-73676516D01*
X72279516Y-73569125D01*
X72405794Y-73484748D01*
X72546107Y-73426629D01*
X72645411Y-73406876D01*
X72695062Y-73397000D01*
X72846938Y-73397000D01*
X72896589Y-73406876D01*
X72896589Y-73406876D01*
G37*
G36*
X86866589Y-73406876D02*
G01*
X86965893Y-73426629D01*
X87106206Y-73484748D01*
X87232484Y-73569125D01*
X87339875Y-73676516D01*
X87424252Y-73802794D01*
X87482371Y-73943107D01*
X87512000Y-74092063D01*
X87512000Y-74243937D01*
X87482371Y-74392893D01*
X87424252Y-74533206D01*
X87339875Y-74659484D01*
X87232484Y-74766875D01*
X87106206Y-74851252D01*
X86965893Y-74909371D01*
X86866589Y-74929124D01*
X86816938Y-74939000D01*
X86665062Y-74939000D01*
X86615411Y-74929124D01*
X86516107Y-74909371D01*
X86375794Y-74851252D01*
X86249516Y-74766875D01*
X86142125Y-74659484D01*
X86057748Y-74533206D01*
X85999629Y-74392893D01*
X85970000Y-74243937D01*
X85970000Y-74092063D01*
X85999629Y-73943107D01*
X86057748Y-73802794D01*
X86142125Y-73676516D01*
X86249516Y-73569125D01*
X86375794Y-73484748D01*
X86516107Y-73426629D01*
X86615411Y-73406876D01*
X86665062Y-73397000D01*
X86816938Y-73397000D01*
X86866589Y-73406876D01*
X86866589Y-73406876D01*
G37*
G36*
X89406589Y-73406876D02*
G01*
X89505893Y-73426629D01*
X89646206Y-73484748D01*
X89772484Y-73569125D01*
X89879875Y-73676516D01*
X89964252Y-73802794D01*
X90022371Y-73943107D01*
X90052000Y-74092063D01*
X90052000Y-74243937D01*
X90022371Y-74392893D01*
X89964252Y-74533206D01*
X89879875Y-74659484D01*
X89772484Y-74766875D01*
X89646206Y-74851252D01*
X89505893Y-74909371D01*
X89406589Y-74929124D01*
X89356938Y-74939000D01*
X89205062Y-74939000D01*
X89155411Y-74929124D01*
X89056107Y-74909371D01*
X88915794Y-74851252D01*
X88789516Y-74766875D01*
X88682125Y-74659484D01*
X88597748Y-74533206D01*
X88539629Y-74392893D01*
X88510000Y-74243937D01*
X88510000Y-74092063D01*
X88539629Y-73943107D01*
X88597748Y-73802794D01*
X88682125Y-73676516D01*
X88789516Y-73569125D01*
X88915794Y-73484748D01*
X89056107Y-73426629D01*
X89155411Y-73406876D01*
X89205062Y-73397000D01*
X89356938Y-73397000D01*
X89406589Y-73406876D01*
X89406589Y-73406876D01*
G37*
G36*
X103630589Y-73406876D02*
G01*
X103729893Y-73426629D01*
X103870206Y-73484748D01*
X103996484Y-73569125D01*
X104103875Y-73676516D01*
X104188252Y-73802794D01*
X104246371Y-73943107D01*
X104276000Y-74092063D01*
X104276000Y-74243937D01*
X104246371Y-74392893D01*
X104188252Y-74533206D01*
X104103875Y-74659484D01*
X103996484Y-74766875D01*
X103870206Y-74851252D01*
X103729893Y-74909371D01*
X103630589Y-74929124D01*
X103580938Y-74939000D01*
X103429062Y-74939000D01*
X103379411Y-74929124D01*
X103280107Y-74909371D01*
X103139794Y-74851252D01*
X103013516Y-74766875D01*
X102906125Y-74659484D01*
X102821748Y-74533206D01*
X102763629Y-74392893D01*
X102734000Y-74243937D01*
X102734000Y-74092063D01*
X102763629Y-73943107D01*
X102821748Y-73802794D01*
X102906125Y-73676516D01*
X103013516Y-73569125D01*
X103139794Y-73484748D01*
X103280107Y-73426629D01*
X103379411Y-73406876D01*
X103429062Y-73397000D01*
X103580938Y-73397000D01*
X103630589Y-73406876D01*
X103630589Y-73406876D01*
G37*
G36*
X106170589Y-73406876D02*
G01*
X106269893Y-73426629D01*
X106410206Y-73484748D01*
X106536484Y-73569125D01*
X106643875Y-73676516D01*
X106728252Y-73802794D01*
X106786371Y-73943107D01*
X106816000Y-74092063D01*
X106816000Y-74243937D01*
X106786371Y-74392893D01*
X106728252Y-74533206D01*
X106643875Y-74659484D01*
X106536484Y-74766875D01*
X106410206Y-74851252D01*
X106269893Y-74909371D01*
X106170589Y-74929124D01*
X106120938Y-74939000D01*
X105969062Y-74939000D01*
X105919411Y-74929124D01*
X105820107Y-74909371D01*
X105679794Y-74851252D01*
X105553516Y-74766875D01*
X105446125Y-74659484D01*
X105361748Y-74533206D01*
X105303629Y-74392893D01*
X105274000Y-74243937D01*
X105274000Y-74092063D01*
X105303629Y-73943107D01*
X105361748Y-73802794D01*
X105446125Y-73676516D01*
X105553516Y-73569125D01*
X105679794Y-73484748D01*
X105820107Y-73426629D01*
X105919411Y-73406876D01*
X105969062Y-73397000D01*
X106120938Y-73397000D01*
X106170589Y-73406876D01*
X106170589Y-73406876D01*
G37*
G36*
X91946589Y-73406876D02*
G01*
X92045893Y-73426629D01*
X92186206Y-73484748D01*
X92312484Y-73569125D01*
X92419875Y-73676516D01*
X92504252Y-73802794D01*
X92562371Y-73943107D01*
X92592000Y-74092063D01*
X92592000Y-74243937D01*
X92562371Y-74392893D01*
X92504252Y-74533206D01*
X92419875Y-74659484D01*
X92312484Y-74766875D01*
X92186206Y-74851252D01*
X92045893Y-74909371D01*
X91946589Y-74929124D01*
X91896938Y-74939000D01*
X91745062Y-74939000D01*
X91695411Y-74929124D01*
X91596107Y-74909371D01*
X91455794Y-74851252D01*
X91329516Y-74766875D01*
X91222125Y-74659484D01*
X91137748Y-74533206D01*
X91079629Y-74392893D01*
X91050000Y-74243937D01*
X91050000Y-74092063D01*
X91079629Y-73943107D01*
X91137748Y-73802794D01*
X91222125Y-73676516D01*
X91329516Y-73569125D01*
X91455794Y-73484748D01*
X91596107Y-73426629D01*
X91695411Y-73406876D01*
X91745062Y-73397000D01*
X91896938Y-73397000D01*
X91946589Y-73406876D01*
X91946589Y-73406876D01*
G37*
G36*
X101090589Y-73406876D02*
G01*
X101189893Y-73426629D01*
X101330206Y-73484748D01*
X101456484Y-73569125D01*
X101563875Y-73676516D01*
X101648252Y-73802794D01*
X101706371Y-73943107D01*
X101736000Y-74092063D01*
X101736000Y-74243937D01*
X101706371Y-74392893D01*
X101648252Y-74533206D01*
X101563875Y-74659484D01*
X101456484Y-74766875D01*
X101330206Y-74851252D01*
X101189893Y-74909371D01*
X101090589Y-74929124D01*
X101040938Y-74939000D01*
X100889062Y-74939000D01*
X100839411Y-74929124D01*
X100740107Y-74909371D01*
X100599794Y-74851252D01*
X100473516Y-74766875D01*
X100366125Y-74659484D01*
X100281748Y-74533206D01*
X100223629Y-74392893D01*
X100194000Y-74243937D01*
X100194000Y-74092063D01*
X100223629Y-73943107D01*
X100281748Y-73802794D01*
X100366125Y-73676516D01*
X100473516Y-73569125D01*
X100599794Y-73484748D01*
X100740107Y-73426629D01*
X100839411Y-73406876D01*
X100889062Y-73397000D01*
X101040938Y-73397000D01*
X101090589Y-73406876D01*
X101090589Y-73406876D01*
G37*
G36*
X77976589Y-73406876D02*
G01*
X78075893Y-73426629D01*
X78216206Y-73484748D01*
X78342484Y-73569125D01*
X78449875Y-73676516D01*
X78534252Y-73802794D01*
X78592371Y-73943107D01*
X78622000Y-74092063D01*
X78622000Y-74243937D01*
X78592371Y-74392893D01*
X78534252Y-74533206D01*
X78449875Y-74659484D01*
X78342484Y-74766875D01*
X78216206Y-74851252D01*
X78075893Y-74909371D01*
X77976589Y-74929124D01*
X77926938Y-74939000D01*
X77775062Y-74939000D01*
X77725411Y-74929124D01*
X77626107Y-74909371D01*
X77485794Y-74851252D01*
X77359516Y-74766875D01*
X77252125Y-74659484D01*
X77167748Y-74533206D01*
X77109629Y-74392893D01*
X77080000Y-74243937D01*
X77080000Y-74092063D01*
X77109629Y-73943107D01*
X77167748Y-73802794D01*
X77252125Y-73676516D01*
X77359516Y-73569125D01*
X77485794Y-73484748D01*
X77626107Y-73426629D01*
X77725411Y-73406876D01*
X77775062Y-73397000D01*
X77926938Y-73397000D01*
X77976589Y-73406876D01*
X77976589Y-73406876D01*
G37*
G36*
X116645174Y-71193465D02*
G01*
X116682867Y-71204899D01*
X116717603Y-71223466D01*
X116748048Y-71248452D01*
X116773034Y-71278897D01*
X116791601Y-71313633D01*
X116803035Y-71351326D01*
X116807500Y-71396661D01*
X116807500Y-72233339D01*
X116803035Y-72278674D01*
X116791601Y-72316367D01*
X116773034Y-72351103D01*
X116748048Y-72381548D01*
X116717603Y-72406534D01*
X116682867Y-72425101D01*
X116645174Y-72436535D01*
X116599839Y-72441000D01*
X115513161Y-72441000D01*
X115467826Y-72436535D01*
X115430133Y-72425101D01*
X115395397Y-72406534D01*
X115364952Y-72381548D01*
X115339966Y-72351103D01*
X115321399Y-72316367D01*
X115309965Y-72278674D01*
X115305500Y-72233339D01*
X115305500Y-71396661D01*
X115309965Y-71351326D01*
X115321399Y-71313633D01*
X115339966Y-71278897D01*
X115364952Y-71248452D01*
X115395397Y-71223466D01*
X115430133Y-71204899D01*
X115467826Y-71193465D01*
X115513161Y-71189000D01*
X116599839Y-71189000D01*
X116645174Y-71193465D01*
X116645174Y-71193465D01*
G37*
G36*
X118931174Y-71129965D02*
G01*
X118968867Y-71141399D01*
X119003603Y-71159966D01*
X119034048Y-71184952D01*
X119059034Y-71215397D01*
X119077601Y-71250133D01*
X119089035Y-71287826D01*
X119093500Y-71333161D01*
X119093500Y-72169839D01*
X119089035Y-72215174D01*
X119077601Y-72252867D01*
X119059034Y-72287603D01*
X119034048Y-72318048D01*
X119003603Y-72343034D01*
X118968867Y-72361601D01*
X118931174Y-72373035D01*
X118885839Y-72377500D01*
X117799161Y-72377500D01*
X117753826Y-72373035D01*
X117716133Y-72361601D01*
X117681397Y-72343034D01*
X117650952Y-72318048D01*
X117625966Y-72287603D01*
X117607399Y-72252867D01*
X117595965Y-72215174D01*
X117591500Y-72169839D01*
X117591500Y-71333161D01*
X117595965Y-71287826D01*
X117607399Y-71250133D01*
X117625966Y-71215397D01*
X117650952Y-71184952D01*
X117681397Y-71159966D01*
X117716133Y-71141399D01*
X117753826Y-71129965D01*
X117799161Y-71125500D01*
X118885839Y-71125500D01*
X118931174Y-71129965D01*
X118931174Y-71129965D01*
G37*
G36*
X116645174Y-69143465D02*
G01*
X116682867Y-69154899D01*
X116717603Y-69173466D01*
X116748048Y-69198452D01*
X116773034Y-69228897D01*
X116791601Y-69263633D01*
X116803035Y-69301326D01*
X116807500Y-69346661D01*
X116807500Y-70183339D01*
X116803035Y-70228674D01*
X116791601Y-70266367D01*
X116773034Y-70301103D01*
X116748048Y-70331548D01*
X116717603Y-70356534D01*
X116682867Y-70375101D01*
X116645174Y-70386535D01*
X116599839Y-70391000D01*
X115513161Y-70391000D01*
X115467826Y-70386535D01*
X115430133Y-70375101D01*
X115395397Y-70356534D01*
X115364952Y-70331548D01*
X115339966Y-70301103D01*
X115321399Y-70266367D01*
X115309965Y-70228674D01*
X115305500Y-70183339D01*
X115305500Y-69346661D01*
X115309965Y-69301326D01*
X115321399Y-69263633D01*
X115339966Y-69228897D01*
X115364952Y-69198452D01*
X115395397Y-69173466D01*
X115430133Y-69154899D01*
X115467826Y-69143465D01*
X115513161Y-69139000D01*
X116599839Y-69139000D01*
X116645174Y-69143465D01*
X116645174Y-69143465D01*
G37*
G36*
X118931174Y-69079965D02*
G01*
X118968867Y-69091399D01*
X119003603Y-69109966D01*
X119034048Y-69134952D01*
X119059034Y-69165397D01*
X119077601Y-69200133D01*
X119089035Y-69237826D01*
X119093500Y-69283161D01*
X119093500Y-70119839D01*
X119089035Y-70165174D01*
X119077601Y-70202867D01*
X119059034Y-70237603D01*
X119034048Y-70268048D01*
X119003603Y-70293034D01*
X118968867Y-70311601D01*
X118931174Y-70323035D01*
X118885839Y-70327500D01*
X117799161Y-70327500D01*
X117753826Y-70323035D01*
X117716133Y-70311601D01*
X117681397Y-70293034D01*
X117650952Y-70268048D01*
X117625966Y-70237603D01*
X117607399Y-70202867D01*
X117595965Y-70165174D01*
X117591500Y-70119839D01*
X117591500Y-69283161D01*
X117595965Y-69237826D01*
X117607399Y-69200133D01*
X117625966Y-69165397D01*
X117650952Y-69134952D01*
X117681397Y-69109966D01*
X117716133Y-69091399D01*
X117753826Y-69079965D01*
X117799161Y-69075500D01*
X118885839Y-69075500D01*
X118931174Y-69079965D01*
X118931174Y-69079965D01*
G37*
G36*
X72226585Y-65703802D02*
G01*
X72376410Y-65733604D01*
X72658674Y-65850521D01*
X72912705Y-66020259D01*
X73128741Y-66236295D01*
X73298479Y-66490326D01*
X73415396Y-66772590D01*
X73445198Y-66922415D01*
X73474380Y-67069120D01*
X73475000Y-67072240D01*
X73475000Y-67377760D01*
X73415396Y-67677410D01*
X73298479Y-67959674D01*
X73128741Y-68213705D01*
X72912705Y-68429741D01*
X72658674Y-68599479D01*
X72376410Y-68716396D01*
X72226585Y-68746198D01*
X72076761Y-68776000D01*
X71771239Y-68776000D01*
X71621415Y-68746198D01*
X71471590Y-68716396D01*
X71189326Y-68599479D01*
X70935295Y-68429741D01*
X70719259Y-68213705D01*
X70549521Y-67959674D01*
X70432604Y-67677410D01*
X70373000Y-67377760D01*
X70373000Y-67072240D01*
X70373621Y-67069120D01*
X70402802Y-66922415D01*
X70432604Y-66772590D01*
X70549521Y-66490326D01*
X70719259Y-66236295D01*
X70935295Y-66020259D01*
X71189326Y-65850521D01*
X71471590Y-65733604D01*
X71621415Y-65703802D01*
X71771239Y-65674000D01*
X72076761Y-65674000D01*
X72226585Y-65703802D01*
X72226585Y-65703802D01*
G37*
G36*
X99089643Y-64306272D02*
G01*
X99248246Y-64354384D01*
X99353736Y-64386384D01*
X99537249Y-64484474D01*
X99597119Y-64516475D01*
X99638797Y-64550680D01*
X99810450Y-64691550D01*
X99953092Y-64865360D01*
X99985525Y-64904880D01*
X99985526Y-64904882D01*
X100115616Y-65148263D01*
X100136462Y-65216983D01*
X100195728Y-65412356D01*
X100195728Y-65412358D01*
X100212849Y-65586183D01*
X100216000Y-65618182D01*
X100216000Y-66355817D01*
X100195728Y-66561643D01*
X100136461Y-66757018D01*
X100115616Y-66825737D01*
X100056080Y-66937120D01*
X99985525Y-67069120D01*
X99982965Y-67072239D01*
X99810450Y-67282450D01*
X99652691Y-67411918D01*
X99597120Y-67457525D01*
X99597118Y-67457526D01*
X99353737Y-67587616D01*
X99285017Y-67608462D01*
X99089644Y-67667728D01*
X98815000Y-67694778D01*
X98540357Y-67667728D01*
X98344984Y-67608462D01*
X98276264Y-67587616D01*
X98032883Y-67457526D01*
X98032881Y-67457525D01*
X97991203Y-67423320D01*
X97819550Y-67282450D01*
X97647035Y-67072239D01*
X97644475Y-67069120D01*
X97573920Y-66937120D01*
X97514384Y-66825737D01*
X97474341Y-66693733D01*
X97434272Y-66561644D01*
X97414000Y-66355818D01*
X97414000Y-65618183D01*
X97434272Y-65412357D01*
X97514383Y-65148268D01*
X97514384Y-65148264D01*
X97644474Y-64904883D01*
X97644475Y-64904881D01*
X97678680Y-64863203D01*
X97819550Y-64691550D01*
X97993360Y-64548908D01*
X98032880Y-64516475D01*
X98092750Y-64484474D01*
X98276263Y-64386384D01*
X98381753Y-64354384D01*
X98540356Y-64306272D01*
X98815000Y-64279222D01*
X99089643Y-64306272D01*
X99089643Y-64306272D01*
G37*
G36*
X94889643Y-64306272D02*
G01*
X95048246Y-64354384D01*
X95153736Y-64386384D01*
X95337249Y-64484474D01*
X95397119Y-64516475D01*
X95438797Y-64550680D01*
X95610450Y-64691550D01*
X95753092Y-64865360D01*
X95785525Y-64904880D01*
X95785526Y-64904882D01*
X95915616Y-65148263D01*
X95936462Y-65216983D01*
X95995728Y-65412356D01*
X95995728Y-65412358D01*
X96012849Y-65586183D01*
X96016000Y-65618182D01*
X96016000Y-66355817D01*
X95995728Y-66561643D01*
X95936461Y-66757018D01*
X95915616Y-66825737D01*
X95856080Y-66937120D01*
X95785525Y-67069120D01*
X95782965Y-67072239D01*
X95610450Y-67282450D01*
X95452691Y-67411918D01*
X95397120Y-67457525D01*
X95397118Y-67457526D01*
X95153737Y-67587616D01*
X95085017Y-67608462D01*
X94889644Y-67667728D01*
X94615000Y-67694778D01*
X94340357Y-67667728D01*
X94144984Y-67608462D01*
X94076264Y-67587616D01*
X93832883Y-67457526D01*
X93832881Y-67457525D01*
X93791203Y-67423320D01*
X93619550Y-67282450D01*
X93447035Y-67072239D01*
X93444475Y-67069120D01*
X93373920Y-66937120D01*
X93314384Y-66825737D01*
X93274341Y-66693733D01*
X93234272Y-66561644D01*
X93214000Y-66355818D01*
X93214000Y-65618183D01*
X93234272Y-65412357D01*
X93314383Y-65148268D01*
X93314384Y-65148264D01*
X93444474Y-64904883D01*
X93444475Y-64904881D01*
X93478680Y-64863203D01*
X93619550Y-64691550D01*
X93793360Y-64548908D01*
X93832880Y-64516475D01*
X93892750Y-64484474D01*
X94076263Y-64386384D01*
X94181753Y-64354384D01*
X94340356Y-64306272D01*
X94615000Y-64279222D01*
X94889643Y-64306272D01*
X94889643Y-64306272D01*
G37*
G36*
X79413643Y-64274272D02*
G01*
X79609016Y-64333538D01*
X79677736Y-64354384D01*
X79907201Y-64477036D01*
X79921119Y-64484475D01*
X79960110Y-64516474D01*
X80134450Y-64659550D01*
X80277092Y-64833360D01*
X80309525Y-64872880D01*
X80309526Y-64872882D01*
X80439616Y-65116263D01*
X80460462Y-65184983D01*
X80519728Y-65380356D01*
X80540000Y-65586182D01*
X80540000Y-66323817D01*
X80519728Y-66529643D01*
X80460461Y-66725018D01*
X80439616Y-66793737D01*
X80362977Y-66937118D01*
X80309525Y-67037120D01*
X80263918Y-67092691D01*
X80134450Y-67250450D01*
X79979321Y-67377760D01*
X79921120Y-67425525D01*
X79921118Y-67425526D01*
X79677737Y-67555616D01*
X79609017Y-67576462D01*
X79413644Y-67635728D01*
X79139000Y-67662778D01*
X78864357Y-67635728D01*
X78668984Y-67576462D01*
X78600264Y-67555616D01*
X78356883Y-67425526D01*
X78356881Y-67425525D01*
X78298681Y-67377761D01*
X78143550Y-67250450D01*
X77994737Y-67069120D01*
X77968475Y-67037120D01*
X77915023Y-66937118D01*
X77838384Y-66793737D01*
X77808048Y-66693733D01*
X77758272Y-66529644D01*
X77741152Y-66355818D01*
X77738000Y-66323820D01*
X77738000Y-65586181D01*
X77755120Y-65412357D01*
X77758272Y-65380357D01*
X77838383Y-65116268D01*
X77838384Y-65116264D01*
X77968474Y-64872883D01*
X77968475Y-64872881D01*
X78002680Y-64831203D01*
X78143550Y-64659550D01*
X78317890Y-64516474D01*
X78356880Y-64484475D01*
X78370798Y-64477036D01*
X78600263Y-64354384D01*
X78668983Y-64333538D01*
X78864356Y-64274272D01*
X79139000Y-64247222D01*
X79413643Y-64274272D01*
X79413643Y-64274272D01*
G37*
G36*
X87813643Y-64274272D02*
G01*
X88009016Y-64333538D01*
X88077736Y-64354384D01*
X88307201Y-64477036D01*
X88321119Y-64484475D01*
X88360110Y-64516474D01*
X88534450Y-64659550D01*
X88677092Y-64833360D01*
X88709525Y-64872880D01*
X88709526Y-64872882D01*
X88839616Y-65116263D01*
X88860462Y-65184983D01*
X88919728Y-65380356D01*
X88940000Y-65586182D01*
X88940000Y-66323817D01*
X88919728Y-66529643D01*
X88860461Y-66725018D01*
X88839616Y-66793737D01*
X88762977Y-66937118D01*
X88709525Y-67037120D01*
X88663918Y-67092691D01*
X88534450Y-67250450D01*
X88379321Y-67377760D01*
X88321120Y-67425525D01*
X88321118Y-67425526D01*
X88077737Y-67555616D01*
X88009017Y-67576462D01*
X87813644Y-67635728D01*
X87539000Y-67662778D01*
X87264357Y-67635728D01*
X87068984Y-67576462D01*
X87000264Y-67555616D01*
X86756883Y-67425526D01*
X86756881Y-67425525D01*
X86698681Y-67377761D01*
X86543550Y-67250450D01*
X86394737Y-67069120D01*
X86368475Y-67037120D01*
X86315023Y-66937118D01*
X86238384Y-66793737D01*
X86208048Y-66693733D01*
X86158272Y-66529644D01*
X86141152Y-66355818D01*
X86138000Y-66323820D01*
X86138000Y-65586181D01*
X86155120Y-65412357D01*
X86158272Y-65380357D01*
X86238383Y-65116268D01*
X86238384Y-65116264D01*
X86368474Y-64872883D01*
X86368475Y-64872881D01*
X86402680Y-64831203D01*
X86543550Y-64659550D01*
X86717890Y-64516474D01*
X86756880Y-64484475D01*
X86770798Y-64477036D01*
X87000263Y-64354384D01*
X87068983Y-64333538D01*
X87264356Y-64274272D01*
X87539000Y-64247222D01*
X87813643Y-64274272D01*
X87813643Y-64274272D01*
G37*
G36*
X83613643Y-64274272D02*
G01*
X83809016Y-64333538D01*
X83877736Y-64354384D01*
X84107201Y-64477036D01*
X84121119Y-64484475D01*
X84160110Y-64516474D01*
X84334450Y-64659550D01*
X84477092Y-64833360D01*
X84509525Y-64872880D01*
X84509526Y-64872882D01*
X84639616Y-65116263D01*
X84660462Y-65184983D01*
X84719728Y-65380356D01*
X84740000Y-65586182D01*
X84740000Y-66323817D01*
X84719728Y-66529643D01*
X84660461Y-66725018D01*
X84639616Y-66793737D01*
X84562977Y-66937118D01*
X84509525Y-67037120D01*
X84463918Y-67092691D01*
X84334450Y-67250450D01*
X84179321Y-67377760D01*
X84121120Y-67425525D01*
X84121118Y-67425526D01*
X83877737Y-67555616D01*
X83809017Y-67576462D01*
X83613644Y-67635728D01*
X83339000Y-67662778D01*
X83064357Y-67635728D01*
X82868984Y-67576462D01*
X82800264Y-67555616D01*
X82556883Y-67425526D01*
X82556881Y-67425525D01*
X82498681Y-67377761D01*
X82343550Y-67250450D01*
X82194737Y-67069120D01*
X82168475Y-67037120D01*
X82115023Y-66937118D01*
X82038384Y-66793737D01*
X82008048Y-66693733D01*
X81958272Y-66529644D01*
X81941152Y-66355818D01*
X81938000Y-66323820D01*
X81938000Y-65586181D01*
X81955120Y-65412357D01*
X81958272Y-65380357D01*
X82038383Y-65116268D01*
X82038384Y-65116264D01*
X82168474Y-64872883D01*
X82168475Y-64872881D01*
X82202680Y-64831203D01*
X82343550Y-64659550D01*
X82517890Y-64516474D01*
X82556880Y-64484475D01*
X82570798Y-64477036D01*
X82800263Y-64354384D01*
X82868983Y-64333538D01*
X83064356Y-64274272D01*
X83339000Y-64247222D01*
X83613643Y-64274272D01*
X83613643Y-64274272D01*
G37*
G36*
X106408643Y-64174272D02*
G01*
X106604016Y-64233538D01*
X106672736Y-64254384D01*
X106902201Y-64377036D01*
X106916119Y-64384475D01*
X106957797Y-64418680D01*
X107129450Y-64559550D01*
X107272092Y-64733360D01*
X107304525Y-64772880D01*
X107304526Y-64772882D01*
X107434616Y-65016263D01*
X107455462Y-65084983D01*
X107514728Y-65280356D01*
X107535000Y-65486182D01*
X107535000Y-66223817D01*
X107514728Y-66429643D01*
X107484393Y-66529643D01*
X107434616Y-66693737D01*
X107364060Y-66825737D01*
X107304525Y-66937120D01*
X107258918Y-66992691D01*
X107129450Y-67150450D01*
X106971691Y-67279918D01*
X106916120Y-67325525D01*
X106916118Y-67325526D01*
X106672737Y-67455616D01*
X106604017Y-67476462D01*
X106408644Y-67535728D01*
X106134000Y-67562778D01*
X105859357Y-67535728D01*
X105663984Y-67476462D01*
X105595264Y-67455616D01*
X105351883Y-67325526D01*
X105351881Y-67325525D01*
X105310203Y-67291320D01*
X105138550Y-67150450D01*
X104995908Y-66976640D01*
X104963475Y-66937120D01*
X104903940Y-66825737D01*
X104833384Y-66693737D01*
X104793314Y-66561643D01*
X104753272Y-66429644D01*
X104733000Y-66223818D01*
X104733000Y-65486183D01*
X104753272Y-65280357D01*
X104833383Y-65016268D01*
X104833384Y-65016264D01*
X104963474Y-64772883D01*
X104963475Y-64772881D01*
X104997680Y-64731203D01*
X105138550Y-64559550D01*
X105312360Y-64416908D01*
X105351880Y-64384475D01*
X105365798Y-64377036D01*
X105595263Y-64254384D01*
X105663983Y-64233538D01*
X105859356Y-64174272D01*
X106134000Y-64147222D01*
X106408643Y-64174272D01*
X106408643Y-64174272D01*
G37*
G36*
X114445000Y-67287000D02*
G01*
X110843000Y-67287000D01*
X110843000Y-65385000D01*
X114445000Y-65385000D01*
X114445000Y-67287000D01*
X114445000Y-67287000D01*
G37*
G36*
X119445000Y-67287000D02*
G01*
X115843000Y-67287000D01*
X115843000Y-65385000D01*
X119445000Y-65385000D01*
X119445000Y-67287000D01*
X119445000Y-67287000D01*
G37*
G36*
X99089643Y-60106272D02*
G01*
X99276089Y-60162830D01*
X99353736Y-60186384D01*
X99537249Y-60284474D01*
X99597119Y-60316475D01*
X99632419Y-60345445D01*
X99810450Y-60491550D01*
X99953092Y-60665360D01*
X99985525Y-60704880D01*
X99985526Y-60704882D01*
X100115616Y-60948263D01*
X100136462Y-61016983D01*
X100195728Y-61212356D01*
X100195728Y-61212358D01*
X100212849Y-61386183D01*
X100216000Y-61418182D01*
X100216000Y-62155817D01*
X100195728Y-62361643D01*
X100139333Y-62547553D01*
X100115616Y-62625737D01*
X100002630Y-62837118D01*
X99985525Y-62869120D01*
X99939918Y-62924691D01*
X99810450Y-63082450D01*
X99676638Y-63192266D01*
X99597120Y-63257525D01*
X99597118Y-63257526D01*
X99353737Y-63387616D01*
X99285017Y-63408462D01*
X99089644Y-63467728D01*
X98815000Y-63494778D01*
X98540357Y-63467728D01*
X98344984Y-63408462D01*
X98276264Y-63387616D01*
X98032883Y-63257526D01*
X98032881Y-63257525D01*
X97953363Y-63192266D01*
X97819550Y-63082450D01*
X97676908Y-62908640D01*
X97644475Y-62869120D01*
X97627370Y-62837118D01*
X97514384Y-62625737D01*
X97452914Y-62423097D01*
X97434272Y-62361644D01*
X97414000Y-62155818D01*
X97414000Y-61418183D01*
X97434272Y-61212357D01*
X97514383Y-60948268D01*
X97514384Y-60948264D01*
X97644474Y-60704883D01*
X97644475Y-60704881D01*
X97678680Y-60663203D01*
X97819550Y-60491550D01*
X97993360Y-60348908D01*
X98032880Y-60316475D01*
X98092750Y-60284474D01*
X98276263Y-60186384D01*
X98353910Y-60162830D01*
X98540356Y-60106272D01*
X98815000Y-60079222D01*
X99089643Y-60106272D01*
X99089643Y-60106272D01*
G37*
G36*
X95889031Y-60089621D02*
G01*
X95918486Y-60098556D01*
X95945623Y-60113062D01*
X95969414Y-60132586D01*
X95988938Y-60156377D01*
X96003444Y-60183514D01*
X96012379Y-60212969D01*
X96016000Y-60249734D01*
X96016000Y-63324266D01*
X96012379Y-63361031D01*
X96003444Y-63390486D01*
X95988938Y-63417623D01*
X95969414Y-63441414D01*
X95945623Y-63460938D01*
X95918486Y-63475444D01*
X95889031Y-63484379D01*
X95852266Y-63488000D01*
X93377734Y-63488000D01*
X93340969Y-63484379D01*
X93311514Y-63475444D01*
X93284377Y-63460938D01*
X93260586Y-63441414D01*
X93241062Y-63417623D01*
X93226556Y-63390486D01*
X93217621Y-63361031D01*
X93214000Y-63324266D01*
X93214000Y-60249734D01*
X93217621Y-60212969D01*
X93226556Y-60183514D01*
X93241062Y-60156377D01*
X93260586Y-60132586D01*
X93284377Y-60113062D01*
X93311514Y-60098556D01*
X93340969Y-60089621D01*
X93377734Y-60086000D01*
X95852266Y-60086000D01*
X95889031Y-60089621D01*
X95889031Y-60089621D01*
G37*
G36*
X87813643Y-60074272D02*
G01*
X88005877Y-60132586D01*
X88077736Y-60154384D01*
X88256123Y-60249734D01*
X88321119Y-60284475D01*
X88356419Y-60313445D01*
X88534450Y-60459550D01*
X88677092Y-60633360D01*
X88709525Y-60672880D01*
X88709526Y-60672882D01*
X88839616Y-60916263D01*
X88860462Y-60984983D01*
X88919728Y-61180356D01*
X88940000Y-61386182D01*
X88940000Y-62123817D01*
X88919728Y-62329643D01*
X88860461Y-62525018D01*
X88839616Y-62593737D01*
X88716964Y-62823202D01*
X88709525Y-62837120D01*
X88683263Y-62869120D01*
X88534450Y-63050450D01*
X88376691Y-63179918D01*
X88321120Y-63225525D01*
X88321118Y-63225526D01*
X88077737Y-63355616D01*
X88059886Y-63361031D01*
X87813644Y-63435728D01*
X87539000Y-63462778D01*
X87264357Y-63435728D01*
X87018115Y-63361031D01*
X87000264Y-63355616D01*
X86756883Y-63225526D01*
X86756881Y-63225525D01*
X86715203Y-63191320D01*
X86543550Y-63050450D01*
X86394737Y-62869120D01*
X86368475Y-62837120D01*
X86361036Y-62823202D01*
X86238384Y-62593737D01*
X86186621Y-62423097D01*
X86158272Y-62329644D01*
X86141152Y-62155818D01*
X86138000Y-62123820D01*
X86138000Y-61386181D01*
X86155120Y-61212357D01*
X86158272Y-61180357D01*
X86238383Y-60916268D01*
X86238384Y-60916264D01*
X86368474Y-60672883D01*
X86368475Y-60672881D01*
X86402680Y-60631203D01*
X86543550Y-60459550D01*
X86717890Y-60316474D01*
X86756880Y-60284475D01*
X86821876Y-60249734D01*
X87000263Y-60154384D01*
X87072122Y-60132586D01*
X87264356Y-60074272D01*
X87539000Y-60047222D01*
X87813643Y-60074272D01*
X87813643Y-60074272D01*
G37*
G36*
X83613643Y-60074272D02*
G01*
X83805877Y-60132586D01*
X83877736Y-60154384D01*
X84056123Y-60249734D01*
X84121119Y-60284475D01*
X84156419Y-60313445D01*
X84334450Y-60459550D01*
X84477092Y-60633360D01*
X84509525Y-60672880D01*
X84509526Y-60672882D01*
X84639616Y-60916263D01*
X84660462Y-60984983D01*
X84719728Y-61180356D01*
X84740000Y-61386182D01*
X84740000Y-62123817D01*
X84719728Y-62329643D01*
X84660461Y-62525018D01*
X84639616Y-62593737D01*
X84516964Y-62823202D01*
X84509525Y-62837120D01*
X84483263Y-62869120D01*
X84334450Y-63050450D01*
X84176691Y-63179918D01*
X84121120Y-63225525D01*
X84121118Y-63225526D01*
X83877737Y-63355616D01*
X83859886Y-63361031D01*
X83613644Y-63435728D01*
X83339000Y-63462778D01*
X83064357Y-63435728D01*
X82818115Y-63361031D01*
X82800264Y-63355616D01*
X82556883Y-63225526D01*
X82556881Y-63225525D01*
X82515203Y-63191320D01*
X82343550Y-63050450D01*
X82194737Y-62869120D01*
X82168475Y-62837120D01*
X82161036Y-62823202D01*
X82038384Y-62593737D01*
X81986621Y-62423097D01*
X81958272Y-62329644D01*
X81941152Y-62155818D01*
X81938000Y-62123820D01*
X81938000Y-61386181D01*
X81955120Y-61212357D01*
X81958272Y-61180357D01*
X82038383Y-60916268D01*
X82038384Y-60916264D01*
X82168474Y-60672883D01*
X82168475Y-60672881D01*
X82202680Y-60631203D01*
X82343550Y-60459550D01*
X82517890Y-60316474D01*
X82556880Y-60284475D01*
X82621876Y-60249734D01*
X82800263Y-60154384D01*
X82872122Y-60132586D01*
X83064356Y-60074272D01*
X83339000Y-60047222D01*
X83613643Y-60074272D01*
X83613643Y-60074272D01*
G37*
G36*
X80413031Y-60057621D02*
G01*
X80442486Y-60066556D01*
X80469623Y-60081062D01*
X80493414Y-60100586D01*
X80512938Y-60124377D01*
X80527444Y-60151514D01*
X80536379Y-60180969D01*
X80540000Y-60217734D01*
X80540000Y-63292266D01*
X80536379Y-63329031D01*
X80527444Y-63358486D01*
X80512938Y-63385623D01*
X80493414Y-63409414D01*
X80469623Y-63428938D01*
X80442486Y-63443444D01*
X80413031Y-63452379D01*
X80376266Y-63456000D01*
X77901734Y-63456000D01*
X77864969Y-63452379D01*
X77835514Y-63443444D01*
X77808377Y-63428938D01*
X77784586Y-63409414D01*
X77765062Y-63385623D01*
X77750556Y-63358486D01*
X77741621Y-63329031D01*
X77738000Y-63292266D01*
X77738000Y-60217734D01*
X77741621Y-60180969D01*
X77750556Y-60151514D01*
X77765062Y-60124377D01*
X77784586Y-60100586D01*
X77808377Y-60081062D01*
X77835514Y-60066556D01*
X77864969Y-60057621D01*
X77901734Y-60054000D01*
X80376266Y-60054000D01*
X80413031Y-60057621D01*
X80413031Y-60057621D01*
G37*
G36*
X107408031Y-59957621D02*
G01*
X107437486Y-59966556D01*
X107464623Y-59981062D01*
X107488414Y-60000586D01*
X107507938Y-60024377D01*
X107522444Y-60051514D01*
X107531379Y-60080969D01*
X107535000Y-60117734D01*
X107535000Y-63192266D01*
X107531379Y-63229031D01*
X107522444Y-63258486D01*
X107507938Y-63285623D01*
X107488414Y-63309414D01*
X107464623Y-63328938D01*
X107437486Y-63343444D01*
X107408031Y-63352379D01*
X107371266Y-63356000D01*
X104896734Y-63356000D01*
X104859969Y-63352379D01*
X104830514Y-63343444D01*
X104803377Y-63328938D01*
X104779586Y-63309414D01*
X104760062Y-63285623D01*
X104745556Y-63258486D01*
X104736621Y-63229031D01*
X104733000Y-63192266D01*
X104733000Y-60117734D01*
X104736621Y-60080969D01*
X104745556Y-60051514D01*
X104760062Y-60024377D01*
X104779586Y-60000586D01*
X104803377Y-59981062D01*
X104830514Y-59966556D01*
X104859969Y-59957621D01*
X104896734Y-59954000D01*
X107371266Y-59954000D01*
X107408031Y-59957621D01*
X107408031Y-59957621D01*
G37*
G36*
X71749256Y-59351298D02*
G01*
X71855579Y-59372447D01*
X72156042Y-59496903D01*
X72426451Y-59677585D01*
X72656415Y-59907549D01*
X72831315Y-60169305D01*
X72837098Y-60177960D01*
X72840587Y-60186383D01*
X72961553Y-60478421D01*
X72964165Y-60491551D01*
X73025000Y-60797389D01*
X73025000Y-61122611D01*
X73013513Y-61180358D01*
X72961553Y-61441579D01*
X72837097Y-61742042D01*
X72656415Y-62012451D01*
X72426451Y-62242415D01*
X72156042Y-62423097D01*
X71855579Y-62547553D01*
X71749256Y-62568702D01*
X71536611Y-62611000D01*
X71211389Y-62611000D01*
X70998744Y-62568702D01*
X70892421Y-62547553D01*
X70591958Y-62423097D01*
X70321549Y-62242415D01*
X70091585Y-62012451D01*
X69910903Y-61742042D01*
X69786447Y-61441579D01*
X69734487Y-61180358D01*
X69723000Y-61122611D01*
X69723000Y-60797389D01*
X69783835Y-60491551D01*
X69786447Y-60478421D01*
X69907413Y-60186383D01*
X69910902Y-60177960D01*
X69916685Y-60169305D01*
X70091585Y-59907549D01*
X70321549Y-59677585D01*
X70591958Y-59496903D01*
X70892421Y-59372447D01*
X70998744Y-59351298D01*
X71211389Y-59309000D01*
X71536611Y-59309000D01*
X71749256Y-59351298D01*
X71749256Y-59351298D01*
G37*
G36*
X116749256Y-59351298D02*
G01*
X116855579Y-59372447D01*
X117156042Y-59496903D01*
X117426451Y-59677585D01*
X117656415Y-59907549D01*
X117831315Y-60169305D01*
X117837098Y-60177960D01*
X117840587Y-60186383D01*
X117961553Y-60478421D01*
X117964165Y-60491551D01*
X118025000Y-60797389D01*
X118025000Y-61122611D01*
X118013513Y-61180358D01*
X117961553Y-61441579D01*
X117837097Y-61742042D01*
X117656415Y-62012451D01*
X117426451Y-62242415D01*
X117156042Y-62423097D01*
X116855579Y-62547553D01*
X116749256Y-62568702D01*
X116536611Y-62611000D01*
X116211389Y-62611000D01*
X115998744Y-62568702D01*
X115892421Y-62547553D01*
X115591958Y-62423097D01*
X115321549Y-62242415D01*
X115091585Y-62012451D01*
X114910903Y-61742042D01*
X114786447Y-61441579D01*
X114734487Y-61180358D01*
X114723000Y-61122611D01*
X114723000Y-60797389D01*
X114783835Y-60491551D01*
X114786447Y-60478421D01*
X114907413Y-60186383D01*
X114910902Y-60177960D01*
X114916685Y-60169305D01*
X115091585Y-59907549D01*
X115321549Y-59677585D01*
X115591958Y-59496903D01*
X115892421Y-59372447D01*
X115998744Y-59351298D01*
X116211389Y-59309000D01*
X116536611Y-59309000D01*
X116749256Y-59351298D01*
X116749256Y-59351298D01*
G37*
M02*
