G04 #@! TF.GenerationSoftware,KiCad,Pcbnew,(5.1.0)-1*
G04 #@! TF.CreationDate,2019-10-16T14:08:09+11:00*
G04 #@! TF.ProjectId,BSPD,42535044-2e6b-4696-9361-645f70636258,rev?*
G04 #@! TF.SameCoordinates,Original*
G04 #@! TF.FileFunction,Soldermask,Top*
G04 #@! TF.FilePolarity,Negative*
%FSLAX46Y46*%
G04 Gerber Fmt 4.6, Leading zero omitted, Abs format (unit mm)*
G04 Created by KiCad (PCBNEW (5.1.0)-1) date 2019-10-16 14:08:09*
%MOMM*%
%LPD*%
G04 APERTURE LIST*
%ADD10C,0.100000*%
G04 APERTURE END LIST*
D10*
G36*
X116749256Y-104351298D02*
G01*
X116855579Y-104372447D01*
X117156042Y-104496903D01*
X117426451Y-104677585D01*
X117656415Y-104907549D01*
X117837097Y-105177958D01*
X117961553Y-105478421D01*
X118025000Y-105797391D01*
X118025000Y-106122609D01*
X117961553Y-106441579D01*
X117837097Y-106742042D01*
X117656415Y-107012451D01*
X117426451Y-107242415D01*
X117156042Y-107423097D01*
X116855579Y-107547553D01*
X116749256Y-107568702D01*
X116536611Y-107611000D01*
X116211389Y-107611000D01*
X115998744Y-107568702D01*
X115892421Y-107547553D01*
X115591958Y-107423097D01*
X115321549Y-107242415D01*
X115091585Y-107012451D01*
X114910903Y-106742042D01*
X114786447Y-106441579D01*
X114723000Y-106122609D01*
X114723000Y-105797391D01*
X114786447Y-105478421D01*
X114910903Y-105177958D01*
X115091585Y-104907549D01*
X115321549Y-104677585D01*
X115591958Y-104496903D01*
X115892421Y-104372447D01*
X115998744Y-104351298D01*
X116211389Y-104309000D01*
X116536611Y-104309000D01*
X116749256Y-104351298D01*
X116749256Y-104351298D01*
G37*
G36*
X71749256Y-104351298D02*
G01*
X71855579Y-104372447D01*
X72156042Y-104496903D01*
X72426451Y-104677585D01*
X72656415Y-104907549D01*
X72837097Y-105177958D01*
X72961553Y-105478421D01*
X73025000Y-105797391D01*
X73025000Y-106122609D01*
X72961553Y-106441579D01*
X72837097Y-106742042D01*
X72656415Y-107012451D01*
X72426451Y-107242415D01*
X72156042Y-107423097D01*
X71855579Y-107547553D01*
X71749256Y-107568702D01*
X71536611Y-107611000D01*
X71211389Y-107611000D01*
X70998744Y-107568702D01*
X70892421Y-107547553D01*
X70591958Y-107423097D01*
X70321549Y-107242415D01*
X70091585Y-107012451D01*
X69910903Y-106742042D01*
X69786447Y-106441579D01*
X69723000Y-106122609D01*
X69723000Y-105797391D01*
X69786447Y-105478421D01*
X69910903Y-105177958D01*
X70091585Y-104907549D01*
X70321549Y-104677585D01*
X70591958Y-104496903D01*
X70892421Y-104372447D01*
X70998744Y-104351298D01*
X71211389Y-104309000D01*
X71536611Y-104309000D01*
X71749256Y-104351298D01*
X71749256Y-104351298D01*
G37*
G36*
X76513000Y-106104000D02*
G01*
X75811000Y-106104000D01*
X75811000Y-104452000D01*
X76513000Y-104452000D01*
X76513000Y-106104000D01*
X76513000Y-106104000D01*
G37*
G36*
X91499000Y-106104000D02*
G01*
X90797000Y-106104000D01*
X90797000Y-104452000D01*
X91499000Y-104452000D01*
X91499000Y-106104000D01*
X91499000Y-106104000D01*
G37*
G36*
X90229000Y-106104000D02*
G01*
X89527000Y-106104000D01*
X89527000Y-104452000D01*
X90229000Y-104452000D01*
X90229000Y-106104000D01*
X90229000Y-106104000D01*
G37*
G36*
X87689000Y-106104000D02*
G01*
X86987000Y-106104000D01*
X86987000Y-104452000D01*
X87689000Y-104452000D01*
X87689000Y-106104000D01*
X87689000Y-106104000D01*
G37*
G36*
X82101000Y-106104000D02*
G01*
X81399000Y-106104000D01*
X81399000Y-104452000D01*
X82101000Y-104452000D01*
X82101000Y-106104000D01*
X82101000Y-106104000D01*
G37*
G36*
X83371000Y-106104000D02*
G01*
X82669000Y-106104000D01*
X82669000Y-104452000D01*
X83371000Y-104452000D01*
X83371000Y-106104000D01*
X83371000Y-106104000D01*
G37*
G36*
X84641000Y-106104000D02*
G01*
X83939000Y-106104000D01*
X83939000Y-104452000D01*
X84641000Y-104452000D01*
X84641000Y-106104000D01*
X84641000Y-106104000D01*
G37*
G36*
X85911000Y-106104000D02*
G01*
X85209000Y-106104000D01*
X85209000Y-104452000D01*
X85911000Y-104452000D01*
X85911000Y-106104000D01*
X85911000Y-106104000D01*
G37*
G36*
X80323000Y-106104000D02*
G01*
X79621000Y-106104000D01*
X79621000Y-104452000D01*
X80323000Y-104452000D01*
X80323000Y-106104000D01*
X80323000Y-106104000D01*
G37*
G36*
X79053000Y-106104000D02*
G01*
X78351000Y-106104000D01*
X78351000Y-104452000D01*
X79053000Y-104452000D01*
X79053000Y-106104000D01*
X79053000Y-106104000D01*
G37*
G36*
X77783000Y-106104000D02*
G01*
X77081000Y-106104000D01*
X77081000Y-104452000D01*
X77783000Y-104452000D01*
X77783000Y-106104000D01*
X77783000Y-106104000D01*
G37*
G36*
X88959000Y-106104000D02*
G01*
X88257000Y-106104000D01*
X88257000Y-104452000D01*
X88959000Y-104452000D01*
X88959000Y-106104000D01*
X88959000Y-106104000D01*
G37*
G36*
X103568074Y-101825665D02*
G01*
X103605767Y-101837099D01*
X103640503Y-101855666D01*
X103670948Y-101880652D01*
X103695934Y-101911097D01*
X103714501Y-101945833D01*
X103725935Y-101983526D01*
X103730400Y-102028861D01*
X103730400Y-102865539D01*
X103725935Y-102910874D01*
X103714501Y-102948567D01*
X103695934Y-102983303D01*
X103670948Y-103013748D01*
X103640503Y-103038734D01*
X103605767Y-103057301D01*
X103568074Y-103068735D01*
X103522739Y-103073200D01*
X102436061Y-103073200D01*
X102390726Y-103068735D01*
X102353033Y-103057301D01*
X102318297Y-103038734D01*
X102287852Y-103013748D01*
X102262866Y-102983303D01*
X102244299Y-102948567D01*
X102232865Y-102910874D01*
X102228400Y-102865539D01*
X102228400Y-102028861D01*
X102232865Y-101983526D01*
X102244299Y-101945833D01*
X102262866Y-101911097D01*
X102287852Y-101880652D01*
X102318297Y-101855666D01*
X102353033Y-101837099D01*
X102390726Y-101825665D01*
X102436061Y-101821200D01*
X103522739Y-101821200D01*
X103568074Y-101825665D01*
X103568074Y-101825665D01*
G37*
G36*
X99529474Y-101816665D02*
G01*
X99567167Y-101828099D01*
X99601903Y-101846666D01*
X99632348Y-101871652D01*
X99657334Y-101902097D01*
X99675901Y-101936833D01*
X99687335Y-101974526D01*
X99691800Y-102019861D01*
X99691800Y-102856539D01*
X99687335Y-102901874D01*
X99675901Y-102939567D01*
X99657334Y-102974303D01*
X99632348Y-103004748D01*
X99601903Y-103029734D01*
X99567167Y-103048301D01*
X99529474Y-103059735D01*
X99484139Y-103064200D01*
X98397461Y-103064200D01*
X98352126Y-103059735D01*
X98314433Y-103048301D01*
X98279697Y-103029734D01*
X98249252Y-103004748D01*
X98224266Y-102974303D01*
X98205699Y-102939567D01*
X98194265Y-102901874D01*
X98189800Y-102856539D01*
X98189800Y-102019861D01*
X98194265Y-101974526D01*
X98205699Y-101936833D01*
X98224266Y-101902097D01*
X98249252Y-101871652D01*
X98279697Y-101846666D01*
X98314433Y-101828099D01*
X98352126Y-101816665D01*
X98397461Y-101812200D01*
X99484139Y-101812200D01*
X99529474Y-101816665D01*
X99529474Y-101816665D01*
G37*
G36*
X95563174Y-101727965D02*
G01*
X95600867Y-101739399D01*
X95635603Y-101757966D01*
X95666048Y-101782952D01*
X95691034Y-101813397D01*
X95709601Y-101848133D01*
X95721035Y-101885826D01*
X95725500Y-101931161D01*
X95725500Y-102767839D01*
X95721035Y-102813174D01*
X95709601Y-102850867D01*
X95691034Y-102885603D01*
X95666048Y-102916048D01*
X95635603Y-102941034D01*
X95600867Y-102959601D01*
X95563174Y-102971035D01*
X95517839Y-102975500D01*
X94431161Y-102975500D01*
X94385826Y-102971035D01*
X94348133Y-102959601D01*
X94313397Y-102941034D01*
X94282952Y-102916048D01*
X94257966Y-102885603D01*
X94239399Y-102850867D01*
X94227965Y-102813174D01*
X94223500Y-102767839D01*
X94223500Y-101931161D01*
X94227965Y-101885826D01*
X94239399Y-101848133D01*
X94257966Y-101813397D01*
X94282952Y-101782952D01*
X94313397Y-101757966D01*
X94348133Y-101739399D01*
X94385826Y-101727965D01*
X94431161Y-101723500D01*
X95517839Y-101723500D01*
X95563174Y-101727965D01*
X95563174Y-101727965D01*
G37*
G36*
X107581274Y-101664265D02*
G01*
X107618967Y-101675699D01*
X107653703Y-101694266D01*
X107684148Y-101719252D01*
X107709134Y-101749697D01*
X107727701Y-101784433D01*
X107739135Y-101822126D01*
X107743600Y-101867461D01*
X107743600Y-102704139D01*
X107739135Y-102749474D01*
X107727701Y-102787167D01*
X107709134Y-102821903D01*
X107684148Y-102852348D01*
X107653703Y-102877334D01*
X107618967Y-102895901D01*
X107581274Y-102907335D01*
X107535939Y-102911800D01*
X106449261Y-102911800D01*
X106403926Y-102907335D01*
X106366233Y-102895901D01*
X106331497Y-102877334D01*
X106301052Y-102852348D01*
X106276066Y-102821903D01*
X106257499Y-102787167D01*
X106246065Y-102749474D01*
X106241600Y-102704139D01*
X106241600Y-101867461D01*
X106246065Y-101822126D01*
X106257499Y-101784433D01*
X106276066Y-101749697D01*
X106301052Y-101719252D01*
X106331497Y-101694266D01*
X106366233Y-101675699D01*
X106403926Y-101664265D01*
X106449261Y-101659800D01*
X107535939Y-101659800D01*
X107581274Y-101664265D01*
X107581274Y-101664265D01*
G37*
G36*
X111569074Y-101638865D02*
G01*
X111606767Y-101650299D01*
X111641503Y-101668866D01*
X111671948Y-101693852D01*
X111696934Y-101724297D01*
X111715501Y-101759033D01*
X111726935Y-101796726D01*
X111731400Y-101842061D01*
X111731400Y-102678739D01*
X111726935Y-102724074D01*
X111715501Y-102761767D01*
X111696934Y-102796503D01*
X111671948Y-102826948D01*
X111641503Y-102851934D01*
X111606767Y-102870501D01*
X111569074Y-102881935D01*
X111523739Y-102886400D01*
X110437061Y-102886400D01*
X110391726Y-102881935D01*
X110354033Y-102870501D01*
X110319297Y-102851934D01*
X110288852Y-102826948D01*
X110263866Y-102796503D01*
X110245299Y-102761767D01*
X110233865Y-102724074D01*
X110229400Y-102678739D01*
X110229400Y-101842061D01*
X110233865Y-101796726D01*
X110245299Y-101759033D01*
X110263866Y-101724297D01*
X110288852Y-101693852D01*
X110319297Y-101668866D01*
X110354033Y-101650299D01*
X110391726Y-101638865D01*
X110437061Y-101634400D01*
X111523739Y-101634400D01*
X111569074Y-101638865D01*
X111569074Y-101638865D01*
G37*
G36*
X103568074Y-99775665D02*
G01*
X103605767Y-99787099D01*
X103640503Y-99805666D01*
X103670948Y-99830652D01*
X103695934Y-99861097D01*
X103714501Y-99895833D01*
X103725935Y-99933526D01*
X103730400Y-99978861D01*
X103730400Y-100815539D01*
X103725935Y-100860874D01*
X103714501Y-100898567D01*
X103695934Y-100933303D01*
X103670948Y-100963748D01*
X103640503Y-100988734D01*
X103605767Y-101007301D01*
X103568074Y-101018735D01*
X103522739Y-101023200D01*
X102436061Y-101023200D01*
X102390726Y-101018735D01*
X102353033Y-101007301D01*
X102318297Y-100988734D01*
X102287852Y-100963748D01*
X102262866Y-100933303D01*
X102244299Y-100898567D01*
X102232865Y-100860874D01*
X102228400Y-100815539D01*
X102228400Y-99978861D01*
X102232865Y-99933526D01*
X102244299Y-99895833D01*
X102262866Y-99861097D01*
X102287852Y-99830652D01*
X102318297Y-99805666D01*
X102353033Y-99787099D01*
X102390726Y-99775665D01*
X102436061Y-99771200D01*
X103522739Y-99771200D01*
X103568074Y-99775665D01*
X103568074Y-99775665D01*
G37*
G36*
X99529474Y-99766665D02*
G01*
X99567167Y-99778099D01*
X99601903Y-99796666D01*
X99632348Y-99821652D01*
X99657334Y-99852097D01*
X99675901Y-99886833D01*
X99687335Y-99924526D01*
X99691800Y-99969861D01*
X99691800Y-100806539D01*
X99687335Y-100851874D01*
X99675901Y-100889567D01*
X99657334Y-100924303D01*
X99632348Y-100954748D01*
X99601903Y-100979734D01*
X99567167Y-100998301D01*
X99529474Y-101009735D01*
X99484139Y-101014200D01*
X98397461Y-101014200D01*
X98352126Y-101009735D01*
X98314433Y-100998301D01*
X98279697Y-100979734D01*
X98249252Y-100954748D01*
X98224266Y-100924303D01*
X98205699Y-100889567D01*
X98194265Y-100851874D01*
X98189800Y-100806539D01*
X98189800Y-99969861D01*
X98194265Y-99924526D01*
X98205699Y-99886833D01*
X98224266Y-99852097D01*
X98249252Y-99821652D01*
X98279697Y-99796666D01*
X98314433Y-99778099D01*
X98352126Y-99766665D01*
X98397461Y-99762200D01*
X99484139Y-99762200D01*
X99529474Y-99766665D01*
X99529474Y-99766665D01*
G37*
G36*
X95563174Y-99677965D02*
G01*
X95600867Y-99689399D01*
X95635603Y-99707966D01*
X95666048Y-99732952D01*
X95691034Y-99763397D01*
X95709601Y-99798133D01*
X95721035Y-99835826D01*
X95725500Y-99881161D01*
X95725500Y-100717839D01*
X95721035Y-100763174D01*
X95709601Y-100800867D01*
X95691034Y-100835603D01*
X95666048Y-100866048D01*
X95635603Y-100891034D01*
X95600867Y-100909601D01*
X95563174Y-100921035D01*
X95517839Y-100925500D01*
X94431161Y-100925500D01*
X94385826Y-100921035D01*
X94348133Y-100909601D01*
X94313397Y-100891034D01*
X94282952Y-100866048D01*
X94257966Y-100835603D01*
X94239399Y-100800867D01*
X94227965Y-100763174D01*
X94223500Y-100717839D01*
X94223500Y-99881161D01*
X94227965Y-99835826D01*
X94239399Y-99798133D01*
X94257966Y-99763397D01*
X94282952Y-99732952D01*
X94313397Y-99707966D01*
X94348133Y-99689399D01*
X94385826Y-99677965D01*
X94431161Y-99673500D01*
X95517839Y-99673500D01*
X95563174Y-99677965D01*
X95563174Y-99677965D01*
G37*
G36*
X107581274Y-99614265D02*
G01*
X107618967Y-99625699D01*
X107653703Y-99644266D01*
X107684148Y-99669252D01*
X107709134Y-99699697D01*
X107727701Y-99734433D01*
X107739135Y-99772126D01*
X107743600Y-99817461D01*
X107743600Y-100654139D01*
X107739135Y-100699474D01*
X107727701Y-100737167D01*
X107709134Y-100771903D01*
X107684148Y-100802348D01*
X107653703Y-100827334D01*
X107618967Y-100845901D01*
X107581274Y-100857335D01*
X107535939Y-100861800D01*
X106449261Y-100861800D01*
X106403926Y-100857335D01*
X106366233Y-100845901D01*
X106331497Y-100827334D01*
X106301052Y-100802348D01*
X106276066Y-100771903D01*
X106257499Y-100737167D01*
X106246065Y-100699474D01*
X106241600Y-100654139D01*
X106241600Y-99817461D01*
X106246065Y-99772126D01*
X106257499Y-99734433D01*
X106276066Y-99699697D01*
X106301052Y-99669252D01*
X106331497Y-99644266D01*
X106366233Y-99625699D01*
X106403926Y-99614265D01*
X106449261Y-99609800D01*
X107535939Y-99609800D01*
X107581274Y-99614265D01*
X107581274Y-99614265D01*
G37*
G36*
X111569074Y-99588865D02*
G01*
X111606767Y-99600299D01*
X111641503Y-99618866D01*
X111671948Y-99643852D01*
X111696934Y-99674297D01*
X111715501Y-99709033D01*
X111726935Y-99746726D01*
X111731400Y-99792061D01*
X111731400Y-100628739D01*
X111726935Y-100674074D01*
X111715501Y-100711767D01*
X111696934Y-100746503D01*
X111671948Y-100776948D01*
X111641503Y-100801934D01*
X111606767Y-100820501D01*
X111569074Y-100831935D01*
X111523739Y-100836400D01*
X110437061Y-100836400D01*
X110391726Y-100831935D01*
X110354033Y-100820501D01*
X110319297Y-100801934D01*
X110288852Y-100776948D01*
X110263866Y-100746503D01*
X110245299Y-100711767D01*
X110233865Y-100674074D01*
X110229400Y-100628739D01*
X110229400Y-99792061D01*
X110233865Y-99746726D01*
X110245299Y-99709033D01*
X110263866Y-99674297D01*
X110288852Y-99643852D01*
X110319297Y-99618866D01*
X110354033Y-99600299D01*
X110391726Y-99588865D01*
X110437061Y-99584400D01*
X111523739Y-99584400D01*
X111569074Y-99588865D01*
X111569074Y-99588865D01*
G37*
G36*
X80323000Y-100704000D02*
G01*
X79621000Y-100704000D01*
X79621000Y-99052000D01*
X80323000Y-99052000D01*
X80323000Y-100704000D01*
X80323000Y-100704000D01*
G37*
G36*
X84641000Y-100704000D02*
G01*
X83939000Y-100704000D01*
X83939000Y-99052000D01*
X84641000Y-99052000D01*
X84641000Y-100704000D01*
X84641000Y-100704000D01*
G37*
G36*
X83371000Y-100704000D02*
G01*
X82669000Y-100704000D01*
X82669000Y-99052000D01*
X83371000Y-99052000D01*
X83371000Y-100704000D01*
X83371000Y-100704000D01*
G37*
G36*
X82101000Y-100704000D02*
G01*
X81399000Y-100704000D01*
X81399000Y-99052000D01*
X82101000Y-99052000D01*
X82101000Y-100704000D01*
X82101000Y-100704000D01*
G37*
G36*
X76513000Y-100704000D02*
G01*
X75811000Y-100704000D01*
X75811000Y-99052000D01*
X76513000Y-99052000D01*
X76513000Y-100704000D01*
X76513000Y-100704000D01*
G37*
G36*
X77783000Y-100704000D02*
G01*
X77081000Y-100704000D01*
X77081000Y-99052000D01*
X77783000Y-99052000D01*
X77783000Y-100704000D01*
X77783000Y-100704000D01*
G37*
G36*
X79053000Y-100704000D02*
G01*
X78351000Y-100704000D01*
X78351000Y-99052000D01*
X79053000Y-99052000D01*
X79053000Y-100704000D01*
X79053000Y-100704000D01*
G37*
G36*
X87689000Y-100704000D02*
G01*
X86987000Y-100704000D01*
X86987000Y-99052000D01*
X87689000Y-99052000D01*
X87689000Y-100704000D01*
X87689000Y-100704000D01*
G37*
G36*
X91499000Y-100704000D02*
G01*
X90797000Y-100704000D01*
X90797000Y-99052000D01*
X91499000Y-99052000D01*
X91499000Y-100704000D01*
X91499000Y-100704000D01*
G37*
G36*
X90229000Y-100704000D02*
G01*
X89527000Y-100704000D01*
X89527000Y-99052000D01*
X90229000Y-99052000D01*
X90229000Y-100704000D01*
X90229000Y-100704000D01*
G37*
G36*
X88959000Y-100704000D02*
G01*
X88257000Y-100704000D01*
X88257000Y-99052000D01*
X88959000Y-99052000D01*
X88959000Y-100704000D01*
X88959000Y-100704000D01*
G37*
G36*
X85911000Y-100704000D02*
G01*
X85209000Y-100704000D01*
X85209000Y-99052000D01*
X85911000Y-99052000D01*
X85911000Y-100704000D01*
X85911000Y-100704000D01*
G37*
G36*
X87371000Y-98035000D02*
G01*
X86669000Y-98035000D01*
X86669000Y-96433000D01*
X87371000Y-96433000D01*
X87371000Y-98035000D01*
X87371000Y-98035000D01*
G37*
G36*
X88641000Y-98035000D02*
G01*
X87939000Y-98035000D01*
X87939000Y-96433000D01*
X88641000Y-96433000D01*
X88641000Y-98035000D01*
X88641000Y-98035000D01*
G37*
G36*
X89911000Y-98035000D02*
G01*
X89209000Y-98035000D01*
X89209000Y-96433000D01*
X89911000Y-96433000D01*
X89911000Y-98035000D01*
X89911000Y-98035000D01*
G37*
G36*
X92451000Y-98035000D02*
G01*
X91749000Y-98035000D01*
X91749000Y-96433000D01*
X92451000Y-96433000D01*
X92451000Y-98035000D01*
X92451000Y-98035000D01*
G37*
G36*
X93721000Y-98035000D02*
G01*
X93019000Y-98035000D01*
X93019000Y-96433000D01*
X93721000Y-96433000D01*
X93721000Y-98035000D01*
X93721000Y-98035000D01*
G37*
G36*
X94991000Y-98035000D02*
G01*
X94289000Y-98035000D01*
X94289000Y-96433000D01*
X94991000Y-96433000D01*
X94991000Y-98035000D01*
X94991000Y-98035000D01*
G37*
G36*
X91181000Y-98035000D02*
G01*
X90479000Y-98035000D01*
X90479000Y-96433000D01*
X91181000Y-96433000D01*
X91181000Y-98035000D01*
X91181000Y-98035000D01*
G37*
G36*
X78608000Y-97776500D02*
G01*
X77906000Y-97776500D01*
X77906000Y-96174500D01*
X78608000Y-96174500D01*
X78608000Y-97776500D01*
X78608000Y-97776500D01*
G37*
G36*
X77338000Y-97776500D02*
G01*
X76636000Y-97776500D01*
X76636000Y-96174500D01*
X77338000Y-96174500D01*
X77338000Y-97776500D01*
X77338000Y-97776500D01*
G37*
G36*
X76068000Y-97776500D02*
G01*
X75366000Y-97776500D01*
X75366000Y-96174500D01*
X76068000Y-96174500D01*
X76068000Y-97776500D01*
X76068000Y-97776500D01*
G37*
G36*
X74798000Y-97776500D02*
G01*
X74096000Y-97776500D01*
X74096000Y-96174500D01*
X74798000Y-96174500D01*
X74798000Y-97776500D01*
X74798000Y-97776500D01*
G37*
G36*
X73528000Y-97776500D02*
G01*
X72826000Y-97776500D01*
X72826000Y-96174500D01*
X73528000Y-96174500D01*
X73528000Y-97776500D01*
X73528000Y-97776500D01*
G37*
G36*
X70988000Y-97776500D02*
G01*
X70286000Y-97776500D01*
X70286000Y-96174500D01*
X70988000Y-96174500D01*
X70988000Y-97776500D01*
X70988000Y-97776500D01*
G37*
G36*
X72258000Y-97776500D02*
G01*
X71556000Y-97776500D01*
X71556000Y-96174500D01*
X72258000Y-96174500D01*
X72258000Y-97776500D01*
X72258000Y-97776500D01*
G37*
G36*
X115975000Y-96973000D02*
G01*
X114073000Y-96973000D01*
X114073000Y-93371000D01*
X115975000Y-93371000D01*
X115975000Y-96973000D01*
X115975000Y-96973000D01*
G37*
G36*
X84934999Y-95604999D02*
G01*
X83272999Y-95604999D01*
X83272999Y-92952999D01*
X84934999Y-92952999D01*
X84934999Y-95604999D01*
X84934999Y-95604999D01*
G37*
G36*
X82234999Y-95604999D02*
G01*
X80572999Y-95604999D01*
X80572999Y-94852999D01*
X82234999Y-94852999D01*
X82234999Y-95604999D01*
X82234999Y-95604999D01*
G37*
G36*
X119228562Y-93908181D02*
G01*
X119263481Y-93918774D01*
X119295663Y-93935976D01*
X119323873Y-93959127D01*
X119347024Y-93987337D01*
X119364226Y-94019519D01*
X119374819Y-94054438D01*
X119379000Y-94096895D01*
X119379000Y-95238105D01*
X119374819Y-95280562D01*
X119364226Y-95315481D01*
X119347024Y-95347663D01*
X119323873Y-95375873D01*
X119295663Y-95399024D01*
X119263481Y-95416226D01*
X119228562Y-95426819D01*
X119186105Y-95431000D01*
X117719895Y-95431000D01*
X117677438Y-95426819D01*
X117642519Y-95416226D01*
X117610337Y-95399024D01*
X117582127Y-95375873D01*
X117558976Y-95347663D01*
X117541774Y-95315481D01*
X117531181Y-95280562D01*
X117527000Y-95238105D01*
X117527000Y-94096895D01*
X117531181Y-94054438D01*
X117541774Y-94019519D01*
X117558976Y-93987337D01*
X117582127Y-93959127D01*
X117610337Y-93935976D01*
X117642519Y-93918774D01*
X117677438Y-93908181D01*
X117719895Y-93904000D01*
X119186105Y-93904000D01*
X119228562Y-93908181D01*
X119228562Y-93908181D01*
G37*
G36*
X112624562Y-93908181D02*
G01*
X112659481Y-93918774D01*
X112691663Y-93935976D01*
X112719873Y-93959127D01*
X112743024Y-93987337D01*
X112760226Y-94019519D01*
X112770819Y-94054438D01*
X112775000Y-94096895D01*
X112775000Y-95238105D01*
X112770819Y-95280562D01*
X112760226Y-95315481D01*
X112743024Y-95347663D01*
X112719873Y-95375873D01*
X112691663Y-95399024D01*
X112659481Y-95416226D01*
X112624562Y-95426819D01*
X112582105Y-95431000D01*
X111115895Y-95431000D01*
X111073438Y-95426819D01*
X111038519Y-95416226D01*
X111006337Y-95399024D01*
X110978127Y-95375873D01*
X110954976Y-95347663D01*
X110937774Y-95315481D01*
X110927181Y-95280562D01*
X110923000Y-95238105D01*
X110923000Y-94096895D01*
X110927181Y-94054438D01*
X110937774Y-94019519D01*
X110954976Y-93987337D01*
X110978127Y-93959127D01*
X111006337Y-93935976D01*
X111038519Y-93918774D01*
X111073438Y-93908181D01*
X111115895Y-93904000D01*
X112582105Y-93904000D01*
X112624562Y-93908181D01*
X112624562Y-93908181D01*
G37*
G36*
X82234999Y-93704999D02*
G01*
X80572999Y-93704999D01*
X80572999Y-92952999D01*
X82234999Y-92952999D01*
X82234999Y-93704999D01*
X82234999Y-93704999D01*
G37*
G36*
X92451000Y-92635000D02*
G01*
X91749000Y-92635000D01*
X91749000Y-91033000D01*
X92451000Y-91033000D01*
X92451000Y-92635000D01*
X92451000Y-92635000D01*
G37*
G36*
X93721000Y-92635000D02*
G01*
X93019000Y-92635000D01*
X93019000Y-91033000D01*
X93721000Y-91033000D01*
X93721000Y-92635000D01*
X93721000Y-92635000D01*
G37*
G36*
X91181000Y-92635000D02*
G01*
X90479000Y-92635000D01*
X90479000Y-91033000D01*
X91181000Y-91033000D01*
X91181000Y-92635000D01*
X91181000Y-92635000D01*
G37*
G36*
X88641000Y-92635000D02*
G01*
X87939000Y-92635000D01*
X87939000Y-91033000D01*
X88641000Y-91033000D01*
X88641000Y-92635000D01*
X88641000Y-92635000D01*
G37*
G36*
X87371000Y-92635000D02*
G01*
X86669000Y-92635000D01*
X86669000Y-91033000D01*
X87371000Y-91033000D01*
X87371000Y-92635000D01*
X87371000Y-92635000D01*
G37*
G36*
X94991000Y-92635000D02*
G01*
X94289000Y-92635000D01*
X94289000Y-91033000D01*
X94991000Y-91033000D01*
X94991000Y-92635000D01*
X94991000Y-92635000D01*
G37*
G36*
X89911000Y-92635000D02*
G01*
X89209000Y-92635000D01*
X89209000Y-91033000D01*
X89911000Y-91033000D01*
X89911000Y-92635000D01*
X89911000Y-92635000D01*
G37*
G36*
X119228562Y-90933181D02*
G01*
X119263481Y-90943774D01*
X119295663Y-90960976D01*
X119323873Y-90984127D01*
X119347024Y-91012337D01*
X119364226Y-91044519D01*
X119374819Y-91079438D01*
X119379000Y-91121895D01*
X119379000Y-92263105D01*
X119374819Y-92305562D01*
X119364226Y-92340481D01*
X119347024Y-92372663D01*
X119323873Y-92400873D01*
X119295663Y-92424024D01*
X119263481Y-92441226D01*
X119228562Y-92451819D01*
X119186105Y-92456000D01*
X117719895Y-92456000D01*
X117677438Y-92451819D01*
X117642519Y-92441226D01*
X117610337Y-92424024D01*
X117582127Y-92400873D01*
X117558976Y-92372663D01*
X117541774Y-92340481D01*
X117531181Y-92305562D01*
X117527000Y-92263105D01*
X117527000Y-91121895D01*
X117531181Y-91079438D01*
X117541774Y-91044519D01*
X117558976Y-91012337D01*
X117582127Y-90984127D01*
X117610337Y-90960976D01*
X117642519Y-90943774D01*
X117677438Y-90933181D01*
X117719895Y-90929000D01*
X119186105Y-90929000D01*
X119228562Y-90933181D01*
X119228562Y-90933181D01*
G37*
G36*
X112624562Y-90933181D02*
G01*
X112659481Y-90943774D01*
X112691663Y-90960976D01*
X112719873Y-90984127D01*
X112743024Y-91012337D01*
X112760226Y-91044519D01*
X112770819Y-91079438D01*
X112775000Y-91121895D01*
X112775000Y-92263105D01*
X112770819Y-92305562D01*
X112760226Y-92340481D01*
X112743024Y-92372663D01*
X112719873Y-92400873D01*
X112691663Y-92424024D01*
X112659481Y-92441226D01*
X112624562Y-92451819D01*
X112582105Y-92456000D01*
X111115895Y-92456000D01*
X111073438Y-92451819D01*
X111038519Y-92441226D01*
X111006337Y-92424024D01*
X110978127Y-92400873D01*
X110954976Y-92372663D01*
X110937774Y-92340481D01*
X110927181Y-92305562D01*
X110923000Y-92263105D01*
X110923000Y-91121895D01*
X110927181Y-91079438D01*
X110937774Y-91044519D01*
X110954976Y-91012337D01*
X110978127Y-90984127D01*
X111006337Y-90960976D01*
X111038519Y-90943774D01*
X111073438Y-90933181D01*
X111115895Y-90929000D01*
X112582105Y-90929000D01*
X112624562Y-90933181D01*
X112624562Y-90933181D01*
G37*
G36*
X72258000Y-92376500D02*
G01*
X71556000Y-92376500D01*
X71556000Y-90774500D01*
X72258000Y-90774500D01*
X72258000Y-92376500D01*
X72258000Y-92376500D01*
G37*
G36*
X73528000Y-92376500D02*
G01*
X72826000Y-92376500D01*
X72826000Y-90774500D01*
X73528000Y-90774500D01*
X73528000Y-92376500D01*
X73528000Y-92376500D01*
G37*
G36*
X74798000Y-92376500D02*
G01*
X74096000Y-92376500D01*
X74096000Y-90774500D01*
X74798000Y-90774500D01*
X74798000Y-92376500D01*
X74798000Y-92376500D01*
G37*
G36*
X76068000Y-92376500D02*
G01*
X75366000Y-92376500D01*
X75366000Y-90774500D01*
X76068000Y-90774500D01*
X76068000Y-92376500D01*
X76068000Y-92376500D01*
G37*
G36*
X77338000Y-92376500D02*
G01*
X76636000Y-92376500D01*
X76636000Y-90774500D01*
X77338000Y-90774500D01*
X77338000Y-92376500D01*
X77338000Y-92376500D01*
G37*
G36*
X78608000Y-92376500D02*
G01*
X77906000Y-92376500D01*
X77906000Y-90774500D01*
X78608000Y-90774500D01*
X78608000Y-92376500D01*
X78608000Y-92376500D01*
G37*
G36*
X70988000Y-92376500D02*
G01*
X70286000Y-92376500D01*
X70286000Y-90774500D01*
X70988000Y-90774500D01*
X70988000Y-92376500D01*
X70988000Y-92376500D01*
G37*
G36*
X115975000Y-91973000D02*
G01*
X114073000Y-91973000D01*
X114073000Y-88371000D01*
X115975000Y-88371000D01*
X115975000Y-91973000D01*
X115975000Y-91973000D01*
G37*
G36*
X112624562Y-88701181D02*
G01*
X112659481Y-88711774D01*
X112691663Y-88728976D01*
X112719873Y-88752127D01*
X112743024Y-88780337D01*
X112760226Y-88812519D01*
X112770819Y-88847438D01*
X112775000Y-88889895D01*
X112775000Y-90031105D01*
X112770819Y-90073562D01*
X112760226Y-90108481D01*
X112743024Y-90140663D01*
X112719873Y-90168873D01*
X112691663Y-90192024D01*
X112659481Y-90209226D01*
X112624562Y-90219819D01*
X112582105Y-90224000D01*
X111115895Y-90224000D01*
X111073438Y-90219819D01*
X111038519Y-90209226D01*
X111006337Y-90192024D01*
X110978127Y-90168873D01*
X110954976Y-90140663D01*
X110937774Y-90108481D01*
X110927181Y-90073562D01*
X110923000Y-90031105D01*
X110923000Y-88889895D01*
X110927181Y-88847438D01*
X110937774Y-88812519D01*
X110954976Y-88780337D01*
X110978127Y-88752127D01*
X111006337Y-88728976D01*
X111038519Y-88711774D01*
X111073438Y-88701181D01*
X111115895Y-88697000D01*
X112582105Y-88697000D01*
X112624562Y-88701181D01*
X112624562Y-88701181D01*
G37*
G36*
X119228562Y-88701181D02*
G01*
X119263481Y-88711774D01*
X119295663Y-88728976D01*
X119323873Y-88752127D01*
X119347024Y-88780337D01*
X119364226Y-88812519D01*
X119374819Y-88847438D01*
X119379000Y-88889895D01*
X119379000Y-90031105D01*
X119374819Y-90073562D01*
X119364226Y-90108481D01*
X119347024Y-90140663D01*
X119323873Y-90168873D01*
X119295663Y-90192024D01*
X119263481Y-90209226D01*
X119228562Y-90219819D01*
X119186105Y-90224000D01*
X117719895Y-90224000D01*
X117677438Y-90219819D01*
X117642519Y-90209226D01*
X117610337Y-90192024D01*
X117582127Y-90168873D01*
X117558976Y-90140663D01*
X117541774Y-90108481D01*
X117531181Y-90073562D01*
X117527000Y-90031105D01*
X117527000Y-88889895D01*
X117531181Y-88847438D01*
X117541774Y-88812519D01*
X117558976Y-88780337D01*
X117582127Y-88752127D01*
X117610337Y-88728976D01*
X117642519Y-88711774D01*
X117677438Y-88701181D01*
X117719895Y-88697000D01*
X119186105Y-88697000D01*
X119228562Y-88701181D01*
X119228562Y-88701181D01*
G37*
G36*
X80439585Y-86912802D02*
G01*
X80589410Y-86942604D01*
X80871674Y-87059521D01*
X81125705Y-87229259D01*
X81341741Y-87445295D01*
X81511479Y-87699326D01*
X81628396Y-87981590D01*
X81628396Y-87981591D01*
X81679646Y-88239239D01*
X81688000Y-88281240D01*
X81688000Y-88586760D01*
X81628396Y-88886410D01*
X81511479Y-89168674D01*
X81341741Y-89422705D01*
X81125705Y-89638741D01*
X80871674Y-89808479D01*
X80589410Y-89925396D01*
X80439585Y-89955198D01*
X80289761Y-89985000D01*
X79984239Y-89985000D01*
X79834415Y-89955198D01*
X79684590Y-89925396D01*
X79402326Y-89808479D01*
X79148295Y-89638741D01*
X78932259Y-89422705D01*
X78762521Y-89168674D01*
X78645604Y-88886410D01*
X78586000Y-88586760D01*
X78586000Y-88281240D01*
X78594355Y-88239239D01*
X78645604Y-87981591D01*
X78645604Y-87981590D01*
X78762521Y-87699326D01*
X78932259Y-87445295D01*
X79148295Y-87229259D01*
X79402326Y-87059521D01*
X79684590Y-86942604D01*
X79834415Y-86912802D01*
X79984239Y-86883000D01*
X80289761Y-86883000D01*
X80439585Y-86912802D01*
X80439585Y-86912802D01*
G37*
G36*
X108633585Y-86870802D02*
G01*
X108783410Y-86900604D01*
X109065674Y-87017521D01*
X109319705Y-87187259D01*
X109535741Y-87403295D01*
X109705479Y-87657326D01*
X109822396Y-87939590D01*
X109852198Y-88089415D01*
X109882000Y-88239239D01*
X109882000Y-88544761D01*
X109852198Y-88694585D01*
X109822396Y-88844410D01*
X109705479Y-89126674D01*
X109535741Y-89380705D01*
X109319705Y-89596741D01*
X109065674Y-89766479D01*
X108783410Y-89883396D01*
X108633585Y-89913198D01*
X108483761Y-89943000D01*
X108178239Y-89943000D01*
X108028415Y-89913198D01*
X107878590Y-89883396D01*
X107596326Y-89766479D01*
X107342295Y-89596741D01*
X107126259Y-89380705D01*
X106956521Y-89126674D01*
X106839604Y-88844410D01*
X106809802Y-88694585D01*
X106780000Y-88544761D01*
X106780000Y-88239239D01*
X106809802Y-88089415D01*
X106839604Y-87939590D01*
X106956521Y-87657326D01*
X107126259Y-87403295D01*
X107342295Y-87187259D01*
X107596326Y-87017521D01*
X107878590Y-86900604D01*
X108028415Y-86870802D01*
X108178239Y-86841000D01*
X108483761Y-86841000D01*
X108633585Y-86870802D01*
X108633585Y-86870802D01*
G37*
G36*
X94409585Y-86870802D02*
G01*
X94559410Y-86900604D01*
X94841674Y-87017521D01*
X95095705Y-87187259D01*
X95311741Y-87403295D01*
X95481479Y-87657326D01*
X95598396Y-87939590D01*
X95628198Y-88089415D01*
X95658000Y-88239239D01*
X95658000Y-88544761D01*
X95628198Y-88694585D01*
X95598396Y-88844410D01*
X95481479Y-89126674D01*
X95311741Y-89380705D01*
X95095705Y-89596741D01*
X94841674Y-89766479D01*
X94559410Y-89883396D01*
X94409585Y-89913198D01*
X94259761Y-89943000D01*
X93954239Y-89943000D01*
X93804415Y-89913198D01*
X93654590Y-89883396D01*
X93372326Y-89766479D01*
X93118295Y-89596741D01*
X92902259Y-89380705D01*
X92732521Y-89126674D01*
X92615604Y-88844410D01*
X92585802Y-88694585D01*
X92556000Y-88544761D01*
X92556000Y-88239239D01*
X92585802Y-88089415D01*
X92615604Y-87939590D01*
X92732521Y-87657326D01*
X92902259Y-87403295D01*
X93118295Y-87187259D01*
X93372326Y-87017521D01*
X93654590Y-86900604D01*
X93804415Y-86870802D01*
X93954239Y-86841000D01*
X94259761Y-86841000D01*
X94409585Y-86870802D01*
X94409585Y-86870802D01*
G37*
G36*
X101945999Y-87335001D02*
G01*
X101243999Y-87335001D01*
X101243999Y-85683001D01*
X101945999Y-85683001D01*
X101945999Y-87335001D01*
X101945999Y-87335001D01*
G37*
G36*
X103215999Y-87335001D02*
G01*
X102513999Y-87335001D01*
X102513999Y-85683001D01*
X103215999Y-85683001D01*
X103215999Y-87335001D01*
X103215999Y-87335001D01*
G37*
G36*
X104485999Y-87335001D02*
G01*
X103783999Y-87335001D01*
X103783999Y-85683001D01*
X104485999Y-85683001D01*
X104485999Y-87335001D01*
X104485999Y-87335001D01*
G37*
G36*
X105755999Y-87335001D02*
G01*
X105053999Y-87335001D01*
X105053999Y-85683001D01*
X105755999Y-85683001D01*
X105755999Y-87335001D01*
X105755999Y-87335001D01*
G37*
G36*
X73825999Y-87317001D02*
G01*
X73123999Y-87317001D01*
X73123999Y-85665001D01*
X73825999Y-85665001D01*
X73825999Y-87317001D01*
X73825999Y-87317001D01*
G37*
G36*
X77635999Y-87317001D02*
G01*
X76933999Y-87317001D01*
X76933999Y-85665001D01*
X77635999Y-85665001D01*
X77635999Y-87317001D01*
X77635999Y-87317001D01*
G37*
G36*
X76365999Y-87317001D02*
G01*
X75663999Y-87317001D01*
X75663999Y-85665001D01*
X76365999Y-85665001D01*
X76365999Y-87317001D01*
X76365999Y-87317001D01*
G37*
G36*
X75095999Y-87317001D02*
G01*
X74393999Y-87317001D01*
X74393999Y-85665001D01*
X75095999Y-85665001D01*
X75095999Y-87317001D01*
X75095999Y-87317001D01*
G37*
G36*
X91585999Y-87303001D02*
G01*
X90883999Y-87303001D01*
X90883999Y-85651001D01*
X91585999Y-85651001D01*
X91585999Y-87303001D01*
X91585999Y-87303001D01*
G37*
G36*
X89045999Y-87303001D02*
G01*
X88343999Y-87303001D01*
X88343999Y-85651001D01*
X89045999Y-85651001D01*
X89045999Y-87303001D01*
X89045999Y-87303001D01*
G37*
G36*
X87775999Y-87303001D02*
G01*
X87073999Y-87303001D01*
X87073999Y-85651001D01*
X87775999Y-85651001D01*
X87775999Y-87303001D01*
X87775999Y-87303001D01*
G37*
G36*
X90315999Y-87303001D02*
G01*
X89613999Y-87303001D01*
X89613999Y-85651001D01*
X90315999Y-85651001D01*
X90315999Y-87303001D01*
X90315999Y-87303001D01*
G37*
G36*
X119228562Y-85726181D02*
G01*
X119263481Y-85736774D01*
X119295663Y-85753976D01*
X119323873Y-85777127D01*
X119347024Y-85805337D01*
X119364226Y-85837519D01*
X119374819Y-85872438D01*
X119379000Y-85914895D01*
X119379000Y-87056105D01*
X119374819Y-87098562D01*
X119364226Y-87133481D01*
X119347024Y-87165663D01*
X119323873Y-87193873D01*
X119295663Y-87217024D01*
X119263481Y-87234226D01*
X119228562Y-87244819D01*
X119186105Y-87249000D01*
X117719895Y-87249000D01*
X117677438Y-87244819D01*
X117642519Y-87234226D01*
X117610337Y-87217024D01*
X117582127Y-87193873D01*
X117558976Y-87165663D01*
X117541774Y-87133481D01*
X117531181Y-87098562D01*
X117527000Y-87056105D01*
X117527000Y-85914895D01*
X117531181Y-85872438D01*
X117541774Y-85837519D01*
X117558976Y-85805337D01*
X117582127Y-85777127D01*
X117610337Y-85753976D01*
X117642519Y-85736774D01*
X117677438Y-85726181D01*
X117719895Y-85722000D01*
X119186105Y-85722000D01*
X119228562Y-85726181D01*
X119228562Y-85726181D01*
G37*
G36*
X112624562Y-85726181D02*
G01*
X112659481Y-85736774D01*
X112691663Y-85753976D01*
X112719873Y-85777127D01*
X112743024Y-85805337D01*
X112760226Y-85837519D01*
X112770819Y-85872438D01*
X112775000Y-85914895D01*
X112775000Y-87056105D01*
X112770819Y-87098562D01*
X112760226Y-87133481D01*
X112743024Y-87165663D01*
X112719873Y-87193873D01*
X112691663Y-87217024D01*
X112659481Y-87234226D01*
X112624562Y-87244819D01*
X112582105Y-87249000D01*
X111115895Y-87249000D01*
X111073438Y-87244819D01*
X111038519Y-87234226D01*
X111006337Y-87217024D01*
X110978127Y-87193873D01*
X110954976Y-87165663D01*
X110937774Y-87133481D01*
X110927181Y-87098562D01*
X110923000Y-87056105D01*
X110923000Y-85914895D01*
X110927181Y-85872438D01*
X110937774Y-85837519D01*
X110954976Y-85805337D01*
X110978127Y-85777127D01*
X111006337Y-85753976D01*
X111038519Y-85736774D01*
X111073438Y-85726181D01*
X111115895Y-85722000D01*
X112582105Y-85722000D01*
X112624562Y-85726181D01*
X112624562Y-85726181D01*
G37*
G36*
X116639674Y-85702465D02*
G01*
X116677367Y-85713899D01*
X116712103Y-85732466D01*
X116742548Y-85757452D01*
X116767534Y-85787897D01*
X116786101Y-85822633D01*
X116797535Y-85860326D01*
X116802000Y-85905661D01*
X116802000Y-86992339D01*
X116797535Y-87037674D01*
X116786101Y-87075367D01*
X116767534Y-87110103D01*
X116742548Y-87140548D01*
X116712103Y-87165534D01*
X116677367Y-87184101D01*
X116639674Y-87195535D01*
X116594339Y-87200000D01*
X115757661Y-87200000D01*
X115712326Y-87195535D01*
X115674633Y-87184101D01*
X115639897Y-87165534D01*
X115609452Y-87140548D01*
X115584466Y-87110103D01*
X115565899Y-87075367D01*
X115554465Y-87037674D01*
X115550000Y-86992339D01*
X115550000Y-85905661D01*
X115554465Y-85860326D01*
X115565899Y-85822633D01*
X115584466Y-85787897D01*
X115609452Y-85757452D01*
X115639897Y-85732466D01*
X115674633Y-85713899D01*
X115712326Y-85702465D01*
X115757661Y-85698000D01*
X116594339Y-85698000D01*
X116639674Y-85702465D01*
X116639674Y-85702465D01*
G37*
G36*
X114589674Y-85702465D02*
G01*
X114627367Y-85713899D01*
X114662103Y-85732466D01*
X114692548Y-85757452D01*
X114717534Y-85787897D01*
X114736101Y-85822633D01*
X114747535Y-85860326D01*
X114752000Y-85905661D01*
X114752000Y-86992339D01*
X114747535Y-87037674D01*
X114736101Y-87075367D01*
X114717534Y-87110103D01*
X114692548Y-87140548D01*
X114662103Y-87165534D01*
X114627367Y-87184101D01*
X114589674Y-87195535D01*
X114544339Y-87200000D01*
X113707661Y-87200000D01*
X113662326Y-87195535D01*
X113624633Y-87184101D01*
X113589897Y-87165534D01*
X113559452Y-87140548D01*
X113534466Y-87110103D01*
X113515899Y-87075367D01*
X113504465Y-87037674D01*
X113500000Y-86992339D01*
X113500000Y-85905661D01*
X113504465Y-85860326D01*
X113515899Y-85822633D01*
X113534466Y-85787897D01*
X113559452Y-85757452D01*
X113589897Y-85732466D01*
X113624633Y-85713899D01*
X113662326Y-85702465D01*
X113707661Y-85698000D01*
X114544339Y-85698000D01*
X114589674Y-85702465D01*
X114589674Y-85702465D01*
G37*
G36*
X99750562Y-84626681D02*
G01*
X99785481Y-84637274D01*
X99817663Y-84654476D01*
X99845873Y-84677627D01*
X99869024Y-84705837D01*
X99886226Y-84738019D01*
X99896819Y-84772938D01*
X99901000Y-84815395D01*
X99901000Y-85956605D01*
X99896819Y-85999062D01*
X99886226Y-86033981D01*
X99869024Y-86066163D01*
X99845873Y-86094373D01*
X99817663Y-86117524D01*
X99785481Y-86134726D01*
X99750562Y-86145319D01*
X99708105Y-86149500D01*
X98241895Y-86149500D01*
X98199438Y-86145319D01*
X98164519Y-86134726D01*
X98132337Y-86117524D01*
X98104127Y-86094373D01*
X98080976Y-86066163D01*
X98063774Y-86033981D01*
X98053181Y-85999062D01*
X98049000Y-85956605D01*
X98049000Y-84815395D01*
X98053181Y-84772938D01*
X98063774Y-84738019D01*
X98080976Y-84705837D01*
X98104127Y-84677627D01*
X98132337Y-84654476D01*
X98164519Y-84637274D01*
X98199438Y-84626681D01*
X98241895Y-84622500D01*
X99708105Y-84622500D01*
X99750562Y-84626681D01*
X99750562Y-84626681D01*
G37*
G36*
X108852562Y-84511681D02*
G01*
X108887481Y-84522274D01*
X108919663Y-84539476D01*
X108947873Y-84562627D01*
X108971024Y-84590837D01*
X108988226Y-84623019D01*
X108998819Y-84657938D01*
X109003000Y-84700395D01*
X109003000Y-85841605D01*
X108998819Y-85884062D01*
X108988226Y-85918981D01*
X108971024Y-85951163D01*
X108947873Y-85979373D01*
X108919663Y-86002524D01*
X108887481Y-86019726D01*
X108852562Y-86030319D01*
X108810105Y-86034500D01*
X107343895Y-86034500D01*
X107301438Y-86030319D01*
X107266519Y-86019726D01*
X107234337Y-86002524D01*
X107206127Y-85979373D01*
X107182976Y-85951163D01*
X107165774Y-85918981D01*
X107155181Y-85884062D01*
X107151000Y-85841605D01*
X107151000Y-84700395D01*
X107155181Y-84657938D01*
X107165774Y-84623019D01*
X107182976Y-84590837D01*
X107206127Y-84562627D01*
X107234337Y-84539476D01*
X107266519Y-84522274D01*
X107301438Y-84511681D01*
X107343895Y-84507500D01*
X108810105Y-84507500D01*
X108852562Y-84511681D01*
X108852562Y-84511681D01*
G37*
G36*
X94670562Y-84511681D02*
G01*
X94705481Y-84522274D01*
X94737663Y-84539476D01*
X94765873Y-84562627D01*
X94789024Y-84590837D01*
X94806226Y-84623019D01*
X94816819Y-84657938D01*
X94821000Y-84700395D01*
X94821000Y-85841605D01*
X94816819Y-85884062D01*
X94806226Y-85918981D01*
X94789024Y-85951163D01*
X94765873Y-85979373D01*
X94737663Y-86002524D01*
X94705481Y-86019726D01*
X94670562Y-86030319D01*
X94628105Y-86034500D01*
X93161895Y-86034500D01*
X93119438Y-86030319D01*
X93084519Y-86019726D01*
X93052337Y-86002524D01*
X93024127Y-85979373D01*
X93000976Y-85951163D01*
X92983774Y-85918981D01*
X92973181Y-85884062D01*
X92969000Y-85841605D01*
X92969000Y-84700395D01*
X92973181Y-84657938D01*
X92983774Y-84623019D01*
X93000976Y-84590837D01*
X93024127Y-84562627D01*
X93052337Y-84539476D01*
X93084519Y-84522274D01*
X93119438Y-84511681D01*
X93161895Y-84507500D01*
X94628105Y-84507500D01*
X94670562Y-84511681D01*
X94670562Y-84511681D01*
G37*
G36*
X80700562Y-84511681D02*
G01*
X80735481Y-84522274D01*
X80767663Y-84539476D01*
X80795873Y-84562627D01*
X80819024Y-84590837D01*
X80836226Y-84623019D01*
X80846819Y-84657938D01*
X80851000Y-84700395D01*
X80851000Y-85841605D01*
X80846819Y-85884062D01*
X80836226Y-85918981D01*
X80819024Y-85951163D01*
X80795873Y-85979373D01*
X80767663Y-86002524D01*
X80735481Y-86019726D01*
X80700562Y-86030319D01*
X80658105Y-86034500D01*
X79191895Y-86034500D01*
X79149438Y-86030319D01*
X79114519Y-86019726D01*
X79082337Y-86002524D01*
X79054127Y-85979373D01*
X79030976Y-85951163D01*
X79013774Y-85918981D01*
X79003181Y-85884062D01*
X78999000Y-85841605D01*
X78999000Y-84700395D01*
X79003181Y-84657938D01*
X79013774Y-84623019D01*
X79030976Y-84590837D01*
X79054127Y-84562627D01*
X79082337Y-84539476D01*
X79114519Y-84522274D01*
X79149438Y-84511681D01*
X79191895Y-84507500D01*
X80658105Y-84507500D01*
X80700562Y-84511681D01*
X80700562Y-84511681D01*
G37*
G36*
X71683562Y-84499681D02*
G01*
X71718481Y-84510274D01*
X71750663Y-84527476D01*
X71778873Y-84550627D01*
X71802024Y-84578837D01*
X71819226Y-84611019D01*
X71829819Y-84645938D01*
X71834000Y-84688395D01*
X71834000Y-85829605D01*
X71829819Y-85872062D01*
X71819226Y-85906981D01*
X71802024Y-85939163D01*
X71778873Y-85967373D01*
X71750663Y-85990524D01*
X71718481Y-86007726D01*
X71683562Y-86018319D01*
X71641105Y-86022500D01*
X70174895Y-86022500D01*
X70132438Y-86018319D01*
X70097519Y-86007726D01*
X70065337Y-85990524D01*
X70037127Y-85967373D01*
X70013976Y-85939163D01*
X69996774Y-85906981D01*
X69986181Y-85872062D01*
X69982000Y-85829605D01*
X69982000Y-84688395D01*
X69986181Y-84645938D01*
X69996774Y-84611019D01*
X70013976Y-84578837D01*
X70037127Y-84550627D01*
X70065337Y-84527476D01*
X70097519Y-84510274D01*
X70132438Y-84499681D01*
X70174895Y-84495500D01*
X71641105Y-84495500D01*
X71683562Y-84499681D01*
X71683562Y-84499681D01*
G37*
G36*
X85526562Y-84499681D02*
G01*
X85561481Y-84510274D01*
X85593663Y-84527476D01*
X85621873Y-84550627D01*
X85645024Y-84578837D01*
X85662226Y-84611019D01*
X85672819Y-84645938D01*
X85677000Y-84688395D01*
X85677000Y-85829605D01*
X85672819Y-85872062D01*
X85662226Y-85906981D01*
X85645024Y-85939163D01*
X85621873Y-85967373D01*
X85593663Y-85990524D01*
X85561481Y-86007726D01*
X85526562Y-86018319D01*
X85484105Y-86022500D01*
X84017895Y-86022500D01*
X83975438Y-86018319D01*
X83940519Y-86007726D01*
X83908337Y-85990524D01*
X83880127Y-85967373D01*
X83856976Y-85939163D01*
X83839774Y-85906981D01*
X83829181Y-85872062D01*
X83825000Y-85829605D01*
X83825000Y-84688395D01*
X83829181Y-84645938D01*
X83839774Y-84611019D01*
X83856976Y-84578837D01*
X83880127Y-84550627D01*
X83908337Y-84527476D01*
X83940519Y-84510274D01*
X83975438Y-84499681D01*
X84017895Y-84495500D01*
X85484105Y-84495500D01*
X85526562Y-84499681D01*
X85526562Y-84499681D01*
G37*
G36*
X115226001Y-84810999D02*
G01*
X114524001Y-84810999D01*
X114524001Y-83158999D01*
X115226001Y-83158999D01*
X115226001Y-84810999D01*
X115226001Y-84810999D01*
G37*
G36*
X119036001Y-84810999D02*
G01*
X118334001Y-84810999D01*
X118334001Y-83158999D01*
X119036001Y-83158999D01*
X119036001Y-84810999D01*
X119036001Y-84810999D01*
G37*
G36*
X116496001Y-84810999D02*
G01*
X115794001Y-84810999D01*
X115794001Y-83158999D01*
X116496001Y-83158999D01*
X116496001Y-84810999D01*
X116496001Y-84810999D01*
G37*
G36*
X117766001Y-84810999D02*
G01*
X117064001Y-84810999D01*
X117064001Y-83158999D01*
X117766001Y-83158999D01*
X117766001Y-84810999D01*
X117766001Y-84810999D01*
G37*
G36*
X112437674Y-83042465D02*
G01*
X112475367Y-83053899D01*
X112510103Y-83072466D01*
X112540548Y-83097452D01*
X112565534Y-83127897D01*
X112584101Y-83162633D01*
X112595535Y-83200326D01*
X112600000Y-83245661D01*
X112600000Y-84082339D01*
X112595535Y-84127674D01*
X112584101Y-84165367D01*
X112565534Y-84200103D01*
X112540548Y-84230548D01*
X112510103Y-84255534D01*
X112475367Y-84274101D01*
X112437674Y-84285535D01*
X112392339Y-84290000D01*
X111305661Y-84290000D01*
X111260326Y-84285535D01*
X111222633Y-84274101D01*
X111187897Y-84255534D01*
X111157452Y-84230548D01*
X111132466Y-84200103D01*
X111113899Y-84165367D01*
X111102465Y-84127674D01*
X111098000Y-84082339D01*
X111098000Y-83245661D01*
X111102465Y-83200326D01*
X111113899Y-83162633D01*
X111132466Y-83127897D01*
X111157452Y-83097452D01*
X111187897Y-83072466D01*
X111222633Y-83053899D01*
X111260326Y-83042465D01*
X111305661Y-83038000D01*
X112392339Y-83038000D01*
X112437674Y-83042465D01*
X112437674Y-83042465D01*
G37*
G36*
X99750562Y-81651681D02*
G01*
X99785481Y-81662274D01*
X99817663Y-81679476D01*
X99845873Y-81702627D01*
X99869024Y-81730837D01*
X99886226Y-81763019D01*
X99896819Y-81797938D01*
X99901000Y-81840395D01*
X99901000Y-82981605D01*
X99896819Y-83024062D01*
X99886226Y-83058981D01*
X99869024Y-83091163D01*
X99845873Y-83119373D01*
X99817663Y-83142524D01*
X99785481Y-83159726D01*
X99750562Y-83170319D01*
X99708105Y-83174500D01*
X98241895Y-83174500D01*
X98199438Y-83170319D01*
X98164519Y-83159726D01*
X98132337Y-83142524D01*
X98104127Y-83119373D01*
X98080976Y-83091163D01*
X98063774Y-83058981D01*
X98053181Y-83024062D01*
X98049000Y-82981605D01*
X98049000Y-81840395D01*
X98053181Y-81797938D01*
X98063774Y-81763019D01*
X98080976Y-81730837D01*
X98104127Y-81702627D01*
X98132337Y-81679476D01*
X98164519Y-81662274D01*
X98199438Y-81651681D01*
X98241895Y-81647500D01*
X99708105Y-81647500D01*
X99750562Y-81651681D01*
X99750562Y-81651681D01*
G37*
G36*
X80700562Y-81536681D02*
G01*
X80735481Y-81547274D01*
X80767663Y-81564476D01*
X80795873Y-81587627D01*
X80819024Y-81615837D01*
X80836226Y-81648019D01*
X80846819Y-81682938D01*
X80851000Y-81725395D01*
X80851000Y-82866605D01*
X80846819Y-82909062D01*
X80836226Y-82943981D01*
X80819024Y-82976163D01*
X80795873Y-83004373D01*
X80767663Y-83027524D01*
X80735481Y-83044726D01*
X80700562Y-83055319D01*
X80658105Y-83059500D01*
X79191895Y-83059500D01*
X79149438Y-83055319D01*
X79114519Y-83044726D01*
X79082337Y-83027524D01*
X79054127Y-83004373D01*
X79030976Y-82976163D01*
X79013774Y-82943981D01*
X79003181Y-82909062D01*
X78999000Y-82866605D01*
X78999000Y-81725395D01*
X79003181Y-81682938D01*
X79013774Y-81648019D01*
X79030976Y-81615837D01*
X79054127Y-81587627D01*
X79082337Y-81564476D01*
X79114519Y-81547274D01*
X79149438Y-81536681D01*
X79191895Y-81532500D01*
X80658105Y-81532500D01*
X80700562Y-81536681D01*
X80700562Y-81536681D01*
G37*
G36*
X94670562Y-81536681D02*
G01*
X94705481Y-81547274D01*
X94737663Y-81564476D01*
X94765873Y-81587627D01*
X94789024Y-81615837D01*
X94806226Y-81648019D01*
X94816819Y-81682938D01*
X94821000Y-81725395D01*
X94821000Y-82866605D01*
X94816819Y-82909062D01*
X94806226Y-82943981D01*
X94789024Y-82976163D01*
X94765873Y-83004373D01*
X94737663Y-83027524D01*
X94705481Y-83044726D01*
X94670562Y-83055319D01*
X94628105Y-83059500D01*
X93161895Y-83059500D01*
X93119438Y-83055319D01*
X93084519Y-83044726D01*
X93052337Y-83027524D01*
X93024127Y-83004373D01*
X93000976Y-82976163D01*
X92983774Y-82943981D01*
X92973181Y-82909062D01*
X92969000Y-82866605D01*
X92969000Y-81725395D01*
X92973181Y-81682938D01*
X92983774Y-81648019D01*
X93000976Y-81615837D01*
X93024127Y-81587627D01*
X93052337Y-81564476D01*
X93084519Y-81547274D01*
X93119438Y-81536681D01*
X93161895Y-81532500D01*
X94628105Y-81532500D01*
X94670562Y-81536681D01*
X94670562Y-81536681D01*
G37*
G36*
X108852562Y-81536681D02*
G01*
X108887481Y-81547274D01*
X108919663Y-81564476D01*
X108947873Y-81587627D01*
X108971024Y-81615837D01*
X108988226Y-81648019D01*
X108998819Y-81682938D01*
X109003000Y-81725395D01*
X109003000Y-82866605D01*
X108998819Y-82909062D01*
X108988226Y-82943981D01*
X108971024Y-82976163D01*
X108947873Y-83004373D01*
X108919663Y-83027524D01*
X108887481Y-83044726D01*
X108852562Y-83055319D01*
X108810105Y-83059500D01*
X107343895Y-83059500D01*
X107301438Y-83055319D01*
X107266519Y-83044726D01*
X107234337Y-83027524D01*
X107206127Y-83004373D01*
X107182976Y-82976163D01*
X107165774Y-82943981D01*
X107155181Y-82909062D01*
X107151000Y-82866605D01*
X107151000Y-81725395D01*
X107155181Y-81682938D01*
X107165774Y-81648019D01*
X107182976Y-81615837D01*
X107206127Y-81587627D01*
X107234337Y-81564476D01*
X107266519Y-81547274D01*
X107301438Y-81536681D01*
X107343895Y-81532500D01*
X108810105Y-81532500D01*
X108852562Y-81536681D01*
X108852562Y-81536681D01*
G37*
G36*
X71683562Y-81524681D02*
G01*
X71718481Y-81535274D01*
X71750663Y-81552476D01*
X71778873Y-81575627D01*
X71802024Y-81603837D01*
X71819226Y-81636019D01*
X71829819Y-81670938D01*
X71834000Y-81713395D01*
X71834000Y-82854605D01*
X71829819Y-82897062D01*
X71819226Y-82931981D01*
X71802024Y-82964163D01*
X71778873Y-82992373D01*
X71750663Y-83015524D01*
X71718481Y-83032726D01*
X71683562Y-83043319D01*
X71641105Y-83047500D01*
X70174895Y-83047500D01*
X70132438Y-83043319D01*
X70097519Y-83032726D01*
X70065337Y-83015524D01*
X70037127Y-82992373D01*
X70013976Y-82964163D01*
X69996774Y-82931981D01*
X69986181Y-82897062D01*
X69982000Y-82854605D01*
X69982000Y-81713395D01*
X69986181Y-81670938D01*
X69996774Y-81636019D01*
X70013976Y-81603837D01*
X70037127Y-81575627D01*
X70065337Y-81552476D01*
X70097519Y-81535274D01*
X70132438Y-81524681D01*
X70174895Y-81520500D01*
X71641105Y-81520500D01*
X71683562Y-81524681D01*
X71683562Y-81524681D01*
G37*
G36*
X85526562Y-81524681D02*
G01*
X85561481Y-81535274D01*
X85593663Y-81552476D01*
X85621873Y-81575627D01*
X85645024Y-81603837D01*
X85662226Y-81636019D01*
X85672819Y-81670938D01*
X85677000Y-81713395D01*
X85677000Y-82854605D01*
X85672819Y-82897062D01*
X85662226Y-82931981D01*
X85645024Y-82964163D01*
X85621873Y-82992373D01*
X85593663Y-83015524D01*
X85561481Y-83032726D01*
X85526562Y-83043319D01*
X85484105Y-83047500D01*
X84017895Y-83047500D01*
X83975438Y-83043319D01*
X83940519Y-83032726D01*
X83908337Y-83015524D01*
X83880127Y-82992373D01*
X83856976Y-82964163D01*
X83839774Y-82931981D01*
X83829181Y-82897062D01*
X83825000Y-82854605D01*
X83825000Y-81713395D01*
X83829181Y-81670938D01*
X83839774Y-81636019D01*
X83856976Y-81603837D01*
X83880127Y-81575627D01*
X83908337Y-81552476D01*
X83940519Y-81535274D01*
X83975438Y-81524681D01*
X84017895Y-81520500D01*
X85484105Y-81520500D01*
X85526562Y-81524681D01*
X85526562Y-81524681D01*
G37*
G36*
X112437674Y-80992465D02*
G01*
X112475367Y-81003899D01*
X112510103Y-81022466D01*
X112540548Y-81047452D01*
X112565534Y-81077897D01*
X112584101Y-81112633D01*
X112595535Y-81150326D01*
X112600000Y-81195661D01*
X112600000Y-82032339D01*
X112595535Y-82077674D01*
X112584101Y-82115367D01*
X112565534Y-82150103D01*
X112540548Y-82180548D01*
X112510103Y-82205534D01*
X112475367Y-82224101D01*
X112437674Y-82235535D01*
X112392339Y-82240000D01*
X111305661Y-82240000D01*
X111260326Y-82235535D01*
X111222633Y-82224101D01*
X111187897Y-82205534D01*
X111157452Y-82180548D01*
X111132466Y-82150103D01*
X111113899Y-82115367D01*
X111102465Y-82077674D01*
X111098000Y-82032339D01*
X111098000Y-81195661D01*
X111102465Y-81150326D01*
X111113899Y-81112633D01*
X111132466Y-81077897D01*
X111157452Y-81047452D01*
X111187897Y-81022466D01*
X111222633Y-81003899D01*
X111260326Y-80992465D01*
X111305661Y-80988000D01*
X112392339Y-80988000D01*
X112437674Y-80992465D01*
X112437674Y-80992465D01*
G37*
G36*
X105755999Y-81935001D02*
G01*
X105053999Y-81935001D01*
X105053999Y-80283001D01*
X105755999Y-80283001D01*
X105755999Y-81935001D01*
X105755999Y-81935001D01*
G37*
G36*
X104485999Y-81935001D02*
G01*
X103783999Y-81935001D01*
X103783999Y-80283001D01*
X104485999Y-80283001D01*
X104485999Y-81935001D01*
X104485999Y-81935001D01*
G37*
G36*
X103215999Y-81935001D02*
G01*
X102513999Y-81935001D01*
X102513999Y-80283001D01*
X103215999Y-80283001D01*
X103215999Y-81935001D01*
X103215999Y-81935001D01*
G37*
G36*
X101945999Y-81935001D02*
G01*
X101243999Y-81935001D01*
X101243999Y-80283001D01*
X101945999Y-80283001D01*
X101945999Y-81935001D01*
X101945999Y-81935001D01*
G37*
G36*
X76365999Y-81917001D02*
G01*
X75663999Y-81917001D01*
X75663999Y-80265001D01*
X76365999Y-80265001D01*
X76365999Y-81917001D01*
X76365999Y-81917001D01*
G37*
G36*
X75095999Y-81917001D02*
G01*
X74393999Y-81917001D01*
X74393999Y-80265001D01*
X75095999Y-80265001D01*
X75095999Y-81917001D01*
X75095999Y-81917001D01*
G37*
G36*
X73825999Y-81917001D02*
G01*
X73123999Y-81917001D01*
X73123999Y-80265001D01*
X73825999Y-80265001D01*
X73825999Y-81917001D01*
X73825999Y-81917001D01*
G37*
G36*
X77635999Y-81917001D02*
G01*
X76933999Y-81917001D01*
X76933999Y-80265001D01*
X77635999Y-80265001D01*
X77635999Y-81917001D01*
X77635999Y-81917001D01*
G37*
G36*
X91585999Y-81903001D02*
G01*
X90883999Y-81903001D01*
X90883999Y-80251001D01*
X91585999Y-80251001D01*
X91585999Y-81903001D01*
X91585999Y-81903001D01*
G37*
G36*
X90315999Y-81903001D02*
G01*
X89613999Y-81903001D01*
X89613999Y-80251001D01*
X90315999Y-80251001D01*
X90315999Y-81903001D01*
X90315999Y-81903001D01*
G37*
G36*
X89045999Y-81903001D02*
G01*
X88343999Y-81903001D01*
X88343999Y-80251001D01*
X89045999Y-80251001D01*
X89045999Y-81903001D01*
X89045999Y-81903001D01*
G37*
G36*
X87775999Y-81903001D02*
G01*
X87073999Y-81903001D01*
X87073999Y-80251001D01*
X87775999Y-80251001D01*
X87775999Y-81903001D01*
X87775999Y-81903001D01*
G37*
G36*
X80185585Y-77218802D02*
G01*
X80335410Y-77248604D01*
X80617674Y-77365521D01*
X80871705Y-77535259D01*
X81087741Y-77751295D01*
X81257479Y-78005326D01*
X81374396Y-78287590D01*
X81434000Y-78587240D01*
X81434000Y-78892760D01*
X81374396Y-79192410D01*
X81257479Y-79474674D01*
X81087741Y-79728705D01*
X80871705Y-79944741D01*
X80617674Y-80114479D01*
X80335410Y-80231396D01*
X80236849Y-80251001D01*
X80035761Y-80291000D01*
X79730239Y-80291000D01*
X79529151Y-80251001D01*
X79430590Y-80231396D01*
X79148326Y-80114479D01*
X78894295Y-79944741D01*
X78678259Y-79728705D01*
X78508521Y-79474674D01*
X78391604Y-79192410D01*
X78332000Y-78892760D01*
X78332000Y-78587240D01*
X78391604Y-78287590D01*
X78508521Y-78005326D01*
X78678259Y-77751295D01*
X78894295Y-77535259D01*
X79148326Y-77365521D01*
X79430590Y-77248604D01*
X79580415Y-77218802D01*
X79730239Y-77189000D01*
X80035761Y-77189000D01*
X80185585Y-77218802D01*
X80185585Y-77218802D01*
G37*
G36*
X94155585Y-77218802D02*
G01*
X94305410Y-77248604D01*
X94587674Y-77365521D01*
X94841705Y-77535259D01*
X95057741Y-77751295D01*
X95227479Y-78005326D01*
X95344396Y-78287590D01*
X95404000Y-78587240D01*
X95404000Y-78892760D01*
X95344396Y-79192410D01*
X95227479Y-79474674D01*
X95057741Y-79728705D01*
X94841705Y-79944741D01*
X94587674Y-80114479D01*
X94305410Y-80231396D01*
X94206849Y-80251001D01*
X94005761Y-80291000D01*
X93700239Y-80291000D01*
X93499151Y-80251001D01*
X93400590Y-80231396D01*
X93118326Y-80114479D01*
X92864295Y-79944741D01*
X92648259Y-79728705D01*
X92478521Y-79474674D01*
X92361604Y-79192410D01*
X92302000Y-78892760D01*
X92302000Y-78587240D01*
X92361604Y-78287590D01*
X92478521Y-78005326D01*
X92648259Y-77751295D01*
X92864295Y-77535259D01*
X93118326Y-77365521D01*
X93400590Y-77248604D01*
X93550415Y-77218802D01*
X93700239Y-77189000D01*
X94005761Y-77189000D01*
X94155585Y-77218802D01*
X94155585Y-77218802D01*
G37*
G36*
X71041585Y-77218802D02*
G01*
X71191410Y-77248604D01*
X71473674Y-77365521D01*
X71727705Y-77535259D01*
X71943741Y-77751295D01*
X72113479Y-78005326D01*
X72230396Y-78287590D01*
X72290000Y-78587240D01*
X72290000Y-78892760D01*
X72230396Y-79192410D01*
X72113479Y-79474674D01*
X71943741Y-79728705D01*
X71727705Y-79944741D01*
X71473674Y-80114479D01*
X71191410Y-80231396D01*
X71092849Y-80251001D01*
X70891761Y-80291000D01*
X70586239Y-80291000D01*
X70385151Y-80251001D01*
X70286590Y-80231396D01*
X70004326Y-80114479D01*
X69750295Y-79944741D01*
X69534259Y-79728705D01*
X69364521Y-79474674D01*
X69247604Y-79192410D01*
X69188000Y-78892760D01*
X69188000Y-78587240D01*
X69247604Y-78287590D01*
X69364521Y-78005326D01*
X69534259Y-77751295D01*
X69750295Y-77535259D01*
X70004326Y-77365521D01*
X70286590Y-77248604D01*
X70436415Y-77218802D01*
X70586239Y-77189000D01*
X70891761Y-77189000D01*
X71041585Y-77218802D01*
X71041585Y-77218802D01*
G37*
G36*
X108379585Y-77218802D02*
G01*
X108529410Y-77248604D01*
X108811674Y-77365521D01*
X109065705Y-77535259D01*
X109281741Y-77751295D01*
X109451479Y-78005326D01*
X109568396Y-78287590D01*
X109628000Y-78587240D01*
X109628000Y-78892760D01*
X109568396Y-79192410D01*
X109451479Y-79474674D01*
X109281741Y-79728705D01*
X109065705Y-79944741D01*
X108811674Y-80114479D01*
X108529410Y-80231396D01*
X108430849Y-80251001D01*
X108229761Y-80291000D01*
X107924239Y-80291000D01*
X107723151Y-80251001D01*
X107624590Y-80231396D01*
X107342326Y-80114479D01*
X107088295Y-79944741D01*
X106872259Y-79728705D01*
X106702521Y-79474674D01*
X106585604Y-79192410D01*
X106526000Y-78892760D01*
X106526000Y-78587240D01*
X106585604Y-78287590D01*
X106702521Y-78005326D01*
X106872259Y-77751295D01*
X107088295Y-77535259D01*
X107342326Y-77365521D01*
X107624590Y-77248604D01*
X107774415Y-77218802D01*
X107924239Y-77189000D01*
X108229761Y-77189000D01*
X108379585Y-77218802D01*
X108379585Y-77218802D01*
G37*
G36*
X99235585Y-77218802D02*
G01*
X99385410Y-77248604D01*
X99667674Y-77365521D01*
X99921705Y-77535259D01*
X100137741Y-77751295D01*
X100307479Y-78005326D01*
X100424396Y-78287590D01*
X100484000Y-78587240D01*
X100484000Y-78892760D01*
X100424396Y-79192410D01*
X100307479Y-79474674D01*
X100137741Y-79728705D01*
X99921705Y-79944741D01*
X99667674Y-80114479D01*
X99385410Y-80231396D01*
X99286849Y-80251001D01*
X99085761Y-80291000D01*
X98780239Y-80291000D01*
X98579151Y-80251001D01*
X98480590Y-80231396D01*
X98198326Y-80114479D01*
X97944295Y-79944741D01*
X97728259Y-79728705D01*
X97558521Y-79474674D01*
X97441604Y-79192410D01*
X97382000Y-78892760D01*
X97382000Y-78587240D01*
X97441604Y-78287590D01*
X97558521Y-78005326D01*
X97728259Y-77751295D01*
X97944295Y-77535259D01*
X98198326Y-77365521D01*
X98480590Y-77248604D01*
X98630415Y-77218802D01*
X98780239Y-77189000D01*
X99085761Y-77189000D01*
X99235585Y-77218802D01*
X99235585Y-77218802D01*
G37*
G36*
X85011585Y-77218802D02*
G01*
X85161410Y-77248604D01*
X85443674Y-77365521D01*
X85697705Y-77535259D01*
X85913741Y-77751295D01*
X86083479Y-78005326D01*
X86200396Y-78287590D01*
X86260000Y-78587240D01*
X86260000Y-78892760D01*
X86200396Y-79192410D01*
X86083479Y-79474674D01*
X85913741Y-79728705D01*
X85697705Y-79944741D01*
X85443674Y-80114479D01*
X85161410Y-80231396D01*
X85062849Y-80251001D01*
X84861761Y-80291000D01*
X84556239Y-80291000D01*
X84355151Y-80251001D01*
X84256590Y-80231396D01*
X83974326Y-80114479D01*
X83720295Y-79944741D01*
X83504259Y-79728705D01*
X83334521Y-79474674D01*
X83217604Y-79192410D01*
X83158000Y-78892760D01*
X83158000Y-78587240D01*
X83217604Y-78287590D01*
X83334521Y-78005326D01*
X83504259Y-77751295D01*
X83720295Y-77535259D01*
X83974326Y-77365521D01*
X84256590Y-77248604D01*
X84406415Y-77218802D01*
X84556239Y-77189000D01*
X84861761Y-77189000D01*
X85011585Y-77218802D01*
X85011585Y-77218802D01*
G37*
G36*
X119036001Y-79410999D02*
G01*
X118334001Y-79410999D01*
X118334001Y-77758999D01*
X119036001Y-77758999D01*
X119036001Y-79410999D01*
X119036001Y-79410999D01*
G37*
G36*
X117766001Y-79410999D02*
G01*
X117064001Y-79410999D01*
X117064001Y-77758999D01*
X117766001Y-77758999D01*
X117766001Y-79410999D01*
X117766001Y-79410999D01*
G37*
G36*
X116496001Y-79410999D02*
G01*
X115794001Y-79410999D01*
X115794001Y-77758999D01*
X116496001Y-77758999D01*
X116496001Y-79410999D01*
X116496001Y-79410999D01*
G37*
G36*
X115226001Y-79410999D02*
G01*
X114524001Y-79410999D01*
X114524001Y-77758999D01*
X115226001Y-77758999D01*
X115226001Y-79410999D01*
X115226001Y-79410999D01*
G37*
G36*
X76620468Y-77739565D02*
G01*
X76659138Y-77751296D01*
X76694777Y-77770346D01*
X76726017Y-77795983D01*
X76751654Y-77827223D01*
X76770704Y-77862862D01*
X76782435Y-77901532D01*
X76787000Y-77947888D01*
X76787000Y-79024112D01*
X76782435Y-79070468D01*
X76770704Y-79109138D01*
X76751654Y-79144777D01*
X76726017Y-79176017D01*
X76694777Y-79201654D01*
X76659138Y-79220704D01*
X76620468Y-79232435D01*
X76574112Y-79237000D01*
X75922888Y-79237000D01*
X75876532Y-79232435D01*
X75837862Y-79220704D01*
X75802223Y-79201654D01*
X75770983Y-79176017D01*
X75745346Y-79144777D01*
X75726296Y-79109138D01*
X75714565Y-79070468D01*
X75710000Y-79024112D01*
X75710000Y-77947888D01*
X75714565Y-77901532D01*
X75726296Y-77862862D01*
X75745346Y-77827223D01*
X75770983Y-77795983D01*
X75802223Y-77770346D01*
X75837862Y-77751296D01*
X75876532Y-77739565D01*
X75922888Y-77735000D01*
X76574112Y-77735000D01*
X76620468Y-77739565D01*
X76620468Y-77739565D01*
G37*
G36*
X102943674Y-77739465D02*
G01*
X102981367Y-77750899D01*
X103016103Y-77769466D01*
X103046548Y-77794452D01*
X103071534Y-77824897D01*
X103090101Y-77859633D01*
X103101535Y-77897326D01*
X103106000Y-77942661D01*
X103106000Y-79029339D01*
X103101535Y-79074674D01*
X103090101Y-79112367D01*
X103071534Y-79147103D01*
X103046548Y-79177548D01*
X103016103Y-79202534D01*
X102981367Y-79221101D01*
X102943674Y-79232535D01*
X102898339Y-79237000D01*
X102061661Y-79237000D01*
X102016326Y-79232535D01*
X101978633Y-79221101D01*
X101943897Y-79202534D01*
X101913452Y-79177548D01*
X101888466Y-79147103D01*
X101869899Y-79112367D01*
X101858465Y-79074674D01*
X101854000Y-79029339D01*
X101854000Y-77942661D01*
X101858465Y-77897326D01*
X101869899Y-77859633D01*
X101888466Y-77824897D01*
X101913452Y-77794452D01*
X101943897Y-77769466D01*
X101978633Y-77750899D01*
X102016326Y-77739465D01*
X102061661Y-77735000D01*
X102898339Y-77735000D01*
X102943674Y-77739465D01*
X102943674Y-77739465D01*
G37*
G36*
X88973674Y-77739465D02*
G01*
X89011367Y-77750899D01*
X89046103Y-77769466D01*
X89076548Y-77794452D01*
X89101534Y-77824897D01*
X89120101Y-77859633D01*
X89131535Y-77897326D01*
X89136000Y-77942661D01*
X89136000Y-79029339D01*
X89131535Y-79074674D01*
X89120101Y-79112367D01*
X89101534Y-79147103D01*
X89076548Y-79177548D01*
X89046103Y-79202534D01*
X89011367Y-79221101D01*
X88973674Y-79232535D01*
X88928339Y-79237000D01*
X88091661Y-79237000D01*
X88046326Y-79232535D01*
X88008633Y-79221101D01*
X87973897Y-79202534D01*
X87943452Y-79177548D01*
X87918466Y-79147103D01*
X87899899Y-79112367D01*
X87888465Y-79074674D01*
X87884000Y-79029339D01*
X87884000Y-77942661D01*
X87888465Y-77897326D01*
X87899899Y-77859633D01*
X87918466Y-77824897D01*
X87943452Y-77794452D01*
X87973897Y-77769466D01*
X88008633Y-77750899D01*
X88046326Y-77739465D01*
X88091661Y-77735000D01*
X88928339Y-77735000D01*
X88973674Y-77739465D01*
X88973674Y-77739465D01*
G37*
G36*
X74745468Y-77739565D02*
G01*
X74784138Y-77751296D01*
X74819777Y-77770346D01*
X74851017Y-77795983D01*
X74876654Y-77827223D01*
X74895704Y-77862862D01*
X74907435Y-77901532D01*
X74912000Y-77947888D01*
X74912000Y-79024112D01*
X74907435Y-79070468D01*
X74895704Y-79109138D01*
X74876654Y-79144777D01*
X74851017Y-79176017D01*
X74819777Y-79201654D01*
X74784138Y-79220704D01*
X74745468Y-79232435D01*
X74699112Y-79237000D01*
X74047888Y-79237000D01*
X74001532Y-79232435D01*
X73962862Y-79220704D01*
X73927223Y-79201654D01*
X73895983Y-79176017D01*
X73870346Y-79144777D01*
X73851296Y-79109138D01*
X73839565Y-79070468D01*
X73835000Y-79024112D01*
X73835000Y-77947888D01*
X73839565Y-77901532D01*
X73851296Y-77862862D01*
X73870346Y-77827223D01*
X73895983Y-77795983D01*
X73927223Y-77770346D01*
X73962862Y-77751296D01*
X74001532Y-77739565D01*
X74047888Y-77735000D01*
X74699112Y-77735000D01*
X74745468Y-77739565D01*
X74745468Y-77739565D01*
G37*
G36*
X104993674Y-77739465D02*
G01*
X105031367Y-77750899D01*
X105066103Y-77769466D01*
X105096548Y-77794452D01*
X105121534Y-77824897D01*
X105140101Y-77859633D01*
X105151535Y-77897326D01*
X105156000Y-77942661D01*
X105156000Y-79029339D01*
X105151535Y-79074674D01*
X105140101Y-79112367D01*
X105121534Y-79147103D01*
X105096548Y-79177548D01*
X105066103Y-79202534D01*
X105031367Y-79221101D01*
X104993674Y-79232535D01*
X104948339Y-79237000D01*
X104111661Y-79237000D01*
X104066326Y-79232535D01*
X104028633Y-79221101D01*
X103993897Y-79202534D01*
X103963452Y-79177548D01*
X103938466Y-79147103D01*
X103919899Y-79112367D01*
X103908465Y-79074674D01*
X103904000Y-79029339D01*
X103904000Y-77942661D01*
X103908465Y-77897326D01*
X103919899Y-77859633D01*
X103938466Y-77824897D01*
X103963452Y-77794452D01*
X103993897Y-77769466D01*
X104028633Y-77750899D01*
X104066326Y-77739465D01*
X104111661Y-77735000D01*
X104948339Y-77735000D01*
X104993674Y-77739465D01*
X104993674Y-77739465D01*
G37*
G36*
X91023674Y-77739465D02*
G01*
X91061367Y-77750899D01*
X91096103Y-77769466D01*
X91126548Y-77794452D01*
X91151534Y-77824897D01*
X91170101Y-77859633D01*
X91181535Y-77897326D01*
X91186000Y-77942661D01*
X91186000Y-79029339D01*
X91181535Y-79074674D01*
X91170101Y-79112367D01*
X91151534Y-79147103D01*
X91126548Y-79177548D01*
X91096103Y-79202534D01*
X91061367Y-79221101D01*
X91023674Y-79232535D01*
X90978339Y-79237000D01*
X90141661Y-79237000D01*
X90096326Y-79232535D01*
X90058633Y-79221101D01*
X90023897Y-79202534D01*
X89993452Y-79177548D01*
X89968466Y-79147103D01*
X89949899Y-79112367D01*
X89938465Y-79074674D01*
X89934000Y-79029339D01*
X89934000Y-77942661D01*
X89938465Y-77897326D01*
X89949899Y-77859633D01*
X89968466Y-77824897D01*
X89993452Y-77794452D01*
X90023897Y-77769466D01*
X90058633Y-77750899D01*
X90096326Y-77739465D01*
X90141661Y-77735000D01*
X90978339Y-77735000D01*
X91023674Y-77739465D01*
X91023674Y-77739465D01*
G37*
G36*
X119532000Y-76050000D02*
G01*
X115930000Y-76050000D01*
X115930000Y-74148000D01*
X119532000Y-74148000D01*
X119532000Y-76050000D01*
X119532000Y-76050000D01*
G37*
G36*
X114532000Y-76050000D02*
G01*
X110930000Y-76050000D01*
X110930000Y-74148000D01*
X114532000Y-74148000D01*
X114532000Y-76050000D01*
X114532000Y-76050000D01*
G37*
G36*
X101090589Y-73406876D02*
G01*
X101189893Y-73426629D01*
X101330206Y-73484748D01*
X101456484Y-73569125D01*
X101563875Y-73676516D01*
X101648252Y-73802794D01*
X101706371Y-73943107D01*
X101736000Y-74092063D01*
X101736000Y-74243937D01*
X101706371Y-74392893D01*
X101648252Y-74533206D01*
X101563875Y-74659484D01*
X101456484Y-74766875D01*
X101330206Y-74851252D01*
X101189893Y-74909371D01*
X101090589Y-74929124D01*
X101040938Y-74939000D01*
X100889062Y-74939000D01*
X100839411Y-74929124D01*
X100740107Y-74909371D01*
X100599794Y-74851252D01*
X100473516Y-74766875D01*
X100366125Y-74659484D01*
X100281748Y-74533206D01*
X100223629Y-74392893D01*
X100194000Y-74243937D01*
X100194000Y-74092063D01*
X100223629Y-73943107D01*
X100281748Y-73802794D01*
X100366125Y-73676516D01*
X100473516Y-73569125D01*
X100599794Y-73484748D01*
X100740107Y-73426629D01*
X100839411Y-73406876D01*
X100889062Y-73397000D01*
X101040938Y-73397000D01*
X101090589Y-73406876D01*
X101090589Y-73406876D01*
G37*
G36*
X89406589Y-73406876D02*
G01*
X89505893Y-73426629D01*
X89646206Y-73484748D01*
X89772484Y-73569125D01*
X89879875Y-73676516D01*
X89964252Y-73802794D01*
X90022371Y-73943107D01*
X90052000Y-74092063D01*
X90052000Y-74243937D01*
X90022371Y-74392893D01*
X89964252Y-74533206D01*
X89879875Y-74659484D01*
X89772484Y-74766875D01*
X89646206Y-74851252D01*
X89505893Y-74909371D01*
X89406589Y-74929124D01*
X89356938Y-74939000D01*
X89205062Y-74939000D01*
X89155411Y-74929124D01*
X89056107Y-74909371D01*
X88915794Y-74851252D01*
X88789516Y-74766875D01*
X88682125Y-74659484D01*
X88597748Y-74533206D01*
X88539629Y-74392893D01*
X88510000Y-74243937D01*
X88510000Y-74092063D01*
X88539629Y-73943107D01*
X88597748Y-73802794D01*
X88682125Y-73676516D01*
X88789516Y-73569125D01*
X88915794Y-73484748D01*
X89056107Y-73426629D01*
X89155411Y-73406876D01*
X89205062Y-73397000D01*
X89356938Y-73397000D01*
X89406589Y-73406876D01*
X89406589Y-73406876D01*
G37*
G36*
X91946589Y-73406876D02*
G01*
X92045893Y-73426629D01*
X92186206Y-73484748D01*
X92312484Y-73569125D01*
X92419875Y-73676516D01*
X92504252Y-73802794D01*
X92562371Y-73943107D01*
X92592000Y-74092063D01*
X92592000Y-74243937D01*
X92562371Y-74392893D01*
X92504252Y-74533206D01*
X92419875Y-74659484D01*
X92312484Y-74766875D01*
X92186206Y-74851252D01*
X92045893Y-74909371D01*
X91946589Y-74929124D01*
X91896938Y-74939000D01*
X91745062Y-74939000D01*
X91695411Y-74929124D01*
X91596107Y-74909371D01*
X91455794Y-74851252D01*
X91329516Y-74766875D01*
X91222125Y-74659484D01*
X91137748Y-74533206D01*
X91079629Y-74392893D01*
X91050000Y-74243937D01*
X91050000Y-74092063D01*
X91079629Y-73943107D01*
X91137748Y-73802794D01*
X91222125Y-73676516D01*
X91329516Y-73569125D01*
X91455794Y-73484748D01*
X91596107Y-73426629D01*
X91695411Y-73406876D01*
X91745062Y-73397000D01*
X91896938Y-73397000D01*
X91946589Y-73406876D01*
X91946589Y-73406876D01*
G37*
G36*
X103630589Y-73406876D02*
G01*
X103729893Y-73426629D01*
X103870206Y-73484748D01*
X103996484Y-73569125D01*
X104103875Y-73676516D01*
X104188252Y-73802794D01*
X104246371Y-73943107D01*
X104276000Y-74092063D01*
X104276000Y-74243937D01*
X104246371Y-74392893D01*
X104188252Y-74533206D01*
X104103875Y-74659484D01*
X103996484Y-74766875D01*
X103870206Y-74851252D01*
X103729893Y-74909371D01*
X103630589Y-74929124D01*
X103580938Y-74939000D01*
X103429062Y-74939000D01*
X103379411Y-74929124D01*
X103280107Y-74909371D01*
X103139794Y-74851252D01*
X103013516Y-74766875D01*
X102906125Y-74659484D01*
X102821748Y-74533206D01*
X102763629Y-74392893D01*
X102734000Y-74243937D01*
X102734000Y-74092063D01*
X102763629Y-73943107D01*
X102821748Y-73802794D01*
X102906125Y-73676516D01*
X103013516Y-73569125D01*
X103139794Y-73484748D01*
X103280107Y-73426629D01*
X103379411Y-73406876D01*
X103429062Y-73397000D01*
X103580938Y-73397000D01*
X103630589Y-73406876D01*
X103630589Y-73406876D01*
G37*
G36*
X77976589Y-73406876D02*
G01*
X78075893Y-73426629D01*
X78216206Y-73484748D01*
X78342484Y-73569125D01*
X78449875Y-73676516D01*
X78534252Y-73802794D01*
X78592371Y-73943107D01*
X78622000Y-74092063D01*
X78622000Y-74243937D01*
X78592371Y-74392893D01*
X78534252Y-74533206D01*
X78449875Y-74659484D01*
X78342484Y-74766875D01*
X78216206Y-74851252D01*
X78075893Y-74909371D01*
X77976589Y-74929124D01*
X77926938Y-74939000D01*
X77775062Y-74939000D01*
X77725411Y-74929124D01*
X77626107Y-74909371D01*
X77485794Y-74851252D01*
X77359516Y-74766875D01*
X77252125Y-74659484D01*
X77167748Y-74533206D01*
X77109629Y-74392893D01*
X77080000Y-74243937D01*
X77080000Y-74092063D01*
X77109629Y-73943107D01*
X77167748Y-73802794D01*
X77252125Y-73676516D01*
X77359516Y-73569125D01*
X77485794Y-73484748D01*
X77626107Y-73426629D01*
X77725411Y-73406876D01*
X77775062Y-73397000D01*
X77926938Y-73397000D01*
X77976589Y-73406876D01*
X77976589Y-73406876D01*
G37*
G36*
X75436589Y-73406876D02*
G01*
X75535893Y-73426629D01*
X75676206Y-73484748D01*
X75802484Y-73569125D01*
X75909875Y-73676516D01*
X75994252Y-73802794D01*
X76052371Y-73943107D01*
X76082000Y-74092063D01*
X76082000Y-74243937D01*
X76052371Y-74392893D01*
X75994252Y-74533206D01*
X75909875Y-74659484D01*
X75802484Y-74766875D01*
X75676206Y-74851252D01*
X75535893Y-74909371D01*
X75436589Y-74929124D01*
X75386938Y-74939000D01*
X75235062Y-74939000D01*
X75185411Y-74929124D01*
X75086107Y-74909371D01*
X74945794Y-74851252D01*
X74819516Y-74766875D01*
X74712125Y-74659484D01*
X74627748Y-74533206D01*
X74569629Y-74392893D01*
X74540000Y-74243937D01*
X74540000Y-74092063D01*
X74569629Y-73943107D01*
X74627748Y-73802794D01*
X74712125Y-73676516D01*
X74819516Y-73569125D01*
X74945794Y-73484748D01*
X75086107Y-73426629D01*
X75185411Y-73406876D01*
X75235062Y-73397000D01*
X75386938Y-73397000D01*
X75436589Y-73406876D01*
X75436589Y-73406876D01*
G37*
G36*
X86866589Y-73406876D02*
G01*
X86965893Y-73426629D01*
X87106206Y-73484748D01*
X87232484Y-73569125D01*
X87339875Y-73676516D01*
X87424252Y-73802794D01*
X87482371Y-73943107D01*
X87512000Y-74092063D01*
X87512000Y-74243937D01*
X87482371Y-74392893D01*
X87424252Y-74533206D01*
X87339875Y-74659484D01*
X87232484Y-74766875D01*
X87106206Y-74851252D01*
X86965893Y-74909371D01*
X86866589Y-74929124D01*
X86816938Y-74939000D01*
X86665062Y-74939000D01*
X86615411Y-74929124D01*
X86516107Y-74909371D01*
X86375794Y-74851252D01*
X86249516Y-74766875D01*
X86142125Y-74659484D01*
X86057748Y-74533206D01*
X85999629Y-74392893D01*
X85970000Y-74243937D01*
X85970000Y-74092063D01*
X85999629Y-73943107D01*
X86057748Y-73802794D01*
X86142125Y-73676516D01*
X86249516Y-73569125D01*
X86375794Y-73484748D01*
X86516107Y-73426629D01*
X86615411Y-73406876D01*
X86665062Y-73397000D01*
X86816938Y-73397000D01*
X86866589Y-73406876D01*
X86866589Y-73406876D01*
G37*
G36*
X72896589Y-73406876D02*
G01*
X72995893Y-73426629D01*
X73136206Y-73484748D01*
X73262484Y-73569125D01*
X73369875Y-73676516D01*
X73454252Y-73802794D01*
X73512371Y-73943107D01*
X73542000Y-74092063D01*
X73542000Y-74243937D01*
X73512371Y-74392893D01*
X73454252Y-74533206D01*
X73369875Y-74659484D01*
X73262484Y-74766875D01*
X73136206Y-74851252D01*
X72995893Y-74909371D01*
X72896589Y-74929124D01*
X72846938Y-74939000D01*
X72695062Y-74939000D01*
X72645411Y-74929124D01*
X72546107Y-74909371D01*
X72405794Y-74851252D01*
X72279516Y-74766875D01*
X72172125Y-74659484D01*
X72087748Y-74533206D01*
X72029629Y-74392893D01*
X72000000Y-74243937D01*
X72000000Y-74092063D01*
X72029629Y-73943107D01*
X72087748Y-73802794D01*
X72172125Y-73676516D01*
X72279516Y-73569125D01*
X72405794Y-73484748D01*
X72546107Y-73426629D01*
X72645411Y-73406876D01*
X72695062Y-73397000D01*
X72846938Y-73397000D01*
X72896589Y-73406876D01*
X72896589Y-73406876D01*
G37*
G36*
X106170589Y-73406876D02*
G01*
X106269893Y-73426629D01*
X106410206Y-73484748D01*
X106536484Y-73569125D01*
X106643875Y-73676516D01*
X106728252Y-73802794D01*
X106786371Y-73943107D01*
X106816000Y-74092063D01*
X106816000Y-74243937D01*
X106786371Y-74392893D01*
X106728252Y-74533206D01*
X106643875Y-74659484D01*
X106536484Y-74766875D01*
X106410206Y-74851252D01*
X106269893Y-74909371D01*
X106170589Y-74929124D01*
X106120938Y-74939000D01*
X105969062Y-74939000D01*
X105919411Y-74929124D01*
X105820107Y-74909371D01*
X105679794Y-74851252D01*
X105553516Y-74766875D01*
X105446125Y-74659484D01*
X105361748Y-74533206D01*
X105303629Y-74392893D01*
X105274000Y-74243937D01*
X105274000Y-74092063D01*
X105303629Y-73943107D01*
X105361748Y-73802794D01*
X105446125Y-73676516D01*
X105553516Y-73569125D01*
X105679794Y-73484748D01*
X105820107Y-73426629D01*
X105919411Y-73406876D01*
X105969062Y-73397000D01*
X106120938Y-73397000D01*
X106170589Y-73406876D01*
X106170589Y-73406876D01*
G37*
G36*
X119334200Y-72463600D02*
G01*
X117232200Y-72463600D01*
X117232200Y-70861600D01*
X119334200Y-70861600D01*
X119334200Y-72463600D01*
X119334200Y-72463600D01*
G37*
G36*
X113034200Y-71313600D02*
G01*
X110932200Y-71313600D01*
X110932200Y-67411600D01*
X113034200Y-67411600D01*
X113034200Y-71313600D01*
X113034200Y-71313600D01*
G37*
G36*
X119334200Y-70163600D02*
G01*
X117232200Y-70163600D01*
X117232200Y-68561600D01*
X119334200Y-68561600D01*
X119334200Y-70163600D01*
X119334200Y-70163600D01*
G37*
G36*
X72226585Y-65703802D02*
G01*
X72376410Y-65733604D01*
X72658674Y-65850521D01*
X72912705Y-66020259D01*
X73128741Y-66236295D01*
X73298479Y-66490326D01*
X73415396Y-66772590D01*
X73445198Y-66922415D01*
X73474380Y-67069120D01*
X73475000Y-67072240D01*
X73475000Y-67377760D01*
X73415396Y-67677410D01*
X73298479Y-67959674D01*
X73128741Y-68213705D01*
X72912705Y-68429741D01*
X72658674Y-68599479D01*
X72376410Y-68716396D01*
X72226585Y-68746198D01*
X72076761Y-68776000D01*
X71771239Y-68776000D01*
X71621415Y-68746198D01*
X71471590Y-68716396D01*
X71189326Y-68599479D01*
X70935295Y-68429741D01*
X70719259Y-68213705D01*
X70549521Y-67959674D01*
X70432604Y-67677410D01*
X70373000Y-67377760D01*
X70373000Y-67072240D01*
X70373621Y-67069120D01*
X70402802Y-66922415D01*
X70432604Y-66772590D01*
X70549521Y-66490326D01*
X70719259Y-66236295D01*
X70935295Y-66020259D01*
X71189326Y-65850521D01*
X71471590Y-65733604D01*
X71621415Y-65703802D01*
X71771239Y-65674000D01*
X72076761Y-65674000D01*
X72226585Y-65703802D01*
X72226585Y-65703802D01*
G37*
G36*
X119334200Y-67863600D02*
G01*
X117232200Y-67863600D01*
X117232200Y-66261600D01*
X119334200Y-66261600D01*
X119334200Y-67863600D01*
X119334200Y-67863600D01*
G37*
G36*
X94889643Y-64306272D02*
G01*
X95048246Y-64354384D01*
X95153736Y-64386384D01*
X95337249Y-64484474D01*
X95397119Y-64516475D01*
X95438797Y-64550680D01*
X95610450Y-64691550D01*
X95753092Y-64865360D01*
X95785525Y-64904880D01*
X95785526Y-64904882D01*
X95915616Y-65148263D01*
X95936462Y-65216983D01*
X95995728Y-65412356D01*
X95995728Y-65412358D01*
X96012849Y-65586183D01*
X96016000Y-65618182D01*
X96016000Y-66355817D01*
X95995728Y-66561643D01*
X95936461Y-66757018D01*
X95915616Y-66825737D01*
X95856080Y-66937120D01*
X95785525Y-67069120D01*
X95782965Y-67072239D01*
X95610450Y-67282450D01*
X95453079Y-67411600D01*
X95397120Y-67457525D01*
X95397118Y-67457526D01*
X95153737Y-67587616D01*
X95085017Y-67608462D01*
X94889644Y-67667728D01*
X94615000Y-67694778D01*
X94340357Y-67667728D01*
X94144984Y-67608462D01*
X94076264Y-67587616D01*
X93832883Y-67457526D01*
X93832881Y-67457525D01*
X93791203Y-67423320D01*
X93619550Y-67282450D01*
X93447035Y-67072239D01*
X93444475Y-67069120D01*
X93373920Y-66937120D01*
X93314384Y-66825737D01*
X93274341Y-66693733D01*
X93234272Y-66561644D01*
X93214000Y-66355818D01*
X93214000Y-65618183D01*
X93234272Y-65412357D01*
X93314383Y-65148268D01*
X93314384Y-65148264D01*
X93444474Y-64904883D01*
X93444475Y-64904881D01*
X93478680Y-64863203D01*
X93619550Y-64691550D01*
X93793360Y-64548908D01*
X93832880Y-64516475D01*
X93892750Y-64484474D01*
X94076263Y-64386384D01*
X94181753Y-64354384D01*
X94340356Y-64306272D01*
X94615000Y-64279222D01*
X94889643Y-64306272D01*
X94889643Y-64306272D01*
G37*
G36*
X99089643Y-64306272D02*
G01*
X99248246Y-64354384D01*
X99353736Y-64386384D01*
X99537249Y-64484474D01*
X99597119Y-64516475D01*
X99638797Y-64550680D01*
X99810450Y-64691550D01*
X99953092Y-64865360D01*
X99985525Y-64904880D01*
X99985526Y-64904882D01*
X100115616Y-65148263D01*
X100136462Y-65216983D01*
X100195728Y-65412356D01*
X100195728Y-65412358D01*
X100212849Y-65586183D01*
X100216000Y-65618182D01*
X100216000Y-66355817D01*
X100195728Y-66561643D01*
X100136461Y-66757018D01*
X100115616Y-66825737D01*
X100056080Y-66937120D01*
X99985525Y-67069120D01*
X99982965Y-67072239D01*
X99810450Y-67282450D01*
X99653079Y-67411600D01*
X99597120Y-67457525D01*
X99597118Y-67457526D01*
X99353737Y-67587616D01*
X99285017Y-67608462D01*
X99089644Y-67667728D01*
X98815000Y-67694778D01*
X98540357Y-67667728D01*
X98344984Y-67608462D01*
X98276264Y-67587616D01*
X98032883Y-67457526D01*
X98032881Y-67457525D01*
X97991203Y-67423320D01*
X97819550Y-67282450D01*
X97647035Y-67072239D01*
X97644475Y-67069120D01*
X97573920Y-66937120D01*
X97514384Y-66825737D01*
X97474341Y-66693733D01*
X97434272Y-66561644D01*
X97414000Y-66355818D01*
X97414000Y-65618183D01*
X97434272Y-65412357D01*
X97514383Y-65148268D01*
X97514384Y-65148264D01*
X97644474Y-64904883D01*
X97644475Y-64904881D01*
X97678680Y-64863203D01*
X97819550Y-64691550D01*
X97993360Y-64548908D01*
X98032880Y-64516475D01*
X98092750Y-64484474D01*
X98276263Y-64386384D01*
X98381753Y-64354384D01*
X98540356Y-64306272D01*
X98815000Y-64279222D01*
X99089643Y-64306272D01*
X99089643Y-64306272D01*
G37*
G36*
X87813643Y-64274272D02*
G01*
X88009016Y-64333538D01*
X88077736Y-64354384D01*
X88307201Y-64477036D01*
X88321119Y-64484475D01*
X88360110Y-64516474D01*
X88534450Y-64659550D01*
X88677092Y-64833360D01*
X88709525Y-64872880D01*
X88709526Y-64872882D01*
X88839616Y-65116263D01*
X88860462Y-65184983D01*
X88919728Y-65380356D01*
X88940000Y-65586182D01*
X88940000Y-66323817D01*
X88919728Y-66529643D01*
X88860461Y-66725018D01*
X88839616Y-66793737D01*
X88762977Y-66937118D01*
X88709525Y-67037120D01*
X88663918Y-67092691D01*
X88534450Y-67250450D01*
X88379321Y-67377760D01*
X88321120Y-67425525D01*
X88321118Y-67425526D01*
X88077737Y-67555616D01*
X88009017Y-67576462D01*
X87813644Y-67635728D01*
X87539000Y-67662778D01*
X87264357Y-67635728D01*
X87068984Y-67576462D01*
X87000264Y-67555616D01*
X86756883Y-67425526D01*
X86756881Y-67425525D01*
X86698681Y-67377761D01*
X86543550Y-67250450D01*
X86394737Y-67069120D01*
X86368475Y-67037120D01*
X86315023Y-66937118D01*
X86238384Y-66793737D01*
X86208048Y-66693733D01*
X86158272Y-66529644D01*
X86141152Y-66355818D01*
X86138000Y-66323820D01*
X86138000Y-65586181D01*
X86155120Y-65412357D01*
X86158272Y-65380357D01*
X86238383Y-65116268D01*
X86238384Y-65116264D01*
X86368474Y-64872883D01*
X86368475Y-64872881D01*
X86402680Y-64831203D01*
X86543550Y-64659550D01*
X86717890Y-64516474D01*
X86756880Y-64484475D01*
X86770798Y-64477036D01*
X87000263Y-64354384D01*
X87068983Y-64333538D01*
X87264356Y-64274272D01*
X87539000Y-64247222D01*
X87813643Y-64274272D01*
X87813643Y-64274272D01*
G37*
G36*
X79413643Y-64274272D02*
G01*
X79609016Y-64333538D01*
X79677736Y-64354384D01*
X79907201Y-64477036D01*
X79921119Y-64484475D01*
X79960110Y-64516474D01*
X80134450Y-64659550D01*
X80277092Y-64833360D01*
X80309525Y-64872880D01*
X80309526Y-64872882D01*
X80439616Y-65116263D01*
X80460462Y-65184983D01*
X80519728Y-65380356D01*
X80540000Y-65586182D01*
X80540000Y-66323817D01*
X80519728Y-66529643D01*
X80460461Y-66725018D01*
X80439616Y-66793737D01*
X80362977Y-66937118D01*
X80309525Y-67037120D01*
X80263918Y-67092691D01*
X80134450Y-67250450D01*
X79979321Y-67377760D01*
X79921120Y-67425525D01*
X79921118Y-67425526D01*
X79677737Y-67555616D01*
X79609017Y-67576462D01*
X79413644Y-67635728D01*
X79139000Y-67662778D01*
X78864357Y-67635728D01*
X78668984Y-67576462D01*
X78600264Y-67555616D01*
X78356883Y-67425526D01*
X78356881Y-67425525D01*
X78298681Y-67377761D01*
X78143550Y-67250450D01*
X77994737Y-67069120D01*
X77968475Y-67037120D01*
X77915023Y-66937118D01*
X77838384Y-66793737D01*
X77808048Y-66693733D01*
X77758272Y-66529644D01*
X77741152Y-66355818D01*
X77738000Y-66323820D01*
X77738000Y-65586181D01*
X77755120Y-65412357D01*
X77758272Y-65380357D01*
X77838383Y-65116268D01*
X77838384Y-65116264D01*
X77968474Y-64872883D01*
X77968475Y-64872881D01*
X78002680Y-64831203D01*
X78143550Y-64659550D01*
X78317890Y-64516474D01*
X78356880Y-64484475D01*
X78370798Y-64477036D01*
X78600263Y-64354384D01*
X78668983Y-64333538D01*
X78864356Y-64274272D01*
X79139000Y-64247222D01*
X79413643Y-64274272D01*
X79413643Y-64274272D01*
G37*
G36*
X83613643Y-64274272D02*
G01*
X83809016Y-64333538D01*
X83877736Y-64354384D01*
X84107201Y-64477036D01*
X84121119Y-64484475D01*
X84160110Y-64516474D01*
X84334450Y-64659550D01*
X84477092Y-64833360D01*
X84509525Y-64872880D01*
X84509526Y-64872882D01*
X84639616Y-65116263D01*
X84660462Y-65184983D01*
X84719728Y-65380356D01*
X84740000Y-65586182D01*
X84740000Y-66323817D01*
X84719728Y-66529643D01*
X84660461Y-66725018D01*
X84639616Y-66793737D01*
X84562977Y-66937118D01*
X84509525Y-67037120D01*
X84463918Y-67092691D01*
X84334450Y-67250450D01*
X84179321Y-67377760D01*
X84121120Y-67425525D01*
X84121118Y-67425526D01*
X83877737Y-67555616D01*
X83809017Y-67576462D01*
X83613644Y-67635728D01*
X83339000Y-67662778D01*
X83064357Y-67635728D01*
X82868984Y-67576462D01*
X82800264Y-67555616D01*
X82556883Y-67425526D01*
X82556881Y-67425525D01*
X82498681Y-67377761D01*
X82343550Y-67250450D01*
X82194737Y-67069120D01*
X82168475Y-67037120D01*
X82115023Y-66937118D01*
X82038384Y-66793737D01*
X82008048Y-66693733D01*
X81958272Y-66529644D01*
X81941152Y-66355818D01*
X81938000Y-66323820D01*
X81938000Y-65586181D01*
X81955120Y-65412357D01*
X81958272Y-65380357D01*
X82038383Y-65116268D01*
X82038384Y-65116264D01*
X82168474Y-64872883D01*
X82168475Y-64872881D01*
X82202680Y-64831203D01*
X82343550Y-64659550D01*
X82517890Y-64516474D01*
X82556880Y-64484475D01*
X82570798Y-64477036D01*
X82800263Y-64354384D01*
X82868983Y-64333538D01*
X83064356Y-64274272D01*
X83339000Y-64247222D01*
X83613643Y-64274272D01*
X83613643Y-64274272D01*
G37*
G36*
X106408643Y-64174272D02*
G01*
X106604016Y-64233538D01*
X106672736Y-64254384D01*
X106902201Y-64377036D01*
X106916119Y-64384475D01*
X106957797Y-64418680D01*
X107129450Y-64559550D01*
X107272092Y-64733360D01*
X107304525Y-64772880D01*
X107304526Y-64772882D01*
X107434616Y-65016263D01*
X107455462Y-65084983D01*
X107514728Y-65280356D01*
X107535000Y-65486182D01*
X107535000Y-66223817D01*
X107514728Y-66429643D01*
X107484393Y-66529643D01*
X107434616Y-66693737D01*
X107364060Y-66825737D01*
X107304525Y-66937120D01*
X107258918Y-66992691D01*
X107129450Y-67150450D01*
X106971691Y-67279918D01*
X106916120Y-67325525D01*
X106916118Y-67325526D01*
X106672737Y-67455616D01*
X106604017Y-67476462D01*
X106408644Y-67535728D01*
X106134000Y-67562778D01*
X105859357Y-67535728D01*
X105663984Y-67476462D01*
X105595264Y-67455616D01*
X105351883Y-67325526D01*
X105351881Y-67325525D01*
X105299393Y-67282449D01*
X105138550Y-67150450D01*
X104995908Y-66976640D01*
X104963475Y-66937120D01*
X104903940Y-66825737D01*
X104833384Y-66693737D01*
X104793314Y-66561643D01*
X104753272Y-66429644D01*
X104733000Y-66223818D01*
X104733000Y-65486183D01*
X104753272Y-65280357D01*
X104833383Y-65016268D01*
X104833384Y-65016264D01*
X104963474Y-64772883D01*
X104963475Y-64772881D01*
X104997680Y-64731203D01*
X105138550Y-64559550D01*
X105312360Y-64416908D01*
X105351880Y-64384475D01*
X105365798Y-64377036D01*
X105595263Y-64254384D01*
X105663983Y-64233538D01*
X105859356Y-64174272D01*
X106134000Y-64147222D01*
X106408643Y-64174272D01*
X106408643Y-64174272D01*
G37*
G36*
X99089643Y-60106272D02*
G01*
X99276089Y-60162830D01*
X99353736Y-60186384D01*
X99537249Y-60284474D01*
X99597119Y-60316475D01*
X99632419Y-60345445D01*
X99810450Y-60491550D01*
X99953092Y-60665360D01*
X99985525Y-60704880D01*
X99985526Y-60704882D01*
X100115616Y-60948263D01*
X100136462Y-61016983D01*
X100195728Y-61212356D01*
X100195728Y-61212358D01*
X100212849Y-61386183D01*
X100216000Y-61418182D01*
X100216000Y-62155817D01*
X100195728Y-62361643D01*
X100139333Y-62547553D01*
X100115616Y-62625737D01*
X100002630Y-62837118D01*
X99985525Y-62869120D01*
X99939918Y-62924691D01*
X99810450Y-63082450D01*
X99676638Y-63192266D01*
X99597120Y-63257525D01*
X99597118Y-63257526D01*
X99353737Y-63387616D01*
X99285017Y-63408462D01*
X99089644Y-63467728D01*
X98815000Y-63494778D01*
X98540357Y-63467728D01*
X98344984Y-63408462D01*
X98276264Y-63387616D01*
X98032883Y-63257526D01*
X98032881Y-63257525D01*
X97953363Y-63192266D01*
X97819550Y-63082450D01*
X97676908Y-62908640D01*
X97644475Y-62869120D01*
X97627370Y-62837118D01*
X97514384Y-62625737D01*
X97452914Y-62423097D01*
X97434272Y-62361644D01*
X97414000Y-62155818D01*
X97414000Y-61418183D01*
X97434272Y-61212357D01*
X97514383Y-60948268D01*
X97514384Y-60948264D01*
X97644474Y-60704883D01*
X97644475Y-60704881D01*
X97678680Y-60663203D01*
X97819550Y-60491550D01*
X97993360Y-60348908D01*
X98032880Y-60316475D01*
X98092750Y-60284474D01*
X98276263Y-60186384D01*
X98353910Y-60162830D01*
X98540356Y-60106272D01*
X98815000Y-60079222D01*
X99089643Y-60106272D01*
X99089643Y-60106272D01*
G37*
G36*
X95889031Y-60089621D02*
G01*
X95918486Y-60098556D01*
X95945623Y-60113062D01*
X95969414Y-60132586D01*
X95988938Y-60156377D01*
X96003444Y-60183514D01*
X96012379Y-60212969D01*
X96016000Y-60249734D01*
X96016000Y-63324266D01*
X96012379Y-63361031D01*
X96003444Y-63390486D01*
X95988938Y-63417623D01*
X95969414Y-63441414D01*
X95945623Y-63460938D01*
X95918486Y-63475444D01*
X95889031Y-63484379D01*
X95852266Y-63488000D01*
X93377734Y-63488000D01*
X93340969Y-63484379D01*
X93311514Y-63475444D01*
X93284377Y-63460938D01*
X93260586Y-63441414D01*
X93241062Y-63417623D01*
X93226556Y-63390486D01*
X93217621Y-63361031D01*
X93214000Y-63324266D01*
X93214000Y-60249734D01*
X93217621Y-60212969D01*
X93226556Y-60183514D01*
X93241062Y-60156377D01*
X93260586Y-60132586D01*
X93284377Y-60113062D01*
X93311514Y-60098556D01*
X93340969Y-60089621D01*
X93377734Y-60086000D01*
X95852266Y-60086000D01*
X95889031Y-60089621D01*
X95889031Y-60089621D01*
G37*
G36*
X87813643Y-60074272D02*
G01*
X88005877Y-60132586D01*
X88077736Y-60154384D01*
X88256123Y-60249734D01*
X88321119Y-60284475D01*
X88356419Y-60313445D01*
X88534450Y-60459550D01*
X88677092Y-60633360D01*
X88709525Y-60672880D01*
X88709526Y-60672882D01*
X88839616Y-60916263D01*
X88860462Y-60984983D01*
X88919728Y-61180356D01*
X88940000Y-61386182D01*
X88940000Y-62123817D01*
X88919728Y-62329643D01*
X88860461Y-62525018D01*
X88839616Y-62593737D01*
X88716964Y-62823202D01*
X88709525Y-62837120D01*
X88683263Y-62869120D01*
X88534450Y-63050450D01*
X88376691Y-63179918D01*
X88321120Y-63225525D01*
X88321118Y-63225526D01*
X88077737Y-63355616D01*
X88059886Y-63361031D01*
X87813644Y-63435728D01*
X87539000Y-63462778D01*
X87264357Y-63435728D01*
X87018115Y-63361031D01*
X87000264Y-63355616D01*
X86756883Y-63225526D01*
X86756881Y-63225525D01*
X86715203Y-63191320D01*
X86543550Y-63050450D01*
X86394737Y-62869120D01*
X86368475Y-62837120D01*
X86361036Y-62823202D01*
X86238384Y-62593737D01*
X86186621Y-62423097D01*
X86158272Y-62329644D01*
X86141152Y-62155818D01*
X86138000Y-62123820D01*
X86138000Y-61386181D01*
X86155120Y-61212357D01*
X86158272Y-61180357D01*
X86238383Y-60916268D01*
X86238384Y-60916264D01*
X86368474Y-60672883D01*
X86368475Y-60672881D01*
X86402680Y-60631203D01*
X86543550Y-60459550D01*
X86717890Y-60316474D01*
X86756880Y-60284475D01*
X86821876Y-60249734D01*
X87000263Y-60154384D01*
X87072122Y-60132586D01*
X87264356Y-60074272D01*
X87539000Y-60047222D01*
X87813643Y-60074272D01*
X87813643Y-60074272D01*
G37*
G36*
X83613643Y-60074272D02*
G01*
X83805877Y-60132586D01*
X83877736Y-60154384D01*
X84056123Y-60249734D01*
X84121119Y-60284475D01*
X84156419Y-60313445D01*
X84334450Y-60459550D01*
X84477092Y-60633360D01*
X84509525Y-60672880D01*
X84509526Y-60672882D01*
X84639616Y-60916263D01*
X84660462Y-60984983D01*
X84719728Y-61180356D01*
X84740000Y-61386182D01*
X84740000Y-62123817D01*
X84719728Y-62329643D01*
X84660461Y-62525018D01*
X84639616Y-62593737D01*
X84516964Y-62823202D01*
X84509525Y-62837120D01*
X84483263Y-62869120D01*
X84334450Y-63050450D01*
X84176691Y-63179918D01*
X84121120Y-63225525D01*
X84121118Y-63225526D01*
X83877737Y-63355616D01*
X83859886Y-63361031D01*
X83613644Y-63435728D01*
X83339000Y-63462778D01*
X83064357Y-63435728D01*
X82818115Y-63361031D01*
X82800264Y-63355616D01*
X82556883Y-63225526D01*
X82556881Y-63225525D01*
X82515203Y-63191320D01*
X82343550Y-63050450D01*
X82194737Y-62869120D01*
X82168475Y-62837120D01*
X82161036Y-62823202D01*
X82038384Y-62593737D01*
X81986621Y-62423097D01*
X81958272Y-62329644D01*
X81941152Y-62155818D01*
X81938000Y-62123820D01*
X81938000Y-61386181D01*
X81955120Y-61212357D01*
X81958272Y-61180357D01*
X82038383Y-60916268D01*
X82038384Y-60916264D01*
X82168474Y-60672883D01*
X82168475Y-60672881D01*
X82202680Y-60631203D01*
X82343550Y-60459550D01*
X82517890Y-60316474D01*
X82556880Y-60284475D01*
X82621876Y-60249734D01*
X82800263Y-60154384D01*
X82872122Y-60132586D01*
X83064356Y-60074272D01*
X83339000Y-60047222D01*
X83613643Y-60074272D01*
X83613643Y-60074272D01*
G37*
G36*
X80413031Y-60057621D02*
G01*
X80442486Y-60066556D01*
X80469623Y-60081062D01*
X80493414Y-60100586D01*
X80512938Y-60124377D01*
X80527444Y-60151514D01*
X80536379Y-60180969D01*
X80540000Y-60217734D01*
X80540000Y-63292266D01*
X80536379Y-63329031D01*
X80527444Y-63358486D01*
X80512938Y-63385623D01*
X80493414Y-63409414D01*
X80469623Y-63428938D01*
X80442486Y-63443444D01*
X80413031Y-63452379D01*
X80376266Y-63456000D01*
X77901734Y-63456000D01*
X77864969Y-63452379D01*
X77835514Y-63443444D01*
X77808377Y-63428938D01*
X77784586Y-63409414D01*
X77765062Y-63385623D01*
X77750556Y-63358486D01*
X77741621Y-63329031D01*
X77738000Y-63292266D01*
X77738000Y-60217734D01*
X77741621Y-60180969D01*
X77750556Y-60151514D01*
X77765062Y-60124377D01*
X77784586Y-60100586D01*
X77808377Y-60081062D01*
X77835514Y-60066556D01*
X77864969Y-60057621D01*
X77901734Y-60054000D01*
X80376266Y-60054000D01*
X80413031Y-60057621D01*
X80413031Y-60057621D01*
G37*
G36*
X107408031Y-59957621D02*
G01*
X107437486Y-59966556D01*
X107464623Y-59981062D01*
X107488414Y-60000586D01*
X107507938Y-60024377D01*
X107522444Y-60051514D01*
X107531379Y-60080969D01*
X107535000Y-60117734D01*
X107535000Y-63192266D01*
X107531379Y-63229031D01*
X107522444Y-63258486D01*
X107507938Y-63285623D01*
X107488414Y-63309414D01*
X107464623Y-63328938D01*
X107437486Y-63343444D01*
X107408031Y-63352379D01*
X107371266Y-63356000D01*
X104896734Y-63356000D01*
X104859969Y-63352379D01*
X104830514Y-63343444D01*
X104803377Y-63328938D01*
X104779586Y-63309414D01*
X104760062Y-63285623D01*
X104745556Y-63258486D01*
X104736621Y-63229031D01*
X104733000Y-63192266D01*
X104733000Y-60117734D01*
X104736621Y-60080969D01*
X104745556Y-60051514D01*
X104760062Y-60024377D01*
X104779586Y-60000586D01*
X104803377Y-59981062D01*
X104830514Y-59966556D01*
X104859969Y-59957621D01*
X104896734Y-59954000D01*
X107371266Y-59954000D01*
X107408031Y-59957621D01*
X107408031Y-59957621D01*
G37*
G36*
X71749256Y-59351298D02*
G01*
X71855579Y-59372447D01*
X72156042Y-59496903D01*
X72426451Y-59677585D01*
X72656415Y-59907549D01*
X72831315Y-60169305D01*
X72837098Y-60177960D01*
X72840587Y-60186383D01*
X72961553Y-60478421D01*
X72964165Y-60491551D01*
X73025000Y-60797389D01*
X73025000Y-61122611D01*
X73013513Y-61180358D01*
X72961553Y-61441579D01*
X72837097Y-61742042D01*
X72656415Y-62012451D01*
X72426451Y-62242415D01*
X72156042Y-62423097D01*
X71855579Y-62547553D01*
X71749256Y-62568702D01*
X71536611Y-62611000D01*
X71211389Y-62611000D01*
X70998744Y-62568702D01*
X70892421Y-62547553D01*
X70591958Y-62423097D01*
X70321549Y-62242415D01*
X70091585Y-62012451D01*
X69910903Y-61742042D01*
X69786447Y-61441579D01*
X69734487Y-61180358D01*
X69723000Y-61122611D01*
X69723000Y-60797389D01*
X69783835Y-60491551D01*
X69786447Y-60478421D01*
X69907413Y-60186383D01*
X69910902Y-60177960D01*
X69916685Y-60169305D01*
X70091585Y-59907549D01*
X70321549Y-59677585D01*
X70591958Y-59496903D01*
X70892421Y-59372447D01*
X70998744Y-59351298D01*
X71211389Y-59309000D01*
X71536611Y-59309000D01*
X71749256Y-59351298D01*
X71749256Y-59351298D01*
G37*
G36*
X116749256Y-59351298D02*
G01*
X116855579Y-59372447D01*
X117156042Y-59496903D01*
X117426451Y-59677585D01*
X117656415Y-59907549D01*
X117831315Y-60169305D01*
X117837098Y-60177960D01*
X117840587Y-60186383D01*
X117961553Y-60478421D01*
X117964165Y-60491551D01*
X118025000Y-60797389D01*
X118025000Y-61122611D01*
X118013513Y-61180358D01*
X117961553Y-61441579D01*
X117837097Y-61742042D01*
X117656415Y-62012451D01*
X117426451Y-62242415D01*
X117156042Y-62423097D01*
X116855579Y-62547553D01*
X116749256Y-62568702D01*
X116536611Y-62611000D01*
X116211389Y-62611000D01*
X115998744Y-62568702D01*
X115892421Y-62547553D01*
X115591958Y-62423097D01*
X115321549Y-62242415D01*
X115091585Y-62012451D01*
X114910903Y-61742042D01*
X114786447Y-61441579D01*
X114734487Y-61180358D01*
X114723000Y-61122611D01*
X114723000Y-60797389D01*
X114783835Y-60491551D01*
X114786447Y-60478421D01*
X114907413Y-60186383D01*
X114910902Y-60177960D01*
X114916685Y-60169305D01*
X115091585Y-59907549D01*
X115321549Y-59677585D01*
X115591958Y-59496903D01*
X115892421Y-59372447D01*
X115998744Y-59351298D01*
X116211389Y-59309000D01*
X116536611Y-59309000D01*
X116749256Y-59351298D01*
X116749256Y-59351298D01*
G37*
M02*
