G04 #@! TF.GenerationSoftware,KiCad,Pcbnew,(5.1.0)-1*
G04 #@! TF.CreationDate,2019-10-16T14:10:11+11:00*
G04 #@! TF.ProjectId,APPS,41505053-2e6b-4696-9361-645f70636258,rev?*
G04 #@! TF.SameCoordinates,Original*
G04 #@! TF.FileFunction,Legend,Top*
G04 #@! TF.FilePolarity,Positive*
%FSLAX46Y46*%
G04 Gerber Fmt 4.6, Leading zero omitted, Abs format (unit mm)*
G04 Created by KiCad (PCBNEW (5.1.0)-1) date 2019-10-16 14:10:11*
%MOMM*%
%LPD*%
G04 APERTURE LIST*
%ADD10C,0.150000*%
%ADD11C,0.010000*%
%ADD12C,0.120000*%
G04 APERTURE END LIST*
D10*
X103549885Y-73096380D02*
X103549885Y-72096380D01*
X103883219Y-72810666D01*
X104216552Y-72096380D01*
X104216552Y-73096380D01*
X105359409Y-72096380D02*
X105597504Y-73096380D01*
X105787980Y-72382095D01*
X105978457Y-73096380D01*
X106216552Y-72096380D01*
X106597504Y-73096380D02*
X106597504Y-72096380D01*
X107026076Y-73096380D02*
X107026076Y-72572571D01*
X106978457Y-72477333D01*
X106883219Y-72429714D01*
X106740361Y-72429714D01*
X106645123Y-72477333D01*
X106597504Y-72524952D01*
X107502266Y-73096380D02*
X107502266Y-72429714D01*
X107502266Y-72096380D02*
X107454647Y-72144000D01*
X107502266Y-72191619D01*
X107549885Y-72144000D01*
X107502266Y-72096380D01*
X107502266Y-72191619D01*
X107835600Y-72429714D02*
X108216552Y-72429714D01*
X107978457Y-72096380D02*
X107978457Y-72953523D01*
X108026076Y-73048761D01*
X108121314Y-73096380D01*
X108216552Y-73096380D01*
X108454647Y-72429714D02*
X108645123Y-73096380D01*
X108835600Y-72620190D01*
X109026076Y-73096380D01*
X109216552Y-72429714D01*
X109740361Y-73096380D02*
X109645123Y-73048761D01*
X109597504Y-73001142D01*
X109549885Y-72905904D01*
X109549885Y-72620190D01*
X109597504Y-72524952D01*
X109645123Y-72477333D01*
X109740361Y-72429714D01*
X109883219Y-72429714D01*
X109978457Y-72477333D01*
X110026076Y-72524952D01*
X110073695Y-72620190D01*
X110073695Y-72905904D01*
X110026076Y-73001142D01*
X109978457Y-73048761D01*
X109883219Y-73096380D01*
X109740361Y-73096380D01*
X110502266Y-73096380D02*
X110502266Y-72429714D01*
X110502266Y-72620190D02*
X110549885Y-72524952D01*
X110597504Y-72477333D01*
X110692742Y-72429714D01*
X110787980Y-72429714D01*
X110978457Y-72429714D02*
X111359409Y-72429714D01*
X111121314Y-72096380D02*
X111121314Y-72953523D01*
X111168933Y-73048761D01*
X111264171Y-73096380D01*
X111359409Y-73096380D01*
X111692742Y-73096380D02*
X111692742Y-72096380D01*
X112121314Y-73096380D02*
X112121314Y-72572571D01*
X112073695Y-72477333D01*
X111978457Y-72429714D01*
X111835600Y-72429714D01*
X111740361Y-72477333D01*
X111692742Y-72524952D01*
X103565600Y-71286666D02*
X104041790Y-71286666D01*
X103470361Y-71572380D02*
X103803695Y-70572380D01*
X104137028Y-71572380D01*
X104470361Y-71572380D02*
X104470361Y-70572380D01*
X104851314Y-70572380D01*
X104946552Y-70620000D01*
X104994171Y-70667619D01*
X105041790Y-70762857D01*
X105041790Y-70905714D01*
X104994171Y-71000952D01*
X104946552Y-71048571D01*
X104851314Y-71096190D01*
X104470361Y-71096190D01*
X105470361Y-71572380D02*
X105470361Y-70572380D01*
X105851314Y-70572380D01*
X105946552Y-70620000D01*
X105994171Y-70667619D01*
X106041790Y-70762857D01*
X106041790Y-70905714D01*
X105994171Y-71000952D01*
X105946552Y-71048571D01*
X105851314Y-71096190D01*
X105470361Y-71096190D01*
X106422742Y-71524761D02*
X106565600Y-71572380D01*
X106803695Y-71572380D01*
X106898933Y-71524761D01*
X106946552Y-71477142D01*
X106994171Y-71381904D01*
X106994171Y-71286666D01*
X106946552Y-71191428D01*
X106898933Y-71143809D01*
X106803695Y-71096190D01*
X106613219Y-71048571D01*
X106517980Y-71000952D01*
X106470361Y-70953333D01*
X106422742Y-70858095D01*
X106422742Y-70762857D01*
X106470361Y-70667619D01*
X106517980Y-70620000D01*
X106613219Y-70572380D01*
X106851314Y-70572380D01*
X106994171Y-70620000D01*
X108041790Y-70572380D02*
X108375123Y-71572380D01*
X108708457Y-70572380D01*
X108994171Y-70667619D02*
X109041790Y-70620000D01*
X109137028Y-70572380D01*
X109375123Y-70572380D01*
X109470361Y-70620000D01*
X109517980Y-70667619D01*
X109565600Y-70762857D01*
X109565600Y-70858095D01*
X109517980Y-71000952D01*
X108946552Y-71572380D01*
X109565600Y-71572380D01*
D11*
G36*
X110102962Y-65771774D02*
G01*
X110174244Y-65773755D01*
X110229123Y-65776755D01*
X110262718Y-65780526D01*
X110271011Y-65783760D01*
X110264929Y-65800488D01*
X110247918Y-65840092D01*
X110221836Y-65898438D01*
X110188538Y-65971392D01*
X110149881Y-66054820D01*
X110135152Y-66086319D01*
X110100024Y-66161334D01*
X110054313Y-66259055D01*
X110000063Y-66375107D01*
X109939319Y-66505113D01*
X109874125Y-66644696D01*
X109806526Y-66789481D01*
X109738566Y-66935091D01*
X109692610Y-67033588D01*
X109590554Y-67252401D01*
X109500275Y-67445870D01*
X109420849Y-67615697D01*
X109351350Y-67763586D01*
X109290853Y-67891240D01*
X109238432Y-68000362D01*
X109193164Y-68092656D01*
X109154121Y-68169824D01*
X109120381Y-68233571D01*
X109091016Y-68285599D01*
X109065103Y-68327612D01*
X109041716Y-68361312D01*
X109019929Y-68388404D01*
X108998818Y-68410590D01*
X108977458Y-68429574D01*
X108954923Y-68447060D01*
X108930288Y-68464749D01*
X108905883Y-68482019D01*
X108759736Y-68570419D01*
X108603668Y-68632791D01*
X108552412Y-68647329D01*
X108484439Y-68660116D01*
X108396440Y-68669839D01*
X108298065Y-68676099D01*
X108198959Y-68678498D01*
X108108770Y-68676636D01*
X108037145Y-68670115D01*
X108029835Y-68668928D01*
X107916263Y-68637754D01*
X107822294Y-68588437D01*
X107749778Y-68523316D01*
X107700568Y-68444729D01*
X107676515Y-68355017D01*
X107679469Y-68256517D01*
X107684280Y-68232361D01*
X107692416Y-68210598D01*
X107712084Y-68164228D01*
X107742168Y-68095668D01*
X107781553Y-68007339D01*
X107829122Y-67901659D01*
X107883758Y-67781048D01*
X107944346Y-67647924D01*
X108009770Y-67504706D01*
X108078912Y-67353814D01*
X108150658Y-67197666D01*
X108223890Y-67038682D01*
X108297493Y-66879281D01*
X108370351Y-66721882D01*
X108441346Y-66568903D01*
X108509363Y-66422764D01*
X108573286Y-66285884D01*
X108631999Y-66160683D01*
X108684385Y-66049578D01*
X108729328Y-65954989D01*
X108765712Y-65879336D01*
X108792421Y-65825037D01*
X108808338Y-65794511D01*
X108811520Y-65789383D01*
X108830212Y-65783062D01*
X108871560Y-65778358D01*
X108929741Y-65775226D01*
X108998931Y-65773617D01*
X109073308Y-65773485D01*
X109147048Y-65774783D01*
X109214329Y-65777465D01*
X109269326Y-65781483D01*
X109306216Y-65786790D01*
X109319177Y-65793340D01*
X109319155Y-65793470D01*
X109312506Y-65808933D01*
X109294098Y-65849504D01*
X109264839Y-65913230D01*
X109225635Y-65998153D01*
X109177396Y-66102318D01*
X109121028Y-66223771D01*
X109057439Y-66360553D01*
X108987536Y-66510712D01*
X108912227Y-66672290D01*
X108832421Y-66843331D01*
X108755126Y-67008822D01*
X108672054Y-67186663D01*
X108592697Y-67356683D01*
X108517955Y-67516944D01*
X108448728Y-67665511D01*
X108385917Y-67800446D01*
X108330423Y-67919812D01*
X108283145Y-68021673D01*
X108244985Y-68104092D01*
X108216842Y-68165132D01*
X108199618Y-68202855D01*
X108194188Y-68215322D01*
X108207833Y-68220272D01*
X108243920Y-68222398D01*
X108295174Y-68222032D01*
X108354321Y-68219509D01*
X108414088Y-68215159D01*
X108467201Y-68209317D01*
X108506385Y-68202315D01*
X108511966Y-68200788D01*
X108575261Y-68177477D01*
X108624703Y-68147153D01*
X108666108Y-68104077D01*
X108705289Y-68042508D01*
X108738338Y-67977347D01*
X108750732Y-67951349D01*
X108762915Y-67925735D01*
X108775733Y-67898697D01*
X108790031Y-67868428D01*
X108806655Y-67833120D01*
X108826450Y-67790965D01*
X108850262Y-67740155D01*
X108878936Y-67678882D01*
X108913318Y-67605339D01*
X108954253Y-67517718D01*
X109002586Y-67414211D01*
X109059164Y-67293009D01*
X109124830Y-67152307D01*
X109200432Y-66990294D01*
X109286814Y-66805165D01*
X109384822Y-66595110D01*
X109405060Y-66551735D01*
X109769306Y-65771058D01*
X110020159Y-65771058D01*
X110102962Y-65771774D01*
X110102962Y-65771774D01*
G37*
X110102962Y-65771774D02*
X110174244Y-65773755D01*
X110229123Y-65776755D01*
X110262718Y-65780526D01*
X110271011Y-65783760D01*
X110264929Y-65800488D01*
X110247918Y-65840092D01*
X110221836Y-65898438D01*
X110188538Y-65971392D01*
X110149881Y-66054820D01*
X110135152Y-66086319D01*
X110100024Y-66161334D01*
X110054313Y-66259055D01*
X110000063Y-66375107D01*
X109939319Y-66505113D01*
X109874125Y-66644696D01*
X109806526Y-66789481D01*
X109738566Y-66935091D01*
X109692610Y-67033588D01*
X109590554Y-67252401D01*
X109500275Y-67445870D01*
X109420849Y-67615697D01*
X109351350Y-67763586D01*
X109290853Y-67891240D01*
X109238432Y-68000362D01*
X109193164Y-68092656D01*
X109154121Y-68169824D01*
X109120381Y-68233571D01*
X109091016Y-68285599D01*
X109065103Y-68327612D01*
X109041716Y-68361312D01*
X109019929Y-68388404D01*
X108998818Y-68410590D01*
X108977458Y-68429574D01*
X108954923Y-68447060D01*
X108930288Y-68464749D01*
X108905883Y-68482019D01*
X108759736Y-68570419D01*
X108603668Y-68632791D01*
X108552412Y-68647329D01*
X108484439Y-68660116D01*
X108396440Y-68669839D01*
X108298065Y-68676099D01*
X108198959Y-68678498D01*
X108108770Y-68676636D01*
X108037145Y-68670115D01*
X108029835Y-68668928D01*
X107916263Y-68637754D01*
X107822294Y-68588437D01*
X107749778Y-68523316D01*
X107700568Y-68444729D01*
X107676515Y-68355017D01*
X107679469Y-68256517D01*
X107684280Y-68232361D01*
X107692416Y-68210598D01*
X107712084Y-68164228D01*
X107742168Y-68095668D01*
X107781553Y-68007339D01*
X107829122Y-67901659D01*
X107883758Y-67781048D01*
X107944346Y-67647924D01*
X108009770Y-67504706D01*
X108078912Y-67353814D01*
X108150658Y-67197666D01*
X108223890Y-67038682D01*
X108297493Y-66879281D01*
X108370351Y-66721882D01*
X108441346Y-66568903D01*
X108509363Y-66422764D01*
X108573286Y-66285884D01*
X108631999Y-66160683D01*
X108684385Y-66049578D01*
X108729328Y-65954989D01*
X108765712Y-65879336D01*
X108792421Y-65825037D01*
X108808338Y-65794511D01*
X108811520Y-65789383D01*
X108830212Y-65783062D01*
X108871560Y-65778358D01*
X108929741Y-65775226D01*
X108998931Y-65773617D01*
X109073308Y-65773485D01*
X109147048Y-65774783D01*
X109214329Y-65777465D01*
X109269326Y-65781483D01*
X109306216Y-65786790D01*
X109319177Y-65793340D01*
X109319155Y-65793470D01*
X109312506Y-65808933D01*
X109294098Y-65849504D01*
X109264839Y-65913230D01*
X109225635Y-65998153D01*
X109177396Y-66102318D01*
X109121028Y-66223771D01*
X109057439Y-66360553D01*
X108987536Y-66510712D01*
X108912227Y-66672290D01*
X108832421Y-66843331D01*
X108755126Y-67008822D01*
X108672054Y-67186663D01*
X108592697Y-67356683D01*
X108517955Y-67516944D01*
X108448728Y-67665511D01*
X108385917Y-67800446D01*
X108330423Y-67919812D01*
X108283145Y-68021673D01*
X108244985Y-68104092D01*
X108216842Y-68165132D01*
X108199618Y-68202855D01*
X108194188Y-68215322D01*
X108207833Y-68220272D01*
X108243920Y-68222398D01*
X108295174Y-68222032D01*
X108354321Y-68219509D01*
X108414088Y-68215159D01*
X108467201Y-68209317D01*
X108506385Y-68202315D01*
X108511966Y-68200788D01*
X108575261Y-68177477D01*
X108624703Y-68147153D01*
X108666108Y-68104077D01*
X108705289Y-68042508D01*
X108738338Y-67977347D01*
X108750732Y-67951349D01*
X108762915Y-67925735D01*
X108775733Y-67898697D01*
X108790031Y-67868428D01*
X108806655Y-67833120D01*
X108826450Y-67790965D01*
X108850262Y-67740155D01*
X108878936Y-67678882D01*
X108913318Y-67605339D01*
X108954253Y-67517718D01*
X109002586Y-67414211D01*
X109059164Y-67293009D01*
X109124830Y-67152307D01*
X109200432Y-66990294D01*
X109286814Y-66805165D01*
X109384822Y-66595110D01*
X109405060Y-66551735D01*
X109769306Y-65771058D01*
X110020159Y-65771058D01*
X110102962Y-65771774D01*
G36*
X107867139Y-65780065D02*
G01*
X107934943Y-65781810D01*
X107985622Y-65785563D01*
X108025552Y-65792022D01*
X108061109Y-65801885D01*
X108095678Y-65814662D01*
X108192487Y-65865880D01*
X108266150Y-65932266D01*
X108315095Y-66011247D01*
X108337750Y-66100253D01*
X108332543Y-66196711D01*
X108331708Y-66200808D01*
X108322413Y-66228327D01*
X108300977Y-66281305D01*
X108268089Y-66358211D01*
X108224439Y-66457517D01*
X108170715Y-66577692D01*
X108107606Y-66717206D01*
X108035801Y-66874531D01*
X107955990Y-67048136D01*
X107868861Y-67236493D01*
X107775103Y-67438070D01*
X107755689Y-67479680D01*
X107196752Y-68677117D01*
X106953276Y-68681235D01*
X106870729Y-68681942D01*
X106798754Y-68681253D01*
X106742615Y-68679322D01*
X106707574Y-68676305D01*
X106698531Y-68673765D01*
X106702302Y-68658238D01*
X106717642Y-68618516D01*
X106743317Y-68557406D01*
X106778091Y-68477713D01*
X106820729Y-68382242D01*
X106869997Y-68273798D01*
X106924660Y-68155188D01*
X106963420Y-68072000D01*
X107026935Y-67936203D01*
X107091180Y-67798740D01*
X107154026Y-67664171D01*
X107213344Y-67537059D01*
X107267006Y-67421966D01*
X107312884Y-67323454D01*
X107348848Y-67246083D01*
X107357318Y-67227823D01*
X107398022Y-67140159D01*
X107447874Y-67033019D01*
X107503340Y-66913987D01*
X107560885Y-66790644D01*
X107616975Y-66670574D01*
X107646350Y-66607764D01*
X107817641Y-66241706D01*
X107688415Y-66237209D01*
X107605163Y-66236098D01*
X107535688Y-66240873D01*
X107476987Y-66254181D01*
X107426053Y-66278671D01*
X107379881Y-66316991D01*
X107335467Y-66371788D01*
X107289806Y-66445711D01*
X107239892Y-66541407D01*
X107182720Y-66661524D01*
X107166144Y-66697411D01*
X107118709Y-66800347D01*
X107070175Y-66905378D01*
X107023680Y-67005734D01*
X106982364Y-67094642D01*
X106949364Y-67165330D01*
X106941072Y-67183000D01*
X106918923Y-67230220D01*
X106885789Y-67301013D01*
X106843313Y-67391865D01*
X106793134Y-67499264D01*
X106736893Y-67619697D01*
X106676230Y-67749652D01*
X106612788Y-67885616D01*
X106553728Y-68012235D01*
X106243660Y-68677117D01*
X105993747Y-68681214D01*
X105895104Y-68682220D01*
X105823549Y-68681431D01*
X105776334Y-68678698D01*
X105750709Y-68673871D01*
X105743835Y-68667663D01*
X105749955Y-68650555D01*
X105767386Y-68609486D01*
X105794739Y-68547546D01*
X105830623Y-68467822D01*
X105873645Y-68373401D01*
X105922416Y-68267373D01*
X105975545Y-68152825D01*
X105981228Y-68140625D01*
X106109019Y-67866493D01*
X106224830Y-67618234D01*
X106329249Y-67394611D01*
X106422860Y-67194386D01*
X106506251Y-67016320D01*
X106580008Y-66859175D01*
X106644718Y-66721714D01*
X106700966Y-66602698D01*
X106749339Y-66500889D01*
X106790423Y-66415049D01*
X106824806Y-66343940D01*
X106853072Y-66286323D01*
X106875810Y-66240962D01*
X106893604Y-66206617D01*
X106907041Y-66182051D01*
X106915653Y-66167656D01*
X106995762Y-66067275D01*
X107099842Y-65975923D01*
X107222463Y-65897292D01*
X107358193Y-65835076D01*
X107447129Y-65806206D01*
X107499166Y-65794510D01*
X107559243Y-65786554D01*
X107633743Y-65781821D01*
X107729049Y-65779796D01*
X107775835Y-65779629D01*
X107867139Y-65780065D01*
X107867139Y-65780065D01*
G37*
X107867139Y-65780065D02*
X107934943Y-65781810D01*
X107985622Y-65785563D01*
X108025552Y-65792022D01*
X108061109Y-65801885D01*
X108095678Y-65814662D01*
X108192487Y-65865880D01*
X108266150Y-65932266D01*
X108315095Y-66011247D01*
X108337750Y-66100253D01*
X108332543Y-66196711D01*
X108331708Y-66200808D01*
X108322413Y-66228327D01*
X108300977Y-66281305D01*
X108268089Y-66358211D01*
X108224439Y-66457517D01*
X108170715Y-66577692D01*
X108107606Y-66717206D01*
X108035801Y-66874531D01*
X107955990Y-67048136D01*
X107868861Y-67236493D01*
X107775103Y-67438070D01*
X107755689Y-67479680D01*
X107196752Y-68677117D01*
X106953276Y-68681235D01*
X106870729Y-68681942D01*
X106798754Y-68681253D01*
X106742615Y-68679322D01*
X106707574Y-68676305D01*
X106698531Y-68673765D01*
X106702302Y-68658238D01*
X106717642Y-68618516D01*
X106743317Y-68557406D01*
X106778091Y-68477713D01*
X106820729Y-68382242D01*
X106869997Y-68273798D01*
X106924660Y-68155188D01*
X106963420Y-68072000D01*
X107026935Y-67936203D01*
X107091180Y-67798740D01*
X107154026Y-67664171D01*
X107213344Y-67537059D01*
X107267006Y-67421966D01*
X107312884Y-67323454D01*
X107348848Y-67246083D01*
X107357318Y-67227823D01*
X107398022Y-67140159D01*
X107447874Y-67033019D01*
X107503340Y-66913987D01*
X107560885Y-66790644D01*
X107616975Y-66670574D01*
X107646350Y-66607764D01*
X107817641Y-66241706D01*
X107688415Y-66237209D01*
X107605163Y-66236098D01*
X107535688Y-66240873D01*
X107476987Y-66254181D01*
X107426053Y-66278671D01*
X107379881Y-66316991D01*
X107335467Y-66371788D01*
X107289806Y-66445711D01*
X107239892Y-66541407D01*
X107182720Y-66661524D01*
X107166144Y-66697411D01*
X107118709Y-66800347D01*
X107070175Y-66905378D01*
X107023680Y-67005734D01*
X106982364Y-67094642D01*
X106949364Y-67165330D01*
X106941072Y-67183000D01*
X106918923Y-67230220D01*
X106885789Y-67301013D01*
X106843313Y-67391865D01*
X106793134Y-67499264D01*
X106736893Y-67619697D01*
X106676230Y-67749652D01*
X106612788Y-67885616D01*
X106553728Y-68012235D01*
X106243660Y-68677117D01*
X105993747Y-68681214D01*
X105895104Y-68682220D01*
X105823549Y-68681431D01*
X105776334Y-68678698D01*
X105750709Y-68673871D01*
X105743835Y-68667663D01*
X105749955Y-68650555D01*
X105767386Y-68609486D01*
X105794739Y-68547546D01*
X105830623Y-68467822D01*
X105873645Y-68373401D01*
X105922416Y-68267373D01*
X105975545Y-68152825D01*
X105981228Y-68140625D01*
X106109019Y-67866493D01*
X106224830Y-67618234D01*
X106329249Y-67394611D01*
X106422860Y-67194386D01*
X106506251Y-67016320D01*
X106580008Y-66859175D01*
X106644718Y-66721714D01*
X106700966Y-66602698D01*
X106749339Y-66500889D01*
X106790423Y-66415049D01*
X106824806Y-66343940D01*
X106853072Y-66286323D01*
X106875810Y-66240962D01*
X106893604Y-66206617D01*
X106907041Y-66182051D01*
X106915653Y-66167656D01*
X106995762Y-66067275D01*
X107099842Y-65975923D01*
X107222463Y-65897292D01*
X107358193Y-65835076D01*
X107447129Y-65806206D01*
X107499166Y-65794510D01*
X107559243Y-65786554D01*
X107633743Y-65781821D01*
X107729049Y-65779796D01*
X107775835Y-65779629D01*
X107867139Y-65780065D01*
G36*
X108628572Y-68924921D02*
G01*
X108685457Y-68927214D01*
X108724085Y-68932066D01*
X108748320Y-68939890D01*
X108762028Y-68951104D01*
X108767374Y-68961048D01*
X108768356Y-68996214D01*
X108752104Y-69031507D01*
X108725602Y-69054876D01*
X108710995Y-69058321D01*
X108670126Y-69062496D01*
X108646158Y-69067534D01*
X108619728Y-69068939D01*
X108612541Y-69052389D01*
X108608995Y-69042065D01*
X108595189Y-69035129D01*
X108566370Y-69030940D01*
X108517782Y-69028858D01*
X108444674Y-69028241D01*
X108433498Y-69028235D01*
X108254456Y-69028235D01*
X108218555Y-69099206D01*
X108192259Y-69153181D01*
X108167539Y-69207083D01*
X108159301Y-69226206D01*
X108135948Y-69282235D01*
X108319552Y-69282235D01*
X108396287Y-69282029D01*
X108448525Y-69280744D01*
X108481653Y-69277377D01*
X108501056Y-69270924D01*
X108512121Y-69260384D01*
X108520175Y-69244882D01*
X108537194Y-69207529D01*
X108440397Y-69207529D01*
X108391024Y-69206576D01*
X108356148Y-69204084D01*
X108343600Y-69200761D01*
X108349135Y-69183666D01*
X108360939Y-69155938D01*
X108369483Y-69139528D01*
X108381049Y-69128679D01*
X108401287Y-69122239D01*
X108435851Y-69119060D01*
X108490392Y-69117991D01*
X108548007Y-69117882D01*
X108717736Y-69117882D01*
X108689594Y-69173911D01*
X108663357Y-69227219D01*
X108637126Y-69282049D01*
X108634982Y-69286628D01*
X108616877Y-69320398D01*
X108595554Y-69345645D01*
X108566665Y-69363560D01*
X108525862Y-69375333D01*
X108468798Y-69382155D01*
X108391128Y-69385216D01*
X108288502Y-69385705D01*
X108273371Y-69385644D01*
X108188818Y-69384820D01*
X108114133Y-69383290D01*
X108054692Y-69381227D01*
X108015871Y-69378804D01*
X108003688Y-69376928D01*
X107988338Y-69360017D01*
X107987650Y-69325995D01*
X108002126Y-69272680D01*
X108032266Y-69197886D01*
X108057353Y-69143319D01*
X108092027Y-69070603D01*
X108120629Y-69016744D01*
X108148371Y-68978823D01*
X108180462Y-68953921D01*
X108222112Y-68939119D01*
X108278532Y-68931496D01*
X108354931Y-68928133D01*
X108444568Y-68926346D01*
X108549564Y-68924770D01*
X108628572Y-68924921D01*
X108628572Y-68924921D01*
G37*
X108628572Y-68924921D02*
X108685457Y-68927214D01*
X108724085Y-68932066D01*
X108748320Y-68939890D01*
X108762028Y-68951104D01*
X108767374Y-68961048D01*
X108768356Y-68996214D01*
X108752104Y-69031507D01*
X108725602Y-69054876D01*
X108710995Y-69058321D01*
X108670126Y-69062496D01*
X108646158Y-69067534D01*
X108619728Y-69068939D01*
X108612541Y-69052389D01*
X108608995Y-69042065D01*
X108595189Y-69035129D01*
X108566370Y-69030940D01*
X108517782Y-69028858D01*
X108444674Y-69028241D01*
X108433498Y-69028235D01*
X108254456Y-69028235D01*
X108218555Y-69099206D01*
X108192259Y-69153181D01*
X108167539Y-69207083D01*
X108159301Y-69226206D01*
X108135948Y-69282235D01*
X108319552Y-69282235D01*
X108396287Y-69282029D01*
X108448525Y-69280744D01*
X108481653Y-69277377D01*
X108501056Y-69270924D01*
X108512121Y-69260384D01*
X108520175Y-69244882D01*
X108537194Y-69207529D01*
X108440397Y-69207529D01*
X108391024Y-69206576D01*
X108356148Y-69204084D01*
X108343600Y-69200761D01*
X108349135Y-69183666D01*
X108360939Y-69155938D01*
X108369483Y-69139528D01*
X108381049Y-69128679D01*
X108401287Y-69122239D01*
X108435851Y-69119060D01*
X108490392Y-69117991D01*
X108548007Y-69117882D01*
X108717736Y-69117882D01*
X108689594Y-69173911D01*
X108663357Y-69227219D01*
X108637126Y-69282049D01*
X108634982Y-69286628D01*
X108616877Y-69320398D01*
X108595554Y-69345645D01*
X108566665Y-69363560D01*
X108525862Y-69375333D01*
X108468798Y-69382155D01*
X108391128Y-69385216D01*
X108288502Y-69385705D01*
X108273371Y-69385644D01*
X108188818Y-69384820D01*
X108114133Y-69383290D01*
X108054692Y-69381227D01*
X108015871Y-69378804D01*
X108003688Y-69376928D01*
X107988338Y-69360017D01*
X107987650Y-69325995D01*
X108002126Y-69272680D01*
X108032266Y-69197886D01*
X108057353Y-69143319D01*
X108092027Y-69070603D01*
X108120629Y-69016744D01*
X108148371Y-68978823D01*
X108180462Y-68953921D01*
X108222112Y-68939119D01*
X108278532Y-68931496D01*
X108354931Y-68928133D01*
X108444568Y-68926346D01*
X108549564Y-68924770D01*
X108628572Y-68924921D01*
G36*
X107932163Y-68925119D02*
G01*
X107953430Y-68928802D01*
X107955129Y-68930382D01*
X107949117Y-68945497D01*
X107932491Y-68982989D01*
X107907364Y-69038201D01*
X107875851Y-69106473D01*
X107851734Y-69158235D01*
X107813178Y-69240234D01*
X107784473Y-69299064D01*
X107762930Y-69338679D01*
X107745861Y-69363036D01*
X107730579Y-69376090D01*
X107714396Y-69381795D01*
X107698475Y-69383774D01*
X107676394Y-69383933D01*
X107655609Y-69377819D01*
X107631601Y-69361991D01*
X107599853Y-69333010D01*
X107555844Y-69287435D01*
X107516939Y-69245568D01*
X107466857Y-69192265D01*
X107423626Y-69148021D01*
X107391409Y-69116972D01*
X107374372Y-69103252D01*
X107373291Y-69102941D01*
X107362561Y-69115693D01*
X107342981Y-69150150D01*
X107317619Y-69200612D01*
X107296942Y-69244882D01*
X107232568Y-69386823D01*
X107166780Y-69386823D01*
X107128451Y-69384238D01*
X107107451Y-69377701D01*
X107105972Y-69373873D01*
X107113763Y-69356580D01*
X107132084Y-69317139D01*
X107158663Y-69260402D01*
X107191229Y-69191223D01*
X107214343Y-69142284D01*
X107253078Y-69060869D01*
X107281853Y-69002659D01*
X107303318Y-68963768D01*
X107320124Y-68940309D01*
X107334923Y-68928397D01*
X107350364Y-68924146D01*
X107363487Y-68923647D01*
X107385961Y-68927060D01*
X107411461Y-68939427D01*
X107444205Y-68963942D01*
X107488408Y-69003795D01*
X107548290Y-69062180D01*
X107554006Y-69067868D01*
X107698770Y-69212089D01*
X107833560Y-68923647D01*
X107894344Y-68923647D01*
X107932163Y-68925119D01*
X107932163Y-68925119D01*
G37*
X107932163Y-68925119D02*
X107953430Y-68928802D01*
X107955129Y-68930382D01*
X107949117Y-68945497D01*
X107932491Y-68982989D01*
X107907364Y-69038201D01*
X107875851Y-69106473D01*
X107851734Y-69158235D01*
X107813178Y-69240234D01*
X107784473Y-69299064D01*
X107762930Y-69338679D01*
X107745861Y-69363036D01*
X107730579Y-69376090D01*
X107714396Y-69381795D01*
X107698475Y-69383774D01*
X107676394Y-69383933D01*
X107655609Y-69377819D01*
X107631601Y-69361991D01*
X107599853Y-69333010D01*
X107555844Y-69287435D01*
X107516939Y-69245568D01*
X107466857Y-69192265D01*
X107423626Y-69148021D01*
X107391409Y-69116972D01*
X107374372Y-69103252D01*
X107373291Y-69102941D01*
X107362561Y-69115693D01*
X107342981Y-69150150D01*
X107317619Y-69200612D01*
X107296942Y-69244882D01*
X107232568Y-69386823D01*
X107166780Y-69386823D01*
X107128451Y-69384238D01*
X107107451Y-69377701D01*
X107105972Y-69373873D01*
X107113763Y-69356580D01*
X107132084Y-69317139D01*
X107158663Y-69260402D01*
X107191229Y-69191223D01*
X107214343Y-69142284D01*
X107253078Y-69060869D01*
X107281853Y-69002659D01*
X107303318Y-68963768D01*
X107320124Y-68940309D01*
X107334923Y-68928397D01*
X107350364Y-68924146D01*
X107363487Y-68923647D01*
X107385961Y-68927060D01*
X107411461Y-68939427D01*
X107444205Y-68963942D01*
X107488408Y-69003795D01*
X107548290Y-69062180D01*
X107554006Y-69067868D01*
X107698770Y-69212089D01*
X107833560Y-68923647D01*
X107894344Y-68923647D01*
X107932163Y-68925119D01*
G36*
X107099757Y-68927140D02*
G01*
X107103482Y-68929216D01*
X107097435Y-68944476D01*
X107080708Y-68982078D01*
X107055427Y-69037365D01*
X107023713Y-69105678D01*
X106999232Y-69157887D01*
X106894982Y-69379353D01*
X106827409Y-69383906D01*
X106787480Y-69384247D01*
X106763675Y-69379899D01*
X106760671Y-69376436D01*
X106766992Y-69359446D01*
X106783912Y-69320295D01*
X106809261Y-69263840D01*
X106840870Y-69194936D01*
X106862814Y-69147764D01*
X106964120Y-68931117D01*
X107033801Y-68926563D01*
X107074691Y-68925271D01*
X107099757Y-68927140D01*
X107099757Y-68927140D01*
G37*
X107099757Y-68927140D02*
X107103482Y-68929216D01*
X107097435Y-68944476D01*
X107080708Y-68982078D01*
X107055427Y-69037365D01*
X107023713Y-69105678D01*
X106999232Y-69157887D01*
X106894982Y-69379353D01*
X106827409Y-69383906D01*
X106787480Y-69384247D01*
X106763675Y-69379899D01*
X106760671Y-69376436D01*
X106766992Y-69359446D01*
X106783912Y-69320295D01*
X106809261Y-69263840D01*
X106840870Y-69194936D01*
X106862814Y-69147764D01*
X106964120Y-68931117D01*
X107033801Y-68926563D01*
X107074691Y-68925271D01*
X107099757Y-68927140D01*
G36*
X106637190Y-68927257D02*
G01*
X106690176Y-68932886D01*
X106723342Y-68943182D01*
X106740017Y-68959010D01*
X106743532Y-68981234D01*
X106740275Y-68999763D01*
X106716827Y-69054132D01*
X106676659Y-69085963D01*
X106628575Y-69098429D01*
X106586137Y-69102186D01*
X106568638Y-69095882D01*
X106571817Y-69075812D01*
X106581066Y-69057135D01*
X106586354Y-69044425D01*
X106582783Y-69036118D01*
X106565648Y-69031282D01*
X106530243Y-69028983D01*
X106471861Y-69028289D01*
X106435390Y-69028251D01*
X106274247Y-69028268D01*
X106221953Y-69142985D01*
X106197430Y-69196930D01*
X106177760Y-69240480D01*
X106166184Y-69266448D01*
X106164678Y-69269969D01*
X106176465Y-69274975D01*
X106212232Y-69278996D01*
X106266079Y-69281556D01*
X106317441Y-69282235D01*
X106475185Y-69282235D01*
X106498650Y-69236860D01*
X106517107Y-69207377D01*
X106538431Y-69197361D01*
X106575335Y-69201105D01*
X106577474Y-69201489D01*
X106614794Y-69209189D01*
X106636894Y-69215548D01*
X106638581Y-69216503D01*
X106638718Y-69234154D01*
X106625468Y-69266177D01*
X106603748Y-69303321D01*
X106578471Y-69336335D01*
X106570708Y-69344259D01*
X106555283Y-69357363D01*
X106537895Y-69366858D01*
X106513574Y-69373449D01*
X106477348Y-69377842D01*
X106424247Y-69380741D01*
X106349301Y-69382852D01*
X106290073Y-69384067D01*
X106197659Y-69385502D01*
X106130471Y-69385446D01*
X106083873Y-69383548D01*
X106053232Y-69379458D01*
X106033913Y-69372827D01*
X106021786Y-69363816D01*
X106010131Y-69350214D01*
X106004797Y-69334941D01*
X106007073Y-69313151D01*
X106018253Y-69279996D01*
X106039628Y-69230626D01*
X106072489Y-69160196D01*
X106080628Y-69142999D01*
X106116110Y-69069186D01*
X106146005Y-69014891D01*
X106175724Y-68977015D01*
X106210675Y-68952457D01*
X106256266Y-68938120D01*
X106317906Y-68930905D01*
X106401004Y-68927713D01*
X106458436Y-68926537D01*
X106561053Y-68925429D01*
X106637190Y-68927257D01*
X106637190Y-68927257D01*
G37*
X106637190Y-68927257D02*
X106690176Y-68932886D01*
X106723342Y-68943182D01*
X106740017Y-68959010D01*
X106743532Y-68981234D01*
X106740275Y-68999763D01*
X106716827Y-69054132D01*
X106676659Y-69085963D01*
X106628575Y-69098429D01*
X106586137Y-69102186D01*
X106568638Y-69095882D01*
X106571817Y-69075812D01*
X106581066Y-69057135D01*
X106586354Y-69044425D01*
X106582783Y-69036118D01*
X106565648Y-69031282D01*
X106530243Y-69028983D01*
X106471861Y-69028289D01*
X106435390Y-69028251D01*
X106274247Y-69028268D01*
X106221953Y-69142985D01*
X106197430Y-69196930D01*
X106177760Y-69240480D01*
X106166184Y-69266448D01*
X106164678Y-69269969D01*
X106176465Y-69274975D01*
X106212232Y-69278996D01*
X106266079Y-69281556D01*
X106317441Y-69282235D01*
X106475185Y-69282235D01*
X106498650Y-69236860D01*
X106517107Y-69207377D01*
X106538431Y-69197361D01*
X106575335Y-69201105D01*
X106577474Y-69201489D01*
X106614794Y-69209189D01*
X106636894Y-69215548D01*
X106638581Y-69216503D01*
X106638718Y-69234154D01*
X106625468Y-69266177D01*
X106603748Y-69303321D01*
X106578471Y-69336335D01*
X106570708Y-69344259D01*
X106555283Y-69357363D01*
X106537895Y-69366858D01*
X106513574Y-69373449D01*
X106477348Y-69377842D01*
X106424247Y-69380741D01*
X106349301Y-69382852D01*
X106290073Y-69384067D01*
X106197659Y-69385502D01*
X106130471Y-69385446D01*
X106083873Y-69383548D01*
X106053232Y-69379458D01*
X106033913Y-69372827D01*
X106021786Y-69363816D01*
X106010131Y-69350214D01*
X106004797Y-69334941D01*
X106007073Y-69313151D01*
X106018253Y-69279996D01*
X106039628Y-69230626D01*
X106072489Y-69160196D01*
X106080628Y-69142999D01*
X106116110Y-69069186D01*
X106146005Y-69014891D01*
X106175724Y-68977015D01*
X106210675Y-68952457D01*
X106256266Y-68938120D01*
X106317906Y-68930905D01*
X106401004Y-68927713D01*
X106458436Y-68926537D01*
X106561053Y-68925429D01*
X106637190Y-68927257D01*
G36*
X105749051Y-68924645D02*
G01*
X105771577Y-68926421D01*
X105773842Y-68927382D01*
X105776974Y-68942471D01*
X105785523Y-68981585D01*
X105798356Y-69039594D01*
X105814342Y-69111367D01*
X105823377Y-69151768D01*
X105840093Y-69228881D01*
X105853426Y-69295213D01*
X105862408Y-69345541D01*
X105866071Y-69374642D01*
X105865586Y-69379621D01*
X105847669Y-69383830D01*
X105810221Y-69386424D01*
X105786168Y-69386823D01*
X105742111Y-69385048D01*
X105720514Y-69377788D01*
X105714068Y-69362142D01*
X105713953Y-69358163D01*
X105712197Y-69325672D01*
X105703572Y-69304059D01*
X105683046Y-69291117D01*
X105645582Y-69284644D01*
X105586147Y-69282433D01*
X105540574Y-69282235D01*
X105385333Y-69282235D01*
X105327449Y-69334529D01*
X105284568Y-69368178D01*
X105245857Y-69383625D01*
X105206632Y-69386823D01*
X105169301Y-69383766D01*
X105149639Y-69376059D01*
X105148678Y-69372121D01*
X105160924Y-69358358D01*
X105192416Y-69328053D01*
X105239834Y-69284256D01*
X105299861Y-69230015D01*
X105343407Y-69191294D01*
X105482364Y-69191294D01*
X105687806Y-69192588D01*
X105678467Y-69145897D01*
X105671709Y-69103377D01*
X105669129Y-69071191D01*
X105666549Y-69051329D01*
X105656311Y-69046385D01*
X105634665Y-69058017D01*
X105597863Y-69087879D01*
X105564541Y-69117400D01*
X105482364Y-69191294D01*
X105343407Y-69191294D01*
X105369177Y-69168380D01*
X105400188Y-69141085D01*
X105481287Y-69070171D01*
X105543583Y-69016681D01*
X105590583Y-68978159D01*
X105625795Y-68952151D01*
X105652728Y-68936204D01*
X105674891Y-68927862D01*
X105695792Y-68924671D01*
X105710217Y-68924198D01*
X105749051Y-68924645D01*
X105749051Y-68924645D01*
G37*
X105749051Y-68924645D02*
X105771577Y-68926421D01*
X105773842Y-68927382D01*
X105776974Y-68942471D01*
X105785523Y-68981585D01*
X105798356Y-69039594D01*
X105814342Y-69111367D01*
X105823377Y-69151768D01*
X105840093Y-69228881D01*
X105853426Y-69295213D01*
X105862408Y-69345541D01*
X105866071Y-69374642D01*
X105865586Y-69379621D01*
X105847669Y-69383830D01*
X105810221Y-69386424D01*
X105786168Y-69386823D01*
X105742111Y-69385048D01*
X105720514Y-69377788D01*
X105714068Y-69362142D01*
X105713953Y-69358163D01*
X105712197Y-69325672D01*
X105703572Y-69304059D01*
X105683046Y-69291117D01*
X105645582Y-69284644D01*
X105586147Y-69282433D01*
X105540574Y-69282235D01*
X105385333Y-69282235D01*
X105327449Y-69334529D01*
X105284568Y-69368178D01*
X105245857Y-69383625D01*
X105206632Y-69386823D01*
X105169301Y-69383766D01*
X105149639Y-69376059D01*
X105148678Y-69372121D01*
X105160924Y-69358358D01*
X105192416Y-69328053D01*
X105239834Y-69284256D01*
X105299861Y-69230015D01*
X105343407Y-69191294D01*
X105482364Y-69191294D01*
X105687806Y-69192588D01*
X105678467Y-69145897D01*
X105671709Y-69103377D01*
X105669129Y-69071191D01*
X105666549Y-69051329D01*
X105656311Y-69046385D01*
X105634665Y-69058017D01*
X105597863Y-69087879D01*
X105564541Y-69117400D01*
X105482364Y-69191294D01*
X105343407Y-69191294D01*
X105369177Y-69168380D01*
X105400188Y-69141085D01*
X105481287Y-69070171D01*
X105543583Y-69016681D01*
X105590583Y-68978159D01*
X105625795Y-68952151D01*
X105652728Y-68936204D01*
X105674891Y-68927862D01*
X105695792Y-68924671D01*
X105710217Y-68924198D01*
X105749051Y-68924645D01*
G36*
X104977436Y-68924580D02*
G01*
X105054844Y-68927189D01*
X105115105Y-68931185D01*
X105153114Y-68936280D01*
X105162111Y-68939114D01*
X105184551Y-68960592D01*
X105188908Y-68994436D01*
X105175211Y-69045315D01*
X105162930Y-69075555D01*
X105120027Y-69148869D01*
X105065119Y-69196128D01*
X104998874Y-69219109D01*
X104936459Y-69229941D01*
X105073799Y-69386823D01*
X104884324Y-69386823D01*
X104820143Y-69304647D01*
X104784343Y-69260833D01*
X104757718Y-69236102D01*
X104732242Y-69225101D01*
X104699887Y-69222478D01*
X104696887Y-69222470D01*
X104663407Y-69224011D01*
X104641785Y-69232973D01*
X104624463Y-69255862D01*
X104603887Y-69299187D01*
X104601469Y-69304647D01*
X104565126Y-69386823D01*
X104495824Y-69386823D01*
X104456230Y-69384293D01*
X104433685Y-69377861D01*
X104431502Y-69373523D01*
X104439291Y-69356102D01*
X104457604Y-69316546D01*
X104484166Y-69259721D01*
X104516705Y-69190497D01*
X104539617Y-69141934D01*
X104553096Y-69113405D01*
X104697921Y-69113405D01*
X104711806Y-69117889D01*
X104749381Y-69120691D01*
X104804490Y-69121527D01*
X104854918Y-69120654D01*
X104924958Y-69118273D01*
X104971194Y-69115098D01*
X104999697Y-69109546D01*
X105016535Y-69100031D01*
X105027777Y-69084969D01*
X105033648Y-69073989D01*
X105046061Y-69042263D01*
X105046331Y-69023053D01*
X105045984Y-69022659D01*
X105027925Y-69018667D01*
X104986928Y-69015522D01*
X104929935Y-69013642D01*
X104890081Y-69013294D01*
X104743543Y-69013294D01*
X104720748Y-69057375D01*
X104705046Y-69091025D01*
X104697955Y-69112709D01*
X104697921Y-69113405D01*
X104553096Y-69113405D01*
X104642752Y-68923647D01*
X104887981Y-68923647D01*
X104977436Y-68924580D01*
X104977436Y-68924580D01*
G37*
X104977436Y-68924580D02*
X105054844Y-68927189D01*
X105115105Y-68931185D01*
X105153114Y-68936280D01*
X105162111Y-68939114D01*
X105184551Y-68960592D01*
X105188908Y-68994436D01*
X105175211Y-69045315D01*
X105162930Y-69075555D01*
X105120027Y-69148869D01*
X105065119Y-69196128D01*
X104998874Y-69219109D01*
X104936459Y-69229941D01*
X105073799Y-69386823D01*
X104884324Y-69386823D01*
X104820143Y-69304647D01*
X104784343Y-69260833D01*
X104757718Y-69236102D01*
X104732242Y-69225101D01*
X104699887Y-69222478D01*
X104696887Y-69222470D01*
X104663407Y-69224011D01*
X104641785Y-69232973D01*
X104624463Y-69255862D01*
X104603887Y-69299187D01*
X104601469Y-69304647D01*
X104565126Y-69386823D01*
X104495824Y-69386823D01*
X104456230Y-69384293D01*
X104433685Y-69377861D01*
X104431502Y-69373523D01*
X104439291Y-69356102D01*
X104457604Y-69316546D01*
X104484166Y-69259721D01*
X104516705Y-69190497D01*
X104539617Y-69141934D01*
X104553096Y-69113405D01*
X104697921Y-69113405D01*
X104711806Y-69117889D01*
X104749381Y-69120691D01*
X104804490Y-69121527D01*
X104854918Y-69120654D01*
X104924958Y-69118273D01*
X104971194Y-69115098D01*
X104999697Y-69109546D01*
X105016535Y-69100031D01*
X105027777Y-69084969D01*
X105033648Y-69073989D01*
X105046061Y-69042263D01*
X105046331Y-69023053D01*
X105045984Y-69022659D01*
X105027925Y-69018667D01*
X104986928Y-69015522D01*
X104929935Y-69013642D01*
X104890081Y-69013294D01*
X104743543Y-69013294D01*
X104720748Y-69057375D01*
X104705046Y-69091025D01*
X104697955Y-69112709D01*
X104697921Y-69113405D01*
X104553096Y-69113405D01*
X104642752Y-68923647D01*
X104887981Y-68923647D01*
X104977436Y-68924580D01*
G36*
X105116936Y-65065088D02*
G01*
X105134577Y-65116555D01*
X105149774Y-65156433D01*
X105159375Y-65176474D01*
X105159666Y-65176822D01*
X105169199Y-65169194D01*
X105185982Y-65139349D01*
X105206893Y-65093095D01*
X105213846Y-65076031D01*
X105258247Y-64964359D01*
X105373527Y-64964297D01*
X105420689Y-64965914D01*
X105483326Y-64970327D01*
X105555107Y-64976819D01*
X105629697Y-64984672D01*
X105700765Y-64993168D01*
X105761978Y-65001591D01*
X105807003Y-65009221D01*
X105829508Y-65015343D01*
X105830541Y-65016078D01*
X105834977Y-65032052D01*
X105842522Y-65070302D01*
X105851781Y-65123563D01*
X105854862Y-65142497D01*
X105864669Y-65199417D01*
X105873655Y-65244013D01*
X105880272Y-65268824D01*
X105881600Y-65271333D01*
X105892997Y-65264221D01*
X105914316Y-65238107D01*
X105930331Y-65214803D01*
X105963264Y-65165595D01*
X105996749Y-65117772D01*
X106007252Y-65103401D01*
X106042715Y-65055801D01*
X106151010Y-65085281D01*
X106212341Y-65102865D01*
X106290123Y-65126431D01*
X106372516Y-65152348D01*
X106421831Y-65168369D01*
X106584356Y-65221977D01*
X106577195Y-65370676D01*
X106570035Y-65519375D01*
X106678452Y-65411682D01*
X106786869Y-65303988D01*
X106971323Y-65400540D01*
X107058064Y-65447031D01*
X107143644Y-65494858D01*
X107224291Y-65541701D01*
X107296230Y-65585240D01*
X107355687Y-65623154D01*
X107398888Y-65653125D01*
X107422060Y-65672832D01*
X107424506Y-65679132D01*
X107406725Y-65688534D01*
X107369302Y-65704138D01*
X107327017Y-65720106D01*
X107203370Y-65775014D01*
X107087996Y-65848610D01*
X106973697Y-65945618D01*
X106953329Y-65965294D01*
X106892906Y-66028052D01*
X106841243Y-66090506D01*
X106794281Y-66158893D01*
X106747963Y-66239450D01*
X106698231Y-66338412D01*
X106666519Y-66406058D01*
X106632589Y-66479289D01*
X106591047Y-66568257D01*
X106547152Y-66661733D01*
X106506164Y-66748486D01*
X106506128Y-66748563D01*
X106414533Y-66941655D01*
X106387466Y-66897974D01*
X106328895Y-66827019D01*
X106250427Y-66772832D01*
X106149624Y-66734102D01*
X106041070Y-66711848D01*
X105918982Y-66703240D01*
X105781085Y-66708581D01*
X105637288Y-66726602D01*
X105497498Y-66756035D01*
X105371625Y-66795613D01*
X105364188Y-66798495D01*
X105291483Y-66827054D01*
X105506453Y-66837112D01*
X105592059Y-66842259D01*
X105674822Y-66849254D01*
X105746327Y-66857257D01*
X105798157Y-66865423D01*
X105805803Y-66867091D01*
X105915168Y-66904293D01*
X106002203Y-66958271D01*
X106065487Y-67027619D01*
X106103601Y-67110925D01*
X106114310Y-67173295D01*
X106108570Y-67263102D01*
X106081042Y-67366438D01*
X106033979Y-67479084D01*
X105969635Y-67596821D01*
X105890264Y-67715430D01*
X105798119Y-67830694D01*
X105716627Y-67917754D01*
X105578105Y-68043887D01*
X105418130Y-68169924D01*
X105244620Y-68290267D01*
X105065492Y-68399316D01*
X104942747Y-68465052D01*
X104796158Y-68551657D01*
X104651376Y-68660978D01*
X104515800Y-68786378D01*
X104396830Y-68921219D01*
X104328349Y-69016206D01*
X104298000Y-69066575D01*
X104263993Y-69129147D01*
X104229359Y-69197543D01*
X104197126Y-69265387D01*
X104170323Y-69326300D01*
X104151981Y-69373905D01*
X104145129Y-69401823D01*
X104145129Y-69401930D01*
X104131437Y-69425848D01*
X104093985Y-69454015D01*
X104038212Y-69484320D01*
X103969555Y-69514649D01*
X103893452Y-69542890D01*
X103815342Y-69566930D01*
X103740661Y-69584657D01*
X103674849Y-69593959D01*
X103648611Y-69594820D01*
X103599354Y-69592746D01*
X103560452Y-69588753D01*
X103547482Y-69585977D01*
X103522289Y-69575453D01*
X103480844Y-69556356D01*
X103446629Y-69539890D01*
X103398781Y-69513240D01*
X103374395Y-69490191D01*
X103368188Y-69468394D01*
X103374425Y-69442619D01*
X103391429Y-69396510D01*
X103416643Y-69336477D01*
X103447508Y-69268934D01*
X103449192Y-69265395D01*
X103455979Y-69251067D01*
X103631813Y-69251067D01*
X103632352Y-69287316D01*
X103634123Y-69338838D01*
X103634574Y-69349435D01*
X103637656Y-69403002D01*
X103641332Y-69442635D01*
X103644892Y-69461035D01*
X103645476Y-69461529D01*
X103655168Y-69449510D01*
X103672838Y-69419077D01*
X103682542Y-69400610D01*
X103713620Y-69339690D01*
X103674614Y-69288551D01*
X103650222Y-69257377D01*
X103634844Y-69239244D01*
X103632633Y-69237377D01*
X103631813Y-69251067D01*
X103455979Y-69251067D01*
X103473696Y-69213671D01*
X103508887Y-69138932D01*
X103552855Y-69045260D01*
X103603688Y-68936736D01*
X103659474Y-68817442D01*
X103718302Y-68691459D01*
X103778260Y-68562868D01*
X103791160Y-68535176D01*
X103849034Y-68410993D01*
X103915914Y-68267611D01*
X103990091Y-68108686D01*
X104069855Y-67937874D01*
X104153496Y-67758832D01*
X104239306Y-67575215D01*
X104325575Y-67390681D01*
X104361096Y-67314725D01*
X104678560Y-67314725D01*
X104683286Y-67316576D01*
X104686744Y-67314294D01*
X104706263Y-67299227D01*
X104743054Y-67270738D01*
X104790787Y-67233730D01*
X104817482Y-67213019D01*
X104867174Y-67174379D01*
X104907963Y-67142519D01*
X104934057Y-67121971D01*
X104940005Y-67117169D01*
X104940870Y-67099750D01*
X104934052Y-67061105D01*
X104920943Y-67008480D01*
X104915320Y-66988759D01*
X104880172Y-66869235D01*
X104797563Y-67042809D01*
X104751310Y-67140628D01*
X104717314Y-67214205D01*
X104694544Y-67266064D01*
X104681969Y-67298729D01*
X104678560Y-67314725D01*
X104361096Y-67314725D01*
X104410592Y-67208886D01*
X104492649Y-67033486D01*
X104570036Y-66868137D01*
X104641044Y-66716496D01*
X104703963Y-66582219D01*
X104757083Y-66468963D01*
X104785847Y-66407712D01*
X104815525Y-66343130D01*
X104839711Y-66287772D01*
X104855908Y-66247549D01*
X104861618Y-66228418D01*
X104850020Y-66216373D01*
X104816926Y-66187787D01*
X104764487Y-66144389D01*
X104694856Y-66087907D01*
X104610184Y-66020069D01*
X104512622Y-65942602D01*
X104404324Y-65857235D01*
X104287439Y-65765696D01*
X104250090Y-65736586D01*
X105400409Y-65736586D01*
X105404502Y-65793152D01*
X105415005Y-65861512D01*
X105429682Y-65930914D01*
X105446302Y-65990605D01*
X105460577Y-66026225D01*
X105478226Y-66052908D01*
X105487402Y-66054057D01*
X105487542Y-66032951D01*
X105478085Y-65992872D01*
X105470378Y-65969029D01*
X105458232Y-65921747D01*
X105448386Y-65860743D01*
X105441318Y-65793516D01*
X105437504Y-65727566D01*
X105437422Y-65670394D01*
X105441551Y-65629499D01*
X105447765Y-65613952D01*
X105466318Y-65614823D01*
X105498538Y-65634840D01*
X105539522Y-65669737D01*
X105584368Y-65715248D01*
X105628175Y-65767106D01*
X105636877Y-65778529D01*
X105670239Y-65820995D01*
X105688105Y-65838798D01*
X105690509Y-65832803D01*
X105677489Y-65803875D01*
X105649081Y-65752880D01*
X105634786Y-65728775D01*
X105602842Y-65681151D01*
X105564411Y-65631925D01*
X105524415Y-65586412D01*
X105487779Y-65549928D01*
X105459427Y-65527788D01*
X105445391Y-65524294D01*
X105432686Y-65545184D01*
X105419977Y-65586993D01*
X105409151Y-65640817D01*
X105402094Y-65697752D01*
X105400409Y-65736586D01*
X104250090Y-65736586D01*
X104219147Y-65712469D01*
X104098485Y-65618403D01*
X103985217Y-65529752D01*
X103881490Y-65448217D01*
X103789450Y-65375504D01*
X103711242Y-65313315D01*
X103649011Y-65263353D01*
X103604902Y-65227321D01*
X103581062Y-65206924D01*
X103577364Y-65202956D01*
X103591118Y-65194317D01*
X103629221Y-65180093D01*
X103686939Y-65161554D01*
X103759533Y-65139969D01*
X103842270Y-65116607D01*
X103930412Y-65092736D01*
X104019224Y-65069626D01*
X104103969Y-65048545D01*
X104179911Y-65030763D01*
X104242315Y-65017548D01*
X104286443Y-65010169D01*
X104301047Y-65009058D01*
X104310788Y-65021121D01*
X104331321Y-65053331D01*
X104358908Y-65099721D01*
X104371206Y-65121127D01*
X104400836Y-65170054D01*
X104425747Y-65205416D01*
X104442065Y-65221952D01*
X104445460Y-65221980D01*
X104453459Y-65202894D01*
X104465145Y-65162505D01*
X104478256Y-65108792D01*
X104480916Y-65096853D01*
X104505879Y-64982941D01*
X104574119Y-64973588D01*
X104613916Y-64970200D01*
X104676016Y-64967359D01*
X104752842Y-64965310D01*
X104836814Y-64964299D01*
X104863173Y-64964235D01*
X105083987Y-64964235D01*
X105116936Y-65065088D01*
X105116936Y-65065088D01*
G37*
X105116936Y-65065088D02*
X105134577Y-65116555D01*
X105149774Y-65156433D01*
X105159375Y-65176474D01*
X105159666Y-65176822D01*
X105169199Y-65169194D01*
X105185982Y-65139349D01*
X105206893Y-65093095D01*
X105213846Y-65076031D01*
X105258247Y-64964359D01*
X105373527Y-64964297D01*
X105420689Y-64965914D01*
X105483326Y-64970327D01*
X105555107Y-64976819D01*
X105629697Y-64984672D01*
X105700765Y-64993168D01*
X105761978Y-65001591D01*
X105807003Y-65009221D01*
X105829508Y-65015343D01*
X105830541Y-65016078D01*
X105834977Y-65032052D01*
X105842522Y-65070302D01*
X105851781Y-65123563D01*
X105854862Y-65142497D01*
X105864669Y-65199417D01*
X105873655Y-65244013D01*
X105880272Y-65268824D01*
X105881600Y-65271333D01*
X105892997Y-65264221D01*
X105914316Y-65238107D01*
X105930331Y-65214803D01*
X105963264Y-65165595D01*
X105996749Y-65117772D01*
X106007252Y-65103401D01*
X106042715Y-65055801D01*
X106151010Y-65085281D01*
X106212341Y-65102865D01*
X106290123Y-65126431D01*
X106372516Y-65152348D01*
X106421831Y-65168369D01*
X106584356Y-65221977D01*
X106577195Y-65370676D01*
X106570035Y-65519375D01*
X106678452Y-65411682D01*
X106786869Y-65303988D01*
X106971323Y-65400540D01*
X107058064Y-65447031D01*
X107143644Y-65494858D01*
X107224291Y-65541701D01*
X107296230Y-65585240D01*
X107355687Y-65623154D01*
X107398888Y-65653125D01*
X107422060Y-65672832D01*
X107424506Y-65679132D01*
X107406725Y-65688534D01*
X107369302Y-65704138D01*
X107327017Y-65720106D01*
X107203370Y-65775014D01*
X107087996Y-65848610D01*
X106973697Y-65945618D01*
X106953329Y-65965294D01*
X106892906Y-66028052D01*
X106841243Y-66090506D01*
X106794281Y-66158893D01*
X106747963Y-66239450D01*
X106698231Y-66338412D01*
X106666519Y-66406058D01*
X106632589Y-66479289D01*
X106591047Y-66568257D01*
X106547152Y-66661733D01*
X106506164Y-66748486D01*
X106506128Y-66748563D01*
X106414533Y-66941655D01*
X106387466Y-66897974D01*
X106328895Y-66827019D01*
X106250427Y-66772832D01*
X106149624Y-66734102D01*
X106041070Y-66711848D01*
X105918982Y-66703240D01*
X105781085Y-66708581D01*
X105637288Y-66726602D01*
X105497498Y-66756035D01*
X105371625Y-66795613D01*
X105364188Y-66798495D01*
X105291483Y-66827054D01*
X105506453Y-66837112D01*
X105592059Y-66842259D01*
X105674822Y-66849254D01*
X105746327Y-66857257D01*
X105798157Y-66865423D01*
X105805803Y-66867091D01*
X105915168Y-66904293D01*
X106002203Y-66958271D01*
X106065487Y-67027619D01*
X106103601Y-67110925D01*
X106114310Y-67173295D01*
X106108570Y-67263102D01*
X106081042Y-67366438D01*
X106033979Y-67479084D01*
X105969635Y-67596821D01*
X105890264Y-67715430D01*
X105798119Y-67830694D01*
X105716627Y-67917754D01*
X105578105Y-68043887D01*
X105418130Y-68169924D01*
X105244620Y-68290267D01*
X105065492Y-68399316D01*
X104942747Y-68465052D01*
X104796158Y-68551657D01*
X104651376Y-68660978D01*
X104515800Y-68786378D01*
X104396830Y-68921219D01*
X104328349Y-69016206D01*
X104298000Y-69066575D01*
X104263993Y-69129147D01*
X104229359Y-69197543D01*
X104197126Y-69265387D01*
X104170323Y-69326300D01*
X104151981Y-69373905D01*
X104145129Y-69401823D01*
X104145129Y-69401930D01*
X104131437Y-69425848D01*
X104093985Y-69454015D01*
X104038212Y-69484320D01*
X103969555Y-69514649D01*
X103893452Y-69542890D01*
X103815342Y-69566930D01*
X103740661Y-69584657D01*
X103674849Y-69593959D01*
X103648611Y-69594820D01*
X103599354Y-69592746D01*
X103560452Y-69588753D01*
X103547482Y-69585977D01*
X103522289Y-69575453D01*
X103480844Y-69556356D01*
X103446629Y-69539890D01*
X103398781Y-69513240D01*
X103374395Y-69490191D01*
X103368188Y-69468394D01*
X103374425Y-69442619D01*
X103391429Y-69396510D01*
X103416643Y-69336477D01*
X103447508Y-69268934D01*
X103449192Y-69265395D01*
X103455979Y-69251067D01*
X103631813Y-69251067D01*
X103632352Y-69287316D01*
X103634123Y-69338838D01*
X103634574Y-69349435D01*
X103637656Y-69403002D01*
X103641332Y-69442635D01*
X103644892Y-69461035D01*
X103645476Y-69461529D01*
X103655168Y-69449510D01*
X103672838Y-69419077D01*
X103682542Y-69400610D01*
X103713620Y-69339690D01*
X103674614Y-69288551D01*
X103650222Y-69257377D01*
X103634844Y-69239244D01*
X103632633Y-69237377D01*
X103631813Y-69251067D01*
X103455979Y-69251067D01*
X103473696Y-69213671D01*
X103508887Y-69138932D01*
X103552855Y-69045260D01*
X103603688Y-68936736D01*
X103659474Y-68817442D01*
X103718302Y-68691459D01*
X103778260Y-68562868D01*
X103791160Y-68535176D01*
X103849034Y-68410993D01*
X103915914Y-68267611D01*
X103990091Y-68108686D01*
X104069855Y-67937874D01*
X104153496Y-67758832D01*
X104239306Y-67575215D01*
X104325575Y-67390681D01*
X104361096Y-67314725D01*
X104678560Y-67314725D01*
X104683286Y-67316576D01*
X104686744Y-67314294D01*
X104706263Y-67299227D01*
X104743054Y-67270738D01*
X104790787Y-67233730D01*
X104817482Y-67213019D01*
X104867174Y-67174379D01*
X104907963Y-67142519D01*
X104934057Y-67121971D01*
X104940005Y-67117169D01*
X104940870Y-67099750D01*
X104934052Y-67061105D01*
X104920943Y-67008480D01*
X104915320Y-66988759D01*
X104880172Y-66869235D01*
X104797563Y-67042809D01*
X104751310Y-67140628D01*
X104717314Y-67214205D01*
X104694544Y-67266064D01*
X104681969Y-67298729D01*
X104678560Y-67314725D01*
X104361096Y-67314725D01*
X104410592Y-67208886D01*
X104492649Y-67033486D01*
X104570036Y-66868137D01*
X104641044Y-66716496D01*
X104703963Y-66582219D01*
X104757083Y-66468963D01*
X104785847Y-66407712D01*
X104815525Y-66343130D01*
X104839711Y-66287772D01*
X104855908Y-66247549D01*
X104861618Y-66228418D01*
X104850020Y-66216373D01*
X104816926Y-66187787D01*
X104764487Y-66144389D01*
X104694856Y-66087907D01*
X104610184Y-66020069D01*
X104512622Y-65942602D01*
X104404324Y-65857235D01*
X104287439Y-65765696D01*
X104250090Y-65736586D01*
X105400409Y-65736586D01*
X105404502Y-65793152D01*
X105415005Y-65861512D01*
X105429682Y-65930914D01*
X105446302Y-65990605D01*
X105460577Y-66026225D01*
X105478226Y-66052908D01*
X105487402Y-66054057D01*
X105487542Y-66032951D01*
X105478085Y-65992872D01*
X105470378Y-65969029D01*
X105458232Y-65921747D01*
X105448386Y-65860743D01*
X105441318Y-65793516D01*
X105437504Y-65727566D01*
X105437422Y-65670394D01*
X105441551Y-65629499D01*
X105447765Y-65613952D01*
X105466318Y-65614823D01*
X105498538Y-65634840D01*
X105539522Y-65669737D01*
X105584368Y-65715248D01*
X105628175Y-65767106D01*
X105636877Y-65778529D01*
X105670239Y-65820995D01*
X105688105Y-65838798D01*
X105690509Y-65832803D01*
X105677489Y-65803875D01*
X105649081Y-65752880D01*
X105634786Y-65728775D01*
X105602842Y-65681151D01*
X105564411Y-65631925D01*
X105524415Y-65586412D01*
X105487779Y-65549928D01*
X105459427Y-65527788D01*
X105445391Y-65524294D01*
X105432686Y-65545184D01*
X105419977Y-65586993D01*
X105409151Y-65640817D01*
X105402094Y-65697752D01*
X105400409Y-65736586D01*
X104250090Y-65736586D01*
X104219147Y-65712469D01*
X104098485Y-65618403D01*
X103985217Y-65529752D01*
X103881490Y-65448217D01*
X103789450Y-65375504D01*
X103711242Y-65313315D01*
X103649011Y-65263353D01*
X103604902Y-65227321D01*
X103581062Y-65206924D01*
X103577364Y-65202956D01*
X103591118Y-65194317D01*
X103629221Y-65180093D01*
X103686939Y-65161554D01*
X103759533Y-65139969D01*
X103842270Y-65116607D01*
X103930412Y-65092736D01*
X104019224Y-65069626D01*
X104103969Y-65048545D01*
X104179911Y-65030763D01*
X104242315Y-65017548D01*
X104286443Y-65010169D01*
X104301047Y-65009058D01*
X104310788Y-65021121D01*
X104331321Y-65053331D01*
X104358908Y-65099721D01*
X104371206Y-65121127D01*
X104400836Y-65170054D01*
X104425747Y-65205416D01*
X104442065Y-65221952D01*
X104445460Y-65221980D01*
X104453459Y-65202894D01*
X104465145Y-65162505D01*
X104478256Y-65108792D01*
X104480916Y-65096853D01*
X104505879Y-64982941D01*
X104574119Y-64973588D01*
X104613916Y-64970200D01*
X104676016Y-64967359D01*
X104752842Y-64965310D01*
X104836814Y-64964299D01*
X104863173Y-64964235D01*
X105083987Y-64964235D01*
X105116936Y-65065088D01*
D10*
X105773400Y-85795800D02*
X104398400Y-85795800D01*
X105773400Y-94670800D02*
X109923400Y-94670800D01*
X105773400Y-85770800D02*
X109923400Y-85770800D01*
X105773400Y-94670800D02*
X105773400Y-94555800D01*
X109923400Y-94670800D02*
X109923400Y-94555800D01*
X109923400Y-85770800D02*
X109923400Y-85885800D01*
X105773400Y-85770800D02*
X105773400Y-85795800D01*
D12*
X151493200Y-61976000D02*
G75*
G03X151493200Y-61976000I-1900000J0D01*
G01*
X150820200Y-109778800D02*
G75*
G03X150820200Y-109778800I-1900000J0D01*
G01*
X140203000Y-109626400D02*
G75*
G03X140203000Y-109626400I-1900000J0D01*
G01*
X129293600Y-60452000D02*
G75*
G03X129293600Y-60452000I-1900000J0D01*
G01*
X119387600Y-60452000D02*
G75*
G03X119387600Y-60452000I-1900000J0D01*
G01*
X118337400Y-91746548D02*
X118337400Y-92269052D01*
X116917400Y-91746548D02*
X116917400Y-92269052D01*
X143500852Y-111149200D02*
X142978348Y-111149200D01*
X143500852Y-109729200D02*
X142978348Y-109729200D01*
X150220600Y-81509600D02*
X157120600Y-81509600D01*
X150220600Y-84809600D02*
X157120600Y-84809600D01*
X150220600Y-81509600D02*
X150220600Y-84809600D01*
X112624600Y-93797200D02*
X115924600Y-93797200D01*
X115924600Y-93797200D02*
X115924600Y-86897200D01*
X112624600Y-93797200D02*
X112624600Y-86897200D01*
X112135800Y-109343800D02*
X112135800Y-106483800D01*
X110215800Y-109343800D02*
X112135800Y-109343800D01*
X110215800Y-106483800D02*
X110215800Y-109343800D01*
X143321500Y-100388300D02*
X143321500Y-101318300D01*
X143321500Y-103548300D02*
X143321500Y-102618300D01*
X143321500Y-103548300D02*
X145481500Y-103548300D01*
X143321500Y-100388300D02*
X144781500Y-100388300D01*
X121076600Y-109352800D02*
X121076600Y-106492800D01*
X119156600Y-109352800D02*
X121076600Y-109352800D01*
X119156600Y-106492800D02*
X119156600Y-109352800D01*
X116210200Y-106492800D02*
X116210200Y-109352800D01*
X116210200Y-109352800D02*
X118130200Y-109352800D01*
X118130200Y-109352800D02*
X118130200Y-106492800D01*
X113263800Y-106492800D02*
X113263800Y-109352800D01*
X113263800Y-109352800D02*
X115183800Y-109352800D01*
X115183800Y-109352800D02*
X115183800Y-106492800D01*
X158963600Y-95073000D02*
X158963600Y-85963000D01*
X158963600Y-85963000D02*
X149143600Y-85963000D01*
X149143600Y-85963000D02*
X149143600Y-93263000D01*
X149143600Y-93263000D02*
X147743600Y-93263000D01*
X147743600Y-93263000D02*
X147743600Y-95073000D01*
X158963600Y-95073000D02*
X158963600Y-104183000D01*
X158963600Y-104183000D02*
X149143600Y-104183000D01*
X149143600Y-104183000D02*
X149143600Y-96883000D01*
X149143600Y-96883000D02*
X147743600Y-96883000D01*
X147743600Y-96883000D02*
X147743600Y-95073000D01*
X159203600Y-88573000D02*
X159203600Y-85723000D01*
X159203600Y-85723000D02*
X156353600Y-85723000D01*
X158963600Y-69342000D02*
X158963600Y-66532000D01*
X158963600Y-66532000D02*
X149143600Y-66532000D01*
X149143600Y-66532000D02*
X149143600Y-67532000D01*
X149143600Y-67532000D02*
X147743600Y-67532000D01*
X147743600Y-67532000D02*
X147743600Y-69342000D01*
X158963600Y-69342000D02*
X158963600Y-72152000D01*
X158963600Y-72152000D02*
X149143600Y-72152000D01*
X149143600Y-72152000D02*
X149143600Y-71152000D01*
X149143600Y-71152000D02*
X147743600Y-71152000D01*
X147743600Y-71152000D02*
X147743600Y-69342000D01*
X159203600Y-69142000D02*
X159203600Y-66292000D01*
X159203600Y-66292000D02*
X156353600Y-66292000D01*
X141843000Y-102696000D02*
G75*
G02X141143000Y-103396000I-700000J0D01*
G01*
X140543000Y-103396000D02*
G75*
G02X139843000Y-102696000I0J700000D01*
G01*
X139843000Y-101296000D02*
G75*
G02X140543000Y-100596000I700000J0D01*
G01*
X141143000Y-100596000D02*
G75*
G02X141843000Y-101296000I0J-700000D01*
G01*
X140543000Y-100596000D02*
X141143000Y-100596000D01*
X139843000Y-102696000D02*
X139843000Y-101296000D01*
X141143000Y-103396000D02*
X140543000Y-103396000D01*
X141843000Y-101296000D02*
X141843000Y-102696000D01*
X137041200Y-61983536D02*
X137041200Y-63187664D01*
X135221200Y-61983536D02*
X135221200Y-63187664D01*
X139479600Y-61983536D02*
X139479600Y-63187664D01*
X137659600Y-61983536D02*
X137659600Y-63187664D01*
X141867200Y-61932736D02*
X141867200Y-63136864D01*
X140047200Y-61932736D02*
X140047200Y-63136864D01*
X131314436Y-63453600D02*
X132518564Y-63453600D01*
X131314436Y-65273600D02*
X132518564Y-65273600D01*
X131350936Y-75433600D02*
X132555064Y-75433600D01*
X131350936Y-73613600D02*
X132555064Y-73613600D01*
X125661336Y-65273600D02*
X126865464Y-65273600D01*
X125661336Y-63453600D02*
X126865464Y-63453600D01*
X126916264Y-75433600D02*
X125712136Y-75433600D01*
X126916264Y-73613600D02*
X125712136Y-73613600D01*
X144305600Y-61932736D02*
X144305600Y-63136864D01*
X142485600Y-61932736D02*
X142485600Y-63136864D01*
X146794800Y-61932736D02*
X146794800Y-63136864D01*
X144974800Y-61932736D02*
X144974800Y-63136864D01*
X110748400Y-76917964D02*
X110748400Y-75713836D01*
X112568400Y-76917964D02*
X112568400Y-75713836D01*
X110130000Y-76917964D02*
X110130000Y-75713836D01*
X108310000Y-76917964D02*
X108310000Y-75713836D01*
X105922400Y-76954464D02*
X105922400Y-75750336D01*
X107742400Y-76954464D02*
X107742400Y-75750336D01*
X105304000Y-76940164D02*
X105304000Y-75736036D01*
X103484000Y-76940164D02*
X103484000Y-75736036D01*
X112568400Y-80830336D02*
X112568400Y-82034464D01*
X110748400Y-80830336D02*
X110748400Y-82034464D01*
X107742400Y-80816036D02*
X107742400Y-82020164D01*
X105922400Y-80816036D02*
X105922400Y-82020164D01*
X108310000Y-80830336D02*
X108310000Y-82034464D01*
X110130000Y-80830336D02*
X110130000Y-82034464D01*
X103484000Y-80830336D02*
X103484000Y-82034464D01*
X105304000Y-80830336D02*
X105304000Y-82034464D01*
X117872164Y-82148000D02*
X116668036Y-82148000D01*
X117872164Y-83968000D02*
X116668036Y-83968000D01*
X116669736Y-71429200D02*
X117873864Y-71429200D01*
X116669736Y-73249200D02*
X117873864Y-73249200D01*
X142309436Y-89552100D02*
X143513564Y-89552100D01*
X142309436Y-91372100D02*
X143513564Y-91372100D01*
X138397064Y-89552100D02*
X137192936Y-89552100D01*
X138397064Y-91372100D02*
X137192936Y-91372100D01*
X116615800Y-87927264D02*
X116615800Y-86723136D01*
X118435800Y-87927264D02*
X118435800Y-86723136D01*
X116183164Y-94441600D02*
X114979036Y-94441600D01*
X116183164Y-96261600D02*
X114979036Y-96261600D01*
X119105000Y-87941564D02*
X119105000Y-86737436D01*
X120925000Y-87941564D02*
X120925000Y-86737436D01*
X119105000Y-91803136D02*
X119105000Y-93007264D01*
X120925000Y-91803136D02*
X120925000Y-93007264D01*
X138397064Y-92092100D02*
X137192936Y-92092100D01*
X138397064Y-93912100D02*
X137192936Y-93912100D01*
X142766636Y-104754000D02*
X143970764Y-104754000D01*
X142766636Y-106574000D02*
X143970764Y-106574000D01*
X143970764Y-107243200D02*
X142766636Y-107243200D01*
X143970764Y-109063200D02*
X142766636Y-109063200D01*
X126190764Y-81224800D02*
X124986636Y-81224800D01*
X126190764Y-79404800D02*
X124986636Y-79404800D01*
X124986636Y-84383200D02*
X126190764Y-84383200D01*
X124986636Y-86203200D02*
X126190764Y-86203200D01*
X126205064Y-83714000D02*
X125000936Y-83714000D01*
X126205064Y-81894000D02*
X125000936Y-81894000D01*
X126168564Y-86872400D02*
X124964436Y-86872400D01*
X126168564Y-88692400D02*
X124964436Y-88692400D01*
X126168564Y-89361600D02*
X124964436Y-89361600D01*
X126168564Y-91181600D02*
X124964436Y-91181600D01*
X130792136Y-81792400D02*
X131996264Y-81792400D01*
X130792136Y-83612400D02*
X131996264Y-83612400D01*
X131996264Y-91952400D02*
X130792136Y-91952400D01*
X131996264Y-93772400D02*
X130792136Y-93772400D01*
X126205064Y-91800000D02*
X125000936Y-91800000D01*
X126205064Y-93620000D02*
X125000936Y-93620000D01*
X132579600Y-109263264D02*
X132579600Y-108059136D01*
X134399600Y-109263264D02*
X134399600Y-108059136D01*
X141507800Y-79545264D02*
X141507800Y-78341136D01*
X143327800Y-79545264D02*
X143327800Y-78341136D01*
X139031300Y-79532564D02*
X139031300Y-78328436D01*
X140851300Y-79532564D02*
X140851300Y-78328436D01*
X143149136Y-76094000D02*
X144353264Y-76094000D01*
X143149136Y-74274000D02*
X144353264Y-74274000D01*
X139222464Y-76094000D02*
X138018336Y-76094000D01*
X139222464Y-74274000D02*
X138018336Y-74274000D01*
X145817000Y-78303036D02*
X145817000Y-79507164D01*
X143997000Y-78303036D02*
X143997000Y-79507164D01*
X136504000Y-78330036D02*
X136504000Y-79534164D01*
X138324000Y-78330036D02*
X138324000Y-79534164D01*
X124603000Y-107022000D02*
X124603000Y-111522000D01*
X128603000Y-105772000D02*
X127103000Y-105772000D01*
X131103000Y-111522000D02*
X131103000Y-107022000D01*
X127103000Y-112772000D02*
X128603000Y-112772000D01*
D10*
X134478000Y-67368600D02*
X134478000Y-65968600D01*
X129378000Y-67368600D02*
X129378000Y-71518600D01*
X134528000Y-67368600D02*
X134528000Y-71518600D01*
X129378000Y-67368600D02*
X129523000Y-67368600D01*
X129378000Y-71518600D02*
X129523000Y-71518600D01*
X134528000Y-71518600D02*
X134383000Y-71518600D01*
X134528000Y-67368600D02*
X134478000Y-67368600D01*
X128787600Y-67368600D02*
X128737600Y-67368600D01*
X128787600Y-71518600D02*
X128642600Y-71518600D01*
X123637600Y-71518600D02*
X123782600Y-71518600D01*
X123637600Y-67368600D02*
X123782600Y-67368600D01*
X128787600Y-67368600D02*
X128787600Y-71518600D01*
X123637600Y-67368600D02*
X123637600Y-71518600D01*
X128737600Y-67368600D02*
X128737600Y-65968600D01*
X105773400Y-95524400D02*
X105773400Y-95549400D01*
X109923400Y-95524400D02*
X109923400Y-95639400D01*
X109923400Y-104424400D02*
X109923400Y-104309400D01*
X105773400Y-104424400D02*
X105773400Y-104309400D01*
X105773400Y-95524400D02*
X109923400Y-95524400D01*
X105773400Y-104424400D02*
X109923400Y-104424400D01*
X105773400Y-95549400D02*
X104398400Y-95549400D01*
D12*
X156595600Y-80219600D02*
X156595600Y-78959600D01*
X156595600Y-73399600D02*
X156595600Y-74659600D01*
X152835600Y-80219600D02*
X156595600Y-80219600D01*
X150585600Y-73399600D02*
X156595600Y-73399600D01*
D10*
X145635900Y-67330500D02*
X145610900Y-67330500D01*
X145635900Y-71480500D02*
X145520900Y-71480500D01*
X136735900Y-71480500D02*
X136850900Y-71480500D01*
X136735900Y-67330500D02*
X136850900Y-67330500D01*
X145635900Y-67330500D02*
X145635900Y-71480500D01*
X136735900Y-67330500D02*
X136735900Y-71480500D01*
X145610900Y-67330500D02*
X145610900Y-65955500D01*
X119897600Y-64879400D02*
X119847600Y-64879400D01*
X119897600Y-69029400D02*
X119752600Y-69029400D01*
X114747600Y-69029400D02*
X114892600Y-69029400D01*
X114747600Y-64879400D02*
X114892600Y-64879400D01*
X119897600Y-64879400D02*
X119897600Y-69029400D01*
X114747600Y-64879400D02*
X114747600Y-69029400D01*
X119847600Y-64879400D02*
X119847600Y-63479400D01*
X119847600Y-75344200D02*
X119847600Y-73944200D01*
X114747600Y-75344200D02*
X114747600Y-79494200D01*
X119897600Y-75344200D02*
X119897600Y-79494200D01*
X114747600Y-75344200D02*
X114892600Y-75344200D01*
X114747600Y-79494200D02*
X114892600Y-79494200D01*
X119897600Y-79494200D02*
X119752600Y-79494200D01*
X119897600Y-75344200D02*
X119847600Y-75344200D01*
X145649000Y-83307100D02*
X145649000Y-81932100D01*
X136774000Y-83307100D02*
X136774000Y-87457100D01*
X145674000Y-83307100D02*
X145674000Y-87457100D01*
X136774000Y-83307100D02*
X136889000Y-83307100D01*
X136774000Y-87457100D02*
X136889000Y-87457100D01*
X145674000Y-87457100D02*
X145559000Y-87457100D01*
X145674000Y-83307100D02*
X145649000Y-83307100D01*
X145704000Y-93530600D02*
X145654000Y-93530600D01*
X145704000Y-97680600D02*
X145559000Y-97680600D01*
X140554000Y-97680600D02*
X140699000Y-97680600D01*
X140554000Y-93530600D02*
X140699000Y-93530600D01*
X145704000Y-93530600D02*
X145704000Y-97680600D01*
X140554000Y-93530600D02*
X140554000Y-97680600D01*
X145654000Y-93530600D02*
X145654000Y-92130600D01*
D12*
X139849500Y-97839100D02*
X139849500Y-95389100D01*
X136629500Y-96039100D02*
X136629500Y-97839100D01*
D10*
X118221200Y-98509000D02*
X118171200Y-98509000D01*
X118221200Y-102659000D02*
X118076200Y-102659000D01*
X113071200Y-102659000D02*
X113216200Y-102659000D01*
X113071200Y-98509000D02*
X113216200Y-98509000D01*
X118221200Y-98509000D02*
X118221200Y-102659000D01*
X113071200Y-98509000D02*
X113071200Y-102659000D01*
X118171200Y-98509000D02*
X118171200Y-97109000D01*
X133868400Y-85707400D02*
X133868400Y-84307400D01*
X128768400Y-85707400D02*
X128768400Y-89857400D01*
X133918400Y-85707400D02*
X133918400Y-89857400D01*
X128768400Y-85707400D02*
X128913400Y-85707400D01*
X128768400Y-89857400D02*
X128913400Y-89857400D01*
X133918400Y-89857400D02*
X133773400Y-89857400D01*
X133918400Y-85707400D02*
X133868400Y-85707400D01*
D12*
X120081400Y-99531600D02*
X120081400Y-101331600D01*
X123301400Y-101331600D02*
X123301400Y-98881600D01*
D10*
X135602400Y-96691400D02*
X135327400Y-96691400D01*
X135602400Y-102241400D02*
X135247400Y-102241400D01*
X125052400Y-102241400D02*
X125407400Y-102241400D01*
X125052400Y-96691400D02*
X125407400Y-96691400D01*
X135602400Y-96691400D02*
X135602400Y-102241400D01*
X125052400Y-96691400D02*
X125052400Y-102241400D01*
X135327400Y-96691400D02*
X135327400Y-95166400D01*
X107073695Y-89622380D02*
X107073695Y-90431904D01*
X107121314Y-90527142D01*
X107168933Y-90574761D01*
X107264171Y-90622380D01*
X107454647Y-90622380D01*
X107549885Y-90574761D01*
X107597504Y-90527142D01*
X107645123Y-90431904D01*
X107645123Y-89622380D01*
X108168933Y-90622380D02*
X108359409Y-90622380D01*
X108454647Y-90574761D01*
X108502266Y-90527142D01*
X108597504Y-90384285D01*
X108645123Y-90193809D01*
X108645123Y-89812857D01*
X108597504Y-89717619D01*
X108549885Y-89670000D01*
X108454647Y-89622380D01*
X108264171Y-89622380D01*
X108168933Y-89670000D01*
X108121314Y-89717619D01*
X108073695Y-89812857D01*
X108073695Y-90050952D01*
X108121314Y-90146190D01*
X108168933Y-90193809D01*
X108264171Y-90241428D01*
X108454647Y-90241428D01*
X108549885Y-90193809D01*
X108597504Y-90146190D01*
X108645123Y-90050952D01*
X148983695Y-64524000D02*
X148888457Y-64476380D01*
X148745600Y-64476380D01*
X148602742Y-64524000D01*
X148507504Y-64619238D01*
X148459885Y-64714476D01*
X148412266Y-64904952D01*
X148412266Y-65047809D01*
X148459885Y-65238285D01*
X148507504Y-65333523D01*
X148602742Y-65428761D01*
X148745600Y-65476380D01*
X148840838Y-65476380D01*
X148983695Y-65428761D01*
X149031314Y-65381142D01*
X149031314Y-65047809D01*
X148840838Y-65047809D01*
X149459885Y-65476380D02*
X149459885Y-64476380D01*
X150031314Y-65476380D01*
X150031314Y-64476380D01*
X150507504Y-65476380D02*
X150507504Y-64476380D01*
X150745600Y-64476380D01*
X150888457Y-64524000D01*
X150983695Y-64619238D01*
X151031314Y-64714476D01*
X151078933Y-64904952D01*
X151078933Y-65047809D01*
X151031314Y-65238285D01*
X150983695Y-65333523D01*
X150888457Y-65428761D01*
X150745600Y-65476380D01*
X150507504Y-65476380D01*
X145459790Y-113450666D02*
X145935980Y-113450666D01*
X145364552Y-113736380D02*
X145697885Y-112736380D01*
X146031219Y-113736380D01*
X146364552Y-113736380D02*
X146364552Y-112736380D01*
X146745504Y-112736380D01*
X146840742Y-112784000D01*
X146888361Y-112831619D01*
X146935980Y-112926857D01*
X146935980Y-113069714D01*
X146888361Y-113164952D01*
X146840742Y-113212571D01*
X146745504Y-113260190D01*
X146364552Y-113260190D01*
X147364552Y-113736380D02*
X147364552Y-112736380D01*
X147745504Y-112736380D01*
X147840742Y-112784000D01*
X147888361Y-112831619D01*
X147935980Y-112926857D01*
X147935980Y-113069714D01*
X147888361Y-113164952D01*
X147840742Y-113212571D01*
X147745504Y-113260190D01*
X147364552Y-113260190D01*
X148316933Y-113688761D02*
X148459790Y-113736380D01*
X148697885Y-113736380D01*
X148793123Y-113688761D01*
X148840742Y-113641142D01*
X148888361Y-113545904D01*
X148888361Y-113450666D01*
X148840742Y-113355428D01*
X148793123Y-113307809D01*
X148697885Y-113260190D01*
X148507409Y-113212571D01*
X148412171Y-113164952D01*
X148364552Y-113117333D01*
X148316933Y-113022095D01*
X148316933Y-112926857D01*
X148364552Y-112831619D01*
X148412171Y-112784000D01*
X148507409Y-112736380D01*
X148745504Y-112736380D01*
X148888361Y-112784000D01*
X149078838Y-113831619D02*
X149840742Y-113831619D01*
X150269314Y-112736380D02*
X150459790Y-112736380D01*
X150555028Y-112784000D01*
X150650266Y-112879238D01*
X150697885Y-113069714D01*
X150697885Y-113403047D01*
X150650266Y-113593523D01*
X150555028Y-113688761D01*
X150459790Y-113736380D01*
X150269314Y-113736380D01*
X150174076Y-113688761D01*
X150078838Y-113593523D01*
X150031219Y-113403047D01*
X150031219Y-113069714D01*
X150078838Y-112879238D01*
X150174076Y-112784000D01*
X150269314Y-112736380D01*
X151126457Y-112736380D02*
X151126457Y-113545904D01*
X151174076Y-113641142D01*
X151221695Y-113688761D01*
X151316933Y-113736380D01*
X151507409Y-113736380D01*
X151602647Y-113688761D01*
X151650266Y-113641142D01*
X151697885Y-113545904D01*
X151697885Y-112736380D01*
X152031219Y-112736380D02*
X152602647Y-112736380D01*
X152316933Y-113736380D02*
X152316933Y-112736380D01*
X135006076Y-113450666D02*
X135482266Y-113450666D01*
X134910838Y-113736380D02*
X135244171Y-112736380D01*
X135577504Y-113736380D01*
X135910838Y-113736380D02*
X135910838Y-112736380D01*
X136291790Y-112736380D01*
X136387028Y-112784000D01*
X136434647Y-112831619D01*
X136482266Y-112926857D01*
X136482266Y-113069714D01*
X136434647Y-113164952D01*
X136387028Y-113212571D01*
X136291790Y-113260190D01*
X135910838Y-113260190D01*
X136910838Y-113736380D02*
X136910838Y-112736380D01*
X137291790Y-112736380D01*
X137387028Y-112784000D01*
X137434647Y-112831619D01*
X137482266Y-112926857D01*
X137482266Y-113069714D01*
X137434647Y-113164952D01*
X137387028Y-113212571D01*
X137291790Y-113260190D01*
X136910838Y-113260190D01*
X137863219Y-113688761D02*
X138006076Y-113736380D01*
X138244171Y-113736380D01*
X138339409Y-113688761D01*
X138387028Y-113641142D01*
X138434647Y-113545904D01*
X138434647Y-113450666D01*
X138387028Y-113355428D01*
X138339409Y-113307809D01*
X138244171Y-113260190D01*
X138053695Y-113212571D01*
X137958457Y-113164952D01*
X137910838Y-113117333D01*
X137863219Y-113022095D01*
X137863219Y-112926857D01*
X137910838Y-112831619D01*
X137958457Y-112784000D01*
X138053695Y-112736380D01*
X138291790Y-112736380D01*
X138434647Y-112784000D01*
X138625123Y-113831619D02*
X139387028Y-113831619D01*
X139577504Y-113688761D02*
X139720361Y-113736380D01*
X139958457Y-113736380D01*
X140053695Y-113688761D01*
X140101314Y-113641142D01*
X140148933Y-113545904D01*
X140148933Y-113450666D01*
X140101314Y-113355428D01*
X140053695Y-113307809D01*
X139958457Y-113260190D01*
X139767980Y-113212571D01*
X139672742Y-113164952D01*
X139625123Y-113117333D01*
X139577504Y-113022095D01*
X139577504Y-112926857D01*
X139625123Y-112831619D01*
X139672742Y-112784000D01*
X139767980Y-112736380D01*
X140006076Y-112736380D01*
X140148933Y-112784000D01*
X140577504Y-113736380D02*
X140577504Y-112736380D01*
X141577504Y-112784000D02*
X141482266Y-112736380D01*
X141339409Y-112736380D01*
X141196552Y-112784000D01*
X141101314Y-112879238D01*
X141053695Y-112974476D01*
X141006076Y-113164952D01*
X141006076Y-113307809D01*
X141053695Y-113498285D01*
X141101314Y-113593523D01*
X141196552Y-113688761D01*
X141339409Y-113736380D01*
X141434647Y-113736380D01*
X141577504Y-113688761D01*
X141625123Y-113641142D01*
X141625123Y-113307809D01*
X141434647Y-113307809D01*
X129719504Y-59904380D02*
X130290933Y-59904380D01*
X130005219Y-60904380D02*
X130005219Y-59904380D01*
X130624266Y-60904380D02*
X130624266Y-59904380D01*
X131005219Y-59904380D01*
X131100457Y-59952000D01*
X131148076Y-59999619D01*
X131195695Y-60094857D01*
X131195695Y-60237714D01*
X131148076Y-60332952D01*
X131100457Y-60380571D01*
X131005219Y-60428190D01*
X130624266Y-60428190D01*
X131576647Y-60856761D02*
X131719504Y-60904380D01*
X131957600Y-60904380D01*
X132052838Y-60856761D01*
X132100457Y-60809142D01*
X132148076Y-60713904D01*
X132148076Y-60618666D01*
X132100457Y-60523428D01*
X132052838Y-60475809D01*
X131957600Y-60428190D01*
X131767123Y-60380571D01*
X131671885Y-60332952D01*
X131624266Y-60285333D01*
X131576647Y-60190095D01*
X131576647Y-60094857D01*
X131624266Y-59999619D01*
X131671885Y-59952000D01*
X131767123Y-59904380D01*
X132005219Y-59904380D01*
X132148076Y-59952000D01*
X132529028Y-59999619D02*
X132576647Y-59952000D01*
X132671885Y-59904380D01*
X132909980Y-59904380D01*
X133005219Y-59952000D01*
X133052838Y-59999619D01*
X133100457Y-60094857D01*
X133100457Y-60190095D01*
X133052838Y-60332952D01*
X132481409Y-60904380D01*
X133100457Y-60904380D01*
X119813504Y-59777380D02*
X120384933Y-59777380D01*
X120099219Y-60777380D02*
X120099219Y-59777380D01*
X120718266Y-60777380D02*
X120718266Y-59777380D01*
X121099219Y-59777380D01*
X121194457Y-59825000D01*
X121242076Y-59872619D01*
X121289695Y-59967857D01*
X121289695Y-60110714D01*
X121242076Y-60205952D01*
X121194457Y-60253571D01*
X121099219Y-60301190D01*
X120718266Y-60301190D01*
X121670647Y-60729761D02*
X121813504Y-60777380D01*
X122051600Y-60777380D01*
X122146838Y-60729761D01*
X122194457Y-60682142D01*
X122242076Y-60586904D01*
X122242076Y-60491666D01*
X122194457Y-60396428D01*
X122146838Y-60348809D01*
X122051600Y-60301190D01*
X121861123Y-60253571D01*
X121765885Y-60205952D01*
X121718266Y-60158333D01*
X121670647Y-60063095D01*
X121670647Y-59967857D01*
X121718266Y-59872619D01*
X121765885Y-59825000D01*
X121861123Y-59777380D01*
X122099219Y-59777380D01*
X122242076Y-59825000D01*
X123194457Y-60777380D02*
X122623028Y-60777380D01*
X122908742Y-60777380D02*
X122908742Y-59777380D01*
X122813504Y-59920238D01*
X122718266Y-60015476D01*
X122623028Y-60063095D01*
X111589980Y-114355333D02*
X110589980Y-114355333D01*
X110589980Y-113974380D01*
X110637600Y-113879142D01*
X110685219Y-113831523D01*
X110780457Y-113783904D01*
X110923314Y-113783904D01*
X111018552Y-113831523D01*
X111066171Y-113879142D01*
X111113790Y-113974380D01*
X111113790Y-114355333D01*
X111589980Y-113212476D02*
X111542361Y-113307714D01*
X111447123Y-113355333D01*
X110589980Y-113355333D01*
X111589980Y-112402952D02*
X111066171Y-112402952D01*
X110970933Y-112450571D01*
X110923314Y-112545809D01*
X110923314Y-112736285D01*
X110970933Y-112831523D01*
X111542361Y-112402952D02*
X111589980Y-112498190D01*
X111589980Y-112736285D01*
X111542361Y-112831523D01*
X111447123Y-112879142D01*
X111351885Y-112879142D01*
X111256647Y-112831523D01*
X111209028Y-112736285D01*
X111209028Y-112498190D01*
X111161409Y-112402952D01*
X110923314Y-111498190D02*
X111589980Y-111498190D01*
X110923314Y-111926761D02*
X111447123Y-111926761D01*
X111542361Y-111879142D01*
X111589980Y-111783904D01*
X111589980Y-111641047D01*
X111542361Y-111545809D01*
X111494742Y-111498190D01*
X111542361Y-111069619D02*
X111589980Y-110974380D01*
X111589980Y-110783904D01*
X111542361Y-110688666D01*
X111447123Y-110641047D01*
X111399504Y-110641047D01*
X111304266Y-110688666D01*
X111256647Y-110783904D01*
X111256647Y-110926761D01*
X111209028Y-111022000D01*
X111113790Y-111069619D01*
X111066171Y-111069619D01*
X110970933Y-111022000D01*
X110923314Y-110926761D01*
X110923314Y-110783904D01*
X110970933Y-110688666D01*
X120095971Y-112739371D02*
X120143590Y-112596514D01*
X120191209Y-112548895D01*
X120286447Y-112501276D01*
X120429304Y-112501276D01*
X120524542Y-112548895D01*
X120572161Y-112596514D01*
X120619780Y-112691752D01*
X120619780Y-113072704D01*
X119619780Y-113072704D01*
X119619780Y-112739371D01*
X119667400Y-112644133D01*
X119715019Y-112596514D01*
X119810257Y-112548895D01*
X119905495Y-112548895D01*
X120000733Y-112596514D01*
X120048352Y-112644133D01*
X120095971Y-112739371D01*
X120095971Y-113072704D01*
X120619780Y-111501276D02*
X120143590Y-111834609D01*
X120619780Y-112072704D02*
X119619780Y-112072704D01*
X119619780Y-111691752D01*
X119667400Y-111596514D01*
X119715019Y-111548895D01*
X119810257Y-111501276D01*
X119953114Y-111501276D01*
X120048352Y-111548895D01*
X120095971Y-111596514D01*
X120143590Y-111691752D01*
X120143590Y-112072704D01*
X120619780Y-111072704D02*
X119619780Y-111072704D01*
X120619780Y-110501276D02*
X120048352Y-110929847D01*
X119619780Y-110501276D02*
X120191209Y-111072704D01*
X116673380Y-112872685D02*
X116673380Y-112301257D01*
X117673380Y-112586971D02*
X116673380Y-112586971D01*
X116673380Y-111777447D02*
X116673380Y-111586971D01*
X116721000Y-111491733D01*
X116816238Y-111396495D01*
X117006714Y-111348876D01*
X117340047Y-111348876D01*
X117530523Y-111396495D01*
X117625761Y-111491733D01*
X117673380Y-111586971D01*
X117673380Y-111777447D01*
X117625761Y-111872685D01*
X117530523Y-111967923D01*
X117340047Y-112015542D01*
X117006714Y-112015542D01*
X116816238Y-111967923D01*
X116721000Y-111872685D01*
X116673380Y-111777447D01*
X117673380Y-110444114D02*
X117673380Y-110920304D01*
X116673380Y-110920304D01*
X114203171Y-112813980D02*
X114250790Y-112671123D01*
X114298409Y-112623504D01*
X114393647Y-112575885D01*
X114536504Y-112575885D01*
X114631742Y-112623504D01*
X114679361Y-112671123D01*
X114726980Y-112766361D01*
X114726980Y-113147314D01*
X113726980Y-113147314D01*
X113726980Y-112813980D01*
X113774600Y-112718742D01*
X113822219Y-112671123D01*
X113917457Y-112623504D01*
X114012695Y-112623504D01*
X114107933Y-112671123D01*
X114155552Y-112718742D01*
X114203171Y-112813980D01*
X114203171Y-113147314D01*
X114726980Y-112147314D02*
X113726980Y-112147314D01*
X114726980Y-111575885D01*
X113726980Y-111575885D01*
X114726980Y-111099695D02*
X113726980Y-111099695D01*
X113726980Y-110861600D01*
X113774600Y-110718742D01*
X113869838Y-110623504D01*
X113965076Y-110575885D01*
X114155552Y-110528266D01*
X114298409Y-110528266D01*
X114488885Y-110575885D01*
X114584123Y-110623504D01*
X114679361Y-110718742D01*
X114726980Y-110861600D01*
X114726980Y-111099695D01*
X138529980Y-102829333D02*
X139244266Y-102829333D01*
X139387123Y-102876952D01*
X139482361Y-102972190D01*
X139529980Y-103115047D01*
X139529980Y-103210285D01*
X139529980Y-102353142D02*
X138529980Y-102353142D01*
X138529980Y-101972190D01*
X138577600Y-101876952D01*
X138625219Y-101829333D01*
X138720457Y-101781714D01*
X138863314Y-101781714D01*
X138958552Y-101829333D01*
X139006171Y-101876952D01*
X139053790Y-101972190D01*
X139053790Y-102353142D01*
X139529980Y-100829333D02*
X139529980Y-101400761D01*
X139529980Y-101115047D02*
X138529980Y-101115047D01*
X138672838Y-101210285D01*
X138768076Y-101305523D01*
X138815695Y-101400761D01*
X128306361Y-110553333D02*
X128353980Y-110410476D01*
X128353980Y-110172380D01*
X128306361Y-110077142D01*
X128258742Y-110029523D01*
X128163504Y-109981904D01*
X128068266Y-109981904D01*
X127973028Y-110029523D01*
X127925409Y-110077142D01*
X127877790Y-110172380D01*
X127830171Y-110362857D01*
X127782552Y-110458095D01*
X127734933Y-110505714D01*
X127639695Y-110553333D01*
X127544457Y-110553333D01*
X127449219Y-110505714D01*
X127401600Y-110458095D01*
X127353980Y-110362857D01*
X127353980Y-110124761D01*
X127401600Y-109981904D01*
X127353980Y-109648571D02*
X128353980Y-109410476D01*
X127639695Y-109220000D01*
X128353980Y-109029523D01*
X127353980Y-108791428D01*
X128353980Y-107886666D02*
X128353980Y-108458095D01*
X128353980Y-108172380D02*
X127353980Y-108172380D01*
X127496838Y-108267619D01*
X127592076Y-108362857D01*
X127639695Y-108458095D01*
X123331571Y-111748190D02*
X123331571Y-112081523D01*
X123855380Y-112081523D02*
X122855380Y-112081523D01*
X122855380Y-111605333D01*
X123855380Y-111081523D02*
X123807761Y-111176761D01*
X123712523Y-111224380D01*
X122855380Y-111224380D01*
X123188714Y-110843428D02*
X123188714Y-110462476D01*
X122855380Y-110700571D02*
X123712523Y-110700571D01*
X123807761Y-110652952D01*
X123855380Y-110557714D01*
X123855380Y-110462476D01*
X123950619Y-110367238D02*
X123950619Y-109605333D01*
X123855380Y-108795809D02*
X123379190Y-109129142D01*
X123855380Y-109367238D02*
X122855380Y-109367238D01*
X122855380Y-108986285D01*
X122903000Y-108891047D01*
X122950619Y-108843428D01*
X123045857Y-108795809D01*
X123188714Y-108795809D01*
X123283952Y-108843428D01*
X123331571Y-108891047D01*
X123379190Y-108986285D01*
X123379190Y-109367238D01*
X123807761Y-108414857D02*
X123855380Y-108319619D01*
X123855380Y-108129142D01*
X123807761Y-108033904D01*
X123712523Y-107986285D01*
X123664904Y-107986285D01*
X123569666Y-108033904D01*
X123522047Y-108129142D01*
X123522047Y-108272000D01*
X123474428Y-108367238D01*
X123379190Y-108414857D01*
X123331571Y-108414857D01*
X123236333Y-108367238D01*
X123188714Y-108272000D01*
X123188714Y-108129142D01*
X123236333Y-108033904D01*
X123188714Y-107700571D02*
X123188714Y-107319619D01*
X122855380Y-107557714D02*
X123712523Y-107557714D01*
X123807761Y-107510095D01*
X123855380Y-107414857D01*
X123855380Y-107319619D01*
X131417980Y-70205504D02*
X132227504Y-70205504D01*
X132322742Y-70157885D01*
X132370361Y-70110266D01*
X132417980Y-70015028D01*
X132417980Y-69824552D01*
X132370361Y-69729314D01*
X132322742Y-69681695D01*
X132227504Y-69634076D01*
X131417980Y-69634076D01*
X132417980Y-68634076D02*
X132417980Y-69205504D01*
X132417980Y-68919790D02*
X131417980Y-68919790D01*
X131560838Y-69015028D01*
X131656076Y-69110266D01*
X131703695Y-69205504D01*
X125575980Y-70205504D02*
X126385504Y-70205504D01*
X126480742Y-70157885D01*
X126528361Y-70110266D01*
X126575980Y-70015028D01*
X126575980Y-69824552D01*
X126528361Y-69729314D01*
X126480742Y-69681695D01*
X126385504Y-69634076D01*
X125575980Y-69634076D01*
X125671219Y-69205504D02*
X125623600Y-69157885D01*
X125575980Y-69062647D01*
X125575980Y-68824552D01*
X125623600Y-68729314D01*
X125671219Y-68681695D01*
X125766457Y-68634076D01*
X125861695Y-68634076D01*
X126004552Y-68681695D01*
X126575980Y-69253123D01*
X126575980Y-68634076D01*
X107086495Y-99528380D02*
X107086495Y-100337904D01*
X107134114Y-100433142D01*
X107181733Y-100480761D01*
X107276971Y-100528380D01*
X107467447Y-100528380D01*
X107562685Y-100480761D01*
X107610304Y-100433142D01*
X107657923Y-100337904D01*
X107657923Y-99528380D01*
X108038876Y-99528380D02*
X108657923Y-99528380D01*
X108324590Y-99909333D01*
X108467447Y-99909333D01*
X108562685Y-99956952D01*
X108610304Y-100004571D01*
X108657923Y-100099809D01*
X108657923Y-100337904D01*
X108610304Y-100433142D01*
X108562685Y-100480761D01*
X108467447Y-100528380D01*
X108181733Y-100528380D01*
X108086495Y-100480761D01*
X108038876Y-100433142D01*
X154137980Y-77723904D02*
X154947504Y-77723904D01*
X155042742Y-77676285D01*
X155090361Y-77628666D01*
X155137980Y-77533428D01*
X155137980Y-77342952D01*
X155090361Y-77247714D01*
X155042742Y-77200095D01*
X154947504Y-77152476D01*
X154137980Y-77152476D01*
X154471314Y-76247714D02*
X155137980Y-76247714D01*
X154090361Y-76485809D02*
X154804647Y-76723904D01*
X154804647Y-76104857D01*
X140561980Y-70167404D02*
X141371504Y-70167404D01*
X141466742Y-70119785D01*
X141514361Y-70072166D01*
X141561980Y-69976928D01*
X141561980Y-69786452D01*
X141514361Y-69691214D01*
X141466742Y-69643595D01*
X141371504Y-69595976D01*
X140561980Y-69595976D01*
X140561980Y-68643595D02*
X140561980Y-69119785D01*
X141038171Y-69167404D01*
X140990552Y-69119785D01*
X140942933Y-69024547D01*
X140942933Y-68786452D01*
X140990552Y-68691214D01*
X141038171Y-68643595D01*
X141133409Y-68595976D01*
X141371504Y-68595976D01*
X141466742Y-68643595D01*
X141514361Y-68691214D01*
X141561980Y-68786452D01*
X141561980Y-69024547D01*
X141514361Y-69119785D01*
X141466742Y-69167404D01*
X116939980Y-67716304D02*
X117749504Y-67716304D01*
X117844742Y-67668685D01*
X117892361Y-67621066D01*
X117939980Y-67525828D01*
X117939980Y-67335352D01*
X117892361Y-67240114D01*
X117844742Y-67192495D01*
X117749504Y-67144876D01*
X116939980Y-67144876D01*
X116939980Y-66240114D02*
X116939980Y-66430590D01*
X116987600Y-66525828D01*
X117035219Y-66573447D01*
X117178076Y-66668685D01*
X117368552Y-66716304D01*
X117749504Y-66716304D01*
X117844742Y-66668685D01*
X117892361Y-66621066D01*
X117939980Y-66525828D01*
X117939980Y-66335352D01*
X117892361Y-66240114D01*
X117844742Y-66192495D01*
X117749504Y-66144876D01*
X117511409Y-66144876D01*
X117416171Y-66192495D01*
X117368552Y-66240114D01*
X117320933Y-66335352D01*
X117320933Y-66525828D01*
X117368552Y-66621066D01*
X117416171Y-66668685D01*
X117511409Y-66716304D01*
X116685980Y-77977904D02*
X117495504Y-77977904D01*
X117590742Y-77930285D01*
X117638361Y-77882666D01*
X117685980Y-77787428D01*
X117685980Y-77596952D01*
X117638361Y-77501714D01*
X117590742Y-77454095D01*
X117495504Y-77406476D01*
X116685980Y-77406476D01*
X116685980Y-77025523D02*
X116685980Y-76358857D01*
X117685980Y-76787428D01*
X140561980Y-86105904D02*
X141371504Y-86105904D01*
X141466742Y-86058285D01*
X141514361Y-86010666D01*
X141561980Y-85915428D01*
X141561980Y-85724952D01*
X141514361Y-85629714D01*
X141466742Y-85582095D01*
X141371504Y-85534476D01*
X140561980Y-85534476D01*
X140990552Y-84915428D02*
X140942933Y-85010666D01*
X140895314Y-85058285D01*
X140800076Y-85105904D01*
X140752457Y-85105904D01*
X140657219Y-85058285D01*
X140609600Y-85010666D01*
X140561980Y-84915428D01*
X140561980Y-84724952D01*
X140609600Y-84629714D01*
X140657219Y-84582095D01*
X140752457Y-84534476D01*
X140800076Y-84534476D01*
X140895314Y-84582095D01*
X140942933Y-84629714D01*
X140990552Y-84724952D01*
X140990552Y-84915428D01*
X141038171Y-85010666D01*
X141085790Y-85058285D01*
X141181028Y-85105904D01*
X141371504Y-85105904D01*
X141466742Y-85058285D01*
X141514361Y-85010666D01*
X141561980Y-84915428D01*
X141561980Y-84724952D01*
X141514361Y-84629714D01*
X141466742Y-84582095D01*
X141371504Y-84534476D01*
X141181028Y-84534476D01*
X141085790Y-84582095D01*
X141038171Y-84629714D01*
X140990552Y-84724952D01*
X142593980Y-96843695D02*
X143403504Y-96843695D01*
X143498742Y-96796076D01*
X143546361Y-96748457D01*
X143593980Y-96653219D01*
X143593980Y-96462742D01*
X143546361Y-96367504D01*
X143498742Y-96319885D01*
X143403504Y-96272266D01*
X142593980Y-96272266D01*
X143593980Y-95272266D02*
X143593980Y-95843695D01*
X143593980Y-95557980D02*
X142593980Y-95557980D01*
X142736838Y-95653219D01*
X142832076Y-95748457D01*
X142879695Y-95843695D01*
X142593980Y-94653219D02*
X142593980Y-94557980D01*
X142641600Y-94462742D01*
X142689219Y-94415123D01*
X142784457Y-94367504D01*
X142974933Y-94319885D01*
X143213028Y-94319885D01*
X143403504Y-94367504D01*
X143498742Y-94415123D01*
X143546361Y-94462742D01*
X143593980Y-94557980D01*
X143593980Y-94653219D01*
X143546361Y-94748457D01*
X143498742Y-94796076D01*
X143403504Y-94843695D01*
X143213028Y-94891314D01*
X142974933Y-94891314D01*
X142784457Y-94843695D01*
X142689219Y-94796076D01*
X142641600Y-94748457D01*
X142593980Y-94653219D01*
X115161980Y-101822095D02*
X115971504Y-101822095D01*
X116066742Y-101774476D01*
X116114361Y-101726857D01*
X116161980Y-101631619D01*
X116161980Y-101441142D01*
X116114361Y-101345904D01*
X116066742Y-101298285D01*
X115971504Y-101250666D01*
X115161980Y-101250666D01*
X116161980Y-100250666D02*
X116161980Y-100822095D01*
X116161980Y-100536380D02*
X115161980Y-100536380D01*
X115304838Y-100631619D01*
X115400076Y-100726857D01*
X115447695Y-100822095D01*
X115257219Y-99869714D02*
X115209600Y-99822095D01*
X115161980Y-99726857D01*
X115161980Y-99488761D01*
X115209600Y-99393523D01*
X115257219Y-99345904D01*
X115352457Y-99298285D01*
X115447695Y-99298285D01*
X115590552Y-99345904D01*
X116161980Y-99917333D01*
X116161980Y-99298285D01*
X130655980Y-89122095D02*
X131465504Y-89122095D01*
X131560742Y-89074476D01*
X131608361Y-89026857D01*
X131655980Y-88931619D01*
X131655980Y-88741142D01*
X131608361Y-88645904D01*
X131560742Y-88598285D01*
X131465504Y-88550666D01*
X130655980Y-88550666D01*
X131655980Y-87550666D02*
X131655980Y-88122095D01*
X131655980Y-87836380D02*
X130655980Y-87836380D01*
X130798838Y-87931619D01*
X130894076Y-88026857D01*
X130941695Y-88122095D01*
X130655980Y-87217333D02*
X130655980Y-86598285D01*
X131036933Y-86931619D01*
X131036933Y-86788761D01*
X131084552Y-86693523D01*
X131132171Y-86645904D01*
X131227409Y-86598285D01*
X131465504Y-86598285D01*
X131560742Y-86645904D01*
X131608361Y-86693523D01*
X131655980Y-86788761D01*
X131655980Y-87074476D01*
X131608361Y-87169714D01*
X131560742Y-87217333D01*
X129639980Y-100704495D02*
X130449504Y-100704495D01*
X130544742Y-100656876D01*
X130592361Y-100609257D01*
X130639980Y-100514019D01*
X130639980Y-100323542D01*
X130592361Y-100228304D01*
X130544742Y-100180685D01*
X130449504Y-100133066D01*
X129639980Y-100133066D01*
X130639980Y-99133066D02*
X130639980Y-99704495D01*
X130639980Y-99418780D02*
X129639980Y-99418780D01*
X129782838Y-99514019D01*
X129878076Y-99609257D01*
X129925695Y-99704495D01*
X129639980Y-98228304D02*
X129639980Y-98704495D01*
X130116171Y-98752114D01*
X130068552Y-98704495D01*
X130020933Y-98609257D01*
X130020933Y-98371161D01*
X130068552Y-98275923D01*
X130116171Y-98228304D01*
X130211409Y-98180685D01*
X130449504Y-98180685D01*
X130544742Y-98228304D01*
X130592361Y-98275923D01*
X130639980Y-98371161D01*
X130639980Y-98609257D01*
X130592361Y-98704495D01*
X130544742Y-98752114D01*
M02*
