G04 #@! TF.GenerationSoftware,KiCad,Pcbnew,(5.1.0)-1*
G04 #@! TF.CreationDate,2019-10-16T14:10:11+11:00*
G04 #@! TF.ProjectId,APPS,41505053-2e6b-4696-9361-645f70636258,rev?*
G04 #@! TF.SameCoordinates,Original*
G04 #@! TF.FileFunction,Soldermask,Top*
G04 #@! TF.FilePolarity,Negative*
%FSLAX46Y46*%
G04 Gerber Fmt 4.6, Leading zero omitted, Abs format (unit mm)*
G04 Created by KiCad (PCBNEW (5.1.0)-1) date 2019-10-16 14:10:11*
%MOMM*%
%LPD*%
G04 APERTURE LIST*
%ADD10C,0.100000*%
G04 APERTURE END LIST*
D10*
G36*
X130409564Y-111511389D02*
G01*
X130525451Y-111559391D01*
X130600835Y-111590616D01*
X130772973Y-111705635D01*
X130919365Y-111852027D01*
X131034385Y-112024167D01*
X131113611Y-112215436D01*
X131154000Y-112418484D01*
X131154000Y-112625516D01*
X131113611Y-112828564D01*
X131040771Y-113004415D01*
X131034384Y-113019835D01*
X130919365Y-113191973D01*
X130772973Y-113338365D01*
X130600835Y-113453384D01*
X130600834Y-113453385D01*
X130600833Y-113453385D01*
X130409564Y-113532611D01*
X130206516Y-113573000D01*
X129999484Y-113573000D01*
X129796436Y-113532611D01*
X129605167Y-113453385D01*
X129605166Y-113453385D01*
X129605165Y-113453384D01*
X129433027Y-113338365D01*
X129286635Y-113191973D01*
X129171616Y-113019835D01*
X129165229Y-113004415D01*
X129092389Y-112828564D01*
X129052000Y-112625516D01*
X129052000Y-112418484D01*
X129092389Y-112215436D01*
X129171615Y-112024167D01*
X129286635Y-111852027D01*
X129433027Y-111705635D01*
X129605165Y-111590616D01*
X129680549Y-111559391D01*
X129796436Y-111511389D01*
X129999484Y-111471000D01*
X130206516Y-111471000D01*
X130409564Y-111511389D01*
X130409564Y-111511389D01*
G37*
G36*
X125909564Y-111511389D02*
G01*
X126025451Y-111559391D01*
X126100835Y-111590616D01*
X126272973Y-111705635D01*
X126419365Y-111852027D01*
X126534385Y-112024167D01*
X126613611Y-112215436D01*
X126654000Y-112418484D01*
X126654000Y-112625516D01*
X126613611Y-112828564D01*
X126540771Y-113004415D01*
X126534384Y-113019835D01*
X126419365Y-113191973D01*
X126272973Y-113338365D01*
X126100835Y-113453384D01*
X126100834Y-113453385D01*
X126100833Y-113453385D01*
X125909564Y-113532611D01*
X125706516Y-113573000D01*
X125499484Y-113573000D01*
X125296436Y-113532611D01*
X125105167Y-113453385D01*
X125105166Y-113453385D01*
X125105165Y-113453384D01*
X124933027Y-113338365D01*
X124786635Y-113191973D01*
X124671616Y-113019835D01*
X124665229Y-113004415D01*
X124592389Y-112828564D01*
X124552000Y-112625516D01*
X124552000Y-112418484D01*
X124592389Y-112215436D01*
X124671615Y-112024167D01*
X124786635Y-111852027D01*
X124933027Y-111705635D01*
X125105165Y-111590616D01*
X125180549Y-111559391D01*
X125296436Y-111511389D01*
X125499484Y-111471000D01*
X125706516Y-111471000D01*
X125909564Y-111511389D01*
X125909564Y-111511389D01*
G37*
G36*
X156178856Y-110113298D02*
G01*
X156285179Y-110134447D01*
X156585642Y-110258903D01*
X156856051Y-110439585D01*
X157086015Y-110669549D01*
X157266697Y-110939958D01*
X157391153Y-111240421D01*
X157454600Y-111559391D01*
X157454600Y-111884609D01*
X157391153Y-112203579D01*
X157303150Y-112416037D01*
X157302136Y-112418486D01*
X157266697Y-112504042D01*
X157086015Y-112774451D01*
X156856051Y-113004415D01*
X156585642Y-113185097D01*
X156285179Y-113309553D01*
X156178856Y-113330702D01*
X155966211Y-113373000D01*
X155640989Y-113373000D01*
X155428344Y-113330702D01*
X155322021Y-113309553D01*
X155021558Y-113185097D01*
X154751149Y-113004415D01*
X154521185Y-112774451D01*
X154340503Y-112504042D01*
X154305065Y-112418486D01*
X154304050Y-112416037D01*
X154216047Y-112203579D01*
X154152600Y-111884609D01*
X154152600Y-111559391D01*
X154216047Y-111240421D01*
X154340503Y-110939958D01*
X154521185Y-110669549D01*
X154751149Y-110439585D01*
X155021558Y-110258903D01*
X155322021Y-110134447D01*
X155428344Y-110113298D01*
X155640989Y-110071000D01*
X155966211Y-110071000D01*
X156178856Y-110113298D01*
X156178856Y-110113298D01*
G37*
G36*
X106178856Y-110113298D02*
G01*
X106285179Y-110134447D01*
X106585642Y-110258903D01*
X106856051Y-110439585D01*
X107086015Y-110669549D01*
X107266697Y-110939958D01*
X107391153Y-111240421D01*
X107454600Y-111559391D01*
X107454600Y-111884609D01*
X107391153Y-112203579D01*
X107303150Y-112416037D01*
X107302136Y-112418486D01*
X107266697Y-112504042D01*
X107086015Y-112774451D01*
X106856051Y-113004415D01*
X106585642Y-113185097D01*
X106285179Y-113309553D01*
X106178856Y-113330702D01*
X105966211Y-113373000D01*
X105640989Y-113373000D01*
X105428344Y-113330702D01*
X105322021Y-113309553D01*
X105021558Y-113185097D01*
X104751149Y-113004415D01*
X104521185Y-112774451D01*
X104340503Y-112504042D01*
X104305065Y-112418486D01*
X104304050Y-112416037D01*
X104216047Y-112203579D01*
X104152600Y-111884609D01*
X104152600Y-111559391D01*
X104216047Y-111240421D01*
X104340503Y-110939958D01*
X104521185Y-110669549D01*
X104751149Y-110439585D01*
X105021558Y-110258903D01*
X105322021Y-110134447D01*
X105428344Y-110113298D01*
X105640989Y-110071000D01*
X105966211Y-110071000D01*
X106178856Y-110113298D01*
X106178856Y-110113298D01*
G37*
G36*
X149318185Y-108072660D02*
G01*
X149430948Y-108095090D01*
X149447328Y-108101875D01*
X149749608Y-108227083D01*
X150036396Y-108418709D01*
X150280291Y-108662604D01*
X150471917Y-108949392D01*
X150603910Y-109268053D01*
X150671200Y-109606340D01*
X150671200Y-109951260D01*
X150603910Y-110289547D01*
X150471917Y-110608208D01*
X150280291Y-110894996D01*
X150036396Y-111138891D01*
X149749608Y-111330517D01*
X149562941Y-111407837D01*
X149430948Y-111462510D01*
X149318185Y-111484940D01*
X149092660Y-111529800D01*
X148747740Y-111529800D01*
X148522215Y-111484940D01*
X148409452Y-111462510D01*
X148277459Y-111407837D01*
X148090792Y-111330517D01*
X147804004Y-111138891D01*
X147560109Y-110894996D01*
X147368483Y-110608208D01*
X147236490Y-110289547D01*
X147169200Y-109951260D01*
X147169200Y-109606340D01*
X147236490Y-109268053D01*
X147368483Y-108949392D01*
X147560109Y-108662604D01*
X147804004Y-108418709D01*
X148090792Y-108227083D01*
X148393072Y-108101875D01*
X148409452Y-108095090D01*
X148522215Y-108072660D01*
X148747740Y-108027800D01*
X149092660Y-108027800D01*
X149318185Y-108072660D01*
X149318185Y-108072660D01*
G37*
G36*
X138662063Y-107912518D02*
G01*
X138813748Y-107942690D01*
X138886191Y-107972697D01*
X139132408Y-108074683D01*
X139419196Y-108266309D01*
X139663091Y-108510204D01*
X139854717Y-108796992D01*
X139912353Y-108936139D01*
X139986710Y-109115652D01*
X139990519Y-109134800D01*
X140054000Y-109453940D01*
X140054000Y-109798860D01*
X139986710Y-110137147D01*
X139854717Y-110455808D01*
X139663091Y-110742596D01*
X139419196Y-110986491D01*
X139132408Y-111178117D01*
X138945741Y-111255437D01*
X138813748Y-111310110D01*
X138711160Y-111330516D01*
X138475460Y-111377400D01*
X138130540Y-111377400D01*
X137894840Y-111330516D01*
X137792252Y-111310110D01*
X137660259Y-111255437D01*
X137473592Y-111178117D01*
X137186804Y-110986491D01*
X136942909Y-110742596D01*
X136751283Y-110455808D01*
X136619290Y-110137147D01*
X136552000Y-109798860D01*
X136552000Y-109453940D01*
X136615481Y-109134800D01*
X136619290Y-109115652D01*
X136693647Y-108936139D01*
X136751283Y-108796992D01*
X136942909Y-108510204D01*
X137186804Y-108266309D01*
X137473592Y-108074683D01*
X137719809Y-107972697D01*
X137792252Y-107942690D01*
X137943937Y-107912518D01*
X138130540Y-107875400D01*
X138475460Y-107875400D01*
X138662063Y-107912518D01*
X138662063Y-107912518D01*
G37*
G36*
X142678274Y-109692665D02*
G01*
X142715967Y-109704099D01*
X142750703Y-109722666D01*
X142781148Y-109747652D01*
X142806134Y-109778097D01*
X142824701Y-109812833D01*
X142836135Y-109850526D01*
X142840600Y-109895861D01*
X142840600Y-110982539D01*
X142836135Y-111027874D01*
X142824701Y-111065567D01*
X142806134Y-111100303D01*
X142781148Y-111130748D01*
X142750703Y-111155734D01*
X142715967Y-111174301D01*
X142678274Y-111185735D01*
X142632939Y-111190200D01*
X141796261Y-111190200D01*
X141750926Y-111185735D01*
X141713233Y-111174301D01*
X141678497Y-111155734D01*
X141648052Y-111130748D01*
X141623066Y-111100303D01*
X141604499Y-111065567D01*
X141593065Y-111027874D01*
X141588600Y-110982539D01*
X141588600Y-109895861D01*
X141593065Y-109850526D01*
X141604499Y-109812833D01*
X141623066Y-109778097D01*
X141648052Y-109747652D01*
X141678497Y-109722666D01*
X141713233Y-109704099D01*
X141750926Y-109692665D01*
X141796261Y-109688200D01*
X142632939Y-109688200D01*
X142678274Y-109692665D01*
X142678274Y-109692665D01*
G37*
G36*
X144728274Y-109692665D02*
G01*
X144765967Y-109704099D01*
X144800703Y-109722666D01*
X144831148Y-109747652D01*
X144856134Y-109778097D01*
X144874701Y-109812833D01*
X144886135Y-109850526D01*
X144890600Y-109895861D01*
X144890600Y-110982539D01*
X144886135Y-111027874D01*
X144874701Y-111065567D01*
X144856134Y-111100303D01*
X144831148Y-111130748D01*
X144800703Y-111155734D01*
X144765967Y-111174301D01*
X144728274Y-111185735D01*
X144682939Y-111190200D01*
X143846261Y-111190200D01*
X143800926Y-111185735D01*
X143763233Y-111174301D01*
X143728497Y-111155734D01*
X143698052Y-111130748D01*
X143673066Y-111100303D01*
X143654499Y-111065567D01*
X143643065Y-111027874D01*
X143638600Y-110982539D01*
X143638600Y-109895861D01*
X143643065Y-109850526D01*
X143654499Y-109812833D01*
X143673066Y-109778097D01*
X143698052Y-109747652D01*
X143728497Y-109722666D01*
X143763233Y-109704099D01*
X143800926Y-109692665D01*
X143846261Y-109688200D01*
X144682939Y-109688200D01*
X144728274Y-109692665D01*
X144728274Y-109692665D01*
G37*
G36*
X134265162Y-109389381D02*
G01*
X134300081Y-109399974D01*
X134332263Y-109417176D01*
X134360473Y-109440327D01*
X134383624Y-109468537D01*
X134400826Y-109500719D01*
X134411419Y-109535638D01*
X134415600Y-109578095D01*
X134415600Y-110719305D01*
X134411419Y-110761762D01*
X134400826Y-110796681D01*
X134383624Y-110828863D01*
X134360473Y-110857073D01*
X134332263Y-110880224D01*
X134300081Y-110897426D01*
X134265162Y-110908019D01*
X134222705Y-110912200D01*
X132756495Y-110912200D01*
X132714038Y-110908019D01*
X132679119Y-110897426D01*
X132646937Y-110880224D01*
X132618727Y-110857073D01*
X132595576Y-110828863D01*
X132578374Y-110796681D01*
X132567781Y-110761762D01*
X132563600Y-110719305D01*
X132563600Y-109578095D01*
X132567781Y-109535638D01*
X132578374Y-109500719D01*
X132595576Y-109468537D01*
X132618727Y-109440327D01*
X132646937Y-109417176D01*
X132679119Y-109399974D01*
X132714038Y-109389381D01*
X132756495Y-109385200D01*
X134222705Y-109385200D01*
X134265162Y-109389381D01*
X134265162Y-109389381D01*
G37*
G36*
X117758874Y-107896265D02*
G01*
X117796567Y-107907699D01*
X117831303Y-107926266D01*
X117861748Y-107951252D01*
X117886734Y-107981697D01*
X117905301Y-108016433D01*
X117916735Y-108054126D01*
X117921200Y-108099461D01*
X117921200Y-108936139D01*
X117916735Y-108981474D01*
X117905301Y-109019167D01*
X117886734Y-109053903D01*
X117861748Y-109084348D01*
X117831303Y-109109334D01*
X117796567Y-109127901D01*
X117758874Y-109139335D01*
X117713539Y-109143800D01*
X116626861Y-109143800D01*
X116581526Y-109139335D01*
X116543833Y-109127901D01*
X116509097Y-109109334D01*
X116478652Y-109084348D01*
X116453666Y-109053903D01*
X116435099Y-109019167D01*
X116423665Y-108981474D01*
X116419200Y-108936139D01*
X116419200Y-108099461D01*
X116423665Y-108054126D01*
X116435099Y-108016433D01*
X116453666Y-107981697D01*
X116478652Y-107951252D01*
X116509097Y-107926266D01*
X116543833Y-107907699D01*
X116581526Y-107896265D01*
X116626861Y-107891800D01*
X117713539Y-107891800D01*
X117758874Y-107896265D01*
X117758874Y-107896265D01*
G37*
G36*
X114812474Y-107896265D02*
G01*
X114850167Y-107907699D01*
X114884903Y-107926266D01*
X114915348Y-107951252D01*
X114940334Y-107981697D01*
X114958901Y-108016433D01*
X114970335Y-108054126D01*
X114974800Y-108099461D01*
X114974800Y-108936139D01*
X114970335Y-108981474D01*
X114958901Y-109019167D01*
X114940334Y-109053903D01*
X114915348Y-109084348D01*
X114884903Y-109109334D01*
X114850167Y-109127901D01*
X114812474Y-109139335D01*
X114767139Y-109143800D01*
X113680461Y-109143800D01*
X113635126Y-109139335D01*
X113597433Y-109127901D01*
X113562697Y-109109334D01*
X113532252Y-109084348D01*
X113507266Y-109053903D01*
X113488699Y-109019167D01*
X113477265Y-108981474D01*
X113472800Y-108936139D01*
X113472800Y-108099461D01*
X113477265Y-108054126D01*
X113488699Y-108016433D01*
X113507266Y-107981697D01*
X113532252Y-107951252D01*
X113562697Y-107926266D01*
X113597433Y-107907699D01*
X113635126Y-107896265D01*
X113680461Y-107891800D01*
X114767139Y-107891800D01*
X114812474Y-107896265D01*
X114812474Y-107896265D01*
G37*
G36*
X120705274Y-107896265D02*
G01*
X120742967Y-107907699D01*
X120777703Y-107926266D01*
X120808148Y-107951252D01*
X120833134Y-107981697D01*
X120851701Y-108016433D01*
X120863135Y-108054126D01*
X120867600Y-108099461D01*
X120867600Y-108936139D01*
X120863135Y-108981474D01*
X120851701Y-109019167D01*
X120833134Y-109053903D01*
X120808148Y-109084348D01*
X120777703Y-109109334D01*
X120742967Y-109127901D01*
X120705274Y-109139335D01*
X120659939Y-109143800D01*
X119573261Y-109143800D01*
X119527926Y-109139335D01*
X119490233Y-109127901D01*
X119455497Y-109109334D01*
X119425052Y-109084348D01*
X119400066Y-109053903D01*
X119381499Y-109019167D01*
X119370065Y-108981474D01*
X119365600Y-108936139D01*
X119365600Y-108099461D01*
X119370065Y-108054126D01*
X119381499Y-108016433D01*
X119400066Y-107981697D01*
X119425052Y-107951252D01*
X119455497Y-107926266D01*
X119490233Y-107907699D01*
X119527926Y-107896265D01*
X119573261Y-107891800D01*
X120659939Y-107891800D01*
X120705274Y-107896265D01*
X120705274Y-107896265D01*
G37*
G36*
X111764474Y-107887265D02*
G01*
X111802167Y-107898699D01*
X111836903Y-107917266D01*
X111867348Y-107942252D01*
X111892334Y-107972697D01*
X111910901Y-108007433D01*
X111922335Y-108045126D01*
X111926800Y-108090461D01*
X111926800Y-108927139D01*
X111922335Y-108972474D01*
X111910901Y-109010167D01*
X111892334Y-109044903D01*
X111867348Y-109075348D01*
X111836903Y-109100334D01*
X111802167Y-109118901D01*
X111764474Y-109130335D01*
X111719139Y-109134800D01*
X110632461Y-109134800D01*
X110587126Y-109130335D01*
X110549433Y-109118901D01*
X110514697Y-109100334D01*
X110484252Y-109075348D01*
X110459266Y-109044903D01*
X110440699Y-109010167D01*
X110429265Y-108972474D01*
X110424800Y-108927139D01*
X110424800Y-108090461D01*
X110429265Y-108045126D01*
X110440699Y-108007433D01*
X110459266Y-107972697D01*
X110484252Y-107942252D01*
X110514697Y-107917266D01*
X110549433Y-107898699D01*
X110587126Y-107887265D01*
X110632461Y-107882800D01*
X111719139Y-107882800D01*
X111764474Y-107887265D01*
X111764474Y-107887265D01*
G37*
G36*
X142494262Y-107231381D02*
G01*
X142529181Y-107241974D01*
X142561363Y-107259176D01*
X142589573Y-107282327D01*
X142612724Y-107310537D01*
X142629926Y-107342719D01*
X142640519Y-107377638D01*
X142644700Y-107420095D01*
X142644700Y-108886305D01*
X142640519Y-108928762D01*
X142629926Y-108963681D01*
X142612724Y-108995863D01*
X142589573Y-109024073D01*
X142561363Y-109047224D01*
X142529181Y-109064426D01*
X142494262Y-109075019D01*
X142451805Y-109079200D01*
X141310595Y-109079200D01*
X141268138Y-109075019D01*
X141233219Y-109064426D01*
X141201037Y-109047224D01*
X141172827Y-109024073D01*
X141149676Y-108995863D01*
X141132474Y-108963681D01*
X141121881Y-108928762D01*
X141117700Y-108886305D01*
X141117700Y-107420095D01*
X141121881Y-107377638D01*
X141132474Y-107342719D01*
X141149676Y-107310537D01*
X141172827Y-107282327D01*
X141201037Y-107259176D01*
X141233219Y-107241974D01*
X141268138Y-107231381D01*
X141310595Y-107227200D01*
X142451805Y-107227200D01*
X142494262Y-107231381D01*
X142494262Y-107231381D01*
G37*
G36*
X145469262Y-107231381D02*
G01*
X145504181Y-107241974D01*
X145536363Y-107259176D01*
X145564573Y-107282327D01*
X145587724Y-107310537D01*
X145604926Y-107342719D01*
X145615519Y-107377638D01*
X145619700Y-107420095D01*
X145619700Y-108886305D01*
X145615519Y-108928762D01*
X145604926Y-108963681D01*
X145587724Y-108995863D01*
X145564573Y-109024073D01*
X145536363Y-109047224D01*
X145504181Y-109064426D01*
X145469262Y-109075019D01*
X145426805Y-109079200D01*
X144285595Y-109079200D01*
X144243138Y-109075019D01*
X144208219Y-109064426D01*
X144176037Y-109047224D01*
X144147827Y-109024073D01*
X144124676Y-108995863D01*
X144107474Y-108963681D01*
X144096881Y-108928762D01*
X144092700Y-108886305D01*
X144092700Y-107420095D01*
X144096881Y-107377638D01*
X144107474Y-107342719D01*
X144124676Y-107310537D01*
X144147827Y-107282327D01*
X144176037Y-107259176D01*
X144208219Y-107241974D01*
X144243138Y-107231381D01*
X144285595Y-107227200D01*
X145426805Y-107227200D01*
X145469262Y-107231381D01*
X145469262Y-107231381D01*
G37*
G36*
X134265162Y-106414381D02*
G01*
X134300081Y-106424974D01*
X134332263Y-106442176D01*
X134360473Y-106465327D01*
X134383624Y-106493537D01*
X134400826Y-106525719D01*
X134411419Y-106560638D01*
X134415600Y-106603095D01*
X134415600Y-107744305D01*
X134411419Y-107786762D01*
X134400826Y-107821681D01*
X134383624Y-107853863D01*
X134360473Y-107882073D01*
X134332263Y-107905224D01*
X134300081Y-107922426D01*
X134265162Y-107933019D01*
X134222705Y-107937200D01*
X132756495Y-107937200D01*
X132714038Y-107933019D01*
X132679119Y-107922426D01*
X132646937Y-107905224D01*
X132618727Y-107882073D01*
X132595576Y-107853863D01*
X132578374Y-107821681D01*
X132567781Y-107786762D01*
X132563600Y-107744305D01*
X132563600Y-106603095D01*
X132567781Y-106560638D01*
X132578374Y-106525719D01*
X132595576Y-106493537D01*
X132618727Y-106465327D01*
X132646937Y-106442176D01*
X132679119Y-106424974D01*
X132714038Y-106414381D01*
X132756495Y-106410200D01*
X134222705Y-106410200D01*
X134265162Y-106414381D01*
X134265162Y-106414381D01*
G37*
G36*
X117758874Y-105846265D02*
G01*
X117796567Y-105857699D01*
X117831303Y-105876266D01*
X117861748Y-105901252D01*
X117886734Y-105931697D01*
X117905301Y-105966433D01*
X117916735Y-106004126D01*
X117921200Y-106049461D01*
X117921200Y-106886139D01*
X117916735Y-106931474D01*
X117905301Y-106969167D01*
X117886734Y-107003903D01*
X117861748Y-107034348D01*
X117831303Y-107059334D01*
X117796567Y-107077901D01*
X117758874Y-107089335D01*
X117713539Y-107093800D01*
X116626861Y-107093800D01*
X116581526Y-107089335D01*
X116543833Y-107077901D01*
X116509097Y-107059334D01*
X116478652Y-107034348D01*
X116453666Y-107003903D01*
X116435099Y-106969167D01*
X116423665Y-106931474D01*
X116419200Y-106886139D01*
X116419200Y-106049461D01*
X116423665Y-106004126D01*
X116435099Y-105966433D01*
X116453666Y-105931697D01*
X116478652Y-105901252D01*
X116509097Y-105876266D01*
X116543833Y-105857699D01*
X116581526Y-105846265D01*
X116626861Y-105841800D01*
X117713539Y-105841800D01*
X117758874Y-105846265D01*
X117758874Y-105846265D01*
G37*
G36*
X114812474Y-105846265D02*
G01*
X114850167Y-105857699D01*
X114884903Y-105876266D01*
X114915348Y-105901252D01*
X114940334Y-105931697D01*
X114958901Y-105966433D01*
X114970335Y-106004126D01*
X114974800Y-106049461D01*
X114974800Y-106886139D01*
X114970335Y-106931474D01*
X114958901Y-106969167D01*
X114940334Y-107003903D01*
X114915348Y-107034348D01*
X114884903Y-107059334D01*
X114850167Y-107077901D01*
X114812474Y-107089335D01*
X114767139Y-107093800D01*
X113680461Y-107093800D01*
X113635126Y-107089335D01*
X113597433Y-107077901D01*
X113562697Y-107059334D01*
X113532252Y-107034348D01*
X113507266Y-107003903D01*
X113488699Y-106969167D01*
X113477265Y-106931474D01*
X113472800Y-106886139D01*
X113472800Y-106049461D01*
X113477265Y-106004126D01*
X113488699Y-105966433D01*
X113507266Y-105931697D01*
X113532252Y-105901252D01*
X113562697Y-105876266D01*
X113597433Y-105857699D01*
X113635126Y-105846265D01*
X113680461Y-105841800D01*
X114767139Y-105841800D01*
X114812474Y-105846265D01*
X114812474Y-105846265D01*
G37*
G36*
X120705274Y-105846265D02*
G01*
X120742967Y-105857699D01*
X120777703Y-105876266D01*
X120808148Y-105901252D01*
X120833134Y-105931697D01*
X120851701Y-105966433D01*
X120863135Y-106004126D01*
X120867600Y-106049461D01*
X120867600Y-106886139D01*
X120863135Y-106931474D01*
X120851701Y-106969167D01*
X120833134Y-107003903D01*
X120808148Y-107034348D01*
X120777703Y-107059334D01*
X120742967Y-107077901D01*
X120705274Y-107089335D01*
X120659939Y-107093800D01*
X119573261Y-107093800D01*
X119527926Y-107089335D01*
X119490233Y-107077901D01*
X119455497Y-107059334D01*
X119425052Y-107034348D01*
X119400066Y-107003903D01*
X119381499Y-106969167D01*
X119370065Y-106931474D01*
X119365600Y-106886139D01*
X119365600Y-106049461D01*
X119370065Y-106004126D01*
X119381499Y-105966433D01*
X119400066Y-105931697D01*
X119425052Y-105901252D01*
X119455497Y-105876266D01*
X119490233Y-105857699D01*
X119527926Y-105846265D01*
X119573261Y-105841800D01*
X120659939Y-105841800D01*
X120705274Y-105846265D01*
X120705274Y-105846265D01*
G37*
G36*
X111764474Y-105837265D02*
G01*
X111802167Y-105848699D01*
X111836903Y-105867266D01*
X111867348Y-105892252D01*
X111892334Y-105922697D01*
X111910901Y-105957433D01*
X111922335Y-105995126D01*
X111926800Y-106040461D01*
X111926800Y-106877139D01*
X111922335Y-106922474D01*
X111910901Y-106960167D01*
X111892334Y-106994903D01*
X111867348Y-107025348D01*
X111836903Y-107050334D01*
X111802167Y-107068901D01*
X111764474Y-107080335D01*
X111719139Y-107084800D01*
X110632461Y-107084800D01*
X110587126Y-107080335D01*
X110549433Y-107068901D01*
X110514697Y-107050334D01*
X110484252Y-107025348D01*
X110459266Y-106994903D01*
X110440699Y-106960167D01*
X110429265Y-106922474D01*
X110424800Y-106877139D01*
X110424800Y-106040461D01*
X110429265Y-105995126D01*
X110440699Y-105957433D01*
X110459266Y-105922697D01*
X110484252Y-105892252D01*
X110514697Y-105867266D01*
X110549433Y-105848699D01*
X110587126Y-105837265D01*
X110632461Y-105832800D01*
X111719139Y-105832800D01*
X111764474Y-105837265D01*
X111764474Y-105837265D01*
G37*
G36*
X130409564Y-105011389D02*
G01*
X130600833Y-105090615D01*
X130600835Y-105090616D01*
X130772973Y-105205635D01*
X130919365Y-105352027D01*
X131034385Y-105524167D01*
X131113611Y-105715436D01*
X131154000Y-105918484D01*
X131154000Y-106125516D01*
X131113611Y-106328564D01*
X131053170Y-106474481D01*
X131034384Y-106519835D01*
X130919365Y-106691973D01*
X130772973Y-106838365D01*
X130600835Y-106953384D01*
X130600834Y-106953385D01*
X130600833Y-106953385D01*
X130409564Y-107032611D01*
X130206516Y-107073000D01*
X129999484Y-107073000D01*
X129796436Y-107032611D01*
X129605167Y-106953385D01*
X129605166Y-106953385D01*
X129605165Y-106953384D01*
X129433027Y-106838365D01*
X129286635Y-106691973D01*
X129171616Y-106519835D01*
X129152830Y-106474481D01*
X129092389Y-106328564D01*
X129052000Y-106125516D01*
X129052000Y-105918484D01*
X129092389Y-105715436D01*
X129171615Y-105524167D01*
X129286635Y-105352027D01*
X129433027Y-105205635D01*
X129605165Y-105090616D01*
X129605167Y-105090615D01*
X129796436Y-105011389D01*
X129999484Y-104971000D01*
X130206516Y-104971000D01*
X130409564Y-105011389D01*
X130409564Y-105011389D01*
G37*
G36*
X125909564Y-105011389D02*
G01*
X126100833Y-105090615D01*
X126100835Y-105090616D01*
X126272973Y-105205635D01*
X126419365Y-105352027D01*
X126534385Y-105524167D01*
X126613611Y-105715436D01*
X126654000Y-105918484D01*
X126654000Y-106125516D01*
X126613611Y-106328564D01*
X126553170Y-106474481D01*
X126534384Y-106519835D01*
X126419365Y-106691973D01*
X126272973Y-106838365D01*
X126100835Y-106953384D01*
X126100834Y-106953385D01*
X126100833Y-106953385D01*
X125909564Y-107032611D01*
X125706516Y-107073000D01*
X125499484Y-107073000D01*
X125296436Y-107032611D01*
X125105167Y-106953385D01*
X125105166Y-106953385D01*
X125105165Y-106953384D01*
X124933027Y-106838365D01*
X124786635Y-106691973D01*
X124671616Y-106519835D01*
X124652830Y-106474481D01*
X124592389Y-106328564D01*
X124552000Y-106125516D01*
X124552000Y-105918484D01*
X124592389Y-105715436D01*
X124671615Y-105524167D01*
X124786635Y-105352027D01*
X124933027Y-105205635D01*
X125105165Y-105090616D01*
X125105167Y-105090615D01*
X125296436Y-105011389D01*
X125499484Y-104971000D01*
X125706516Y-104971000D01*
X125909564Y-105011389D01*
X125909564Y-105011389D01*
G37*
G36*
X145469262Y-104742181D02*
G01*
X145504181Y-104752774D01*
X145536363Y-104769976D01*
X145564573Y-104793127D01*
X145587724Y-104821337D01*
X145604926Y-104853519D01*
X145615519Y-104888438D01*
X145619700Y-104930895D01*
X145619700Y-106397105D01*
X145615519Y-106439562D01*
X145604926Y-106474481D01*
X145587724Y-106506663D01*
X145564573Y-106534873D01*
X145536363Y-106558024D01*
X145504181Y-106575226D01*
X145469262Y-106585819D01*
X145426805Y-106590000D01*
X144285595Y-106590000D01*
X144243138Y-106585819D01*
X144208219Y-106575226D01*
X144176037Y-106558024D01*
X144147827Y-106534873D01*
X144124676Y-106506663D01*
X144107474Y-106474481D01*
X144096881Y-106439562D01*
X144092700Y-106397105D01*
X144092700Y-104930895D01*
X144096881Y-104888438D01*
X144107474Y-104853519D01*
X144124676Y-104821337D01*
X144147827Y-104793127D01*
X144176037Y-104769976D01*
X144208219Y-104752774D01*
X144243138Y-104742181D01*
X144285595Y-104738000D01*
X145426805Y-104738000D01*
X145469262Y-104742181D01*
X145469262Y-104742181D01*
G37*
G36*
X142494262Y-104742181D02*
G01*
X142529181Y-104752774D01*
X142561363Y-104769976D01*
X142589573Y-104793127D01*
X142612724Y-104821337D01*
X142629926Y-104853519D01*
X142640519Y-104888438D01*
X142644700Y-104930895D01*
X142644700Y-106397105D01*
X142640519Y-106439562D01*
X142629926Y-106474481D01*
X142612724Y-106506663D01*
X142589573Y-106534873D01*
X142561363Y-106558024D01*
X142529181Y-106575226D01*
X142494262Y-106585819D01*
X142451805Y-106590000D01*
X141310595Y-106590000D01*
X141268138Y-106585819D01*
X141233219Y-106575226D01*
X141201037Y-106558024D01*
X141172827Y-106534873D01*
X141149676Y-106506663D01*
X141132474Y-106474481D01*
X141121881Y-106439562D01*
X141117700Y-106397105D01*
X141117700Y-104930895D01*
X141121881Y-104888438D01*
X141132474Y-104853519D01*
X141149676Y-104821337D01*
X141172827Y-104793127D01*
X141201037Y-104769976D01*
X141233219Y-104752774D01*
X141268138Y-104742181D01*
X141310595Y-104738000D01*
X142451805Y-104738000D01*
X142494262Y-104742181D01*
X142494262Y-104742181D01*
G37*
G36*
X111349400Y-104135400D02*
G01*
X109747400Y-104135400D01*
X109747400Y-103433400D01*
X111349400Y-103433400D01*
X111349400Y-104135400D01*
X111349400Y-104135400D01*
G37*
G36*
X105949400Y-104135400D02*
G01*
X104347400Y-104135400D01*
X104347400Y-103433400D01*
X105949400Y-103433400D01*
X105949400Y-104135400D01*
X105949400Y-104135400D01*
G37*
G36*
X114092200Y-104110000D02*
G01*
X113390200Y-104110000D01*
X113390200Y-102458000D01*
X114092200Y-102458000D01*
X114092200Y-104110000D01*
X114092200Y-104110000D01*
G37*
G36*
X115362200Y-104110000D02*
G01*
X114660200Y-104110000D01*
X114660200Y-102458000D01*
X115362200Y-102458000D01*
X115362200Y-104110000D01*
X115362200Y-104110000D01*
G37*
G36*
X117902200Y-104110000D02*
G01*
X117200200Y-104110000D01*
X117200200Y-102458000D01*
X117902200Y-102458000D01*
X117902200Y-104110000D01*
X117902200Y-104110000D01*
G37*
G36*
X116632200Y-104110000D02*
G01*
X115930200Y-104110000D01*
X115930200Y-102458000D01*
X116632200Y-102458000D01*
X116632200Y-104110000D01*
X116632200Y-104110000D01*
G37*
G36*
X133853400Y-103817400D02*
G01*
X133151400Y-103817400D01*
X133151400Y-102215400D01*
X133853400Y-102215400D01*
X133853400Y-103817400D01*
X133853400Y-103817400D01*
G37*
G36*
X132583400Y-103817400D02*
G01*
X131881400Y-103817400D01*
X131881400Y-102215400D01*
X132583400Y-102215400D01*
X132583400Y-103817400D01*
X132583400Y-103817400D01*
G37*
G36*
X131313400Y-103817400D02*
G01*
X130611400Y-103817400D01*
X130611400Y-102215400D01*
X131313400Y-102215400D01*
X131313400Y-103817400D01*
X131313400Y-103817400D01*
G37*
G36*
X130043400Y-103817400D02*
G01*
X129341400Y-103817400D01*
X129341400Y-102215400D01*
X130043400Y-102215400D01*
X130043400Y-103817400D01*
X130043400Y-103817400D01*
G37*
G36*
X127503400Y-103817400D02*
G01*
X126801400Y-103817400D01*
X126801400Y-102215400D01*
X127503400Y-102215400D01*
X127503400Y-103817400D01*
X127503400Y-103817400D01*
G37*
G36*
X128773400Y-103817400D02*
G01*
X128071400Y-103817400D01*
X128071400Y-102215400D01*
X128773400Y-102215400D01*
X128773400Y-103817400D01*
X128773400Y-103817400D01*
G37*
G36*
X135123400Y-103817400D02*
G01*
X134421400Y-103817400D01*
X134421400Y-102215400D01*
X135123400Y-102215400D01*
X135123400Y-103817400D01*
X135123400Y-103817400D01*
G37*
G36*
X126233400Y-103817400D02*
G01*
X125531400Y-103817400D01*
X125531400Y-102215400D01*
X126233400Y-102215400D01*
X126233400Y-103817400D01*
X126233400Y-103817400D01*
G37*
G36*
X145582500Y-103369300D02*
G01*
X144580500Y-103369300D01*
X144580500Y-102467300D01*
X145582500Y-102467300D01*
X145582500Y-103369300D01*
X145582500Y-103369300D01*
G37*
G36*
X141105199Y-100795954D02*
G01*
X141117450Y-100796556D01*
X141135869Y-100796556D01*
X141158149Y-100798750D01*
X141242233Y-100815476D01*
X141263660Y-100821976D01*
X141342858Y-100854780D01*
X141348303Y-100857691D01*
X141348309Y-100857693D01*
X141357169Y-100862429D01*
X141357173Y-100862432D01*
X141362614Y-100865340D01*
X141433899Y-100912971D01*
X141451204Y-100927172D01*
X141511828Y-100987796D01*
X141526029Y-101005101D01*
X141573660Y-101076386D01*
X141576568Y-101081827D01*
X141576571Y-101081831D01*
X141581307Y-101090691D01*
X141581309Y-101090697D01*
X141584220Y-101096142D01*
X141617024Y-101175340D01*
X141623524Y-101196767D01*
X141640250Y-101280851D01*
X141642444Y-101303131D01*
X141642444Y-101321550D01*
X141643046Y-101333801D01*
X141644852Y-101352139D01*
X141644852Y-101839860D01*
X141643263Y-101855999D01*
X141640348Y-101865608D01*
X141635610Y-101874472D01*
X141629237Y-101882237D01*
X141616794Y-101892448D01*
X141606425Y-101899378D01*
X141589098Y-101916705D01*
X141575485Y-101937080D01*
X141566109Y-101959720D01*
X141561329Y-101983753D01*
X141561330Y-102008257D01*
X141566112Y-102032290D01*
X141575490Y-102054929D01*
X141589105Y-102075302D01*
X141606432Y-102092629D01*
X141616802Y-102099558D01*
X141629237Y-102109763D01*
X141635610Y-102117528D01*
X141640348Y-102126392D01*
X141643263Y-102136001D01*
X141644852Y-102152140D01*
X141644852Y-102639862D01*
X141643046Y-102658199D01*
X141642444Y-102670450D01*
X141642444Y-102688869D01*
X141640250Y-102711149D01*
X141623524Y-102795233D01*
X141617024Y-102816660D01*
X141584220Y-102895858D01*
X141581309Y-102901303D01*
X141581307Y-102901309D01*
X141576571Y-102910169D01*
X141576568Y-102910173D01*
X141573660Y-102915614D01*
X141526029Y-102986899D01*
X141511828Y-103004204D01*
X141451204Y-103064828D01*
X141433899Y-103079029D01*
X141362614Y-103126660D01*
X141357173Y-103129568D01*
X141357169Y-103129571D01*
X141348309Y-103134307D01*
X141348303Y-103134309D01*
X141342858Y-103137220D01*
X141263660Y-103170024D01*
X141242233Y-103176524D01*
X141158149Y-103193250D01*
X141135869Y-103195444D01*
X141117450Y-103195444D01*
X141105199Y-103196046D01*
X141086862Y-103197852D01*
X140599138Y-103197852D01*
X140580801Y-103196046D01*
X140568550Y-103195444D01*
X140550131Y-103195444D01*
X140527851Y-103193250D01*
X140443767Y-103176524D01*
X140422340Y-103170024D01*
X140343142Y-103137220D01*
X140337697Y-103134309D01*
X140337691Y-103134307D01*
X140328831Y-103129571D01*
X140328827Y-103129568D01*
X140323386Y-103126660D01*
X140252101Y-103079029D01*
X140234796Y-103064828D01*
X140174172Y-103004204D01*
X140159971Y-102986899D01*
X140112340Y-102915614D01*
X140109432Y-102910173D01*
X140109429Y-102910169D01*
X140104693Y-102901309D01*
X140104691Y-102901303D01*
X140101780Y-102895858D01*
X140068976Y-102816660D01*
X140062476Y-102795233D01*
X140045750Y-102711149D01*
X140043556Y-102688869D01*
X140043556Y-102670450D01*
X140042954Y-102658199D01*
X140041148Y-102639862D01*
X140041148Y-102152140D01*
X140042737Y-102136001D01*
X140045652Y-102126392D01*
X140050390Y-102117528D01*
X140056763Y-102109763D01*
X140069206Y-102099552D01*
X140079575Y-102092622D01*
X140096902Y-102075295D01*
X140110515Y-102054920D01*
X140119891Y-102032280D01*
X140124671Y-102008247D01*
X140124670Y-101983743D01*
X140119888Y-101959710D01*
X140110510Y-101937071D01*
X140096895Y-101916698D01*
X140079568Y-101899371D01*
X140069198Y-101892442D01*
X140056763Y-101882237D01*
X140050390Y-101874472D01*
X140045652Y-101865608D01*
X140042737Y-101855999D01*
X140041148Y-101839860D01*
X140041148Y-101352139D01*
X140042954Y-101333801D01*
X140043556Y-101321550D01*
X140043556Y-101303131D01*
X140045750Y-101280851D01*
X140062476Y-101196767D01*
X140068976Y-101175340D01*
X140101780Y-101096142D01*
X140104691Y-101090697D01*
X140104693Y-101090691D01*
X140109429Y-101081831D01*
X140109432Y-101081827D01*
X140112340Y-101076386D01*
X140159971Y-101005101D01*
X140174172Y-100987796D01*
X140234796Y-100927172D01*
X140252101Y-100912971D01*
X140323386Y-100865340D01*
X140328827Y-100862432D01*
X140328831Y-100862429D01*
X140337691Y-100857693D01*
X140337697Y-100857691D01*
X140343142Y-100854780D01*
X140422340Y-100821976D01*
X140443767Y-100815476D01*
X140527851Y-100798750D01*
X140550131Y-100796556D01*
X140568550Y-100796556D01*
X140580801Y-100795954D01*
X140599139Y-100794148D01*
X141086861Y-100794148D01*
X141105199Y-100795954D01*
X141105199Y-100795954D01*
G37*
G36*
X111349400Y-102865400D02*
G01*
X109747400Y-102865400D01*
X109747400Y-102163400D01*
X111349400Y-102163400D01*
X111349400Y-102865400D01*
X111349400Y-102865400D01*
G37*
G36*
X105949400Y-102865400D02*
G01*
X104347400Y-102865400D01*
X104347400Y-102163400D01*
X105949400Y-102163400D01*
X105949400Y-102865400D01*
X105949400Y-102865400D01*
G37*
G36*
X151575331Y-99982136D02*
G01*
X151678244Y-99992272D01*
X151873617Y-100051538D01*
X151942337Y-100072384D01*
X152171802Y-100195036D01*
X152185720Y-100202475D01*
X152241291Y-100248082D01*
X152399050Y-100377550D01*
X152528518Y-100535309D01*
X152574125Y-100590880D01*
X152574126Y-100590882D01*
X152704216Y-100834263D01*
X152704217Y-100834267D01*
X152784328Y-101098356D01*
X152811378Y-101373000D01*
X152784328Y-101647644D01*
X152726020Y-101839860D01*
X152704216Y-101911737D01*
X152603823Y-102099558D01*
X152574125Y-102155120D01*
X152528518Y-102210691D01*
X152399050Y-102368450D01*
X152289932Y-102458000D01*
X152185720Y-102543525D01*
X152185718Y-102543526D01*
X151942337Y-102673616D01*
X151892054Y-102688869D01*
X151678244Y-102753728D01*
X151575331Y-102763864D01*
X151472420Y-102774000D01*
X150734780Y-102774000D01*
X150631869Y-102763864D01*
X150528956Y-102753728D01*
X150315146Y-102688869D01*
X150264863Y-102673616D01*
X150021482Y-102543526D01*
X150021480Y-102543525D01*
X149917268Y-102458000D01*
X149808150Y-102368450D01*
X149678682Y-102210691D01*
X149633075Y-102155120D01*
X149603377Y-102099558D01*
X149502984Y-101911737D01*
X149481180Y-101839860D01*
X149422872Y-101647644D01*
X149395822Y-101373000D01*
X149422872Y-101098356D01*
X149502983Y-100834267D01*
X149502984Y-100834263D01*
X149633074Y-100590882D01*
X149633075Y-100590880D01*
X149678682Y-100535309D01*
X149808150Y-100377550D01*
X149965909Y-100248082D01*
X150021480Y-100202475D01*
X150035398Y-100195036D01*
X150264863Y-100072384D01*
X150333583Y-100051538D01*
X150528956Y-99992272D01*
X150631869Y-99982136D01*
X150734780Y-99972000D01*
X151472420Y-99972000D01*
X151575331Y-99982136D01*
X151575331Y-99982136D01*
G37*
G36*
X157075331Y-99982136D02*
G01*
X157178244Y-99992272D01*
X157373617Y-100051538D01*
X157442337Y-100072384D01*
X157671802Y-100195036D01*
X157685720Y-100202475D01*
X157741291Y-100248082D01*
X157899050Y-100377550D01*
X158028518Y-100535309D01*
X158074125Y-100590880D01*
X158074126Y-100590882D01*
X158204216Y-100834263D01*
X158204217Y-100834267D01*
X158284328Y-101098356D01*
X158311378Y-101373000D01*
X158284328Y-101647644D01*
X158226020Y-101839860D01*
X158204216Y-101911737D01*
X158103823Y-102099558D01*
X158074125Y-102155120D01*
X158028518Y-102210691D01*
X157899050Y-102368450D01*
X157789932Y-102458000D01*
X157685720Y-102543525D01*
X157685718Y-102543526D01*
X157442337Y-102673616D01*
X157392054Y-102688869D01*
X157178244Y-102753728D01*
X157075331Y-102763864D01*
X156972420Y-102774000D01*
X156234780Y-102774000D01*
X156131869Y-102763864D01*
X156028956Y-102753728D01*
X155815146Y-102688869D01*
X155764863Y-102673616D01*
X155521482Y-102543526D01*
X155521480Y-102543525D01*
X155417268Y-102458000D01*
X155308150Y-102368450D01*
X155178682Y-102210691D01*
X155133075Y-102155120D01*
X155103377Y-102099558D01*
X155002984Y-101911737D01*
X154981180Y-101839860D01*
X154922872Y-101647644D01*
X154895822Y-101373000D01*
X154922872Y-101098356D01*
X155002983Y-100834267D01*
X155002984Y-100834263D01*
X155133074Y-100590882D01*
X155133075Y-100590880D01*
X155178682Y-100535309D01*
X155308150Y-100377550D01*
X155465909Y-100248082D01*
X155521480Y-100202475D01*
X155535398Y-100195036D01*
X155764863Y-100072384D01*
X155833583Y-100051538D01*
X156028956Y-99992272D01*
X156131869Y-99982136D01*
X156234780Y-99972000D01*
X156972420Y-99972000D01*
X157075331Y-99982136D01*
X157075331Y-99982136D01*
G37*
G36*
X123017400Y-102612600D02*
G01*
X122265400Y-102612600D01*
X122265400Y-100950600D01*
X123017400Y-100950600D01*
X123017400Y-102612600D01*
X123017400Y-102612600D01*
G37*
G36*
X121117400Y-102612600D02*
G01*
X120365400Y-102612600D01*
X120365400Y-100950600D01*
X121117400Y-100950600D01*
X121117400Y-102612600D01*
X121117400Y-102612600D01*
G37*
G36*
X143582500Y-102419300D02*
G01*
X142580500Y-102419300D01*
X142580500Y-101517300D01*
X143582500Y-101517300D01*
X143582500Y-102419300D01*
X143582500Y-102419300D01*
G37*
G36*
X111349400Y-101595400D02*
G01*
X109747400Y-101595400D01*
X109747400Y-100893400D01*
X111349400Y-100893400D01*
X111349400Y-101595400D01*
X111349400Y-101595400D01*
G37*
G36*
X105949400Y-101595400D02*
G01*
X104347400Y-101595400D01*
X104347400Y-100893400D01*
X105949400Y-100893400D01*
X105949400Y-101595400D01*
X105949400Y-101595400D01*
G37*
G36*
X145582500Y-101469300D02*
G01*
X144580500Y-101469300D01*
X144580500Y-100567300D01*
X145582500Y-100567300D01*
X145582500Y-101469300D01*
X145582500Y-101469300D01*
G37*
G36*
X111349400Y-100325400D02*
G01*
X109747400Y-100325400D01*
X109747400Y-99623400D01*
X111349400Y-99623400D01*
X111349400Y-100325400D01*
X111349400Y-100325400D01*
G37*
G36*
X105949400Y-100325400D02*
G01*
X104347400Y-100325400D01*
X104347400Y-99623400D01*
X105949400Y-99623400D01*
X105949400Y-100325400D01*
X105949400Y-100325400D01*
G37*
G36*
X123017400Y-99912600D02*
G01*
X120365400Y-99912600D01*
X120365400Y-98250600D01*
X123017400Y-98250600D01*
X123017400Y-99912600D01*
X123017400Y-99912600D01*
G37*
G36*
X144115000Y-99131600D02*
G01*
X143413000Y-99131600D01*
X143413000Y-97479600D01*
X144115000Y-97479600D01*
X144115000Y-99131600D01*
X144115000Y-99131600D01*
G37*
G36*
X142845000Y-99131600D02*
G01*
X142143000Y-99131600D01*
X142143000Y-97479600D01*
X142845000Y-97479600D01*
X142845000Y-99131600D01*
X142845000Y-99131600D01*
G37*
G36*
X141575000Y-99131600D02*
G01*
X140873000Y-99131600D01*
X140873000Y-97479600D01*
X141575000Y-97479600D01*
X141575000Y-99131600D01*
X141575000Y-99131600D01*
G37*
G36*
X145385000Y-99131600D02*
G01*
X144683000Y-99131600D01*
X144683000Y-97479600D01*
X145385000Y-97479600D01*
X145385000Y-99131600D01*
X145385000Y-99131600D01*
G37*
G36*
X137665500Y-99120100D02*
G01*
X136913500Y-99120100D01*
X136913500Y-97458100D01*
X137665500Y-97458100D01*
X137665500Y-99120100D01*
X137665500Y-99120100D01*
G37*
G36*
X139565500Y-99120100D02*
G01*
X138813500Y-99120100D01*
X138813500Y-97458100D01*
X139565500Y-97458100D01*
X139565500Y-99120100D01*
X139565500Y-99120100D01*
G37*
G36*
X105949400Y-99055400D02*
G01*
X104347400Y-99055400D01*
X104347400Y-98353400D01*
X105949400Y-98353400D01*
X105949400Y-99055400D01*
X105949400Y-99055400D01*
G37*
G36*
X111349400Y-99055400D02*
G01*
X109747400Y-99055400D01*
X109747400Y-98353400D01*
X111349400Y-98353400D01*
X111349400Y-99055400D01*
X111349400Y-99055400D01*
G37*
G36*
X116632200Y-98710000D02*
G01*
X115930200Y-98710000D01*
X115930200Y-97058000D01*
X116632200Y-97058000D01*
X116632200Y-98710000D01*
X116632200Y-98710000D01*
G37*
G36*
X114092200Y-98710000D02*
G01*
X113390200Y-98710000D01*
X113390200Y-97058000D01*
X114092200Y-97058000D01*
X114092200Y-98710000D01*
X114092200Y-98710000D01*
G37*
G36*
X115362200Y-98710000D02*
G01*
X114660200Y-98710000D01*
X114660200Y-97058000D01*
X115362200Y-97058000D01*
X115362200Y-98710000D01*
X115362200Y-98710000D01*
G37*
G36*
X117902200Y-98710000D02*
G01*
X117200200Y-98710000D01*
X117200200Y-97058000D01*
X117902200Y-97058000D01*
X117902200Y-98710000D01*
X117902200Y-98710000D01*
G37*
G36*
X151575331Y-95782136D02*
G01*
X151678244Y-95792272D01*
X151873617Y-95851538D01*
X151942337Y-95872384D01*
X152171802Y-95995036D01*
X152185720Y-96002475D01*
X152241291Y-96048082D01*
X152399050Y-96177550D01*
X152481158Y-96277600D01*
X152574125Y-96390880D01*
X152574126Y-96390882D01*
X152704216Y-96634263D01*
X152704217Y-96634267D01*
X152784328Y-96898356D01*
X152811378Y-97173000D01*
X152784328Y-97447644D01*
X152781156Y-97458100D01*
X152704216Y-97711737D01*
X152581564Y-97941202D01*
X152574125Y-97955120D01*
X152528518Y-98010691D01*
X152399050Y-98168450D01*
X152298949Y-98250600D01*
X152185720Y-98343525D01*
X152185718Y-98343526D01*
X151942337Y-98473616D01*
X151873617Y-98494462D01*
X151678244Y-98553728D01*
X151575331Y-98563864D01*
X151472420Y-98574000D01*
X150734780Y-98574000D01*
X150631869Y-98563864D01*
X150528956Y-98553728D01*
X150333583Y-98494462D01*
X150264863Y-98473616D01*
X150021482Y-98343526D01*
X150021480Y-98343525D01*
X149908251Y-98250600D01*
X149808150Y-98168450D01*
X149678682Y-98010691D01*
X149633075Y-97955120D01*
X149625636Y-97941202D01*
X149502984Y-97711737D01*
X149426044Y-97458100D01*
X149422872Y-97447644D01*
X149395822Y-97173000D01*
X149422872Y-96898356D01*
X149502983Y-96634267D01*
X149502984Y-96634263D01*
X149633074Y-96390882D01*
X149633075Y-96390880D01*
X149726042Y-96277600D01*
X149808150Y-96177550D01*
X149965909Y-96048082D01*
X150021480Y-96002475D01*
X150035398Y-95995036D01*
X150264863Y-95872384D01*
X150333583Y-95851538D01*
X150528956Y-95792272D01*
X150631869Y-95782136D01*
X150734780Y-95772000D01*
X151472420Y-95772000D01*
X151575331Y-95782136D01*
X151575331Y-95782136D01*
G37*
G36*
X157075331Y-95782136D02*
G01*
X157178244Y-95792272D01*
X157373617Y-95851538D01*
X157442337Y-95872384D01*
X157671802Y-95995036D01*
X157685720Y-96002475D01*
X157741291Y-96048082D01*
X157899050Y-96177550D01*
X157981158Y-96277600D01*
X158074125Y-96390880D01*
X158074126Y-96390882D01*
X158204216Y-96634263D01*
X158204217Y-96634267D01*
X158284328Y-96898356D01*
X158311378Y-97173000D01*
X158284328Y-97447644D01*
X158281156Y-97458100D01*
X158204216Y-97711737D01*
X158081564Y-97941202D01*
X158074125Y-97955120D01*
X158028518Y-98010691D01*
X157899050Y-98168450D01*
X157798949Y-98250600D01*
X157685720Y-98343525D01*
X157685718Y-98343526D01*
X157442337Y-98473616D01*
X157373617Y-98494462D01*
X157178244Y-98553728D01*
X157075331Y-98563864D01*
X156972420Y-98574000D01*
X156234780Y-98574000D01*
X156131869Y-98563864D01*
X156028956Y-98553728D01*
X155833583Y-98494462D01*
X155764863Y-98473616D01*
X155521482Y-98343526D01*
X155521480Y-98343525D01*
X155408251Y-98250600D01*
X155308150Y-98168450D01*
X155178682Y-98010691D01*
X155133075Y-97955120D01*
X155125636Y-97941202D01*
X155002984Y-97711737D01*
X154926044Y-97458100D01*
X154922872Y-97447644D01*
X154895822Y-97173000D01*
X154922872Y-96898356D01*
X155002983Y-96634267D01*
X155002984Y-96634263D01*
X155133074Y-96390882D01*
X155133075Y-96390880D01*
X155226042Y-96277600D01*
X155308150Y-96177550D01*
X155465909Y-96048082D01*
X155521480Y-96002475D01*
X155535398Y-95995036D01*
X155764863Y-95872384D01*
X155833583Y-95851538D01*
X156028956Y-95792272D01*
X156131869Y-95782136D01*
X156234780Y-95772000D01*
X156972420Y-95772000D01*
X157075331Y-95782136D01*
X157075331Y-95782136D01*
G37*
G36*
X105949400Y-97785400D02*
G01*
X104347400Y-97785400D01*
X104347400Y-97083400D01*
X105949400Y-97083400D01*
X105949400Y-97785400D01*
X105949400Y-97785400D01*
G37*
G36*
X111349400Y-97785400D02*
G01*
X109747400Y-97785400D01*
X109747400Y-97083400D01*
X111349400Y-97083400D01*
X111349400Y-97785400D01*
X111349400Y-97785400D01*
G37*
G36*
X135123400Y-96717400D02*
G01*
X134421400Y-96717400D01*
X134421400Y-95115400D01*
X135123400Y-95115400D01*
X135123400Y-96717400D01*
X135123400Y-96717400D01*
G37*
G36*
X126233400Y-96717400D02*
G01*
X125531400Y-96717400D01*
X125531400Y-95115400D01*
X126233400Y-95115400D01*
X126233400Y-96717400D01*
X126233400Y-96717400D01*
G37*
G36*
X127503400Y-96717400D02*
G01*
X126801400Y-96717400D01*
X126801400Y-95115400D01*
X127503400Y-95115400D01*
X127503400Y-96717400D01*
X127503400Y-96717400D01*
G37*
G36*
X131313400Y-96717400D02*
G01*
X130611400Y-96717400D01*
X130611400Y-95115400D01*
X131313400Y-95115400D01*
X131313400Y-96717400D01*
X131313400Y-96717400D01*
G37*
G36*
X133853400Y-96717400D02*
G01*
X133151400Y-96717400D01*
X133151400Y-95115400D01*
X133853400Y-95115400D01*
X133853400Y-96717400D01*
X133853400Y-96717400D01*
G37*
G36*
X128773400Y-96717400D02*
G01*
X128071400Y-96717400D01*
X128071400Y-95115400D01*
X128773400Y-95115400D01*
X128773400Y-96717400D01*
X128773400Y-96717400D01*
G37*
G36*
X130043400Y-96717400D02*
G01*
X129341400Y-96717400D01*
X129341400Y-95115400D01*
X130043400Y-95115400D01*
X130043400Y-96717400D01*
X130043400Y-96717400D01*
G37*
G36*
X132583400Y-96717400D02*
G01*
X131881400Y-96717400D01*
X131881400Y-95115400D01*
X132583400Y-95115400D01*
X132583400Y-96717400D01*
X132583400Y-96717400D01*
G37*
G36*
X111349400Y-96515400D02*
G01*
X109747400Y-96515400D01*
X109747400Y-95813400D01*
X111349400Y-95813400D01*
X111349400Y-96515400D01*
X111349400Y-96515400D01*
G37*
G36*
X105949400Y-96515400D02*
G01*
X104347400Y-96515400D01*
X104347400Y-95813400D01*
X105949400Y-95813400D01*
X105949400Y-96515400D01*
X105949400Y-96515400D01*
G37*
G36*
X139565500Y-96420100D02*
G01*
X136913500Y-96420100D01*
X136913500Y-94758100D01*
X139565500Y-94758100D01*
X139565500Y-96420100D01*
X139565500Y-96420100D01*
G37*
G36*
X117681662Y-94429781D02*
G01*
X117716581Y-94440374D01*
X117748763Y-94457576D01*
X117776973Y-94480727D01*
X117800124Y-94508937D01*
X117817326Y-94541119D01*
X117827919Y-94576038D01*
X117832100Y-94618495D01*
X117832100Y-96084705D01*
X117827919Y-96127162D01*
X117817326Y-96162081D01*
X117800124Y-96194263D01*
X117776973Y-96222473D01*
X117748763Y-96245624D01*
X117716581Y-96262826D01*
X117681662Y-96273419D01*
X117639205Y-96277600D01*
X116497995Y-96277600D01*
X116455538Y-96273419D01*
X116420619Y-96262826D01*
X116388437Y-96245624D01*
X116360227Y-96222473D01*
X116337076Y-96194263D01*
X116319874Y-96162081D01*
X116309281Y-96127162D01*
X116305100Y-96084705D01*
X116305100Y-94618495D01*
X116309281Y-94576038D01*
X116319874Y-94541119D01*
X116337076Y-94508937D01*
X116360227Y-94480727D01*
X116388437Y-94457576D01*
X116420619Y-94440374D01*
X116455538Y-94429781D01*
X116497995Y-94425600D01*
X117639205Y-94425600D01*
X117681662Y-94429781D01*
X117681662Y-94429781D01*
G37*
G36*
X114706662Y-94429781D02*
G01*
X114741581Y-94440374D01*
X114773763Y-94457576D01*
X114801973Y-94480727D01*
X114825124Y-94508937D01*
X114842326Y-94541119D01*
X114852919Y-94576038D01*
X114857100Y-94618495D01*
X114857100Y-96084705D01*
X114852919Y-96127162D01*
X114842326Y-96162081D01*
X114825124Y-96194263D01*
X114801973Y-96222473D01*
X114773763Y-96245624D01*
X114741581Y-96262826D01*
X114706662Y-96273419D01*
X114664205Y-96277600D01*
X113522995Y-96277600D01*
X113480538Y-96273419D01*
X113445619Y-96262826D01*
X113413437Y-96245624D01*
X113385227Y-96222473D01*
X113362076Y-96194263D01*
X113344874Y-96162081D01*
X113334281Y-96127162D01*
X113330100Y-96084705D01*
X113330100Y-94618495D01*
X113334281Y-94576038D01*
X113344874Y-94541119D01*
X113362076Y-94508937D01*
X113385227Y-94480727D01*
X113413437Y-94457576D01*
X113445619Y-94440374D01*
X113480538Y-94429781D01*
X113522995Y-94425600D01*
X114664205Y-94425600D01*
X114706662Y-94429781D01*
X114706662Y-94429781D01*
G37*
G36*
X120790562Y-93133381D02*
G01*
X120825481Y-93143974D01*
X120857663Y-93161176D01*
X120885873Y-93184327D01*
X120909024Y-93212537D01*
X120926226Y-93244719D01*
X120936819Y-93279638D01*
X120941000Y-93322095D01*
X120941000Y-94463305D01*
X120936819Y-94505762D01*
X120926226Y-94540681D01*
X120909024Y-94572863D01*
X120885873Y-94601073D01*
X120857663Y-94624224D01*
X120825481Y-94641426D01*
X120790562Y-94652019D01*
X120748105Y-94656200D01*
X119281895Y-94656200D01*
X119239438Y-94652019D01*
X119204519Y-94641426D01*
X119172337Y-94624224D01*
X119144127Y-94601073D01*
X119120976Y-94572863D01*
X119103774Y-94540681D01*
X119093181Y-94505762D01*
X119089000Y-94463305D01*
X119089000Y-93322095D01*
X119093181Y-93279638D01*
X119103774Y-93244719D01*
X119120976Y-93212537D01*
X119144127Y-93184327D01*
X119172337Y-93161176D01*
X119204519Y-93143974D01*
X119239438Y-93133381D01*
X119281895Y-93129200D01*
X120748105Y-93129200D01*
X120790562Y-93133381D01*
X120790562Y-93133381D01*
G37*
G36*
X111349400Y-94381800D02*
G01*
X109747400Y-94381800D01*
X109747400Y-93679800D01*
X111349400Y-93679800D01*
X111349400Y-94381800D01*
X111349400Y-94381800D01*
G37*
G36*
X105949400Y-94381800D02*
G01*
X104347400Y-94381800D01*
X104347400Y-93679800D01*
X105949400Y-93679800D01*
X105949400Y-94381800D01*
X105949400Y-94381800D01*
G37*
G36*
X151575331Y-91582136D02*
G01*
X151678244Y-91592272D01*
X151822566Y-91636052D01*
X151942337Y-91672384D01*
X152158978Y-91788181D01*
X152185720Y-91802475D01*
X152218221Y-91829148D01*
X152399050Y-91977550D01*
X152500999Y-92101776D01*
X152574125Y-92190880D01*
X152574126Y-92190882D01*
X152704216Y-92434263D01*
X152704217Y-92434267D01*
X152784328Y-92698356D01*
X152811378Y-92973000D01*
X152784328Y-93247644D01*
X152770091Y-93294576D01*
X152704216Y-93511737D01*
X152614384Y-93679800D01*
X152574125Y-93755120D01*
X152529874Y-93809039D01*
X152399050Y-93968450D01*
X152241291Y-94097918D01*
X152185720Y-94143525D01*
X152185718Y-94143526D01*
X151942337Y-94273616D01*
X151873617Y-94294462D01*
X151678244Y-94353728D01*
X151575331Y-94363864D01*
X151472420Y-94374000D01*
X150734780Y-94374000D01*
X150631869Y-94363864D01*
X150528956Y-94353728D01*
X150333583Y-94294462D01*
X150264863Y-94273616D01*
X150021482Y-94143526D01*
X150021480Y-94143525D01*
X149965909Y-94097918D01*
X149808150Y-93968450D01*
X149677326Y-93809039D01*
X149633075Y-93755120D01*
X149592816Y-93679800D01*
X149502984Y-93511737D01*
X149437109Y-93294576D01*
X149422872Y-93247644D01*
X149395822Y-92973000D01*
X149422872Y-92698356D01*
X149502983Y-92434267D01*
X149502984Y-92434263D01*
X149633074Y-92190882D01*
X149633075Y-92190880D01*
X149706201Y-92101776D01*
X149808150Y-91977550D01*
X149988979Y-91829148D01*
X150021480Y-91802475D01*
X150048222Y-91788181D01*
X150264863Y-91672384D01*
X150384634Y-91636052D01*
X150528956Y-91592272D01*
X150631869Y-91582136D01*
X150734780Y-91572000D01*
X151472420Y-91572000D01*
X151575331Y-91582136D01*
X151575331Y-91582136D01*
G37*
G36*
X157075331Y-91582136D02*
G01*
X157178244Y-91592272D01*
X157322566Y-91636052D01*
X157442337Y-91672384D01*
X157658978Y-91788181D01*
X157685720Y-91802475D01*
X157718221Y-91829148D01*
X157899050Y-91977550D01*
X158000999Y-92101776D01*
X158074125Y-92190880D01*
X158074126Y-92190882D01*
X158204216Y-92434263D01*
X158204217Y-92434267D01*
X158284328Y-92698356D01*
X158311378Y-92973000D01*
X158284328Y-93247644D01*
X158270091Y-93294576D01*
X158204216Y-93511737D01*
X158114384Y-93679800D01*
X158074125Y-93755120D01*
X158029874Y-93809039D01*
X157899050Y-93968450D01*
X157741291Y-94097918D01*
X157685720Y-94143525D01*
X157685718Y-94143526D01*
X157442337Y-94273616D01*
X157373617Y-94294462D01*
X157178244Y-94353728D01*
X157075331Y-94363864D01*
X156972420Y-94374000D01*
X156234780Y-94374000D01*
X156131869Y-94363864D01*
X156028956Y-94353728D01*
X155833583Y-94294462D01*
X155764863Y-94273616D01*
X155521482Y-94143526D01*
X155521480Y-94143525D01*
X155465909Y-94097918D01*
X155308150Y-93968450D01*
X155177326Y-93809039D01*
X155133075Y-93755120D01*
X155092816Y-93679800D01*
X155002984Y-93511737D01*
X154937109Y-93294576D01*
X154922872Y-93247644D01*
X154895822Y-92973000D01*
X154922872Y-92698356D01*
X155002983Y-92434267D01*
X155002984Y-92434263D01*
X155133074Y-92190882D01*
X155133075Y-92190880D01*
X155206201Y-92101776D01*
X155308150Y-91977550D01*
X155488979Y-91829148D01*
X155521480Y-91802475D01*
X155548222Y-91788181D01*
X155764863Y-91672384D01*
X155884634Y-91636052D01*
X156028956Y-91592272D01*
X156131869Y-91582136D01*
X156234780Y-91572000D01*
X156972420Y-91572000D01*
X157075331Y-91582136D01*
X157075331Y-91582136D01*
G37*
G36*
X136920562Y-92080281D02*
G01*
X136955481Y-92090874D01*
X136987663Y-92108076D01*
X137015873Y-92131227D01*
X137039024Y-92159437D01*
X137056226Y-92191619D01*
X137066819Y-92226538D01*
X137071000Y-92268995D01*
X137071000Y-93735205D01*
X137066819Y-93777662D01*
X137056226Y-93812581D01*
X137039024Y-93844763D01*
X137015873Y-93872973D01*
X136987663Y-93896124D01*
X136955481Y-93913326D01*
X136920562Y-93923919D01*
X136878105Y-93928100D01*
X135736895Y-93928100D01*
X135694438Y-93923919D01*
X135659519Y-93913326D01*
X135627337Y-93896124D01*
X135599127Y-93872973D01*
X135575976Y-93844763D01*
X135558774Y-93812581D01*
X135548181Y-93777662D01*
X135544000Y-93735205D01*
X135544000Y-92268995D01*
X135548181Y-92226538D01*
X135558774Y-92191619D01*
X135575976Y-92159437D01*
X135599127Y-92131227D01*
X135627337Y-92108076D01*
X135659519Y-92090874D01*
X135694438Y-92080281D01*
X135736895Y-92076100D01*
X136878105Y-92076100D01*
X136920562Y-92080281D01*
X136920562Y-92080281D01*
G37*
G36*
X139895562Y-92080281D02*
G01*
X139930481Y-92090874D01*
X139962663Y-92108076D01*
X139990873Y-92131227D01*
X140014024Y-92159437D01*
X140031226Y-92191619D01*
X140041819Y-92226538D01*
X140046000Y-92268995D01*
X140046000Y-93735205D01*
X140041819Y-93777662D01*
X140031226Y-93812581D01*
X140014024Y-93844763D01*
X139990873Y-93872973D01*
X139962663Y-93896124D01*
X139930481Y-93913326D01*
X139895562Y-93923919D01*
X139853105Y-93928100D01*
X138711895Y-93928100D01*
X138669438Y-93923919D01*
X138634519Y-93913326D01*
X138602337Y-93896124D01*
X138574127Y-93872973D01*
X138550976Y-93844763D01*
X138533774Y-93812581D01*
X138523181Y-93777662D01*
X138519000Y-93735205D01*
X138519000Y-92268995D01*
X138523181Y-92226538D01*
X138533774Y-92191619D01*
X138550976Y-92159437D01*
X138574127Y-92131227D01*
X138602337Y-92108076D01*
X138634519Y-92090874D01*
X138669438Y-92080281D01*
X138711895Y-92076100D01*
X139853105Y-92076100D01*
X139895562Y-92080281D01*
X139895562Y-92080281D01*
G37*
G36*
X133494762Y-91940581D02*
G01*
X133529681Y-91951174D01*
X133561863Y-91968376D01*
X133590073Y-91991527D01*
X133613224Y-92019737D01*
X133630426Y-92051919D01*
X133641019Y-92086838D01*
X133645200Y-92129295D01*
X133645200Y-93595505D01*
X133641019Y-93637962D01*
X133630426Y-93672881D01*
X133613224Y-93705063D01*
X133590073Y-93733273D01*
X133561863Y-93756424D01*
X133529681Y-93773626D01*
X133494762Y-93784219D01*
X133452305Y-93788400D01*
X132311095Y-93788400D01*
X132268638Y-93784219D01*
X132233719Y-93773626D01*
X132201537Y-93756424D01*
X132173327Y-93733273D01*
X132150176Y-93705063D01*
X132132974Y-93672881D01*
X132122381Y-93637962D01*
X132118200Y-93595505D01*
X132118200Y-92129295D01*
X132122381Y-92086838D01*
X132132974Y-92051919D01*
X132150176Y-92019737D01*
X132173327Y-91991527D01*
X132201537Y-91968376D01*
X132233719Y-91951174D01*
X132268638Y-91940581D01*
X132311095Y-91936400D01*
X133452305Y-91936400D01*
X133494762Y-91940581D01*
X133494762Y-91940581D01*
G37*
G36*
X130519762Y-91940581D02*
G01*
X130554681Y-91951174D01*
X130586863Y-91968376D01*
X130615073Y-91991527D01*
X130638224Y-92019737D01*
X130655426Y-92051919D01*
X130666019Y-92086838D01*
X130670200Y-92129295D01*
X130670200Y-93595505D01*
X130666019Y-93637962D01*
X130655426Y-93672881D01*
X130638224Y-93705063D01*
X130615073Y-93733273D01*
X130586863Y-93756424D01*
X130554681Y-93773626D01*
X130519762Y-93784219D01*
X130477305Y-93788400D01*
X129336095Y-93788400D01*
X129293638Y-93784219D01*
X129258719Y-93773626D01*
X129226537Y-93756424D01*
X129198327Y-93733273D01*
X129175176Y-93705063D01*
X129157974Y-93672881D01*
X129147381Y-93637962D01*
X129143200Y-93595505D01*
X129143200Y-92129295D01*
X129147381Y-92086838D01*
X129157974Y-92051919D01*
X129175176Y-92019737D01*
X129198327Y-91991527D01*
X129226537Y-91968376D01*
X129258719Y-91951174D01*
X129293638Y-91940581D01*
X129336095Y-91936400D01*
X130477305Y-91936400D01*
X130519762Y-91940581D01*
X130519762Y-91940581D01*
G37*
G36*
X142845000Y-93731600D02*
G01*
X142143000Y-93731600D01*
X142143000Y-92079600D01*
X142845000Y-92079600D01*
X142845000Y-93731600D01*
X142845000Y-93731600D01*
G37*
G36*
X145385000Y-93731600D02*
G01*
X144683000Y-93731600D01*
X144683000Y-92079600D01*
X145385000Y-92079600D01*
X145385000Y-93731600D01*
X145385000Y-93731600D01*
G37*
G36*
X141575000Y-93731600D02*
G01*
X140873000Y-93731600D01*
X140873000Y-92079600D01*
X141575000Y-92079600D01*
X141575000Y-93731600D01*
X141575000Y-93731600D01*
G37*
G36*
X144115000Y-93731600D02*
G01*
X143413000Y-93731600D01*
X143413000Y-92079600D01*
X144115000Y-92079600D01*
X144115000Y-93731600D01*
X144115000Y-93731600D01*
G37*
G36*
X115225600Y-93698200D02*
G01*
X113323600Y-93698200D01*
X113323600Y-90096200D01*
X115225600Y-90096200D01*
X115225600Y-93698200D01*
X115225600Y-93698200D01*
G37*
G36*
X118216074Y-92411265D02*
G01*
X118253767Y-92422699D01*
X118288503Y-92441266D01*
X118318948Y-92466252D01*
X118343934Y-92496697D01*
X118362501Y-92531433D01*
X118373935Y-92569126D01*
X118378400Y-92614461D01*
X118378400Y-93451139D01*
X118373935Y-93496474D01*
X118362501Y-93534167D01*
X118343934Y-93568903D01*
X118318948Y-93599348D01*
X118288503Y-93624334D01*
X118253767Y-93642901D01*
X118216074Y-93654335D01*
X118170739Y-93658800D01*
X117084061Y-93658800D01*
X117038726Y-93654335D01*
X117001033Y-93642901D01*
X116966297Y-93624334D01*
X116935852Y-93599348D01*
X116910866Y-93568903D01*
X116892299Y-93534167D01*
X116880865Y-93496474D01*
X116876400Y-93451139D01*
X116876400Y-92614461D01*
X116880865Y-92569126D01*
X116892299Y-92531433D01*
X116910866Y-92496697D01*
X116935852Y-92466252D01*
X116966297Y-92441266D01*
X117001033Y-92422699D01*
X117038726Y-92411265D01*
X117084061Y-92406800D01*
X118170739Y-92406800D01*
X118216074Y-92411265D01*
X118216074Y-92411265D01*
G37*
G36*
X124728562Y-91788181D02*
G01*
X124763481Y-91798774D01*
X124795663Y-91815976D01*
X124823873Y-91839127D01*
X124847024Y-91867337D01*
X124864226Y-91899519D01*
X124874819Y-91934438D01*
X124879000Y-91976895D01*
X124879000Y-93443105D01*
X124874819Y-93485562D01*
X124864226Y-93520481D01*
X124847024Y-93552663D01*
X124823873Y-93580873D01*
X124795663Y-93604024D01*
X124763481Y-93621226D01*
X124728562Y-93631819D01*
X124686105Y-93636000D01*
X123544895Y-93636000D01*
X123502438Y-93631819D01*
X123467519Y-93621226D01*
X123435337Y-93604024D01*
X123407127Y-93580873D01*
X123383976Y-93552663D01*
X123366774Y-93520481D01*
X123356181Y-93485562D01*
X123352000Y-93443105D01*
X123352000Y-91976895D01*
X123356181Y-91934438D01*
X123366774Y-91899519D01*
X123383976Y-91867337D01*
X123407127Y-91839127D01*
X123435337Y-91815976D01*
X123467519Y-91798774D01*
X123502438Y-91788181D01*
X123544895Y-91784000D01*
X124686105Y-91784000D01*
X124728562Y-91788181D01*
X124728562Y-91788181D01*
G37*
G36*
X127703562Y-91788181D02*
G01*
X127738481Y-91798774D01*
X127770663Y-91815976D01*
X127798873Y-91839127D01*
X127822024Y-91867337D01*
X127839226Y-91899519D01*
X127849819Y-91934438D01*
X127854000Y-91976895D01*
X127854000Y-93443105D01*
X127849819Y-93485562D01*
X127839226Y-93520481D01*
X127822024Y-93552663D01*
X127798873Y-93580873D01*
X127770663Y-93604024D01*
X127738481Y-93621226D01*
X127703562Y-93631819D01*
X127661105Y-93636000D01*
X126519895Y-93636000D01*
X126477438Y-93631819D01*
X126442519Y-93621226D01*
X126410337Y-93604024D01*
X126382127Y-93580873D01*
X126358976Y-93552663D01*
X126341774Y-93520481D01*
X126331181Y-93485562D01*
X126327000Y-93443105D01*
X126327000Y-91976895D01*
X126331181Y-91934438D01*
X126341774Y-91899519D01*
X126358976Y-91867337D01*
X126382127Y-91839127D01*
X126410337Y-91815976D01*
X126442519Y-91798774D01*
X126477438Y-91788181D01*
X126519895Y-91784000D01*
X127661105Y-91784000D01*
X127703562Y-91788181D01*
X127703562Y-91788181D01*
G37*
G36*
X105949400Y-93111800D02*
G01*
X104347400Y-93111800D01*
X104347400Y-92409800D01*
X105949400Y-92409800D01*
X105949400Y-93111800D01*
X105949400Y-93111800D01*
G37*
G36*
X111349400Y-93111800D02*
G01*
X109747400Y-93111800D01*
X109747400Y-92409800D01*
X111349400Y-92409800D01*
X111349400Y-93111800D01*
X111349400Y-93111800D01*
G37*
G36*
X105949400Y-91841800D02*
G01*
X104347400Y-91841800D01*
X104347400Y-91139800D01*
X105949400Y-91139800D01*
X105949400Y-91841800D01*
X105949400Y-91841800D01*
G37*
G36*
X111349400Y-91841800D02*
G01*
X109747400Y-91841800D01*
X109747400Y-91139800D01*
X111349400Y-91139800D01*
X111349400Y-91841800D01*
X111349400Y-91841800D01*
G37*
G36*
X120790562Y-90158381D02*
G01*
X120825481Y-90168974D01*
X120857663Y-90186176D01*
X120885873Y-90209327D01*
X120909024Y-90237537D01*
X120926226Y-90269719D01*
X120936819Y-90304638D01*
X120941000Y-90347095D01*
X120941000Y-91488305D01*
X120936819Y-91530762D01*
X120926226Y-91565681D01*
X120909024Y-91597863D01*
X120885873Y-91626073D01*
X120857663Y-91649224D01*
X120825481Y-91666426D01*
X120790562Y-91677019D01*
X120748105Y-91681200D01*
X119281895Y-91681200D01*
X119239438Y-91677019D01*
X119204519Y-91666426D01*
X119172337Y-91649224D01*
X119144127Y-91626073D01*
X119120976Y-91597863D01*
X119103774Y-91565681D01*
X119093181Y-91530762D01*
X119089000Y-91488305D01*
X119089000Y-90347095D01*
X119093181Y-90304638D01*
X119103774Y-90269719D01*
X119120976Y-90237537D01*
X119144127Y-90209327D01*
X119172337Y-90186176D01*
X119204519Y-90168974D01*
X119239438Y-90158381D01*
X119281895Y-90154200D01*
X120748105Y-90154200D01*
X120790562Y-90158381D01*
X120790562Y-90158381D01*
G37*
G36*
X118216074Y-90361265D02*
G01*
X118253767Y-90372699D01*
X118288503Y-90391266D01*
X118318948Y-90416252D01*
X118343934Y-90446697D01*
X118362501Y-90481433D01*
X118373935Y-90519126D01*
X118378400Y-90564461D01*
X118378400Y-91401139D01*
X118373935Y-91446474D01*
X118362501Y-91484167D01*
X118343934Y-91518903D01*
X118318948Y-91549348D01*
X118288503Y-91574334D01*
X118253767Y-91592901D01*
X118216074Y-91604335D01*
X118170739Y-91608800D01*
X117084061Y-91608800D01*
X117038726Y-91604335D01*
X117001033Y-91592901D01*
X116966297Y-91574334D01*
X116935852Y-91549348D01*
X116910866Y-91518903D01*
X116892299Y-91484167D01*
X116880865Y-91446474D01*
X116876400Y-91401139D01*
X116876400Y-90564461D01*
X116880865Y-90519126D01*
X116892299Y-90481433D01*
X116910866Y-90446697D01*
X116935852Y-90416252D01*
X116966297Y-90391266D01*
X117001033Y-90372699D01*
X117038726Y-90361265D01*
X117084061Y-90356800D01*
X118170739Y-90356800D01*
X118216074Y-90361265D01*
X118216074Y-90361265D01*
G37*
G36*
X139895562Y-89540281D02*
G01*
X139930481Y-89550874D01*
X139962663Y-89568076D01*
X139990873Y-89591227D01*
X140014024Y-89619437D01*
X140031226Y-89651619D01*
X140041819Y-89686538D01*
X140046000Y-89728995D01*
X140046000Y-91195205D01*
X140041819Y-91237662D01*
X140031226Y-91272581D01*
X140014024Y-91304763D01*
X139990873Y-91332973D01*
X139962663Y-91356124D01*
X139930481Y-91373326D01*
X139895562Y-91383919D01*
X139853105Y-91388100D01*
X138711895Y-91388100D01*
X138669438Y-91383919D01*
X138634519Y-91373326D01*
X138602337Y-91356124D01*
X138574127Y-91332973D01*
X138550976Y-91304763D01*
X138533774Y-91272581D01*
X138523181Y-91237662D01*
X138519000Y-91195205D01*
X138519000Y-89728995D01*
X138523181Y-89686538D01*
X138533774Y-89651619D01*
X138550976Y-89619437D01*
X138574127Y-89591227D01*
X138602337Y-89568076D01*
X138634519Y-89550874D01*
X138669438Y-89540281D01*
X138711895Y-89536100D01*
X139853105Y-89536100D01*
X139895562Y-89540281D01*
X139895562Y-89540281D01*
G37*
G36*
X136920562Y-89540281D02*
G01*
X136955481Y-89550874D01*
X136987663Y-89568076D01*
X137015873Y-89591227D01*
X137039024Y-89619437D01*
X137056226Y-89651619D01*
X137066819Y-89686538D01*
X137071000Y-89728995D01*
X137071000Y-91195205D01*
X137066819Y-91237662D01*
X137056226Y-91272581D01*
X137039024Y-91304763D01*
X137015873Y-91332973D01*
X136987663Y-91356124D01*
X136955481Y-91373326D01*
X136920562Y-91383919D01*
X136878105Y-91388100D01*
X135736895Y-91388100D01*
X135694438Y-91383919D01*
X135659519Y-91373326D01*
X135627337Y-91356124D01*
X135599127Y-91332973D01*
X135575976Y-91304763D01*
X135558774Y-91272581D01*
X135548181Y-91237662D01*
X135544000Y-91195205D01*
X135544000Y-89728995D01*
X135548181Y-89686538D01*
X135558774Y-89651619D01*
X135575976Y-89619437D01*
X135599127Y-89591227D01*
X135627337Y-89568076D01*
X135659519Y-89550874D01*
X135694438Y-89540281D01*
X135736895Y-89536100D01*
X136878105Y-89536100D01*
X136920562Y-89540281D01*
X136920562Y-89540281D01*
G37*
G36*
X145012062Y-89540281D02*
G01*
X145046981Y-89550874D01*
X145079163Y-89568076D01*
X145107373Y-89591227D01*
X145130524Y-89619437D01*
X145147726Y-89651619D01*
X145158319Y-89686538D01*
X145162500Y-89728995D01*
X145162500Y-91195205D01*
X145158319Y-91237662D01*
X145147726Y-91272581D01*
X145130524Y-91304763D01*
X145107373Y-91332973D01*
X145079163Y-91356124D01*
X145046981Y-91373326D01*
X145012062Y-91383919D01*
X144969605Y-91388100D01*
X143828395Y-91388100D01*
X143785938Y-91383919D01*
X143751019Y-91373326D01*
X143718837Y-91356124D01*
X143690627Y-91332973D01*
X143667476Y-91304763D01*
X143650274Y-91272581D01*
X143639681Y-91237662D01*
X143635500Y-91195205D01*
X143635500Y-89728995D01*
X143639681Y-89686538D01*
X143650274Y-89651619D01*
X143667476Y-89619437D01*
X143690627Y-89591227D01*
X143718837Y-89568076D01*
X143751019Y-89550874D01*
X143785938Y-89540281D01*
X143828395Y-89536100D01*
X144969605Y-89536100D01*
X145012062Y-89540281D01*
X145012062Y-89540281D01*
G37*
G36*
X142037062Y-89540281D02*
G01*
X142071981Y-89550874D01*
X142104163Y-89568076D01*
X142132373Y-89591227D01*
X142155524Y-89619437D01*
X142172726Y-89651619D01*
X142183319Y-89686538D01*
X142187500Y-89728995D01*
X142187500Y-91195205D01*
X142183319Y-91237662D01*
X142172726Y-91272581D01*
X142155524Y-91304763D01*
X142132373Y-91332973D01*
X142104163Y-91356124D01*
X142071981Y-91373326D01*
X142037062Y-91383919D01*
X141994605Y-91388100D01*
X140853395Y-91388100D01*
X140810938Y-91383919D01*
X140776019Y-91373326D01*
X140743837Y-91356124D01*
X140715627Y-91332973D01*
X140692476Y-91304763D01*
X140675274Y-91272581D01*
X140664681Y-91237662D01*
X140660500Y-91195205D01*
X140660500Y-89728995D01*
X140664681Y-89686538D01*
X140675274Y-89651619D01*
X140692476Y-89619437D01*
X140715627Y-89591227D01*
X140743837Y-89568076D01*
X140776019Y-89550874D01*
X140810938Y-89540281D01*
X140853395Y-89536100D01*
X141994605Y-89536100D01*
X142037062Y-89540281D01*
X142037062Y-89540281D01*
G37*
G36*
X132329400Y-91308400D02*
G01*
X131627400Y-91308400D01*
X131627400Y-89656400D01*
X132329400Y-89656400D01*
X132329400Y-91308400D01*
X132329400Y-91308400D01*
G37*
G36*
X131059400Y-91308400D02*
G01*
X130357400Y-91308400D01*
X130357400Y-89656400D01*
X131059400Y-89656400D01*
X131059400Y-91308400D01*
X131059400Y-91308400D01*
G37*
G36*
X133599400Y-91308400D02*
G01*
X132897400Y-91308400D01*
X132897400Y-89656400D01*
X133599400Y-89656400D01*
X133599400Y-91308400D01*
X133599400Y-91308400D01*
G37*
G36*
X129789400Y-91308400D02*
G01*
X129087400Y-91308400D01*
X129087400Y-89656400D01*
X129789400Y-89656400D01*
X129789400Y-91308400D01*
X129789400Y-91308400D01*
G37*
G36*
X127667062Y-89349781D02*
G01*
X127701981Y-89360374D01*
X127734163Y-89377576D01*
X127762373Y-89400727D01*
X127785524Y-89428937D01*
X127802726Y-89461119D01*
X127813319Y-89496038D01*
X127817500Y-89538495D01*
X127817500Y-91004705D01*
X127813319Y-91047162D01*
X127802726Y-91082081D01*
X127785524Y-91114263D01*
X127762373Y-91142473D01*
X127734163Y-91165624D01*
X127701981Y-91182826D01*
X127667062Y-91193419D01*
X127624605Y-91197600D01*
X126483395Y-91197600D01*
X126440938Y-91193419D01*
X126406019Y-91182826D01*
X126373837Y-91165624D01*
X126345627Y-91142473D01*
X126322476Y-91114263D01*
X126305274Y-91082081D01*
X126294681Y-91047162D01*
X126290500Y-91004705D01*
X126290500Y-89538495D01*
X126294681Y-89496038D01*
X126305274Y-89461119D01*
X126322476Y-89428937D01*
X126345627Y-89400727D01*
X126373837Y-89377576D01*
X126406019Y-89360374D01*
X126440938Y-89349781D01*
X126483395Y-89345600D01*
X127624605Y-89345600D01*
X127667062Y-89349781D01*
X127667062Y-89349781D01*
G37*
G36*
X124692062Y-89349781D02*
G01*
X124726981Y-89360374D01*
X124759163Y-89377576D01*
X124787373Y-89400727D01*
X124810524Y-89428937D01*
X124827726Y-89461119D01*
X124838319Y-89496038D01*
X124842500Y-89538495D01*
X124842500Y-91004705D01*
X124838319Y-91047162D01*
X124827726Y-91082081D01*
X124810524Y-91114263D01*
X124787373Y-91142473D01*
X124759163Y-91165624D01*
X124726981Y-91182826D01*
X124692062Y-91193419D01*
X124649605Y-91197600D01*
X123508395Y-91197600D01*
X123465938Y-91193419D01*
X123431019Y-91182826D01*
X123398837Y-91165624D01*
X123370627Y-91142473D01*
X123347476Y-91114263D01*
X123330274Y-91082081D01*
X123319681Y-91047162D01*
X123315500Y-91004705D01*
X123315500Y-89538495D01*
X123319681Y-89496038D01*
X123330274Y-89461119D01*
X123347476Y-89428937D01*
X123370627Y-89400727D01*
X123398837Y-89377576D01*
X123431019Y-89360374D01*
X123465938Y-89349781D01*
X123508395Y-89345600D01*
X124649605Y-89345600D01*
X124692062Y-89349781D01*
X124692062Y-89349781D01*
G37*
G36*
X111349400Y-90571800D02*
G01*
X109747400Y-90571800D01*
X109747400Y-89869800D01*
X111349400Y-89869800D01*
X111349400Y-90571800D01*
X111349400Y-90571800D01*
G37*
G36*
X105949400Y-90571800D02*
G01*
X104347400Y-90571800D01*
X104347400Y-89869800D01*
X105949400Y-89869800D01*
X105949400Y-90571800D01*
X105949400Y-90571800D01*
G37*
G36*
X151575331Y-87382136D02*
G01*
X151678244Y-87392272D01*
X151873617Y-87451538D01*
X151942337Y-87472384D01*
X152145225Y-87580830D01*
X152185720Y-87602475D01*
X152241291Y-87648082D01*
X152399050Y-87777550D01*
X152528518Y-87935309D01*
X152574125Y-87990880D01*
X152574126Y-87990882D01*
X152704216Y-88234263D01*
X152725062Y-88302983D01*
X152784328Y-88498356D01*
X152811378Y-88773000D01*
X152784328Y-89047644D01*
X152725062Y-89243017D01*
X152704216Y-89311737D01*
X152597720Y-89510976D01*
X152574125Y-89555120D01*
X152528518Y-89610691D01*
X152399050Y-89768450D01*
X152241291Y-89897918D01*
X152185720Y-89943525D01*
X152185718Y-89943526D01*
X151942337Y-90073616D01*
X151873617Y-90094462D01*
X151678244Y-90153728D01*
X151575331Y-90163864D01*
X151472420Y-90174000D01*
X150734780Y-90174000D01*
X150631869Y-90163864D01*
X150528956Y-90153728D01*
X150333583Y-90094462D01*
X150264863Y-90073616D01*
X150021482Y-89943526D01*
X150021480Y-89943525D01*
X149965909Y-89897918D01*
X149808150Y-89768450D01*
X149678682Y-89610691D01*
X149633075Y-89555120D01*
X149609480Y-89510976D01*
X149502984Y-89311737D01*
X149482138Y-89243017D01*
X149422872Y-89047644D01*
X149395822Y-88773000D01*
X149422872Y-88498356D01*
X149482138Y-88302983D01*
X149502984Y-88234263D01*
X149633074Y-87990882D01*
X149633075Y-87990880D01*
X149678682Y-87935309D01*
X149808150Y-87777550D01*
X149965909Y-87648082D01*
X150021480Y-87602475D01*
X150061975Y-87580830D01*
X150264863Y-87472384D01*
X150333583Y-87451538D01*
X150528956Y-87392272D01*
X150631869Y-87382136D01*
X150734780Y-87372000D01*
X151472420Y-87372000D01*
X151575331Y-87382136D01*
X151575331Y-87382136D01*
G37*
G36*
X158177631Y-87375621D02*
G01*
X158207086Y-87384556D01*
X158234223Y-87399062D01*
X158258014Y-87418586D01*
X158277538Y-87442377D01*
X158292044Y-87469514D01*
X158300979Y-87498969D01*
X158304600Y-87535734D01*
X158304600Y-90010266D01*
X158300979Y-90047031D01*
X158292044Y-90076486D01*
X158277538Y-90103623D01*
X158258014Y-90127414D01*
X158234223Y-90146938D01*
X158207086Y-90161444D01*
X158177631Y-90170379D01*
X158140866Y-90174000D01*
X155066334Y-90174000D01*
X155029569Y-90170379D01*
X155000114Y-90161444D01*
X154972977Y-90146938D01*
X154949186Y-90127414D01*
X154929662Y-90103623D01*
X154915156Y-90076486D01*
X154906221Y-90047031D01*
X154902600Y-90010266D01*
X154902600Y-87535734D01*
X154906221Y-87498969D01*
X154915156Y-87469514D01*
X154929662Y-87442377D01*
X154949186Y-87418586D01*
X154972977Y-87399062D01*
X155000114Y-87384556D01*
X155029569Y-87375621D01*
X155066334Y-87372000D01*
X158140866Y-87372000D01*
X158177631Y-87375621D01*
X158177631Y-87375621D01*
G37*
G36*
X120790562Y-88067681D02*
G01*
X120825481Y-88078274D01*
X120857663Y-88095476D01*
X120885873Y-88118627D01*
X120909024Y-88146837D01*
X120926226Y-88179019D01*
X120936819Y-88213938D01*
X120941000Y-88256395D01*
X120941000Y-89397605D01*
X120936819Y-89440062D01*
X120926226Y-89474981D01*
X120909024Y-89507163D01*
X120885873Y-89535373D01*
X120857663Y-89558524D01*
X120825481Y-89575726D01*
X120790562Y-89586319D01*
X120748105Y-89590500D01*
X119281895Y-89590500D01*
X119239438Y-89586319D01*
X119204519Y-89575726D01*
X119172337Y-89558524D01*
X119144127Y-89535373D01*
X119120976Y-89507163D01*
X119103774Y-89474981D01*
X119093181Y-89440062D01*
X119089000Y-89397605D01*
X119089000Y-88256395D01*
X119093181Y-88213938D01*
X119103774Y-88179019D01*
X119120976Y-88146837D01*
X119144127Y-88118627D01*
X119172337Y-88095476D01*
X119204519Y-88078274D01*
X119239438Y-88067681D01*
X119281895Y-88063500D01*
X120748105Y-88063500D01*
X120790562Y-88067681D01*
X120790562Y-88067681D01*
G37*
G36*
X118301362Y-88053381D02*
G01*
X118336281Y-88063974D01*
X118368463Y-88081176D01*
X118396673Y-88104327D01*
X118419824Y-88132537D01*
X118437026Y-88164719D01*
X118447619Y-88199638D01*
X118451800Y-88242095D01*
X118451800Y-89383305D01*
X118447619Y-89425762D01*
X118437026Y-89460681D01*
X118419824Y-89492863D01*
X118396673Y-89521073D01*
X118368463Y-89544224D01*
X118336281Y-89561426D01*
X118301362Y-89572019D01*
X118258905Y-89576200D01*
X116792695Y-89576200D01*
X116750238Y-89572019D01*
X116715319Y-89561426D01*
X116683137Y-89544224D01*
X116654927Y-89521073D01*
X116631776Y-89492863D01*
X116614574Y-89460681D01*
X116603981Y-89425762D01*
X116599800Y-89383305D01*
X116599800Y-88242095D01*
X116603981Y-88199638D01*
X116614574Y-88164719D01*
X116631776Y-88132537D01*
X116654927Y-88104327D01*
X116683137Y-88081176D01*
X116715319Y-88063974D01*
X116750238Y-88053381D01*
X116792695Y-88049200D01*
X118258905Y-88049200D01*
X118301362Y-88053381D01*
X118301362Y-88053381D01*
G37*
G36*
X105949400Y-89301800D02*
G01*
X104347400Y-89301800D01*
X104347400Y-88599800D01*
X105949400Y-88599800D01*
X105949400Y-89301800D01*
X105949400Y-89301800D01*
G37*
G36*
X111349400Y-89301800D02*
G01*
X109747400Y-89301800D01*
X109747400Y-88599800D01*
X111349400Y-88599800D01*
X111349400Y-89301800D01*
X111349400Y-89301800D01*
G37*
G36*
X145385000Y-88883100D02*
G01*
X144683000Y-88883100D01*
X144683000Y-87281100D01*
X145385000Y-87281100D01*
X145385000Y-88883100D01*
X145385000Y-88883100D01*
G37*
G36*
X144115000Y-88883100D02*
G01*
X143413000Y-88883100D01*
X143413000Y-87281100D01*
X144115000Y-87281100D01*
X144115000Y-88883100D01*
X144115000Y-88883100D01*
G37*
G36*
X142845000Y-88883100D02*
G01*
X142143000Y-88883100D01*
X142143000Y-87281100D01*
X142845000Y-87281100D01*
X142845000Y-88883100D01*
X142845000Y-88883100D01*
G37*
G36*
X141575000Y-88883100D02*
G01*
X140873000Y-88883100D01*
X140873000Y-87281100D01*
X141575000Y-87281100D01*
X141575000Y-88883100D01*
X141575000Y-88883100D01*
G37*
G36*
X140305000Y-88883100D02*
G01*
X139603000Y-88883100D01*
X139603000Y-87281100D01*
X140305000Y-87281100D01*
X140305000Y-88883100D01*
X140305000Y-88883100D01*
G37*
G36*
X139035000Y-88883100D02*
G01*
X138333000Y-88883100D01*
X138333000Y-87281100D01*
X139035000Y-87281100D01*
X139035000Y-88883100D01*
X139035000Y-88883100D01*
G37*
G36*
X137765000Y-88883100D02*
G01*
X137063000Y-88883100D01*
X137063000Y-87281100D01*
X137765000Y-87281100D01*
X137765000Y-88883100D01*
X137765000Y-88883100D01*
G37*
G36*
X127667062Y-86860581D02*
G01*
X127701981Y-86871174D01*
X127734163Y-86888376D01*
X127762373Y-86911527D01*
X127785524Y-86939737D01*
X127802726Y-86971919D01*
X127813319Y-87006838D01*
X127817500Y-87049295D01*
X127817500Y-88515505D01*
X127813319Y-88557962D01*
X127802726Y-88592881D01*
X127785524Y-88625063D01*
X127762373Y-88653273D01*
X127734163Y-88676424D01*
X127701981Y-88693626D01*
X127667062Y-88704219D01*
X127624605Y-88708400D01*
X126483395Y-88708400D01*
X126440938Y-88704219D01*
X126406019Y-88693626D01*
X126373837Y-88676424D01*
X126345627Y-88653273D01*
X126322476Y-88625063D01*
X126305274Y-88592881D01*
X126294681Y-88557962D01*
X126290500Y-88515505D01*
X126290500Y-87049295D01*
X126294681Y-87006838D01*
X126305274Y-86971919D01*
X126322476Y-86939737D01*
X126345627Y-86911527D01*
X126373837Y-86888376D01*
X126406019Y-86871174D01*
X126440938Y-86860581D01*
X126483395Y-86856400D01*
X127624605Y-86856400D01*
X127667062Y-86860581D01*
X127667062Y-86860581D01*
G37*
G36*
X124692062Y-86860581D02*
G01*
X124726981Y-86871174D01*
X124759163Y-86888376D01*
X124787373Y-86911527D01*
X124810524Y-86939737D01*
X124827726Y-86971919D01*
X124838319Y-87006838D01*
X124842500Y-87049295D01*
X124842500Y-88515505D01*
X124838319Y-88557962D01*
X124827726Y-88592881D01*
X124810524Y-88625063D01*
X124787373Y-88653273D01*
X124759163Y-88676424D01*
X124726981Y-88693626D01*
X124692062Y-88704219D01*
X124649605Y-88708400D01*
X123508395Y-88708400D01*
X123465938Y-88704219D01*
X123431019Y-88693626D01*
X123398837Y-88676424D01*
X123370627Y-88653273D01*
X123347476Y-88625063D01*
X123330274Y-88592881D01*
X123319681Y-88557962D01*
X123315500Y-88515505D01*
X123315500Y-87049295D01*
X123319681Y-87006838D01*
X123330274Y-86971919D01*
X123347476Y-86939737D01*
X123370627Y-86911527D01*
X123398837Y-86888376D01*
X123431019Y-86871174D01*
X123465938Y-86860581D01*
X123508395Y-86856400D01*
X124649605Y-86856400D01*
X124692062Y-86860581D01*
X124692062Y-86860581D01*
G37*
G36*
X115225600Y-88698200D02*
G01*
X113323600Y-88698200D01*
X113323600Y-85096200D01*
X115225600Y-85096200D01*
X115225600Y-88698200D01*
X115225600Y-88698200D01*
G37*
G36*
X111349400Y-88031800D02*
G01*
X109747400Y-88031800D01*
X109747400Y-87329800D01*
X111349400Y-87329800D01*
X111349400Y-88031800D01*
X111349400Y-88031800D01*
G37*
G36*
X105949400Y-88031800D02*
G01*
X104347400Y-88031800D01*
X104347400Y-87329800D01*
X105949400Y-87329800D01*
X105949400Y-88031800D01*
X105949400Y-88031800D01*
G37*
G36*
X111349400Y-86761800D02*
G01*
X109747400Y-86761800D01*
X109747400Y-86059800D01*
X111349400Y-86059800D01*
X111349400Y-86761800D01*
X111349400Y-86761800D01*
G37*
G36*
X105949400Y-86761800D02*
G01*
X104347400Y-86761800D01*
X104347400Y-86059800D01*
X105949400Y-86059800D01*
X105949400Y-86761800D01*
X105949400Y-86761800D01*
G37*
G36*
X120790562Y-85092681D02*
G01*
X120825481Y-85103274D01*
X120857663Y-85120476D01*
X120885873Y-85143627D01*
X120909024Y-85171837D01*
X120926226Y-85204019D01*
X120936819Y-85238938D01*
X120941000Y-85281395D01*
X120941000Y-86422605D01*
X120936819Y-86465062D01*
X120926226Y-86499981D01*
X120909024Y-86532163D01*
X120885873Y-86560373D01*
X120857663Y-86583524D01*
X120825481Y-86600726D01*
X120790562Y-86611319D01*
X120748105Y-86615500D01*
X119281895Y-86615500D01*
X119239438Y-86611319D01*
X119204519Y-86600726D01*
X119172337Y-86583524D01*
X119144127Y-86560373D01*
X119120976Y-86532163D01*
X119103774Y-86499981D01*
X119093181Y-86465062D01*
X119089000Y-86422605D01*
X119089000Y-85281395D01*
X119093181Y-85238938D01*
X119103774Y-85204019D01*
X119120976Y-85171837D01*
X119144127Y-85143627D01*
X119172337Y-85120476D01*
X119204519Y-85103274D01*
X119239438Y-85092681D01*
X119281895Y-85088500D01*
X120748105Y-85088500D01*
X120790562Y-85092681D01*
X120790562Y-85092681D01*
G37*
G36*
X118301362Y-85078381D02*
G01*
X118336281Y-85088974D01*
X118368463Y-85106176D01*
X118396673Y-85129327D01*
X118419824Y-85157537D01*
X118437026Y-85189719D01*
X118447619Y-85224638D01*
X118451800Y-85267095D01*
X118451800Y-86408305D01*
X118447619Y-86450762D01*
X118437026Y-86485681D01*
X118419824Y-86517863D01*
X118396673Y-86546073D01*
X118368463Y-86569224D01*
X118336281Y-86586426D01*
X118301362Y-86597019D01*
X118258905Y-86601200D01*
X116792695Y-86601200D01*
X116750238Y-86597019D01*
X116715319Y-86586426D01*
X116683137Y-86569224D01*
X116654927Y-86546073D01*
X116631776Y-86517863D01*
X116614574Y-86485681D01*
X116603981Y-86450762D01*
X116599800Y-86408305D01*
X116599800Y-85267095D01*
X116603981Y-85224638D01*
X116614574Y-85189719D01*
X116631776Y-85157537D01*
X116654927Y-85129327D01*
X116683137Y-85106176D01*
X116715319Y-85088974D01*
X116750238Y-85078381D01*
X116792695Y-85074200D01*
X118258905Y-85074200D01*
X118301362Y-85078381D01*
X118301362Y-85078381D01*
G37*
G36*
X127689262Y-84371381D02*
G01*
X127724181Y-84381974D01*
X127756363Y-84399176D01*
X127784573Y-84422327D01*
X127807724Y-84450537D01*
X127824926Y-84482719D01*
X127835519Y-84517638D01*
X127839700Y-84560095D01*
X127839700Y-86026305D01*
X127835519Y-86068762D01*
X127824926Y-86103681D01*
X127807724Y-86135863D01*
X127784573Y-86164073D01*
X127756363Y-86187224D01*
X127724181Y-86204426D01*
X127689262Y-86215019D01*
X127646805Y-86219200D01*
X126505595Y-86219200D01*
X126463138Y-86215019D01*
X126428219Y-86204426D01*
X126396037Y-86187224D01*
X126367827Y-86164073D01*
X126344676Y-86135863D01*
X126327474Y-86103681D01*
X126316881Y-86068762D01*
X126312700Y-86026305D01*
X126312700Y-84560095D01*
X126316881Y-84517638D01*
X126327474Y-84482719D01*
X126344676Y-84450537D01*
X126367827Y-84422327D01*
X126396037Y-84399176D01*
X126428219Y-84381974D01*
X126463138Y-84371381D01*
X126505595Y-84367200D01*
X127646805Y-84367200D01*
X127689262Y-84371381D01*
X127689262Y-84371381D01*
G37*
G36*
X124714262Y-84371381D02*
G01*
X124749181Y-84381974D01*
X124781363Y-84399176D01*
X124809573Y-84422327D01*
X124832724Y-84450537D01*
X124849926Y-84482719D01*
X124860519Y-84517638D01*
X124864700Y-84560095D01*
X124864700Y-86026305D01*
X124860519Y-86068762D01*
X124849926Y-86103681D01*
X124832724Y-86135863D01*
X124809573Y-86164073D01*
X124781363Y-86187224D01*
X124749181Y-86204426D01*
X124714262Y-86215019D01*
X124671805Y-86219200D01*
X123530595Y-86219200D01*
X123488138Y-86215019D01*
X123453219Y-86204426D01*
X123421037Y-86187224D01*
X123392827Y-86164073D01*
X123369676Y-86135863D01*
X123352474Y-86103681D01*
X123341881Y-86068762D01*
X123337700Y-86026305D01*
X123337700Y-84560095D01*
X123341881Y-84517638D01*
X123352474Y-84482719D01*
X123369676Y-84450537D01*
X123392827Y-84422327D01*
X123421037Y-84399176D01*
X123453219Y-84381974D01*
X123488138Y-84371381D01*
X123530595Y-84367200D01*
X124671805Y-84367200D01*
X124714262Y-84371381D01*
X124714262Y-84371381D01*
G37*
G36*
X132329400Y-85908400D02*
G01*
X131627400Y-85908400D01*
X131627400Y-84256400D01*
X132329400Y-84256400D01*
X132329400Y-85908400D01*
X132329400Y-85908400D01*
G37*
G36*
X133599400Y-85908400D02*
G01*
X132897400Y-85908400D01*
X132897400Y-84256400D01*
X133599400Y-84256400D01*
X133599400Y-85908400D01*
X133599400Y-85908400D01*
G37*
G36*
X131059400Y-85908400D02*
G01*
X130357400Y-85908400D01*
X130357400Y-84256400D01*
X131059400Y-84256400D01*
X131059400Y-85908400D01*
X131059400Y-85908400D01*
G37*
G36*
X129789400Y-85908400D02*
G01*
X129087400Y-85908400D01*
X129087400Y-84256400D01*
X129789400Y-84256400D01*
X129789400Y-85908400D01*
X129789400Y-85908400D01*
G37*
G36*
X153921600Y-84110600D02*
G01*
X150319600Y-84110600D01*
X150319600Y-82208600D01*
X153921600Y-82208600D01*
X153921600Y-84110600D01*
X153921600Y-84110600D01*
G37*
G36*
X158921600Y-84110600D02*
G01*
X155319600Y-84110600D01*
X155319600Y-82208600D01*
X158921600Y-82208600D01*
X158921600Y-84110600D01*
X158921600Y-84110600D01*
G37*
G36*
X116395662Y-82136181D02*
G01*
X116430581Y-82146774D01*
X116462763Y-82163976D01*
X116490973Y-82187127D01*
X116514124Y-82215337D01*
X116531326Y-82247519D01*
X116541919Y-82282438D01*
X116546100Y-82324895D01*
X116546100Y-83791105D01*
X116541919Y-83833562D01*
X116531326Y-83868481D01*
X116514124Y-83900663D01*
X116490973Y-83928873D01*
X116462763Y-83952024D01*
X116430581Y-83969226D01*
X116395662Y-83979819D01*
X116353205Y-83984000D01*
X115211995Y-83984000D01*
X115169538Y-83979819D01*
X115134619Y-83969226D01*
X115102437Y-83952024D01*
X115074227Y-83928873D01*
X115051076Y-83900663D01*
X115033874Y-83868481D01*
X115023281Y-83833562D01*
X115019100Y-83791105D01*
X115019100Y-82324895D01*
X115023281Y-82282438D01*
X115033874Y-82247519D01*
X115051076Y-82215337D01*
X115074227Y-82187127D01*
X115102437Y-82163976D01*
X115134619Y-82146774D01*
X115169538Y-82136181D01*
X115211995Y-82132000D01*
X116353205Y-82132000D01*
X116395662Y-82136181D01*
X116395662Y-82136181D01*
G37*
G36*
X119370662Y-82136181D02*
G01*
X119405581Y-82146774D01*
X119437763Y-82163976D01*
X119465973Y-82187127D01*
X119489124Y-82215337D01*
X119506326Y-82247519D01*
X119516919Y-82282438D01*
X119521100Y-82324895D01*
X119521100Y-83791105D01*
X119516919Y-83833562D01*
X119506326Y-83868481D01*
X119489124Y-83900663D01*
X119465973Y-83928873D01*
X119437763Y-83952024D01*
X119405581Y-83969226D01*
X119370662Y-83979819D01*
X119328205Y-83984000D01*
X118186995Y-83984000D01*
X118144538Y-83979819D01*
X118109619Y-83969226D01*
X118077437Y-83952024D01*
X118049227Y-83928873D01*
X118026076Y-83900663D01*
X118008874Y-83868481D01*
X117998281Y-83833562D01*
X117994100Y-83791105D01*
X117994100Y-82324895D01*
X117998281Y-82282438D01*
X118008874Y-82247519D01*
X118026076Y-82215337D01*
X118049227Y-82187127D01*
X118077437Y-82163976D01*
X118109619Y-82146774D01*
X118144538Y-82136181D01*
X118186995Y-82132000D01*
X119328205Y-82132000D01*
X119370662Y-82136181D01*
X119370662Y-82136181D01*
G37*
G36*
X124728562Y-81882181D02*
G01*
X124763481Y-81892774D01*
X124795663Y-81909976D01*
X124823873Y-81933127D01*
X124847024Y-81961337D01*
X124864226Y-81993519D01*
X124874819Y-82028438D01*
X124879000Y-82070895D01*
X124879000Y-83537105D01*
X124874819Y-83579562D01*
X124864226Y-83614481D01*
X124847024Y-83646663D01*
X124823873Y-83674873D01*
X124795663Y-83698024D01*
X124763481Y-83715226D01*
X124728562Y-83725819D01*
X124686105Y-83730000D01*
X123544895Y-83730000D01*
X123502438Y-83725819D01*
X123467519Y-83715226D01*
X123435337Y-83698024D01*
X123407127Y-83674873D01*
X123383976Y-83646663D01*
X123366774Y-83614481D01*
X123356181Y-83579562D01*
X123352000Y-83537105D01*
X123352000Y-82070895D01*
X123356181Y-82028438D01*
X123366774Y-81993519D01*
X123383976Y-81961337D01*
X123407127Y-81933127D01*
X123435337Y-81909976D01*
X123467519Y-81892774D01*
X123502438Y-81882181D01*
X123544895Y-81878000D01*
X124686105Y-81878000D01*
X124728562Y-81882181D01*
X124728562Y-81882181D01*
G37*
G36*
X127703562Y-81882181D02*
G01*
X127738481Y-81892774D01*
X127770663Y-81909976D01*
X127798873Y-81933127D01*
X127822024Y-81961337D01*
X127839226Y-81993519D01*
X127849819Y-82028438D01*
X127854000Y-82070895D01*
X127854000Y-83537105D01*
X127849819Y-83579562D01*
X127839226Y-83614481D01*
X127822024Y-83646663D01*
X127798873Y-83674873D01*
X127770663Y-83698024D01*
X127738481Y-83715226D01*
X127703562Y-83725819D01*
X127661105Y-83730000D01*
X126519895Y-83730000D01*
X126477438Y-83725819D01*
X126442519Y-83715226D01*
X126410337Y-83698024D01*
X126382127Y-83674873D01*
X126358976Y-83646663D01*
X126341774Y-83614481D01*
X126331181Y-83579562D01*
X126327000Y-83537105D01*
X126327000Y-82070895D01*
X126331181Y-82028438D01*
X126341774Y-81993519D01*
X126358976Y-81961337D01*
X126382127Y-81933127D01*
X126410337Y-81909976D01*
X126442519Y-81892774D01*
X126477438Y-81882181D01*
X126519895Y-81878000D01*
X127661105Y-81878000D01*
X127703562Y-81882181D01*
X127703562Y-81882181D01*
G37*
G36*
X112433962Y-82160581D02*
G01*
X112468881Y-82171174D01*
X112501063Y-82188376D01*
X112529273Y-82211527D01*
X112552424Y-82239737D01*
X112569626Y-82271919D01*
X112580219Y-82306838D01*
X112584400Y-82349295D01*
X112584400Y-83490505D01*
X112580219Y-83532962D01*
X112569626Y-83567881D01*
X112552424Y-83600063D01*
X112529273Y-83628273D01*
X112501063Y-83651424D01*
X112468881Y-83668626D01*
X112433962Y-83679219D01*
X112391505Y-83683400D01*
X110925295Y-83683400D01*
X110882838Y-83679219D01*
X110847919Y-83668626D01*
X110815737Y-83651424D01*
X110787527Y-83628273D01*
X110764376Y-83600063D01*
X110747174Y-83567881D01*
X110736581Y-83532962D01*
X110732400Y-83490505D01*
X110732400Y-82349295D01*
X110736581Y-82306838D01*
X110747174Y-82271919D01*
X110764376Y-82239737D01*
X110787527Y-82211527D01*
X110815737Y-82188376D01*
X110847919Y-82171174D01*
X110882838Y-82160581D01*
X110925295Y-82156400D01*
X112391505Y-82156400D01*
X112433962Y-82160581D01*
X112433962Y-82160581D01*
G37*
G36*
X109995562Y-82160581D02*
G01*
X110030481Y-82171174D01*
X110062663Y-82188376D01*
X110090873Y-82211527D01*
X110114024Y-82239737D01*
X110131226Y-82271919D01*
X110141819Y-82306838D01*
X110146000Y-82349295D01*
X110146000Y-83490505D01*
X110141819Y-83532962D01*
X110131226Y-83567881D01*
X110114024Y-83600063D01*
X110090873Y-83628273D01*
X110062663Y-83651424D01*
X110030481Y-83668626D01*
X109995562Y-83679219D01*
X109953105Y-83683400D01*
X108486895Y-83683400D01*
X108444438Y-83679219D01*
X108409519Y-83668626D01*
X108377337Y-83651424D01*
X108349127Y-83628273D01*
X108325976Y-83600063D01*
X108308774Y-83567881D01*
X108298181Y-83532962D01*
X108294000Y-83490505D01*
X108294000Y-82349295D01*
X108298181Y-82306838D01*
X108308774Y-82271919D01*
X108325976Y-82239737D01*
X108349127Y-82211527D01*
X108377337Y-82188376D01*
X108409519Y-82171174D01*
X108444438Y-82160581D01*
X108486895Y-82156400D01*
X109953105Y-82156400D01*
X109995562Y-82160581D01*
X109995562Y-82160581D01*
G37*
G36*
X105169562Y-82160581D02*
G01*
X105204481Y-82171174D01*
X105236663Y-82188376D01*
X105264873Y-82211527D01*
X105288024Y-82239737D01*
X105305226Y-82271919D01*
X105315819Y-82306838D01*
X105320000Y-82349295D01*
X105320000Y-83490505D01*
X105315819Y-83532962D01*
X105305226Y-83567881D01*
X105288024Y-83600063D01*
X105264873Y-83628273D01*
X105236663Y-83651424D01*
X105204481Y-83668626D01*
X105169562Y-83679219D01*
X105127105Y-83683400D01*
X103660895Y-83683400D01*
X103618438Y-83679219D01*
X103583519Y-83668626D01*
X103551337Y-83651424D01*
X103523127Y-83628273D01*
X103499976Y-83600063D01*
X103482774Y-83567881D01*
X103472181Y-83532962D01*
X103468000Y-83490505D01*
X103468000Y-82349295D01*
X103472181Y-82306838D01*
X103482774Y-82271919D01*
X103499976Y-82239737D01*
X103523127Y-82211527D01*
X103551337Y-82188376D01*
X103583519Y-82171174D01*
X103618438Y-82160581D01*
X103660895Y-82156400D01*
X105127105Y-82156400D01*
X105169562Y-82160581D01*
X105169562Y-82160581D01*
G37*
G36*
X107607962Y-82146281D02*
G01*
X107642881Y-82156874D01*
X107675063Y-82174076D01*
X107703273Y-82197227D01*
X107726424Y-82225437D01*
X107743626Y-82257619D01*
X107754219Y-82292538D01*
X107758400Y-82334995D01*
X107758400Y-83476205D01*
X107754219Y-83518662D01*
X107743626Y-83553581D01*
X107726424Y-83585763D01*
X107703273Y-83613973D01*
X107675063Y-83637124D01*
X107642881Y-83654326D01*
X107607962Y-83664919D01*
X107565505Y-83669100D01*
X106099295Y-83669100D01*
X106056838Y-83664919D01*
X106021919Y-83654326D01*
X105989737Y-83637124D01*
X105961527Y-83613973D01*
X105938376Y-83585763D01*
X105921174Y-83553581D01*
X105910581Y-83518662D01*
X105906400Y-83476205D01*
X105906400Y-82334995D01*
X105910581Y-82292538D01*
X105921174Y-82257619D01*
X105938376Y-82225437D01*
X105961527Y-82197227D01*
X105989737Y-82174076D01*
X106021919Y-82156874D01*
X106056838Y-82146281D01*
X106099295Y-82142100D01*
X107565505Y-82142100D01*
X107607962Y-82146281D01*
X107607962Y-82146281D01*
G37*
G36*
X133494762Y-81780581D02*
G01*
X133529681Y-81791174D01*
X133561863Y-81808376D01*
X133590073Y-81831527D01*
X133613224Y-81859737D01*
X133630426Y-81891919D01*
X133641019Y-81926838D01*
X133645200Y-81969295D01*
X133645200Y-83435505D01*
X133641019Y-83477962D01*
X133630426Y-83512881D01*
X133613224Y-83545063D01*
X133590073Y-83573273D01*
X133561863Y-83596424D01*
X133529681Y-83613626D01*
X133494762Y-83624219D01*
X133452305Y-83628400D01*
X132311095Y-83628400D01*
X132268638Y-83624219D01*
X132233719Y-83613626D01*
X132201537Y-83596424D01*
X132173327Y-83573273D01*
X132150176Y-83545063D01*
X132132974Y-83512881D01*
X132122381Y-83477962D01*
X132118200Y-83435505D01*
X132118200Y-81969295D01*
X132122381Y-81926838D01*
X132132974Y-81891919D01*
X132150176Y-81859737D01*
X132173327Y-81831527D01*
X132201537Y-81808376D01*
X132233719Y-81791174D01*
X132268638Y-81780581D01*
X132311095Y-81776400D01*
X133452305Y-81776400D01*
X133494762Y-81780581D01*
X133494762Y-81780581D01*
G37*
G36*
X130519762Y-81780581D02*
G01*
X130554681Y-81791174D01*
X130586863Y-81808376D01*
X130615073Y-81831527D01*
X130638224Y-81859737D01*
X130655426Y-81891919D01*
X130666019Y-81926838D01*
X130670200Y-81969295D01*
X130670200Y-83435505D01*
X130666019Y-83477962D01*
X130655426Y-83512881D01*
X130638224Y-83545063D01*
X130615073Y-83573273D01*
X130586863Y-83596424D01*
X130554681Y-83613626D01*
X130519762Y-83624219D01*
X130477305Y-83628400D01*
X129336095Y-83628400D01*
X129293638Y-83624219D01*
X129258719Y-83613626D01*
X129226537Y-83596424D01*
X129198327Y-83573273D01*
X129175176Y-83545063D01*
X129157974Y-83512881D01*
X129147381Y-83477962D01*
X129143200Y-83435505D01*
X129143200Y-81969295D01*
X129147381Y-81926838D01*
X129157974Y-81891919D01*
X129175176Y-81859737D01*
X129198327Y-81831527D01*
X129226537Y-81808376D01*
X129258719Y-81791174D01*
X129293638Y-81780581D01*
X129336095Y-81776400D01*
X130477305Y-81776400D01*
X130519762Y-81780581D01*
X130519762Y-81780581D01*
G37*
G36*
X141575000Y-83483100D02*
G01*
X140873000Y-83483100D01*
X140873000Y-81881100D01*
X141575000Y-81881100D01*
X141575000Y-83483100D01*
X141575000Y-83483100D01*
G37*
G36*
X145385000Y-83483100D02*
G01*
X144683000Y-83483100D01*
X144683000Y-81881100D01*
X145385000Y-81881100D01*
X145385000Y-83483100D01*
X145385000Y-83483100D01*
G37*
G36*
X144115000Y-83483100D02*
G01*
X143413000Y-83483100D01*
X143413000Y-81881100D01*
X144115000Y-81881100D01*
X144115000Y-83483100D01*
X144115000Y-83483100D01*
G37*
G36*
X137765000Y-83483100D02*
G01*
X137063000Y-83483100D01*
X137063000Y-81881100D01*
X137765000Y-81881100D01*
X137765000Y-83483100D01*
X137765000Y-83483100D01*
G37*
G36*
X139035000Y-83483100D02*
G01*
X138333000Y-83483100D01*
X138333000Y-81881100D01*
X139035000Y-81881100D01*
X139035000Y-83483100D01*
X139035000Y-83483100D01*
G37*
G36*
X140305000Y-83483100D02*
G01*
X139603000Y-83483100D01*
X139603000Y-81881100D01*
X140305000Y-81881100D01*
X140305000Y-83483100D01*
X140305000Y-83483100D01*
G37*
G36*
X142845000Y-83483100D02*
G01*
X142143000Y-83483100D01*
X142143000Y-81881100D01*
X142845000Y-81881100D01*
X142845000Y-83483100D01*
X142845000Y-83483100D01*
G37*
G36*
X127689262Y-79392981D02*
G01*
X127724181Y-79403574D01*
X127756363Y-79420776D01*
X127784573Y-79443927D01*
X127807724Y-79472137D01*
X127824926Y-79504319D01*
X127835519Y-79539238D01*
X127839700Y-79581695D01*
X127839700Y-81047905D01*
X127835519Y-81090362D01*
X127824926Y-81125281D01*
X127807724Y-81157463D01*
X127784573Y-81185673D01*
X127756363Y-81208824D01*
X127724181Y-81226026D01*
X127689262Y-81236619D01*
X127646805Y-81240800D01*
X126505595Y-81240800D01*
X126463138Y-81236619D01*
X126428219Y-81226026D01*
X126396037Y-81208824D01*
X126367827Y-81185673D01*
X126344676Y-81157463D01*
X126327474Y-81125281D01*
X126316881Y-81090362D01*
X126312700Y-81047905D01*
X126312700Y-79581695D01*
X126316881Y-79539238D01*
X126327474Y-79504319D01*
X126344676Y-79472137D01*
X126367827Y-79443927D01*
X126396037Y-79420776D01*
X126428219Y-79403574D01*
X126463138Y-79392981D01*
X126505595Y-79388800D01*
X127646805Y-79388800D01*
X127689262Y-79392981D01*
X127689262Y-79392981D01*
G37*
G36*
X124714262Y-79392981D02*
G01*
X124749181Y-79403574D01*
X124781363Y-79420776D01*
X124809573Y-79443927D01*
X124832724Y-79472137D01*
X124849926Y-79504319D01*
X124860519Y-79539238D01*
X124864700Y-79581695D01*
X124864700Y-81047905D01*
X124860519Y-81090362D01*
X124849926Y-81125281D01*
X124832724Y-81157463D01*
X124809573Y-81185673D01*
X124781363Y-81208824D01*
X124749181Y-81226026D01*
X124714262Y-81236619D01*
X124671805Y-81240800D01*
X123530595Y-81240800D01*
X123488138Y-81236619D01*
X123453219Y-81226026D01*
X123421037Y-81208824D01*
X123392827Y-81185673D01*
X123369676Y-81157463D01*
X123352474Y-81125281D01*
X123341881Y-81090362D01*
X123337700Y-81047905D01*
X123337700Y-79581695D01*
X123341881Y-79539238D01*
X123352474Y-79504319D01*
X123369676Y-79472137D01*
X123392827Y-79443927D01*
X123421037Y-79420776D01*
X123453219Y-79403574D01*
X123488138Y-79392981D01*
X123530595Y-79388800D01*
X124671805Y-79388800D01*
X124714262Y-79392981D01*
X124714262Y-79392981D01*
G37*
G36*
X143193362Y-79671381D02*
G01*
X143228281Y-79681974D01*
X143260463Y-79699176D01*
X143288673Y-79722327D01*
X143311824Y-79750537D01*
X143329026Y-79782719D01*
X143339619Y-79817638D01*
X143343800Y-79860095D01*
X143343800Y-81001305D01*
X143339619Y-81043762D01*
X143329026Y-81078681D01*
X143311824Y-81110863D01*
X143288673Y-81139073D01*
X143260463Y-81162224D01*
X143228281Y-81179426D01*
X143193362Y-81190019D01*
X143150905Y-81194200D01*
X141684695Y-81194200D01*
X141642238Y-81190019D01*
X141607319Y-81179426D01*
X141575137Y-81162224D01*
X141546927Y-81139073D01*
X141523776Y-81110863D01*
X141506574Y-81078681D01*
X141495981Y-81043762D01*
X141491800Y-81001305D01*
X141491800Y-79860095D01*
X141495981Y-79817638D01*
X141506574Y-79782719D01*
X141523776Y-79750537D01*
X141546927Y-79722327D01*
X141575137Y-79699176D01*
X141607319Y-79681974D01*
X141642238Y-79671381D01*
X141684695Y-79667200D01*
X143150905Y-79667200D01*
X143193362Y-79671381D01*
X143193362Y-79671381D01*
G37*
G36*
X138189562Y-79660281D02*
G01*
X138224481Y-79670874D01*
X138256663Y-79688076D01*
X138284873Y-79711227D01*
X138308024Y-79739437D01*
X138325226Y-79771619D01*
X138335819Y-79806538D01*
X138340000Y-79848995D01*
X138340000Y-80990205D01*
X138335819Y-81032662D01*
X138325226Y-81067581D01*
X138308024Y-81099763D01*
X138284873Y-81127973D01*
X138256663Y-81151124D01*
X138224481Y-81168326D01*
X138189562Y-81178919D01*
X138147105Y-81183100D01*
X136680895Y-81183100D01*
X136638438Y-81178919D01*
X136603519Y-81168326D01*
X136571337Y-81151124D01*
X136543127Y-81127973D01*
X136519976Y-81099763D01*
X136502774Y-81067581D01*
X136492181Y-81032662D01*
X136488000Y-80990205D01*
X136488000Y-79848995D01*
X136492181Y-79806538D01*
X136502774Y-79771619D01*
X136519976Y-79739437D01*
X136543127Y-79711227D01*
X136571337Y-79688076D01*
X136603519Y-79670874D01*
X136638438Y-79660281D01*
X136680895Y-79656100D01*
X138147105Y-79656100D01*
X138189562Y-79660281D01*
X138189562Y-79660281D01*
G37*
G36*
X140716862Y-79658681D02*
G01*
X140751781Y-79669274D01*
X140783963Y-79686476D01*
X140812173Y-79709627D01*
X140835324Y-79737837D01*
X140852526Y-79770019D01*
X140863119Y-79804938D01*
X140867300Y-79847395D01*
X140867300Y-80988605D01*
X140863119Y-81031062D01*
X140852526Y-81065981D01*
X140835324Y-81098163D01*
X140812173Y-81126373D01*
X140783963Y-81149524D01*
X140751781Y-81166726D01*
X140716862Y-81177319D01*
X140674405Y-81181500D01*
X139208195Y-81181500D01*
X139165738Y-81177319D01*
X139130819Y-81166726D01*
X139098637Y-81149524D01*
X139070427Y-81126373D01*
X139047276Y-81098163D01*
X139030074Y-81065981D01*
X139019481Y-81031062D01*
X139015300Y-80988605D01*
X139015300Y-79847395D01*
X139019481Y-79804938D01*
X139030074Y-79770019D01*
X139047276Y-79737837D01*
X139070427Y-79709627D01*
X139098637Y-79686476D01*
X139130819Y-79669274D01*
X139165738Y-79658681D01*
X139208195Y-79654500D01*
X140674405Y-79654500D01*
X140716862Y-79658681D01*
X140716862Y-79658681D01*
G37*
G36*
X145682562Y-79633281D02*
G01*
X145717481Y-79643874D01*
X145749663Y-79661076D01*
X145777873Y-79684227D01*
X145801024Y-79712437D01*
X145818226Y-79744619D01*
X145828819Y-79779538D01*
X145833000Y-79821995D01*
X145833000Y-80963205D01*
X145828819Y-81005662D01*
X145818226Y-81040581D01*
X145801024Y-81072763D01*
X145777873Y-81100973D01*
X145749663Y-81124124D01*
X145717481Y-81141326D01*
X145682562Y-81151919D01*
X145640105Y-81156100D01*
X144173895Y-81156100D01*
X144131438Y-81151919D01*
X144096519Y-81141326D01*
X144064337Y-81124124D01*
X144036127Y-81100973D01*
X144012976Y-81072763D01*
X143995774Y-81040581D01*
X143985181Y-81005662D01*
X143981000Y-80963205D01*
X143981000Y-79821995D01*
X143985181Y-79779538D01*
X143995774Y-79744619D01*
X144012976Y-79712437D01*
X144036127Y-79684227D01*
X144064337Y-79661076D01*
X144096519Y-79643874D01*
X144131438Y-79633281D01*
X144173895Y-79629100D01*
X145640105Y-79629100D01*
X145682562Y-79633281D01*
X145682562Y-79633281D01*
G37*
G36*
X115768600Y-80945200D02*
G01*
X115066600Y-80945200D01*
X115066600Y-79293200D01*
X115768600Y-79293200D01*
X115768600Y-80945200D01*
X115768600Y-80945200D01*
G37*
G36*
X117038600Y-80945200D02*
G01*
X116336600Y-80945200D01*
X116336600Y-79293200D01*
X117038600Y-79293200D01*
X117038600Y-80945200D01*
X117038600Y-80945200D01*
G37*
G36*
X118308600Y-80945200D02*
G01*
X117606600Y-80945200D01*
X117606600Y-79293200D01*
X118308600Y-79293200D01*
X118308600Y-80945200D01*
X118308600Y-80945200D01*
G37*
G36*
X119578600Y-80945200D02*
G01*
X118876600Y-80945200D01*
X118876600Y-79293200D01*
X119578600Y-79293200D01*
X119578600Y-80945200D01*
X119578600Y-80945200D01*
G37*
G36*
X109995562Y-79185581D02*
G01*
X110030481Y-79196174D01*
X110062663Y-79213376D01*
X110090873Y-79236527D01*
X110114024Y-79264737D01*
X110131226Y-79296919D01*
X110141819Y-79331838D01*
X110146000Y-79374295D01*
X110146000Y-80515505D01*
X110141819Y-80557962D01*
X110131226Y-80592881D01*
X110114024Y-80625063D01*
X110090873Y-80653273D01*
X110062663Y-80676424D01*
X110030481Y-80693626D01*
X109995562Y-80704219D01*
X109953105Y-80708400D01*
X108486895Y-80708400D01*
X108444438Y-80704219D01*
X108409519Y-80693626D01*
X108377337Y-80676424D01*
X108349127Y-80653273D01*
X108325976Y-80625063D01*
X108308774Y-80592881D01*
X108298181Y-80557962D01*
X108294000Y-80515505D01*
X108294000Y-79374295D01*
X108298181Y-79331838D01*
X108308774Y-79296919D01*
X108325976Y-79264737D01*
X108349127Y-79236527D01*
X108377337Y-79213376D01*
X108409519Y-79196174D01*
X108444438Y-79185581D01*
X108486895Y-79181400D01*
X109953105Y-79181400D01*
X109995562Y-79185581D01*
X109995562Y-79185581D01*
G37*
G36*
X105169562Y-79185581D02*
G01*
X105204481Y-79196174D01*
X105236663Y-79213376D01*
X105264873Y-79236527D01*
X105288024Y-79264737D01*
X105305226Y-79296919D01*
X105315819Y-79331838D01*
X105320000Y-79374295D01*
X105320000Y-80515505D01*
X105315819Y-80557962D01*
X105305226Y-80592881D01*
X105288024Y-80625063D01*
X105264873Y-80653273D01*
X105236663Y-80676424D01*
X105204481Y-80693626D01*
X105169562Y-80704219D01*
X105127105Y-80708400D01*
X103660895Y-80708400D01*
X103618438Y-80704219D01*
X103583519Y-80693626D01*
X103551337Y-80676424D01*
X103523127Y-80653273D01*
X103499976Y-80625063D01*
X103482774Y-80592881D01*
X103472181Y-80557962D01*
X103468000Y-80515505D01*
X103468000Y-79374295D01*
X103472181Y-79331838D01*
X103482774Y-79296919D01*
X103499976Y-79264737D01*
X103523127Y-79236527D01*
X103551337Y-79213376D01*
X103583519Y-79196174D01*
X103618438Y-79185581D01*
X103660895Y-79181400D01*
X105127105Y-79181400D01*
X105169562Y-79185581D01*
X105169562Y-79185581D01*
G37*
G36*
X112433962Y-79185581D02*
G01*
X112468881Y-79196174D01*
X112501063Y-79213376D01*
X112529273Y-79236527D01*
X112552424Y-79264737D01*
X112569626Y-79296919D01*
X112580219Y-79331838D01*
X112584400Y-79374295D01*
X112584400Y-80515505D01*
X112580219Y-80557962D01*
X112569626Y-80592881D01*
X112552424Y-80625063D01*
X112529273Y-80653273D01*
X112501063Y-80676424D01*
X112468881Y-80693626D01*
X112433962Y-80704219D01*
X112391505Y-80708400D01*
X110925295Y-80708400D01*
X110882838Y-80704219D01*
X110847919Y-80693626D01*
X110815737Y-80676424D01*
X110787527Y-80653273D01*
X110764376Y-80625063D01*
X110747174Y-80592881D01*
X110736581Y-80557962D01*
X110732400Y-80515505D01*
X110732400Y-79374295D01*
X110736581Y-79331838D01*
X110747174Y-79296919D01*
X110764376Y-79264737D01*
X110787527Y-79236527D01*
X110815737Y-79213376D01*
X110847919Y-79196174D01*
X110882838Y-79185581D01*
X110925295Y-79181400D01*
X112391505Y-79181400D01*
X112433962Y-79185581D01*
X112433962Y-79185581D01*
G37*
G36*
X107607962Y-79171281D02*
G01*
X107642881Y-79181874D01*
X107675063Y-79199076D01*
X107703273Y-79222227D01*
X107726424Y-79250437D01*
X107743626Y-79282619D01*
X107754219Y-79317538D01*
X107758400Y-79359995D01*
X107758400Y-80501205D01*
X107754219Y-80543662D01*
X107743626Y-80578581D01*
X107726424Y-80610763D01*
X107703273Y-80638973D01*
X107675063Y-80662124D01*
X107642881Y-80679326D01*
X107607962Y-80689919D01*
X107565505Y-80694100D01*
X106099295Y-80694100D01*
X106056838Y-80689919D01*
X106021919Y-80679326D01*
X105989737Y-80662124D01*
X105961527Y-80638973D01*
X105938376Y-80610763D01*
X105921174Y-80578581D01*
X105910581Y-80543662D01*
X105906400Y-80501205D01*
X105906400Y-79359995D01*
X105910581Y-79317538D01*
X105921174Y-79282619D01*
X105938376Y-79250437D01*
X105961527Y-79222227D01*
X105989737Y-79199076D01*
X106021919Y-79181874D01*
X106056838Y-79171281D01*
X106099295Y-79167100D01*
X107565505Y-79167100D01*
X107607962Y-79171281D01*
X107607962Y-79171281D01*
G37*
G36*
X152586600Y-79910600D02*
G01*
X150484600Y-79910600D01*
X150484600Y-78308600D01*
X152586600Y-78308600D01*
X152586600Y-79910600D01*
X152586600Y-79910600D01*
G37*
G36*
X158886600Y-78760600D02*
G01*
X156784600Y-78760600D01*
X156784600Y-74858600D01*
X158886600Y-74858600D01*
X158886600Y-78760600D01*
X158886600Y-78760600D01*
G37*
G36*
X107607962Y-77080581D02*
G01*
X107642881Y-77091174D01*
X107675063Y-77108376D01*
X107703273Y-77131527D01*
X107726424Y-77159737D01*
X107743626Y-77191919D01*
X107754219Y-77226838D01*
X107758400Y-77269295D01*
X107758400Y-78410505D01*
X107754219Y-78452962D01*
X107743626Y-78487881D01*
X107726424Y-78520063D01*
X107703273Y-78548273D01*
X107675063Y-78571424D01*
X107642881Y-78588626D01*
X107607962Y-78599219D01*
X107565505Y-78603400D01*
X106099295Y-78603400D01*
X106056838Y-78599219D01*
X106021919Y-78588626D01*
X105989737Y-78571424D01*
X105961527Y-78548273D01*
X105938376Y-78520063D01*
X105921174Y-78487881D01*
X105910581Y-78452962D01*
X105906400Y-78410505D01*
X105906400Y-77269295D01*
X105910581Y-77226838D01*
X105921174Y-77191919D01*
X105938376Y-77159737D01*
X105961527Y-77131527D01*
X105989737Y-77108376D01*
X106021919Y-77091174D01*
X106056838Y-77080581D01*
X106099295Y-77076400D01*
X107565505Y-77076400D01*
X107607962Y-77080581D01*
X107607962Y-77080581D01*
G37*
G36*
X105169562Y-77066281D02*
G01*
X105204481Y-77076874D01*
X105236663Y-77094076D01*
X105264873Y-77117227D01*
X105288024Y-77145437D01*
X105305226Y-77177619D01*
X105315819Y-77212538D01*
X105320000Y-77254995D01*
X105320000Y-78396205D01*
X105315819Y-78438662D01*
X105305226Y-78473581D01*
X105288024Y-78505763D01*
X105264873Y-78533973D01*
X105236663Y-78557124D01*
X105204481Y-78574326D01*
X105169562Y-78584919D01*
X105127105Y-78589100D01*
X103660895Y-78589100D01*
X103618438Y-78584919D01*
X103583519Y-78574326D01*
X103551337Y-78557124D01*
X103523127Y-78533973D01*
X103499976Y-78505763D01*
X103482774Y-78473581D01*
X103472181Y-78438662D01*
X103468000Y-78396205D01*
X103468000Y-77254995D01*
X103472181Y-77212538D01*
X103482774Y-77177619D01*
X103499976Y-77145437D01*
X103523127Y-77117227D01*
X103551337Y-77094076D01*
X103583519Y-77076874D01*
X103618438Y-77066281D01*
X103660895Y-77062100D01*
X105127105Y-77062100D01*
X105169562Y-77066281D01*
X105169562Y-77066281D01*
G37*
G36*
X109995562Y-77044081D02*
G01*
X110030481Y-77054674D01*
X110062663Y-77071876D01*
X110090873Y-77095027D01*
X110114024Y-77123237D01*
X110131226Y-77155419D01*
X110141819Y-77190338D01*
X110146000Y-77232795D01*
X110146000Y-78374005D01*
X110141819Y-78416462D01*
X110131226Y-78451381D01*
X110114024Y-78483563D01*
X110090873Y-78511773D01*
X110062663Y-78534924D01*
X110030481Y-78552126D01*
X109995562Y-78562719D01*
X109953105Y-78566900D01*
X108486895Y-78566900D01*
X108444438Y-78562719D01*
X108409519Y-78552126D01*
X108377337Y-78534924D01*
X108349127Y-78511773D01*
X108325976Y-78483563D01*
X108308774Y-78451381D01*
X108298181Y-78416462D01*
X108294000Y-78374005D01*
X108294000Y-77232795D01*
X108298181Y-77190338D01*
X108308774Y-77155419D01*
X108325976Y-77123237D01*
X108349127Y-77095027D01*
X108377337Y-77071876D01*
X108409519Y-77054674D01*
X108444438Y-77044081D01*
X108486895Y-77039900D01*
X109953105Y-77039900D01*
X109995562Y-77044081D01*
X109995562Y-77044081D01*
G37*
G36*
X112433962Y-77044081D02*
G01*
X112468881Y-77054674D01*
X112501063Y-77071876D01*
X112529273Y-77095027D01*
X112552424Y-77123237D01*
X112569626Y-77155419D01*
X112580219Y-77190338D01*
X112584400Y-77232795D01*
X112584400Y-78374005D01*
X112580219Y-78416462D01*
X112569626Y-78451381D01*
X112552424Y-78483563D01*
X112529273Y-78511773D01*
X112501063Y-78534924D01*
X112468881Y-78552126D01*
X112433962Y-78562719D01*
X112391505Y-78566900D01*
X110925295Y-78566900D01*
X110882838Y-78562719D01*
X110847919Y-78552126D01*
X110815737Y-78534924D01*
X110787527Y-78511773D01*
X110764376Y-78483563D01*
X110747174Y-78451381D01*
X110736581Y-78416462D01*
X110732400Y-78374005D01*
X110732400Y-77232795D01*
X110736581Y-77190338D01*
X110747174Y-77155419D01*
X110764376Y-77123237D01*
X110787527Y-77095027D01*
X110815737Y-77071876D01*
X110847919Y-77054674D01*
X110882838Y-77044081D01*
X110925295Y-77039900D01*
X112391505Y-77039900D01*
X112433962Y-77044081D01*
X112433962Y-77044081D01*
G37*
G36*
X143193362Y-76696381D02*
G01*
X143228281Y-76706974D01*
X143260463Y-76724176D01*
X143288673Y-76747327D01*
X143311824Y-76775537D01*
X143329026Y-76807719D01*
X143339619Y-76842638D01*
X143343800Y-76885095D01*
X143343800Y-78026305D01*
X143339619Y-78068762D01*
X143329026Y-78103681D01*
X143311824Y-78135863D01*
X143288673Y-78164073D01*
X143260463Y-78187224D01*
X143228281Y-78204426D01*
X143193362Y-78215019D01*
X143150905Y-78219200D01*
X141684695Y-78219200D01*
X141642238Y-78215019D01*
X141607319Y-78204426D01*
X141575137Y-78187224D01*
X141546927Y-78164073D01*
X141523776Y-78135863D01*
X141506574Y-78103681D01*
X141495981Y-78068762D01*
X141491800Y-78026305D01*
X141491800Y-76885095D01*
X141495981Y-76842638D01*
X141506574Y-76807719D01*
X141523776Y-76775537D01*
X141546927Y-76747327D01*
X141575137Y-76724176D01*
X141607319Y-76706974D01*
X141642238Y-76696381D01*
X141684695Y-76692200D01*
X143150905Y-76692200D01*
X143193362Y-76696381D01*
X143193362Y-76696381D01*
G37*
G36*
X138189562Y-76685281D02*
G01*
X138224481Y-76695874D01*
X138256663Y-76713076D01*
X138284873Y-76736227D01*
X138308024Y-76764437D01*
X138325226Y-76796619D01*
X138335819Y-76831538D01*
X138340000Y-76873995D01*
X138340000Y-78015205D01*
X138335819Y-78057662D01*
X138325226Y-78092581D01*
X138308024Y-78124763D01*
X138284873Y-78152973D01*
X138256663Y-78176124D01*
X138224481Y-78193326D01*
X138189562Y-78203919D01*
X138147105Y-78208100D01*
X136680895Y-78208100D01*
X136638438Y-78203919D01*
X136603519Y-78193326D01*
X136571337Y-78176124D01*
X136543127Y-78152973D01*
X136519976Y-78124763D01*
X136502774Y-78092581D01*
X136492181Y-78057662D01*
X136488000Y-78015205D01*
X136488000Y-76873995D01*
X136492181Y-76831538D01*
X136502774Y-76796619D01*
X136519976Y-76764437D01*
X136543127Y-76736227D01*
X136571337Y-76713076D01*
X136603519Y-76695874D01*
X136638438Y-76685281D01*
X136680895Y-76681100D01*
X138147105Y-76681100D01*
X138189562Y-76685281D01*
X138189562Y-76685281D01*
G37*
G36*
X140716862Y-76683681D02*
G01*
X140751781Y-76694274D01*
X140783963Y-76711476D01*
X140812173Y-76734627D01*
X140835324Y-76762837D01*
X140852526Y-76795019D01*
X140863119Y-76829938D01*
X140867300Y-76872395D01*
X140867300Y-78013605D01*
X140863119Y-78056062D01*
X140852526Y-78090981D01*
X140835324Y-78123163D01*
X140812173Y-78151373D01*
X140783963Y-78174524D01*
X140751781Y-78191726D01*
X140716862Y-78202319D01*
X140674405Y-78206500D01*
X139208195Y-78206500D01*
X139165738Y-78202319D01*
X139130819Y-78191726D01*
X139098637Y-78174524D01*
X139070427Y-78151373D01*
X139047276Y-78123163D01*
X139030074Y-78090981D01*
X139019481Y-78056062D01*
X139015300Y-78013605D01*
X139015300Y-76872395D01*
X139019481Y-76829938D01*
X139030074Y-76795019D01*
X139047276Y-76762837D01*
X139070427Y-76734627D01*
X139098637Y-76711476D01*
X139130819Y-76694274D01*
X139165738Y-76683681D01*
X139208195Y-76679500D01*
X140674405Y-76679500D01*
X140716862Y-76683681D01*
X140716862Y-76683681D01*
G37*
G36*
X145682562Y-76658281D02*
G01*
X145717481Y-76668874D01*
X145749663Y-76686076D01*
X145777873Y-76709227D01*
X145801024Y-76737437D01*
X145818226Y-76769619D01*
X145828819Y-76804538D01*
X145833000Y-76846995D01*
X145833000Y-77988205D01*
X145828819Y-78030662D01*
X145818226Y-78065581D01*
X145801024Y-78097763D01*
X145777873Y-78125973D01*
X145749663Y-78149124D01*
X145717481Y-78166326D01*
X145682562Y-78176919D01*
X145640105Y-78181100D01*
X144173895Y-78181100D01*
X144131438Y-78176919D01*
X144096519Y-78166326D01*
X144064337Y-78149124D01*
X144036127Y-78125973D01*
X144012976Y-78097763D01*
X143995774Y-78065581D01*
X143985181Y-78030662D01*
X143981000Y-77988205D01*
X143981000Y-76846995D01*
X143985181Y-76804538D01*
X143995774Y-76769619D01*
X144012976Y-76737437D01*
X144036127Y-76709227D01*
X144064337Y-76686076D01*
X144096519Y-76668874D01*
X144131438Y-76658281D01*
X144173895Y-76654100D01*
X145640105Y-76654100D01*
X145682562Y-76658281D01*
X145682562Y-76658281D01*
G37*
G36*
X152586600Y-77610600D02*
G01*
X150484600Y-77610600D01*
X150484600Y-76008600D01*
X152586600Y-76008600D01*
X152586600Y-77610600D01*
X152586600Y-77610600D01*
G37*
G36*
X142876762Y-74262181D02*
G01*
X142911681Y-74272774D01*
X142943863Y-74289976D01*
X142972073Y-74313127D01*
X142995224Y-74341337D01*
X143012426Y-74373519D01*
X143023019Y-74408438D01*
X143027200Y-74450895D01*
X143027200Y-75917105D01*
X143023019Y-75959562D01*
X143012426Y-75994481D01*
X142995224Y-76026663D01*
X142972073Y-76054873D01*
X142943863Y-76078024D01*
X142911681Y-76095226D01*
X142876762Y-76105819D01*
X142834305Y-76110000D01*
X141693095Y-76110000D01*
X141650638Y-76105819D01*
X141615719Y-76095226D01*
X141583537Y-76078024D01*
X141555327Y-76054873D01*
X141532176Y-76026663D01*
X141514974Y-75994481D01*
X141504381Y-75959562D01*
X141500200Y-75917105D01*
X141500200Y-74450895D01*
X141504381Y-74408438D01*
X141514974Y-74373519D01*
X141532176Y-74341337D01*
X141555327Y-74313127D01*
X141583537Y-74289976D01*
X141615719Y-74272774D01*
X141650638Y-74262181D01*
X141693095Y-74258000D01*
X142834305Y-74258000D01*
X142876762Y-74262181D01*
X142876762Y-74262181D01*
G37*
G36*
X145851762Y-74262181D02*
G01*
X145886681Y-74272774D01*
X145918863Y-74289976D01*
X145947073Y-74313127D01*
X145970224Y-74341337D01*
X145987426Y-74373519D01*
X145998019Y-74408438D01*
X146002200Y-74450895D01*
X146002200Y-75917105D01*
X145998019Y-75959562D01*
X145987426Y-75994481D01*
X145970224Y-76026663D01*
X145947073Y-76054873D01*
X145918863Y-76078024D01*
X145886681Y-76095226D01*
X145851762Y-76105819D01*
X145809305Y-76110000D01*
X144668095Y-76110000D01*
X144625638Y-76105819D01*
X144590719Y-76095226D01*
X144558537Y-76078024D01*
X144530327Y-76054873D01*
X144507176Y-76026663D01*
X144489974Y-75994481D01*
X144479381Y-75959562D01*
X144475200Y-75917105D01*
X144475200Y-74450895D01*
X144479381Y-74408438D01*
X144489974Y-74373519D01*
X144507176Y-74341337D01*
X144530327Y-74313127D01*
X144558537Y-74289976D01*
X144590719Y-74272774D01*
X144625638Y-74262181D01*
X144668095Y-74258000D01*
X145809305Y-74258000D01*
X145851762Y-74262181D01*
X145851762Y-74262181D01*
G37*
G36*
X140720962Y-74262181D02*
G01*
X140755881Y-74272774D01*
X140788063Y-74289976D01*
X140816273Y-74313127D01*
X140839424Y-74341337D01*
X140856626Y-74373519D01*
X140867219Y-74408438D01*
X140871400Y-74450895D01*
X140871400Y-75917105D01*
X140867219Y-75959562D01*
X140856626Y-75994481D01*
X140839424Y-76026663D01*
X140816273Y-76054873D01*
X140788063Y-76078024D01*
X140755881Y-76095226D01*
X140720962Y-76105819D01*
X140678505Y-76110000D01*
X139537295Y-76110000D01*
X139494838Y-76105819D01*
X139459919Y-76095226D01*
X139427737Y-76078024D01*
X139399527Y-76054873D01*
X139376376Y-76026663D01*
X139359174Y-75994481D01*
X139348581Y-75959562D01*
X139344400Y-75917105D01*
X139344400Y-74450895D01*
X139348581Y-74408438D01*
X139359174Y-74373519D01*
X139376376Y-74341337D01*
X139399527Y-74313127D01*
X139427737Y-74289976D01*
X139459919Y-74272774D01*
X139494838Y-74262181D01*
X139537295Y-74258000D01*
X140678505Y-74258000D01*
X140720962Y-74262181D01*
X140720962Y-74262181D01*
G37*
G36*
X137745962Y-74262181D02*
G01*
X137780881Y-74272774D01*
X137813063Y-74289976D01*
X137841273Y-74313127D01*
X137864424Y-74341337D01*
X137881626Y-74373519D01*
X137892219Y-74408438D01*
X137896400Y-74450895D01*
X137896400Y-75917105D01*
X137892219Y-75959562D01*
X137881626Y-75994481D01*
X137864424Y-76026663D01*
X137841273Y-76054873D01*
X137813063Y-76078024D01*
X137780881Y-76095226D01*
X137745962Y-76105819D01*
X137703505Y-76110000D01*
X136562295Y-76110000D01*
X136519838Y-76105819D01*
X136484919Y-76095226D01*
X136452737Y-76078024D01*
X136424527Y-76054873D01*
X136401376Y-76026663D01*
X136384174Y-75994481D01*
X136373581Y-75959562D01*
X136369400Y-75917105D01*
X136369400Y-74450895D01*
X136373581Y-74408438D01*
X136384174Y-74373519D01*
X136401376Y-74341337D01*
X136424527Y-74313127D01*
X136452737Y-74289976D01*
X136484919Y-74272774D01*
X136519838Y-74262181D01*
X136562295Y-74258000D01*
X137703505Y-74258000D01*
X137745962Y-74262181D01*
X137745962Y-74262181D01*
G37*
G36*
X107607962Y-74105581D02*
G01*
X107642881Y-74116174D01*
X107675063Y-74133376D01*
X107703273Y-74156527D01*
X107726424Y-74184737D01*
X107743626Y-74216919D01*
X107754219Y-74251838D01*
X107758400Y-74294295D01*
X107758400Y-75435505D01*
X107754219Y-75477962D01*
X107743626Y-75512881D01*
X107726424Y-75545063D01*
X107703273Y-75573273D01*
X107675063Y-75596424D01*
X107642881Y-75613626D01*
X107607962Y-75624219D01*
X107565505Y-75628400D01*
X106099295Y-75628400D01*
X106056838Y-75624219D01*
X106021919Y-75613626D01*
X105989737Y-75596424D01*
X105961527Y-75573273D01*
X105938376Y-75545063D01*
X105921174Y-75512881D01*
X105910581Y-75477962D01*
X105906400Y-75435505D01*
X105906400Y-74294295D01*
X105910581Y-74251838D01*
X105921174Y-74216919D01*
X105938376Y-74184737D01*
X105961527Y-74156527D01*
X105989737Y-74133376D01*
X106021919Y-74116174D01*
X106056838Y-74105581D01*
X106099295Y-74101400D01*
X107565505Y-74101400D01*
X107607962Y-74105581D01*
X107607962Y-74105581D01*
G37*
G36*
X105169562Y-74091281D02*
G01*
X105204481Y-74101874D01*
X105236663Y-74119076D01*
X105264873Y-74142227D01*
X105288024Y-74170437D01*
X105305226Y-74202619D01*
X105315819Y-74237538D01*
X105320000Y-74279995D01*
X105320000Y-75421205D01*
X105315819Y-75463662D01*
X105305226Y-75498581D01*
X105288024Y-75530763D01*
X105264873Y-75558973D01*
X105236663Y-75582124D01*
X105204481Y-75599326D01*
X105169562Y-75609919D01*
X105127105Y-75614100D01*
X103660895Y-75614100D01*
X103618438Y-75609919D01*
X103583519Y-75599326D01*
X103551337Y-75582124D01*
X103523127Y-75558973D01*
X103499976Y-75530763D01*
X103482774Y-75498581D01*
X103472181Y-75463662D01*
X103468000Y-75421205D01*
X103468000Y-74279995D01*
X103472181Y-74237538D01*
X103482774Y-74202619D01*
X103499976Y-74170437D01*
X103523127Y-74142227D01*
X103551337Y-74119076D01*
X103583519Y-74101874D01*
X103618438Y-74091281D01*
X103660895Y-74087100D01*
X105127105Y-74087100D01*
X105169562Y-74091281D01*
X105169562Y-74091281D01*
G37*
G36*
X109995562Y-74069081D02*
G01*
X110030481Y-74079674D01*
X110062663Y-74096876D01*
X110090873Y-74120027D01*
X110114024Y-74148237D01*
X110131226Y-74180419D01*
X110141819Y-74215338D01*
X110146000Y-74257795D01*
X110146000Y-75399005D01*
X110141819Y-75441462D01*
X110131226Y-75476381D01*
X110114024Y-75508563D01*
X110090873Y-75536773D01*
X110062663Y-75559924D01*
X110030481Y-75577126D01*
X109995562Y-75587719D01*
X109953105Y-75591900D01*
X108486895Y-75591900D01*
X108444438Y-75587719D01*
X108409519Y-75577126D01*
X108377337Y-75559924D01*
X108349127Y-75536773D01*
X108325976Y-75508563D01*
X108308774Y-75476381D01*
X108298181Y-75441462D01*
X108294000Y-75399005D01*
X108294000Y-74257795D01*
X108298181Y-74215338D01*
X108308774Y-74180419D01*
X108325976Y-74148237D01*
X108349127Y-74120027D01*
X108377337Y-74096876D01*
X108409519Y-74079674D01*
X108444438Y-74069081D01*
X108486895Y-74064900D01*
X109953105Y-74064900D01*
X109995562Y-74069081D01*
X109995562Y-74069081D01*
G37*
G36*
X112433962Y-74069081D02*
G01*
X112468881Y-74079674D01*
X112501063Y-74096876D01*
X112529273Y-74120027D01*
X112552424Y-74148237D01*
X112569626Y-74180419D01*
X112580219Y-74215338D01*
X112584400Y-74257795D01*
X112584400Y-75399005D01*
X112580219Y-75441462D01*
X112569626Y-75476381D01*
X112552424Y-75508563D01*
X112529273Y-75536773D01*
X112501063Y-75559924D01*
X112468881Y-75577126D01*
X112433962Y-75587719D01*
X112391505Y-75591900D01*
X110925295Y-75591900D01*
X110882838Y-75587719D01*
X110847919Y-75577126D01*
X110815737Y-75559924D01*
X110787527Y-75536773D01*
X110764376Y-75508563D01*
X110747174Y-75476381D01*
X110736581Y-75441462D01*
X110732400Y-75399005D01*
X110732400Y-74257795D01*
X110736581Y-74215338D01*
X110747174Y-74180419D01*
X110764376Y-74148237D01*
X110787527Y-74120027D01*
X110815737Y-74096876D01*
X110847919Y-74079674D01*
X110882838Y-74069081D01*
X110925295Y-74064900D01*
X112391505Y-74064900D01*
X112433962Y-74069081D01*
X112433962Y-74069081D01*
G37*
G36*
X115768600Y-75545200D02*
G01*
X115066600Y-75545200D01*
X115066600Y-73893200D01*
X115768600Y-73893200D01*
X115768600Y-75545200D01*
X115768600Y-75545200D01*
G37*
G36*
X118308600Y-75545200D02*
G01*
X117606600Y-75545200D01*
X117606600Y-73893200D01*
X118308600Y-73893200D01*
X118308600Y-75545200D01*
X118308600Y-75545200D01*
G37*
G36*
X117038600Y-75545200D02*
G01*
X116336600Y-75545200D01*
X116336600Y-73893200D01*
X117038600Y-73893200D01*
X117038600Y-75545200D01*
X117038600Y-75545200D01*
G37*
G36*
X119578600Y-75545200D02*
G01*
X118876600Y-75545200D01*
X118876600Y-73893200D01*
X119578600Y-73893200D01*
X119578600Y-75545200D01*
X119578600Y-75545200D01*
G37*
G36*
X134053562Y-73601781D02*
G01*
X134088481Y-73612374D01*
X134120663Y-73629576D01*
X134148873Y-73652727D01*
X134172024Y-73680937D01*
X134189226Y-73713119D01*
X134199819Y-73748038D01*
X134204000Y-73790495D01*
X134204000Y-75256705D01*
X134199819Y-75299162D01*
X134189226Y-75334081D01*
X134172024Y-75366263D01*
X134148873Y-75394473D01*
X134120663Y-75417624D01*
X134088481Y-75434826D01*
X134053562Y-75445419D01*
X134011105Y-75449600D01*
X132869895Y-75449600D01*
X132827438Y-75445419D01*
X132792519Y-75434826D01*
X132760337Y-75417624D01*
X132732127Y-75394473D01*
X132708976Y-75366263D01*
X132691774Y-75334081D01*
X132681181Y-75299162D01*
X132677000Y-75256705D01*
X132677000Y-73790495D01*
X132681181Y-73748038D01*
X132691774Y-73713119D01*
X132708976Y-73680937D01*
X132732127Y-73652727D01*
X132760337Y-73629576D01*
X132792519Y-73612374D01*
X132827438Y-73601781D01*
X132869895Y-73597600D01*
X134011105Y-73597600D01*
X134053562Y-73601781D01*
X134053562Y-73601781D01*
G37*
G36*
X131078562Y-73601781D02*
G01*
X131113481Y-73612374D01*
X131145663Y-73629576D01*
X131173873Y-73652727D01*
X131197024Y-73680937D01*
X131214226Y-73713119D01*
X131224819Y-73748038D01*
X131229000Y-73790495D01*
X131229000Y-75256705D01*
X131224819Y-75299162D01*
X131214226Y-75334081D01*
X131197024Y-75366263D01*
X131173873Y-75394473D01*
X131145663Y-75417624D01*
X131113481Y-75434826D01*
X131078562Y-75445419D01*
X131036105Y-75449600D01*
X129894895Y-75449600D01*
X129852438Y-75445419D01*
X129817519Y-75434826D01*
X129785337Y-75417624D01*
X129757127Y-75394473D01*
X129733976Y-75366263D01*
X129716774Y-75334081D01*
X129706181Y-75299162D01*
X129702000Y-75256705D01*
X129702000Y-73790495D01*
X129706181Y-73748038D01*
X129716774Y-73713119D01*
X129733976Y-73680937D01*
X129757127Y-73652727D01*
X129785337Y-73629576D01*
X129817519Y-73612374D01*
X129852438Y-73601781D01*
X129894895Y-73597600D01*
X131036105Y-73597600D01*
X131078562Y-73601781D01*
X131078562Y-73601781D01*
G37*
G36*
X128414762Y-73601781D02*
G01*
X128449681Y-73612374D01*
X128481863Y-73629576D01*
X128510073Y-73652727D01*
X128533224Y-73680937D01*
X128550426Y-73713119D01*
X128561019Y-73748038D01*
X128565200Y-73790495D01*
X128565200Y-75256705D01*
X128561019Y-75299162D01*
X128550426Y-75334081D01*
X128533224Y-75366263D01*
X128510073Y-75394473D01*
X128481863Y-75417624D01*
X128449681Y-75434826D01*
X128414762Y-75445419D01*
X128372305Y-75449600D01*
X127231095Y-75449600D01*
X127188638Y-75445419D01*
X127153719Y-75434826D01*
X127121537Y-75417624D01*
X127093327Y-75394473D01*
X127070176Y-75366263D01*
X127052974Y-75334081D01*
X127042381Y-75299162D01*
X127038200Y-75256705D01*
X127038200Y-73790495D01*
X127042381Y-73748038D01*
X127052974Y-73713119D01*
X127070176Y-73680937D01*
X127093327Y-73652727D01*
X127121537Y-73629576D01*
X127153719Y-73612374D01*
X127188638Y-73601781D01*
X127231095Y-73597600D01*
X128372305Y-73597600D01*
X128414762Y-73601781D01*
X128414762Y-73601781D01*
G37*
G36*
X125439762Y-73601781D02*
G01*
X125474681Y-73612374D01*
X125506863Y-73629576D01*
X125535073Y-73652727D01*
X125558224Y-73680937D01*
X125575426Y-73713119D01*
X125586019Y-73748038D01*
X125590200Y-73790495D01*
X125590200Y-75256705D01*
X125586019Y-75299162D01*
X125575426Y-75334081D01*
X125558224Y-75366263D01*
X125535073Y-75394473D01*
X125506863Y-75417624D01*
X125474681Y-75434826D01*
X125439762Y-75445419D01*
X125397305Y-75449600D01*
X124256095Y-75449600D01*
X124213638Y-75445419D01*
X124178719Y-75434826D01*
X124146537Y-75417624D01*
X124118327Y-75394473D01*
X124095176Y-75366263D01*
X124077974Y-75334081D01*
X124067381Y-75299162D01*
X124063200Y-75256705D01*
X124063200Y-73790495D01*
X124067381Y-73748038D01*
X124077974Y-73713119D01*
X124095176Y-73680937D01*
X124118327Y-73652727D01*
X124146537Y-73629576D01*
X124178719Y-73612374D01*
X124213638Y-73601781D01*
X124256095Y-73597600D01*
X125397305Y-73597600D01*
X125439762Y-73601781D01*
X125439762Y-73601781D01*
G37*
G36*
X152586600Y-75310600D02*
G01*
X150484600Y-75310600D01*
X150484600Y-73708600D01*
X152586600Y-73708600D01*
X152586600Y-75310600D01*
X152586600Y-75310600D01*
G37*
G36*
X119372362Y-71417381D02*
G01*
X119407281Y-71427974D01*
X119439463Y-71445176D01*
X119467673Y-71468327D01*
X119490824Y-71496537D01*
X119508026Y-71528719D01*
X119518619Y-71563638D01*
X119522800Y-71606095D01*
X119522800Y-73072305D01*
X119518619Y-73114762D01*
X119508026Y-73149681D01*
X119490824Y-73181863D01*
X119467673Y-73210073D01*
X119439463Y-73233224D01*
X119407281Y-73250426D01*
X119372362Y-73261019D01*
X119329905Y-73265200D01*
X118188695Y-73265200D01*
X118146238Y-73261019D01*
X118111319Y-73250426D01*
X118079137Y-73233224D01*
X118050927Y-73210073D01*
X118027776Y-73181863D01*
X118010574Y-73149681D01*
X117999981Y-73114762D01*
X117995800Y-73072305D01*
X117995800Y-71606095D01*
X117999981Y-71563638D01*
X118010574Y-71528719D01*
X118027776Y-71496537D01*
X118050927Y-71468327D01*
X118079137Y-71445176D01*
X118111319Y-71427974D01*
X118146238Y-71417381D01*
X118188695Y-71413200D01*
X119329905Y-71413200D01*
X119372362Y-71417381D01*
X119372362Y-71417381D01*
G37*
G36*
X116397362Y-71417381D02*
G01*
X116432281Y-71427974D01*
X116464463Y-71445176D01*
X116492673Y-71468327D01*
X116515824Y-71496537D01*
X116533026Y-71528719D01*
X116543619Y-71563638D01*
X116547800Y-71606095D01*
X116547800Y-73072305D01*
X116543619Y-73114762D01*
X116533026Y-73149681D01*
X116515824Y-73181863D01*
X116492673Y-73210073D01*
X116464463Y-73233224D01*
X116432281Y-73250426D01*
X116397362Y-73261019D01*
X116354905Y-73265200D01*
X115213695Y-73265200D01*
X115171238Y-73261019D01*
X115136319Y-73250426D01*
X115104137Y-73233224D01*
X115075927Y-73210073D01*
X115052776Y-73181863D01*
X115035574Y-73149681D01*
X115024981Y-73114762D01*
X115020800Y-73072305D01*
X115020800Y-71606095D01*
X115024981Y-71563638D01*
X115035574Y-71528719D01*
X115052776Y-71496537D01*
X115075927Y-71468327D01*
X115104137Y-71445176D01*
X115136319Y-71427974D01*
X115171238Y-71417381D01*
X115213695Y-71413200D01*
X116354905Y-71413200D01*
X116397362Y-71417381D01*
X116397362Y-71417381D01*
G37*
G36*
X125928600Y-72969600D02*
G01*
X125226600Y-72969600D01*
X125226600Y-71317600D01*
X125928600Y-71317600D01*
X125928600Y-72969600D01*
X125928600Y-72969600D01*
G37*
G36*
X134209000Y-72969600D02*
G01*
X133507000Y-72969600D01*
X133507000Y-71317600D01*
X134209000Y-71317600D01*
X134209000Y-72969600D01*
X134209000Y-72969600D01*
G37*
G36*
X132939000Y-72969600D02*
G01*
X132237000Y-72969600D01*
X132237000Y-71317600D01*
X132939000Y-71317600D01*
X132939000Y-72969600D01*
X132939000Y-72969600D01*
G37*
G36*
X131669000Y-72969600D02*
G01*
X130967000Y-72969600D01*
X130967000Y-71317600D01*
X131669000Y-71317600D01*
X131669000Y-72969600D01*
X131669000Y-72969600D01*
G37*
G36*
X130399000Y-72969600D02*
G01*
X129697000Y-72969600D01*
X129697000Y-71317600D01*
X130399000Y-71317600D01*
X130399000Y-72969600D01*
X130399000Y-72969600D01*
G37*
G36*
X127198600Y-72969600D02*
G01*
X126496600Y-72969600D01*
X126496600Y-71317600D01*
X127198600Y-71317600D01*
X127198600Y-72969600D01*
X127198600Y-72969600D01*
G37*
G36*
X124658600Y-72969600D02*
G01*
X123956600Y-72969600D01*
X123956600Y-71317600D01*
X124658600Y-71317600D01*
X124658600Y-72969600D01*
X124658600Y-72969600D01*
G37*
G36*
X128468600Y-72969600D02*
G01*
X127766600Y-72969600D01*
X127766600Y-71317600D01*
X128468600Y-71317600D01*
X128468600Y-72969600D01*
X128468600Y-72969600D01*
G37*
G36*
X138996900Y-72906500D02*
G01*
X138294900Y-72906500D01*
X138294900Y-71304500D01*
X138996900Y-71304500D01*
X138996900Y-72906500D01*
X138996900Y-72906500D01*
G37*
G36*
X145346900Y-72906500D02*
G01*
X144644900Y-72906500D01*
X144644900Y-71304500D01*
X145346900Y-71304500D01*
X145346900Y-72906500D01*
X145346900Y-72906500D01*
G37*
G36*
X144076900Y-72906500D02*
G01*
X143374900Y-72906500D01*
X143374900Y-71304500D01*
X144076900Y-71304500D01*
X144076900Y-72906500D01*
X144076900Y-72906500D01*
G37*
G36*
X142806900Y-72906500D02*
G01*
X142104900Y-72906500D01*
X142104900Y-71304500D01*
X142806900Y-71304500D01*
X142806900Y-72906500D01*
X142806900Y-72906500D01*
G37*
G36*
X141536900Y-72906500D02*
G01*
X140834900Y-72906500D01*
X140834900Y-71304500D01*
X141536900Y-71304500D01*
X141536900Y-72906500D01*
X141536900Y-72906500D01*
G37*
G36*
X140266900Y-72906500D02*
G01*
X139564900Y-72906500D01*
X139564900Y-71304500D01*
X140266900Y-71304500D01*
X140266900Y-72906500D01*
X140266900Y-72906500D01*
G37*
G36*
X137726900Y-72906500D02*
G01*
X137024900Y-72906500D01*
X137024900Y-71304500D01*
X137726900Y-71304500D01*
X137726900Y-72906500D01*
X137726900Y-72906500D01*
G37*
G36*
X151575331Y-67951136D02*
G01*
X151678244Y-67961272D01*
X151873617Y-68020538D01*
X151942337Y-68041384D01*
X152145225Y-68149830D01*
X152185720Y-68171475D01*
X152241291Y-68217082D01*
X152399050Y-68346550D01*
X152528518Y-68504309D01*
X152574125Y-68559880D01*
X152574126Y-68559882D01*
X152704216Y-68803263D01*
X152704217Y-68803267D01*
X152784328Y-69067356D01*
X152811378Y-69342000D01*
X152784328Y-69616644D01*
X152725062Y-69812017D01*
X152704216Y-69880737D01*
X152581564Y-70110202D01*
X152574125Y-70124120D01*
X152528518Y-70179691D01*
X152399050Y-70337450D01*
X152241291Y-70466918D01*
X152185720Y-70512525D01*
X152185718Y-70512526D01*
X151942337Y-70642616D01*
X151873617Y-70663462D01*
X151678244Y-70722728D01*
X151575331Y-70732864D01*
X151472420Y-70743000D01*
X150734780Y-70743000D01*
X150631869Y-70732864D01*
X150528956Y-70722728D01*
X150333583Y-70663462D01*
X150264863Y-70642616D01*
X150021482Y-70512526D01*
X150021480Y-70512525D01*
X149965909Y-70466918D01*
X149808150Y-70337450D01*
X149678682Y-70179691D01*
X149633075Y-70124120D01*
X149625636Y-70110202D01*
X149502984Y-69880737D01*
X149482138Y-69812017D01*
X149422872Y-69616644D01*
X149395822Y-69342000D01*
X149422872Y-69067356D01*
X149502983Y-68803267D01*
X149502984Y-68803263D01*
X149633074Y-68559882D01*
X149633075Y-68559880D01*
X149678682Y-68504309D01*
X149808150Y-68346550D01*
X149965909Y-68217082D01*
X150021480Y-68171475D01*
X150061975Y-68149830D01*
X150264863Y-68041384D01*
X150333583Y-68020538D01*
X150528956Y-67961272D01*
X150631869Y-67951136D01*
X150734780Y-67941000D01*
X151472420Y-67941000D01*
X151575331Y-67951136D01*
X151575331Y-67951136D01*
G37*
G36*
X158177631Y-67944621D02*
G01*
X158207086Y-67953556D01*
X158234223Y-67968062D01*
X158258014Y-67987586D01*
X158277538Y-68011377D01*
X158292044Y-68038514D01*
X158300979Y-68067969D01*
X158304600Y-68104734D01*
X158304600Y-70579266D01*
X158300979Y-70616031D01*
X158292044Y-70645486D01*
X158277538Y-70672623D01*
X158258014Y-70696414D01*
X158234223Y-70715938D01*
X158207086Y-70730444D01*
X158177631Y-70739379D01*
X158140866Y-70743000D01*
X155066334Y-70743000D01*
X155029569Y-70739379D01*
X155000114Y-70730444D01*
X154972977Y-70715938D01*
X154949186Y-70696414D01*
X154929662Y-70672623D01*
X154915156Y-70645486D01*
X154906221Y-70616031D01*
X154902600Y-70579266D01*
X154902600Y-68104734D01*
X154906221Y-68067969D01*
X154915156Y-68038514D01*
X154929662Y-68011377D01*
X154949186Y-67987586D01*
X154972977Y-67968062D01*
X155000114Y-67953556D01*
X155029569Y-67944621D01*
X155066334Y-67941000D01*
X158140866Y-67941000D01*
X158177631Y-67944621D01*
X158177631Y-67944621D01*
G37*
G36*
X119578600Y-70480400D02*
G01*
X118876600Y-70480400D01*
X118876600Y-68828400D01*
X119578600Y-68828400D01*
X119578600Y-70480400D01*
X119578600Y-70480400D01*
G37*
G36*
X115768600Y-70480400D02*
G01*
X115066600Y-70480400D01*
X115066600Y-68828400D01*
X115768600Y-68828400D01*
X115768600Y-70480400D01*
X115768600Y-70480400D01*
G37*
G36*
X117038600Y-70480400D02*
G01*
X116336600Y-70480400D01*
X116336600Y-68828400D01*
X117038600Y-68828400D01*
X117038600Y-70480400D01*
X117038600Y-70480400D01*
G37*
G36*
X118308600Y-70480400D02*
G01*
X117606600Y-70480400D01*
X117606600Y-68828400D01*
X118308600Y-68828400D01*
X118308600Y-70480400D01*
X118308600Y-70480400D01*
G37*
G36*
X130399000Y-67569600D02*
G01*
X129697000Y-67569600D01*
X129697000Y-65917600D01*
X130399000Y-65917600D01*
X130399000Y-67569600D01*
X130399000Y-67569600D01*
G37*
G36*
X131669000Y-67569600D02*
G01*
X130967000Y-67569600D01*
X130967000Y-65917600D01*
X131669000Y-65917600D01*
X131669000Y-67569600D01*
X131669000Y-67569600D01*
G37*
G36*
X132939000Y-67569600D02*
G01*
X132237000Y-67569600D01*
X132237000Y-65917600D01*
X132939000Y-65917600D01*
X132939000Y-67569600D01*
X132939000Y-67569600D01*
G37*
G36*
X128468600Y-67569600D02*
G01*
X127766600Y-67569600D01*
X127766600Y-65917600D01*
X128468600Y-65917600D01*
X128468600Y-67569600D01*
X128468600Y-67569600D01*
G37*
G36*
X125928600Y-67569600D02*
G01*
X125226600Y-67569600D01*
X125226600Y-65917600D01*
X125928600Y-65917600D01*
X125928600Y-67569600D01*
X125928600Y-67569600D01*
G37*
G36*
X127198600Y-67569600D02*
G01*
X126496600Y-67569600D01*
X126496600Y-65917600D01*
X127198600Y-65917600D01*
X127198600Y-67569600D01*
X127198600Y-67569600D01*
G37*
G36*
X134209000Y-67569600D02*
G01*
X133507000Y-67569600D01*
X133507000Y-65917600D01*
X134209000Y-65917600D01*
X134209000Y-67569600D01*
X134209000Y-67569600D01*
G37*
G36*
X124658600Y-67569600D02*
G01*
X123956600Y-67569600D01*
X123956600Y-65917600D01*
X124658600Y-65917600D01*
X124658600Y-67569600D01*
X124658600Y-67569600D01*
G37*
G36*
X140266900Y-67506500D02*
G01*
X139564900Y-67506500D01*
X139564900Y-65904500D01*
X140266900Y-65904500D01*
X140266900Y-67506500D01*
X140266900Y-67506500D01*
G37*
G36*
X141536900Y-67506500D02*
G01*
X140834900Y-67506500D01*
X140834900Y-65904500D01*
X141536900Y-65904500D01*
X141536900Y-67506500D01*
X141536900Y-67506500D01*
G37*
G36*
X138996900Y-67506500D02*
G01*
X138294900Y-67506500D01*
X138294900Y-65904500D01*
X138996900Y-65904500D01*
X138996900Y-67506500D01*
X138996900Y-67506500D01*
G37*
G36*
X142806900Y-67506500D02*
G01*
X142104900Y-67506500D01*
X142104900Y-65904500D01*
X142806900Y-65904500D01*
X142806900Y-67506500D01*
X142806900Y-67506500D01*
G37*
G36*
X144076900Y-67506500D02*
G01*
X143374900Y-67506500D01*
X143374900Y-65904500D01*
X144076900Y-65904500D01*
X144076900Y-67506500D01*
X144076900Y-67506500D01*
G37*
G36*
X145346900Y-67506500D02*
G01*
X144644900Y-67506500D01*
X144644900Y-65904500D01*
X145346900Y-65904500D01*
X145346900Y-67506500D01*
X145346900Y-67506500D01*
G37*
G36*
X137726900Y-67506500D02*
G01*
X137024900Y-67506500D01*
X137024900Y-65904500D01*
X137726900Y-65904500D01*
X137726900Y-67506500D01*
X137726900Y-67506500D01*
G37*
G36*
X128363962Y-63441781D02*
G01*
X128398881Y-63452374D01*
X128431063Y-63469576D01*
X128459273Y-63492727D01*
X128482424Y-63520937D01*
X128499626Y-63553119D01*
X128510219Y-63588038D01*
X128514400Y-63630495D01*
X128514400Y-65096705D01*
X128510219Y-65139162D01*
X128499626Y-65174081D01*
X128482424Y-65206263D01*
X128459273Y-65234473D01*
X128431063Y-65257624D01*
X128398881Y-65274826D01*
X128363962Y-65285419D01*
X128321505Y-65289600D01*
X127180295Y-65289600D01*
X127137838Y-65285419D01*
X127102919Y-65274826D01*
X127070737Y-65257624D01*
X127042527Y-65234473D01*
X127019376Y-65206263D01*
X127002174Y-65174081D01*
X126991581Y-65139162D01*
X126987400Y-65096705D01*
X126987400Y-63630495D01*
X126991581Y-63588038D01*
X127002174Y-63553119D01*
X127019376Y-63520937D01*
X127042527Y-63492727D01*
X127070737Y-63469576D01*
X127102919Y-63452374D01*
X127137838Y-63441781D01*
X127180295Y-63437600D01*
X128321505Y-63437600D01*
X128363962Y-63441781D01*
X128363962Y-63441781D01*
G37*
G36*
X125388962Y-63441781D02*
G01*
X125423881Y-63452374D01*
X125456063Y-63469576D01*
X125484273Y-63492727D01*
X125507424Y-63520937D01*
X125524626Y-63553119D01*
X125535219Y-63588038D01*
X125539400Y-63630495D01*
X125539400Y-65096705D01*
X125535219Y-65139162D01*
X125524626Y-65174081D01*
X125507424Y-65206263D01*
X125484273Y-65234473D01*
X125456063Y-65257624D01*
X125423881Y-65274826D01*
X125388962Y-65285419D01*
X125346505Y-65289600D01*
X124205295Y-65289600D01*
X124162838Y-65285419D01*
X124127919Y-65274826D01*
X124095737Y-65257624D01*
X124067527Y-65234473D01*
X124044376Y-65206263D01*
X124027174Y-65174081D01*
X124016581Y-65139162D01*
X124012400Y-65096705D01*
X124012400Y-63630495D01*
X124016581Y-63588038D01*
X124027174Y-63553119D01*
X124044376Y-63520937D01*
X124067527Y-63492727D01*
X124095737Y-63469576D01*
X124127919Y-63452374D01*
X124162838Y-63441781D01*
X124205295Y-63437600D01*
X125346505Y-63437600D01*
X125388962Y-63441781D01*
X125388962Y-63441781D01*
G37*
G36*
X134017062Y-63441781D02*
G01*
X134051981Y-63452374D01*
X134084163Y-63469576D01*
X134112373Y-63492727D01*
X134135524Y-63520937D01*
X134152726Y-63553119D01*
X134163319Y-63588038D01*
X134167500Y-63630495D01*
X134167500Y-65096705D01*
X134163319Y-65139162D01*
X134152726Y-65174081D01*
X134135524Y-65206263D01*
X134112373Y-65234473D01*
X134084163Y-65257624D01*
X134051981Y-65274826D01*
X134017062Y-65285419D01*
X133974605Y-65289600D01*
X132833395Y-65289600D01*
X132790938Y-65285419D01*
X132756019Y-65274826D01*
X132723837Y-65257624D01*
X132695627Y-65234473D01*
X132672476Y-65206263D01*
X132655274Y-65174081D01*
X132644681Y-65139162D01*
X132640500Y-65096705D01*
X132640500Y-63630495D01*
X132644681Y-63588038D01*
X132655274Y-63553119D01*
X132672476Y-63520937D01*
X132695627Y-63492727D01*
X132723837Y-63469576D01*
X132756019Y-63452374D01*
X132790938Y-63441781D01*
X132833395Y-63437600D01*
X133974605Y-63437600D01*
X134017062Y-63441781D01*
X134017062Y-63441781D01*
G37*
G36*
X131042062Y-63441781D02*
G01*
X131076981Y-63452374D01*
X131109163Y-63469576D01*
X131137373Y-63492727D01*
X131160524Y-63520937D01*
X131177726Y-63553119D01*
X131188319Y-63588038D01*
X131192500Y-63630495D01*
X131192500Y-65096705D01*
X131188319Y-65139162D01*
X131177726Y-65174081D01*
X131160524Y-65206263D01*
X131137373Y-65234473D01*
X131109163Y-65257624D01*
X131076981Y-65274826D01*
X131042062Y-65285419D01*
X130999605Y-65289600D01*
X129858395Y-65289600D01*
X129815938Y-65285419D01*
X129781019Y-65274826D01*
X129748837Y-65257624D01*
X129720627Y-65234473D01*
X129697476Y-65206263D01*
X129680274Y-65174081D01*
X129669681Y-65139162D01*
X129665500Y-65096705D01*
X129665500Y-63630495D01*
X129669681Y-63588038D01*
X129680274Y-63553119D01*
X129697476Y-63520937D01*
X129720627Y-63492727D01*
X129748837Y-63469576D01*
X129781019Y-63452374D01*
X129815938Y-63441781D01*
X129858395Y-63437600D01*
X130999605Y-63437600D01*
X131042062Y-63441781D01*
X131042062Y-63441781D01*
G37*
G36*
X115768600Y-65080400D02*
G01*
X115066600Y-65080400D01*
X115066600Y-63428400D01*
X115768600Y-63428400D01*
X115768600Y-65080400D01*
X115768600Y-65080400D01*
G37*
G36*
X118308600Y-65080400D02*
G01*
X117606600Y-65080400D01*
X117606600Y-63428400D01*
X118308600Y-63428400D01*
X118308600Y-65080400D01*
X118308600Y-65080400D01*
G37*
G36*
X117038600Y-65080400D02*
G01*
X116336600Y-65080400D01*
X116336600Y-63428400D01*
X117038600Y-63428400D01*
X117038600Y-65080400D01*
X117038600Y-65080400D01*
G37*
G36*
X119578600Y-65080400D02*
G01*
X118876600Y-65080400D01*
X118876600Y-63428400D01*
X119578600Y-63428400D01*
X119578600Y-65080400D01*
X119578600Y-65080400D01*
G37*
G36*
X139345162Y-63313781D02*
G01*
X139380081Y-63324374D01*
X139412263Y-63341576D01*
X139440473Y-63364727D01*
X139463624Y-63392937D01*
X139480826Y-63425119D01*
X139491419Y-63460038D01*
X139495600Y-63502495D01*
X139495600Y-64643705D01*
X139491419Y-64686162D01*
X139480826Y-64721081D01*
X139463624Y-64753263D01*
X139440473Y-64781473D01*
X139412263Y-64804624D01*
X139380081Y-64821826D01*
X139345162Y-64832419D01*
X139302705Y-64836600D01*
X137836495Y-64836600D01*
X137794038Y-64832419D01*
X137759119Y-64821826D01*
X137726937Y-64804624D01*
X137698727Y-64781473D01*
X137675576Y-64753263D01*
X137658374Y-64721081D01*
X137647781Y-64686162D01*
X137643600Y-64643705D01*
X137643600Y-63502495D01*
X137647781Y-63460038D01*
X137658374Y-63425119D01*
X137675576Y-63392937D01*
X137698727Y-63364727D01*
X137726937Y-63341576D01*
X137759119Y-63324374D01*
X137794038Y-63313781D01*
X137836495Y-63309600D01*
X139302705Y-63309600D01*
X139345162Y-63313781D01*
X139345162Y-63313781D01*
G37*
G36*
X136906762Y-63313781D02*
G01*
X136941681Y-63324374D01*
X136973863Y-63341576D01*
X137002073Y-63364727D01*
X137025224Y-63392937D01*
X137042426Y-63425119D01*
X137053019Y-63460038D01*
X137057200Y-63502495D01*
X137057200Y-64643705D01*
X137053019Y-64686162D01*
X137042426Y-64721081D01*
X137025224Y-64753263D01*
X137002073Y-64781473D01*
X136973863Y-64804624D01*
X136941681Y-64821826D01*
X136906762Y-64832419D01*
X136864305Y-64836600D01*
X135398095Y-64836600D01*
X135355638Y-64832419D01*
X135320719Y-64821826D01*
X135288537Y-64804624D01*
X135260327Y-64781473D01*
X135237176Y-64753263D01*
X135219974Y-64721081D01*
X135209381Y-64686162D01*
X135205200Y-64643705D01*
X135205200Y-63502495D01*
X135209381Y-63460038D01*
X135219974Y-63425119D01*
X135237176Y-63392937D01*
X135260327Y-63364727D01*
X135288537Y-63341576D01*
X135320719Y-63324374D01*
X135355638Y-63313781D01*
X135398095Y-63309600D01*
X136864305Y-63309600D01*
X136906762Y-63313781D01*
X136906762Y-63313781D01*
G37*
G36*
X144171162Y-63262981D02*
G01*
X144206081Y-63273574D01*
X144238263Y-63290776D01*
X144266473Y-63313927D01*
X144289624Y-63342137D01*
X144306826Y-63374319D01*
X144317419Y-63409238D01*
X144321600Y-63451695D01*
X144321600Y-64592905D01*
X144317419Y-64635362D01*
X144306826Y-64670281D01*
X144289624Y-64702463D01*
X144266473Y-64730673D01*
X144238263Y-64753824D01*
X144206081Y-64771026D01*
X144171162Y-64781619D01*
X144128705Y-64785800D01*
X142662495Y-64785800D01*
X142620038Y-64781619D01*
X142585119Y-64771026D01*
X142552937Y-64753824D01*
X142524727Y-64730673D01*
X142501576Y-64702463D01*
X142484374Y-64670281D01*
X142473781Y-64635362D01*
X142469600Y-64592905D01*
X142469600Y-63451695D01*
X142473781Y-63409238D01*
X142484374Y-63374319D01*
X142501576Y-63342137D01*
X142524727Y-63313927D01*
X142552937Y-63290776D01*
X142585119Y-63273574D01*
X142620038Y-63262981D01*
X142662495Y-63258800D01*
X144128705Y-63258800D01*
X144171162Y-63262981D01*
X144171162Y-63262981D01*
G37*
G36*
X146660362Y-63262981D02*
G01*
X146695281Y-63273574D01*
X146727463Y-63290776D01*
X146755673Y-63313927D01*
X146778824Y-63342137D01*
X146796026Y-63374319D01*
X146806619Y-63409238D01*
X146810800Y-63451695D01*
X146810800Y-64592905D01*
X146806619Y-64635362D01*
X146796026Y-64670281D01*
X146778824Y-64702463D01*
X146755673Y-64730673D01*
X146727463Y-64753824D01*
X146695281Y-64771026D01*
X146660362Y-64781619D01*
X146617905Y-64785800D01*
X145151695Y-64785800D01*
X145109238Y-64781619D01*
X145074319Y-64771026D01*
X145042137Y-64753824D01*
X145013927Y-64730673D01*
X144990776Y-64702463D01*
X144973574Y-64670281D01*
X144962981Y-64635362D01*
X144958800Y-64592905D01*
X144958800Y-63451695D01*
X144962981Y-63409238D01*
X144973574Y-63374319D01*
X144990776Y-63342137D01*
X145013927Y-63313927D01*
X145042137Y-63290776D01*
X145074319Y-63273574D01*
X145109238Y-63262981D01*
X145151695Y-63258800D01*
X146617905Y-63258800D01*
X146660362Y-63262981D01*
X146660362Y-63262981D01*
G37*
G36*
X141732762Y-63262981D02*
G01*
X141767681Y-63273574D01*
X141799863Y-63290776D01*
X141828073Y-63313927D01*
X141851224Y-63342137D01*
X141868426Y-63374319D01*
X141879019Y-63409238D01*
X141883200Y-63451695D01*
X141883200Y-64592905D01*
X141879019Y-64635362D01*
X141868426Y-64670281D01*
X141851224Y-64702463D01*
X141828073Y-64730673D01*
X141799863Y-64753824D01*
X141767681Y-64771026D01*
X141732762Y-64781619D01*
X141690305Y-64785800D01*
X140224095Y-64785800D01*
X140181638Y-64781619D01*
X140146719Y-64771026D01*
X140114537Y-64753824D01*
X140086327Y-64730673D01*
X140063176Y-64702463D01*
X140045974Y-64670281D01*
X140035381Y-64635362D01*
X140031200Y-64592905D01*
X140031200Y-63451695D01*
X140035381Y-63409238D01*
X140045974Y-63374319D01*
X140063176Y-63342137D01*
X140086327Y-63313927D01*
X140114537Y-63290776D01*
X140146719Y-63273574D01*
X140181638Y-63262981D01*
X140224095Y-63258800D01*
X141690305Y-63258800D01*
X141732762Y-63262981D01*
X141732762Y-63262981D01*
G37*
G36*
X149991185Y-60269860D02*
G01*
X150103948Y-60292290D01*
X150160648Y-60315776D01*
X150422608Y-60424283D01*
X150709396Y-60615909D01*
X150953291Y-60859804D01*
X151144917Y-61146592D01*
X151276910Y-61465253D01*
X151341588Y-61790408D01*
X151344200Y-61803542D01*
X151344200Y-62148458D01*
X151276910Y-62486748D01*
X151222237Y-62618741D01*
X151144917Y-62805408D01*
X150953291Y-63092196D01*
X150709396Y-63336091D01*
X150422608Y-63527717D01*
X150276979Y-63588038D01*
X150103948Y-63659710D01*
X149991185Y-63682140D01*
X149765660Y-63727000D01*
X149420740Y-63727000D01*
X149195215Y-63682140D01*
X149082452Y-63659710D01*
X148909421Y-63588038D01*
X148763792Y-63527717D01*
X148477004Y-63336091D01*
X148233109Y-63092196D01*
X148041483Y-62805408D01*
X147964163Y-62618741D01*
X147909490Y-62486748D01*
X147842200Y-62148458D01*
X147842200Y-61803542D01*
X147844813Y-61790408D01*
X147909490Y-61465253D01*
X148041483Y-61146592D01*
X148233109Y-60859804D01*
X148477004Y-60615909D01*
X148763792Y-60424283D01*
X149025752Y-60315776D01*
X149082452Y-60292290D01*
X149195215Y-60269860D01*
X149420740Y-60225000D01*
X149765660Y-60225000D01*
X149991185Y-60269860D01*
X149991185Y-60269860D01*
G37*
G36*
X106178856Y-60113298D02*
G01*
X106285179Y-60134447D01*
X106585642Y-60258903D01*
X106856051Y-60439585D01*
X107086015Y-60669549D01*
X107266697Y-60939958D01*
X107352288Y-61146592D01*
X107391153Y-61240422D01*
X107454600Y-61559389D01*
X107454600Y-61884611D01*
X107391153Y-62203578D01*
X107273861Y-62486748D01*
X107266697Y-62504042D01*
X107086015Y-62774451D01*
X106856051Y-63004415D01*
X106585642Y-63185097D01*
X106285179Y-63309553D01*
X106182425Y-63329992D01*
X105966211Y-63373000D01*
X105640989Y-63373000D01*
X105424775Y-63329992D01*
X105322021Y-63309553D01*
X105021558Y-63185097D01*
X104751149Y-63004415D01*
X104521185Y-62774451D01*
X104340503Y-62504042D01*
X104333340Y-62486748D01*
X104216047Y-62203578D01*
X104152600Y-61884611D01*
X104152600Y-61559389D01*
X104216047Y-61240422D01*
X104254913Y-61146592D01*
X104340503Y-60939958D01*
X104521185Y-60669549D01*
X104751149Y-60439585D01*
X105021558Y-60258903D01*
X105322021Y-60134447D01*
X105428344Y-60113298D01*
X105640989Y-60071000D01*
X105966211Y-60071000D01*
X106178856Y-60113298D01*
X106178856Y-60113298D01*
G37*
G36*
X156178856Y-60113298D02*
G01*
X156285179Y-60134447D01*
X156585642Y-60258903D01*
X156856051Y-60439585D01*
X157086015Y-60669549D01*
X157266697Y-60939958D01*
X157352288Y-61146592D01*
X157391153Y-61240422D01*
X157454600Y-61559389D01*
X157454600Y-61884611D01*
X157391153Y-62203578D01*
X157273861Y-62486748D01*
X157266697Y-62504042D01*
X157086015Y-62774451D01*
X156856051Y-63004415D01*
X156585642Y-63185097D01*
X156285179Y-63309553D01*
X156182425Y-63329992D01*
X155966211Y-63373000D01*
X155640989Y-63373000D01*
X155424775Y-63329992D01*
X155322021Y-63309553D01*
X155021558Y-63185097D01*
X154751149Y-63004415D01*
X154521185Y-62774451D01*
X154340503Y-62504042D01*
X154333340Y-62486748D01*
X154216047Y-62203578D01*
X154152600Y-61884611D01*
X154152600Y-61559389D01*
X154216047Y-61240422D01*
X154254913Y-61146592D01*
X154340503Y-60939958D01*
X154521185Y-60669549D01*
X154751149Y-60439585D01*
X155021558Y-60258903D01*
X155322021Y-60134447D01*
X155428344Y-60113298D01*
X155640989Y-60071000D01*
X155966211Y-60071000D01*
X156178856Y-60113298D01*
X156178856Y-60113298D01*
G37*
G36*
X117885585Y-58745860D02*
G01*
X117998348Y-58768290D01*
X118130341Y-58822963D01*
X118317008Y-58900283D01*
X118603796Y-59091909D01*
X118847691Y-59335804D01*
X119039317Y-59622592D01*
X119171310Y-59941253D01*
X119238600Y-60279540D01*
X119238600Y-60624460D01*
X119171310Y-60962747D01*
X119039317Y-61281408D01*
X118847691Y-61568196D01*
X118603796Y-61812091D01*
X118317008Y-62003717D01*
X118130341Y-62081037D01*
X117998348Y-62135710D01*
X117934259Y-62148458D01*
X117660060Y-62203000D01*
X117315140Y-62203000D01*
X117040941Y-62148458D01*
X116976852Y-62135710D01*
X116844859Y-62081037D01*
X116658192Y-62003717D01*
X116371404Y-61812091D01*
X116127509Y-61568196D01*
X115935883Y-61281408D01*
X115803890Y-60962747D01*
X115736600Y-60624460D01*
X115736600Y-60279540D01*
X115803890Y-59941253D01*
X115935883Y-59622592D01*
X116127509Y-59335804D01*
X116371404Y-59091909D01*
X116658192Y-58900283D01*
X116844859Y-58822963D01*
X116976852Y-58768290D01*
X117089615Y-58745860D01*
X117315140Y-58701000D01*
X117660060Y-58701000D01*
X117885585Y-58745860D01*
X117885585Y-58745860D01*
G37*
G36*
X127791585Y-58745860D02*
G01*
X127904348Y-58768290D01*
X128036341Y-58822963D01*
X128223008Y-58900283D01*
X128509796Y-59091909D01*
X128753691Y-59335804D01*
X128945317Y-59622592D01*
X129077310Y-59941253D01*
X129144600Y-60279540D01*
X129144600Y-60624460D01*
X129077310Y-60962747D01*
X128945317Y-61281408D01*
X128753691Y-61568196D01*
X128509796Y-61812091D01*
X128223008Y-62003717D01*
X128036341Y-62081037D01*
X127904348Y-62135710D01*
X127840259Y-62148458D01*
X127566060Y-62203000D01*
X127221140Y-62203000D01*
X126946941Y-62148458D01*
X126882852Y-62135710D01*
X126750859Y-62081037D01*
X126564192Y-62003717D01*
X126277404Y-61812091D01*
X126033509Y-61568196D01*
X125841883Y-61281408D01*
X125709890Y-60962747D01*
X125642600Y-60624460D01*
X125642600Y-60279540D01*
X125709890Y-59941253D01*
X125841883Y-59622592D01*
X126033509Y-59335804D01*
X126277404Y-59091909D01*
X126564192Y-58900283D01*
X126750859Y-58822963D01*
X126882852Y-58768290D01*
X126995615Y-58745860D01*
X127221140Y-58701000D01*
X127566060Y-58701000D01*
X127791585Y-58745860D01*
X127791585Y-58745860D01*
G37*
G36*
X139345162Y-60338781D02*
G01*
X139380081Y-60349374D01*
X139412263Y-60366576D01*
X139440473Y-60389727D01*
X139463624Y-60417937D01*
X139480826Y-60450119D01*
X139491419Y-60485038D01*
X139495600Y-60527495D01*
X139495600Y-61668705D01*
X139491419Y-61711162D01*
X139480826Y-61746081D01*
X139463624Y-61778263D01*
X139440473Y-61806473D01*
X139412263Y-61829624D01*
X139380081Y-61846826D01*
X139345162Y-61857419D01*
X139302705Y-61861600D01*
X137836495Y-61861600D01*
X137794038Y-61857419D01*
X137759119Y-61846826D01*
X137726937Y-61829624D01*
X137698727Y-61806473D01*
X137675576Y-61778263D01*
X137658374Y-61746081D01*
X137647781Y-61711162D01*
X137643600Y-61668705D01*
X137643600Y-60527495D01*
X137647781Y-60485038D01*
X137658374Y-60450119D01*
X137675576Y-60417937D01*
X137698727Y-60389727D01*
X137726937Y-60366576D01*
X137759119Y-60349374D01*
X137794038Y-60338781D01*
X137836495Y-60334600D01*
X139302705Y-60334600D01*
X139345162Y-60338781D01*
X139345162Y-60338781D01*
G37*
G36*
X136906762Y-60338781D02*
G01*
X136941681Y-60349374D01*
X136973863Y-60366576D01*
X137002073Y-60389727D01*
X137025224Y-60417937D01*
X137042426Y-60450119D01*
X137053019Y-60485038D01*
X137057200Y-60527495D01*
X137057200Y-61668705D01*
X137053019Y-61711162D01*
X137042426Y-61746081D01*
X137025224Y-61778263D01*
X137002073Y-61806473D01*
X136973863Y-61829624D01*
X136941681Y-61846826D01*
X136906762Y-61857419D01*
X136864305Y-61861600D01*
X135398095Y-61861600D01*
X135355638Y-61857419D01*
X135320719Y-61846826D01*
X135288537Y-61829624D01*
X135260327Y-61806473D01*
X135237176Y-61778263D01*
X135219974Y-61746081D01*
X135209381Y-61711162D01*
X135205200Y-61668705D01*
X135205200Y-60527495D01*
X135209381Y-60485038D01*
X135219974Y-60450119D01*
X135237176Y-60417937D01*
X135260327Y-60389727D01*
X135288537Y-60366576D01*
X135320719Y-60349374D01*
X135355638Y-60338781D01*
X135398095Y-60334600D01*
X136864305Y-60334600D01*
X136906762Y-60338781D01*
X136906762Y-60338781D01*
G37*
G36*
X144171162Y-60287981D02*
G01*
X144206081Y-60298574D01*
X144238263Y-60315776D01*
X144266473Y-60338927D01*
X144289624Y-60367137D01*
X144306826Y-60399319D01*
X144317419Y-60434238D01*
X144321600Y-60476695D01*
X144321600Y-61617905D01*
X144317419Y-61660362D01*
X144306826Y-61695281D01*
X144289624Y-61727463D01*
X144266473Y-61755673D01*
X144238263Y-61778824D01*
X144206081Y-61796026D01*
X144171162Y-61806619D01*
X144128705Y-61810800D01*
X142662495Y-61810800D01*
X142620038Y-61806619D01*
X142585119Y-61796026D01*
X142552937Y-61778824D01*
X142524727Y-61755673D01*
X142501576Y-61727463D01*
X142484374Y-61695281D01*
X142473781Y-61660362D01*
X142469600Y-61617905D01*
X142469600Y-60476695D01*
X142473781Y-60434238D01*
X142484374Y-60399319D01*
X142501576Y-60367137D01*
X142524727Y-60338927D01*
X142552937Y-60315776D01*
X142585119Y-60298574D01*
X142620038Y-60287981D01*
X142662495Y-60283800D01*
X144128705Y-60283800D01*
X144171162Y-60287981D01*
X144171162Y-60287981D01*
G37*
G36*
X146660362Y-60287981D02*
G01*
X146695281Y-60298574D01*
X146727463Y-60315776D01*
X146755673Y-60338927D01*
X146778824Y-60367137D01*
X146796026Y-60399319D01*
X146806619Y-60434238D01*
X146810800Y-60476695D01*
X146810800Y-61617905D01*
X146806619Y-61660362D01*
X146796026Y-61695281D01*
X146778824Y-61727463D01*
X146755673Y-61755673D01*
X146727463Y-61778824D01*
X146695281Y-61796026D01*
X146660362Y-61806619D01*
X146617905Y-61810800D01*
X145151695Y-61810800D01*
X145109238Y-61806619D01*
X145074319Y-61796026D01*
X145042137Y-61778824D01*
X145013927Y-61755673D01*
X144990776Y-61727463D01*
X144973574Y-61695281D01*
X144962981Y-61660362D01*
X144958800Y-61617905D01*
X144958800Y-60476695D01*
X144962981Y-60434238D01*
X144973574Y-60399319D01*
X144990776Y-60367137D01*
X145013927Y-60338927D01*
X145042137Y-60315776D01*
X145074319Y-60298574D01*
X145109238Y-60287981D01*
X145151695Y-60283800D01*
X146617905Y-60283800D01*
X146660362Y-60287981D01*
X146660362Y-60287981D01*
G37*
G36*
X141732762Y-60287981D02*
G01*
X141767681Y-60298574D01*
X141799863Y-60315776D01*
X141828073Y-60338927D01*
X141851224Y-60367137D01*
X141868426Y-60399319D01*
X141879019Y-60434238D01*
X141883200Y-60476695D01*
X141883200Y-61617905D01*
X141879019Y-61660362D01*
X141868426Y-61695281D01*
X141851224Y-61727463D01*
X141828073Y-61755673D01*
X141799863Y-61778824D01*
X141767681Y-61796026D01*
X141732762Y-61806619D01*
X141690305Y-61810800D01*
X140224095Y-61810800D01*
X140181638Y-61806619D01*
X140146719Y-61796026D01*
X140114537Y-61778824D01*
X140086327Y-61755673D01*
X140063176Y-61727463D01*
X140045974Y-61695281D01*
X140035381Y-61660362D01*
X140031200Y-61617905D01*
X140031200Y-60476695D01*
X140035381Y-60434238D01*
X140045974Y-60399319D01*
X140063176Y-60367137D01*
X140086327Y-60338927D01*
X140114537Y-60315776D01*
X140146719Y-60298574D01*
X140181638Y-60287981D01*
X140224095Y-60283800D01*
X141690305Y-60283800D01*
X141732762Y-60287981D01*
X141732762Y-60287981D01*
G37*
M02*
