M48
INCH,TZ
T1C0.0157
T2C0.0433
T3C0.0551
T4C0.0728
%
G90
G05
T1
X41397Y-36020
X41397Y-37051
X41397Y-39321
X41397Y-40821
X42255Y-36500
X42455Y-30225
X42460Y-35096
X42855Y-36600
X43523Y-37860
X43523Y-40860
X43755Y-42850
X43855Y-27350
X43960Y-32646
X44105Y-36150
X44455Y-28800
X44705Y-27100
X44705Y-32700
X44955Y-35200
X44955Y-42850
X45026Y-39620
X45409Y-29417
X45440Y-25297
X45455Y-30550
X45461Y-27423
X45584Y-28480
X45586Y-31475
X45834Y-39620
X45940Y-27423
X46105Y-42800
X46471Y-31543
X46674Y-26360
X46725Y-30520
X46756Y-28480
X46855Y-39950
X46955Y-29450
X47042Y-30950
X47105Y-30000
X47305Y-41050
X47305Y-42800
X47506Y-39519
X47655Y-26631
X48155Y-24650
X48284Y-40071
X48655Y-27800
X48850Y-35540
X48855Y-36500
X48899Y-31660
X48940Y-28403
X48955Y-26250
X49144Y-29340
X49155Y-27320
X49521Y-37762
X49855Y-39849
X50030Y-33580
X50114Y-27320
X50296Y-25340
X50855Y-27800
X50960Y-33497
X51055Y-40450
X51074Y-38960
X51144Y-32560
X51205Y-26250
X51364Y-29340
X51415Y-27320
X51560Y-40558
X51669Y-28403
X51755Y-41100
X51955Y-37650
X52305Y-27850
X52316Y-26161
X52334Y-27320
X52460Y-33497
X52460Y-35623
X52700Y-26277
X52805Y-24200
X53060Y-40558
X53555Y-38700
X53605Y-25250
X53664Y-36615
X54555Y-25250
X54735Y-38555
X54880Y-31250
X54950Y-27705
X54955Y-27150
X55505Y-25250
X55560Y-26921
X55560Y-27729
X55575Y-33208
X55575Y-34015
X55605Y-36550
X55705Y-31050
X56105Y-33500
X56205Y-26793
X56255Y-31300
X56455Y-25250
X56600Y-34678
X56779Y-37640
X57138Y-40519
X57455Y-25250
X57655Y-37250
X59490Y-29335
X59660Y-31146
X60297Y-30000
T2
X49450Y-41741
X49450Y-44300
X51222Y-41741
X51222Y-44300
T3
X59490Y-27300
X61655Y-27300
X59490Y-34950
X59490Y-36604
X59490Y-38257
X59490Y-39911
X61655Y-34950
X61655Y-36604
X61655Y-38257
X61655Y-39911
T4
X58630Y-43220
X58895Y-24400
X54450Y-43160
X46255Y-23800
X50155Y-23800
T0
M30
