G04 #@! TF.GenerationSoftware,KiCad,Pcbnew,(5.1.6)-1*
G04 #@! TF.CreationDate,2021-06-24T15:17:58+10:00*
G04 #@! TF.ProjectId,BSPD,42535044-2e6b-4696-9361-645f70636258,rev?*
G04 #@! TF.SameCoordinates,Original*
G04 #@! TF.FileFunction,Soldermask,Top*
G04 #@! TF.FilePolarity,Negative*
%FSLAX46Y46*%
G04 Gerber Fmt 4.6, Leading zero omitted, Abs format (unit mm)*
G04 Created by KiCad (PCBNEW (5.1.6)-1) date 2021-06-24 15:17:58*
%MOMM*%
%LPD*%
G01*
G04 APERTURE LIST*
%ADD10C,0.100000*%
G04 APERTURE END LIST*
D10*
G36*
X90190669Y-107480566D02*
G01*
X90229339Y-107492297D01*
X90264978Y-107511347D01*
X90296218Y-107536984D01*
X90321855Y-107568224D01*
X90340905Y-107603863D01*
X90352636Y-107642533D01*
X90357201Y-107688889D01*
X90357201Y-108765113D01*
X90352636Y-108811469D01*
X90340905Y-108850139D01*
X90321855Y-108885778D01*
X90296218Y-108917018D01*
X90264978Y-108942655D01*
X90229339Y-108961705D01*
X90190669Y-108973436D01*
X90144313Y-108978001D01*
X89493089Y-108978001D01*
X89446733Y-108973436D01*
X89408063Y-108961705D01*
X89372424Y-108942655D01*
X89341184Y-108917018D01*
X89315547Y-108885778D01*
X89296497Y-108850139D01*
X89284766Y-108811469D01*
X89280201Y-108765113D01*
X89280201Y-107688889D01*
X89284766Y-107642533D01*
X89296497Y-107603863D01*
X89315547Y-107568224D01*
X89341184Y-107536984D01*
X89372424Y-107511347D01*
X89408063Y-107492297D01*
X89446733Y-107480566D01*
X89493089Y-107476001D01*
X90144313Y-107476001D01*
X90190669Y-107480566D01*
G37*
G36*
X88315669Y-107480566D02*
G01*
X88354339Y-107492297D01*
X88389978Y-107511347D01*
X88421218Y-107536984D01*
X88446855Y-107568224D01*
X88465905Y-107603863D01*
X88477636Y-107642533D01*
X88482201Y-107688889D01*
X88482201Y-108765113D01*
X88477636Y-108811469D01*
X88465905Y-108850139D01*
X88446855Y-108885778D01*
X88421218Y-108917018D01*
X88389978Y-108942655D01*
X88354339Y-108961705D01*
X88315669Y-108973436D01*
X88269313Y-108978001D01*
X87618089Y-108978001D01*
X87571733Y-108973436D01*
X87533063Y-108961705D01*
X87497424Y-108942655D01*
X87466184Y-108917018D01*
X87440547Y-108885778D01*
X87421497Y-108850139D01*
X87409766Y-108811469D01*
X87405201Y-108765113D01*
X87405201Y-107688889D01*
X87409766Y-107642533D01*
X87421497Y-107603863D01*
X87440547Y-107568224D01*
X87466184Y-107536984D01*
X87497424Y-107511347D01*
X87533063Y-107492297D01*
X87571733Y-107480566D01*
X87618089Y-107476001D01*
X88269313Y-107476001D01*
X88315669Y-107480566D01*
G37*
G36*
X79750256Y-105226298D02*
G01*
X79856579Y-105247447D01*
X80157042Y-105371903D01*
X80427451Y-105552585D01*
X80657415Y-105782549D01*
X80838097Y-106052958D01*
X80962553Y-106353421D01*
X81026000Y-106672391D01*
X81026000Y-106997609D01*
X80962553Y-107316579D01*
X80838097Y-107617042D01*
X80657415Y-107887451D01*
X80427451Y-108117415D01*
X80157042Y-108298097D01*
X79856579Y-108422553D01*
X79750256Y-108443702D01*
X79537611Y-108486000D01*
X79212389Y-108486000D01*
X78999744Y-108443702D01*
X78893421Y-108422553D01*
X78592958Y-108298097D01*
X78322549Y-108117415D01*
X78092585Y-107887451D01*
X77911903Y-107617042D01*
X77787447Y-107316579D01*
X77724000Y-106997609D01*
X77724000Y-106672391D01*
X77787447Y-106353421D01*
X77911903Y-106052958D01*
X78092585Y-105782549D01*
X78322549Y-105552585D01*
X78592958Y-105371903D01*
X78893421Y-105247447D01*
X78999744Y-105226298D01*
X79212389Y-105184000D01*
X79537611Y-105184000D01*
X79750256Y-105226298D01*
G37*
G36*
X109750256Y-105226298D02*
G01*
X109856579Y-105247447D01*
X110157042Y-105371903D01*
X110427451Y-105552585D01*
X110657415Y-105782549D01*
X110838097Y-106052958D01*
X110962553Y-106353421D01*
X111026000Y-106672391D01*
X111026000Y-106997609D01*
X110962553Y-107316579D01*
X110838097Y-107617042D01*
X110657415Y-107887451D01*
X110427451Y-108117415D01*
X110157042Y-108298097D01*
X109856579Y-108422553D01*
X109750256Y-108443702D01*
X109537611Y-108486000D01*
X109212389Y-108486000D01*
X108999744Y-108443702D01*
X108893421Y-108422553D01*
X108592958Y-108298097D01*
X108322549Y-108117415D01*
X108092585Y-107887451D01*
X107911903Y-107617042D01*
X107787447Y-107316579D01*
X107724000Y-106997609D01*
X107724000Y-106672391D01*
X107787447Y-106353421D01*
X107911903Y-106052958D01*
X108092585Y-105782549D01*
X108322549Y-105552585D01*
X108592958Y-105371903D01*
X108893421Y-105247447D01*
X108999744Y-105226298D01*
X109212389Y-105184000D01*
X109537611Y-105184000D01*
X109750256Y-105226298D01*
G37*
G36*
X90160968Y-104409565D02*
G01*
X90199638Y-104421296D01*
X90235277Y-104440346D01*
X90266517Y-104465983D01*
X90292154Y-104497223D01*
X90311204Y-104532862D01*
X90322935Y-104571532D01*
X90327500Y-104617888D01*
X90327500Y-105694112D01*
X90322935Y-105740468D01*
X90311204Y-105779138D01*
X90292154Y-105814777D01*
X90266517Y-105846017D01*
X90235277Y-105871654D01*
X90199638Y-105890704D01*
X90160968Y-105902435D01*
X90114612Y-105907000D01*
X89463388Y-105907000D01*
X89417032Y-105902435D01*
X89378362Y-105890704D01*
X89342723Y-105871654D01*
X89311483Y-105846017D01*
X89285846Y-105814777D01*
X89266796Y-105779138D01*
X89255065Y-105740468D01*
X89250500Y-105694112D01*
X89250500Y-104617888D01*
X89255065Y-104571532D01*
X89266796Y-104532862D01*
X89285846Y-104497223D01*
X89311483Y-104465983D01*
X89342723Y-104440346D01*
X89378362Y-104421296D01*
X89417032Y-104409565D01*
X89463388Y-104405000D01*
X90114612Y-104405000D01*
X90160968Y-104409565D01*
G37*
G36*
X88285968Y-104409565D02*
G01*
X88324638Y-104421296D01*
X88360277Y-104440346D01*
X88391517Y-104465983D01*
X88417154Y-104497223D01*
X88436204Y-104532862D01*
X88447935Y-104571532D01*
X88452500Y-104617888D01*
X88452500Y-105694112D01*
X88447935Y-105740468D01*
X88436204Y-105779138D01*
X88417154Y-105814777D01*
X88391517Y-105846017D01*
X88360277Y-105871654D01*
X88324638Y-105890704D01*
X88285968Y-105902435D01*
X88239612Y-105907000D01*
X87588388Y-105907000D01*
X87542032Y-105902435D01*
X87503362Y-105890704D01*
X87467723Y-105871654D01*
X87436483Y-105846017D01*
X87410846Y-105814777D01*
X87391796Y-105779138D01*
X87380065Y-105740468D01*
X87375500Y-105694112D01*
X87375500Y-104617888D01*
X87380065Y-104571532D01*
X87391796Y-104532862D01*
X87410846Y-104497223D01*
X87436483Y-104465983D01*
X87467723Y-104440346D01*
X87503362Y-104421296D01*
X87542032Y-104409565D01*
X87588388Y-104405000D01*
X88239612Y-104405000D01*
X88285968Y-104409565D01*
G37*
G36*
X101453928Y-101124764D02*
G01*
X101475009Y-101131160D01*
X101494445Y-101141548D01*
X101511476Y-101155524D01*
X101525452Y-101172555D01*
X101535840Y-101191991D01*
X101542236Y-101213072D01*
X101545000Y-101241140D01*
X101545000Y-101704860D01*
X101542236Y-101732928D01*
X101535840Y-101754009D01*
X101525452Y-101773445D01*
X101511476Y-101790476D01*
X101494445Y-101804452D01*
X101475009Y-101814840D01*
X101453928Y-101821236D01*
X101425860Y-101824000D01*
X99612140Y-101824000D01*
X99584072Y-101821236D01*
X99562991Y-101814840D01*
X99543555Y-101804452D01*
X99526524Y-101790476D01*
X99512548Y-101773445D01*
X99502160Y-101754009D01*
X99495764Y-101732928D01*
X99493000Y-101704860D01*
X99493000Y-101241140D01*
X99495764Y-101213072D01*
X99502160Y-101191991D01*
X99512548Y-101172555D01*
X99526524Y-101155524D01*
X99543555Y-101141548D01*
X99562991Y-101131160D01*
X99584072Y-101124764D01*
X99612140Y-101122000D01*
X101425860Y-101122000D01*
X101453928Y-101124764D01*
G37*
G36*
X88883928Y-101124764D02*
G01*
X88905009Y-101131160D01*
X88924445Y-101141548D01*
X88941476Y-101155524D01*
X88955452Y-101172555D01*
X88965840Y-101191991D01*
X88972236Y-101213072D01*
X88975000Y-101241140D01*
X88975000Y-101704860D01*
X88972236Y-101732928D01*
X88965840Y-101754009D01*
X88955452Y-101773445D01*
X88941476Y-101790476D01*
X88924445Y-101804452D01*
X88905009Y-101814840D01*
X88883928Y-101821236D01*
X88855860Y-101824000D01*
X87042140Y-101824000D01*
X87014072Y-101821236D01*
X86992991Y-101814840D01*
X86973555Y-101804452D01*
X86956524Y-101790476D01*
X86942548Y-101773445D01*
X86932160Y-101754009D01*
X86925764Y-101732928D01*
X86923000Y-101704860D01*
X86923000Y-101241140D01*
X86925764Y-101213072D01*
X86932160Y-101191991D01*
X86942548Y-101172555D01*
X86956524Y-101155524D01*
X86973555Y-101141548D01*
X86992991Y-101131160D01*
X87014072Y-101124764D01*
X87042140Y-101122000D01*
X88855860Y-101122000D01*
X88883928Y-101124764D01*
G37*
G36*
X93833928Y-101124764D02*
G01*
X93855009Y-101131160D01*
X93874445Y-101141548D01*
X93891476Y-101155524D01*
X93905452Y-101172555D01*
X93915840Y-101191991D01*
X93922236Y-101213072D01*
X93925000Y-101241140D01*
X93925000Y-101704860D01*
X93922236Y-101732928D01*
X93915840Y-101754009D01*
X93905452Y-101773445D01*
X93891476Y-101790476D01*
X93874445Y-101804452D01*
X93855009Y-101814840D01*
X93833928Y-101821236D01*
X93805860Y-101824000D01*
X91992140Y-101824000D01*
X91964072Y-101821236D01*
X91942991Y-101814840D01*
X91923555Y-101804452D01*
X91906524Y-101790476D01*
X91892548Y-101773445D01*
X91882160Y-101754009D01*
X91875764Y-101732928D01*
X91873000Y-101704860D01*
X91873000Y-101241140D01*
X91875764Y-101213072D01*
X91882160Y-101191991D01*
X91892548Y-101172555D01*
X91906524Y-101155524D01*
X91923555Y-101141548D01*
X91942991Y-101131160D01*
X91964072Y-101124764D01*
X91992140Y-101122000D01*
X93805860Y-101122000D01*
X93833928Y-101124764D01*
G37*
G36*
X106663928Y-101124764D02*
G01*
X106685009Y-101131160D01*
X106704445Y-101141548D01*
X106721476Y-101155524D01*
X106735452Y-101172555D01*
X106745840Y-101191991D01*
X106752236Y-101213072D01*
X106755000Y-101241140D01*
X106755000Y-101704860D01*
X106752236Y-101732928D01*
X106745840Y-101754009D01*
X106735452Y-101773445D01*
X106721476Y-101790476D01*
X106704445Y-101804452D01*
X106685009Y-101814840D01*
X106663928Y-101821236D01*
X106635860Y-101824000D01*
X104822140Y-101824000D01*
X104794072Y-101821236D01*
X104772991Y-101814840D01*
X104753555Y-101804452D01*
X104736524Y-101790476D01*
X104722548Y-101773445D01*
X104712160Y-101754009D01*
X104705764Y-101732928D01*
X104703000Y-101704860D01*
X104703000Y-101241140D01*
X104705764Y-101213072D01*
X104712160Y-101191991D01*
X104722548Y-101172555D01*
X104736524Y-101155524D01*
X104753555Y-101141548D01*
X104772991Y-101131160D01*
X104794072Y-101124764D01*
X104822140Y-101122000D01*
X106635860Y-101122000D01*
X106663928Y-101124764D01*
G37*
G36*
X111613928Y-101124764D02*
G01*
X111635009Y-101131160D01*
X111654445Y-101141548D01*
X111671476Y-101155524D01*
X111685452Y-101172555D01*
X111695840Y-101191991D01*
X111702236Y-101213072D01*
X111705000Y-101241140D01*
X111705000Y-101704860D01*
X111702236Y-101732928D01*
X111695840Y-101754009D01*
X111685452Y-101773445D01*
X111671476Y-101790476D01*
X111654445Y-101804452D01*
X111635009Y-101814840D01*
X111613928Y-101821236D01*
X111585860Y-101824000D01*
X109772140Y-101824000D01*
X109744072Y-101821236D01*
X109722991Y-101814840D01*
X109703555Y-101804452D01*
X109686524Y-101790476D01*
X109672548Y-101773445D01*
X109662160Y-101754009D01*
X109655764Y-101732928D01*
X109653000Y-101704860D01*
X109653000Y-101241140D01*
X109655764Y-101213072D01*
X109662160Y-101191991D01*
X109672548Y-101172555D01*
X109686524Y-101155524D01*
X109703555Y-101141548D01*
X109722991Y-101131160D01*
X109744072Y-101124764D01*
X109772140Y-101122000D01*
X111585860Y-101122000D01*
X111613928Y-101124764D01*
G37*
G36*
X78723928Y-101124764D02*
G01*
X78745009Y-101131160D01*
X78764445Y-101141548D01*
X78781476Y-101155524D01*
X78795452Y-101172555D01*
X78805840Y-101191991D01*
X78812236Y-101213072D01*
X78815000Y-101241140D01*
X78815000Y-101704860D01*
X78812236Y-101732928D01*
X78805840Y-101754009D01*
X78795452Y-101773445D01*
X78781476Y-101790476D01*
X78764445Y-101804452D01*
X78745009Y-101814840D01*
X78723928Y-101821236D01*
X78695860Y-101824000D01*
X76882140Y-101824000D01*
X76854072Y-101821236D01*
X76832991Y-101814840D01*
X76813555Y-101804452D01*
X76796524Y-101790476D01*
X76782548Y-101773445D01*
X76772160Y-101754009D01*
X76765764Y-101732928D01*
X76763000Y-101704860D01*
X76763000Y-101241140D01*
X76765764Y-101213072D01*
X76772160Y-101191991D01*
X76782548Y-101172555D01*
X76796524Y-101155524D01*
X76813555Y-101141548D01*
X76832991Y-101131160D01*
X76854072Y-101124764D01*
X76882140Y-101122000D01*
X78695860Y-101122000D01*
X78723928Y-101124764D01*
G37*
G36*
X83673928Y-101124764D02*
G01*
X83695009Y-101131160D01*
X83714445Y-101141548D01*
X83731476Y-101155524D01*
X83745452Y-101172555D01*
X83755840Y-101191991D01*
X83762236Y-101213072D01*
X83765000Y-101241140D01*
X83765000Y-101704860D01*
X83762236Y-101732928D01*
X83755840Y-101754009D01*
X83745452Y-101773445D01*
X83731476Y-101790476D01*
X83714445Y-101804452D01*
X83695009Y-101814840D01*
X83673928Y-101821236D01*
X83645860Y-101824000D01*
X81832140Y-101824000D01*
X81804072Y-101821236D01*
X81782991Y-101814840D01*
X81763555Y-101804452D01*
X81746524Y-101790476D01*
X81732548Y-101773445D01*
X81722160Y-101754009D01*
X81715764Y-101732928D01*
X81713000Y-101704860D01*
X81713000Y-101241140D01*
X81715764Y-101213072D01*
X81722160Y-101191991D01*
X81732548Y-101172555D01*
X81746524Y-101155524D01*
X81763555Y-101141548D01*
X81782991Y-101131160D01*
X81804072Y-101124764D01*
X81832140Y-101122000D01*
X83645860Y-101122000D01*
X83673928Y-101124764D01*
G37*
G36*
X96503928Y-101124764D02*
G01*
X96525009Y-101131160D01*
X96544445Y-101141548D01*
X96561476Y-101155524D01*
X96575452Y-101172555D01*
X96585840Y-101191991D01*
X96592236Y-101213072D01*
X96595000Y-101241140D01*
X96595000Y-101704860D01*
X96592236Y-101732928D01*
X96585840Y-101754009D01*
X96575452Y-101773445D01*
X96561476Y-101790476D01*
X96544445Y-101804452D01*
X96525009Y-101814840D01*
X96503928Y-101821236D01*
X96475860Y-101824000D01*
X94662140Y-101824000D01*
X94634072Y-101821236D01*
X94612991Y-101814840D01*
X94593555Y-101804452D01*
X94576524Y-101790476D01*
X94562548Y-101773445D01*
X94552160Y-101754009D01*
X94545764Y-101732928D01*
X94543000Y-101704860D01*
X94543000Y-101241140D01*
X94545764Y-101213072D01*
X94552160Y-101191991D01*
X94562548Y-101172555D01*
X94576524Y-101155524D01*
X94593555Y-101141548D01*
X94612991Y-101131160D01*
X94634072Y-101124764D01*
X94662140Y-101122000D01*
X96475860Y-101122000D01*
X96503928Y-101124764D01*
G37*
G36*
X86106307Y-100482998D02*
G01*
X86144318Y-100494529D01*
X86179342Y-100513249D01*
X86210049Y-100538451D01*
X86235251Y-100569158D01*
X86253971Y-100604182D01*
X86265502Y-100642193D01*
X86270000Y-100687863D01*
X86270000Y-101496137D01*
X86265502Y-101541807D01*
X86253971Y-101579818D01*
X86235251Y-101614842D01*
X86210049Y-101645549D01*
X86179342Y-101670751D01*
X86144318Y-101689471D01*
X86106307Y-101701002D01*
X86060637Y-101705500D01*
X84627363Y-101705500D01*
X84581693Y-101701002D01*
X84543682Y-101689471D01*
X84508658Y-101670751D01*
X84477951Y-101645549D01*
X84452749Y-101614842D01*
X84434029Y-101579818D01*
X84422498Y-101541807D01*
X84418000Y-101496137D01*
X84418000Y-100687863D01*
X84422498Y-100642193D01*
X84434029Y-100604182D01*
X84452749Y-100569158D01*
X84477951Y-100538451D01*
X84508658Y-100513249D01*
X84543682Y-100494529D01*
X84581693Y-100482998D01*
X84627363Y-100478500D01*
X86060637Y-100478500D01*
X86106307Y-100482998D01*
G37*
G36*
X103886307Y-100359998D02*
G01*
X103924318Y-100371529D01*
X103959342Y-100390249D01*
X103990049Y-100415451D01*
X104015251Y-100446158D01*
X104033971Y-100481182D01*
X104045502Y-100519193D01*
X104050000Y-100564863D01*
X104050000Y-101373137D01*
X104045502Y-101418807D01*
X104033971Y-101456818D01*
X104015251Y-101491842D01*
X103990049Y-101522549D01*
X103959342Y-101547751D01*
X103924318Y-101566471D01*
X103886307Y-101578002D01*
X103840637Y-101582500D01*
X102407363Y-101582500D01*
X102361693Y-101578002D01*
X102323682Y-101566471D01*
X102288658Y-101547751D01*
X102257951Y-101522549D01*
X102232749Y-101491842D01*
X102214029Y-101456818D01*
X102202498Y-101418807D01*
X102198000Y-101373137D01*
X102198000Y-100564863D01*
X102202498Y-100519193D01*
X102214029Y-100481182D01*
X102232749Y-100446158D01*
X102257951Y-100415451D01*
X102288658Y-100390249D01*
X102323682Y-100371529D01*
X102361693Y-100359998D01*
X102407363Y-100355500D01*
X103840637Y-100355500D01*
X103886307Y-100359998D01*
G37*
G36*
X93833928Y-99854764D02*
G01*
X93855009Y-99861160D01*
X93874445Y-99871548D01*
X93891476Y-99885524D01*
X93905452Y-99902555D01*
X93915840Y-99921991D01*
X93922236Y-99943072D01*
X93925000Y-99971140D01*
X93925000Y-100434860D01*
X93922236Y-100462928D01*
X93915840Y-100484009D01*
X93905452Y-100503445D01*
X93891476Y-100520476D01*
X93874445Y-100534452D01*
X93855009Y-100544840D01*
X93833928Y-100551236D01*
X93805860Y-100554000D01*
X91992140Y-100554000D01*
X91964072Y-100551236D01*
X91942991Y-100544840D01*
X91923555Y-100534452D01*
X91906524Y-100520476D01*
X91892548Y-100503445D01*
X91882160Y-100484009D01*
X91875764Y-100462928D01*
X91873000Y-100434860D01*
X91873000Y-99971140D01*
X91875764Y-99943072D01*
X91882160Y-99921991D01*
X91892548Y-99902555D01*
X91906524Y-99885524D01*
X91923555Y-99871548D01*
X91942991Y-99861160D01*
X91964072Y-99854764D01*
X91992140Y-99852000D01*
X93805860Y-99852000D01*
X93833928Y-99854764D01*
G37*
G36*
X83673928Y-99854764D02*
G01*
X83695009Y-99861160D01*
X83714445Y-99871548D01*
X83731476Y-99885524D01*
X83745452Y-99902555D01*
X83755840Y-99921991D01*
X83762236Y-99943072D01*
X83765000Y-99971140D01*
X83765000Y-100434860D01*
X83762236Y-100462928D01*
X83755840Y-100484009D01*
X83745452Y-100503445D01*
X83731476Y-100520476D01*
X83714445Y-100534452D01*
X83695009Y-100544840D01*
X83673928Y-100551236D01*
X83645860Y-100554000D01*
X81832140Y-100554000D01*
X81804072Y-100551236D01*
X81782991Y-100544840D01*
X81763555Y-100534452D01*
X81746524Y-100520476D01*
X81732548Y-100503445D01*
X81722160Y-100484009D01*
X81715764Y-100462928D01*
X81713000Y-100434860D01*
X81713000Y-99971140D01*
X81715764Y-99943072D01*
X81722160Y-99921991D01*
X81732548Y-99902555D01*
X81746524Y-99885524D01*
X81763555Y-99871548D01*
X81782991Y-99861160D01*
X81804072Y-99854764D01*
X81832140Y-99852000D01*
X83645860Y-99852000D01*
X83673928Y-99854764D01*
G37*
G36*
X88883928Y-99854764D02*
G01*
X88905009Y-99861160D01*
X88924445Y-99871548D01*
X88941476Y-99885524D01*
X88955452Y-99902555D01*
X88965840Y-99921991D01*
X88972236Y-99943072D01*
X88975000Y-99971140D01*
X88975000Y-100434860D01*
X88972236Y-100462928D01*
X88965840Y-100484009D01*
X88955452Y-100503445D01*
X88941476Y-100520476D01*
X88924445Y-100534452D01*
X88905009Y-100544840D01*
X88883928Y-100551236D01*
X88855860Y-100554000D01*
X87042140Y-100554000D01*
X87014072Y-100551236D01*
X86992991Y-100544840D01*
X86973555Y-100534452D01*
X86956524Y-100520476D01*
X86942548Y-100503445D01*
X86932160Y-100484009D01*
X86925764Y-100462928D01*
X86923000Y-100434860D01*
X86923000Y-99971140D01*
X86925764Y-99943072D01*
X86932160Y-99921991D01*
X86942548Y-99902555D01*
X86956524Y-99885524D01*
X86973555Y-99871548D01*
X86992991Y-99861160D01*
X87014072Y-99854764D01*
X87042140Y-99852000D01*
X88855860Y-99852000D01*
X88883928Y-99854764D01*
G37*
G36*
X96503928Y-99854764D02*
G01*
X96525009Y-99861160D01*
X96544445Y-99871548D01*
X96561476Y-99885524D01*
X96575452Y-99902555D01*
X96585840Y-99921991D01*
X96592236Y-99943072D01*
X96595000Y-99971140D01*
X96595000Y-100434860D01*
X96592236Y-100462928D01*
X96585840Y-100484009D01*
X96575452Y-100503445D01*
X96561476Y-100520476D01*
X96544445Y-100534452D01*
X96525009Y-100544840D01*
X96503928Y-100551236D01*
X96475860Y-100554000D01*
X94662140Y-100554000D01*
X94634072Y-100551236D01*
X94612991Y-100544840D01*
X94593555Y-100534452D01*
X94576524Y-100520476D01*
X94562548Y-100503445D01*
X94552160Y-100484009D01*
X94545764Y-100462928D01*
X94543000Y-100434860D01*
X94543000Y-99971140D01*
X94545764Y-99943072D01*
X94552160Y-99921991D01*
X94562548Y-99902555D01*
X94576524Y-99885524D01*
X94593555Y-99871548D01*
X94612991Y-99861160D01*
X94634072Y-99854764D01*
X94662140Y-99852000D01*
X96475860Y-99852000D01*
X96503928Y-99854764D01*
G37*
G36*
X111613928Y-99854764D02*
G01*
X111635009Y-99861160D01*
X111654445Y-99871548D01*
X111671476Y-99885524D01*
X111685452Y-99902555D01*
X111695840Y-99921991D01*
X111702236Y-99943072D01*
X111705000Y-99971140D01*
X111705000Y-100434860D01*
X111702236Y-100462928D01*
X111695840Y-100484009D01*
X111685452Y-100503445D01*
X111671476Y-100520476D01*
X111654445Y-100534452D01*
X111635009Y-100544840D01*
X111613928Y-100551236D01*
X111585860Y-100554000D01*
X109772140Y-100554000D01*
X109744072Y-100551236D01*
X109722991Y-100544840D01*
X109703555Y-100534452D01*
X109686524Y-100520476D01*
X109672548Y-100503445D01*
X109662160Y-100484009D01*
X109655764Y-100462928D01*
X109653000Y-100434860D01*
X109653000Y-99971140D01*
X109655764Y-99943072D01*
X109662160Y-99921991D01*
X109672548Y-99902555D01*
X109686524Y-99885524D01*
X109703555Y-99871548D01*
X109722991Y-99861160D01*
X109744072Y-99854764D01*
X109772140Y-99852000D01*
X111585860Y-99852000D01*
X111613928Y-99854764D01*
G37*
G36*
X101453928Y-99854764D02*
G01*
X101475009Y-99861160D01*
X101494445Y-99871548D01*
X101511476Y-99885524D01*
X101525452Y-99902555D01*
X101535840Y-99921991D01*
X101542236Y-99943072D01*
X101545000Y-99971140D01*
X101545000Y-100434860D01*
X101542236Y-100462928D01*
X101535840Y-100484009D01*
X101525452Y-100503445D01*
X101511476Y-100520476D01*
X101494445Y-100534452D01*
X101475009Y-100544840D01*
X101453928Y-100551236D01*
X101425860Y-100554000D01*
X99612140Y-100554000D01*
X99584072Y-100551236D01*
X99562991Y-100544840D01*
X99543555Y-100534452D01*
X99526524Y-100520476D01*
X99512548Y-100503445D01*
X99502160Y-100484009D01*
X99495764Y-100462928D01*
X99493000Y-100434860D01*
X99493000Y-99971140D01*
X99495764Y-99943072D01*
X99502160Y-99921991D01*
X99512548Y-99902555D01*
X99526524Y-99885524D01*
X99543555Y-99871548D01*
X99562991Y-99861160D01*
X99584072Y-99854764D01*
X99612140Y-99852000D01*
X101425860Y-99852000D01*
X101453928Y-99854764D01*
G37*
G36*
X106663928Y-99854764D02*
G01*
X106685009Y-99861160D01*
X106704445Y-99871548D01*
X106721476Y-99885524D01*
X106735452Y-99902555D01*
X106745840Y-99921991D01*
X106752236Y-99943072D01*
X106755000Y-99971140D01*
X106755000Y-100434860D01*
X106752236Y-100462928D01*
X106745840Y-100484009D01*
X106735452Y-100503445D01*
X106721476Y-100520476D01*
X106704445Y-100534452D01*
X106685009Y-100544840D01*
X106663928Y-100551236D01*
X106635860Y-100554000D01*
X104822140Y-100554000D01*
X104794072Y-100551236D01*
X104772991Y-100544840D01*
X104753555Y-100534452D01*
X104736524Y-100520476D01*
X104722548Y-100503445D01*
X104712160Y-100484009D01*
X104705764Y-100462928D01*
X104703000Y-100434860D01*
X104703000Y-99971140D01*
X104705764Y-99943072D01*
X104712160Y-99921991D01*
X104722548Y-99902555D01*
X104736524Y-99885524D01*
X104753555Y-99871548D01*
X104772991Y-99861160D01*
X104794072Y-99854764D01*
X104822140Y-99852000D01*
X106635860Y-99852000D01*
X106663928Y-99854764D01*
G37*
G36*
X78723928Y-99854764D02*
G01*
X78745009Y-99861160D01*
X78764445Y-99871548D01*
X78781476Y-99885524D01*
X78795452Y-99902555D01*
X78805840Y-99921991D01*
X78812236Y-99943072D01*
X78815000Y-99971140D01*
X78815000Y-100434860D01*
X78812236Y-100462928D01*
X78805840Y-100484009D01*
X78795452Y-100503445D01*
X78781476Y-100520476D01*
X78764445Y-100534452D01*
X78745009Y-100544840D01*
X78723928Y-100551236D01*
X78695860Y-100554000D01*
X76882140Y-100554000D01*
X76854072Y-100551236D01*
X76832991Y-100544840D01*
X76813555Y-100534452D01*
X76796524Y-100520476D01*
X76782548Y-100503445D01*
X76772160Y-100484009D01*
X76765764Y-100462928D01*
X76763000Y-100434860D01*
X76763000Y-99971140D01*
X76765764Y-99943072D01*
X76772160Y-99921991D01*
X76782548Y-99902555D01*
X76796524Y-99885524D01*
X76813555Y-99871548D01*
X76832991Y-99861160D01*
X76854072Y-99854764D01*
X76882140Y-99852000D01*
X78695860Y-99852000D01*
X78723928Y-99854764D01*
G37*
G36*
X78723928Y-98584764D02*
G01*
X78745009Y-98591160D01*
X78764445Y-98601548D01*
X78781476Y-98615524D01*
X78795452Y-98632555D01*
X78805840Y-98651991D01*
X78812236Y-98673072D01*
X78815000Y-98701140D01*
X78815000Y-99164860D01*
X78812236Y-99192928D01*
X78805840Y-99214009D01*
X78795452Y-99233445D01*
X78781476Y-99250476D01*
X78764445Y-99264452D01*
X78745009Y-99274840D01*
X78723928Y-99281236D01*
X78695860Y-99284000D01*
X76882140Y-99284000D01*
X76854072Y-99281236D01*
X76832991Y-99274840D01*
X76813555Y-99264452D01*
X76796524Y-99250476D01*
X76782548Y-99233445D01*
X76772160Y-99214009D01*
X76765764Y-99192928D01*
X76763000Y-99164860D01*
X76763000Y-98701140D01*
X76765764Y-98673072D01*
X76772160Y-98651991D01*
X76782548Y-98632555D01*
X76796524Y-98615524D01*
X76813555Y-98601548D01*
X76832991Y-98591160D01*
X76854072Y-98584764D01*
X76882140Y-98582000D01*
X78695860Y-98582000D01*
X78723928Y-98584764D01*
G37*
G36*
X93833928Y-98584764D02*
G01*
X93855009Y-98591160D01*
X93874445Y-98601548D01*
X93891476Y-98615524D01*
X93905452Y-98632555D01*
X93915840Y-98651991D01*
X93922236Y-98673072D01*
X93925000Y-98701140D01*
X93925000Y-99164860D01*
X93922236Y-99192928D01*
X93915840Y-99214009D01*
X93905452Y-99233445D01*
X93891476Y-99250476D01*
X93874445Y-99264452D01*
X93855009Y-99274840D01*
X93833928Y-99281236D01*
X93805860Y-99284000D01*
X91992140Y-99284000D01*
X91964072Y-99281236D01*
X91942991Y-99274840D01*
X91923555Y-99264452D01*
X91906524Y-99250476D01*
X91892548Y-99233445D01*
X91882160Y-99214009D01*
X91875764Y-99192928D01*
X91873000Y-99164860D01*
X91873000Y-98701140D01*
X91875764Y-98673072D01*
X91882160Y-98651991D01*
X91892548Y-98632555D01*
X91906524Y-98615524D01*
X91923555Y-98601548D01*
X91942991Y-98591160D01*
X91964072Y-98584764D01*
X91992140Y-98582000D01*
X93805860Y-98582000D01*
X93833928Y-98584764D01*
G37*
G36*
X111613928Y-98584764D02*
G01*
X111635009Y-98591160D01*
X111654445Y-98601548D01*
X111671476Y-98615524D01*
X111685452Y-98632555D01*
X111695840Y-98651991D01*
X111702236Y-98673072D01*
X111705000Y-98701140D01*
X111705000Y-99164860D01*
X111702236Y-99192928D01*
X111695840Y-99214009D01*
X111685452Y-99233445D01*
X111671476Y-99250476D01*
X111654445Y-99264452D01*
X111635009Y-99274840D01*
X111613928Y-99281236D01*
X111585860Y-99284000D01*
X109772140Y-99284000D01*
X109744072Y-99281236D01*
X109722991Y-99274840D01*
X109703555Y-99264452D01*
X109686524Y-99250476D01*
X109672548Y-99233445D01*
X109662160Y-99214009D01*
X109655764Y-99192928D01*
X109653000Y-99164860D01*
X109653000Y-98701140D01*
X109655764Y-98673072D01*
X109662160Y-98651991D01*
X109672548Y-98632555D01*
X109686524Y-98615524D01*
X109703555Y-98601548D01*
X109722991Y-98591160D01*
X109744072Y-98584764D01*
X109772140Y-98582000D01*
X111585860Y-98582000D01*
X111613928Y-98584764D01*
G37*
G36*
X88883928Y-98584764D02*
G01*
X88905009Y-98591160D01*
X88924445Y-98601548D01*
X88941476Y-98615524D01*
X88955452Y-98632555D01*
X88965840Y-98651991D01*
X88972236Y-98673072D01*
X88975000Y-98701140D01*
X88975000Y-99164860D01*
X88972236Y-99192928D01*
X88965840Y-99214009D01*
X88955452Y-99233445D01*
X88941476Y-99250476D01*
X88924445Y-99264452D01*
X88905009Y-99274840D01*
X88883928Y-99281236D01*
X88855860Y-99284000D01*
X87042140Y-99284000D01*
X87014072Y-99281236D01*
X86992991Y-99274840D01*
X86973555Y-99264452D01*
X86956524Y-99250476D01*
X86942548Y-99233445D01*
X86932160Y-99214009D01*
X86925764Y-99192928D01*
X86923000Y-99164860D01*
X86923000Y-98701140D01*
X86925764Y-98673072D01*
X86932160Y-98651991D01*
X86942548Y-98632555D01*
X86956524Y-98615524D01*
X86973555Y-98601548D01*
X86992991Y-98591160D01*
X87014072Y-98584764D01*
X87042140Y-98582000D01*
X88855860Y-98582000D01*
X88883928Y-98584764D01*
G37*
G36*
X83673928Y-98584764D02*
G01*
X83695009Y-98591160D01*
X83714445Y-98601548D01*
X83731476Y-98615524D01*
X83745452Y-98632555D01*
X83755840Y-98651991D01*
X83762236Y-98673072D01*
X83765000Y-98701140D01*
X83765000Y-99164860D01*
X83762236Y-99192928D01*
X83755840Y-99214009D01*
X83745452Y-99233445D01*
X83731476Y-99250476D01*
X83714445Y-99264452D01*
X83695009Y-99274840D01*
X83673928Y-99281236D01*
X83645860Y-99284000D01*
X81832140Y-99284000D01*
X81804072Y-99281236D01*
X81782991Y-99274840D01*
X81763555Y-99264452D01*
X81746524Y-99250476D01*
X81732548Y-99233445D01*
X81722160Y-99214009D01*
X81715764Y-99192928D01*
X81713000Y-99164860D01*
X81713000Y-98701140D01*
X81715764Y-98673072D01*
X81722160Y-98651991D01*
X81732548Y-98632555D01*
X81746524Y-98615524D01*
X81763555Y-98601548D01*
X81782991Y-98591160D01*
X81804072Y-98584764D01*
X81832140Y-98582000D01*
X83645860Y-98582000D01*
X83673928Y-98584764D01*
G37*
G36*
X106663928Y-98584764D02*
G01*
X106685009Y-98591160D01*
X106704445Y-98601548D01*
X106721476Y-98615524D01*
X106735452Y-98632555D01*
X106745840Y-98651991D01*
X106752236Y-98673072D01*
X106755000Y-98701140D01*
X106755000Y-99164860D01*
X106752236Y-99192928D01*
X106745840Y-99214009D01*
X106735452Y-99233445D01*
X106721476Y-99250476D01*
X106704445Y-99264452D01*
X106685009Y-99274840D01*
X106663928Y-99281236D01*
X106635860Y-99284000D01*
X104822140Y-99284000D01*
X104794072Y-99281236D01*
X104772991Y-99274840D01*
X104753555Y-99264452D01*
X104736524Y-99250476D01*
X104722548Y-99233445D01*
X104712160Y-99214009D01*
X104705764Y-99192928D01*
X104703000Y-99164860D01*
X104703000Y-98701140D01*
X104705764Y-98673072D01*
X104712160Y-98651991D01*
X104722548Y-98632555D01*
X104736524Y-98615524D01*
X104753555Y-98601548D01*
X104772991Y-98591160D01*
X104794072Y-98584764D01*
X104822140Y-98582000D01*
X106635860Y-98582000D01*
X106663928Y-98584764D01*
G37*
G36*
X96503928Y-98584764D02*
G01*
X96525009Y-98591160D01*
X96544445Y-98601548D01*
X96561476Y-98615524D01*
X96575452Y-98632555D01*
X96585840Y-98651991D01*
X96592236Y-98673072D01*
X96595000Y-98701140D01*
X96595000Y-99164860D01*
X96592236Y-99192928D01*
X96585840Y-99214009D01*
X96575452Y-99233445D01*
X96561476Y-99250476D01*
X96544445Y-99264452D01*
X96525009Y-99274840D01*
X96503928Y-99281236D01*
X96475860Y-99284000D01*
X94662140Y-99284000D01*
X94634072Y-99281236D01*
X94612991Y-99274840D01*
X94593555Y-99264452D01*
X94576524Y-99250476D01*
X94562548Y-99233445D01*
X94552160Y-99214009D01*
X94545764Y-99192928D01*
X94543000Y-99164860D01*
X94543000Y-98701140D01*
X94545764Y-98673072D01*
X94552160Y-98651991D01*
X94562548Y-98632555D01*
X94576524Y-98615524D01*
X94593555Y-98601548D01*
X94612991Y-98591160D01*
X94634072Y-98584764D01*
X94662140Y-98582000D01*
X96475860Y-98582000D01*
X96503928Y-98584764D01*
G37*
G36*
X101453928Y-98584764D02*
G01*
X101475009Y-98591160D01*
X101494445Y-98601548D01*
X101511476Y-98615524D01*
X101525452Y-98632555D01*
X101535840Y-98651991D01*
X101542236Y-98673072D01*
X101545000Y-98701140D01*
X101545000Y-99164860D01*
X101542236Y-99192928D01*
X101535840Y-99214009D01*
X101525452Y-99233445D01*
X101511476Y-99250476D01*
X101494445Y-99264452D01*
X101475009Y-99274840D01*
X101453928Y-99281236D01*
X101425860Y-99284000D01*
X99612140Y-99284000D01*
X99584072Y-99281236D01*
X99562991Y-99274840D01*
X99543555Y-99264452D01*
X99526524Y-99250476D01*
X99512548Y-99233445D01*
X99502160Y-99214009D01*
X99495764Y-99192928D01*
X99493000Y-99164860D01*
X99493000Y-98701140D01*
X99495764Y-98673072D01*
X99502160Y-98651991D01*
X99512548Y-98632555D01*
X99526524Y-98615524D01*
X99543555Y-98601548D01*
X99562991Y-98591160D01*
X99584072Y-98584764D01*
X99612140Y-98582000D01*
X101425860Y-98582000D01*
X101453928Y-98584764D01*
G37*
G36*
X86106307Y-97557998D02*
G01*
X86144318Y-97569529D01*
X86179342Y-97588249D01*
X86210049Y-97613451D01*
X86235251Y-97644158D01*
X86253971Y-97679182D01*
X86265502Y-97717193D01*
X86270000Y-97762863D01*
X86270000Y-98571137D01*
X86265502Y-98616807D01*
X86253971Y-98654818D01*
X86235251Y-98689842D01*
X86210049Y-98720549D01*
X86179342Y-98745751D01*
X86144318Y-98764471D01*
X86106307Y-98776002D01*
X86060637Y-98780500D01*
X84627363Y-98780500D01*
X84581693Y-98776002D01*
X84543682Y-98764471D01*
X84508658Y-98745751D01*
X84477951Y-98720549D01*
X84452749Y-98689842D01*
X84434029Y-98654818D01*
X84422498Y-98616807D01*
X84418000Y-98571137D01*
X84418000Y-97762863D01*
X84422498Y-97717193D01*
X84434029Y-97679182D01*
X84452749Y-97644158D01*
X84477951Y-97613451D01*
X84508658Y-97588249D01*
X84543682Y-97569529D01*
X84581693Y-97557998D01*
X84627363Y-97553500D01*
X86060637Y-97553500D01*
X86106307Y-97557998D01*
G37*
G36*
X103886307Y-97434998D02*
G01*
X103924318Y-97446529D01*
X103959342Y-97465249D01*
X103990049Y-97490451D01*
X104015251Y-97521158D01*
X104033971Y-97556182D01*
X104045502Y-97594193D01*
X104050000Y-97639863D01*
X104050000Y-98448137D01*
X104045502Y-98493807D01*
X104033971Y-98531818D01*
X104015251Y-98566842D01*
X103990049Y-98597549D01*
X103959342Y-98622751D01*
X103924318Y-98641471D01*
X103886307Y-98653002D01*
X103840637Y-98657500D01*
X102407363Y-98657500D01*
X102361693Y-98653002D01*
X102323682Y-98641471D01*
X102288658Y-98622751D01*
X102257951Y-98597549D01*
X102232749Y-98566842D01*
X102214029Y-98531818D01*
X102202498Y-98493807D01*
X102198000Y-98448137D01*
X102198000Y-97639863D01*
X102202498Y-97594193D01*
X102214029Y-97556182D01*
X102232749Y-97521158D01*
X102257951Y-97490451D01*
X102288658Y-97465249D01*
X102323682Y-97446529D01*
X102361693Y-97434998D01*
X102407363Y-97430500D01*
X103840637Y-97430500D01*
X103886307Y-97434998D01*
G37*
G36*
X101453928Y-97314764D02*
G01*
X101475009Y-97321160D01*
X101494445Y-97331548D01*
X101511476Y-97345524D01*
X101525452Y-97362555D01*
X101535840Y-97381991D01*
X101542236Y-97403072D01*
X101545000Y-97431140D01*
X101545000Y-97894860D01*
X101542236Y-97922928D01*
X101535840Y-97944009D01*
X101525452Y-97963445D01*
X101511476Y-97980476D01*
X101494445Y-97994452D01*
X101475009Y-98004840D01*
X101453928Y-98011236D01*
X101425860Y-98014000D01*
X99612140Y-98014000D01*
X99584072Y-98011236D01*
X99562991Y-98004840D01*
X99543555Y-97994452D01*
X99526524Y-97980476D01*
X99512548Y-97963445D01*
X99502160Y-97944009D01*
X99495764Y-97922928D01*
X99493000Y-97894860D01*
X99493000Y-97431140D01*
X99495764Y-97403072D01*
X99502160Y-97381991D01*
X99512548Y-97362555D01*
X99526524Y-97345524D01*
X99543555Y-97331548D01*
X99562991Y-97321160D01*
X99584072Y-97314764D01*
X99612140Y-97312000D01*
X101425860Y-97312000D01*
X101453928Y-97314764D01*
G37*
G36*
X78723928Y-97314764D02*
G01*
X78745009Y-97321160D01*
X78764445Y-97331548D01*
X78781476Y-97345524D01*
X78795452Y-97362555D01*
X78805840Y-97381991D01*
X78812236Y-97403072D01*
X78815000Y-97431140D01*
X78815000Y-97894860D01*
X78812236Y-97922928D01*
X78805840Y-97944009D01*
X78795452Y-97963445D01*
X78781476Y-97980476D01*
X78764445Y-97994452D01*
X78745009Y-98004840D01*
X78723928Y-98011236D01*
X78695860Y-98014000D01*
X76882140Y-98014000D01*
X76854072Y-98011236D01*
X76832991Y-98004840D01*
X76813555Y-97994452D01*
X76796524Y-97980476D01*
X76782548Y-97963445D01*
X76772160Y-97944009D01*
X76765764Y-97922928D01*
X76763000Y-97894860D01*
X76763000Y-97431140D01*
X76765764Y-97403072D01*
X76772160Y-97381991D01*
X76782548Y-97362555D01*
X76796524Y-97345524D01*
X76813555Y-97331548D01*
X76832991Y-97321160D01*
X76854072Y-97314764D01*
X76882140Y-97312000D01*
X78695860Y-97312000D01*
X78723928Y-97314764D01*
G37*
G36*
X111613928Y-97314764D02*
G01*
X111635009Y-97321160D01*
X111654445Y-97331548D01*
X111671476Y-97345524D01*
X111685452Y-97362555D01*
X111695840Y-97381991D01*
X111702236Y-97403072D01*
X111705000Y-97431140D01*
X111705000Y-97894860D01*
X111702236Y-97922928D01*
X111695840Y-97944009D01*
X111685452Y-97963445D01*
X111671476Y-97980476D01*
X111654445Y-97994452D01*
X111635009Y-98004840D01*
X111613928Y-98011236D01*
X111585860Y-98014000D01*
X109772140Y-98014000D01*
X109744072Y-98011236D01*
X109722991Y-98004840D01*
X109703555Y-97994452D01*
X109686524Y-97980476D01*
X109672548Y-97963445D01*
X109662160Y-97944009D01*
X109655764Y-97922928D01*
X109653000Y-97894860D01*
X109653000Y-97431140D01*
X109655764Y-97403072D01*
X109662160Y-97381991D01*
X109672548Y-97362555D01*
X109686524Y-97345524D01*
X109703555Y-97331548D01*
X109722991Y-97321160D01*
X109744072Y-97314764D01*
X109772140Y-97312000D01*
X111585860Y-97312000D01*
X111613928Y-97314764D01*
G37*
G36*
X106663928Y-97314764D02*
G01*
X106685009Y-97321160D01*
X106704445Y-97331548D01*
X106721476Y-97345524D01*
X106735452Y-97362555D01*
X106745840Y-97381991D01*
X106752236Y-97403072D01*
X106755000Y-97431140D01*
X106755000Y-97894860D01*
X106752236Y-97922928D01*
X106745840Y-97944009D01*
X106735452Y-97963445D01*
X106721476Y-97980476D01*
X106704445Y-97994452D01*
X106685009Y-98004840D01*
X106663928Y-98011236D01*
X106635860Y-98014000D01*
X104822140Y-98014000D01*
X104794072Y-98011236D01*
X104772991Y-98004840D01*
X104753555Y-97994452D01*
X104736524Y-97980476D01*
X104722548Y-97963445D01*
X104712160Y-97944009D01*
X104705764Y-97922928D01*
X104703000Y-97894860D01*
X104703000Y-97431140D01*
X104705764Y-97403072D01*
X104712160Y-97381991D01*
X104722548Y-97362555D01*
X104736524Y-97345524D01*
X104753555Y-97331548D01*
X104772991Y-97321160D01*
X104794072Y-97314764D01*
X104822140Y-97312000D01*
X106635860Y-97312000D01*
X106663928Y-97314764D01*
G37*
G36*
X96503928Y-97314764D02*
G01*
X96525009Y-97321160D01*
X96544445Y-97331548D01*
X96561476Y-97345524D01*
X96575452Y-97362555D01*
X96585840Y-97381991D01*
X96592236Y-97403072D01*
X96595000Y-97431140D01*
X96595000Y-97894860D01*
X96592236Y-97922928D01*
X96585840Y-97944009D01*
X96575452Y-97963445D01*
X96561476Y-97980476D01*
X96544445Y-97994452D01*
X96525009Y-98004840D01*
X96503928Y-98011236D01*
X96475860Y-98014000D01*
X94662140Y-98014000D01*
X94634072Y-98011236D01*
X94612991Y-98004840D01*
X94593555Y-97994452D01*
X94576524Y-97980476D01*
X94562548Y-97963445D01*
X94552160Y-97944009D01*
X94545764Y-97922928D01*
X94543000Y-97894860D01*
X94543000Y-97431140D01*
X94545764Y-97403072D01*
X94552160Y-97381991D01*
X94562548Y-97362555D01*
X94576524Y-97345524D01*
X94593555Y-97331548D01*
X94612991Y-97321160D01*
X94634072Y-97314764D01*
X94662140Y-97312000D01*
X96475860Y-97312000D01*
X96503928Y-97314764D01*
G37*
G36*
X93833928Y-97314764D02*
G01*
X93855009Y-97321160D01*
X93874445Y-97331548D01*
X93891476Y-97345524D01*
X93905452Y-97362555D01*
X93915840Y-97381991D01*
X93922236Y-97403072D01*
X93925000Y-97431140D01*
X93925000Y-97894860D01*
X93922236Y-97922928D01*
X93915840Y-97944009D01*
X93905452Y-97963445D01*
X93891476Y-97980476D01*
X93874445Y-97994452D01*
X93855009Y-98004840D01*
X93833928Y-98011236D01*
X93805860Y-98014000D01*
X91992140Y-98014000D01*
X91964072Y-98011236D01*
X91942991Y-98004840D01*
X91923555Y-97994452D01*
X91906524Y-97980476D01*
X91892548Y-97963445D01*
X91882160Y-97944009D01*
X91875764Y-97922928D01*
X91873000Y-97894860D01*
X91873000Y-97431140D01*
X91875764Y-97403072D01*
X91882160Y-97381991D01*
X91892548Y-97362555D01*
X91906524Y-97345524D01*
X91923555Y-97331548D01*
X91942991Y-97321160D01*
X91964072Y-97314764D01*
X91992140Y-97312000D01*
X93805860Y-97312000D01*
X93833928Y-97314764D01*
G37*
G36*
X83673928Y-97314764D02*
G01*
X83695009Y-97321160D01*
X83714445Y-97331548D01*
X83731476Y-97345524D01*
X83745452Y-97362555D01*
X83755840Y-97381991D01*
X83762236Y-97403072D01*
X83765000Y-97431140D01*
X83765000Y-97894860D01*
X83762236Y-97922928D01*
X83755840Y-97944009D01*
X83745452Y-97963445D01*
X83731476Y-97980476D01*
X83714445Y-97994452D01*
X83695009Y-98004840D01*
X83673928Y-98011236D01*
X83645860Y-98014000D01*
X81832140Y-98014000D01*
X81804072Y-98011236D01*
X81782991Y-98004840D01*
X81763555Y-97994452D01*
X81746524Y-97980476D01*
X81732548Y-97963445D01*
X81722160Y-97944009D01*
X81715764Y-97922928D01*
X81713000Y-97894860D01*
X81713000Y-97431140D01*
X81715764Y-97403072D01*
X81722160Y-97381991D01*
X81732548Y-97362555D01*
X81746524Y-97345524D01*
X81763555Y-97331548D01*
X81782991Y-97321160D01*
X81804072Y-97314764D01*
X81832140Y-97312000D01*
X83645860Y-97312000D01*
X83673928Y-97314764D01*
G37*
G36*
X88883928Y-97314764D02*
G01*
X88905009Y-97321160D01*
X88924445Y-97331548D01*
X88941476Y-97345524D01*
X88955452Y-97362555D01*
X88965840Y-97381991D01*
X88972236Y-97403072D01*
X88975000Y-97431140D01*
X88975000Y-97894860D01*
X88972236Y-97922928D01*
X88965840Y-97944009D01*
X88955452Y-97963445D01*
X88941476Y-97980476D01*
X88924445Y-97994452D01*
X88905009Y-98004840D01*
X88883928Y-98011236D01*
X88855860Y-98014000D01*
X87042140Y-98014000D01*
X87014072Y-98011236D01*
X86992991Y-98004840D01*
X86973555Y-97994452D01*
X86956524Y-97980476D01*
X86942548Y-97963445D01*
X86932160Y-97944009D01*
X86925764Y-97922928D01*
X86923000Y-97894860D01*
X86923000Y-97431140D01*
X86925764Y-97403072D01*
X86932160Y-97381991D01*
X86942548Y-97362555D01*
X86956524Y-97345524D01*
X86973555Y-97331548D01*
X86992991Y-97321160D01*
X87014072Y-97314764D01*
X87042140Y-97312000D01*
X88855860Y-97312000D01*
X88883928Y-97314764D01*
G37*
G36*
X95375589Y-93726876D02*
G01*
X95474893Y-93746629D01*
X95615206Y-93804748D01*
X95741484Y-93889125D01*
X95848875Y-93996516D01*
X95933252Y-94122794D01*
X95991371Y-94263107D01*
X96021000Y-94412063D01*
X96021000Y-94563937D01*
X95991371Y-94712893D01*
X95933252Y-94853206D01*
X95848875Y-94979484D01*
X95741484Y-95086875D01*
X95615206Y-95171252D01*
X95474893Y-95229371D01*
X95375589Y-95249124D01*
X95325938Y-95259000D01*
X95174062Y-95259000D01*
X95124411Y-95249124D01*
X95025107Y-95229371D01*
X94884794Y-95171252D01*
X94758516Y-95086875D01*
X94651125Y-94979484D01*
X94566748Y-94853206D01*
X94508629Y-94712893D01*
X94479000Y-94563937D01*
X94479000Y-94412063D01*
X94508629Y-94263107D01*
X94566748Y-94122794D01*
X94651125Y-93996516D01*
X94758516Y-93889125D01*
X94884794Y-93804748D01*
X95025107Y-93746629D01*
X95124411Y-93726876D01*
X95174062Y-93717000D01*
X95325938Y-93717000D01*
X95375589Y-93726876D01*
G37*
G36*
X108712307Y-92801498D02*
G01*
X108750318Y-92813029D01*
X108785342Y-92831749D01*
X108816049Y-92856951D01*
X108841251Y-92887658D01*
X108859971Y-92922682D01*
X108871502Y-92960693D01*
X108876000Y-93006363D01*
X108876000Y-93814637D01*
X108871502Y-93860307D01*
X108859971Y-93898318D01*
X108841251Y-93933342D01*
X108816049Y-93964049D01*
X108785342Y-93989251D01*
X108750318Y-94007971D01*
X108712307Y-94019502D01*
X108666637Y-94024000D01*
X107233363Y-94024000D01*
X107187693Y-94019502D01*
X107149682Y-94007971D01*
X107114658Y-93989251D01*
X107083951Y-93964049D01*
X107058749Y-93933342D01*
X107040029Y-93898318D01*
X107028498Y-93860307D01*
X107024000Y-93814637D01*
X107024000Y-93006363D01*
X107028498Y-92960693D01*
X107040029Y-92922682D01*
X107058749Y-92887658D01*
X107083951Y-92856951D01*
X107114658Y-92831749D01*
X107149682Y-92813029D01*
X107187693Y-92801498D01*
X107233363Y-92797000D01*
X108666637Y-92797000D01*
X108712307Y-92801498D01*
G37*
G36*
X111252307Y-92801498D02*
G01*
X111290318Y-92813029D01*
X111325342Y-92831749D01*
X111356049Y-92856951D01*
X111381251Y-92887658D01*
X111399971Y-92922682D01*
X111411502Y-92960693D01*
X111416000Y-93006363D01*
X111416000Y-93814637D01*
X111411502Y-93860307D01*
X111399971Y-93898318D01*
X111381251Y-93933342D01*
X111356049Y-93964049D01*
X111325342Y-93989251D01*
X111290318Y-94007971D01*
X111252307Y-94019502D01*
X111206637Y-94024000D01*
X109773363Y-94024000D01*
X109727693Y-94019502D01*
X109689682Y-94007971D01*
X109654658Y-93989251D01*
X109623951Y-93964049D01*
X109598749Y-93933342D01*
X109580029Y-93898318D01*
X109568498Y-93860307D01*
X109564000Y-93814637D01*
X109564000Y-93006363D01*
X109568498Y-92960693D01*
X109580029Y-92922682D01*
X109598749Y-92887658D01*
X109623951Y-92856951D01*
X109654658Y-92831749D01*
X109689682Y-92813029D01*
X109727693Y-92801498D01*
X109773363Y-92797000D01*
X111206637Y-92797000D01*
X111252307Y-92801498D01*
G37*
G36*
X78419000Y-93525000D02*
G01*
X76317000Y-93525000D01*
X76317000Y-91923000D01*
X78419000Y-91923000D01*
X78419000Y-93525000D01*
G37*
G36*
X103430564Y-91191389D02*
G01*
X103621833Y-91270615D01*
X103621835Y-91270616D01*
X103739332Y-91349125D01*
X103793973Y-91385635D01*
X103940365Y-91532027D01*
X104055385Y-91704167D01*
X104134611Y-91895436D01*
X104175000Y-92098484D01*
X104175000Y-92305516D01*
X104134611Y-92508564D01*
X104118742Y-92546875D01*
X104055384Y-92699835D01*
X103940365Y-92871973D01*
X103793973Y-93018365D01*
X103621835Y-93133384D01*
X103621834Y-93133385D01*
X103621833Y-93133385D01*
X103430564Y-93212611D01*
X103227516Y-93253000D01*
X103020484Y-93253000D01*
X102817436Y-93212611D01*
X102626167Y-93133385D01*
X102626166Y-93133385D01*
X102626165Y-93133384D01*
X102454027Y-93018365D01*
X102307635Y-92871973D01*
X102192616Y-92699835D01*
X102129258Y-92546875D01*
X102113389Y-92508564D01*
X102073000Y-92305516D01*
X102073000Y-92098484D01*
X102113389Y-91895436D01*
X102192615Y-91704167D01*
X102307635Y-91532027D01*
X102454027Y-91385635D01*
X102508668Y-91349125D01*
X102626165Y-91270616D01*
X102626167Y-91270615D01*
X102817436Y-91191389D01*
X103020484Y-91151000D01*
X103227516Y-91151000D01*
X103430564Y-91191389D01*
G37*
G36*
X87936564Y-91191389D02*
G01*
X88127833Y-91270615D01*
X88127835Y-91270616D01*
X88245332Y-91349125D01*
X88299973Y-91385635D01*
X88446365Y-91532027D01*
X88561385Y-91704167D01*
X88640611Y-91895436D01*
X88681000Y-92098484D01*
X88681000Y-92305516D01*
X88640611Y-92508564D01*
X88624742Y-92546875D01*
X88561384Y-92699835D01*
X88446365Y-92871973D01*
X88299973Y-93018365D01*
X88127835Y-93133384D01*
X88127834Y-93133385D01*
X88127833Y-93133385D01*
X87936564Y-93212611D01*
X87733516Y-93253000D01*
X87526484Y-93253000D01*
X87323436Y-93212611D01*
X87132167Y-93133385D01*
X87132166Y-93133385D01*
X87132165Y-93133384D01*
X86960027Y-93018365D01*
X86813635Y-92871973D01*
X86698616Y-92699835D01*
X86635258Y-92546875D01*
X86619389Y-92508564D01*
X86579000Y-92305516D01*
X86579000Y-92098484D01*
X86619389Y-91895436D01*
X86698615Y-91704167D01*
X86813635Y-91532027D01*
X86960027Y-91385635D01*
X87014668Y-91349125D01*
X87132165Y-91270616D01*
X87132167Y-91270615D01*
X87323436Y-91191389D01*
X87526484Y-91151000D01*
X87733516Y-91151000D01*
X87936564Y-91191389D01*
G37*
G36*
X92835589Y-91186876D02*
G01*
X92934893Y-91206629D01*
X93075206Y-91264748D01*
X93201484Y-91349125D01*
X93308875Y-91456516D01*
X93393252Y-91582794D01*
X93451371Y-91723107D01*
X93481000Y-91872063D01*
X93481000Y-92023937D01*
X93451371Y-92172893D01*
X93393252Y-92313206D01*
X93308875Y-92439484D01*
X93201484Y-92546875D01*
X93075206Y-92631252D01*
X92934893Y-92689371D01*
X92835589Y-92709124D01*
X92785938Y-92719000D01*
X92634062Y-92719000D01*
X92584411Y-92709124D01*
X92485107Y-92689371D01*
X92344794Y-92631252D01*
X92218516Y-92546875D01*
X92111125Y-92439484D01*
X92026748Y-92313206D01*
X91968629Y-92172893D01*
X91939000Y-92023937D01*
X91939000Y-91872063D01*
X91968629Y-91723107D01*
X92026748Y-91582794D01*
X92111125Y-91456516D01*
X92218516Y-91349125D01*
X92344794Y-91264748D01*
X92485107Y-91206629D01*
X92584411Y-91186876D01*
X92634062Y-91177000D01*
X92785938Y-91177000D01*
X92835589Y-91186876D01*
G37*
G36*
X97915589Y-91186876D02*
G01*
X98014893Y-91206629D01*
X98155206Y-91264748D01*
X98281484Y-91349125D01*
X98388875Y-91456516D01*
X98473252Y-91582794D01*
X98531371Y-91723107D01*
X98561000Y-91872063D01*
X98561000Y-92023937D01*
X98531371Y-92172893D01*
X98473252Y-92313206D01*
X98388875Y-92439484D01*
X98281484Y-92546875D01*
X98155206Y-92631252D01*
X98014893Y-92689371D01*
X97915589Y-92709124D01*
X97865938Y-92719000D01*
X97714062Y-92719000D01*
X97664411Y-92709124D01*
X97565107Y-92689371D01*
X97424794Y-92631252D01*
X97298516Y-92546875D01*
X97191125Y-92439484D01*
X97106748Y-92313206D01*
X97048629Y-92172893D01*
X97019000Y-92023937D01*
X97019000Y-91872063D01*
X97048629Y-91723107D01*
X97106748Y-91582794D01*
X97191125Y-91456516D01*
X97298516Y-91349125D01*
X97424794Y-91264748D01*
X97565107Y-91206629D01*
X97664411Y-91186876D01*
X97714062Y-91177000D01*
X97865938Y-91177000D01*
X97915589Y-91186876D01*
G37*
G36*
X84719000Y-92375000D02*
G01*
X82617000Y-92375000D01*
X82617000Y-88473000D01*
X84719000Y-88473000D01*
X84719000Y-92375000D01*
G37*
G36*
X78419000Y-91225000D02*
G01*
X76317000Y-91225000D01*
X76317000Y-89623000D01*
X78419000Y-89623000D01*
X78419000Y-91225000D01*
G37*
G36*
X108712307Y-89876498D02*
G01*
X108750318Y-89888029D01*
X108785342Y-89906749D01*
X108816049Y-89931951D01*
X108841251Y-89962658D01*
X108859971Y-89997682D01*
X108871502Y-90035693D01*
X108876000Y-90081363D01*
X108876000Y-90889637D01*
X108871502Y-90935307D01*
X108859971Y-90973318D01*
X108841251Y-91008342D01*
X108816049Y-91039049D01*
X108785342Y-91064251D01*
X108750318Y-91082971D01*
X108712307Y-91094502D01*
X108666637Y-91099000D01*
X107233363Y-91099000D01*
X107187693Y-91094502D01*
X107149682Y-91082971D01*
X107114658Y-91064251D01*
X107083951Y-91039049D01*
X107058749Y-91008342D01*
X107040029Y-90973318D01*
X107028498Y-90935307D01*
X107024000Y-90889637D01*
X107024000Y-90081363D01*
X107028498Y-90035693D01*
X107040029Y-89997682D01*
X107058749Y-89962658D01*
X107083951Y-89931951D01*
X107114658Y-89906749D01*
X107149682Y-89888029D01*
X107187693Y-89876498D01*
X107233363Y-89872000D01*
X108666637Y-89872000D01*
X108712307Y-89876498D01*
G37*
G36*
X111252307Y-89876498D02*
G01*
X111290318Y-89888029D01*
X111325342Y-89906749D01*
X111356049Y-89931951D01*
X111381251Y-89962658D01*
X111399971Y-89997682D01*
X111411502Y-90035693D01*
X111416000Y-90081363D01*
X111416000Y-90889637D01*
X111411502Y-90935307D01*
X111399971Y-90973318D01*
X111381251Y-91008342D01*
X111356049Y-91039049D01*
X111325342Y-91064251D01*
X111290318Y-91082971D01*
X111252307Y-91094502D01*
X111206637Y-91099000D01*
X109773363Y-91099000D01*
X109727693Y-91094502D01*
X109689682Y-91082971D01*
X109654658Y-91064251D01*
X109623951Y-91039049D01*
X109598749Y-91008342D01*
X109580029Y-90973318D01*
X109568498Y-90935307D01*
X109564000Y-90889637D01*
X109564000Y-90081363D01*
X109568498Y-90035693D01*
X109580029Y-89997682D01*
X109598749Y-89962658D01*
X109623951Y-89931951D01*
X109654658Y-89906749D01*
X109689682Y-89888029D01*
X109727693Y-89876498D01*
X109773363Y-89872000D01*
X111206637Y-89872000D01*
X111252307Y-89876498D01*
G37*
G36*
X108712307Y-87975498D02*
G01*
X108750318Y-87987029D01*
X108785342Y-88005749D01*
X108816049Y-88030951D01*
X108841251Y-88061658D01*
X108859971Y-88096682D01*
X108871502Y-88134693D01*
X108876000Y-88180363D01*
X108876000Y-88988637D01*
X108871502Y-89034307D01*
X108859971Y-89072318D01*
X108841251Y-89107342D01*
X108816049Y-89138049D01*
X108785342Y-89163251D01*
X108750318Y-89181971D01*
X108712307Y-89193502D01*
X108666637Y-89198000D01*
X107233363Y-89198000D01*
X107187693Y-89193502D01*
X107149682Y-89181971D01*
X107114658Y-89163251D01*
X107083951Y-89138049D01*
X107058749Y-89107342D01*
X107040029Y-89072318D01*
X107028498Y-89034307D01*
X107024000Y-88988637D01*
X107024000Y-88180363D01*
X107028498Y-88134693D01*
X107040029Y-88096682D01*
X107058749Y-88061658D01*
X107083951Y-88030951D01*
X107114658Y-88005749D01*
X107149682Y-87987029D01*
X107187693Y-87975498D01*
X107233363Y-87971000D01*
X108666637Y-87971000D01*
X108712307Y-87975498D01*
G37*
G36*
X111252307Y-87975498D02*
G01*
X111290318Y-87987029D01*
X111325342Y-88005749D01*
X111356049Y-88030951D01*
X111381251Y-88061658D01*
X111399971Y-88096682D01*
X111411502Y-88134693D01*
X111416000Y-88180363D01*
X111416000Y-88988637D01*
X111411502Y-89034307D01*
X111399971Y-89072318D01*
X111381251Y-89107342D01*
X111356049Y-89138049D01*
X111325342Y-89163251D01*
X111290318Y-89181971D01*
X111252307Y-89193502D01*
X111206637Y-89198000D01*
X109773363Y-89198000D01*
X109727693Y-89193502D01*
X109689682Y-89181971D01*
X109654658Y-89163251D01*
X109623951Y-89138049D01*
X109598749Y-89107342D01*
X109580029Y-89072318D01*
X109568498Y-89034307D01*
X109564000Y-88988637D01*
X109564000Y-88180363D01*
X109568498Y-88134693D01*
X109580029Y-88096682D01*
X109598749Y-88061658D01*
X109623951Y-88030951D01*
X109654658Y-88005749D01*
X109689682Y-87987029D01*
X109727693Y-87975498D01*
X109773363Y-87971000D01*
X111206637Y-87971000D01*
X111252307Y-87975498D01*
G37*
G36*
X95375589Y-87630876D02*
G01*
X95474893Y-87650629D01*
X95615206Y-87708748D01*
X95741484Y-87793125D01*
X95848875Y-87900516D01*
X95933252Y-88026794D01*
X95991371Y-88167107D01*
X96021000Y-88316063D01*
X96021000Y-88467937D01*
X95991371Y-88616893D01*
X95933252Y-88757206D01*
X95848875Y-88883484D01*
X95741484Y-88990875D01*
X95615206Y-89075252D01*
X95474893Y-89133371D01*
X95381002Y-89152047D01*
X95325938Y-89163000D01*
X95174062Y-89163000D01*
X95118998Y-89152047D01*
X95025107Y-89133371D01*
X94884794Y-89075252D01*
X94758516Y-88990875D01*
X94651125Y-88883484D01*
X94566748Y-88757206D01*
X94508629Y-88616893D01*
X94479000Y-88467937D01*
X94479000Y-88316063D01*
X94508629Y-88167107D01*
X94566748Y-88026794D01*
X94651125Y-87900516D01*
X94758516Y-87793125D01*
X94884794Y-87708748D01*
X95025107Y-87650629D01*
X95124411Y-87630876D01*
X95174062Y-87621000D01*
X95325938Y-87621000D01*
X95375589Y-87630876D01*
G37*
G36*
X78419000Y-88925000D02*
G01*
X76317000Y-88925000D01*
X76317000Y-87323000D01*
X78419000Y-87323000D01*
X78419000Y-88925000D01*
G37*
G36*
X87936564Y-85349389D02*
G01*
X88127833Y-85428615D01*
X88127835Y-85428616D01*
X88169945Y-85456753D01*
X88299973Y-85543635D01*
X88446365Y-85690027D01*
X88561385Y-85862167D01*
X88640611Y-86053436D01*
X88681000Y-86256484D01*
X88681000Y-86463516D01*
X88640611Y-86666564D01*
X88595292Y-86775973D01*
X88561384Y-86857835D01*
X88446365Y-87029973D01*
X88299973Y-87176365D01*
X88127835Y-87291384D01*
X88127834Y-87291385D01*
X88127833Y-87291385D01*
X87936564Y-87370611D01*
X87733516Y-87411000D01*
X87526484Y-87411000D01*
X87323436Y-87370611D01*
X87132167Y-87291385D01*
X87132166Y-87291385D01*
X87132165Y-87291384D01*
X86960027Y-87176365D01*
X86813635Y-87029973D01*
X86698616Y-86857835D01*
X86664708Y-86775973D01*
X86619389Y-86666564D01*
X86579000Y-86463516D01*
X86579000Y-86256484D01*
X86619389Y-86053436D01*
X86698615Y-85862167D01*
X86813635Y-85690027D01*
X86960027Y-85543635D01*
X87090055Y-85456753D01*
X87132165Y-85428616D01*
X87132167Y-85428615D01*
X87323436Y-85349389D01*
X87526484Y-85309000D01*
X87733516Y-85309000D01*
X87936564Y-85349389D01*
G37*
G36*
X103430564Y-85095389D02*
G01*
X103614752Y-85171682D01*
X103621835Y-85174616D01*
X103766681Y-85271399D01*
X103793973Y-85289635D01*
X103940365Y-85436027D01*
X104055385Y-85608167D01*
X104134611Y-85799436D01*
X104175000Y-86002484D01*
X104175000Y-86209516D01*
X104134611Y-86412564D01*
X104113506Y-86463516D01*
X104055384Y-86603835D01*
X103940365Y-86775973D01*
X103793973Y-86922365D01*
X103621835Y-87037384D01*
X103621834Y-87037385D01*
X103621833Y-87037385D01*
X103430564Y-87116611D01*
X103227516Y-87157000D01*
X103020484Y-87157000D01*
X102817436Y-87116611D01*
X102626167Y-87037385D01*
X102626166Y-87037385D01*
X102626165Y-87037384D01*
X102454027Y-86922365D01*
X102307635Y-86775973D01*
X102192616Y-86603835D01*
X102134494Y-86463516D01*
X102113389Y-86412564D01*
X102073000Y-86209516D01*
X102073000Y-86002484D01*
X102113389Y-85799436D01*
X102192615Y-85608167D01*
X102307635Y-85436027D01*
X102454027Y-85289635D01*
X102481319Y-85271399D01*
X102626165Y-85174616D01*
X102633248Y-85171682D01*
X102817436Y-85095389D01*
X103020484Y-85055000D01*
X103227516Y-85055000D01*
X103430564Y-85095389D01*
G37*
G36*
X97915589Y-85090876D02*
G01*
X98014893Y-85110629D01*
X98155206Y-85168748D01*
X98281484Y-85253125D01*
X98388875Y-85360516D01*
X98473252Y-85486794D01*
X98531371Y-85627107D01*
X98561000Y-85776063D01*
X98561000Y-85927937D01*
X98531371Y-86076893D01*
X98473252Y-86217206D01*
X98388875Y-86343484D01*
X98281484Y-86450875D01*
X98155206Y-86535252D01*
X98014893Y-86593371D01*
X97915589Y-86613124D01*
X97865938Y-86623000D01*
X97714062Y-86623000D01*
X97664411Y-86613124D01*
X97565107Y-86593371D01*
X97424794Y-86535252D01*
X97298516Y-86450875D01*
X97191125Y-86343484D01*
X97106748Y-86217206D01*
X97048629Y-86076893D01*
X97019000Y-85927937D01*
X97019000Y-85776063D01*
X97048629Y-85627107D01*
X97106748Y-85486794D01*
X97191125Y-85360516D01*
X97298516Y-85253125D01*
X97424794Y-85168748D01*
X97565107Y-85110629D01*
X97664411Y-85090876D01*
X97714062Y-85081000D01*
X97865938Y-85081000D01*
X97915589Y-85090876D01*
G37*
G36*
X92835589Y-85090876D02*
G01*
X92934893Y-85110629D01*
X93075206Y-85168748D01*
X93201484Y-85253125D01*
X93308875Y-85360516D01*
X93393252Y-85486794D01*
X93451371Y-85627107D01*
X93481000Y-85776063D01*
X93481000Y-85927937D01*
X93451371Y-86076893D01*
X93393252Y-86217206D01*
X93308875Y-86343484D01*
X93201484Y-86450875D01*
X93075206Y-86535252D01*
X92934893Y-86593371D01*
X92835589Y-86613124D01*
X92785938Y-86623000D01*
X92634062Y-86623000D01*
X92584411Y-86613124D01*
X92485107Y-86593371D01*
X92344794Y-86535252D01*
X92218516Y-86450875D01*
X92111125Y-86343484D01*
X92026748Y-86217206D01*
X91968629Y-86076893D01*
X91939000Y-85927937D01*
X91939000Y-85776063D01*
X91968629Y-85627107D01*
X92026748Y-85486794D01*
X92111125Y-85360516D01*
X92218516Y-85253125D01*
X92344794Y-85168748D01*
X92485107Y-85110629D01*
X92584411Y-85090876D01*
X92634062Y-85081000D01*
X92785938Y-85081000D01*
X92835589Y-85090876D01*
G37*
G36*
X84170434Y-85239686D02*
G01*
X84210284Y-85251774D01*
X84246999Y-85271399D01*
X84279186Y-85297814D01*
X84305601Y-85330001D01*
X84325226Y-85366716D01*
X84337314Y-85406566D01*
X84342000Y-85454141D01*
X84342000Y-86117859D01*
X84337314Y-86165434D01*
X84325226Y-86205284D01*
X84305601Y-86241999D01*
X84279186Y-86274186D01*
X84246999Y-86300601D01*
X84210284Y-86320226D01*
X84170434Y-86332314D01*
X84122859Y-86337000D01*
X83009141Y-86337000D01*
X82961566Y-86332314D01*
X82921716Y-86320226D01*
X82885001Y-86300601D01*
X82852814Y-86274186D01*
X82826399Y-86241999D01*
X82806774Y-86205284D01*
X82794686Y-86165434D01*
X82790000Y-86117859D01*
X82790000Y-85454141D01*
X82794686Y-85406566D01*
X82806774Y-85366716D01*
X82826399Y-85330001D01*
X82852814Y-85297814D01*
X82885001Y-85271399D01*
X82921716Y-85251774D01*
X82961566Y-85239686D01*
X83009141Y-85235000D01*
X84122859Y-85235000D01*
X84170434Y-85239686D01*
G37*
G36*
X78074434Y-85239686D02*
G01*
X78114284Y-85251774D01*
X78150999Y-85271399D01*
X78183186Y-85297814D01*
X78209601Y-85330001D01*
X78229226Y-85366716D01*
X78241314Y-85406566D01*
X78246000Y-85454141D01*
X78246000Y-86117859D01*
X78241314Y-86165434D01*
X78229226Y-86205284D01*
X78209601Y-86241999D01*
X78183186Y-86274186D01*
X78150999Y-86300601D01*
X78114284Y-86320226D01*
X78074434Y-86332314D01*
X78026859Y-86337000D01*
X76913141Y-86337000D01*
X76865566Y-86332314D01*
X76825716Y-86320226D01*
X76789001Y-86300601D01*
X76756814Y-86274186D01*
X76730399Y-86241999D01*
X76710774Y-86205284D01*
X76698686Y-86165434D01*
X76694000Y-86117859D01*
X76694000Y-85454141D01*
X76698686Y-85406566D01*
X76710774Y-85366716D01*
X76730399Y-85330001D01*
X76756814Y-85297814D01*
X76789001Y-85271399D01*
X76825716Y-85251774D01*
X76865566Y-85239686D01*
X76913141Y-85235000D01*
X78026859Y-85235000D01*
X78074434Y-85239686D01*
G37*
G36*
X80969000Y-86337000D02*
G01*
X80067000Y-86337000D01*
X80067000Y-85335000D01*
X80969000Y-85335000D01*
X80969000Y-86337000D01*
G37*
G36*
X111252307Y-85050498D02*
G01*
X111290318Y-85062029D01*
X111325342Y-85080749D01*
X111356049Y-85105951D01*
X111381251Y-85136658D01*
X111399971Y-85171682D01*
X111411502Y-85209693D01*
X111416000Y-85255363D01*
X111416000Y-86063637D01*
X111411502Y-86109307D01*
X111399971Y-86147318D01*
X111381251Y-86182342D01*
X111356049Y-86213049D01*
X111325342Y-86238251D01*
X111290318Y-86256971D01*
X111252307Y-86268502D01*
X111206637Y-86273000D01*
X109773363Y-86273000D01*
X109727693Y-86268502D01*
X109689682Y-86256971D01*
X109654658Y-86238251D01*
X109623951Y-86213049D01*
X109598749Y-86182342D01*
X109580029Y-86147318D01*
X109568498Y-86109307D01*
X109564000Y-86063637D01*
X109564000Y-85255363D01*
X109568498Y-85209693D01*
X109580029Y-85171682D01*
X109598749Y-85136658D01*
X109623951Y-85105951D01*
X109654658Y-85080749D01*
X109689682Y-85062029D01*
X109727693Y-85050498D01*
X109773363Y-85046000D01*
X111206637Y-85046000D01*
X111252307Y-85050498D01*
G37*
G36*
X108712307Y-85050498D02*
G01*
X108750318Y-85062029D01*
X108785342Y-85080749D01*
X108816049Y-85105951D01*
X108841251Y-85136658D01*
X108859971Y-85171682D01*
X108871502Y-85209693D01*
X108876000Y-85255363D01*
X108876000Y-86063637D01*
X108871502Y-86109307D01*
X108859971Y-86147318D01*
X108841251Y-86182342D01*
X108816049Y-86213049D01*
X108785342Y-86238251D01*
X108750318Y-86256971D01*
X108712307Y-86268502D01*
X108666637Y-86273000D01*
X107233363Y-86273000D01*
X107187693Y-86268502D01*
X107149682Y-86256971D01*
X107114658Y-86238251D01*
X107083951Y-86213049D01*
X107058749Y-86182342D01*
X107040029Y-86147318D01*
X107028498Y-86109307D01*
X107024000Y-86063637D01*
X107024000Y-85255363D01*
X107028498Y-85209693D01*
X107040029Y-85171682D01*
X107058749Y-85136658D01*
X107083951Y-85105951D01*
X107114658Y-85080749D01*
X107149682Y-85062029D01*
X107187693Y-85050498D01*
X107233363Y-85046000D01*
X108666637Y-85046000D01*
X108712307Y-85050498D01*
G37*
G36*
X78074434Y-83339686D02*
G01*
X78114284Y-83351774D01*
X78150999Y-83371399D01*
X78183186Y-83397814D01*
X78209601Y-83430001D01*
X78229226Y-83466716D01*
X78241314Y-83506566D01*
X78246000Y-83554141D01*
X78246000Y-84217859D01*
X78241314Y-84265434D01*
X78229226Y-84305284D01*
X78209601Y-84341999D01*
X78183186Y-84374186D01*
X78150999Y-84400601D01*
X78114284Y-84420226D01*
X78074434Y-84432314D01*
X78026859Y-84437000D01*
X76913141Y-84437000D01*
X76865566Y-84432314D01*
X76825716Y-84420226D01*
X76789001Y-84400601D01*
X76756814Y-84374186D01*
X76730399Y-84341999D01*
X76710774Y-84305284D01*
X76698686Y-84265434D01*
X76694000Y-84217859D01*
X76694000Y-83554141D01*
X76698686Y-83506566D01*
X76710774Y-83466716D01*
X76730399Y-83430001D01*
X76756814Y-83397814D01*
X76789001Y-83371399D01*
X76825716Y-83351774D01*
X76865566Y-83339686D01*
X76913141Y-83335000D01*
X78026859Y-83335000D01*
X78074434Y-83339686D01*
G37*
G36*
X84170434Y-83339686D02*
G01*
X84210284Y-83351774D01*
X84246999Y-83371399D01*
X84279186Y-83397814D01*
X84305601Y-83430001D01*
X84325226Y-83466716D01*
X84337314Y-83506566D01*
X84342000Y-83554141D01*
X84342000Y-84217859D01*
X84337314Y-84265434D01*
X84325226Y-84305284D01*
X84305601Y-84341999D01*
X84279186Y-84374186D01*
X84246999Y-84400601D01*
X84210284Y-84420226D01*
X84170434Y-84432314D01*
X84122859Y-84437000D01*
X83009141Y-84437000D01*
X82961566Y-84432314D01*
X82921716Y-84420226D01*
X82885001Y-84400601D01*
X82852814Y-84374186D01*
X82826399Y-84341999D01*
X82806774Y-84305284D01*
X82794686Y-84265434D01*
X82790000Y-84217859D01*
X82790000Y-83554141D01*
X82794686Y-83506566D01*
X82806774Y-83466716D01*
X82826399Y-83430001D01*
X82852814Y-83397814D01*
X82885001Y-83371399D01*
X82921716Y-83351774D01*
X82961566Y-83339686D01*
X83009141Y-83335000D01*
X84122859Y-83335000D01*
X84170434Y-83339686D01*
G37*
G36*
X81919000Y-84337000D02*
G01*
X81017000Y-84337000D01*
X81017000Y-83335000D01*
X81919000Y-83335000D01*
X81919000Y-84337000D01*
G37*
G36*
X80019000Y-84337000D02*
G01*
X79117000Y-84337000D01*
X79117000Y-83335000D01*
X80019000Y-83335000D01*
X80019000Y-84337000D01*
G37*
G36*
X82758721Y-79737174D02*
G01*
X82858995Y-79778709D01*
X82858996Y-79778710D01*
X82949242Y-79839010D01*
X83025990Y-79915758D01*
X83025991Y-79915760D01*
X83086291Y-80006005D01*
X83127826Y-80106279D01*
X83149000Y-80212730D01*
X83149000Y-80321270D01*
X83127826Y-80427721D01*
X83086291Y-80527995D01*
X83086290Y-80527996D01*
X83025990Y-80618242D01*
X82949242Y-80694990D01*
X82903812Y-80725345D01*
X82858995Y-80755291D01*
X82758721Y-80796826D01*
X82652270Y-80818000D01*
X82543730Y-80818000D01*
X82437279Y-80796826D01*
X82337005Y-80755291D01*
X82292188Y-80725345D01*
X82246758Y-80694990D01*
X82170010Y-80618242D01*
X82109710Y-80527996D01*
X82109709Y-80527995D01*
X82068174Y-80427721D01*
X82047000Y-80321270D01*
X82047000Y-80212730D01*
X82068174Y-80106279D01*
X82109709Y-80006005D01*
X82170009Y-79915760D01*
X82170010Y-79915758D01*
X82246758Y-79839010D01*
X82337004Y-79778710D01*
X82337005Y-79778709D01*
X82437279Y-79737174D01*
X82543730Y-79716000D01*
X82652270Y-79716000D01*
X82758721Y-79737174D01*
G37*
G36*
X91758721Y-79737174D02*
G01*
X91858995Y-79778709D01*
X91858996Y-79778710D01*
X91949242Y-79839010D01*
X92025990Y-79915758D01*
X92025991Y-79915760D01*
X92086291Y-80006005D01*
X92127826Y-80106279D01*
X92149000Y-80212730D01*
X92149000Y-80321270D01*
X92127826Y-80427721D01*
X92086291Y-80527995D01*
X92086290Y-80527996D01*
X92025990Y-80618242D01*
X91949242Y-80694990D01*
X91903812Y-80725345D01*
X91858995Y-80755291D01*
X91758721Y-80796826D01*
X91652270Y-80818000D01*
X91543730Y-80818000D01*
X91437279Y-80796826D01*
X91337005Y-80755291D01*
X91292188Y-80725345D01*
X91246758Y-80694990D01*
X91170010Y-80618242D01*
X91109710Y-80527996D01*
X91109709Y-80527995D01*
X91068174Y-80427721D01*
X91047000Y-80321270D01*
X91047000Y-80212730D01*
X91068174Y-80106279D01*
X91109709Y-80006005D01*
X91170009Y-79915760D01*
X91170010Y-79915758D01*
X91246758Y-79839010D01*
X91337004Y-79778710D01*
X91337005Y-79778709D01*
X91437279Y-79737174D01*
X91543730Y-79716000D01*
X91652270Y-79716000D01*
X91758721Y-79737174D01*
G37*
G36*
X93680721Y-79737174D02*
G01*
X93780995Y-79778709D01*
X93780996Y-79778710D01*
X93871242Y-79839010D01*
X93947990Y-79915758D01*
X93947991Y-79915760D01*
X94008291Y-80006005D01*
X94049826Y-80106279D01*
X94071000Y-80212730D01*
X94071000Y-80321270D01*
X94049826Y-80427721D01*
X94008291Y-80527995D01*
X94008290Y-80527996D01*
X93947990Y-80618242D01*
X93871242Y-80694990D01*
X93825812Y-80725345D01*
X93780995Y-80755291D01*
X93680721Y-80796826D01*
X93574270Y-80818000D01*
X93465730Y-80818000D01*
X93359279Y-80796826D01*
X93259005Y-80755291D01*
X93214188Y-80725345D01*
X93168758Y-80694990D01*
X93092010Y-80618242D01*
X93031710Y-80527996D01*
X93031709Y-80527995D01*
X92990174Y-80427721D01*
X92969000Y-80321270D01*
X92969000Y-80212730D01*
X92990174Y-80106279D01*
X93031709Y-80006005D01*
X93092009Y-79915760D01*
X93092010Y-79915758D01*
X93168758Y-79839010D01*
X93259004Y-79778710D01*
X93259005Y-79778709D01*
X93359279Y-79737174D01*
X93465730Y-79716000D01*
X93574270Y-79716000D01*
X93680721Y-79737174D01*
G37*
G36*
X105680721Y-79737174D02*
G01*
X105780995Y-79778709D01*
X105780996Y-79778710D01*
X105871242Y-79839010D01*
X105947990Y-79915758D01*
X105947991Y-79915760D01*
X106008291Y-80006005D01*
X106049826Y-80106279D01*
X106071000Y-80212730D01*
X106071000Y-80321270D01*
X106049826Y-80427721D01*
X106008291Y-80527995D01*
X106008290Y-80527996D01*
X105947990Y-80618242D01*
X105871242Y-80694990D01*
X105825812Y-80725345D01*
X105780995Y-80755291D01*
X105680721Y-80796826D01*
X105574270Y-80818000D01*
X105465730Y-80818000D01*
X105359279Y-80796826D01*
X105259005Y-80755291D01*
X105214188Y-80725345D01*
X105168758Y-80694990D01*
X105092010Y-80618242D01*
X105031710Y-80527996D01*
X105031709Y-80527995D01*
X104990174Y-80427721D01*
X104969000Y-80321270D01*
X104969000Y-80212730D01*
X104990174Y-80106279D01*
X105031709Y-80006005D01*
X105092009Y-79915760D01*
X105092010Y-79915758D01*
X105168758Y-79839010D01*
X105259004Y-79778710D01*
X105259005Y-79778709D01*
X105359279Y-79737174D01*
X105465730Y-79716000D01*
X105574270Y-79716000D01*
X105680721Y-79737174D01*
G37*
G36*
X96753642Y-78556781D02*
G01*
X96899414Y-78617162D01*
X96899416Y-78617163D01*
X97030608Y-78704822D01*
X97142178Y-78816392D01*
X97229837Y-78947584D01*
X97229838Y-78947586D01*
X97290219Y-79093358D01*
X97321000Y-79248107D01*
X97321000Y-79405893D01*
X97290219Y-79560642D01*
X97229838Y-79706414D01*
X97229837Y-79706416D01*
X97142178Y-79837608D01*
X97030608Y-79949178D01*
X96899416Y-80036837D01*
X96899415Y-80036838D01*
X96899414Y-80036838D01*
X96753642Y-80097219D01*
X96598893Y-80128000D01*
X96441107Y-80128000D01*
X96286358Y-80097219D01*
X96140586Y-80036838D01*
X96140585Y-80036838D01*
X96140584Y-80036837D01*
X96009392Y-79949178D01*
X95897822Y-79837608D01*
X95810163Y-79706416D01*
X95810162Y-79706414D01*
X95749781Y-79560642D01*
X95719000Y-79405893D01*
X95719000Y-79248107D01*
X95749781Y-79093358D01*
X95810162Y-78947586D01*
X95810163Y-78947584D01*
X95897822Y-78816392D01*
X96009392Y-78704822D01*
X96140584Y-78617163D01*
X96140586Y-78617162D01*
X96286358Y-78556781D01*
X96441107Y-78526000D01*
X96598893Y-78526000D01*
X96753642Y-78556781D01*
G37*
G36*
X102753642Y-78556781D02*
G01*
X102899414Y-78617162D01*
X102899416Y-78617163D01*
X103030608Y-78704822D01*
X103142178Y-78816392D01*
X103229837Y-78947584D01*
X103229838Y-78947586D01*
X103290219Y-79093358D01*
X103321000Y-79248107D01*
X103321000Y-79405893D01*
X103290219Y-79560642D01*
X103229838Y-79706414D01*
X103229837Y-79706416D01*
X103142178Y-79837608D01*
X103030608Y-79949178D01*
X102899416Y-80036837D01*
X102899415Y-80036838D01*
X102899414Y-80036838D01*
X102753642Y-80097219D01*
X102598893Y-80128000D01*
X102441107Y-80128000D01*
X102286358Y-80097219D01*
X102140586Y-80036838D01*
X102140585Y-80036838D01*
X102140584Y-80036837D01*
X102009392Y-79949178D01*
X101897822Y-79837608D01*
X101810163Y-79706416D01*
X101810162Y-79706414D01*
X101749781Y-79560642D01*
X101719000Y-79405893D01*
X101719000Y-79248107D01*
X101749781Y-79093358D01*
X101810162Y-78947586D01*
X101810163Y-78947584D01*
X101897822Y-78816392D01*
X102009392Y-78704822D01*
X102140584Y-78617163D01*
X102140586Y-78617162D01*
X102286358Y-78556781D01*
X102441107Y-78526000D01*
X102598893Y-78526000D01*
X102753642Y-78556781D01*
G37*
G36*
X85831642Y-78556781D02*
G01*
X85977414Y-78617162D01*
X85977416Y-78617163D01*
X86108608Y-78704822D01*
X86220178Y-78816392D01*
X86307837Y-78947584D01*
X86307838Y-78947586D01*
X86368219Y-79093358D01*
X86399000Y-79248107D01*
X86399000Y-79405893D01*
X86368219Y-79560642D01*
X86307838Y-79706414D01*
X86307837Y-79706416D01*
X86220178Y-79837608D01*
X86108608Y-79949178D01*
X85977416Y-80036837D01*
X85977415Y-80036838D01*
X85977414Y-80036838D01*
X85831642Y-80097219D01*
X85676893Y-80128000D01*
X85519107Y-80128000D01*
X85364358Y-80097219D01*
X85218586Y-80036838D01*
X85218585Y-80036838D01*
X85218584Y-80036837D01*
X85087392Y-79949178D01*
X84975822Y-79837608D01*
X84888163Y-79706416D01*
X84888162Y-79706414D01*
X84827781Y-79560642D01*
X84797000Y-79405893D01*
X84797000Y-79248107D01*
X84827781Y-79093358D01*
X84888162Y-78947586D01*
X84888163Y-78947584D01*
X84975822Y-78816392D01*
X85087392Y-78704822D01*
X85218584Y-78617163D01*
X85218586Y-78617162D01*
X85364358Y-78556781D01*
X85519107Y-78526000D01*
X85676893Y-78526000D01*
X85831642Y-78556781D01*
G37*
G36*
X88831642Y-78556781D02*
G01*
X88977414Y-78617162D01*
X88977416Y-78617163D01*
X89108608Y-78704822D01*
X89220178Y-78816392D01*
X89307837Y-78947584D01*
X89307838Y-78947586D01*
X89368219Y-79093358D01*
X89399000Y-79248107D01*
X89399000Y-79405893D01*
X89368219Y-79560642D01*
X89307838Y-79706414D01*
X89307837Y-79706416D01*
X89220178Y-79837608D01*
X89108608Y-79949178D01*
X88977416Y-80036837D01*
X88977415Y-80036838D01*
X88977414Y-80036838D01*
X88831642Y-80097219D01*
X88676893Y-80128000D01*
X88519107Y-80128000D01*
X88364358Y-80097219D01*
X88218586Y-80036838D01*
X88218585Y-80036838D01*
X88218584Y-80036837D01*
X88087392Y-79949178D01*
X87975822Y-79837608D01*
X87888163Y-79706416D01*
X87888162Y-79706414D01*
X87827781Y-79560642D01*
X87797000Y-79405893D01*
X87797000Y-79248107D01*
X87827781Y-79093358D01*
X87888162Y-78947586D01*
X87888163Y-78947584D01*
X87975822Y-78816392D01*
X88087392Y-78704822D01*
X88218584Y-78617163D01*
X88218586Y-78617162D01*
X88364358Y-78556781D01*
X88519107Y-78526000D01*
X88676893Y-78526000D01*
X88831642Y-78556781D01*
G37*
G36*
X99753642Y-78556781D02*
G01*
X99899414Y-78617162D01*
X99899416Y-78617163D01*
X100030608Y-78704822D01*
X100142178Y-78816392D01*
X100229837Y-78947584D01*
X100229838Y-78947586D01*
X100290219Y-79093358D01*
X100321000Y-79248107D01*
X100321000Y-79405893D01*
X100290219Y-79560642D01*
X100229838Y-79706414D01*
X100229837Y-79706416D01*
X100142178Y-79837608D01*
X100030608Y-79949178D01*
X99899416Y-80036837D01*
X99899415Y-80036838D01*
X99899414Y-80036838D01*
X99753642Y-80097219D01*
X99598893Y-80128000D01*
X99441107Y-80128000D01*
X99286358Y-80097219D01*
X99140586Y-80036838D01*
X99140585Y-80036838D01*
X99140584Y-80036837D01*
X99009392Y-79949178D01*
X98897822Y-79837608D01*
X98810163Y-79706416D01*
X98810162Y-79706414D01*
X98749781Y-79560642D01*
X98719000Y-79405893D01*
X98719000Y-79248107D01*
X98749781Y-79093358D01*
X98810162Y-78947586D01*
X98810163Y-78947584D01*
X98897822Y-78816392D01*
X99009392Y-78704822D01*
X99140584Y-78617163D01*
X99140586Y-78617162D01*
X99286358Y-78556781D01*
X99441107Y-78526000D01*
X99598893Y-78526000D01*
X99753642Y-78556781D01*
G37*
G36*
X109750256Y-75226298D02*
G01*
X109856579Y-75247447D01*
X110157042Y-75371903D01*
X110427451Y-75552585D01*
X110657415Y-75782549D01*
X110657416Y-75782551D01*
X110838098Y-76052960D01*
X110962553Y-76353422D01*
X111026000Y-76672389D01*
X111026000Y-76997611D01*
X111002956Y-77113461D01*
X110962553Y-77316579D01*
X110838097Y-77617042D01*
X110657415Y-77887451D01*
X110427451Y-78117415D01*
X110157042Y-78298097D01*
X109856579Y-78422553D01*
X109750256Y-78443702D01*
X109537611Y-78486000D01*
X109212389Y-78486000D01*
X108999744Y-78443702D01*
X108893421Y-78422553D01*
X108592958Y-78298097D01*
X108322549Y-78117415D01*
X108092585Y-77887451D01*
X107911903Y-77617042D01*
X107787447Y-77316579D01*
X107747044Y-77113461D01*
X107724000Y-76997611D01*
X107724000Y-76672389D01*
X107787447Y-76353422D01*
X107911902Y-76052960D01*
X108092584Y-75782551D01*
X108092585Y-75782549D01*
X108322549Y-75552585D01*
X108592958Y-75371903D01*
X108893421Y-75247447D01*
X108999744Y-75226298D01*
X109212389Y-75184000D01*
X109537611Y-75184000D01*
X109750256Y-75226298D01*
G37*
G36*
X79750256Y-75226298D02*
G01*
X79856579Y-75247447D01*
X80157042Y-75371903D01*
X80427451Y-75552585D01*
X80657415Y-75782549D01*
X80657416Y-75782551D01*
X80838098Y-76052960D01*
X80962553Y-76353422D01*
X81026000Y-76672389D01*
X81026000Y-76997611D01*
X81002956Y-77113461D01*
X80962553Y-77316579D01*
X80838097Y-77617042D01*
X80657415Y-77887451D01*
X80427451Y-78117415D01*
X80157042Y-78298097D01*
X79856579Y-78422553D01*
X79750256Y-78443702D01*
X79537611Y-78486000D01*
X79212389Y-78486000D01*
X78999744Y-78443702D01*
X78893421Y-78422553D01*
X78592958Y-78298097D01*
X78322549Y-78117415D01*
X78092585Y-77887451D01*
X77911903Y-77617042D01*
X77787447Y-77316579D01*
X77747044Y-77113461D01*
X77724000Y-76997611D01*
X77724000Y-76672389D01*
X77787447Y-76353422D01*
X77911902Y-76052960D01*
X78092584Y-75782551D01*
X78092585Y-75782549D01*
X78322549Y-75552585D01*
X78592958Y-75371903D01*
X78893421Y-75247447D01*
X78999744Y-75226298D01*
X79212389Y-75184000D01*
X79537611Y-75184000D01*
X79750256Y-75226298D01*
G37*
G36*
X99753642Y-75556781D02*
G01*
X99877208Y-75607964D01*
X99899416Y-75617163D01*
X100030608Y-75704822D01*
X100142178Y-75816392D01*
X100229837Y-75947584D01*
X100229838Y-75947586D01*
X100290219Y-76093358D01*
X100321000Y-76248107D01*
X100321000Y-76405893D01*
X100290219Y-76560642D01*
X100243931Y-76672391D01*
X100229837Y-76706416D01*
X100142178Y-76837608D01*
X100030608Y-76949178D01*
X99899416Y-77036837D01*
X99899415Y-77036838D01*
X99899414Y-77036838D01*
X99753642Y-77097219D01*
X99598893Y-77128000D01*
X99441107Y-77128000D01*
X99286358Y-77097219D01*
X99140586Y-77036838D01*
X99140585Y-77036838D01*
X99140584Y-77036837D01*
X99009392Y-76949178D01*
X98897822Y-76837608D01*
X98810163Y-76706416D01*
X98796069Y-76672391D01*
X98749781Y-76560642D01*
X98719000Y-76405893D01*
X98719000Y-76248107D01*
X98749781Y-76093358D01*
X98810162Y-75947586D01*
X98810163Y-75947584D01*
X98897822Y-75816392D01*
X99009392Y-75704822D01*
X99140584Y-75617163D01*
X99162792Y-75607964D01*
X99286358Y-75556781D01*
X99441107Y-75526000D01*
X99598893Y-75526000D01*
X99753642Y-75556781D01*
G37*
G36*
X102753642Y-75556781D02*
G01*
X102877208Y-75607964D01*
X102899416Y-75617163D01*
X103030608Y-75704822D01*
X103142178Y-75816392D01*
X103229837Y-75947584D01*
X103229838Y-75947586D01*
X103290219Y-76093358D01*
X103321000Y-76248107D01*
X103321000Y-76405893D01*
X103290219Y-76560642D01*
X103243931Y-76672391D01*
X103229837Y-76706416D01*
X103142178Y-76837608D01*
X103030608Y-76949178D01*
X102899416Y-77036837D01*
X102899415Y-77036838D01*
X102899414Y-77036838D01*
X102753642Y-77097219D01*
X102598893Y-77128000D01*
X102441107Y-77128000D01*
X102286358Y-77097219D01*
X102140586Y-77036838D01*
X102140585Y-77036838D01*
X102140584Y-77036837D01*
X102009392Y-76949178D01*
X101897822Y-76837608D01*
X101810163Y-76706416D01*
X101796069Y-76672391D01*
X101749781Y-76560642D01*
X101719000Y-76405893D01*
X101719000Y-76248107D01*
X101749781Y-76093358D01*
X101810162Y-75947586D01*
X101810163Y-75947584D01*
X101897822Y-75816392D01*
X102009392Y-75704822D01*
X102140584Y-75617163D01*
X102162792Y-75607964D01*
X102286358Y-75556781D01*
X102441107Y-75526000D01*
X102598893Y-75526000D01*
X102753642Y-75556781D01*
G37*
G36*
X97173048Y-75530122D02*
G01*
X97207387Y-75540539D01*
X97239036Y-75557456D01*
X97266778Y-75580222D01*
X97289544Y-75607964D01*
X97306461Y-75639613D01*
X97316878Y-75673952D01*
X97321000Y-75715807D01*
X97321000Y-76938193D01*
X97316878Y-76980048D01*
X97306461Y-77014387D01*
X97289544Y-77046036D01*
X97266778Y-77073778D01*
X97239036Y-77096544D01*
X97207387Y-77113461D01*
X97173048Y-77123878D01*
X97131193Y-77128000D01*
X95908807Y-77128000D01*
X95866952Y-77123878D01*
X95832613Y-77113461D01*
X95800964Y-77096544D01*
X95773222Y-77073778D01*
X95750456Y-77046036D01*
X95733539Y-77014387D01*
X95723122Y-76980048D01*
X95719000Y-76938193D01*
X95719000Y-75715807D01*
X95723122Y-75673952D01*
X95733539Y-75639613D01*
X95750456Y-75607964D01*
X95773222Y-75580222D01*
X95800964Y-75557456D01*
X95832613Y-75540539D01*
X95866952Y-75530122D01*
X95908807Y-75526000D01*
X97131193Y-75526000D01*
X97173048Y-75530122D01*
G37*
G36*
X86251048Y-75530122D02*
G01*
X86285387Y-75540539D01*
X86317036Y-75557456D01*
X86344778Y-75580222D01*
X86367544Y-75607964D01*
X86384461Y-75639613D01*
X86394878Y-75673952D01*
X86399000Y-75715807D01*
X86399000Y-76938193D01*
X86394878Y-76980048D01*
X86384461Y-77014387D01*
X86367544Y-77046036D01*
X86344778Y-77073778D01*
X86317036Y-77096544D01*
X86285387Y-77113461D01*
X86251048Y-77123878D01*
X86209193Y-77128000D01*
X84986807Y-77128000D01*
X84944952Y-77123878D01*
X84910613Y-77113461D01*
X84878964Y-77096544D01*
X84851222Y-77073778D01*
X84828456Y-77046036D01*
X84811539Y-77014387D01*
X84801122Y-76980048D01*
X84797000Y-76938193D01*
X84797000Y-75715807D01*
X84801122Y-75673952D01*
X84811539Y-75639613D01*
X84828456Y-75607964D01*
X84851222Y-75580222D01*
X84878964Y-75557456D01*
X84910613Y-75540539D01*
X84944952Y-75530122D01*
X84986807Y-75526000D01*
X86209193Y-75526000D01*
X86251048Y-75530122D01*
G37*
G36*
X88831642Y-75556781D02*
G01*
X88955208Y-75607964D01*
X88977416Y-75617163D01*
X89108608Y-75704822D01*
X89220178Y-75816392D01*
X89307837Y-75947584D01*
X89307838Y-75947586D01*
X89368219Y-76093358D01*
X89399000Y-76248107D01*
X89399000Y-76405893D01*
X89368219Y-76560642D01*
X89321931Y-76672391D01*
X89307837Y-76706416D01*
X89220178Y-76837608D01*
X89108608Y-76949178D01*
X88977416Y-77036837D01*
X88977415Y-77036838D01*
X88977414Y-77036838D01*
X88831642Y-77097219D01*
X88676893Y-77128000D01*
X88519107Y-77128000D01*
X88364358Y-77097219D01*
X88218586Y-77036838D01*
X88218585Y-77036838D01*
X88218584Y-77036837D01*
X88087392Y-76949178D01*
X87975822Y-76837608D01*
X87888163Y-76706416D01*
X87874069Y-76672391D01*
X87827781Y-76560642D01*
X87797000Y-76405893D01*
X87797000Y-76248107D01*
X87827781Y-76093358D01*
X87888162Y-75947586D01*
X87888163Y-75947584D01*
X87975822Y-75816392D01*
X88087392Y-75704822D01*
X88218584Y-75617163D01*
X88240792Y-75607964D01*
X88364358Y-75556781D01*
X88519107Y-75526000D01*
X88676893Y-75526000D01*
X88831642Y-75556781D01*
G37*
M02*
