G04 #@! TF.GenerationSoftware,KiCad,Pcbnew,(5.1.6)-1*
G04 #@! TF.CreationDate,2021-06-24T15:17:58+10:00*
G04 #@! TF.ProjectId,BSPD,42535044-2e6b-4696-9361-645f70636258,rev?*
G04 #@! TF.SameCoordinates,Original*
G04 #@! TF.FileFunction,Copper,L2,Bot*
G04 #@! TF.FilePolarity,Positive*
%FSLAX46Y46*%
G04 Gerber Fmt 4.6, Leading zero omitted, Abs format (unit mm)*
G04 Created by KiCad (PCBNEW (5.1.6)-1) date 2021-06-24 15:17:58*
%MOMM*%
%LPD*%
G01*
G04 APERTURE LIST*
G04 #@! TA.AperFunction,ComponentPad*
%ADD10C,2.000000*%
G04 #@! TD*
G04 #@! TA.AperFunction,ComponentPad*
%ADD11C,1.440000*%
G04 #@! TD*
G04 #@! TA.AperFunction,ComponentPad*
%ADD12C,1.500000*%
G04 #@! TD*
G04 #@! TA.AperFunction,ViaPad*
%ADD13C,0.800000*%
G04 #@! TD*
G04 #@! TA.AperFunction,Conductor*
%ADD14C,0.250000*%
G04 #@! TD*
G04 #@! TA.AperFunction,Conductor*
%ADD15C,0.254000*%
G04 #@! TD*
G04 APERTURE END LIST*
D10*
X103124000Y-92202000D03*
X103124000Y-86106000D03*
X87630000Y-92202000D03*
X87630000Y-86360000D03*
D11*
X92710000Y-91948000D03*
X95250000Y-94488000D03*
X97790000Y-91948000D03*
X92710000Y-85852000D03*
X95250000Y-88392000D03*
X97790000Y-85852000D03*
G04 #@! TA.AperFunction,SMDPad,CuDef*
G36*
G01*
X89927000Y-108829001D02*
X89927000Y-107578999D01*
G75*
G02*
X90176999Y-107329000I249999J0D01*
G01*
X90802001Y-107329000D01*
G75*
G02*
X91052000Y-107578999I0J-249999D01*
G01*
X91052000Y-108829001D01*
G75*
G02*
X90802001Y-109079000I-249999J0D01*
G01*
X90176999Y-109079000D01*
G75*
G02*
X89927000Y-108829001I0J249999D01*
G01*
G37*
G04 #@! TD.AperFunction*
G04 #@! TA.AperFunction,SMDPad,CuDef*
G36*
G01*
X87002000Y-108829001D02*
X87002000Y-107578999D01*
G75*
G02*
X87251999Y-107329000I249999J0D01*
G01*
X87877001Y-107329000D01*
G75*
G02*
X88127000Y-107578999I0J-249999D01*
G01*
X88127000Y-108829001D01*
G75*
G02*
X87877001Y-109079000I-249999J0D01*
G01*
X87251999Y-109079000D01*
G75*
G02*
X87002000Y-108829001I0J249999D01*
G01*
G37*
G04 #@! TD.AperFunction*
G04 #@! TA.AperFunction,SMDPad,CuDef*
G36*
G01*
X89927000Y-105781001D02*
X89927000Y-104530999D01*
G75*
G02*
X90176999Y-104281000I249999J0D01*
G01*
X90802001Y-104281000D01*
G75*
G02*
X91052000Y-104530999I0J-249999D01*
G01*
X91052000Y-105781001D01*
G75*
G02*
X90802001Y-106031000I-249999J0D01*
G01*
X90176999Y-106031000D01*
G75*
G02*
X89927000Y-105781001I0J249999D01*
G01*
G37*
G04 #@! TD.AperFunction*
G04 #@! TA.AperFunction,SMDPad,CuDef*
G36*
G01*
X87002000Y-105781001D02*
X87002000Y-104530999D01*
G75*
G02*
X87251999Y-104281000I249999J0D01*
G01*
X87877001Y-104281000D01*
G75*
G02*
X88127000Y-104530999I0J-249999D01*
G01*
X88127000Y-105781001D01*
G75*
G02*
X87877001Y-106031000I-249999J0D01*
G01*
X87251999Y-106031000D01*
G75*
G02*
X87002000Y-105781001I0J249999D01*
G01*
G37*
G04 #@! TD.AperFunction*
G04 #@! TA.AperFunction,SMDPad,CuDef*
G36*
G01*
X92848000Y-95113001D02*
X92848000Y-93862999D01*
G75*
G02*
X93097999Y-93613000I249999J0D01*
G01*
X93723001Y-93613000D01*
G75*
G02*
X93973000Y-93862999I0J-249999D01*
G01*
X93973000Y-95113001D01*
G75*
G02*
X93723001Y-95363000I-249999J0D01*
G01*
X93097999Y-95363000D01*
G75*
G02*
X92848000Y-95113001I0J249999D01*
G01*
G37*
G04 #@! TD.AperFunction*
G04 #@! TA.AperFunction,SMDPad,CuDef*
G36*
G01*
X89923000Y-95113001D02*
X89923000Y-93862999D01*
G75*
G02*
X90172999Y-93613000I249999J0D01*
G01*
X90798001Y-93613000D01*
G75*
G02*
X91048000Y-93862999I0J-249999D01*
G01*
X91048000Y-95113001D01*
G75*
G02*
X90798001Y-95363000I-249999J0D01*
G01*
X90172999Y-95363000D01*
G75*
G02*
X89923000Y-95113001I0J249999D01*
G01*
G37*
G04 #@! TD.AperFunction*
G04 #@! TA.AperFunction,SMDPad,CuDef*
G36*
G01*
X92655500Y-89017001D02*
X92655500Y-87766999D01*
G75*
G02*
X92905499Y-87517000I249999J0D01*
G01*
X93530501Y-87517000D01*
G75*
G02*
X93780500Y-87766999I0J-249999D01*
G01*
X93780500Y-89017001D01*
G75*
G02*
X93530501Y-89267000I-249999J0D01*
G01*
X92905499Y-89267000D01*
G75*
G02*
X92655500Y-89017001I0J249999D01*
G01*
G37*
G04 #@! TD.AperFunction*
G04 #@! TA.AperFunction,SMDPad,CuDef*
G36*
G01*
X89730500Y-89017001D02*
X89730500Y-87766999D01*
G75*
G02*
X89980499Y-87517000I249999J0D01*
G01*
X90605501Y-87517000D01*
G75*
G02*
X90855500Y-87766999I0J-249999D01*
G01*
X90855500Y-89017001D01*
G75*
G02*
X90605501Y-89267000I-249999J0D01*
G01*
X89980499Y-89267000D01*
G75*
G02*
X89730500Y-89017001I0J249999D01*
G01*
G37*
G04 #@! TD.AperFunction*
D12*
X102520000Y-79327000D03*
X99520000Y-79327000D03*
X96520000Y-79327000D03*
X102520000Y-76327000D03*
X99520000Y-76327000D03*
G04 #@! TA.AperFunction,ComponentPad*
G36*
G01*
X95770000Y-76827000D02*
X95770000Y-75827000D01*
G75*
G02*
X96020000Y-75577000I250000J0D01*
G01*
X97020000Y-75577000D01*
G75*
G02*
X97270000Y-75827000I0J-250000D01*
G01*
X97270000Y-76827000D01*
G75*
G02*
X97020000Y-77077000I-250000J0D01*
G01*
X96020000Y-77077000D01*
G75*
G02*
X95770000Y-76827000I0J250000D01*
G01*
G37*
G04 #@! TD.AperFunction*
X88598000Y-79327000D03*
X85598000Y-79327000D03*
X88598000Y-76327000D03*
G04 #@! TA.AperFunction,ComponentPad*
G36*
G01*
X84848000Y-76827000D02*
X84848000Y-75827000D01*
G75*
G02*
X85098000Y-75577000I250000J0D01*
G01*
X86098000Y-75577000D01*
G75*
G02*
X86348000Y-75827000I0J-250000D01*
G01*
X86348000Y-76827000D01*
G75*
G02*
X86098000Y-77077000I-250000J0D01*
G01*
X85098000Y-77077000D01*
G75*
G02*
X84848000Y-76827000I0J250000D01*
G01*
G37*
G04 #@! TD.AperFunction*
G04 #@! TA.AperFunction,SMDPad,CuDef*
G36*
G01*
X79789000Y-100272000D02*
X80739000Y-100272000D01*
G75*
G02*
X80989000Y-100522000I0J-250000D01*
G01*
X80989000Y-101022000D01*
G75*
G02*
X80739000Y-101272000I-250000J0D01*
G01*
X79789000Y-101272000D01*
G75*
G02*
X79539000Y-101022000I0J250000D01*
G01*
X79539000Y-100522000D01*
G75*
G02*
X79789000Y-100272000I250000J0D01*
G01*
G37*
G04 #@! TD.AperFunction*
G04 #@! TA.AperFunction,SMDPad,CuDef*
G36*
G01*
X79789000Y-98372000D02*
X80739000Y-98372000D01*
G75*
G02*
X80989000Y-98622000I0J-250000D01*
G01*
X80989000Y-99122000D01*
G75*
G02*
X80739000Y-99372000I-250000J0D01*
G01*
X79789000Y-99372000D01*
G75*
G02*
X79539000Y-99122000I0J250000D01*
G01*
X79539000Y-98622000D01*
G75*
G02*
X79789000Y-98372000I250000J0D01*
G01*
G37*
G04 #@! TD.AperFunction*
G04 #@! TA.AperFunction,SMDPad,CuDef*
G36*
G01*
X107729000Y-100272000D02*
X108679000Y-100272000D01*
G75*
G02*
X108929000Y-100522000I0J-250000D01*
G01*
X108929000Y-101022000D01*
G75*
G02*
X108679000Y-101272000I-250000J0D01*
G01*
X107729000Y-101272000D01*
G75*
G02*
X107479000Y-101022000I0J250000D01*
G01*
X107479000Y-100522000D01*
G75*
G02*
X107729000Y-100272000I250000J0D01*
G01*
G37*
G04 #@! TD.AperFunction*
G04 #@! TA.AperFunction,SMDPad,CuDef*
G36*
G01*
X107729000Y-98372000D02*
X108679000Y-98372000D01*
G75*
G02*
X108929000Y-98622000I0J-250000D01*
G01*
X108929000Y-99122000D01*
G75*
G02*
X108679000Y-99372000I-250000J0D01*
G01*
X107729000Y-99372000D01*
G75*
G02*
X107479000Y-99122000I0J250000D01*
G01*
X107479000Y-98622000D01*
G75*
G02*
X107729000Y-98372000I250000J0D01*
G01*
G37*
G04 #@! TD.AperFunction*
G04 #@! TA.AperFunction,SMDPad,CuDef*
G36*
G01*
X97569000Y-100272000D02*
X98519000Y-100272000D01*
G75*
G02*
X98769000Y-100522000I0J-250000D01*
G01*
X98769000Y-101022000D01*
G75*
G02*
X98519000Y-101272000I-250000J0D01*
G01*
X97569000Y-101272000D01*
G75*
G02*
X97319000Y-101022000I0J250000D01*
G01*
X97319000Y-100522000D01*
G75*
G02*
X97569000Y-100272000I250000J0D01*
G01*
G37*
G04 #@! TD.AperFunction*
G04 #@! TA.AperFunction,SMDPad,CuDef*
G36*
G01*
X97569000Y-98372000D02*
X98519000Y-98372000D01*
G75*
G02*
X98769000Y-98622000I0J-250000D01*
G01*
X98769000Y-99122000D01*
G75*
G02*
X98519000Y-99372000I-250000J0D01*
G01*
X97569000Y-99372000D01*
G75*
G02*
X97319000Y-99122000I0J250000D01*
G01*
X97319000Y-98622000D01*
G75*
G02*
X97569000Y-98372000I250000J0D01*
G01*
G37*
G04 #@! TD.AperFunction*
G04 #@! TA.AperFunction,SMDPad,CuDef*
G36*
G01*
X89949000Y-100272000D02*
X90899000Y-100272000D01*
G75*
G02*
X91149000Y-100522000I0J-250000D01*
G01*
X91149000Y-101022000D01*
G75*
G02*
X90899000Y-101272000I-250000J0D01*
G01*
X89949000Y-101272000D01*
G75*
G02*
X89699000Y-101022000I0J250000D01*
G01*
X89699000Y-100522000D01*
G75*
G02*
X89949000Y-100272000I250000J0D01*
G01*
G37*
G04 #@! TD.AperFunction*
G04 #@! TA.AperFunction,SMDPad,CuDef*
G36*
G01*
X89949000Y-98372000D02*
X90899000Y-98372000D01*
G75*
G02*
X91149000Y-98622000I0J-250000D01*
G01*
X91149000Y-99122000D01*
G75*
G02*
X90899000Y-99372000I-250000J0D01*
G01*
X89949000Y-99372000D01*
G75*
G02*
X89699000Y-99122000I0J250000D01*
G01*
X89699000Y-98622000D01*
G75*
G02*
X89949000Y-98372000I250000J0D01*
G01*
G37*
G04 #@! TD.AperFunction*
D13*
X97930847Y-100928000D03*
X108204000Y-101572990D03*
X93410500Y-94488000D03*
X80266845Y-100775665D03*
X88123770Y-101373010D03*
X95631000Y-101473000D03*
X110490000Y-93410500D03*
X80195963Y-98803963D03*
X110679000Y-97663000D03*
X83464000Y-95143154D03*
X83668000Y-90424000D03*
X85656847Y-99753847D03*
X90424000Y-98872000D03*
X98044000Y-97663000D03*
X107950000Y-90678000D03*
X100519000Y-101473000D03*
X87564500Y-105156000D03*
X82739000Y-99032990D03*
X87564500Y-108204000D03*
X100584000Y-100203000D03*
X95569000Y-98933000D03*
X105791000Y-100122990D03*
X89154000Y-96520000D03*
X87949000Y-97663000D03*
X92899000Y-99032990D03*
X82677000Y-101373010D03*
X103124000Y-100969000D03*
X92899000Y-101473000D03*
D14*
X108204000Y-101572990D02*
X108204000Y-100772000D01*
X91850001Y-102198001D02*
X90424000Y-100772000D01*
X94905999Y-102198001D02*
X91850001Y-102198001D01*
X95631000Y-101473000D02*
X94905999Y-102198001D01*
X97790000Y-85852000D02*
X97790000Y-91948000D01*
X108204000Y-98872000D02*
X109470000Y-98872000D01*
X109470000Y-98872000D02*
X110679000Y-97663000D01*
X83464000Y-95143154D02*
X83464000Y-90628000D01*
X83464000Y-90628000D02*
X83668000Y-90424000D01*
X83668000Y-86975998D02*
X83668000Y-90424000D01*
X95392008Y-75251990D02*
X83668000Y-86975998D01*
X98444990Y-75251990D02*
X95392008Y-75251990D01*
X99520000Y-76327000D02*
X98444990Y-75251990D01*
X90424000Y-98872000D02*
X86538694Y-98872000D01*
X86538694Y-98872000D02*
X85656847Y-99753847D01*
X98044000Y-97663000D02*
X98044000Y-98872000D01*
X107950000Y-90678000D02*
X107950000Y-94042000D01*
X107950000Y-94042000D02*
X100519000Y-101473000D01*
X88598000Y-79327000D02*
X82739000Y-85186000D01*
X82739000Y-85186000D02*
X82739000Y-99032990D01*
X89916000Y-94488000D02*
X87630000Y-92202000D01*
X90485500Y-94488000D02*
X89916000Y-94488000D01*
X95596592Y-93287990D02*
X91685510Y-93287990D01*
X91685510Y-93287990D02*
X90485500Y-94488000D01*
X100584000Y-98275398D02*
X95596592Y-93287990D01*
X100584000Y-100203000D02*
X100584000Y-98275398D01*
X92423001Y-80142997D02*
X92423001Y-81566999D01*
X92423001Y-81566999D02*
X87630000Y-86360000D01*
X96238998Y-76327000D02*
X92423001Y-80142997D01*
X96520000Y-76327000D02*
X96238998Y-76327000D01*
X89662000Y-88392000D02*
X90293000Y-88392000D01*
X87630000Y-86360000D02*
X89662000Y-88392000D01*
X97931811Y-102198001D02*
X95569000Y-99835190D01*
X103715989Y-102198001D02*
X97931811Y-102198001D01*
X95569000Y-99835190D02*
X95569000Y-98933000D01*
X105791000Y-100122990D02*
X103715989Y-102198001D01*
X86304999Y-93670999D02*
X89154000Y-96520000D01*
X87630000Y-86360000D02*
X86304999Y-87685001D01*
X86304999Y-87685001D02*
X86304999Y-93670999D01*
X87949000Y-97663000D02*
X91529010Y-97663000D01*
X91529010Y-97663000D02*
X92899000Y-99032990D01*
X83952001Y-102648011D02*
X82677000Y-101373010D01*
X106516001Y-99774989D02*
X106516001Y-100470991D01*
X104338981Y-102648011D02*
X83952001Y-102648011D01*
X106139001Y-99397989D02*
X106516001Y-99774989D01*
X104695011Y-99397989D02*
X106139001Y-99397989D01*
X106516001Y-100470991D02*
X104338981Y-102648011D01*
X103124000Y-100969000D02*
X104695011Y-99397989D01*
X95250000Y-94488000D02*
X95250000Y-98207999D01*
X92899000Y-100558999D02*
X95250000Y-98207999D01*
X92899000Y-101473000D02*
X92899000Y-100558999D01*
D15*
G36*
X109958222Y-73748096D02*
G01*
X110546164Y-73925606D01*
X111088436Y-74213937D01*
X111564364Y-74602094D01*
X111955845Y-75075314D01*
X112247951Y-75615552D01*
X112429563Y-76202244D01*
X112497001Y-76843888D01*
X112497000Y-106774721D01*
X112433904Y-107418221D01*
X112256394Y-108006164D01*
X111968063Y-108548436D01*
X111579906Y-109024364D01*
X111106686Y-109415845D01*
X110566449Y-109707950D01*
X109979756Y-109889563D01*
X109338130Y-109957000D01*
X79407279Y-109957000D01*
X78763779Y-109893904D01*
X78175836Y-109716394D01*
X77633564Y-109428063D01*
X77157636Y-109039906D01*
X76766155Y-108566686D01*
X76474050Y-108026449D01*
X76292437Y-107439756D01*
X76225000Y-106798130D01*
X76225000Y-106614872D01*
X77140000Y-106614872D01*
X77140000Y-107055128D01*
X77225890Y-107486925D01*
X77394369Y-107893669D01*
X77638962Y-108259729D01*
X77950271Y-108571038D01*
X78316331Y-108815631D01*
X78723075Y-108984110D01*
X79154872Y-109070000D01*
X79595128Y-109070000D01*
X80026925Y-108984110D01*
X80433669Y-108815631D01*
X80799729Y-108571038D01*
X81111038Y-108259729D01*
X81355631Y-107893669D01*
X81485971Y-107578999D01*
X86363928Y-107578999D01*
X86363928Y-108829001D01*
X86380992Y-109002255D01*
X86431528Y-109168851D01*
X86513595Y-109322387D01*
X86624038Y-109456962D01*
X86758613Y-109567405D01*
X86912149Y-109649472D01*
X87078745Y-109700008D01*
X87251999Y-109717072D01*
X87877001Y-109717072D01*
X88050255Y-109700008D01*
X88216851Y-109649472D01*
X88370387Y-109567405D01*
X88504962Y-109456962D01*
X88615405Y-109322387D01*
X88697472Y-109168851D01*
X88724727Y-109079000D01*
X89288928Y-109079000D01*
X89301188Y-109203482D01*
X89337498Y-109323180D01*
X89396463Y-109433494D01*
X89475815Y-109530185D01*
X89572506Y-109609537D01*
X89682820Y-109668502D01*
X89802518Y-109704812D01*
X89927000Y-109717072D01*
X90203750Y-109714000D01*
X90362500Y-109555250D01*
X90362500Y-108331000D01*
X90616500Y-108331000D01*
X90616500Y-109555250D01*
X90775250Y-109714000D01*
X91052000Y-109717072D01*
X91176482Y-109704812D01*
X91296180Y-109668502D01*
X91406494Y-109609537D01*
X91503185Y-109530185D01*
X91582537Y-109433494D01*
X91641502Y-109323180D01*
X91677812Y-109203482D01*
X91690072Y-109079000D01*
X91687000Y-108489750D01*
X91528250Y-108331000D01*
X90616500Y-108331000D01*
X90362500Y-108331000D01*
X89450750Y-108331000D01*
X89292000Y-108489750D01*
X89288928Y-109079000D01*
X88724727Y-109079000D01*
X88748008Y-109002255D01*
X88765072Y-108829001D01*
X88765072Y-107578999D01*
X88748008Y-107405745D01*
X88724728Y-107329000D01*
X89288928Y-107329000D01*
X89292000Y-107918250D01*
X89450750Y-108077000D01*
X90362500Y-108077000D01*
X90362500Y-106852750D01*
X90616500Y-106852750D01*
X90616500Y-108077000D01*
X91528250Y-108077000D01*
X91687000Y-107918250D01*
X91690072Y-107329000D01*
X91677812Y-107204518D01*
X91641502Y-107084820D01*
X91582537Y-106974506D01*
X91503185Y-106877815D01*
X91406494Y-106798463D01*
X91296180Y-106739498D01*
X91176482Y-106703188D01*
X91052000Y-106690928D01*
X90775250Y-106694000D01*
X90616500Y-106852750D01*
X90362500Y-106852750D01*
X90203750Y-106694000D01*
X89927000Y-106690928D01*
X89802518Y-106703188D01*
X89682820Y-106739498D01*
X89572506Y-106798463D01*
X89475815Y-106877815D01*
X89396463Y-106974506D01*
X89337498Y-107084820D01*
X89301188Y-107204518D01*
X89288928Y-107329000D01*
X88724728Y-107329000D01*
X88697472Y-107239149D01*
X88615405Y-107085613D01*
X88504962Y-106951038D01*
X88370387Y-106840595D01*
X88216851Y-106758528D01*
X88050255Y-106707992D01*
X87877001Y-106690928D01*
X87251999Y-106690928D01*
X87078745Y-106707992D01*
X86912149Y-106758528D01*
X86758613Y-106840595D01*
X86624038Y-106951038D01*
X86513595Y-107085613D01*
X86431528Y-107239149D01*
X86380992Y-107405745D01*
X86363928Y-107578999D01*
X81485971Y-107578999D01*
X81524110Y-107486925D01*
X81610000Y-107055128D01*
X81610000Y-106614872D01*
X81524110Y-106183075D01*
X81355631Y-105776331D01*
X81111038Y-105410271D01*
X80799729Y-105098962D01*
X80433669Y-104854369D01*
X80026925Y-104685890D01*
X79595128Y-104600000D01*
X79154872Y-104600000D01*
X78723075Y-104685890D01*
X78316331Y-104854369D01*
X77950271Y-105098962D01*
X77638962Y-105410271D01*
X77394369Y-105776331D01*
X77225890Y-106183075D01*
X77140000Y-106614872D01*
X76225000Y-106614872D01*
X76225000Y-104530999D01*
X86363928Y-104530999D01*
X86363928Y-105781001D01*
X86380992Y-105954255D01*
X86431528Y-106120851D01*
X86513595Y-106274387D01*
X86624038Y-106408962D01*
X86758613Y-106519405D01*
X86912149Y-106601472D01*
X87078745Y-106652008D01*
X87251999Y-106669072D01*
X87877001Y-106669072D01*
X88050255Y-106652008D01*
X88216851Y-106601472D01*
X88370387Y-106519405D01*
X88504962Y-106408962D01*
X88615405Y-106274387D01*
X88697472Y-106120851D01*
X88724727Y-106031000D01*
X89288928Y-106031000D01*
X89301188Y-106155482D01*
X89337498Y-106275180D01*
X89396463Y-106385494D01*
X89475815Y-106482185D01*
X89572506Y-106561537D01*
X89682820Y-106620502D01*
X89802518Y-106656812D01*
X89927000Y-106669072D01*
X90203750Y-106666000D01*
X90362500Y-106507250D01*
X90362500Y-105283000D01*
X90616500Y-105283000D01*
X90616500Y-106507250D01*
X90775250Y-106666000D01*
X91052000Y-106669072D01*
X91176482Y-106656812D01*
X91296180Y-106620502D01*
X91306712Y-106614872D01*
X107140000Y-106614872D01*
X107140000Y-107055128D01*
X107225890Y-107486925D01*
X107394369Y-107893669D01*
X107638962Y-108259729D01*
X107950271Y-108571038D01*
X108316331Y-108815631D01*
X108723075Y-108984110D01*
X109154872Y-109070000D01*
X109595128Y-109070000D01*
X110026925Y-108984110D01*
X110433669Y-108815631D01*
X110799729Y-108571038D01*
X111111038Y-108259729D01*
X111355631Y-107893669D01*
X111524110Y-107486925D01*
X111610000Y-107055128D01*
X111610000Y-106614872D01*
X111524110Y-106183075D01*
X111355631Y-105776331D01*
X111111038Y-105410271D01*
X110799729Y-105098962D01*
X110433669Y-104854369D01*
X110026925Y-104685890D01*
X109595128Y-104600000D01*
X109154872Y-104600000D01*
X108723075Y-104685890D01*
X108316331Y-104854369D01*
X107950271Y-105098962D01*
X107638962Y-105410271D01*
X107394369Y-105776331D01*
X107225890Y-106183075D01*
X107140000Y-106614872D01*
X91306712Y-106614872D01*
X91406494Y-106561537D01*
X91503185Y-106482185D01*
X91582537Y-106385494D01*
X91641502Y-106275180D01*
X91677812Y-106155482D01*
X91690072Y-106031000D01*
X91687000Y-105441750D01*
X91528250Y-105283000D01*
X90616500Y-105283000D01*
X90362500Y-105283000D01*
X89450750Y-105283000D01*
X89292000Y-105441750D01*
X89288928Y-106031000D01*
X88724727Y-106031000D01*
X88748008Y-105954255D01*
X88765072Y-105781001D01*
X88765072Y-104530999D01*
X88748008Y-104357745D01*
X88724728Y-104281000D01*
X89288928Y-104281000D01*
X89292000Y-104870250D01*
X89450750Y-105029000D01*
X90362500Y-105029000D01*
X90362500Y-103804750D01*
X90616500Y-103804750D01*
X90616500Y-105029000D01*
X91528250Y-105029000D01*
X91687000Y-104870250D01*
X91690072Y-104281000D01*
X91677812Y-104156518D01*
X91641502Y-104036820D01*
X91582537Y-103926506D01*
X91503185Y-103829815D01*
X91406494Y-103750463D01*
X91296180Y-103691498D01*
X91176482Y-103655188D01*
X91052000Y-103642928D01*
X90775250Y-103646000D01*
X90616500Y-103804750D01*
X90362500Y-103804750D01*
X90203750Y-103646000D01*
X89927000Y-103642928D01*
X89802518Y-103655188D01*
X89682820Y-103691498D01*
X89572506Y-103750463D01*
X89475815Y-103829815D01*
X89396463Y-103926506D01*
X89337498Y-104036820D01*
X89301188Y-104156518D01*
X89288928Y-104281000D01*
X88724728Y-104281000D01*
X88697472Y-104191149D01*
X88615405Y-104037613D01*
X88504962Y-103903038D01*
X88370387Y-103792595D01*
X88216851Y-103710528D01*
X88050255Y-103659992D01*
X87877001Y-103642928D01*
X87251999Y-103642928D01*
X87078745Y-103659992D01*
X86912149Y-103710528D01*
X86758613Y-103792595D01*
X86624038Y-103903038D01*
X86513595Y-104037613D01*
X86431528Y-104191149D01*
X86380992Y-104357745D01*
X86363928Y-104530999D01*
X76225000Y-104530999D01*
X76225000Y-101272000D01*
X78900928Y-101272000D01*
X78913188Y-101396482D01*
X78949498Y-101516180D01*
X79008463Y-101626494D01*
X79087815Y-101723185D01*
X79184506Y-101802537D01*
X79294820Y-101861502D01*
X79414518Y-101897812D01*
X79539000Y-101910072D01*
X79978250Y-101907000D01*
X80137000Y-101748250D01*
X80137000Y-100899000D01*
X80391000Y-100899000D01*
X80391000Y-101748250D01*
X80549750Y-101907000D01*
X80989000Y-101910072D01*
X81113482Y-101897812D01*
X81233180Y-101861502D01*
X81343494Y-101802537D01*
X81440185Y-101723185D01*
X81519537Y-101626494D01*
X81578502Y-101516180D01*
X81614812Y-101396482D01*
X81627072Y-101272000D01*
X81627059Y-101271071D01*
X81642000Y-101271071D01*
X81642000Y-101474949D01*
X81681774Y-101674908D01*
X81759795Y-101863266D01*
X81873063Y-102032784D01*
X82017226Y-102176947D01*
X82186744Y-102290215D01*
X82375102Y-102368236D01*
X82575061Y-102408010D01*
X82637199Y-102408010D01*
X83388202Y-103159014D01*
X83412000Y-103188012D01*
X83527725Y-103282985D01*
X83659754Y-103353557D01*
X83803015Y-103397014D01*
X83914668Y-103408011D01*
X83914676Y-103408011D01*
X83952001Y-103411687D01*
X83989326Y-103408011D01*
X104301659Y-103408011D01*
X104338981Y-103411687D01*
X104376303Y-103408011D01*
X104376314Y-103408011D01*
X104487967Y-103397014D01*
X104631228Y-103353557D01*
X104763257Y-103282985D01*
X104878982Y-103188012D01*
X104902785Y-103159008D01*
X106841672Y-101220122D01*
X106840928Y-101272000D01*
X106853188Y-101396482D01*
X106889498Y-101516180D01*
X106948463Y-101626494D01*
X107027815Y-101723185D01*
X107124506Y-101802537D01*
X107234820Y-101861502D01*
X107354518Y-101897812D01*
X107479000Y-101910072D01*
X107918250Y-101907000D01*
X108077000Y-101748250D01*
X108077000Y-100899000D01*
X108331000Y-100899000D01*
X108331000Y-101748250D01*
X108489750Y-101907000D01*
X108929000Y-101910072D01*
X109053482Y-101897812D01*
X109173180Y-101861502D01*
X109283494Y-101802537D01*
X109380185Y-101723185D01*
X109459537Y-101626494D01*
X109518502Y-101516180D01*
X109554812Y-101396482D01*
X109567072Y-101272000D01*
X109564000Y-101057750D01*
X109405250Y-100899000D01*
X108331000Y-100899000D01*
X108077000Y-100899000D01*
X108057000Y-100899000D01*
X108057000Y-100645000D01*
X108077000Y-100645000D01*
X108077000Y-100625000D01*
X108331000Y-100625000D01*
X108331000Y-100645000D01*
X109405250Y-100645000D01*
X109564000Y-100486250D01*
X109567072Y-100272000D01*
X109554812Y-100147518D01*
X109518502Y-100027820D01*
X109459537Y-99917506D01*
X109380185Y-99820815D01*
X109300406Y-99755342D01*
X109306962Y-99749962D01*
X109403770Y-99632000D01*
X109432678Y-99632000D01*
X109470000Y-99635676D01*
X109507322Y-99632000D01*
X109507333Y-99632000D01*
X109618986Y-99621003D01*
X109762247Y-99577546D01*
X109894276Y-99506974D01*
X110010001Y-99412001D01*
X110033804Y-99382997D01*
X110718802Y-98698000D01*
X110780939Y-98698000D01*
X110980898Y-98658226D01*
X111169256Y-98580205D01*
X111338774Y-98466937D01*
X111482937Y-98322774D01*
X111596205Y-98153256D01*
X111674226Y-97964898D01*
X111714000Y-97764939D01*
X111714000Y-97561061D01*
X111674226Y-97361102D01*
X111596205Y-97172744D01*
X111482937Y-97003226D01*
X111338774Y-96859063D01*
X111169256Y-96745795D01*
X110980898Y-96667774D01*
X110780939Y-96628000D01*
X110577061Y-96628000D01*
X110377102Y-96667774D01*
X110188744Y-96745795D01*
X110019226Y-96859063D01*
X109875063Y-97003226D01*
X109761795Y-97172744D01*
X109683774Y-97361102D01*
X109644000Y-97561061D01*
X109644000Y-97623198D01*
X109288397Y-97978802D01*
X109172386Y-97883595D01*
X109018850Y-97801528D01*
X108852254Y-97750992D01*
X108679000Y-97733928D01*
X107729000Y-97733928D01*
X107555746Y-97750992D01*
X107389150Y-97801528D01*
X107235614Y-97883595D01*
X107101038Y-97994038D01*
X106990595Y-98128614D01*
X106908528Y-98282150D01*
X106857992Y-98448746D01*
X106840928Y-98622000D01*
X106840928Y-99025115D01*
X106702805Y-98886992D01*
X106679002Y-98857988D01*
X106563277Y-98763015D01*
X106431248Y-98692443D01*
X106287987Y-98648986D01*
X106176334Y-98637989D01*
X106176323Y-98637989D01*
X106139001Y-98634313D01*
X106101679Y-98637989D01*
X104732333Y-98637989D01*
X104695010Y-98634313D01*
X104657687Y-98637989D01*
X104657678Y-98637989D01*
X104546025Y-98648986D01*
X104402764Y-98692443D01*
X104341740Y-98725061D01*
X108461003Y-94605799D01*
X108490001Y-94582001D01*
X108567146Y-94488000D01*
X108584974Y-94466277D01*
X108655546Y-94334247D01*
X108699003Y-94190986D01*
X108710000Y-94079333D01*
X108710000Y-94079323D01*
X108713676Y-94042000D01*
X108710000Y-94004678D01*
X108710000Y-91381711D01*
X108753937Y-91337774D01*
X108867205Y-91168256D01*
X108945226Y-90979898D01*
X108985000Y-90779939D01*
X108985000Y-90576061D01*
X108945226Y-90376102D01*
X108867205Y-90187744D01*
X108753937Y-90018226D01*
X108609774Y-89874063D01*
X108440256Y-89760795D01*
X108251898Y-89682774D01*
X108051939Y-89643000D01*
X107848061Y-89643000D01*
X107648102Y-89682774D01*
X107459744Y-89760795D01*
X107290226Y-89874063D01*
X107146063Y-90018226D01*
X107032795Y-90187744D01*
X106954774Y-90376102D01*
X106915000Y-90576061D01*
X106915000Y-90779939D01*
X106954774Y-90979898D01*
X107032795Y-91168256D01*
X107146063Y-91337774D01*
X107190000Y-91381711D01*
X107190001Y-93727197D01*
X101380955Y-99536244D01*
X101344000Y-99499289D01*
X101344000Y-98312720D01*
X101347676Y-98275397D01*
X101344000Y-98238074D01*
X101344000Y-98238065D01*
X101333003Y-98126412D01*
X101289546Y-97983151D01*
X101265291Y-97937774D01*
X101218974Y-97851121D01*
X101147799Y-97764395D01*
X101124001Y-97735397D01*
X101095003Y-97711599D01*
X96160396Y-92776993D01*
X96136593Y-92747989D01*
X96020868Y-92653016D01*
X95888839Y-92582444D01*
X95745578Y-92538987D01*
X95633925Y-92527990D01*
X95633914Y-92527990D01*
X95596592Y-92524314D01*
X95559270Y-92527990D01*
X93934619Y-92527990D01*
X93994266Y-92400210D01*
X94057811Y-92140973D01*
X94069561Y-91874320D01*
X94029063Y-91610499D01*
X93937875Y-91359647D01*
X93881368Y-91253932D01*
X93645560Y-91192045D01*
X92889605Y-91948000D01*
X92903748Y-91962143D01*
X92724143Y-92141748D01*
X92710000Y-92127605D01*
X92695858Y-92141748D01*
X92516253Y-91962143D01*
X92530395Y-91948000D01*
X91774440Y-91192045D01*
X91538632Y-91253932D01*
X91425734Y-91495790D01*
X91362189Y-91755027D01*
X91350439Y-92021680D01*
X91390937Y-92285501D01*
X91482125Y-92536353D01*
X91490926Y-92552819D01*
X91393263Y-92582444D01*
X91261234Y-92653016D01*
X91261232Y-92653017D01*
X91261233Y-92653017D01*
X91174506Y-92724191D01*
X91174502Y-92724195D01*
X91145509Y-92747989D01*
X91121715Y-92776982D01*
X90912493Y-92986204D01*
X90798001Y-92974928D01*
X90172999Y-92974928D01*
X89999745Y-92991992D01*
X89833149Y-93042528D01*
X89679613Y-93124595D01*
X89650933Y-93148132D01*
X89196177Y-92693376D01*
X89202168Y-92678912D01*
X89265000Y-92363033D01*
X89265000Y-92040967D01*
X89202168Y-91725088D01*
X89078918Y-91427537D01*
X88899987Y-91159748D01*
X88752679Y-91012440D01*
X91954045Y-91012440D01*
X92710000Y-91768395D01*
X93465955Y-91012440D01*
X93404068Y-90776632D01*
X93162210Y-90663734D01*
X92902973Y-90600189D01*
X92636320Y-90588439D01*
X92372499Y-90628937D01*
X92121647Y-90720125D01*
X92015932Y-90776632D01*
X91954045Y-91012440D01*
X88752679Y-91012440D01*
X88672252Y-90932013D01*
X88404463Y-90753082D01*
X88106912Y-90629832D01*
X87791033Y-90567000D01*
X87468967Y-90567000D01*
X87153088Y-90629832D01*
X87064999Y-90666320D01*
X87064999Y-87999802D01*
X87138624Y-87926177D01*
X87153088Y-87932168D01*
X87468967Y-87995000D01*
X87791033Y-87995000D01*
X88106912Y-87932168D01*
X88121375Y-87926177D01*
X89092428Y-88897230D01*
X89092428Y-89017001D01*
X89109492Y-89190255D01*
X89160028Y-89356851D01*
X89242095Y-89510387D01*
X89352538Y-89644962D01*
X89487113Y-89755405D01*
X89640649Y-89837472D01*
X89807245Y-89888008D01*
X89980499Y-89905072D01*
X90605501Y-89905072D01*
X90778755Y-89888008D01*
X90945351Y-89837472D01*
X91098887Y-89755405D01*
X91233462Y-89644962D01*
X91343905Y-89510387D01*
X91425972Y-89356851D01*
X91453227Y-89267000D01*
X92017428Y-89267000D01*
X92029688Y-89391482D01*
X92065998Y-89511180D01*
X92124963Y-89621494D01*
X92204315Y-89718185D01*
X92301006Y-89797537D01*
X92411320Y-89856502D01*
X92531018Y-89892812D01*
X92655500Y-89905072D01*
X92932250Y-89902000D01*
X93091000Y-89743250D01*
X93091000Y-88519000D01*
X92179250Y-88519000D01*
X92020500Y-88677750D01*
X92017428Y-89267000D01*
X91453227Y-89267000D01*
X91476508Y-89190255D01*
X91493572Y-89017001D01*
X91493572Y-87766999D01*
X91476508Y-87593745D01*
X91425972Y-87427149D01*
X91343905Y-87273613D01*
X91233462Y-87139038D01*
X91098887Y-87028595D01*
X90945351Y-86946528D01*
X90778755Y-86895992D01*
X90605501Y-86878928D01*
X89980499Y-86878928D01*
X89807245Y-86895992D01*
X89640649Y-86946528D01*
X89487113Y-87028595D01*
X89424655Y-87079853D01*
X89196177Y-86851375D01*
X89202168Y-86836912D01*
X89211984Y-86787560D01*
X91954045Y-86787560D01*
X92015932Y-87023368D01*
X92177323Y-87098705D01*
X92124963Y-87162506D01*
X92065998Y-87272820D01*
X92029688Y-87392518D01*
X92017428Y-87517000D01*
X92020500Y-88106250D01*
X92179250Y-88265000D01*
X93091000Y-88265000D01*
X93091000Y-88245000D01*
X93345000Y-88245000D01*
X93345000Y-88265000D01*
X93365000Y-88265000D01*
X93365000Y-88519000D01*
X93345000Y-88519000D01*
X93345000Y-89743250D01*
X93503750Y-89902000D01*
X93780500Y-89905072D01*
X93904982Y-89892812D01*
X94024680Y-89856502D01*
X94134994Y-89797537D01*
X94231685Y-89718185D01*
X94311037Y-89621494D01*
X94370002Y-89511180D01*
X94389557Y-89446715D01*
X94608167Y-89592785D01*
X94854761Y-89694928D01*
X95116544Y-89747000D01*
X95383456Y-89747000D01*
X95645239Y-89694928D01*
X95891833Y-89592785D01*
X96113762Y-89444497D01*
X96302497Y-89255762D01*
X96450785Y-89033833D01*
X96552928Y-88787239D01*
X96605000Y-88525456D01*
X96605000Y-88258544D01*
X96552928Y-87996761D01*
X96450785Y-87750167D01*
X96302497Y-87528238D01*
X96113762Y-87339503D01*
X95891833Y-87191215D01*
X95645239Y-87089072D01*
X95383456Y-87037000D01*
X95116544Y-87037000D01*
X94854761Y-87089072D01*
X94608167Y-87191215D01*
X94389557Y-87337285D01*
X94370002Y-87272820D01*
X94311037Y-87162506D01*
X94231685Y-87065815D01*
X94134994Y-86986463D01*
X94024680Y-86927498D01*
X93904982Y-86891188D01*
X93780500Y-86878928D01*
X93503750Y-86882000D01*
X93418901Y-86966849D01*
X93465955Y-86787560D01*
X92710000Y-86031605D01*
X91954045Y-86787560D01*
X89211984Y-86787560D01*
X89265000Y-86521033D01*
X89265000Y-86198967D01*
X89210641Y-85925680D01*
X91350439Y-85925680D01*
X91390937Y-86189501D01*
X91482125Y-86440353D01*
X91538632Y-86546068D01*
X91774440Y-86607955D01*
X92530395Y-85852000D01*
X92889605Y-85852000D01*
X93645560Y-86607955D01*
X93881368Y-86546068D01*
X93994266Y-86304210D01*
X94057811Y-86044973D01*
X94069561Y-85778320D01*
X94060386Y-85718544D01*
X96435000Y-85718544D01*
X96435000Y-85985456D01*
X96487072Y-86247239D01*
X96589215Y-86493833D01*
X96737503Y-86715762D01*
X96926238Y-86904497D01*
X97030000Y-86973829D01*
X97030001Y-90826171D01*
X96926238Y-90895503D01*
X96737503Y-91084238D01*
X96589215Y-91306167D01*
X96487072Y-91552761D01*
X96435000Y-91814544D01*
X96435000Y-92081456D01*
X96487072Y-92343239D01*
X96589215Y-92589833D01*
X96737503Y-92811762D01*
X96926238Y-93000497D01*
X97148167Y-93148785D01*
X97394761Y-93250928D01*
X97656544Y-93303000D01*
X97923456Y-93303000D01*
X98185239Y-93250928D01*
X98431833Y-93148785D01*
X98653762Y-93000497D01*
X98842497Y-92811762D01*
X98990785Y-92589833D01*
X99092928Y-92343239D01*
X99145000Y-92081456D01*
X99145000Y-92040967D01*
X101489000Y-92040967D01*
X101489000Y-92363033D01*
X101551832Y-92678912D01*
X101675082Y-92976463D01*
X101854013Y-93244252D01*
X102081748Y-93471987D01*
X102349537Y-93650918D01*
X102647088Y-93774168D01*
X102962967Y-93837000D01*
X103285033Y-93837000D01*
X103600912Y-93774168D01*
X103898463Y-93650918D01*
X104166252Y-93471987D01*
X104393987Y-93244252D01*
X104572918Y-92976463D01*
X104696168Y-92678912D01*
X104759000Y-92363033D01*
X104759000Y-92040967D01*
X104696168Y-91725088D01*
X104572918Y-91427537D01*
X104393987Y-91159748D01*
X104166252Y-90932013D01*
X103898463Y-90753082D01*
X103600912Y-90629832D01*
X103285033Y-90567000D01*
X102962967Y-90567000D01*
X102647088Y-90629832D01*
X102349537Y-90753082D01*
X102081748Y-90932013D01*
X101854013Y-91159748D01*
X101675082Y-91427537D01*
X101551832Y-91725088D01*
X101489000Y-92040967D01*
X99145000Y-92040967D01*
X99145000Y-91814544D01*
X99092928Y-91552761D01*
X98990785Y-91306167D01*
X98842497Y-91084238D01*
X98653762Y-90895503D01*
X98550000Y-90826172D01*
X98550000Y-86973828D01*
X98653762Y-86904497D01*
X98842497Y-86715762D01*
X98990785Y-86493833D01*
X99092928Y-86247239D01*
X99145000Y-85985456D01*
X99145000Y-85944967D01*
X101489000Y-85944967D01*
X101489000Y-86267033D01*
X101551832Y-86582912D01*
X101675082Y-86880463D01*
X101854013Y-87148252D01*
X102081748Y-87375987D01*
X102349537Y-87554918D01*
X102647088Y-87678168D01*
X102962967Y-87741000D01*
X103285033Y-87741000D01*
X103600912Y-87678168D01*
X103898463Y-87554918D01*
X104166252Y-87375987D01*
X104393987Y-87148252D01*
X104572918Y-86880463D01*
X104696168Y-86582912D01*
X104759000Y-86267033D01*
X104759000Y-85944967D01*
X104696168Y-85629088D01*
X104572918Y-85331537D01*
X104393987Y-85063748D01*
X104166252Y-84836013D01*
X103898463Y-84657082D01*
X103600912Y-84533832D01*
X103285033Y-84471000D01*
X102962967Y-84471000D01*
X102647088Y-84533832D01*
X102349537Y-84657082D01*
X102081748Y-84836013D01*
X101854013Y-85063748D01*
X101675082Y-85331537D01*
X101551832Y-85629088D01*
X101489000Y-85944967D01*
X99145000Y-85944967D01*
X99145000Y-85718544D01*
X99092928Y-85456761D01*
X98990785Y-85210167D01*
X98842497Y-84988238D01*
X98653762Y-84799503D01*
X98431833Y-84651215D01*
X98185239Y-84549072D01*
X97923456Y-84497000D01*
X97656544Y-84497000D01*
X97394761Y-84549072D01*
X97148167Y-84651215D01*
X96926238Y-84799503D01*
X96737503Y-84988238D01*
X96589215Y-85210167D01*
X96487072Y-85456761D01*
X96435000Y-85718544D01*
X94060386Y-85718544D01*
X94029063Y-85514499D01*
X93937875Y-85263647D01*
X93881368Y-85157932D01*
X93645560Y-85096045D01*
X92889605Y-85852000D01*
X92530395Y-85852000D01*
X91774440Y-85096045D01*
X91538632Y-85157932D01*
X91425734Y-85399790D01*
X91362189Y-85659027D01*
X91350439Y-85925680D01*
X89210641Y-85925680D01*
X89202168Y-85883088D01*
X89196177Y-85868624D01*
X90148361Y-84916440D01*
X91954045Y-84916440D01*
X92710000Y-85672395D01*
X93465955Y-84916440D01*
X93404068Y-84680632D01*
X93162210Y-84567734D01*
X92902973Y-84504189D01*
X92636320Y-84492439D01*
X92372499Y-84532937D01*
X92121647Y-84624125D01*
X92015932Y-84680632D01*
X91954045Y-84916440D01*
X90148361Y-84916440D01*
X92934004Y-82130798D01*
X92963002Y-82107000D01*
X92989333Y-82074916D01*
X93057975Y-81991276D01*
X93128547Y-81859246D01*
X93172004Y-81715985D01*
X93183001Y-81604332D01*
X93183001Y-81604322D01*
X93186677Y-81567000D01*
X93183001Y-81529677D01*
X93183001Y-81355926D01*
X93188933Y-81358383D01*
X93408212Y-81402000D01*
X93631788Y-81402000D01*
X93851067Y-81358383D01*
X94057624Y-81272824D01*
X94243520Y-81148612D01*
X94401612Y-80990520D01*
X94525824Y-80804624D01*
X94611383Y-80598067D01*
X94655000Y-80378788D01*
X94655000Y-80155212D01*
X94611383Y-79935933D01*
X94525824Y-79729376D01*
X94401612Y-79543480D01*
X94249466Y-79391334D01*
X94450211Y-79190589D01*
X95135000Y-79190589D01*
X95135000Y-79463411D01*
X95188225Y-79730989D01*
X95292629Y-79983043D01*
X95444201Y-80209886D01*
X95637114Y-80402799D01*
X95863957Y-80554371D01*
X96116011Y-80658775D01*
X96383589Y-80712000D01*
X96656411Y-80712000D01*
X96923989Y-80658775D01*
X97176043Y-80554371D01*
X97402886Y-80402799D01*
X97595799Y-80209886D01*
X97747371Y-79983043D01*
X97851775Y-79730989D01*
X97905000Y-79463411D01*
X97905000Y-79190589D01*
X98135000Y-79190589D01*
X98135000Y-79463411D01*
X98188225Y-79730989D01*
X98292629Y-79983043D01*
X98444201Y-80209886D01*
X98637114Y-80402799D01*
X98863957Y-80554371D01*
X99116011Y-80658775D01*
X99383589Y-80712000D01*
X99656411Y-80712000D01*
X99923989Y-80658775D01*
X100176043Y-80554371D01*
X100402886Y-80402799D01*
X100521692Y-80283993D01*
X101742612Y-80283993D01*
X101808137Y-80522860D01*
X102055116Y-80638760D01*
X102319960Y-80704250D01*
X102592492Y-80716812D01*
X102862238Y-80675965D01*
X103118832Y-80583277D01*
X103231863Y-80522860D01*
X103297388Y-80283993D01*
X103168607Y-80155212D01*
X104385000Y-80155212D01*
X104385000Y-80378788D01*
X104428617Y-80598067D01*
X104514176Y-80804624D01*
X104638388Y-80990520D01*
X104796480Y-81148612D01*
X104982376Y-81272824D01*
X105188933Y-81358383D01*
X105408212Y-81402000D01*
X105631788Y-81402000D01*
X105851067Y-81358383D01*
X106057624Y-81272824D01*
X106243520Y-81148612D01*
X106401612Y-80990520D01*
X106525824Y-80804624D01*
X106611383Y-80598067D01*
X106655000Y-80378788D01*
X106655000Y-80155212D01*
X106611383Y-79935933D01*
X106525824Y-79729376D01*
X106401612Y-79543480D01*
X106243520Y-79385388D01*
X106057624Y-79261176D01*
X105851067Y-79175617D01*
X105631788Y-79132000D01*
X105408212Y-79132000D01*
X105188933Y-79175617D01*
X104982376Y-79261176D01*
X104796480Y-79385388D01*
X104638388Y-79543480D01*
X104514176Y-79729376D01*
X104428617Y-79935933D01*
X104385000Y-80155212D01*
X103168607Y-80155212D01*
X102520000Y-79506605D01*
X101742612Y-80283993D01*
X100521692Y-80283993D01*
X100595799Y-80209886D01*
X100747371Y-79983043D01*
X100851775Y-79730989D01*
X100905000Y-79463411D01*
X100905000Y-79399492D01*
X101130188Y-79399492D01*
X101171035Y-79669238D01*
X101263723Y-79925832D01*
X101324140Y-80038863D01*
X101563007Y-80104388D01*
X102340395Y-79327000D01*
X102699605Y-79327000D01*
X103476993Y-80104388D01*
X103715860Y-80038863D01*
X103831760Y-79791884D01*
X103897250Y-79527040D01*
X103909812Y-79254508D01*
X103868965Y-78984762D01*
X103776277Y-78728168D01*
X103715860Y-78615137D01*
X103476993Y-78549612D01*
X102699605Y-79327000D01*
X102340395Y-79327000D01*
X101563007Y-78549612D01*
X101324140Y-78615137D01*
X101208240Y-78862116D01*
X101142750Y-79126960D01*
X101130188Y-79399492D01*
X100905000Y-79399492D01*
X100905000Y-79190589D01*
X100851775Y-78923011D01*
X100747371Y-78670957D01*
X100595799Y-78444114D01*
X100521692Y-78370007D01*
X101742612Y-78370007D01*
X102520000Y-79147395D01*
X103297388Y-78370007D01*
X103231863Y-78131140D01*
X102984884Y-78015240D01*
X102720040Y-77949750D01*
X102447508Y-77937188D01*
X102177762Y-77978035D01*
X101921168Y-78070723D01*
X101808137Y-78131140D01*
X101742612Y-78370007D01*
X100521692Y-78370007D01*
X100402886Y-78251201D01*
X100176043Y-78099629D01*
X99923989Y-77995225D01*
X99656411Y-77942000D01*
X99383589Y-77942000D01*
X99116011Y-77995225D01*
X98863957Y-78099629D01*
X98637114Y-78251201D01*
X98444201Y-78444114D01*
X98292629Y-78670957D01*
X98188225Y-78923011D01*
X98135000Y-79190589D01*
X97905000Y-79190589D01*
X97851775Y-78923011D01*
X97747371Y-78670957D01*
X97595799Y-78444114D01*
X97402886Y-78251201D01*
X97176043Y-78099629D01*
X96923989Y-77995225D01*
X96656411Y-77942000D01*
X96383589Y-77942000D01*
X96116011Y-77995225D01*
X95863957Y-78099629D01*
X95637114Y-78251201D01*
X95444201Y-78444114D01*
X95292629Y-78670957D01*
X95188225Y-78923011D01*
X95135000Y-79190589D01*
X94450211Y-79190589D01*
X95934180Y-77706620D01*
X96020000Y-77715072D01*
X97020000Y-77715072D01*
X97193254Y-77698008D01*
X97359850Y-77647472D01*
X97513386Y-77565405D01*
X97647962Y-77454962D01*
X97758405Y-77320386D01*
X97840472Y-77166850D01*
X97891008Y-77000254D01*
X97908072Y-76827000D01*
X97908072Y-76011990D01*
X98130189Y-76011990D01*
X98163833Y-76045635D01*
X98135000Y-76190589D01*
X98135000Y-76463411D01*
X98188225Y-76730989D01*
X98292629Y-76983043D01*
X98444201Y-77209886D01*
X98637114Y-77402799D01*
X98863957Y-77554371D01*
X99116011Y-77658775D01*
X99383589Y-77712000D01*
X99656411Y-77712000D01*
X99923989Y-77658775D01*
X100176043Y-77554371D01*
X100402886Y-77402799D01*
X100521692Y-77283993D01*
X101742612Y-77283993D01*
X101808137Y-77522860D01*
X102055116Y-77638760D01*
X102319960Y-77704250D01*
X102592492Y-77716812D01*
X102862238Y-77675965D01*
X103118832Y-77583277D01*
X103231863Y-77522860D01*
X103297388Y-77283993D01*
X102520000Y-76506605D01*
X101742612Y-77283993D01*
X100521692Y-77283993D01*
X100595799Y-77209886D01*
X100747371Y-76983043D01*
X100851775Y-76730989D01*
X100905000Y-76463411D01*
X100905000Y-76399492D01*
X101130188Y-76399492D01*
X101171035Y-76669238D01*
X101263723Y-76925832D01*
X101324140Y-77038863D01*
X101563007Y-77104388D01*
X102340395Y-76327000D01*
X102699605Y-76327000D01*
X103476993Y-77104388D01*
X103715860Y-77038863D01*
X103831760Y-76791884D01*
X103875531Y-76614872D01*
X107140000Y-76614872D01*
X107140000Y-77055128D01*
X107225890Y-77486925D01*
X107394369Y-77893669D01*
X107638962Y-78259729D01*
X107950271Y-78571038D01*
X108316331Y-78815631D01*
X108723075Y-78984110D01*
X109154872Y-79070000D01*
X109595128Y-79070000D01*
X110026925Y-78984110D01*
X110433669Y-78815631D01*
X110799729Y-78571038D01*
X111111038Y-78259729D01*
X111355631Y-77893669D01*
X111524110Y-77486925D01*
X111610000Y-77055128D01*
X111610000Y-76614872D01*
X111524110Y-76183075D01*
X111355631Y-75776331D01*
X111111038Y-75410271D01*
X110799729Y-75098962D01*
X110433669Y-74854369D01*
X110026925Y-74685890D01*
X109595128Y-74600000D01*
X109154872Y-74600000D01*
X108723075Y-74685890D01*
X108316331Y-74854369D01*
X107950271Y-75098962D01*
X107638962Y-75410271D01*
X107394369Y-75776331D01*
X107225890Y-76183075D01*
X107140000Y-76614872D01*
X103875531Y-76614872D01*
X103897250Y-76527040D01*
X103909812Y-76254508D01*
X103868965Y-75984762D01*
X103776277Y-75728168D01*
X103715860Y-75615137D01*
X103476993Y-75549612D01*
X102699605Y-76327000D01*
X102340395Y-76327000D01*
X101563007Y-75549612D01*
X101324140Y-75615137D01*
X101208240Y-75862116D01*
X101142750Y-76126960D01*
X101130188Y-76399492D01*
X100905000Y-76399492D01*
X100905000Y-76190589D01*
X100851775Y-75923011D01*
X100747371Y-75670957D01*
X100595799Y-75444114D01*
X100521692Y-75370007D01*
X101742612Y-75370007D01*
X102520000Y-76147395D01*
X103297388Y-75370007D01*
X103231863Y-75131140D01*
X102984884Y-75015240D01*
X102720040Y-74949750D01*
X102447508Y-74937188D01*
X102177762Y-74978035D01*
X101921168Y-75070723D01*
X101808137Y-75131140D01*
X101742612Y-75370007D01*
X100521692Y-75370007D01*
X100402886Y-75251201D01*
X100176043Y-75099629D01*
X99923989Y-74995225D01*
X99656411Y-74942000D01*
X99383589Y-74942000D01*
X99238635Y-74970833D01*
X99008794Y-74740992D01*
X98984991Y-74711989D01*
X98869266Y-74617016D01*
X98737237Y-74546444D01*
X98593976Y-74502987D01*
X98482323Y-74491990D01*
X98482312Y-74491990D01*
X98444990Y-74488314D01*
X98407668Y-74491990D01*
X95429330Y-74491990D01*
X95392007Y-74488314D01*
X95354684Y-74491990D01*
X95354675Y-74491990D01*
X95243022Y-74502987D01*
X95099761Y-74546444D01*
X94967731Y-74617016D01*
X94912708Y-74662173D01*
X94852007Y-74711989D01*
X94828209Y-74740987D01*
X89952512Y-79616685D01*
X89983000Y-79463411D01*
X89983000Y-79190589D01*
X89929775Y-78923011D01*
X89825371Y-78670957D01*
X89673799Y-78444114D01*
X89480886Y-78251201D01*
X89254043Y-78099629D01*
X89001989Y-77995225D01*
X88734411Y-77942000D01*
X88461589Y-77942000D01*
X88194011Y-77995225D01*
X87941957Y-78099629D01*
X87715114Y-78251201D01*
X87522201Y-78444114D01*
X87370629Y-78670957D01*
X87266225Y-78923011D01*
X87213000Y-79190589D01*
X87213000Y-79463411D01*
X87241833Y-79608365D01*
X86741231Y-80108967D01*
X86825371Y-79983043D01*
X86929775Y-79730989D01*
X86983000Y-79463411D01*
X86983000Y-79190589D01*
X86929775Y-78923011D01*
X86825371Y-78670957D01*
X86673799Y-78444114D01*
X86480886Y-78251201D01*
X86254043Y-78099629D01*
X86001989Y-77995225D01*
X85734411Y-77942000D01*
X85461589Y-77942000D01*
X85194011Y-77995225D01*
X84941957Y-78099629D01*
X84715114Y-78251201D01*
X84522201Y-78444114D01*
X84370629Y-78670957D01*
X84266225Y-78923011D01*
X84213000Y-79190589D01*
X84213000Y-79463411D01*
X84266225Y-79730989D01*
X84370629Y-79983043D01*
X84522201Y-80209886D01*
X84715114Y-80402799D01*
X84941957Y-80554371D01*
X85194011Y-80658775D01*
X85461589Y-80712000D01*
X85734411Y-80712000D01*
X86001989Y-80658775D01*
X86254043Y-80554371D01*
X86379968Y-80470231D01*
X82228003Y-84622196D01*
X82198999Y-84645999D01*
X82170577Y-84680632D01*
X82104026Y-84761724D01*
X82033455Y-84893753D01*
X82033454Y-84893754D01*
X81989997Y-85037015D01*
X81979000Y-85148668D01*
X81979000Y-85148678D01*
X81975324Y-85186000D01*
X81979000Y-85223322D01*
X81979001Y-98329278D01*
X81935063Y-98373216D01*
X81821795Y-98542734D01*
X81743774Y-98731092D01*
X81704000Y-98931051D01*
X81704000Y-99134929D01*
X81743774Y-99334888D01*
X81821795Y-99523246D01*
X81935063Y-99692764D01*
X82079226Y-99836927D01*
X82248744Y-99950195D01*
X82437102Y-100028216D01*
X82637061Y-100067990D01*
X82840939Y-100067990D01*
X83040898Y-100028216D01*
X83229256Y-99950195D01*
X83398774Y-99836927D01*
X83542937Y-99692764D01*
X83656205Y-99523246D01*
X83734226Y-99334888D01*
X83774000Y-99134929D01*
X83774000Y-98931051D01*
X83734226Y-98731092D01*
X83656205Y-98542734D01*
X83542937Y-98373216D01*
X83499000Y-98329279D01*
X83499000Y-96178154D01*
X83565939Y-96178154D01*
X83765898Y-96138380D01*
X83954256Y-96060359D01*
X84123774Y-95947091D01*
X84267937Y-95802928D01*
X84381205Y-95633410D01*
X84459226Y-95445052D01*
X84499000Y-95245093D01*
X84499000Y-95041215D01*
X84459226Y-94841256D01*
X84381205Y-94652898D01*
X84267937Y-94483380D01*
X84224000Y-94439443D01*
X84224000Y-91297276D01*
X84327774Y-91227937D01*
X84471937Y-91083774D01*
X84585205Y-90914256D01*
X84663226Y-90725898D01*
X84703000Y-90525939D01*
X84703000Y-90322061D01*
X84663226Y-90122102D01*
X84585205Y-89933744D01*
X84471937Y-89764226D01*
X84428000Y-89720289D01*
X84428000Y-87290799D01*
X86277376Y-85441424D01*
X86181082Y-85585537D01*
X86057832Y-85883088D01*
X85995000Y-86198967D01*
X85995000Y-86521033D01*
X86057832Y-86836912D01*
X86063823Y-86851376D01*
X85794001Y-87121198D01*
X85764998Y-87145000D01*
X85727071Y-87191215D01*
X85670025Y-87260725D01*
X85627917Y-87339503D01*
X85599453Y-87392755D01*
X85555996Y-87536016D01*
X85544999Y-87647669D01*
X85544999Y-87647679D01*
X85541323Y-87685001D01*
X85544999Y-87722324D01*
X85545000Y-93633667D01*
X85541323Y-93670999D01*
X85545000Y-93708332D01*
X85555997Y-93819985D01*
X85563939Y-93846167D01*
X85599453Y-93963245D01*
X85670025Y-94095275D01*
X85713237Y-94147928D01*
X85764999Y-94211000D01*
X85793997Y-94234798D01*
X88119000Y-96559802D01*
X88119000Y-96621939D01*
X88123059Y-96642345D01*
X88050939Y-96628000D01*
X87847061Y-96628000D01*
X87647102Y-96667774D01*
X87458744Y-96745795D01*
X87289226Y-96859063D01*
X87145063Y-97003226D01*
X87031795Y-97172744D01*
X86953774Y-97361102D01*
X86914000Y-97561061D01*
X86914000Y-97764939D01*
X86953774Y-97964898D01*
X87014706Y-98112000D01*
X86576016Y-98112000D01*
X86538694Y-98108324D01*
X86501371Y-98112000D01*
X86501361Y-98112000D01*
X86389708Y-98122997D01*
X86246447Y-98166454D01*
X86114417Y-98237026D01*
X86040089Y-98298026D01*
X85998693Y-98331999D01*
X85974895Y-98360997D01*
X85617045Y-98718847D01*
X85554908Y-98718847D01*
X85354949Y-98758621D01*
X85166591Y-98836642D01*
X84997073Y-98949910D01*
X84852910Y-99094073D01*
X84739642Y-99263591D01*
X84661621Y-99451949D01*
X84621847Y-99651908D01*
X84621847Y-99855786D01*
X84661621Y-100055745D01*
X84739642Y-100244103D01*
X84852910Y-100413621D01*
X84997073Y-100557784D01*
X85166591Y-100671052D01*
X85354949Y-100749073D01*
X85554908Y-100788847D01*
X85758786Y-100788847D01*
X85958745Y-100749073D01*
X86147103Y-100671052D01*
X86316621Y-100557784D01*
X86460784Y-100413621D01*
X86574052Y-100244103D01*
X86652073Y-100055745D01*
X86691847Y-99855786D01*
X86691847Y-99793649D01*
X86853496Y-99632000D01*
X89224230Y-99632000D01*
X89321038Y-99749962D01*
X89327594Y-99755342D01*
X89247815Y-99820815D01*
X89168463Y-99917506D01*
X89109498Y-100027820D01*
X89073188Y-100147518D01*
X89060928Y-100272000D01*
X89064000Y-100486250D01*
X89222750Y-100645000D01*
X90297000Y-100645000D01*
X90297000Y-100625000D01*
X90551000Y-100625000D01*
X90551000Y-100645000D01*
X91625250Y-100645000D01*
X91784000Y-100486250D01*
X91787072Y-100272000D01*
X91774812Y-100147518D01*
X91738502Y-100027820D01*
X91679537Y-99917506D01*
X91600185Y-99820815D01*
X91520406Y-99755342D01*
X91526962Y-99749962D01*
X91637405Y-99615386D01*
X91719472Y-99461850D01*
X91770008Y-99295254D01*
X91787072Y-99122000D01*
X91787072Y-98995864D01*
X91864000Y-99072792D01*
X91864000Y-99134929D01*
X91903774Y-99334888D01*
X91981795Y-99523246D01*
X92095063Y-99692764D01*
X92239226Y-99836927D01*
X92408744Y-99950195D01*
X92425898Y-99957300D01*
X92387998Y-99995200D01*
X92359000Y-100018998D01*
X92335202Y-100047996D01*
X92335201Y-100047997D01*
X92264026Y-100134723D01*
X92193454Y-100266753D01*
X92167600Y-100351985D01*
X92149998Y-100410013D01*
X92144074Y-100470164D01*
X92135324Y-100558999D01*
X92139001Y-100596331D01*
X92139001Y-100769288D01*
X92095063Y-100813226D01*
X91981795Y-100982744D01*
X91903774Y-101171102D01*
X91864000Y-101371061D01*
X91864000Y-101574939D01*
X91903774Y-101774898D01*
X91950627Y-101888011D01*
X91305792Y-101888011D01*
X91393180Y-101861502D01*
X91503494Y-101802537D01*
X91600185Y-101723185D01*
X91679537Y-101626494D01*
X91738502Y-101516180D01*
X91774812Y-101396482D01*
X91787072Y-101272000D01*
X91784000Y-101057750D01*
X91625250Y-100899000D01*
X90551000Y-100899000D01*
X90551000Y-100919000D01*
X90297000Y-100919000D01*
X90297000Y-100899000D01*
X89222750Y-100899000D01*
X89064000Y-101057750D01*
X89060928Y-101272000D01*
X89073188Y-101396482D01*
X89109498Y-101516180D01*
X89168463Y-101626494D01*
X89247815Y-101723185D01*
X89344506Y-101802537D01*
X89454820Y-101861502D01*
X89542208Y-101888011D01*
X84266803Y-101888011D01*
X83712000Y-101333209D01*
X83712000Y-101271071D01*
X83672226Y-101071112D01*
X83594205Y-100882754D01*
X83480937Y-100713236D01*
X83336774Y-100569073D01*
X83167256Y-100455805D01*
X82978898Y-100377784D01*
X82778939Y-100338010D01*
X82575061Y-100338010D01*
X82375102Y-100377784D01*
X82186744Y-100455805D01*
X82017226Y-100569073D01*
X81873063Y-100713236D01*
X81759795Y-100882754D01*
X81681774Y-101071112D01*
X81642000Y-101271071D01*
X81627059Y-101271071D01*
X81624000Y-101057750D01*
X81465250Y-100899000D01*
X80391000Y-100899000D01*
X80137000Y-100899000D01*
X79062750Y-100899000D01*
X78904000Y-101057750D01*
X78900928Y-101272000D01*
X76225000Y-101272000D01*
X76225000Y-98622000D01*
X78900928Y-98622000D01*
X78900928Y-99122000D01*
X78917992Y-99295254D01*
X78968528Y-99461850D01*
X79050595Y-99615386D01*
X79161038Y-99749962D01*
X79167594Y-99755342D01*
X79087815Y-99820815D01*
X79008463Y-99917506D01*
X78949498Y-100027820D01*
X78913188Y-100147518D01*
X78900928Y-100272000D01*
X78904000Y-100486250D01*
X79062750Y-100645000D01*
X80137000Y-100645000D01*
X80137000Y-100625000D01*
X80391000Y-100625000D01*
X80391000Y-100645000D01*
X81465250Y-100645000D01*
X81624000Y-100486250D01*
X81627072Y-100272000D01*
X81614812Y-100147518D01*
X81578502Y-100027820D01*
X81519537Y-99917506D01*
X81440185Y-99820815D01*
X81360406Y-99755342D01*
X81366962Y-99749962D01*
X81477405Y-99615386D01*
X81559472Y-99461850D01*
X81610008Y-99295254D01*
X81627072Y-99122000D01*
X81627072Y-98622000D01*
X81610008Y-98448746D01*
X81559472Y-98282150D01*
X81477405Y-98128614D01*
X81366962Y-97994038D01*
X81232386Y-97883595D01*
X81078850Y-97801528D01*
X80912254Y-97750992D01*
X80739000Y-97733928D01*
X79789000Y-97733928D01*
X79615746Y-97750992D01*
X79449150Y-97801528D01*
X79295614Y-97883595D01*
X79161038Y-97994038D01*
X79050595Y-98128614D01*
X78968528Y-98282150D01*
X78917992Y-98448746D01*
X78900928Y-98622000D01*
X76225000Y-98622000D01*
X76225000Y-80155212D01*
X81463000Y-80155212D01*
X81463000Y-80378788D01*
X81506617Y-80598067D01*
X81592176Y-80804624D01*
X81716388Y-80990520D01*
X81874480Y-81148612D01*
X82060376Y-81272824D01*
X82266933Y-81358383D01*
X82486212Y-81402000D01*
X82709788Y-81402000D01*
X82929067Y-81358383D01*
X83135624Y-81272824D01*
X83321520Y-81148612D01*
X83479612Y-80990520D01*
X83603824Y-80804624D01*
X83689383Y-80598067D01*
X83733000Y-80378788D01*
X83733000Y-80155212D01*
X83689383Y-79935933D01*
X83603824Y-79729376D01*
X83479612Y-79543480D01*
X83321520Y-79385388D01*
X83135624Y-79261176D01*
X82929067Y-79175617D01*
X82709788Y-79132000D01*
X82486212Y-79132000D01*
X82266933Y-79175617D01*
X82060376Y-79261176D01*
X81874480Y-79385388D01*
X81716388Y-79543480D01*
X81592176Y-79729376D01*
X81506617Y-79935933D01*
X81463000Y-80155212D01*
X76225000Y-80155212D01*
X76225000Y-76867279D01*
X76249748Y-76614872D01*
X77140000Y-76614872D01*
X77140000Y-77055128D01*
X77225890Y-77486925D01*
X77394369Y-77893669D01*
X77638962Y-78259729D01*
X77950271Y-78571038D01*
X78316331Y-78815631D01*
X78723075Y-78984110D01*
X79154872Y-79070000D01*
X79595128Y-79070000D01*
X80026925Y-78984110D01*
X80433669Y-78815631D01*
X80799729Y-78571038D01*
X81111038Y-78259729D01*
X81355631Y-77893669D01*
X81524110Y-77486925D01*
X81610000Y-77055128D01*
X81610000Y-76614872D01*
X81524110Y-76183075D01*
X81376619Y-75827000D01*
X84209928Y-75827000D01*
X84209928Y-76827000D01*
X84226992Y-77000254D01*
X84277528Y-77166850D01*
X84359595Y-77320386D01*
X84470038Y-77454962D01*
X84604614Y-77565405D01*
X84758150Y-77647472D01*
X84924746Y-77698008D01*
X85098000Y-77715072D01*
X86098000Y-77715072D01*
X86271254Y-77698008D01*
X86437850Y-77647472D01*
X86591386Y-77565405D01*
X86725962Y-77454962D01*
X86836405Y-77320386D01*
X86855857Y-77283993D01*
X87820612Y-77283993D01*
X87886137Y-77522860D01*
X88133116Y-77638760D01*
X88397960Y-77704250D01*
X88670492Y-77716812D01*
X88940238Y-77675965D01*
X89196832Y-77583277D01*
X89309863Y-77522860D01*
X89375388Y-77283993D01*
X88598000Y-76506605D01*
X87820612Y-77283993D01*
X86855857Y-77283993D01*
X86918472Y-77166850D01*
X86969008Y-77000254D01*
X86986072Y-76827000D01*
X86986072Y-76399492D01*
X87208188Y-76399492D01*
X87249035Y-76669238D01*
X87341723Y-76925832D01*
X87402140Y-77038863D01*
X87641007Y-77104388D01*
X88418395Y-76327000D01*
X88777605Y-76327000D01*
X89554993Y-77104388D01*
X89793860Y-77038863D01*
X89909760Y-76791884D01*
X89975250Y-76527040D01*
X89987812Y-76254508D01*
X89946965Y-75984762D01*
X89854277Y-75728168D01*
X89793860Y-75615137D01*
X89554993Y-75549612D01*
X88777605Y-76327000D01*
X88418395Y-76327000D01*
X87641007Y-75549612D01*
X87402140Y-75615137D01*
X87286240Y-75862116D01*
X87220750Y-76126960D01*
X87208188Y-76399492D01*
X86986072Y-76399492D01*
X86986072Y-75827000D01*
X86969008Y-75653746D01*
X86918472Y-75487150D01*
X86855858Y-75370007D01*
X87820612Y-75370007D01*
X88598000Y-76147395D01*
X89375388Y-75370007D01*
X89309863Y-75131140D01*
X89062884Y-75015240D01*
X88798040Y-74949750D01*
X88525508Y-74937188D01*
X88255762Y-74978035D01*
X87999168Y-75070723D01*
X87886137Y-75131140D01*
X87820612Y-75370007D01*
X86855858Y-75370007D01*
X86836405Y-75333614D01*
X86725962Y-75199038D01*
X86591386Y-75088595D01*
X86437850Y-75006528D01*
X86271254Y-74955992D01*
X86098000Y-74938928D01*
X85098000Y-74938928D01*
X84924746Y-74955992D01*
X84758150Y-75006528D01*
X84604614Y-75088595D01*
X84470038Y-75199038D01*
X84359595Y-75333614D01*
X84277528Y-75487150D01*
X84226992Y-75653746D01*
X84209928Y-75827000D01*
X81376619Y-75827000D01*
X81355631Y-75776331D01*
X81111038Y-75410271D01*
X80799729Y-75098962D01*
X80433669Y-74854369D01*
X80026925Y-74685890D01*
X79595128Y-74600000D01*
X79154872Y-74600000D01*
X78723075Y-74685890D01*
X78316331Y-74854369D01*
X77950271Y-75098962D01*
X77638962Y-75410271D01*
X77394369Y-75776331D01*
X77225890Y-76183075D01*
X77140000Y-76614872D01*
X76249748Y-76614872D01*
X76288096Y-76223778D01*
X76465606Y-75635836D01*
X76753937Y-75093564D01*
X77142094Y-74617636D01*
X77615314Y-74226155D01*
X78155552Y-73934049D01*
X78742244Y-73752437D01*
X79383879Y-73685000D01*
X109314721Y-73685000D01*
X109958222Y-73748096D01*
G37*
X109958222Y-73748096D02*
X110546164Y-73925606D01*
X111088436Y-74213937D01*
X111564364Y-74602094D01*
X111955845Y-75075314D01*
X112247951Y-75615552D01*
X112429563Y-76202244D01*
X112497001Y-76843888D01*
X112497000Y-106774721D01*
X112433904Y-107418221D01*
X112256394Y-108006164D01*
X111968063Y-108548436D01*
X111579906Y-109024364D01*
X111106686Y-109415845D01*
X110566449Y-109707950D01*
X109979756Y-109889563D01*
X109338130Y-109957000D01*
X79407279Y-109957000D01*
X78763779Y-109893904D01*
X78175836Y-109716394D01*
X77633564Y-109428063D01*
X77157636Y-109039906D01*
X76766155Y-108566686D01*
X76474050Y-108026449D01*
X76292437Y-107439756D01*
X76225000Y-106798130D01*
X76225000Y-106614872D01*
X77140000Y-106614872D01*
X77140000Y-107055128D01*
X77225890Y-107486925D01*
X77394369Y-107893669D01*
X77638962Y-108259729D01*
X77950271Y-108571038D01*
X78316331Y-108815631D01*
X78723075Y-108984110D01*
X79154872Y-109070000D01*
X79595128Y-109070000D01*
X80026925Y-108984110D01*
X80433669Y-108815631D01*
X80799729Y-108571038D01*
X81111038Y-108259729D01*
X81355631Y-107893669D01*
X81485971Y-107578999D01*
X86363928Y-107578999D01*
X86363928Y-108829001D01*
X86380992Y-109002255D01*
X86431528Y-109168851D01*
X86513595Y-109322387D01*
X86624038Y-109456962D01*
X86758613Y-109567405D01*
X86912149Y-109649472D01*
X87078745Y-109700008D01*
X87251999Y-109717072D01*
X87877001Y-109717072D01*
X88050255Y-109700008D01*
X88216851Y-109649472D01*
X88370387Y-109567405D01*
X88504962Y-109456962D01*
X88615405Y-109322387D01*
X88697472Y-109168851D01*
X88724727Y-109079000D01*
X89288928Y-109079000D01*
X89301188Y-109203482D01*
X89337498Y-109323180D01*
X89396463Y-109433494D01*
X89475815Y-109530185D01*
X89572506Y-109609537D01*
X89682820Y-109668502D01*
X89802518Y-109704812D01*
X89927000Y-109717072D01*
X90203750Y-109714000D01*
X90362500Y-109555250D01*
X90362500Y-108331000D01*
X90616500Y-108331000D01*
X90616500Y-109555250D01*
X90775250Y-109714000D01*
X91052000Y-109717072D01*
X91176482Y-109704812D01*
X91296180Y-109668502D01*
X91406494Y-109609537D01*
X91503185Y-109530185D01*
X91582537Y-109433494D01*
X91641502Y-109323180D01*
X91677812Y-109203482D01*
X91690072Y-109079000D01*
X91687000Y-108489750D01*
X91528250Y-108331000D01*
X90616500Y-108331000D01*
X90362500Y-108331000D01*
X89450750Y-108331000D01*
X89292000Y-108489750D01*
X89288928Y-109079000D01*
X88724727Y-109079000D01*
X88748008Y-109002255D01*
X88765072Y-108829001D01*
X88765072Y-107578999D01*
X88748008Y-107405745D01*
X88724728Y-107329000D01*
X89288928Y-107329000D01*
X89292000Y-107918250D01*
X89450750Y-108077000D01*
X90362500Y-108077000D01*
X90362500Y-106852750D01*
X90616500Y-106852750D01*
X90616500Y-108077000D01*
X91528250Y-108077000D01*
X91687000Y-107918250D01*
X91690072Y-107329000D01*
X91677812Y-107204518D01*
X91641502Y-107084820D01*
X91582537Y-106974506D01*
X91503185Y-106877815D01*
X91406494Y-106798463D01*
X91296180Y-106739498D01*
X91176482Y-106703188D01*
X91052000Y-106690928D01*
X90775250Y-106694000D01*
X90616500Y-106852750D01*
X90362500Y-106852750D01*
X90203750Y-106694000D01*
X89927000Y-106690928D01*
X89802518Y-106703188D01*
X89682820Y-106739498D01*
X89572506Y-106798463D01*
X89475815Y-106877815D01*
X89396463Y-106974506D01*
X89337498Y-107084820D01*
X89301188Y-107204518D01*
X89288928Y-107329000D01*
X88724728Y-107329000D01*
X88697472Y-107239149D01*
X88615405Y-107085613D01*
X88504962Y-106951038D01*
X88370387Y-106840595D01*
X88216851Y-106758528D01*
X88050255Y-106707992D01*
X87877001Y-106690928D01*
X87251999Y-106690928D01*
X87078745Y-106707992D01*
X86912149Y-106758528D01*
X86758613Y-106840595D01*
X86624038Y-106951038D01*
X86513595Y-107085613D01*
X86431528Y-107239149D01*
X86380992Y-107405745D01*
X86363928Y-107578999D01*
X81485971Y-107578999D01*
X81524110Y-107486925D01*
X81610000Y-107055128D01*
X81610000Y-106614872D01*
X81524110Y-106183075D01*
X81355631Y-105776331D01*
X81111038Y-105410271D01*
X80799729Y-105098962D01*
X80433669Y-104854369D01*
X80026925Y-104685890D01*
X79595128Y-104600000D01*
X79154872Y-104600000D01*
X78723075Y-104685890D01*
X78316331Y-104854369D01*
X77950271Y-105098962D01*
X77638962Y-105410271D01*
X77394369Y-105776331D01*
X77225890Y-106183075D01*
X77140000Y-106614872D01*
X76225000Y-106614872D01*
X76225000Y-104530999D01*
X86363928Y-104530999D01*
X86363928Y-105781001D01*
X86380992Y-105954255D01*
X86431528Y-106120851D01*
X86513595Y-106274387D01*
X86624038Y-106408962D01*
X86758613Y-106519405D01*
X86912149Y-106601472D01*
X87078745Y-106652008D01*
X87251999Y-106669072D01*
X87877001Y-106669072D01*
X88050255Y-106652008D01*
X88216851Y-106601472D01*
X88370387Y-106519405D01*
X88504962Y-106408962D01*
X88615405Y-106274387D01*
X88697472Y-106120851D01*
X88724727Y-106031000D01*
X89288928Y-106031000D01*
X89301188Y-106155482D01*
X89337498Y-106275180D01*
X89396463Y-106385494D01*
X89475815Y-106482185D01*
X89572506Y-106561537D01*
X89682820Y-106620502D01*
X89802518Y-106656812D01*
X89927000Y-106669072D01*
X90203750Y-106666000D01*
X90362500Y-106507250D01*
X90362500Y-105283000D01*
X90616500Y-105283000D01*
X90616500Y-106507250D01*
X90775250Y-106666000D01*
X91052000Y-106669072D01*
X91176482Y-106656812D01*
X91296180Y-106620502D01*
X91306712Y-106614872D01*
X107140000Y-106614872D01*
X107140000Y-107055128D01*
X107225890Y-107486925D01*
X107394369Y-107893669D01*
X107638962Y-108259729D01*
X107950271Y-108571038D01*
X108316331Y-108815631D01*
X108723075Y-108984110D01*
X109154872Y-109070000D01*
X109595128Y-109070000D01*
X110026925Y-108984110D01*
X110433669Y-108815631D01*
X110799729Y-108571038D01*
X111111038Y-108259729D01*
X111355631Y-107893669D01*
X111524110Y-107486925D01*
X111610000Y-107055128D01*
X111610000Y-106614872D01*
X111524110Y-106183075D01*
X111355631Y-105776331D01*
X111111038Y-105410271D01*
X110799729Y-105098962D01*
X110433669Y-104854369D01*
X110026925Y-104685890D01*
X109595128Y-104600000D01*
X109154872Y-104600000D01*
X108723075Y-104685890D01*
X108316331Y-104854369D01*
X107950271Y-105098962D01*
X107638962Y-105410271D01*
X107394369Y-105776331D01*
X107225890Y-106183075D01*
X107140000Y-106614872D01*
X91306712Y-106614872D01*
X91406494Y-106561537D01*
X91503185Y-106482185D01*
X91582537Y-106385494D01*
X91641502Y-106275180D01*
X91677812Y-106155482D01*
X91690072Y-106031000D01*
X91687000Y-105441750D01*
X91528250Y-105283000D01*
X90616500Y-105283000D01*
X90362500Y-105283000D01*
X89450750Y-105283000D01*
X89292000Y-105441750D01*
X89288928Y-106031000D01*
X88724727Y-106031000D01*
X88748008Y-105954255D01*
X88765072Y-105781001D01*
X88765072Y-104530999D01*
X88748008Y-104357745D01*
X88724728Y-104281000D01*
X89288928Y-104281000D01*
X89292000Y-104870250D01*
X89450750Y-105029000D01*
X90362500Y-105029000D01*
X90362500Y-103804750D01*
X90616500Y-103804750D01*
X90616500Y-105029000D01*
X91528250Y-105029000D01*
X91687000Y-104870250D01*
X91690072Y-104281000D01*
X91677812Y-104156518D01*
X91641502Y-104036820D01*
X91582537Y-103926506D01*
X91503185Y-103829815D01*
X91406494Y-103750463D01*
X91296180Y-103691498D01*
X91176482Y-103655188D01*
X91052000Y-103642928D01*
X90775250Y-103646000D01*
X90616500Y-103804750D01*
X90362500Y-103804750D01*
X90203750Y-103646000D01*
X89927000Y-103642928D01*
X89802518Y-103655188D01*
X89682820Y-103691498D01*
X89572506Y-103750463D01*
X89475815Y-103829815D01*
X89396463Y-103926506D01*
X89337498Y-104036820D01*
X89301188Y-104156518D01*
X89288928Y-104281000D01*
X88724728Y-104281000D01*
X88697472Y-104191149D01*
X88615405Y-104037613D01*
X88504962Y-103903038D01*
X88370387Y-103792595D01*
X88216851Y-103710528D01*
X88050255Y-103659992D01*
X87877001Y-103642928D01*
X87251999Y-103642928D01*
X87078745Y-103659992D01*
X86912149Y-103710528D01*
X86758613Y-103792595D01*
X86624038Y-103903038D01*
X86513595Y-104037613D01*
X86431528Y-104191149D01*
X86380992Y-104357745D01*
X86363928Y-104530999D01*
X76225000Y-104530999D01*
X76225000Y-101272000D01*
X78900928Y-101272000D01*
X78913188Y-101396482D01*
X78949498Y-101516180D01*
X79008463Y-101626494D01*
X79087815Y-101723185D01*
X79184506Y-101802537D01*
X79294820Y-101861502D01*
X79414518Y-101897812D01*
X79539000Y-101910072D01*
X79978250Y-101907000D01*
X80137000Y-101748250D01*
X80137000Y-100899000D01*
X80391000Y-100899000D01*
X80391000Y-101748250D01*
X80549750Y-101907000D01*
X80989000Y-101910072D01*
X81113482Y-101897812D01*
X81233180Y-101861502D01*
X81343494Y-101802537D01*
X81440185Y-101723185D01*
X81519537Y-101626494D01*
X81578502Y-101516180D01*
X81614812Y-101396482D01*
X81627072Y-101272000D01*
X81627059Y-101271071D01*
X81642000Y-101271071D01*
X81642000Y-101474949D01*
X81681774Y-101674908D01*
X81759795Y-101863266D01*
X81873063Y-102032784D01*
X82017226Y-102176947D01*
X82186744Y-102290215D01*
X82375102Y-102368236D01*
X82575061Y-102408010D01*
X82637199Y-102408010D01*
X83388202Y-103159014D01*
X83412000Y-103188012D01*
X83527725Y-103282985D01*
X83659754Y-103353557D01*
X83803015Y-103397014D01*
X83914668Y-103408011D01*
X83914676Y-103408011D01*
X83952001Y-103411687D01*
X83989326Y-103408011D01*
X104301659Y-103408011D01*
X104338981Y-103411687D01*
X104376303Y-103408011D01*
X104376314Y-103408011D01*
X104487967Y-103397014D01*
X104631228Y-103353557D01*
X104763257Y-103282985D01*
X104878982Y-103188012D01*
X104902785Y-103159008D01*
X106841672Y-101220122D01*
X106840928Y-101272000D01*
X106853188Y-101396482D01*
X106889498Y-101516180D01*
X106948463Y-101626494D01*
X107027815Y-101723185D01*
X107124506Y-101802537D01*
X107234820Y-101861502D01*
X107354518Y-101897812D01*
X107479000Y-101910072D01*
X107918250Y-101907000D01*
X108077000Y-101748250D01*
X108077000Y-100899000D01*
X108331000Y-100899000D01*
X108331000Y-101748250D01*
X108489750Y-101907000D01*
X108929000Y-101910072D01*
X109053482Y-101897812D01*
X109173180Y-101861502D01*
X109283494Y-101802537D01*
X109380185Y-101723185D01*
X109459537Y-101626494D01*
X109518502Y-101516180D01*
X109554812Y-101396482D01*
X109567072Y-101272000D01*
X109564000Y-101057750D01*
X109405250Y-100899000D01*
X108331000Y-100899000D01*
X108077000Y-100899000D01*
X108057000Y-100899000D01*
X108057000Y-100645000D01*
X108077000Y-100645000D01*
X108077000Y-100625000D01*
X108331000Y-100625000D01*
X108331000Y-100645000D01*
X109405250Y-100645000D01*
X109564000Y-100486250D01*
X109567072Y-100272000D01*
X109554812Y-100147518D01*
X109518502Y-100027820D01*
X109459537Y-99917506D01*
X109380185Y-99820815D01*
X109300406Y-99755342D01*
X109306962Y-99749962D01*
X109403770Y-99632000D01*
X109432678Y-99632000D01*
X109470000Y-99635676D01*
X109507322Y-99632000D01*
X109507333Y-99632000D01*
X109618986Y-99621003D01*
X109762247Y-99577546D01*
X109894276Y-99506974D01*
X110010001Y-99412001D01*
X110033804Y-99382997D01*
X110718802Y-98698000D01*
X110780939Y-98698000D01*
X110980898Y-98658226D01*
X111169256Y-98580205D01*
X111338774Y-98466937D01*
X111482937Y-98322774D01*
X111596205Y-98153256D01*
X111674226Y-97964898D01*
X111714000Y-97764939D01*
X111714000Y-97561061D01*
X111674226Y-97361102D01*
X111596205Y-97172744D01*
X111482937Y-97003226D01*
X111338774Y-96859063D01*
X111169256Y-96745795D01*
X110980898Y-96667774D01*
X110780939Y-96628000D01*
X110577061Y-96628000D01*
X110377102Y-96667774D01*
X110188744Y-96745795D01*
X110019226Y-96859063D01*
X109875063Y-97003226D01*
X109761795Y-97172744D01*
X109683774Y-97361102D01*
X109644000Y-97561061D01*
X109644000Y-97623198D01*
X109288397Y-97978802D01*
X109172386Y-97883595D01*
X109018850Y-97801528D01*
X108852254Y-97750992D01*
X108679000Y-97733928D01*
X107729000Y-97733928D01*
X107555746Y-97750992D01*
X107389150Y-97801528D01*
X107235614Y-97883595D01*
X107101038Y-97994038D01*
X106990595Y-98128614D01*
X106908528Y-98282150D01*
X106857992Y-98448746D01*
X106840928Y-98622000D01*
X106840928Y-99025115D01*
X106702805Y-98886992D01*
X106679002Y-98857988D01*
X106563277Y-98763015D01*
X106431248Y-98692443D01*
X106287987Y-98648986D01*
X106176334Y-98637989D01*
X106176323Y-98637989D01*
X106139001Y-98634313D01*
X106101679Y-98637989D01*
X104732333Y-98637989D01*
X104695010Y-98634313D01*
X104657687Y-98637989D01*
X104657678Y-98637989D01*
X104546025Y-98648986D01*
X104402764Y-98692443D01*
X104341740Y-98725061D01*
X108461003Y-94605799D01*
X108490001Y-94582001D01*
X108567146Y-94488000D01*
X108584974Y-94466277D01*
X108655546Y-94334247D01*
X108699003Y-94190986D01*
X108710000Y-94079333D01*
X108710000Y-94079323D01*
X108713676Y-94042000D01*
X108710000Y-94004678D01*
X108710000Y-91381711D01*
X108753937Y-91337774D01*
X108867205Y-91168256D01*
X108945226Y-90979898D01*
X108985000Y-90779939D01*
X108985000Y-90576061D01*
X108945226Y-90376102D01*
X108867205Y-90187744D01*
X108753937Y-90018226D01*
X108609774Y-89874063D01*
X108440256Y-89760795D01*
X108251898Y-89682774D01*
X108051939Y-89643000D01*
X107848061Y-89643000D01*
X107648102Y-89682774D01*
X107459744Y-89760795D01*
X107290226Y-89874063D01*
X107146063Y-90018226D01*
X107032795Y-90187744D01*
X106954774Y-90376102D01*
X106915000Y-90576061D01*
X106915000Y-90779939D01*
X106954774Y-90979898D01*
X107032795Y-91168256D01*
X107146063Y-91337774D01*
X107190000Y-91381711D01*
X107190001Y-93727197D01*
X101380955Y-99536244D01*
X101344000Y-99499289D01*
X101344000Y-98312720D01*
X101347676Y-98275397D01*
X101344000Y-98238074D01*
X101344000Y-98238065D01*
X101333003Y-98126412D01*
X101289546Y-97983151D01*
X101265291Y-97937774D01*
X101218974Y-97851121D01*
X101147799Y-97764395D01*
X101124001Y-97735397D01*
X101095003Y-97711599D01*
X96160396Y-92776993D01*
X96136593Y-92747989D01*
X96020868Y-92653016D01*
X95888839Y-92582444D01*
X95745578Y-92538987D01*
X95633925Y-92527990D01*
X95633914Y-92527990D01*
X95596592Y-92524314D01*
X95559270Y-92527990D01*
X93934619Y-92527990D01*
X93994266Y-92400210D01*
X94057811Y-92140973D01*
X94069561Y-91874320D01*
X94029063Y-91610499D01*
X93937875Y-91359647D01*
X93881368Y-91253932D01*
X93645560Y-91192045D01*
X92889605Y-91948000D01*
X92903748Y-91962143D01*
X92724143Y-92141748D01*
X92710000Y-92127605D01*
X92695858Y-92141748D01*
X92516253Y-91962143D01*
X92530395Y-91948000D01*
X91774440Y-91192045D01*
X91538632Y-91253932D01*
X91425734Y-91495790D01*
X91362189Y-91755027D01*
X91350439Y-92021680D01*
X91390937Y-92285501D01*
X91482125Y-92536353D01*
X91490926Y-92552819D01*
X91393263Y-92582444D01*
X91261234Y-92653016D01*
X91261232Y-92653017D01*
X91261233Y-92653017D01*
X91174506Y-92724191D01*
X91174502Y-92724195D01*
X91145509Y-92747989D01*
X91121715Y-92776982D01*
X90912493Y-92986204D01*
X90798001Y-92974928D01*
X90172999Y-92974928D01*
X89999745Y-92991992D01*
X89833149Y-93042528D01*
X89679613Y-93124595D01*
X89650933Y-93148132D01*
X89196177Y-92693376D01*
X89202168Y-92678912D01*
X89265000Y-92363033D01*
X89265000Y-92040967D01*
X89202168Y-91725088D01*
X89078918Y-91427537D01*
X88899987Y-91159748D01*
X88752679Y-91012440D01*
X91954045Y-91012440D01*
X92710000Y-91768395D01*
X93465955Y-91012440D01*
X93404068Y-90776632D01*
X93162210Y-90663734D01*
X92902973Y-90600189D01*
X92636320Y-90588439D01*
X92372499Y-90628937D01*
X92121647Y-90720125D01*
X92015932Y-90776632D01*
X91954045Y-91012440D01*
X88752679Y-91012440D01*
X88672252Y-90932013D01*
X88404463Y-90753082D01*
X88106912Y-90629832D01*
X87791033Y-90567000D01*
X87468967Y-90567000D01*
X87153088Y-90629832D01*
X87064999Y-90666320D01*
X87064999Y-87999802D01*
X87138624Y-87926177D01*
X87153088Y-87932168D01*
X87468967Y-87995000D01*
X87791033Y-87995000D01*
X88106912Y-87932168D01*
X88121375Y-87926177D01*
X89092428Y-88897230D01*
X89092428Y-89017001D01*
X89109492Y-89190255D01*
X89160028Y-89356851D01*
X89242095Y-89510387D01*
X89352538Y-89644962D01*
X89487113Y-89755405D01*
X89640649Y-89837472D01*
X89807245Y-89888008D01*
X89980499Y-89905072D01*
X90605501Y-89905072D01*
X90778755Y-89888008D01*
X90945351Y-89837472D01*
X91098887Y-89755405D01*
X91233462Y-89644962D01*
X91343905Y-89510387D01*
X91425972Y-89356851D01*
X91453227Y-89267000D01*
X92017428Y-89267000D01*
X92029688Y-89391482D01*
X92065998Y-89511180D01*
X92124963Y-89621494D01*
X92204315Y-89718185D01*
X92301006Y-89797537D01*
X92411320Y-89856502D01*
X92531018Y-89892812D01*
X92655500Y-89905072D01*
X92932250Y-89902000D01*
X93091000Y-89743250D01*
X93091000Y-88519000D01*
X92179250Y-88519000D01*
X92020500Y-88677750D01*
X92017428Y-89267000D01*
X91453227Y-89267000D01*
X91476508Y-89190255D01*
X91493572Y-89017001D01*
X91493572Y-87766999D01*
X91476508Y-87593745D01*
X91425972Y-87427149D01*
X91343905Y-87273613D01*
X91233462Y-87139038D01*
X91098887Y-87028595D01*
X90945351Y-86946528D01*
X90778755Y-86895992D01*
X90605501Y-86878928D01*
X89980499Y-86878928D01*
X89807245Y-86895992D01*
X89640649Y-86946528D01*
X89487113Y-87028595D01*
X89424655Y-87079853D01*
X89196177Y-86851375D01*
X89202168Y-86836912D01*
X89211984Y-86787560D01*
X91954045Y-86787560D01*
X92015932Y-87023368D01*
X92177323Y-87098705D01*
X92124963Y-87162506D01*
X92065998Y-87272820D01*
X92029688Y-87392518D01*
X92017428Y-87517000D01*
X92020500Y-88106250D01*
X92179250Y-88265000D01*
X93091000Y-88265000D01*
X93091000Y-88245000D01*
X93345000Y-88245000D01*
X93345000Y-88265000D01*
X93365000Y-88265000D01*
X93365000Y-88519000D01*
X93345000Y-88519000D01*
X93345000Y-89743250D01*
X93503750Y-89902000D01*
X93780500Y-89905072D01*
X93904982Y-89892812D01*
X94024680Y-89856502D01*
X94134994Y-89797537D01*
X94231685Y-89718185D01*
X94311037Y-89621494D01*
X94370002Y-89511180D01*
X94389557Y-89446715D01*
X94608167Y-89592785D01*
X94854761Y-89694928D01*
X95116544Y-89747000D01*
X95383456Y-89747000D01*
X95645239Y-89694928D01*
X95891833Y-89592785D01*
X96113762Y-89444497D01*
X96302497Y-89255762D01*
X96450785Y-89033833D01*
X96552928Y-88787239D01*
X96605000Y-88525456D01*
X96605000Y-88258544D01*
X96552928Y-87996761D01*
X96450785Y-87750167D01*
X96302497Y-87528238D01*
X96113762Y-87339503D01*
X95891833Y-87191215D01*
X95645239Y-87089072D01*
X95383456Y-87037000D01*
X95116544Y-87037000D01*
X94854761Y-87089072D01*
X94608167Y-87191215D01*
X94389557Y-87337285D01*
X94370002Y-87272820D01*
X94311037Y-87162506D01*
X94231685Y-87065815D01*
X94134994Y-86986463D01*
X94024680Y-86927498D01*
X93904982Y-86891188D01*
X93780500Y-86878928D01*
X93503750Y-86882000D01*
X93418901Y-86966849D01*
X93465955Y-86787560D01*
X92710000Y-86031605D01*
X91954045Y-86787560D01*
X89211984Y-86787560D01*
X89265000Y-86521033D01*
X89265000Y-86198967D01*
X89210641Y-85925680D01*
X91350439Y-85925680D01*
X91390937Y-86189501D01*
X91482125Y-86440353D01*
X91538632Y-86546068D01*
X91774440Y-86607955D01*
X92530395Y-85852000D01*
X92889605Y-85852000D01*
X93645560Y-86607955D01*
X93881368Y-86546068D01*
X93994266Y-86304210D01*
X94057811Y-86044973D01*
X94069561Y-85778320D01*
X94060386Y-85718544D01*
X96435000Y-85718544D01*
X96435000Y-85985456D01*
X96487072Y-86247239D01*
X96589215Y-86493833D01*
X96737503Y-86715762D01*
X96926238Y-86904497D01*
X97030000Y-86973829D01*
X97030001Y-90826171D01*
X96926238Y-90895503D01*
X96737503Y-91084238D01*
X96589215Y-91306167D01*
X96487072Y-91552761D01*
X96435000Y-91814544D01*
X96435000Y-92081456D01*
X96487072Y-92343239D01*
X96589215Y-92589833D01*
X96737503Y-92811762D01*
X96926238Y-93000497D01*
X97148167Y-93148785D01*
X97394761Y-93250928D01*
X97656544Y-93303000D01*
X97923456Y-93303000D01*
X98185239Y-93250928D01*
X98431833Y-93148785D01*
X98653762Y-93000497D01*
X98842497Y-92811762D01*
X98990785Y-92589833D01*
X99092928Y-92343239D01*
X99145000Y-92081456D01*
X99145000Y-92040967D01*
X101489000Y-92040967D01*
X101489000Y-92363033D01*
X101551832Y-92678912D01*
X101675082Y-92976463D01*
X101854013Y-93244252D01*
X102081748Y-93471987D01*
X102349537Y-93650918D01*
X102647088Y-93774168D01*
X102962967Y-93837000D01*
X103285033Y-93837000D01*
X103600912Y-93774168D01*
X103898463Y-93650918D01*
X104166252Y-93471987D01*
X104393987Y-93244252D01*
X104572918Y-92976463D01*
X104696168Y-92678912D01*
X104759000Y-92363033D01*
X104759000Y-92040967D01*
X104696168Y-91725088D01*
X104572918Y-91427537D01*
X104393987Y-91159748D01*
X104166252Y-90932013D01*
X103898463Y-90753082D01*
X103600912Y-90629832D01*
X103285033Y-90567000D01*
X102962967Y-90567000D01*
X102647088Y-90629832D01*
X102349537Y-90753082D01*
X102081748Y-90932013D01*
X101854013Y-91159748D01*
X101675082Y-91427537D01*
X101551832Y-91725088D01*
X101489000Y-92040967D01*
X99145000Y-92040967D01*
X99145000Y-91814544D01*
X99092928Y-91552761D01*
X98990785Y-91306167D01*
X98842497Y-91084238D01*
X98653762Y-90895503D01*
X98550000Y-90826172D01*
X98550000Y-86973828D01*
X98653762Y-86904497D01*
X98842497Y-86715762D01*
X98990785Y-86493833D01*
X99092928Y-86247239D01*
X99145000Y-85985456D01*
X99145000Y-85944967D01*
X101489000Y-85944967D01*
X101489000Y-86267033D01*
X101551832Y-86582912D01*
X101675082Y-86880463D01*
X101854013Y-87148252D01*
X102081748Y-87375987D01*
X102349537Y-87554918D01*
X102647088Y-87678168D01*
X102962967Y-87741000D01*
X103285033Y-87741000D01*
X103600912Y-87678168D01*
X103898463Y-87554918D01*
X104166252Y-87375987D01*
X104393987Y-87148252D01*
X104572918Y-86880463D01*
X104696168Y-86582912D01*
X104759000Y-86267033D01*
X104759000Y-85944967D01*
X104696168Y-85629088D01*
X104572918Y-85331537D01*
X104393987Y-85063748D01*
X104166252Y-84836013D01*
X103898463Y-84657082D01*
X103600912Y-84533832D01*
X103285033Y-84471000D01*
X102962967Y-84471000D01*
X102647088Y-84533832D01*
X102349537Y-84657082D01*
X102081748Y-84836013D01*
X101854013Y-85063748D01*
X101675082Y-85331537D01*
X101551832Y-85629088D01*
X101489000Y-85944967D01*
X99145000Y-85944967D01*
X99145000Y-85718544D01*
X99092928Y-85456761D01*
X98990785Y-85210167D01*
X98842497Y-84988238D01*
X98653762Y-84799503D01*
X98431833Y-84651215D01*
X98185239Y-84549072D01*
X97923456Y-84497000D01*
X97656544Y-84497000D01*
X97394761Y-84549072D01*
X97148167Y-84651215D01*
X96926238Y-84799503D01*
X96737503Y-84988238D01*
X96589215Y-85210167D01*
X96487072Y-85456761D01*
X96435000Y-85718544D01*
X94060386Y-85718544D01*
X94029063Y-85514499D01*
X93937875Y-85263647D01*
X93881368Y-85157932D01*
X93645560Y-85096045D01*
X92889605Y-85852000D01*
X92530395Y-85852000D01*
X91774440Y-85096045D01*
X91538632Y-85157932D01*
X91425734Y-85399790D01*
X91362189Y-85659027D01*
X91350439Y-85925680D01*
X89210641Y-85925680D01*
X89202168Y-85883088D01*
X89196177Y-85868624D01*
X90148361Y-84916440D01*
X91954045Y-84916440D01*
X92710000Y-85672395D01*
X93465955Y-84916440D01*
X93404068Y-84680632D01*
X93162210Y-84567734D01*
X92902973Y-84504189D01*
X92636320Y-84492439D01*
X92372499Y-84532937D01*
X92121647Y-84624125D01*
X92015932Y-84680632D01*
X91954045Y-84916440D01*
X90148361Y-84916440D01*
X92934004Y-82130798D01*
X92963002Y-82107000D01*
X92989333Y-82074916D01*
X93057975Y-81991276D01*
X93128547Y-81859246D01*
X93172004Y-81715985D01*
X93183001Y-81604332D01*
X93183001Y-81604322D01*
X93186677Y-81567000D01*
X93183001Y-81529677D01*
X93183001Y-81355926D01*
X93188933Y-81358383D01*
X93408212Y-81402000D01*
X93631788Y-81402000D01*
X93851067Y-81358383D01*
X94057624Y-81272824D01*
X94243520Y-81148612D01*
X94401612Y-80990520D01*
X94525824Y-80804624D01*
X94611383Y-80598067D01*
X94655000Y-80378788D01*
X94655000Y-80155212D01*
X94611383Y-79935933D01*
X94525824Y-79729376D01*
X94401612Y-79543480D01*
X94249466Y-79391334D01*
X94450211Y-79190589D01*
X95135000Y-79190589D01*
X95135000Y-79463411D01*
X95188225Y-79730989D01*
X95292629Y-79983043D01*
X95444201Y-80209886D01*
X95637114Y-80402799D01*
X95863957Y-80554371D01*
X96116011Y-80658775D01*
X96383589Y-80712000D01*
X96656411Y-80712000D01*
X96923989Y-80658775D01*
X97176043Y-80554371D01*
X97402886Y-80402799D01*
X97595799Y-80209886D01*
X97747371Y-79983043D01*
X97851775Y-79730989D01*
X97905000Y-79463411D01*
X97905000Y-79190589D01*
X98135000Y-79190589D01*
X98135000Y-79463411D01*
X98188225Y-79730989D01*
X98292629Y-79983043D01*
X98444201Y-80209886D01*
X98637114Y-80402799D01*
X98863957Y-80554371D01*
X99116011Y-80658775D01*
X99383589Y-80712000D01*
X99656411Y-80712000D01*
X99923989Y-80658775D01*
X100176043Y-80554371D01*
X100402886Y-80402799D01*
X100521692Y-80283993D01*
X101742612Y-80283993D01*
X101808137Y-80522860D01*
X102055116Y-80638760D01*
X102319960Y-80704250D01*
X102592492Y-80716812D01*
X102862238Y-80675965D01*
X103118832Y-80583277D01*
X103231863Y-80522860D01*
X103297388Y-80283993D01*
X103168607Y-80155212D01*
X104385000Y-80155212D01*
X104385000Y-80378788D01*
X104428617Y-80598067D01*
X104514176Y-80804624D01*
X104638388Y-80990520D01*
X104796480Y-81148612D01*
X104982376Y-81272824D01*
X105188933Y-81358383D01*
X105408212Y-81402000D01*
X105631788Y-81402000D01*
X105851067Y-81358383D01*
X106057624Y-81272824D01*
X106243520Y-81148612D01*
X106401612Y-80990520D01*
X106525824Y-80804624D01*
X106611383Y-80598067D01*
X106655000Y-80378788D01*
X106655000Y-80155212D01*
X106611383Y-79935933D01*
X106525824Y-79729376D01*
X106401612Y-79543480D01*
X106243520Y-79385388D01*
X106057624Y-79261176D01*
X105851067Y-79175617D01*
X105631788Y-79132000D01*
X105408212Y-79132000D01*
X105188933Y-79175617D01*
X104982376Y-79261176D01*
X104796480Y-79385388D01*
X104638388Y-79543480D01*
X104514176Y-79729376D01*
X104428617Y-79935933D01*
X104385000Y-80155212D01*
X103168607Y-80155212D01*
X102520000Y-79506605D01*
X101742612Y-80283993D01*
X100521692Y-80283993D01*
X100595799Y-80209886D01*
X100747371Y-79983043D01*
X100851775Y-79730989D01*
X100905000Y-79463411D01*
X100905000Y-79399492D01*
X101130188Y-79399492D01*
X101171035Y-79669238D01*
X101263723Y-79925832D01*
X101324140Y-80038863D01*
X101563007Y-80104388D01*
X102340395Y-79327000D01*
X102699605Y-79327000D01*
X103476993Y-80104388D01*
X103715860Y-80038863D01*
X103831760Y-79791884D01*
X103897250Y-79527040D01*
X103909812Y-79254508D01*
X103868965Y-78984762D01*
X103776277Y-78728168D01*
X103715860Y-78615137D01*
X103476993Y-78549612D01*
X102699605Y-79327000D01*
X102340395Y-79327000D01*
X101563007Y-78549612D01*
X101324140Y-78615137D01*
X101208240Y-78862116D01*
X101142750Y-79126960D01*
X101130188Y-79399492D01*
X100905000Y-79399492D01*
X100905000Y-79190589D01*
X100851775Y-78923011D01*
X100747371Y-78670957D01*
X100595799Y-78444114D01*
X100521692Y-78370007D01*
X101742612Y-78370007D01*
X102520000Y-79147395D01*
X103297388Y-78370007D01*
X103231863Y-78131140D01*
X102984884Y-78015240D01*
X102720040Y-77949750D01*
X102447508Y-77937188D01*
X102177762Y-77978035D01*
X101921168Y-78070723D01*
X101808137Y-78131140D01*
X101742612Y-78370007D01*
X100521692Y-78370007D01*
X100402886Y-78251201D01*
X100176043Y-78099629D01*
X99923989Y-77995225D01*
X99656411Y-77942000D01*
X99383589Y-77942000D01*
X99116011Y-77995225D01*
X98863957Y-78099629D01*
X98637114Y-78251201D01*
X98444201Y-78444114D01*
X98292629Y-78670957D01*
X98188225Y-78923011D01*
X98135000Y-79190589D01*
X97905000Y-79190589D01*
X97851775Y-78923011D01*
X97747371Y-78670957D01*
X97595799Y-78444114D01*
X97402886Y-78251201D01*
X97176043Y-78099629D01*
X96923989Y-77995225D01*
X96656411Y-77942000D01*
X96383589Y-77942000D01*
X96116011Y-77995225D01*
X95863957Y-78099629D01*
X95637114Y-78251201D01*
X95444201Y-78444114D01*
X95292629Y-78670957D01*
X95188225Y-78923011D01*
X95135000Y-79190589D01*
X94450211Y-79190589D01*
X95934180Y-77706620D01*
X96020000Y-77715072D01*
X97020000Y-77715072D01*
X97193254Y-77698008D01*
X97359850Y-77647472D01*
X97513386Y-77565405D01*
X97647962Y-77454962D01*
X97758405Y-77320386D01*
X97840472Y-77166850D01*
X97891008Y-77000254D01*
X97908072Y-76827000D01*
X97908072Y-76011990D01*
X98130189Y-76011990D01*
X98163833Y-76045635D01*
X98135000Y-76190589D01*
X98135000Y-76463411D01*
X98188225Y-76730989D01*
X98292629Y-76983043D01*
X98444201Y-77209886D01*
X98637114Y-77402799D01*
X98863957Y-77554371D01*
X99116011Y-77658775D01*
X99383589Y-77712000D01*
X99656411Y-77712000D01*
X99923989Y-77658775D01*
X100176043Y-77554371D01*
X100402886Y-77402799D01*
X100521692Y-77283993D01*
X101742612Y-77283993D01*
X101808137Y-77522860D01*
X102055116Y-77638760D01*
X102319960Y-77704250D01*
X102592492Y-77716812D01*
X102862238Y-77675965D01*
X103118832Y-77583277D01*
X103231863Y-77522860D01*
X103297388Y-77283993D01*
X102520000Y-76506605D01*
X101742612Y-77283993D01*
X100521692Y-77283993D01*
X100595799Y-77209886D01*
X100747371Y-76983043D01*
X100851775Y-76730989D01*
X100905000Y-76463411D01*
X100905000Y-76399492D01*
X101130188Y-76399492D01*
X101171035Y-76669238D01*
X101263723Y-76925832D01*
X101324140Y-77038863D01*
X101563007Y-77104388D01*
X102340395Y-76327000D01*
X102699605Y-76327000D01*
X103476993Y-77104388D01*
X103715860Y-77038863D01*
X103831760Y-76791884D01*
X103875531Y-76614872D01*
X107140000Y-76614872D01*
X107140000Y-77055128D01*
X107225890Y-77486925D01*
X107394369Y-77893669D01*
X107638962Y-78259729D01*
X107950271Y-78571038D01*
X108316331Y-78815631D01*
X108723075Y-78984110D01*
X109154872Y-79070000D01*
X109595128Y-79070000D01*
X110026925Y-78984110D01*
X110433669Y-78815631D01*
X110799729Y-78571038D01*
X111111038Y-78259729D01*
X111355631Y-77893669D01*
X111524110Y-77486925D01*
X111610000Y-77055128D01*
X111610000Y-76614872D01*
X111524110Y-76183075D01*
X111355631Y-75776331D01*
X111111038Y-75410271D01*
X110799729Y-75098962D01*
X110433669Y-74854369D01*
X110026925Y-74685890D01*
X109595128Y-74600000D01*
X109154872Y-74600000D01*
X108723075Y-74685890D01*
X108316331Y-74854369D01*
X107950271Y-75098962D01*
X107638962Y-75410271D01*
X107394369Y-75776331D01*
X107225890Y-76183075D01*
X107140000Y-76614872D01*
X103875531Y-76614872D01*
X103897250Y-76527040D01*
X103909812Y-76254508D01*
X103868965Y-75984762D01*
X103776277Y-75728168D01*
X103715860Y-75615137D01*
X103476993Y-75549612D01*
X102699605Y-76327000D01*
X102340395Y-76327000D01*
X101563007Y-75549612D01*
X101324140Y-75615137D01*
X101208240Y-75862116D01*
X101142750Y-76126960D01*
X101130188Y-76399492D01*
X100905000Y-76399492D01*
X100905000Y-76190589D01*
X100851775Y-75923011D01*
X100747371Y-75670957D01*
X100595799Y-75444114D01*
X100521692Y-75370007D01*
X101742612Y-75370007D01*
X102520000Y-76147395D01*
X103297388Y-75370007D01*
X103231863Y-75131140D01*
X102984884Y-75015240D01*
X102720040Y-74949750D01*
X102447508Y-74937188D01*
X102177762Y-74978035D01*
X101921168Y-75070723D01*
X101808137Y-75131140D01*
X101742612Y-75370007D01*
X100521692Y-75370007D01*
X100402886Y-75251201D01*
X100176043Y-75099629D01*
X99923989Y-74995225D01*
X99656411Y-74942000D01*
X99383589Y-74942000D01*
X99238635Y-74970833D01*
X99008794Y-74740992D01*
X98984991Y-74711989D01*
X98869266Y-74617016D01*
X98737237Y-74546444D01*
X98593976Y-74502987D01*
X98482323Y-74491990D01*
X98482312Y-74491990D01*
X98444990Y-74488314D01*
X98407668Y-74491990D01*
X95429330Y-74491990D01*
X95392007Y-74488314D01*
X95354684Y-74491990D01*
X95354675Y-74491990D01*
X95243022Y-74502987D01*
X95099761Y-74546444D01*
X94967731Y-74617016D01*
X94912708Y-74662173D01*
X94852007Y-74711989D01*
X94828209Y-74740987D01*
X89952512Y-79616685D01*
X89983000Y-79463411D01*
X89983000Y-79190589D01*
X89929775Y-78923011D01*
X89825371Y-78670957D01*
X89673799Y-78444114D01*
X89480886Y-78251201D01*
X89254043Y-78099629D01*
X89001989Y-77995225D01*
X88734411Y-77942000D01*
X88461589Y-77942000D01*
X88194011Y-77995225D01*
X87941957Y-78099629D01*
X87715114Y-78251201D01*
X87522201Y-78444114D01*
X87370629Y-78670957D01*
X87266225Y-78923011D01*
X87213000Y-79190589D01*
X87213000Y-79463411D01*
X87241833Y-79608365D01*
X86741231Y-80108967D01*
X86825371Y-79983043D01*
X86929775Y-79730989D01*
X86983000Y-79463411D01*
X86983000Y-79190589D01*
X86929775Y-78923011D01*
X86825371Y-78670957D01*
X86673799Y-78444114D01*
X86480886Y-78251201D01*
X86254043Y-78099629D01*
X86001989Y-77995225D01*
X85734411Y-77942000D01*
X85461589Y-77942000D01*
X85194011Y-77995225D01*
X84941957Y-78099629D01*
X84715114Y-78251201D01*
X84522201Y-78444114D01*
X84370629Y-78670957D01*
X84266225Y-78923011D01*
X84213000Y-79190589D01*
X84213000Y-79463411D01*
X84266225Y-79730989D01*
X84370629Y-79983043D01*
X84522201Y-80209886D01*
X84715114Y-80402799D01*
X84941957Y-80554371D01*
X85194011Y-80658775D01*
X85461589Y-80712000D01*
X85734411Y-80712000D01*
X86001989Y-80658775D01*
X86254043Y-80554371D01*
X86379968Y-80470231D01*
X82228003Y-84622196D01*
X82198999Y-84645999D01*
X82170577Y-84680632D01*
X82104026Y-84761724D01*
X82033455Y-84893753D01*
X82033454Y-84893754D01*
X81989997Y-85037015D01*
X81979000Y-85148668D01*
X81979000Y-85148678D01*
X81975324Y-85186000D01*
X81979000Y-85223322D01*
X81979001Y-98329278D01*
X81935063Y-98373216D01*
X81821795Y-98542734D01*
X81743774Y-98731092D01*
X81704000Y-98931051D01*
X81704000Y-99134929D01*
X81743774Y-99334888D01*
X81821795Y-99523246D01*
X81935063Y-99692764D01*
X82079226Y-99836927D01*
X82248744Y-99950195D01*
X82437102Y-100028216D01*
X82637061Y-100067990D01*
X82840939Y-100067990D01*
X83040898Y-100028216D01*
X83229256Y-99950195D01*
X83398774Y-99836927D01*
X83542937Y-99692764D01*
X83656205Y-99523246D01*
X83734226Y-99334888D01*
X83774000Y-99134929D01*
X83774000Y-98931051D01*
X83734226Y-98731092D01*
X83656205Y-98542734D01*
X83542937Y-98373216D01*
X83499000Y-98329279D01*
X83499000Y-96178154D01*
X83565939Y-96178154D01*
X83765898Y-96138380D01*
X83954256Y-96060359D01*
X84123774Y-95947091D01*
X84267937Y-95802928D01*
X84381205Y-95633410D01*
X84459226Y-95445052D01*
X84499000Y-95245093D01*
X84499000Y-95041215D01*
X84459226Y-94841256D01*
X84381205Y-94652898D01*
X84267937Y-94483380D01*
X84224000Y-94439443D01*
X84224000Y-91297276D01*
X84327774Y-91227937D01*
X84471937Y-91083774D01*
X84585205Y-90914256D01*
X84663226Y-90725898D01*
X84703000Y-90525939D01*
X84703000Y-90322061D01*
X84663226Y-90122102D01*
X84585205Y-89933744D01*
X84471937Y-89764226D01*
X84428000Y-89720289D01*
X84428000Y-87290799D01*
X86277376Y-85441424D01*
X86181082Y-85585537D01*
X86057832Y-85883088D01*
X85995000Y-86198967D01*
X85995000Y-86521033D01*
X86057832Y-86836912D01*
X86063823Y-86851376D01*
X85794001Y-87121198D01*
X85764998Y-87145000D01*
X85727071Y-87191215D01*
X85670025Y-87260725D01*
X85627917Y-87339503D01*
X85599453Y-87392755D01*
X85555996Y-87536016D01*
X85544999Y-87647669D01*
X85544999Y-87647679D01*
X85541323Y-87685001D01*
X85544999Y-87722324D01*
X85545000Y-93633667D01*
X85541323Y-93670999D01*
X85545000Y-93708332D01*
X85555997Y-93819985D01*
X85563939Y-93846167D01*
X85599453Y-93963245D01*
X85670025Y-94095275D01*
X85713237Y-94147928D01*
X85764999Y-94211000D01*
X85793997Y-94234798D01*
X88119000Y-96559802D01*
X88119000Y-96621939D01*
X88123059Y-96642345D01*
X88050939Y-96628000D01*
X87847061Y-96628000D01*
X87647102Y-96667774D01*
X87458744Y-96745795D01*
X87289226Y-96859063D01*
X87145063Y-97003226D01*
X87031795Y-97172744D01*
X86953774Y-97361102D01*
X86914000Y-97561061D01*
X86914000Y-97764939D01*
X86953774Y-97964898D01*
X87014706Y-98112000D01*
X86576016Y-98112000D01*
X86538694Y-98108324D01*
X86501371Y-98112000D01*
X86501361Y-98112000D01*
X86389708Y-98122997D01*
X86246447Y-98166454D01*
X86114417Y-98237026D01*
X86040089Y-98298026D01*
X85998693Y-98331999D01*
X85974895Y-98360997D01*
X85617045Y-98718847D01*
X85554908Y-98718847D01*
X85354949Y-98758621D01*
X85166591Y-98836642D01*
X84997073Y-98949910D01*
X84852910Y-99094073D01*
X84739642Y-99263591D01*
X84661621Y-99451949D01*
X84621847Y-99651908D01*
X84621847Y-99855786D01*
X84661621Y-100055745D01*
X84739642Y-100244103D01*
X84852910Y-100413621D01*
X84997073Y-100557784D01*
X85166591Y-100671052D01*
X85354949Y-100749073D01*
X85554908Y-100788847D01*
X85758786Y-100788847D01*
X85958745Y-100749073D01*
X86147103Y-100671052D01*
X86316621Y-100557784D01*
X86460784Y-100413621D01*
X86574052Y-100244103D01*
X86652073Y-100055745D01*
X86691847Y-99855786D01*
X86691847Y-99793649D01*
X86853496Y-99632000D01*
X89224230Y-99632000D01*
X89321038Y-99749962D01*
X89327594Y-99755342D01*
X89247815Y-99820815D01*
X89168463Y-99917506D01*
X89109498Y-100027820D01*
X89073188Y-100147518D01*
X89060928Y-100272000D01*
X89064000Y-100486250D01*
X89222750Y-100645000D01*
X90297000Y-100645000D01*
X90297000Y-100625000D01*
X90551000Y-100625000D01*
X90551000Y-100645000D01*
X91625250Y-100645000D01*
X91784000Y-100486250D01*
X91787072Y-100272000D01*
X91774812Y-100147518D01*
X91738502Y-100027820D01*
X91679537Y-99917506D01*
X91600185Y-99820815D01*
X91520406Y-99755342D01*
X91526962Y-99749962D01*
X91637405Y-99615386D01*
X91719472Y-99461850D01*
X91770008Y-99295254D01*
X91787072Y-99122000D01*
X91787072Y-98995864D01*
X91864000Y-99072792D01*
X91864000Y-99134929D01*
X91903774Y-99334888D01*
X91981795Y-99523246D01*
X92095063Y-99692764D01*
X92239226Y-99836927D01*
X92408744Y-99950195D01*
X92425898Y-99957300D01*
X92387998Y-99995200D01*
X92359000Y-100018998D01*
X92335202Y-100047996D01*
X92335201Y-100047997D01*
X92264026Y-100134723D01*
X92193454Y-100266753D01*
X92167600Y-100351985D01*
X92149998Y-100410013D01*
X92144074Y-100470164D01*
X92135324Y-100558999D01*
X92139001Y-100596331D01*
X92139001Y-100769288D01*
X92095063Y-100813226D01*
X91981795Y-100982744D01*
X91903774Y-101171102D01*
X91864000Y-101371061D01*
X91864000Y-101574939D01*
X91903774Y-101774898D01*
X91950627Y-101888011D01*
X91305792Y-101888011D01*
X91393180Y-101861502D01*
X91503494Y-101802537D01*
X91600185Y-101723185D01*
X91679537Y-101626494D01*
X91738502Y-101516180D01*
X91774812Y-101396482D01*
X91787072Y-101272000D01*
X91784000Y-101057750D01*
X91625250Y-100899000D01*
X90551000Y-100899000D01*
X90551000Y-100919000D01*
X90297000Y-100919000D01*
X90297000Y-100899000D01*
X89222750Y-100899000D01*
X89064000Y-101057750D01*
X89060928Y-101272000D01*
X89073188Y-101396482D01*
X89109498Y-101516180D01*
X89168463Y-101626494D01*
X89247815Y-101723185D01*
X89344506Y-101802537D01*
X89454820Y-101861502D01*
X89542208Y-101888011D01*
X84266803Y-101888011D01*
X83712000Y-101333209D01*
X83712000Y-101271071D01*
X83672226Y-101071112D01*
X83594205Y-100882754D01*
X83480937Y-100713236D01*
X83336774Y-100569073D01*
X83167256Y-100455805D01*
X82978898Y-100377784D01*
X82778939Y-100338010D01*
X82575061Y-100338010D01*
X82375102Y-100377784D01*
X82186744Y-100455805D01*
X82017226Y-100569073D01*
X81873063Y-100713236D01*
X81759795Y-100882754D01*
X81681774Y-101071112D01*
X81642000Y-101271071D01*
X81627059Y-101271071D01*
X81624000Y-101057750D01*
X81465250Y-100899000D01*
X80391000Y-100899000D01*
X80137000Y-100899000D01*
X79062750Y-100899000D01*
X78904000Y-101057750D01*
X78900928Y-101272000D01*
X76225000Y-101272000D01*
X76225000Y-98622000D01*
X78900928Y-98622000D01*
X78900928Y-99122000D01*
X78917992Y-99295254D01*
X78968528Y-99461850D01*
X79050595Y-99615386D01*
X79161038Y-99749962D01*
X79167594Y-99755342D01*
X79087815Y-99820815D01*
X79008463Y-99917506D01*
X78949498Y-100027820D01*
X78913188Y-100147518D01*
X78900928Y-100272000D01*
X78904000Y-100486250D01*
X79062750Y-100645000D01*
X80137000Y-100645000D01*
X80137000Y-100625000D01*
X80391000Y-100625000D01*
X80391000Y-100645000D01*
X81465250Y-100645000D01*
X81624000Y-100486250D01*
X81627072Y-100272000D01*
X81614812Y-100147518D01*
X81578502Y-100027820D01*
X81519537Y-99917506D01*
X81440185Y-99820815D01*
X81360406Y-99755342D01*
X81366962Y-99749962D01*
X81477405Y-99615386D01*
X81559472Y-99461850D01*
X81610008Y-99295254D01*
X81627072Y-99122000D01*
X81627072Y-98622000D01*
X81610008Y-98448746D01*
X81559472Y-98282150D01*
X81477405Y-98128614D01*
X81366962Y-97994038D01*
X81232386Y-97883595D01*
X81078850Y-97801528D01*
X80912254Y-97750992D01*
X80739000Y-97733928D01*
X79789000Y-97733928D01*
X79615746Y-97750992D01*
X79449150Y-97801528D01*
X79295614Y-97883595D01*
X79161038Y-97994038D01*
X79050595Y-98128614D01*
X78968528Y-98282150D01*
X78917992Y-98448746D01*
X78900928Y-98622000D01*
X76225000Y-98622000D01*
X76225000Y-80155212D01*
X81463000Y-80155212D01*
X81463000Y-80378788D01*
X81506617Y-80598067D01*
X81592176Y-80804624D01*
X81716388Y-80990520D01*
X81874480Y-81148612D01*
X82060376Y-81272824D01*
X82266933Y-81358383D01*
X82486212Y-81402000D01*
X82709788Y-81402000D01*
X82929067Y-81358383D01*
X83135624Y-81272824D01*
X83321520Y-81148612D01*
X83479612Y-80990520D01*
X83603824Y-80804624D01*
X83689383Y-80598067D01*
X83733000Y-80378788D01*
X83733000Y-80155212D01*
X83689383Y-79935933D01*
X83603824Y-79729376D01*
X83479612Y-79543480D01*
X83321520Y-79385388D01*
X83135624Y-79261176D01*
X82929067Y-79175617D01*
X82709788Y-79132000D01*
X82486212Y-79132000D01*
X82266933Y-79175617D01*
X82060376Y-79261176D01*
X81874480Y-79385388D01*
X81716388Y-79543480D01*
X81592176Y-79729376D01*
X81506617Y-79935933D01*
X81463000Y-80155212D01*
X76225000Y-80155212D01*
X76225000Y-76867279D01*
X76249748Y-76614872D01*
X77140000Y-76614872D01*
X77140000Y-77055128D01*
X77225890Y-77486925D01*
X77394369Y-77893669D01*
X77638962Y-78259729D01*
X77950271Y-78571038D01*
X78316331Y-78815631D01*
X78723075Y-78984110D01*
X79154872Y-79070000D01*
X79595128Y-79070000D01*
X80026925Y-78984110D01*
X80433669Y-78815631D01*
X80799729Y-78571038D01*
X81111038Y-78259729D01*
X81355631Y-77893669D01*
X81524110Y-77486925D01*
X81610000Y-77055128D01*
X81610000Y-76614872D01*
X81524110Y-76183075D01*
X81376619Y-75827000D01*
X84209928Y-75827000D01*
X84209928Y-76827000D01*
X84226992Y-77000254D01*
X84277528Y-77166850D01*
X84359595Y-77320386D01*
X84470038Y-77454962D01*
X84604614Y-77565405D01*
X84758150Y-77647472D01*
X84924746Y-77698008D01*
X85098000Y-77715072D01*
X86098000Y-77715072D01*
X86271254Y-77698008D01*
X86437850Y-77647472D01*
X86591386Y-77565405D01*
X86725962Y-77454962D01*
X86836405Y-77320386D01*
X86855857Y-77283993D01*
X87820612Y-77283993D01*
X87886137Y-77522860D01*
X88133116Y-77638760D01*
X88397960Y-77704250D01*
X88670492Y-77716812D01*
X88940238Y-77675965D01*
X89196832Y-77583277D01*
X89309863Y-77522860D01*
X89375388Y-77283993D01*
X88598000Y-76506605D01*
X87820612Y-77283993D01*
X86855857Y-77283993D01*
X86918472Y-77166850D01*
X86969008Y-77000254D01*
X86986072Y-76827000D01*
X86986072Y-76399492D01*
X87208188Y-76399492D01*
X87249035Y-76669238D01*
X87341723Y-76925832D01*
X87402140Y-77038863D01*
X87641007Y-77104388D01*
X88418395Y-76327000D01*
X88777605Y-76327000D01*
X89554993Y-77104388D01*
X89793860Y-77038863D01*
X89909760Y-76791884D01*
X89975250Y-76527040D01*
X89987812Y-76254508D01*
X89946965Y-75984762D01*
X89854277Y-75728168D01*
X89793860Y-75615137D01*
X89554993Y-75549612D01*
X88777605Y-76327000D01*
X88418395Y-76327000D01*
X87641007Y-75549612D01*
X87402140Y-75615137D01*
X87286240Y-75862116D01*
X87220750Y-76126960D01*
X87208188Y-76399492D01*
X86986072Y-76399492D01*
X86986072Y-75827000D01*
X86969008Y-75653746D01*
X86918472Y-75487150D01*
X86855858Y-75370007D01*
X87820612Y-75370007D01*
X88598000Y-76147395D01*
X89375388Y-75370007D01*
X89309863Y-75131140D01*
X89062884Y-75015240D01*
X88798040Y-74949750D01*
X88525508Y-74937188D01*
X88255762Y-74978035D01*
X87999168Y-75070723D01*
X87886137Y-75131140D01*
X87820612Y-75370007D01*
X86855858Y-75370007D01*
X86836405Y-75333614D01*
X86725962Y-75199038D01*
X86591386Y-75088595D01*
X86437850Y-75006528D01*
X86271254Y-74955992D01*
X86098000Y-74938928D01*
X85098000Y-74938928D01*
X84924746Y-74955992D01*
X84758150Y-75006528D01*
X84604614Y-75088595D01*
X84470038Y-75199038D01*
X84359595Y-75333614D01*
X84277528Y-75487150D01*
X84226992Y-75653746D01*
X84209928Y-75827000D01*
X81376619Y-75827000D01*
X81355631Y-75776331D01*
X81111038Y-75410271D01*
X80799729Y-75098962D01*
X80433669Y-74854369D01*
X80026925Y-74685890D01*
X79595128Y-74600000D01*
X79154872Y-74600000D01*
X78723075Y-74685890D01*
X78316331Y-74854369D01*
X77950271Y-75098962D01*
X77638962Y-75410271D01*
X77394369Y-75776331D01*
X77225890Y-76183075D01*
X77140000Y-76614872D01*
X76249748Y-76614872D01*
X76288096Y-76223778D01*
X76465606Y-75635836D01*
X76753937Y-75093564D01*
X77142094Y-74617636D01*
X77615314Y-74226155D01*
X78155552Y-73934049D01*
X78742244Y-73752437D01*
X79383879Y-73685000D01*
X109314721Y-73685000D01*
X109958222Y-73748096D01*
G36*
X94809000Y-99797868D02*
G01*
X94805324Y-99835190D01*
X94809000Y-99872512D01*
X94809000Y-99872522D01*
X94819997Y-99984175D01*
X94856204Y-100103535D01*
X94863454Y-100127436D01*
X94934026Y-100259466D01*
X94944293Y-100271976D01*
X95028999Y-100375191D01*
X95058003Y-100398994D01*
X96547019Y-101888011D01*
X93847373Y-101888011D01*
X93894226Y-101774898D01*
X93934000Y-101574939D01*
X93934000Y-101371061D01*
X93894226Y-101171102D01*
X93816205Y-100982744D01*
X93709601Y-100823199D01*
X94809000Y-99723801D01*
X94809000Y-99797868D01*
G37*
X94809000Y-99797868D02*
X94805324Y-99835190D01*
X94809000Y-99872512D01*
X94809000Y-99872522D01*
X94819997Y-99984175D01*
X94856204Y-100103535D01*
X94863454Y-100127436D01*
X94934026Y-100259466D01*
X94944293Y-100271976D01*
X95028999Y-100375191D01*
X95058003Y-100398994D01*
X96547019Y-101888011D01*
X93847373Y-101888011D01*
X93894226Y-101774898D01*
X93934000Y-101574939D01*
X93934000Y-101371061D01*
X93894226Y-101171102D01*
X93816205Y-100982744D01*
X93709601Y-100823199D01*
X94809000Y-99723801D01*
X94809000Y-99797868D01*
G36*
X99824001Y-98590201D02*
G01*
X99824000Y-99499289D01*
X99780063Y-99543226D01*
X99666795Y-99712744D01*
X99588774Y-99901102D01*
X99549000Y-100101061D01*
X99549000Y-100304939D01*
X99588774Y-100504898D01*
X99666795Y-100693256D01*
X99734182Y-100794107D01*
X99715063Y-100813226D01*
X99601795Y-100982744D01*
X99523774Y-101171102D01*
X99484000Y-101371061D01*
X99484000Y-101438001D01*
X99382217Y-101438001D01*
X99394812Y-101396482D01*
X99407072Y-101272000D01*
X99404000Y-101057750D01*
X99245250Y-100899000D01*
X98171000Y-100899000D01*
X98171000Y-100919000D01*
X97917000Y-100919000D01*
X97917000Y-100899000D01*
X97897000Y-100899000D01*
X97897000Y-100645000D01*
X97917000Y-100645000D01*
X97917000Y-100625000D01*
X98171000Y-100625000D01*
X98171000Y-100645000D01*
X99245250Y-100645000D01*
X99404000Y-100486250D01*
X99407072Y-100272000D01*
X99394812Y-100147518D01*
X99358502Y-100027820D01*
X99299537Y-99917506D01*
X99220185Y-99820815D01*
X99140406Y-99755342D01*
X99146962Y-99749962D01*
X99257405Y-99615386D01*
X99339472Y-99461850D01*
X99390008Y-99295254D01*
X99407072Y-99122000D01*
X99407072Y-98622000D01*
X99390008Y-98448746D01*
X99339472Y-98282150D01*
X99257405Y-98128614D01*
X99146962Y-97994038D01*
X99049362Y-97913940D01*
X99065684Y-97831884D01*
X99824001Y-98590201D01*
G37*
X99824001Y-98590201D02*
X99824000Y-99499289D01*
X99780063Y-99543226D01*
X99666795Y-99712744D01*
X99588774Y-99901102D01*
X99549000Y-100101061D01*
X99549000Y-100304939D01*
X99588774Y-100504898D01*
X99666795Y-100693256D01*
X99734182Y-100794107D01*
X99715063Y-100813226D01*
X99601795Y-100982744D01*
X99523774Y-101171102D01*
X99484000Y-101371061D01*
X99484000Y-101438001D01*
X99382217Y-101438001D01*
X99394812Y-101396482D01*
X99407072Y-101272000D01*
X99404000Y-101057750D01*
X99245250Y-100899000D01*
X98171000Y-100899000D01*
X98171000Y-100919000D01*
X97917000Y-100919000D01*
X97917000Y-100899000D01*
X97897000Y-100899000D01*
X97897000Y-100645000D01*
X97917000Y-100645000D01*
X97917000Y-100625000D01*
X98171000Y-100625000D01*
X98171000Y-100645000D01*
X99245250Y-100645000D01*
X99404000Y-100486250D01*
X99407072Y-100272000D01*
X99394812Y-100147518D01*
X99358502Y-100027820D01*
X99299537Y-99917506D01*
X99220185Y-99820815D01*
X99140406Y-99755342D01*
X99146962Y-99749962D01*
X99257405Y-99615386D01*
X99339472Y-99461850D01*
X99390008Y-99295254D01*
X99407072Y-99122000D01*
X99407072Y-98622000D01*
X99390008Y-98448746D01*
X99339472Y-98282150D01*
X99257405Y-98128614D01*
X99146962Y-97994038D01*
X99049362Y-97913940D01*
X99065684Y-97831884D01*
X99824001Y-98590201D01*
G36*
X92213000Y-94202250D02*
G01*
X92371750Y-94361000D01*
X93283500Y-94361000D01*
X93283500Y-94341000D01*
X93537500Y-94341000D01*
X93537500Y-94361000D01*
X93557500Y-94361000D01*
X93557500Y-94615000D01*
X93537500Y-94615000D01*
X93537500Y-95839250D01*
X93696250Y-95998000D01*
X93973000Y-96001072D01*
X94097482Y-95988812D01*
X94217180Y-95952502D01*
X94327494Y-95893537D01*
X94424185Y-95814185D01*
X94490000Y-95733989D01*
X94490001Y-97893196D01*
X93823310Y-98559887D01*
X93816205Y-98542734D01*
X93702937Y-98373216D01*
X93558774Y-98229053D01*
X93389256Y-98115785D01*
X93200898Y-98037764D01*
X93000939Y-97997990D01*
X92938802Y-97997990D01*
X92092813Y-97152002D01*
X92069011Y-97122999D01*
X91953286Y-97028026D01*
X91821257Y-96957454D01*
X91677996Y-96913997D01*
X91566343Y-96903000D01*
X91566332Y-96903000D01*
X91529010Y-96899324D01*
X91491688Y-96903000D01*
X90115632Y-96903000D01*
X90149226Y-96821898D01*
X90189000Y-96621939D01*
X90189000Y-96418061D01*
X90149226Y-96218102D01*
X90071205Y-96029744D01*
X90043527Y-95988320D01*
X90172999Y-96001072D01*
X90798001Y-96001072D01*
X90971255Y-95984008D01*
X91137851Y-95933472D01*
X91291387Y-95851405D01*
X91425962Y-95740962D01*
X91536405Y-95606387D01*
X91618472Y-95452851D01*
X91645727Y-95363000D01*
X92209928Y-95363000D01*
X92222188Y-95487482D01*
X92258498Y-95607180D01*
X92317463Y-95717494D01*
X92396815Y-95814185D01*
X92493506Y-95893537D01*
X92603820Y-95952502D01*
X92723518Y-95988812D01*
X92848000Y-96001072D01*
X93124750Y-95998000D01*
X93283500Y-95839250D01*
X93283500Y-94615000D01*
X92371750Y-94615000D01*
X92213000Y-94773750D01*
X92209928Y-95363000D01*
X91645727Y-95363000D01*
X91669008Y-95286255D01*
X91686072Y-95113001D01*
X91686072Y-94362230D01*
X92000313Y-94047990D01*
X92212196Y-94047990D01*
X92213000Y-94202250D01*
G37*
X92213000Y-94202250D02*
X92371750Y-94361000D01*
X93283500Y-94361000D01*
X93283500Y-94341000D01*
X93537500Y-94341000D01*
X93537500Y-94361000D01*
X93557500Y-94361000D01*
X93557500Y-94615000D01*
X93537500Y-94615000D01*
X93537500Y-95839250D01*
X93696250Y-95998000D01*
X93973000Y-96001072D01*
X94097482Y-95988812D01*
X94217180Y-95952502D01*
X94327494Y-95893537D01*
X94424185Y-95814185D01*
X94490000Y-95733989D01*
X94490001Y-97893196D01*
X93823310Y-98559887D01*
X93816205Y-98542734D01*
X93702937Y-98373216D01*
X93558774Y-98229053D01*
X93389256Y-98115785D01*
X93200898Y-98037764D01*
X93000939Y-97997990D01*
X92938802Y-97997990D01*
X92092813Y-97152002D01*
X92069011Y-97122999D01*
X91953286Y-97028026D01*
X91821257Y-96957454D01*
X91677996Y-96913997D01*
X91566343Y-96903000D01*
X91566332Y-96903000D01*
X91529010Y-96899324D01*
X91491688Y-96903000D01*
X90115632Y-96903000D01*
X90149226Y-96821898D01*
X90189000Y-96621939D01*
X90189000Y-96418061D01*
X90149226Y-96218102D01*
X90071205Y-96029744D01*
X90043527Y-95988320D01*
X90172999Y-96001072D01*
X90798001Y-96001072D01*
X90971255Y-95984008D01*
X91137851Y-95933472D01*
X91291387Y-95851405D01*
X91425962Y-95740962D01*
X91536405Y-95606387D01*
X91618472Y-95452851D01*
X91645727Y-95363000D01*
X92209928Y-95363000D01*
X92222188Y-95487482D01*
X92258498Y-95607180D01*
X92317463Y-95717494D01*
X92396815Y-95814185D01*
X92493506Y-95893537D01*
X92603820Y-95952502D01*
X92723518Y-95988812D01*
X92848000Y-96001072D01*
X93124750Y-95998000D01*
X93283500Y-95839250D01*
X93283500Y-94615000D01*
X92371750Y-94615000D01*
X92213000Y-94773750D01*
X92209928Y-95363000D01*
X91645727Y-95363000D01*
X91669008Y-95286255D01*
X91686072Y-95113001D01*
X91686072Y-94362230D01*
X92000313Y-94047990D01*
X92212196Y-94047990D01*
X92213000Y-94202250D01*
M02*
