M48
INCH,TZ
T1C0.0157
T2C0.0315
T3C0.0394
%
G90
G05
T1
X31573Y-38899
X31601Y-39675
X32550Y-39911
X32574Y-38989
X32860Y-37458
X32940Y-35600
X33723Y-39273
X34474Y-41400
X34474Y-42600
X34626Y-38450
X34694Y-39911
X35100Y-38000
X35600Y-38926
X36574Y-38989
X36574Y-39950
X36776Y-37200
X37626Y-38950
X37650Y-39950
X38555Y-39735
X38600Y-38450
X39574Y-39950
X39600Y-39450
X40600Y-39752
X41650Y-39419
X42500Y-35700
X42600Y-39989
X43500Y-36776
X43574Y-38450
T2
X36500Y-33800
X37500Y-34800
X38500Y-33800
X36500Y-36200
X37500Y-37200
X38500Y-36200
T3
X34500Y-36300
X40600Y-33900
X34500Y-34000
X33700Y-30050
X33700Y-31231
X34881Y-30050
X34881Y-31231
X40600Y-36300
X38000Y-30050
X38000Y-31231
X39181Y-30050
X39181Y-31231
X40362Y-30050
X40362Y-31231
T0
M30
