G04 #@! TF.GenerationSoftware,KiCad,Pcbnew,(5.1.6)-1*
G04 #@! TF.CreationDate,2021-06-24T15:17:58+10:00*
G04 #@! TF.ProjectId,BSPD,42535044-2e6b-4696-9361-645f70636258,rev?*
G04 #@! TF.SameCoordinates,Original*
G04 #@! TF.FileFunction,Legend,Top*
G04 #@! TF.FilePolarity,Positive*
%FSLAX46Y46*%
G04 Gerber Fmt 4.6, Leading zero omitted, Abs format (unit mm)*
G04 Created by KiCad (PCBNEW (5.1.6)-1) date 2021-06-24 15:17:58*
%MOMM*%
%LPD*%
G01*
G04 APERTURE LIST*
%ADD10C,0.150000*%
%ADD11C,0.010000*%
%ADD12C,0.120000*%
G04 APERTURE END LIST*
D10*
X77010000Y-82875380D02*
X77010000Y-81875380D01*
X77390952Y-81875380D01*
X77486190Y-81923000D01*
X77533809Y-81970619D01*
X77581428Y-82065857D01*
X77581428Y-82208714D01*
X77533809Y-82303952D01*
X77486190Y-82351571D01*
X77390952Y-82399190D01*
X77010000Y-82399190D01*
X78010000Y-82875380D02*
X78010000Y-82208714D01*
X78010000Y-82399190D02*
X78057619Y-82303952D01*
X78105238Y-82256333D01*
X78200476Y-82208714D01*
X78295714Y-82208714D01*
X79010000Y-82827761D02*
X78914761Y-82875380D01*
X78724285Y-82875380D01*
X78629047Y-82827761D01*
X78581428Y-82732523D01*
X78581428Y-82351571D01*
X78629047Y-82256333D01*
X78724285Y-82208714D01*
X78914761Y-82208714D01*
X79010000Y-82256333D01*
X79057619Y-82351571D01*
X79057619Y-82446809D01*
X78581428Y-82542047D01*
X79438571Y-82827761D02*
X79533809Y-82875380D01*
X79724285Y-82875380D01*
X79819523Y-82827761D01*
X79867142Y-82732523D01*
X79867142Y-82684904D01*
X79819523Y-82589666D01*
X79724285Y-82542047D01*
X79581428Y-82542047D01*
X79486190Y-82494428D01*
X79438571Y-82399190D01*
X79438571Y-82351571D01*
X79486190Y-82256333D01*
X79581428Y-82208714D01*
X79724285Y-82208714D01*
X79819523Y-82256333D01*
X80248095Y-82827761D02*
X80343333Y-82875380D01*
X80533809Y-82875380D01*
X80629047Y-82827761D01*
X80676666Y-82732523D01*
X80676666Y-82684904D01*
X80629047Y-82589666D01*
X80533809Y-82542047D01*
X80390952Y-82542047D01*
X80295714Y-82494428D01*
X80248095Y-82399190D01*
X80248095Y-82351571D01*
X80295714Y-82256333D01*
X80390952Y-82208714D01*
X80533809Y-82208714D01*
X80629047Y-82256333D01*
X81533809Y-82208714D02*
X81533809Y-82875380D01*
X81105238Y-82208714D02*
X81105238Y-82732523D01*
X81152857Y-82827761D01*
X81248095Y-82875380D01*
X81390952Y-82875380D01*
X81486190Y-82827761D01*
X81533809Y-82780142D01*
X82010000Y-82875380D02*
X82010000Y-82208714D01*
X82010000Y-82399190D02*
X82057619Y-82303952D01*
X82105238Y-82256333D01*
X82200476Y-82208714D01*
X82295714Y-82208714D01*
X83010000Y-82827761D02*
X82914761Y-82875380D01*
X82724285Y-82875380D01*
X82629047Y-82827761D01*
X82581428Y-82732523D01*
X82581428Y-82351571D01*
X82629047Y-82256333D01*
X82724285Y-82208714D01*
X82914761Y-82208714D01*
X83010000Y-82256333D01*
X83057619Y-82351571D01*
X83057619Y-82446809D01*
X82581428Y-82542047D01*
X77335238Y-80954571D02*
X77478095Y-81002190D01*
X77525714Y-81049809D01*
X77573333Y-81145047D01*
X77573333Y-81287904D01*
X77525714Y-81383142D01*
X77478095Y-81430761D01*
X77382857Y-81478380D01*
X77001904Y-81478380D01*
X77001904Y-80478380D01*
X77335238Y-80478380D01*
X77430476Y-80526000D01*
X77478095Y-80573619D01*
X77525714Y-80668857D01*
X77525714Y-80764095D01*
X77478095Y-80859333D01*
X77430476Y-80906952D01*
X77335238Y-80954571D01*
X77001904Y-80954571D01*
X77954285Y-81430761D02*
X78097142Y-81478380D01*
X78335238Y-81478380D01*
X78430476Y-81430761D01*
X78478095Y-81383142D01*
X78525714Y-81287904D01*
X78525714Y-81192666D01*
X78478095Y-81097428D01*
X78430476Y-81049809D01*
X78335238Y-81002190D01*
X78144761Y-80954571D01*
X78049523Y-80906952D01*
X78001904Y-80859333D01*
X77954285Y-80764095D01*
X77954285Y-80668857D01*
X78001904Y-80573619D01*
X78049523Y-80526000D01*
X78144761Y-80478380D01*
X78382857Y-80478380D01*
X78525714Y-80526000D01*
X78954285Y-81478380D02*
X78954285Y-80478380D01*
X79335238Y-80478380D01*
X79430476Y-80526000D01*
X79478095Y-80573619D01*
X79525714Y-80668857D01*
X79525714Y-80811714D01*
X79478095Y-80906952D01*
X79430476Y-80954571D01*
X79335238Y-81002190D01*
X78954285Y-81002190D01*
X79954285Y-81478380D02*
X79954285Y-80478380D01*
X80192380Y-80478380D01*
X80335238Y-80526000D01*
X80430476Y-80621238D01*
X80478095Y-80716476D01*
X80525714Y-80906952D01*
X80525714Y-81049809D01*
X80478095Y-81240285D01*
X80430476Y-81335523D01*
X80335238Y-81430761D01*
X80192380Y-81478380D01*
X79954285Y-81478380D01*
D11*
G36*
X112070985Y-81003081D02*
G01*
X112110978Y-81012360D01*
X112115600Y-81018393D01*
X112105218Y-81044538D01*
X112075576Y-81111763D01*
X112028932Y-81215128D01*
X111967543Y-81349695D01*
X111893665Y-81510524D01*
X111809555Y-81692676D01*
X111717470Y-81891212D01*
X111677450Y-81977243D01*
X111557705Y-82233466D01*
X111456178Y-82447552D01*
X111370177Y-82623661D01*
X111297011Y-82765954D01*
X111233988Y-82878591D01*
X111178415Y-82965732D01*
X111127603Y-83031538D01*
X111078858Y-83080168D01*
X111029490Y-83115784D01*
X110976806Y-83142544D01*
X110918115Y-83164611D01*
X110906807Y-83168372D01*
X110764318Y-83203578D01*
X110612588Y-83222087D01*
X110473252Y-83221949D01*
X110409636Y-83213196D01*
X110281992Y-83168884D01*
X110194461Y-83099912D01*
X110149880Y-83010024D01*
X110151087Y-82902967D01*
X110157083Y-82879791D01*
X110173639Y-82837135D01*
X110209326Y-82754166D01*
X110261598Y-82636513D01*
X110327908Y-82489805D01*
X110405708Y-82319672D01*
X110492452Y-82131742D01*
X110585594Y-81931646D01*
X110599510Y-81901891D01*
X111015342Y-81013300D01*
X111197171Y-81005837D01*
X111301977Y-81004724D01*
X111361097Y-81012356D01*
X111379000Y-81028552D01*
X111368577Y-81057562D01*
X111338857Y-81127395D01*
X111292167Y-81232903D01*
X111230828Y-81368941D01*
X111157167Y-81530361D01*
X111073508Y-81712017D01*
X110982174Y-81908761D01*
X110959900Y-81956520D01*
X110867260Y-82155291D01*
X110781721Y-82339446D01*
X110705594Y-82503962D01*
X110641191Y-82643813D01*
X110590825Y-82753975D01*
X110556808Y-82829423D01*
X110541452Y-82865133D01*
X110540800Y-82867254D01*
X110563655Y-82874651D01*
X110622072Y-82879337D01*
X110667399Y-82880200D01*
X110756079Y-82873983D01*
X110818728Y-82849793D01*
X110867787Y-82810350D01*
X110903176Y-82762439D01*
X110957771Y-82667540D01*
X111031553Y-82525687D01*
X111124507Y-82336914D01*
X111236613Y-82101255D01*
X111329304Y-81902300D01*
X111418916Y-81709148D01*
X111502555Y-81529965D01*
X111577668Y-81370138D01*
X111641700Y-81235057D01*
X111692098Y-81130108D01*
X111726308Y-81060681D01*
X111741627Y-81032350D01*
X111774543Y-81018281D01*
X111838999Y-81007757D01*
X111919933Y-81001342D01*
X112002282Y-80999595D01*
X112070985Y-81003081D01*
G37*
X112070985Y-81003081D02*
X112110978Y-81012360D01*
X112115600Y-81018393D01*
X112105218Y-81044538D01*
X112075576Y-81111763D01*
X112028932Y-81215128D01*
X111967543Y-81349695D01*
X111893665Y-81510524D01*
X111809555Y-81692676D01*
X111717470Y-81891212D01*
X111677450Y-81977243D01*
X111557705Y-82233466D01*
X111456178Y-82447552D01*
X111370177Y-82623661D01*
X111297011Y-82765954D01*
X111233988Y-82878591D01*
X111178415Y-82965732D01*
X111127603Y-83031538D01*
X111078858Y-83080168D01*
X111029490Y-83115784D01*
X110976806Y-83142544D01*
X110918115Y-83164611D01*
X110906807Y-83168372D01*
X110764318Y-83203578D01*
X110612588Y-83222087D01*
X110473252Y-83221949D01*
X110409636Y-83213196D01*
X110281992Y-83168884D01*
X110194461Y-83099912D01*
X110149880Y-83010024D01*
X110151087Y-82902967D01*
X110157083Y-82879791D01*
X110173639Y-82837135D01*
X110209326Y-82754166D01*
X110261598Y-82636513D01*
X110327908Y-82489805D01*
X110405708Y-82319672D01*
X110492452Y-82131742D01*
X110585594Y-81931646D01*
X110599510Y-81901891D01*
X111015342Y-81013300D01*
X111197171Y-81005837D01*
X111301977Y-81004724D01*
X111361097Y-81012356D01*
X111379000Y-81028552D01*
X111368577Y-81057562D01*
X111338857Y-81127395D01*
X111292167Y-81232903D01*
X111230828Y-81368941D01*
X111157167Y-81530361D01*
X111073508Y-81712017D01*
X110982174Y-81908761D01*
X110959900Y-81956520D01*
X110867260Y-82155291D01*
X110781721Y-82339446D01*
X110705594Y-82503962D01*
X110641191Y-82643813D01*
X110590825Y-82753975D01*
X110556808Y-82829423D01*
X110541452Y-82865133D01*
X110540800Y-82867254D01*
X110563655Y-82874651D01*
X110622072Y-82879337D01*
X110667399Y-82880200D01*
X110756079Y-82873983D01*
X110818728Y-82849793D01*
X110867787Y-82810350D01*
X110903176Y-82762439D01*
X110957771Y-82667540D01*
X111031553Y-82525687D01*
X111124507Y-82336914D01*
X111236613Y-82101255D01*
X111329304Y-81902300D01*
X111418916Y-81709148D01*
X111502555Y-81529965D01*
X111577668Y-81370138D01*
X111641700Y-81235057D01*
X111692098Y-81130108D01*
X111726308Y-81060681D01*
X111741627Y-81032350D01*
X111774543Y-81018281D01*
X111838999Y-81007757D01*
X111919933Y-81001342D01*
X112002282Y-80999595D01*
X112070985Y-81003081D01*
G36*
X110378596Y-81025760D02*
G01*
X110503569Y-81061414D01*
X110587600Y-81123148D01*
X110632769Y-81212319D01*
X110642400Y-81296003D01*
X110632035Y-81329517D01*
X110602797Y-81402878D01*
X110557470Y-81509980D01*
X110498838Y-81644717D01*
X110429685Y-81800985D01*
X110352794Y-81972676D01*
X110270950Y-82153687D01*
X110186937Y-82337911D01*
X110103538Y-82519242D01*
X110023538Y-82691575D01*
X109949721Y-82848805D01*
X109884870Y-82984826D01*
X109831769Y-83093532D01*
X109793203Y-83168818D01*
X109772386Y-83204050D01*
X109739004Y-83218345D01*
X109674299Y-83228864D01*
X109593291Y-83235095D01*
X109511002Y-83236531D01*
X109442450Y-83232660D01*
X109402658Y-83222973D01*
X109398129Y-83216750D01*
X109408615Y-83190294D01*
X109438390Y-83122871D01*
X109485155Y-83019499D01*
X109546611Y-82885195D01*
X109620459Y-82724978D01*
X109704400Y-82543864D01*
X109796136Y-82346872D01*
X109825827Y-82283300D01*
X110253195Y-81368900D01*
X110125648Y-81361061D01*
X110025581Y-81363251D01*
X109954857Y-81387153D01*
X109935327Y-81400091D01*
X109905728Y-81437118D01*
X109858011Y-81517781D01*
X109791864Y-81642695D01*
X109706971Y-81812476D01*
X109603020Y-82027738D01*
X109479696Y-82289097D01*
X109458240Y-82335030D01*
X109043929Y-83223100D01*
X108850076Y-83230563D01*
X108756506Y-83231421D01*
X108691394Y-83226543D01*
X108664973Y-83216803D01*
X108665062Y-83214737D01*
X108677417Y-83187392D01*
X108709018Y-83119008D01*
X108757551Y-83014548D01*
X108820704Y-82878972D01*
X108896167Y-82717242D01*
X108981625Y-82534319D01*
X109074769Y-82335164D01*
X109116566Y-82245861D01*
X109251812Y-81959344D01*
X109367538Y-81719291D01*
X109463707Y-81525771D01*
X109540284Y-81378856D01*
X109597232Y-81278615D01*
X109634516Y-81225121D01*
X109637112Y-81222395D01*
X109780207Y-81114214D01*
X109954007Y-81045565D01*
X110159470Y-81016100D01*
X110210600Y-81014833D01*
X110378596Y-81025760D01*
G37*
X110378596Y-81025760D02*
X110503569Y-81061414D01*
X110587600Y-81123148D01*
X110632769Y-81212319D01*
X110642400Y-81296003D01*
X110632035Y-81329517D01*
X110602797Y-81402878D01*
X110557470Y-81509980D01*
X110498838Y-81644717D01*
X110429685Y-81800985D01*
X110352794Y-81972676D01*
X110270950Y-82153687D01*
X110186937Y-82337911D01*
X110103538Y-82519242D01*
X110023538Y-82691575D01*
X109949721Y-82848805D01*
X109884870Y-82984826D01*
X109831769Y-83093532D01*
X109793203Y-83168818D01*
X109772386Y-83204050D01*
X109739004Y-83218345D01*
X109674299Y-83228864D01*
X109593291Y-83235095D01*
X109511002Y-83236531D01*
X109442450Y-83232660D01*
X109402658Y-83222973D01*
X109398129Y-83216750D01*
X109408615Y-83190294D01*
X109438390Y-83122871D01*
X109485155Y-83019499D01*
X109546611Y-82885195D01*
X109620459Y-82724978D01*
X109704400Y-82543864D01*
X109796136Y-82346872D01*
X109825827Y-82283300D01*
X110253195Y-81368900D01*
X110125648Y-81361061D01*
X110025581Y-81363251D01*
X109954857Y-81387153D01*
X109935327Y-81400091D01*
X109905728Y-81437118D01*
X109858011Y-81517781D01*
X109791864Y-81642695D01*
X109706971Y-81812476D01*
X109603020Y-82027738D01*
X109479696Y-82289097D01*
X109458240Y-82335030D01*
X109043929Y-83223100D01*
X108850076Y-83230563D01*
X108756506Y-83231421D01*
X108691394Y-83226543D01*
X108664973Y-83216803D01*
X108665062Y-83214737D01*
X108677417Y-83187392D01*
X108709018Y-83119008D01*
X108757551Y-83014548D01*
X108820704Y-82878972D01*
X108896167Y-82717242D01*
X108981625Y-82534319D01*
X109074769Y-82335164D01*
X109116566Y-82245861D01*
X109251812Y-81959344D01*
X109367538Y-81719291D01*
X109463707Y-81525771D01*
X109540284Y-81378856D01*
X109597232Y-81278615D01*
X109634516Y-81225121D01*
X109637112Y-81222395D01*
X109780207Y-81114214D01*
X109954007Y-81045565D01*
X110159470Y-81016100D01*
X110210600Y-81014833D01*
X110378596Y-81025760D01*
G36*
X110775875Y-83418845D02*
G01*
X110875077Y-83425178D01*
X110933553Y-83435922D01*
X110961341Y-83453678D01*
X110967399Y-83468445D01*
X110966051Y-83489037D01*
X110945849Y-83500126D01*
X110897312Y-83503066D01*
X110810958Y-83499214D01*
X110770818Y-83496565D01*
X110676227Y-83491590D01*
X110604806Y-83490705D01*
X110568475Y-83493956D01*
X110566200Y-83495768D01*
X110557283Y-83525555D01*
X110535132Y-83583106D01*
X110527759Y-83600998D01*
X110489318Y-83693000D01*
X110642059Y-83693000D01*
X110730662Y-83690085D01*
X110778282Y-83679751D01*
X110794482Y-83659611D01*
X110794800Y-83654900D01*
X110772719Y-83624257D01*
X110731300Y-83616800D01*
X110683565Y-83608105D01*
X110667800Y-83591400D01*
X110690644Y-83576910D01*
X110749052Y-83567714D01*
X110794800Y-83566000D01*
X110867237Y-83569427D01*
X110913176Y-83578190D01*
X110921705Y-83585050D01*
X110909510Y-83617320D01*
X110879481Y-83672943D01*
X110871278Y-83686650D01*
X110820946Y-83769200D01*
X110604673Y-83769200D01*
X110494314Y-83767242D01*
X110426828Y-83760529D01*
X110394410Y-83747803D01*
X110388400Y-83734328D01*
X110401293Y-83674867D01*
X110433634Y-83596934D01*
X110475909Y-83518836D01*
X110518608Y-83458881D01*
X110542233Y-83438232D01*
X110591923Y-83425836D01*
X110674640Y-83418845D01*
X110772767Y-83418723D01*
X110775875Y-83418845D01*
G37*
X110775875Y-83418845D02*
X110875077Y-83425178D01*
X110933553Y-83435922D01*
X110961341Y-83453678D01*
X110967399Y-83468445D01*
X110966051Y-83489037D01*
X110945849Y-83500126D01*
X110897312Y-83503066D01*
X110810958Y-83499214D01*
X110770818Y-83496565D01*
X110676227Y-83491590D01*
X110604806Y-83490705D01*
X110568475Y-83493956D01*
X110566200Y-83495768D01*
X110557283Y-83525555D01*
X110535132Y-83583106D01*
X110527759Y-83600998D01*
X110489318Y-83693000D01*
X110642059Y-83693000D01*
X110730662Y-83690085D01*
X110778282Y-83679751D01*
X110794482Y-83659611D01*
X110794800Y-83654900D01*
X110772719Y-83624257D01*
X110731300Y-83616800D01*
X110683565Y-83608105D01*
X110667800Y-83591400D01*
X110690644Y-83576910D01*
X110749052Y-83567714D01*
X110794800Y-83566000D01*
X110867237Y-83569427D01*
X110913176Y-83578190D01*
X110921705Y-83585050D01*
X110909510Y-83617320D01*
X110879481Y-83672943D01*
X110871278Y-83686650D01*
X110820946Y-83769200D01*
X110604673Y-83769200D01*
X110494314Y-83767242D01*
X110426828Y-83760529D01*
X110394410Y-83747803D01*
X110388400Y-83734328D01*
X110401293Y-83674867D01*
X110433634Y-83596934D01*
X110475909Y-83518836D01*
X110518608Y-83458881D01*
X110542233Y-83438232D01*
X110591923Y-83425836D01*
X110674640Y-83418845D01*
X110772767Y-83418723D01*
X110775875Y-83418845D01*
G36*
X110337515Y-83435824D02*
G01*
X110337600Y-83439724D01*
X110325668Y-83484904D01*
X110295201Y-83552573D01*
X110254189Y-83628778D01*
X110210622Y-83699567D01*
X110172493Y-83750988D01*
X110148893Y-83769200D01*
X110114264Y-83751294D01*
X110060442Y-83704802D01*
X110010465Y-83652354D01*
X109907613Y-83535508D01*
X109850845Y-83652354D01*
X109810834Y-83719345D01*
X109771533Y-83761412D01*
X109741192Y-83772459D01*
X109728061Y-83746396D01*
X109728000Y-83743075D01*
X109738805Y-83706099D01*
X109766344Y-83643170D01*
X109803300Y-83568391D01*
X109842356Y-83495863D01*
X109876196Y-83439688D01*
X109897502Y-83413971D01*
X109898943Y-83413600D01*
X109924797Y-83430141D01*
X109975159Y-83473428D01*
X110036727Y-83531768D01*
X110156700Y-83649937D01*
X110214111Y-83531768D01*
X110254312Y-83464253D01*
X110293714Y-83421706D01*
X110324166Y-83410204D01*
X110337515Y-83435824D01*
G37*
X110337515Y-83435824D02*
X110337600Y-83439724D01*
X110325668Y-83484904D01*
X110295201Y-83552573D01*
X110254189Y-83628778D01*
X110210622Y-83699567D01*
X110172493Y-83750988D01*
X110148893Y-83769200D01*
X110114264Y-83751294D01*
X110060442Y-83704802D01*
X110010465Y-83652354D01*
X109907613Y-83535508D01*
X109850845Y-83652354D01*
X109810834Y-83719345D01*
X109771533Y-83761412D01*
X109741192Y-83772459D01*
X109728061Y-83746396D01*
X109728000Y-83743075D01*
X109738805Y-83706099D01*
X109766344Y-83643170D01*
X109803300Y-83568391D01*
X109842356Y-83495863D01*
X109876196Y-83439688D01*
X109897502Y-83413971D01*
X109898943Y-83413600D01*
X109924797Y-83430141D01*
X109975159Y-83473428D01*
X110036727Y-83531768D01*
X110156700Y-83649937D01*
X110214111Y-83531768D01*
X110254312Y-83464253D01*
X110293714Y-83421706D01*
X110324166Y-83410204D01*
X110337515Y-83435824D01*
G36*
X109679460Y-83418003D02*
G01*
X109684040Y-83438038D01*
X109669236Y-83483940D01*
X109636438Y-83559650D01*
X109599898Y-83641493D01*
X109571009Y-83706913D01*
X109557841Y-83737450D01*
X109531463Y-83758719D01*
X109489054Y-83769887D01*
X109454971Y-83766598D01*
X109448600Y-83756980D01*
X109459035Y-83729860D01*
X109486547Y-83669719D01*
X109525445Y-83588949D01*
X109530251Y-83579180D01*
X109587547Y-83476341D01*
X109633916Y-83422543D01*
X109656931Y-83413600D01*
X109679460Y-83418003D01*
G37*
X109679460Y-83418003D02*
X109684040Y-83438038D01*
X109669236Y-83483940D01*
X109636438Y-83559650D01*
X109599898Y-83641493D01*
X109571009Y-83706913D01*
X109557841Y-83737450D01*
X109531463Y-83758719D01*
X109489054Y-83769887D01*
X109454971Y-83766598D01*
X109448600Y-83756980D01*
X109459035Y-83729860D01*
X109486547Y-83669719D01*
X109525445Y-83588949D01*
X109530251Y-83579180D01*
X109587547Y-83476341D01*
X109633916Y-83422543D01*
X109656931Y-83413600D01*
X109679460Y-83418003D01*
G36*
X109259158Y-83418524D02*
G01*
X109344264Y-83425024D01*
X109390094Y-83436338D01*
X109408172Y-83456928D01*
X109410500Y-83477100D01*
X109390035Y-83522128D01*
X109350530Y-83536386D01*
X109308843Y-83534511D01*
X109307579Y-83517336D01*
X109296897Y-83499244D01*
X109236518Y-83490613D01*
X109196751Y-83489800D01*
X109118274Y-83492888D01*
X109072904Y-83507424D01*
X109043068Y-83541309D01*
X109030152Y-83564738D01*
X109003312Y-83624114D01*
X108991432Y-83665186D01*
X108991400Y-83666338D01*
X109013199Y-83684783D01*
X109066900Y-83692285D01*
X109134960Y-83689549D01*
X109199834Y-83677281D01*
X109243977Y-83656187D01*
X109243980Y-83656184D01*
X109292742Y-83630520D01*
X109322664Y-83644288D01*
X109321695Y-83686577D01*
X109307068Y-83713307D01*
X109280428Y-83742612D01*
X109242951Y-83759523D01*
X109181419Y-83767299D01*
X109082614Y-83769199D01*
X109080358Y-83769200D01*
X108987641Y-83766337D01*
X108916326Y-83758785D01*
X108880194Y-83748091D01*
X108878788Y-83746532D01*
X108880921Y-83712988D01*
X108900621Y-83648745D01*
X108927488Y-83582066D01*
X108967830Y-83500868D01*
X109010044Y-83450098D01*
X109066535Y-83423640D01*
X109149706Y-83415378D01*
X109259158Y-83418524D01*
G37*
X109259158Y-83418524D02*
X109344264Y-83425024D01*
X109390094Y-83436338D01*
X109408172Y-83456928D01*
X109410500Y-83477100D01*
X109390035Y-83522128D01*
X109350530Y-83536386D01*
X109308843Y-83534511D01*
X109307579Y-83517336D01*
X109296897Y-83499244D01*
X109236518Y-83490613D01*
X109196751Y-83489800D01*
X109118274Y-83492888D01*
X109072904Y-83507424D01*
X109043068Y-83541309D01*
X109030152Y-83564738D01*
X109003312Y-83624114D01*
X108991432Y-83665186D01*
X108991400Y-83666338D01*
X109013199Y-83684783D01*
X109066900Y-83692285D01*
X109134960Y-83689549D01*
X109199834Y-83677281D01*
X109243977Y-83656187D01*
X109243980Y-83656184D01*
X109292742Y-83630520D01*
X109322664Y-83644288D01*
X109321695Y-83686577D01*
X109307068Y-83713307D01*
X109280428Y-83742612D01*
X109242951Y-83759523D01*
X109181419Y-83767299D01*
X109082614Y-83769199D01*
X109080358Y-83769200D01*
X108987641Y-83766337D01*
X108916326Y-83758785D01*
X108880194Y-83748091D01*
X108878788Y-83746532D01*
X108880921Y-83712988D01*
X108900621Y-83648745D01*
X108927488Y-83582066D01*
X108967830Y-83500868D01*
X109010044Y-83450098D01*
X109066535Y-83423640D01*
X109149706Y-83415378D01*
X109259158Y-83418524D01*
G36*
X108672179Y-83432835D02*
G01*
X108697510Y-83494088D01*
X108713182Y-83558998D01*
X108731687Y-83643647D01*
X108747889Y-83710108D01*
X108755801Y-83736798D01*
X108746302Y-83763101D01*
X108713920Y-83769200D01*
X108663925Y-83753426D01*
X108644985Y-83731100D01*
X108616284Y-83706152D01*
X108549742Y-83694483D01*
X108496492Y-83693000D01*
X108393124Y-83701645D01*
X108334693Y-83727135D01*
X108331000Y-83731100D01*
X108280777Y-83762313D01*
X108245339Y-83768286D01*
X108212091Y-83765201D01*
X108213753Y-83750991D01*
X108252519Y-83715689D01*
X108257904Y-83711136D01*
X108311421Y-83665527D01*
X108368143Y-83616800D01*
X108474544Y-83616800D01*
X108542472Y-83616800D01*
X108593013Y-83607832D01*
X108609713Y-83571446D01*
X108610400Y-83553300D01*
X108607559Y-83505504D01*
X108602127Y-83489800D01*
X108581076Y-83506302D01*
X108540452Y-83546692D01*
X108534200Y-83553300D01*
X108474544Y-83616800D01*
X108368143Y-83616800D01*
X108386631Y-83600919D01*
X108463842Y-83534250D01*
X108537767Y-83474760D01*
X108601282Y-83431665D01*
X108641419Y-83413691D01*
X108643087Y-83413600D01*
X108672179Y-83432835D01*
G37*
X108672179Y-83432835D02*
X108697510Y-83494088D01*
X108713182Y-83558998D01*
X108731687Y-83643647D01*
X108747889Y-83710108D01*
X108755801Y-83736798D01*
X108746302Y-83763101D01*
X108713920Y-83769200D01*
X108663925Y-83753426D01*
X108644985Y-83731100D01*
X108616284Y-83706152D01*
X108549742Y-83694483D01*
X108496492Y-83693000D01*
X108393124Y-83701645D01*
X108334693Y-83727135D01*
X108331000Y-83731100D01*
X108280777Y-83762313D01*
X108245339Y-83768286D01*
X108212091Y-83765201D01*
X108213753Y-83750991D01*
X108252519Y-83715689D01*
X108257904Y-83711136D01*
X108311421Y-83665527D01*
X108368143Y-83616800D01*
X108474544Y-83616800D01*
X108542472Y-83616800D01*
X108593013Y-83607832D01*
X108609713Y-83571446D01*
X108610400Y-83553300D01*
X108607559Y-83505504D01*
X108602127Y-83489800D01*
X108581076Y-83506302D01*
X108540452Y-83546692D01*
X108534200Y-83553300D01*
X108474544Y-83616800D01*
X108368143Y-83616800D01*
X108386631Y-83600919D01*
X108463842Y-83534250D01*
X108537767Y-83474760D01*
X108601282Y-83431665D01*
X108641419Y-83413691D01*
X108643087Y-83413600D01*
X108672179Y-83432835D01*
G36*
X108107155Y-83417000D02*
G01*
X108179682Y-83426026D01*
X108216357Y-83438917D01*
X108217592Y-83440443D01*
X108227017Y-83498488D01*
X108200848Y-83562729D01*
X108148061Y-83614988D01*
X108125536Y-83626843D01*
X108076298Y-83651341D01*
X108068924Y-83671559D01*
X108088321Y-83691855D01*
X108124327Y-83734685D01*
X108112708Y-83761396D01*
X108064885Y-83769200D01*
X107997772Y-83745615D01*
X107960364Y-83705700D01*
X107915162Y-83659744D01*
X107870334Y-83642200D01*
X107824235Y-83663525D01*
X107792978Y-83705700D01*
X107756064Y-83752787D01*
X107717322Y-83769200D01*
X107678236Y-83765031D01*
X107670600Y-83760013D01*
X107680315Y-83734118D01*
X107705940Y-83674336D01*
X107742194Y-83592946D01*
X107747052Y-83582213D01*
X107760727Y-83552053D01*
X107862928Y-83552053D01*
X107889166Y-83562198D01*
X107952842Y-83562396D01*
X107980045Y-83560967D01*
X108061020Y-83550504D01*
X108111777Y-83532365D01*
X108121570Y-83521550D01*
X108108149Y-83500333D01*
X108061256Y-83489263D01*
X107997092Y-83487859D01*
X107931859Y-83495636D01*
X107881761Y-83512113D01*
X107864109Y-83529217D01*
X107862928Y-83552053D01*
X107760727Y-83552053D01*
X107823505Y-83413600D01*
X108012253Y-83413600D01*
X108107155Y-83417000D01*
G37*
X108107155Y-83417000D02*
X108179682Y-83426026D01*
X108216357Y-83438917D01*
X108217592Y-83440443D01*
X108227017Y-83498488D01*
X108200848Y-83562729D01*
X108148061Y-83614988D01*
X108125536Y-83626843D01*
X108076298Y-83651341D01*
X108068924Y-83671559D01*
X108088321Y-83691855D01*
X108124327Y-83734685D01*
X108112708Y-83761396D01*
X108064885Y-83769200D01*
X107997772Y-83745615D01*
X107960364Y-83705700D01*
X107915162Y-83659744D01*
X107870334Y-83642200D01*
X107824235Y-83663525D01*
X107792978Y-83705700D01*
X107756064Y-83752787D01*
X107717322Y-83769200D01*
X107678236Y-83765031D01*
X107670600Y-83760013D01*
X107680315Y-83734118D01*
X107705940Y-83674336D01*
X107742194Y-83592946D01*
X107747052Y-83582213D01*
X107760727Y-83552053D01*
X107862928Y-83552053D01*
X107889166Y-83562198D01*
X107952842Y-83562396D01*
X107980045Y-83560967D01*
X108061020Y-83550504D01*
X108111777Y-83532365D01*
X108121570Y-83521550D01*
X108108149Y-83500333D01*
X108061256Y-83489263D01*
X107997092Y-83487859D01*
X107931859Y-83495636D01*
X107881761Y-83512113D01*
X107864109Y-83529217D01*
X107862928Y-83552053D01*
X107760727Y-83552053D01*
X107823505Y-83413600D01*
X108012253Y-83413600D01*
X108107155Y-83417000D01*
G36*
X107943679Y-80396393D02*
G01*
X108161501Y-80403700D01*
X108191438Y-80492600D01*
X108221374Y-80581500D01*
X108255889Y-80486249D01*
X108280576Y-80427684D01*
X108310279Y-80400194D01*
X108363129Y-80392448D01*
X108405952Y-80392463D01*
X108505251Y-80397724D01*
X108604300Y-80408876D01*
X108622358Y-80411824D01*
X108685713Y-80426950D01*
X108719250Y-80453489D01*
X108738207Y-80507549D01*
X108745400Y-80541899D01*
X108767584Y-80654078D01*
X108820984Y-80560639D01*
X108853329Y-80509642D01*
X108886153Y-80481477D01*
X108930902Y-80474817D01*
X108999021Y-80488337D01*
X109101957Y-80520713D01*
X109118400Y-80526206D01*
X109283500Y-80581500D01*
X109291476Y-80692855D01*
X109299453Y-80804211D01*
X109380846Y-80725323D01*
X109462238Y-80646434D01*
X109696719Y-80776907D01*
X109792994Y-80831906D01*
X109870110Y-80878680D01*
X109918835Y-80911457D01*
X109931200Y-80923487D01*
X109909753Y-80941400D01*
X109856281Y-80966316D01*
X109836040Y-80974004D01*
X109772513Y-81008907D01*
X109690545Y-81070259D01*
X109605334Y-81146444D01*
X109588390Y-81163301D01*
X109513470Y-81244500D01*
X109452719Y-81324882D01*
X109397100Y-81418686D01*
X109337574Y-81540150D01*
X109308900Y-81603590D01*
X109255563Y-81722080D01*
X109217958Y-81800111D01*
X109191739Y-81843887D01*
X109172565Y-81859615D01*
X109156092Y-81853500D01*
X109143800Y-81839491D01*
X109063313Y-81773945D01*
X108946256Y-81731883D01*
X108801730Y-81714542D01*
X108638836Y-81723162D01*
X108495086Y-81751209D01*
X108416195Y-81774371D01*
X108354751Y-81796970D01*
X108317956Y-81815227D01*
X108313010Y-81825364D01*
X108347116Y-81823603D01*
X108362199Y-81820935D01*
X108416694Y-81818651D01*
X108503317Y-81823497D01*
X108604058Y-81834423D01*
X108611775Y-81835471D01*
X108715399Y-81852425D01*
X108783904Y-81872588D01*
X108832878Y-81902221D01*
X108870749Y-81939482D01*
X108922482Y-82018766D01*
X108938178Y-82107034D01*
X108917670Y-82213151D01*
X108863147Y-82341282D01*
X108771824Y-82483697D01*
X108640266Y-82632145D01*
X108477080Y-82778696D01*
X108290875Y-82915419D01*
X108140468Y-83007200D01*
X107923275Y-83142722D01*
X107750707Y-83283492D01*
X107616594Y-83435522D01*
X107514765Y-83604827D01*
X107503954Y-83627602D01*
X107455101Y-83727461D01*
X107414808Y-83791497D01*
X107373810Y-83831454D01*
X107322841Y-83859081D01*
X107320592Y-83860042D01*
X107204287Y-83896156D01*
X107083187Y-83912096D01*
X106974707Y-83906857D01*
X106903872Y-83884132D01*
X106835645Y-83845478D01*
X106905716Y-83694183D01*
X107040768Y-83694183D01*
X107050398Y-83755813D01*
X107050618Y-83756693D01*
X107065359Y-83801717D01*
X107080232Y-83801872D01*
X107091960Y-83783761D01*
X107099053Y-83728308D01*
X107084786Y-83703756D01*
X107052579Y-83676292D01*
X107040768Y-83694183D01*
X106905716Y-83694183D01*
X106932715Y-83635889D01*
X106964018Y-83568538D01*
X107014101Y-83461081D01*
X107080207Y-83319419D01*
X107159579Y-83149455D01*
X107249460Y-82957090D01*
X107347095Y-82748226D01*
X107449726Y-82528766D01*
X107515609Y-82387931D01*
X107610089Y-82185508D01*
X107848400Y-82185508D01*
X107866107Y-82178884D01*
X107911526Y-82147685D01*
X107950000Y-82118200D01*
X108008175Y-82066689D01*
X108044769Y-82023826D01*
X108051253Y-82008115D01*
X108043286Y-81950179D01*
X108025522Y-81895581D01*
X108005312Y-81865448D01*
X108001157Y-81864200D01*
X107984265Y-81885218D01*
X107954729Y-81938576D01*
X107919463Y-82009731D01*
X107885382Y-82084140D01*
X107859399Y-82147258D01*
X107848430Y-82184542D01*
X107848400Y-82185508D01*
X107610089Y-82185508D01*
X107632441Y-82137620D01*
X107728930Y-81929322D01*
X107806676Y-81759236D01*
X107867278Y-81623558D01*
X107912334Y-81518484D01*
X107943444Y-81440212D01*
X107962206Y-81384939D01*
X107970220Y-81348862D01*
X107969084Y-81328176D01*
X107964129Y-81321131D01*
X107791476Y-81188583D01*
X107625811Y-81059598D01*
X107546967Y-80997329D01*
X108408624Y-80997329D01*
X108415286Y-81083382D01*
X108428817Y-81154084D01*
X108433310Y-81167569D01*
X108455490Y-81212353D01*
X108472121Y-81223545D01*
X108473249Y-81193383D01*
X108458710Y-81142169D01*
X108441236Y-81074736D01*
X108433671Y-81001181D01*
X108436188Y-80938109D01*
X108448963Y-80902125D01*
X108456150Y-80899000D01*
X108484989Y-80916879D01*
X108532034Y-80962392D01*
X108560382Y-80994250D01*
X108604221Y-81042933D01*
X108619280Y-81051128D01*
X108609844Y-81026000D01*
X108565993Y-80949172D01*
X108516328Y-80880087D01*
X108470149Y-80829915D01*
X108436755Y-80809825D01*
X108430944Y-80811123D01*
X108416344Y-80844794D01*
X108408941Y-80912331D01*
X108408624Y-80997329D01*
X107546967Y-80997329D01*
X107471675Y-80937866D01*
X107333610Y-80827081D01*
X107216155Y-80730933D01*
X107123854Y-80653113D01*
X107061247Y-80597314D01*
X107032876Y-80567227D01*
X107031942Y-80563375D01*
X107062430Y-80550132D01*
X107131124Y-80528819D01*
X107226724Y-80502763D01*
X107302644Y-80483714D01*
X107556300Y-80422176D01*
X107610614Y-80510350D01*
X107647812Y-80563885D01*
X107672532Y-80574458D01*
X107691486Y-80539465D01*
X107707941Y-80472593D01*
X107725856Y-80389087D01*
X107943679Y-80396393D01*
G37*
X107943679Y-80396393D02*
X108161501Y-80403700D01*
X108191438Y-80492600D01*
X108221374Y-80581500D01*
X108255889Y-80486249D01*
X108280576Y-80427684D01*
X108310279Y-80400194D01*
X108363129Y-80392448D01*
X108405952Y-80392463D01*
X108505251Y-80397724D01*
X108604300Y-80408876D01*
X108622358Y-80411824D01*
X108685713Y-80426950D01*
X108719250Y-80453489D01*
X108738207Y-80507549D01*
X108745400Y-80541899D01*
X108767584Y-80654078D01*
X108820984Y-80560639D01*
X108853329Y-80509642D01*
X108886153Y-80481477D01*
X108930902Y-80474817D01*
X108999021Y-80488337D01*
X109101957Y-80520713D01*
X109118400Y-80526206D01*
X109283500Y-80581500D01*
X109291476Y-80692855D01*
X109299453Y-80804211D01*
X109380846Y-80725323D01*
X109462238Y-80646434D01*
X109696719Y-80776907D01*
X109792994Y-80831906D01*
X109870110Y-80878680D01*
X109918835Y-80911457D01*
X109931200Y-80923487D01*
X109909753Y-80941400D01*
X109856281Y-80966316D01*
X109836040Y-80974004D01*
X109772513Y-81008907D01*
X109690545Y-81070259D01*
X109605334Y-81146444D01*
X109588390Y-81163301D01*
X109513470Y-81244500D01*
X109452719Y-81324882D01*
X109397100Y-81418686D01*
X109337574Y-81540150D01*
X109308900Y-81603590D01*
X109255563Y-81722080D01*
X109217958Y-81800111D01*
X109191739Y-81843887D01*
X109172565Y-81859615D01*
X109156092Y-81853500D01*
X109143800Y-81839491D01*
X109063313Y-81773945D01*
X108946256Y-81731883D01*
X108801730Y-81714542D01*
X108638836Y-81723162D01*
X108495086Y-81751209D01*
X108416195Y-81774371D01*
X108354751Y-81796970D01*
X108317956Y-81815227D01*
X108313010Y-81825364D01*
X108347116Y-81823603D01*
X108362199Y-81820935D01*
X108416694Y-81818651D01*
X108503317Y-81823497D01*
X108604058Y-81834423D01*
X108611775Y-81835471D01*
X108715399Y-81852425D01*
X108783904Y-81872588D01*
X108832878Y-81902221D01*
X108870749Y-81939482D01*
X108922482Y-82018766D01*
X108938178Y-82107034D01*
X108917670Y-82213151D01*
X108863147Y-82341282D01*
X108771824Y-82483697D01*
X108640266Y-82632145D01*
X108477080Y-82778696D01*
X108290875Y-82915419D01*
X108140468Y-83007200D01*
X107923275Y-83142722D01*
X107750707Y-83283492D01*
X107616594Y-83435522D01*
X107514765Y-83604827D01*
X107503954Y-83627602D01*
X107455101Y-83727461D01*
X107414808Y-83791497D01*
X107373810Y-83831454D01*
X107322841Y-83859081D01*
X107320592Y-83860042D01*
X107204287Y-83896156D01*
X107083187Y-83912096D01*
X106974707Y-83906857D01*
X106903872Y-83884132D01*
X106835645Y-83845478D01*
X106905716Y-83694183D01*
X107040768Y-83694183D01*
X107050398Y-83755813D01*
X107050618Y-83756693D01*
X107065359Y-83801717D01*
X107080232Y-83801872D01*
X107091960Y-83783761D01*
X107099053Y-83728308D01*
X107084786Y-83703756D01*
X107052579Y-83676292D01*
X107040768Y-83694183D01*
X106905716Y-83694183D01*
X106932715Y-83635889D01*
X106964018Y-83568538D01*
X107014101Y-83461081D01*
X107080207Y-83319419D01*
X107159579Y-83149455D01*
X107249460Y-82957090D01*
X107347095Y-82748226D01*
X107449726Y-82528766D01*
X107515609Y-82387931D01*
X107610089Y-82185508D01*
X107848400Y-82185508D01*
X107866107Y-82178884D01*
X107911526Y-82147685D01*
X107950000Y-82118200D01*
X108008175Y-82066689D01*
X108044769Y-82023826D01*
X108051253Y-82008115D01*
X108043286Y-81950179D01*
X108025522Y-81895581D01*
X108005312Y-81865448D01*
X108001157Y-81864200D01*
X107984265Y-81885218D01*
X107954729Y-81938576D01*
X107919463Y-82009731D01*
X107885382Y-82084140D01*
X107859399Y-82147258D01*
X107848430Y-82184542D01*
X107848400Y-82185508D01*
X107610089Y-82185508D01*
X107632441Y-82137620D01*
X107728930Y-81929322D01*
X107806676Y-81759236D01*
X107867278Y-81623558D01*
X107912334Y-81518484D01*
X107943444Y-81440212D01*
X107962206Y-81384939D01*
X107970220Y-81348862D01*
X107969084Y-81328176D01*
X107964129Y-81321131D01*
X107791476Y-81188583D01*
X107625811Y-81059598D01*
X107546967Y-80997329D01*
X108408624Y-80997329D01*
X108415286Y-81083382D01*
X108428817Y-81154084D01*
X108433310Y-81167569D01*
X108455490Y-81212353D01*
X108472121Y-81223545D01*
X108473249Y-81193383D01*
X108458710Y-81142169D01*
X108441236Y-81074736D01*
X108433671Y-81001181D01*
X108436188Y-80938109D01*
X108448963Y-80902125D01*
X108456150Y-80899000D01*
X108484989Y-80916879D01*
X108532034Y-80962392D01*
X108560382Y-80994250D01*
X108604221Y-81042933D01*
X108619280Y-81051128D01*
X108609844Y-81026000D01*
X108565993Y-80949172D01*
X108516328Y-80880087D01*
X108470149Y-80829915D01*
X108436755Y-80809825D01*
X108430944Y-80811123D01*
X108416344Y-80844794D01*
X108408941Y-80912331D01*
X108408624Y-80997329D01*
X107546967Y-80997329D01*
X107471675Y-80937866D01*
X107333610Y-80827081D01*
X107216155Y-80730933D01*
X107123854Y-80653113D01*
X107061247Y-80597314D01*
X107032876Y-80567227D01*
X107031942Y-80563375D01*
X107062430Y-80550132D01*
X107131124Y-80528819D01*
X107226724Y-80502763D01*
X107302644Y-80483714D01*
X107556300Y-80422176D01*
X107610614Y-80510350D01*
X107647812Y-80563885D01*
X107672532Y-80574458D01*
X107691486Y-80539465D01*
X107707941Y-80472593D01*
X107725856Y-80389087D01*
X107943679Y-80396393D01*
D12*
X80264000Y-97008000D02*
X76814000Y-97008000D01*
X80264000Y-97008000D02*
X82214000Y-97008000D01*
X80264000Y-102128000D02*
X78314000Y-102128000D01*
X80264000Y-102128000D02*
X82214000Y-102128000D01*
X76418000Y-87014000D02*
X82428000Y-87014000D01*
X78668000Y-93834000D02*
X82428000Y-93834000D01*
X82428000Y-87014000D02*
X82428000Y-88274000D01*
X82428000Y-93834000D02*
X82428000Y-92574000D01*
X108204000Y-97008000D02*
X104754000Y-97008000D01*
X108204000Y-97008000D02*
X110154000Y-97008000D01*
X108204000Y-102128000D02*
X106254000Y-102128000D01*
X108204000Y-102128000D02*
X110154000Y-102128000D01*
X98044000Y-97008000D02*
X94594000Y-97008000D01*
X98044000Y-97008000D02*
X99994000Y-97008000D01*
X98044000Y-102128000D02*
X96094000Y-102128000D01*
X98044000Y-102128000D02*
X99994000Y-102128000D01*
X90424000Y-97008000D02*
X86974000Y-97008000D01*
X90424000Y-97008000D02*
X92374000Y-97008000D01*
X90424000Y-102128000D02*
X88474000Y-102128000D01*
X90424000Y-102128000D02*
X92374000Y-102128000D01*
X104624000Y-92202000D02*
G75*
G03*
X104624000Y-92202000I-1500000J0D01*
G01*
X104624000Y-86106000D02*
G75*
G03*
X104624000Y-86106000I-1500000J0D01*
G01*
X89130000Y-92202000D02*
G75*
G03*
X89130000Y-92202000I-1500000J0D01*
G01*
X89130000Y-86360000D02*
G75*
G03*
X89130000Y-86360000I-1500000J0D01*
G01*
X100135000Y-90688000D02*
X100135000Y-95758000D01*
X90365000Y-90688000D02*
X90365000Y-95758000D01*
X90365000Y-95758000D02*
X100135000Y-95758000D01*
X90365000Y-90688000D02*
X100135000Y-90688000D01*
X100135000Y-84592000D02*
X100135000Y-89662000D01*
X90365000Y-84592000D02*
X90365000Y-89662000D01*
X90365000Y-89662000D02*
X100135000Y-89662000D01*
X90365000Y-84592000D02*
X100135000Y-84592000D01*
X102214000Y-98779436D02*
X102214000Y-100233564D01*
X104034000Y-98779436D02*
X104034000Y-100233564D01*
X84434000Y-98902436D02*
X84434000Y-100356564D01*
X86254000Y-98902436D02*
X86254000Y-100356564D01*
X109580000Y-91220936D02*
X109580000Y-92675064D01*
X111400000Y-91220936D02*
X111400000Y-92675064D01*
X109580000Y-86394936D02*
X109580000Y-87849064D01*
X111400000Y-86394936D02*
X111400000Y-87849064D01*
X107040000Y-91220936D02*
X107040000Y-92675064D01*
X108860000Y-91220936D02*
X108860000Y-92675064D01*
X107040000Y-86394936D02*
X107040000Y-87849064D01*
X108860000Y-86394936D02*
X108860000Y-87849064D01*
X105955000Y-73747000D02*
X105955000Y-79507000D01*
X104535000Y-73747000D02*
X105955000Y-73747000D01*
X104535000Y-74247000D02*
X104535000Y-73747000D01*
X94505000Y-74247000D02*
X104535000Y-74247000D01*
X94505000Y-73747000D02*
X94505000Y-74247000D01*
X93085000Y-73747000D02*
X94505000Y-73747000D01*
X93085000Y-79507000D02*
X93085000Y-73747000D01*
X105955000Y-81337000D02*
X105955000Y-81027000D01*
X93085000Y-81337000D02*
X105955000Y-81337000D01*
X93085000Y-81027000D02*
X93085000Y-81337000D01*
X92033000Y-73747000D02*
X92033000Y-79507000D01*
X90613000Y-73747000D02*
X92033000Y-73747000D01*
X90613000Y-74247000D02*
X90613000Y-73747000D01*
X83583000Y-74247000D02*
X90613000Y-74247000D01*
X83583000Y-73747000D02*
X83583000Y-74247000D01*
X82163000Y-73747000D02*
X83583000Y-73747000D01*
X82163000Y-79507000D02*
X82163000Y-73747000D01*
X92033000Y-81337000D02*
X92033000Y-81027000D01*
X82163000Y-81337000D02*
X92033000Y-81337000D01*
X82163000Y-81027000D02*
X82163000Y-81337000D01*
X87196201Y-109187001D02*
X89881201Y-109187001D01*
X87196201Y-107267001D02*
X87196201Y-109187001D01*
X89881201Y-107267001D02*
X87196201Y-107267001D01*
X87166500Y-106116000D02*
X89851500Y-106116000D01*
X87166500Y-104196000D02*
X87166500Y-106116000D01*
X89851500Y-104196000D02*
X87166500Y-104196000D01*
X84301000Y-85097252D02*
X84301000Y-84574748D01*
X82831000Y-85097252D02*
X82831000Y-84574748D01*
X78205000Y-85097252D02*
X78205000Y-84574748D01*
X76735000Y-85097252D02*
X76735000Y-84574748D01*
X78938000Y-85596000D02*
X79868000Y-85596000D01*
X82098000Y-85596000D02*
X81168000Y-85596000D01*
X82098000Y-85596000D02*
X82098000Y-83436000D01*
X78938000Y-85596000D02*
X78938000Y-84136000D01*
D10*
X79502095Y-99274380D02*
X79502095Y-100083904D01*
X79549714Y-100179142D01*
X79597333Y-100226761D01*
X79692571Y-100274380D01*
X79883047Y-100274380D01*
X79978285Y-100226761D01*
X80025904Y-100179142D01*
X80073523Y-100083904D01*
X80073523Y-99274380D01*
X81025904Y-99274380D02*
X80549714Y-99274380D01*
X80502095Y-99750571D01*
X80549714Y-99702952D01*
X80644952Y-99655333D01*
X80883047Y-99655333D01*
X80978285Y-99702952D01*
X81025904Y-99750571D01*
X81073523Y-99845809D01*
X81073523Y-100083904D01*
X81025904Y-100179142D01*
X80978285Y-100226761D01*
X80883047Y-100274380D01*
X80644952Y-100274380D01*
X80549714Y-100226761D01*
X80502095Y-100179142D01*
X79756095Y-89876380D02*
X79756095Y-90685904D01*
X79803714Y-90781142D01*
X79851333Y-90828761D01*
X79946571Y-90876380D01*
X80137047Y-90876380D01*
X80232285Y-90828761D01*
X80279904Y-90781142D01*
X80327523Y-90685904D01*
X80327523Y-89876380D01*
X81232285Y-90209714D02*
X81232285Y-90876380D01*
X80994190Y-89828761D02*
X80756095Y-90543047D01*
X81375142Y-90543047D01*
X107442095Y-99020380D02*
X107442095Y-99829904D01*
X107489714Y-99925142D01*
X107537333Y-99972761D01*
X107632571Y-100020380D01*
X107823047Y-100020380D01*
X107918285Y-99972761D01*
X107965904Y-99925142D01*
X108013523Y-99829904D01*
X108013523Y-99020380D01*
X108394476Y-99020380D02*
X109013523Y-99020380D01*
X108680190Y-99401333D01*
X108823047Y-99401333D01*
X108918285Y-99448952D01*
X108965904Y-99496571D01*
X109013523Y-99591809D01*
X109013523Y-99829904D01*
X108965904Y-99925142D01*
X108918285Y-99972761D01*
X108823047Y-100020380D01*
X108537333Y-100020380D01*
X108442095Y-99972761D01*
X108394476Y-99925142D01*
X97282095Y-99020380D02*
X97282095Y-99829904D01*
X97329714Y-99925142D01*
X97377333Y-99972761D01*
X97472571Y-100020380D01*
X97663047Y-100020380D01*
X97758285Y-99972761D01*
X97805904Y-99925142D01*
X97853523Y-99829904D01*
X97853523Y-99020380D01*
X98282095Y-99115619D02*
X98329714Y-99068000D01*
X98424952Y-99020380D01*
X98663047Y-99020380D01*
X98758285Y-99068000D01*
X98805904Y-99115619D01*
X98853523Y-99210857D01*
X98853523Y-99306095D01*
X98805904Y-99448952D01*
X98234476Y-100020380D01*
X98853523Y-100020380D01*
X89662095Y-99020380D02*
X89662095Y-99829904D01*
X89709714Y-99925142D01*
X89757333Y-99972761D01*
X89852571Y-100020380D01*
X90043047Y-100020380D01*
X90138285Y-99972761D01*
X90185904Y-99925142D01*
X90233523Y-99829904D01*
X90233523Y-99020380D01*
X91233523Y-100020380D02*
X90662095Y-100020380D01*
X90947809Y-100020380D02*
X90947809Y-99020380D01*
X90852571Y-99163238D01*
X90757333Y-99258476D01*
X90662095Y-99306095D01*
X101171619Y-95702380D02*
X100838285Y-95226190D01*
X100600190Y-95702380D02*
X100600190Y-94702380D01*
X100981142Y-94702380D01*
X101076380Y-94750000D01*
X101124000Y-94797619D01*
X101171619Y-94892857D01*
X101171619Y-95035714D01*
X101124000Y-95130952D01*
X101076380Y-95178571D01*
X100981142Y-95226190D01*
X100600190Y-95226190D01*
X101933523Y-95178571D02*
X102076380Y-95226190D01*
X102124000Y-95273809D01*
X102171619Y-95369047D01*
X102171619Y-95511904D01*
X102124000Y-95607142D01*
X102076380Y-95654761D01*
X101981142Y-95702380D01*
X101600190Y-95702380D01*
X101600190Y-94702380D01*
X101933523Y-94702380D01*
X102028761Y-94750000D01*
X102076380Y-94797619D01*
X102124000Y-94892857D01*
X102124000Y-94988095D01*
X102076380Y-95083333D01*
X102028761Y-95130952D01*
X101933523Y-95178571D01*
X101600190Y-95178571D01*
X102362095Y-95797619D02*
X103124000Y-95797619D01*
X103933523Y-95702380D02*
X103600190Y-95226190D01*
X103362095Y-95702380D02*
X103362095Y-94702380D01*
X103743047Y-94702380D01*
X103838285Y-94750000D01*
X103885904Y-94797619D01*
X103933523Y-94892857D01*
X103933523Y-95035714D01*
X103885904Y-95130952D01*
X103838285Y-95178571D01*
X103743047Y-95226190D01*
X103362095Y-95226190D01*
X104362095Y-95178571D02*
X104695428Y-95178571D01*
X104838285Y-95702380D02*
X104362095Y-95702380D01*
X104362095Y-94702380D01*
X104838285Y-94702380D01*
X105600190Y-95178571D02*
X105266857Y-95178571D01*
X105266857Y-95702380D02*
X105266857Y-94702380D01*
X105743047Y-94702380D01*
X101004952Y-89082571D02*
X100671619Y-89082571D01*
X100671619Y-89606380D02*
X100671619Y-88606380D01*
X101147809Y-88606380D01*
X101862095Y-89082571D02*
X102004952Y-89130190D01*
X102052571Y-89177809D01*
X102100190Y-89273047D01*
X102100190Y-89415904D01*
X102052571Y-89511142D01*
X102004952Y-89558761D01*
X101909714Y-89606380D01*
X101528761Y-89606380D01*
X101528761Y-88606380D01*
X101862095Y-88606380D01*
X101957333Y-88654000D01*
X102004952Y-88701619D01*
X102052571Y-88796857D01*
X102052571Y-88892095D01*
X102004952Y-88987333D01*
X101957333Y-89034952D01*
X101862095Y-89082571D01*
X101528761Y-89082571D01*
X102290666Y-89701619D02*
X103052571Y-89701619D01*
X103862095Y-89606380D02*
X103528761Y-89130190D01*
X103290666Y-89606380D02*
X103290666Y-88606380D01*
X103671619Y-88606380D01*
X103766857Y-88654000D01*
X103814476Y-88701619D01*
X103862095Y-88796857D01*
X103862095Y-88939714D01*
X103814476Y-89034952D01*
X103766857Y-89082571D01*
X103671619Y-89130190D01*
X103290666Y-89130190D01*
X104290666Y-89082571D02*
X104624000Y-89082571D01*
X104766857Y-89606380D02*
X104290666Y-89606380D01*
X104290666Y-88606380D01*
X104766857Y-88606380D01*
X105528761Y-89082571D02*
X105195428Y-89082571D01*
X105195428Y-89606380D02*
X105195428Y-88606380D01*
X105671619Y-88606380D01*
X85590285Y-95702380D02*
X85256952Y-95226190D01*
X85018857Y-95702380D02*
X85018857Y-94702380D01*
X85399809Y-94702380D01*
X85495047Y-94750000D01*
X85542666Y-94797619D01*
X85590285Y-94892857D01*
X85590285Y-95035714D01*
X85542666Y-95130952D01*
X85495047Y-95178571D01*
X85399809Y-95226190D01*
X85018857Y-95226190D01*
X86352190Y-95178571D02*
X86495047Y-95226190D01*
X86542666Y-95273809D01*
X86590285Y-95369047D01*
X86590285Y-95511904D01*
X86542666Y-95607142D01*
X86495047Y-95654761D01*
X86399809Y-95702380D01*
X86018857Y-95702380D01*
X86018857Y-94702380D01*
X86352190Y-94702380D01*
X86447428Y-94750000D01*
X86495047Y-94797619D01*
X86542666Y-94892857D01*
X86542666Y-94988095D01*
X86495047Y-95083333D01*
X86447428Y-95130952D01*
X86352190Y-95178571D01*
X86018857Y-95178571D01*
X86780761Y-95797619D02*
X87542666Y-95797619D01*
X87733142Y-95654761D02*
X87876000Y-95702380D01*
X88114095Y-95702380D01*
X88209333Y-95654761D01*
X88256952Y-95607142D01*
X88304571Y-95511904D01*
X88304571Y-95416666D01*
X88256952Y-95321428D01*
X88209333Y-95273809D01*
X88114095Y-95226190D01*
X87923619Y-95178571D01*
X87828380Y-95130952D01*
X87780761Y-95083333D01*
X87733142Y-94988095D01*
X87733142Y-94892857D01*
X87780761Y-94797619D01*
X87828380Y-94750000D01*
X87923619Y-94702380D01*
X88161714Y-94702380D01*
X88304571Y-94750000D01*
X88733142Y-95702380D02*
X88733142Y-94702380D01*
X89733142Y-94750000D02*
X89637904Y-94702380D01*
X89495047Y-94702380D01*
X89352190Y-94750000D01*
X89256952Y-94845238D01*
X89209333Y-94940476D01*
X89161714Y-95130952D01*
X89161714Y-95273809D01*
X89209333Y-95464285D01*
X89256952Y-95559523D01*
X89352190Y-95654761D01*
X89495047Y-95702380D01*
X89590285Y-95702380D01*
X89733142Y-95654761D01*
X89780761Y-95607142D01*
X89780761Y-95273809D01*
X89590285Y-95273809D01*
X85423619Y-89082571D02*
X85090285Y-89082571D01*
X85090285Y-89606380D02*
X85090285Y-88606380D01*
X85566476Y-88606380D01*
X86280761Y-89082571D02*
X86423619Y-89130190D01*
X86471238Y-89177809D01*
X86518857Y-89273047D01*
X86518857Y-89415904D01*
X86471238Y-89511142D01*
X86423619Y-89558761D01*
X86328380Y-89606380D01*
X85947428Y-89606380D01*
X85947428Y-88606380D01*
X86280761Y-88606380D01*
X86376000Y-88654000D01*
X86423619Y-88701619D01*
X86471238Y-88796857D01*
X86471238Y-88892095D01*
X86423619Y-88987333D01*
X86376000Y-89034952D01*
X86280761Y-89082571D01*
X85947428Y-89082571D01*
X86709333Y-89701619D02*
X87471238Y-89701619D01*
X87661714Y-89558761D02*
X87804571Y-89606380D01*
X88042666Y-89606380D01*
X88137904Y-89558761D01*
X88185523Y-89511142D01*
X88233142Y-89415904D01*
X88233142Y-89320666D01*
X88185523Y-89225428D01*
X88137904Y-89177809D01*
X88042666Y-89130190D01*
X87852190Y-89082571D01*
X87756952Y-89034952D01*
X87709333Y-88987333D01*
X87661714Y-88892095D01*
X87661714Y-88796857D01*
X87709333Y-88701619D01*
X87756952Y-88654000D01*
X87852190Y-88606380D01*
X88090285Y-88606380D01*
X88233142Y-88654000D01*
X88661714Y-89606380D02*
X88661714Y-88606380D01*
X89661714Y-88654000D02*
X89566476Y-88606380D01*
X89423619Y-88606380D01*
X89280761Y-88654000D01*
X89185523Y-88749238D01*
X89137904Y-88844476D01*
X89090285Y-89034952D01*
X89090285Y-89177809D01*
X89137904Y-89368285D01*
X89185523Y-89463523D01*
X89280761Y-89558761D01*
X89423619Y-89606380D01*
X89518857Y-89606380D01*
X89661714Y-89558761D01*
X89709333Y-89511142D01*
X89709333Y-89177809D01*
X89518857Y-89177809D01*
X94654761Y-93162380D02*
X94321428Y-92686190D01*
X94083333Y-93162380D02*
X94083333Y-92162380D01*
X94464285Y-92162380D01*
X94559523Y-92210000D01*
X94607142Y-92257619D01*
X94654761Y-92352857D01*
X94654761Y-92495714D01*
X94607142Y-92590952D01*
X94559523Y-92638571D01*
X94464285Y-92686190D01*
X94083333Y-92686190D01*
X94940476Y-92162380D02*
X95273809Y-93162380D01*
X95607142Y-92162380D01*
X95892857Y-92257619D02*
X95940476Y-92210000D01*
X96035714Y-92162380D01*
X96273809Y-92162380D01*
X96369047Y-92210000D01*
X96416666Y-92257619D01*
X96464285Y-92352857D01*
X96464285Y-92448095D01*
X96416666Y-92590952D01*
X95845238Y-93162380D01*
X96464285Y-93162380D01*
X94654761Y-87066380D02*
X94321428Y-86590190D01*
X94083333Y-87066380D02*
X94083333Y-86066380D01*
X94464285Y-86066380D01*
X94559523Y-86114000D01*
X94607142Y-86161619D01*
X94654761Y-86256857D01*
X94654761Y-86399714D01*
X94607142Y-86494952D01*
X94559523Y-86542571D01*
X94464285Y-86590190D01*
X94083333Y-86590190D01*
X94940476Y-86066380D02*
X95273809Y-87066380D01*
X95607142Y-86066380D01*
X96464285Y-87066380D02*
X95892857Y-87066380D01*
X96178571Y-87066380D02*
X96178571Y-86066380D01*
X96083333Y-86209238D01*
X95988095Y-86304476D01*
X95892857Y-86352095D01*
X103576380Y-99734666D02*
X103100190Y-100068000D01*
X103576380Y-100306095D02*
X102576380Y-100306095D01*
X102576380Y-99925142D01*
X102624000Y-99829904D01*
X102671619Y-99782285D01*
X102766857Y-99734666D01*
X102909714Y-99734666D01*
X103004952Y-99782285D01*
X103052571Y-99829904D01*
X103100190Y-99925142D01*
X103100190Y-100306095D01*
X103004952Y-99163238D02*
X102957333Y-99258476D01*
X102909714Y-99306095D01*
X102814476Y-99353714D01*
X102766857Y-99353714D01*
X102671619Y-99306095D01*
X102624000Y-99258476D01*
X102576380Y-99163238D01*
X102576380Y-98972761D01*
X102624000Y-98877523D01*
X102671619Y-98829904D01*
X102766857Y-98782285D01*
X102814476Y-98782285D01*
X102909714Y-98829904D01*
X102957333Y-98877523D01*
X103004952Y-98972761D01*
X103004952Y-99163238D01*
X103052571Y-99258476D01*
X103100190Y-99306095D01*
X103195428Y-99353714D01*
X103385904Y-99353714D01*
X103481142Y-99306095D01*
X103528761Y-99258476D01*
X103576380Y-99163238D01*
X103576380Y-98972761D01*
X103528761Y-98877523D01*
X103481142Y-98829904D01*
X103385904Y-98782285D01*
X103195428Y-98782285D01*
X103100190Y-98829904D01*
X103052571Y-98877523D01*
X103004952Y-98972761D01*
X85796380Y-99734666D02*
X85320190Y-100068000D01*
X85796380Y-100306095D02*
X84796380Y-100306095D01*
X84796380Y-99925142D01*
X84844000Y-99829904D01*
X84891619Y-99782285D01*
X84986857Y-99734666D01*
X85129714Y-99734666D01*
X85224952Y-99782285D01*
X85272571Y-99829904D01*
X85320190Y-99925142D01*
X85320190Y-100306095D01*
X84796380Y-99401333D02*
X84796380Y-98734666D01*
X85796380Y-99163238D01*
X110942380Y-92114666D02*
X110466190Y-92448000D01*
X110942380Y-92686095D02*
X109942380Y-92686095D01*
X109942380Y-92305142D01*
X109990000Y-92209904D01*
X110037619Y-92162285D01*
X110132857Y-92114666D01*
X110275714Y-92114666D01*
X110370952Y-92162285D01*
X110418571Y-92209904D01*
X110466190Y-92305142D01*
X110466190Y-92686095D01*
X110275714Y-91257523D02*
X110942380Y-91257523D01*
X109894761Y-91495619D02*
X110609047Y-91733714D01*
X110609047Y-91114666D01*
X110942380Y-87288666D02*
X110466190Y-87622000D01*
X110942380Y-87860095D02*
X109942380Y-87860095D01*
X109942380Y-87479142D01*
X109990000Y-87383904D01*
X110037619Y-87336285D01*
X110132857Y-87288666D01*
X110275714Y-87288666D01*
X110370952Y-87336285D01*
X110418571Y-87383904D01*
X110466190Y-87479142D01*
X110466190Y-87860095D01*
X109942380Y-86955333D02*
X109942380Y-86336285D01*
X110323333Y-86669619D01*
X110323333Y-86526761D01*
X110370952Y-86431523D01*
X110418571Y-86383904D01*
X110513809Y-86336285D01*
X110751904Y-86336285D01*
X110847142Y-86383904D01*
X110894761Y-86431523D01*
X110942380Y-86526761D01*
X110942380Y-86812476D01*
X110894761Y-86907714D01*
X110847142Y-86955333D01*
X108402380Y-92114666D02*
X107926190Y-92448000D01*
X108402380Y-92686095D02*
X107402380Y-92686095D01*
X107402380Y-92305142D01*
X107450000Y-92209904D01*
X107497619Y-92162285D01*
X107592857Y-92114666D01*
X107735714Y-92114666D01*
X107830952Y-92162285D01*
X107878571Y-92209904D01*
X107926190Y-92305142D01*
X107926190Y-92686095D01*
X107497619Y-91733714D02*
X107450000Y-91686095D01*
X107402380Y-91590857D01*
X107402380Y-91352761D01*
X107450000Y-91257523D01*
X107497619Y-91209904D01*
X107592857Y-91162285D01*
X107688095Y-91162285D01*
X107830952Y-91209904D01*
X108402380Y-91781333D01*
X108402380Y-91162285D01*
X108402380Y-87288666D02*
X107926190Y-87622000D01*
X108402380Y-87860095D02*
X107402380Y-87860095D01*
X107402380Y-87479142D01*
X107450000Y-87383904D01*
X107497619Y-87336285D01*
X107592857Y-87288666D01*
X107735714Y-87288666D01*
X107830952Y-87336285D01*
X107878571Y-87383904D01*
X107926190Y-87479142D01*
X107926190Y-87860095D01*
X108402380Y-86336285D02*
X108402380Y-86907714D01*
X108402380Y-86622000D02*
X107402380Y-86622000D01*
X107545238Y-86717238D01*
X107640476Y-86812476D01*
X107688095Y-86907714D01*
X93900666Y-75652380D02*
X93900666Y-76366666D01*
X93853047Y-76509523D01*
X93757809Y-76604761D01*
X93614952Y-76652380D01*
X93519714Y-76652380D01*
X94329238Y-75747619D02*
X94376857Y-75700000D01*
X94472095Y-75652380D01*
X94710190Y-75652380D01*
X94805428Y-75700000D01*
X94853047Y-75747619D01*
X94900666Y-75842857D01*
X94900666Y-75938095D01*
X94853047Y-76080952D01*
X94281619Y-76652380D01*
X94900666Y-76652380D01*
X83232666Y-75652380D02*
X83232666Y-76366666D01*
X83185047Y-76509523D01*
X83089809Y-76604761D01*
X82946952Y-76652380D01*
X82851714Y-76652380D01*
X84232666Y-76652380D02*
X83661238Y-76652380D01*
X83946952Y-76652380D02*
X83946952Y-75652380D01*
X83851714Y-75795238D01*
X83756476Y-75890476D01*
X83661238Y-75938095D01*
X88143105Y-108656380D02*
X88143105Y-107656380D01*
X88381201Y-107656380D01*
X88524058Y-107704000D01*
X88619296Y-107799238D01*
X88666915Y-107894476D01*
X88714534Y-108084952D01*
X88714534Y-108227809D01*
X88666915Y-108418285D01*
X88619296Y-108513523D01*
X88524058Y-108608761D01*
X88381201Y-108656380D01*
X88143105Y-108656380D01*
X89095486Y-107751619D02*
X89143105Y-107704000D01*
X89238343Y-107656380D01*
X89476439Y-107656380D01*
X89571677Y-107704000D01*
X89619296Y-107751619D01*
X89666915Y-107846857D01*
X89666915Y-107942095D01*
X89619296Y-108084952D01*
X89047867Y-108656380D01*
X89666915Y-108656380D01*
X91567523Y-108132571D02*
X91710380Y-108180190D01*
X91758000Y-108227809D01*
X91805619Y-108323047D01*
X91805619Y-108465904D01*
X91758000Y-108561142D01*
X91710380Y-108608761D01*
X91615142Y-108656380D01*
X91234190Y-108656380D01*
X91234190Y-107656380D01*
X91567523Y-107656380D01*
X91662761Y-107704000D01*
X91710380Y-107751619D01*
X91758000Y-107846857D01*
X91758000Y-107942095D01*
X91710380Y-108037333D01*
X91662761Y-108084952D01*
X91567523Y-108132571D01*
X91234190Y-108132571D01*
X92805619Y-108656380D02*
X92472285Y-108180190D01*
X92234190Y-108656380D02*
X92234190Y-107656380D01*
X92615142Y-107656380D01*
X92710380Y-107704000D01*
X92758000Y-107751619D01*
X92805619Y-107846857D01*
X92805619Y-107989714D01*
X92758000Y-108084952D01*
X92710380Y-108132571D01*
X92615142Y-108180190D01*
X92234190Y-108180190D01*
X93186571Y-108370666D02*
X93662761Y-108370666D01*
X93091333Y-108656380D02*
X93424666Y-107656380D01*
X93758000Y-108656380D01*
X94091333Y-108656380D02*
X94091333Y-107656380D01*
X94662761Y-108656380D02*
X94234190Y-108084952D01*
X94662761Y-107656380D02*
X94091333Y-108227809D01*
X95091333Y-108132571D02*
X95424666Y-108132571D01*
X95567523Y-108656380D02*
X95091333Y-108656380D01*
X95091333Y-107656380D01*
X95567523Y-107656380D01*
X96519904Y-107289000D02*
X97567523Y-107289000D01*
X96948476Y-107656380D02*
X97138952Y-107656380D01*
X97234190Y-107704000D01*
X97329428Y-107799238D01*
X97377047Y-107989714D01*
X97377047Y-108323047D01*
X97329428Y-108513523D01*
X97234190Y-108608761D01*
X97138952Y-108656380D01*
X96948476Y-108656380D01*
X96853238Y-108608761D01*
X96758000Y-108513523D01*
X96710380Y-108323047D01*
X96710380Y-107989714D01*
X96758000Y-107799238D01*
X96853238Y-107704000D01*
X96948476Y-107656380D01*
X97567523Y-107289000D02*
X98567523Y-107289000D01*
X98377047Y-108561142D02*
X98329428Y-108608761D01*
X98186571Y-108656380D01*
X98091333Y-108656380D01*
X97948476Y-108608761D01*
X97853238Y-108513523D01*
X97805619Y-108418285D01*
X97758000Y-108227809D01*
X97758000Y-108084952D01*
X97805619Y-107894476D01*
X97853238Y-107799238D01*
X97948476Y-107704000D01*
X98091333Y-107656380D01*
X98186571Y-107656380D01*
X98329428Y-107704000D01*
X98377047Y-107751619D01*
X98567523Y-107289000D02*
X99519904Y-107289000D01*
X98758000Y-108608761D02*
X98900857Y-108656380D01*
X99138952Y-108656380D01*
X99234190Y-108608761D01*
X99281809Y-108561142D01*
X99329428Y-108465904D01*
X99329428Y-108370666D01*
X99281809Y-108275428D01*
X99234190Y-108227809D01*
X99138952Y-108180190D01*
X98948476Y-108132571D01*
X98853238Y-108084952D01*
X98805619Y-108037333D01*
X98758000Y-107942095D01*
X98758000Y-107846857D01*
X98805619Y-107751619D01*
X98853238Y-107704000D01*
X98948476Y-107656380D01*
X99186571Y-107656380D01*
X99329428Y-107704000D01*
X99519904Y-107289000D02*
X100519904Y-107289000D01*
X100329428Y-108561142D02*
X100281809Y-108608761D01*
X100138952Y-108656380D01*
X100043714Y-108656380D01*
X99900857Y-108608761D01*
X99805619Y-108513523D01*
X99758000Y-108418285D01*
X99710380Y-108227809D01*
X99710380Y-108084952D01*
X99758000Y-107894476D01*
X99805619Y-107799238D01*
X99900857Y-107704000D01*
X100043714Y-107656380D01*
X100138952Y-107656380D01*
X100281809Y-107704000D01*
X100329428Y-107751619D01*
X88288904Y-105608380D02*
X88288904Y-104608380D01*
X88527000Y-104608380D01*
X88669857Y-104656000D01*
X88765095Y-104751238D01*
X88812714Y-104846476D01*
X88860333Y-105036952D01*
X88860333Y-105179809D01*
X88812714Y-105370285D01*
X88765095Y-105465523D01*
X88669857Y-105560761D01*
X88527000Y-105608380D01*
X88288904Y-105608380D01*
X89812714Y-105608380D02*
X89241285Y-105608380D01*
X89527000Y-105608380D02*
X89527000Y-104608380D01*
X89431761Y-104751238D01*
X89336523Y-104846476D01*
X89241285Y-104894095D01*
X91567809Y-105084571D02*
X91710666Y-105132190D01*
X91758285Y-105179809D01*
X91805904Y-105275047D01*
X91805904Y-105417904D01*
X91758285Y-105513142D01*
X91710666Y-105560761D01*
X91615428Y-105608380D01*
X91234476Y-105608380D01*
X91234476Y-104608380D01*
X91567809Y-104608380D01*
X91663047Y-104656000D01*
X91710666Y-104703619D01*
X91758285Y-104798857D01*
X91758285Y-104894095D01*
X91710666Y-104989333D01*
X91663047Y-105036952D01*
X91567809Y-105084571D01*
X91234476Y-105084571D01*
X92805904Y-105608380D02*
X92472571Y-105132190D01*
X92234476Y-105608380D02*
X92234476Y-104608380D01*
X92615428Y-104608380D01*
X92710666Y-104656000D01*
X92758285Y-104703619D01*
X92805904Y-104798857D01*
X92805904Y-104941714D01*
X92758285Y-105036952D01*
X92710666Y-105084571D01*
X92615428Y-105132190D01*
X92234476Y-105132190D01*
X93186857Y-105322666D02*
X93663047Y-105322666D01*
X93091619Y-105608380D02*
X93424952Y-104608380D01*
X93758285Y-105608380D01*
X94091619Y-105608380D02*
X94091619Y-104608380D01*
X94663047Y-105608380D02*
X94234476Y-105036952D01*
X94663047Y-104608380D02*
X94091619Y-105179809D01*
X95091619Y-105084571D02*
X95424952Y-105084571D01*
X95567809Y-105608380D02*
X95091619Y-105608380D01*
X95091619Y-104608380D01*
X95567809Y-104608380D01*
X96615428Y-104608380D02*
X97186857Y-104608380D01*
X96901142Y-105608380D02*
X96901142Y-104608380D01*
X97520190Y-105608380D02*
X97520190Y-104608380D01*
X97520190Y-105084571D02*
X98091619Y-105084571D01*
X98091619Y-105608380D02*
X98091619Y-104608380D01*
X99139238Y-105608380D02*
X98805904Y-105132190D01*
X98567809Y-105608380D02*
X98567809Y-104608380D01*
X98948761Y-104608380D01*
X99044000Y-104656000D01*
X99091619Y-104703619D01*
X99139238Y-104798857D01*
X99139238Y-104941714D01*
X99091619Y-105036952D01*
X99044000Y-105084571D01*
X98948761Y-105132190D01*
X98567809Y-105132190D01*
X99567809Y-105084571D02*
X99901142Y-105084571D01*
X100044000Y-105608380D02*
X99567809Y-105608380D01*
X99567809Y-104608380D01*
X100044000Y-104608380D01*
X100424952Y-105560761D02*
X100567809Y-105608380D01*
X100805904Y-105608380D01*
X100901142Y-105560761D01*
X100948761Y-105513142D01*
X100996380Y-105417904D01*
X100996380Y-105322666D01*
X100948761Y-105227428D01*
X100901142Y-105179809D01*
X100805904Y-105132190D01*
X100615428Y-105084571D01*
X100520190Y-105036952D01*
X100472571Y-104989333D01*
X100424952Y-104894095D01*
X100424952Y-104798857D01*
X100472571Y-104703619D01*
X100520190Y-104656000D01*
X100615428Y-104608380D01*
X100853523Y-104608380D01*
X100996380Y-104656000D01*
X101424952Y-105608380D02*
X101424952Y-104608380D01*
X101424952Y-105084571D02*
X101996380Y-105084571D01*
X101996380Y-105608380D02*
X101996380Y-104608380D01*
X102663047Y-104608380D02*
X102853523Y-104608380D01*
X102948761Y-104656000D01*
X103044000Y-104751238D01*
X103091619Y-104941714D01*
X103091619Y-105275047D01*
X103044000Y-105465523D01*
X102948761Y-105560761D01*
X102853523Y-105608380D01*
X102663047Y-105608380D01*
X102567809Y-105560761D01*
X102472571Y-105465523D01*
X102424952Y-105275047D01*
X102424952Y-104941714D01*
X102472571Y-104751238D01*
X102567809Y-104656000D01*
X102663047Y-104608380D01*
X103996380Y-105608380D02*
X103520190Y-105608380D01*
X103520190Y-104608380D01*
X104329714Y-105608380D02*
X104329714Y-104608380D01*
X104567809Y-104608380D01*
X104710666Y-104656000D01*
X104805904Y-104751238D01*
X104853523Y-104846476D01*
X104901142Y-105036952D01*
X104901142Y-105179809D01*
X104853523Y-105370285D01*
X104805904Y-105465523D01*
X104710666Y-105560761D01*
X104567809Y-105608380D01*
X104329714Y-105608380D01*
M02*
