G04 #@! TF.GenerationSoftware,KiCad,Pcbnew,(5.1.6)-1*
G04 #@! TF.CreationDate,2021-06-24T15:17:58+10:00*
G04 #@! TF.ProjectId,BSPD,42535044-2e6b-4696-9361-645f70636258,rev?*
G04 #@! TF.SameCoordinates,Original*
G04 #@! TF.FileFunction,Legend,Bot*
G04 #@! TF.FilePolarity,Positive*
%FSLAX46Y46*%
G04 Gerber Fmt 4.6, Leading zero omitted, Abs format (unit mm)*
G04 Created by KiCad (PCBNEW (5.1.6)-1) date 2021-06-24 15:17:58*
%MOMM*%
%LPD*%
G01*
G04 APERTURE LIST*
%ADD10C,0.150000*%
%ADD11C,0.120000*%
G04 APERTURE END LIST*
D10*
X105503071Y-104831571D02*
X105360214Y-104879190D01*
X105312595Y-104926809D01*
X105264976Y-105022047D01*
X105264976Y-105164904D01*
X105312595Y-105260142D01*
X105360214Y-105307761D01*
X105455452Y-105355380D01*
X105836404Y-105355380D01*
X105836404Y-104355380D01*
X105503071Y-104355380D01*
X105407833Y-104403000D01*
X105360214Y-104450619D01*
X105312595Y-104545857D01*
X105312595Y-104641095D01*
X105360214Y-104736333D01*
X105407833Y-104783952D01*
X105503071Y-104831571D01*
X105836404Y-104831571D01*
X104884023Y-105307761D02*
X104741166Y-105355380D01*
X104503071Y-105355380D01*
X104407833Y-105307761D01*
X104360214Y-105260142D01*
X104312595Y-105164904D01*
X104312595Y-105069666D01*
X104360214Y-104974428D01*
X104407833Y-104926809D01*
X104503071Y-104879190D01*
X104693547Y-104831571D01*
X104788785Y-104783952D01*
X104836404Y-104736333D01*
X104884023Y-104641095D01*
X104884023Y-104545857D01*
X104836404Y-104450619D01*
X104788785Y-104403000D01*
X104693547Y-104355380D01*
X104455452Y-104355380D01*
X104312595Y-104403000D01*
X103884023Y-105355380D02*
X103884023Y-104355380D01*
X103503071Y-104355380D01*
X103407833Y-104403000D01*
X103360214Y-104450619D01*
X103312595Y-104545857D01*
X103312595Y-104688714D01*
X103360214Y-104783952D01*
X103407833Y-104831571D01*
X103503071Y-104879190D01*
X103884023Y-104879190D01*
X102884023Y-105355380D02*
X102884023Y-104355380D01*
X102645928Y-104355380D01*
X102503071Y-104403000D01*
X102407833Y-104498238D01*
X102360214Y-104593476D01*
X102312595Y-104783952D01*
X102312595Y-104926809D01*
X102360214Y-105117285D01*
X102407833Y-105212523D01*
X102503071Y-105307761D01*
X102645928Y-105355380D01*
X102884023Y-105355380D01*
X101884023Y-104974428D02*
X101122119Y-104974428D01*
X100693547Y-104450619D02*
X100645928Y-104403000D01*
X100550690Y-104355380D01*
X100312595Y-104355380D01*
X100217357Y-104403000D01*
X100169738Y-104450619D01*
X100122119Y-104545857D01*
X100122119Y-104641095D01*
X100169738Y-104783952D01*
X100741166Y-105355380D01*
X100122119Y-105355380D01*
X99693547Y-104974428D02*
X98931642Y-104974428D01*
X97931642Y-105355380D02*
X98503071Y-105355380D01*
X98217357Y-105355380D02*
X98217357Y-104355380D01*
X98312595Y-104498238D01*
X98407833Y-104593476D01*
X98503071Y-104641095D01*
X97503071Y-105260142D02*
X97455452Y-105307761D01*
X97503071Y-105355380D01*
X97550690Y-105307761D01*
X97503071Y-105260142D01*
X97503071Y-105355380D01*
X96836404Y-104355380D02*
X96741166Y-104355380D01*
X96645928Y-104403000D01*
X96598309Y-104450619D01*
X96550690Y-104545857D01*
X96503071Y-104736333D01*
X96503071Y-104974428D01*
X96550690Y-105164904D01*
X96598309Y-105260142D01*
X96645928Y-105307761D01*
X96741166Y-105355380D01*
X96836404Y-105355380D01*
X96931642Y-105307761D01*
X96979261Y-105260142D01*
X97026880Y-105164904D01*
X97074500Y-104974428D01*
X97074500Y-104736333D01*
X97026880Y-104545857D01*
X96979261Y-104450619D01*
X96931642Y-104403000D01*
X96836404Y-104355380D01*
X96074500Y-105260142D02*
X96026880Y-105307761D01*
X96074500Y-105355380D01*
X96122119Y-105307761D01*
X96074500Y-105260142D01*
X96074500Y-105355380D01*
X95407833Y-104355380D02*
X95312595Y-104355380D01*
X95217357Y-104403000D01*
X95169738Y-104450619D01*
X95122119Y-104545857D01*
X95074500Y-104736333D01*
X95074500Y-104974428D01*
X95122119Y-105164904D01*
X95169738Y-105260142D01*
X95217357Y-105307761D01*
X95312595Y-105355380D01*
X95407833Y-105355380D01*
X95503071Y-105307761D01*
X95550690Y-105260142D01*
X95598309Y-105164904D01*
X95645928Y-104974428D01*
X95645928Y-104736333D01*
X95598309Y-104545857D01*
X95550690Y-104450619D01*
X95503071Y-104403000D01*
X95407833Y-104355380D01*
X105836404Y-107005380D02*
X105836404Y-106005380D01*
X105264976Y-107005380D01*
X105264976Y-106005380D01*
X104788785Y-106005380D02*
X104788785Y-106814904D01*
X104741166Y-106910142D01*
X104693547Y-106957761D01*
X104598309Y-107005380D01*
X104407833Y-107005380D01*
X104312595Y-106957761D01*
X104264976Y-106910142D01*
X104217357Y-106814904D01*
X104217357Y-106005380D01*
X103169738Y-107005380D02*
X103503071Y-106529190D01*
X103741166Y-107005380D02*
X103741166Y-106005380D01*
X103360214Y-106005380D01*
X103264976Y-106053000D01*
X103217357Y-106100619D01*
X103169738Y-106195857D01*
X103169738Y-106338714D01*
X103217357Y-106433952D01*
X103264976Y-106481571D01*
X103360214Y-106529190D01*
X103741166Y-106529190D01*
X102312595Y-107005380D02*
X102312595Y-106481571D01*
X102360214Y-106386333D01*
X102455452Y-106338714D01*
X102645928Y-106338714D01*
X102741166Y-106386333D01*
X102312595Y-106957761D02*
X102407833Y-107005380D01*
X102645928Y-107005380D01*
X102741166Y-106957761D01*
X102788785Y-106862523D01*
X102788785Y-106767285D01*
X102741166Y-106672047D01*
X102645928Y-106624428D01*
X102407833Y-106624428D01*
X102312595Y-106576809D01*
X101407833Y-106957761D02*
X101503071Y-107005380D01*
X101693547Y-107005380D01*
X101788785Y-106957761D01*
X101836404Y-106910142D01*
X101884023Y-106814904D01*
X101884023Y-106529190D01*
X101836404Y-106433952D01*
X101788785Y-106386333D01*
X101693547Y-106338714D01*
X101503071Y-106338714D01*
X101407833Y-106386333D01*
X100979261Y-107005380D02*
X100979261Y-106338714D01*
X100979261Y-106005380D02*
X101026880Y-106053000D01*
X100979261Y-106100619D01*
X100931642Y-106053000D01*
X100979261Y-106005380D01*
X100979261Y-106100619D01*
X100503071Y-106338714D02*
X100503071Y-107005380D01*
X100503071Y-106433952D02*
X100455452Y-106386333D01*
X100360214Y-106338714D01*
X100217357Y-106338714D01*
X100122119Y-106386333D01*
X100074500Y-106481571D01*
X100074500Y-107005380D01*
X99169738Y-106338714D02*
X99169738Y-107148238D01*
X99217357Y-107243476D01*
X99264976Y-107291095D01*
X99360214Y-107338714D01*
X99503071Y-107338714D01*
X99598309Y-107291095D01*
X99169738Y-106957761D02*
X99264976Y-107005380D01*
X99455452Y-107005380D01*
X99550690Y-106957761D01*
X99598309Y-106910142D01*
X99645928Y-106814904D01*
X99645928Y-106529190D01*
X99598309Y-106433952D01*
X99550690Y-106386333D01*
X99455452Y-106338714D01*
X99264976Y-106338714D01*
X99169738Y-106386333D01*
X105836404Y-108655380D02*
X105836404Y-107655380D01*
X105503071Y-108369666D01*
X105169738Y-107655380D01*
X105169738Y-108655380D01*
X104026880Y-107655380D02*
X103788785Y-108655380D01*
X103598309Y-107941095D01*
X103407833Y-108655380D01*
X103169738Y-107655380D01*
X102788785Y-108655380D02*
X102788785Y-107655380D01*
X102360214Y-108655380D02*
X102360214Y-108131571D01*
X102407833Y-108036333D01*
X102503071Y-107988714D01*
X102645928Y-107988714D01*
X102741166Y-108036333D01*
X102788785Y-108083952D01*
X101884023Y-108655380D02*
X101884023Y-107988714D01*
X101884023Y-107655380D02*
X101931642Y-107703000D01*
X101884023Y-107750619D01*
X101836404Y-107703000D01*
X101884023Y-107655380D01*
X101884023Y-107750619D01*
X101550690Y-107988714D02*
X101169738Y-107988714D01*
X101407833Y-107655380D02*
X101407833Y-108512523D01*
X101360214Y-108607761D01*
X101264976Y-108655380D01*
X101169738Y-108655380D01*
X100931642Y-107988714D02*
X100741166Y-108655380D01*
X100550690Y-108179190D01*
X100360214Y-108655380D01*
X100169738Y-107988714D01*
X99645928Y-108655380D02*
X99741166Y-108607761D01*
X99788785Y-108560142D01*
X99836404Y-108464904D01*
X99836404Y-108179190D01*
X99788785Y-108083952D01*
X99741166Y-108036333D01*
X99645928Y-107988714D01*
X99503071Y-107988714D01*
X99407833Y-108036333D01*
X99360214Y-108083952D01*
X99312595Y-108179190D01*
X99312595Y-108464904D01*
X99360214Y-108560142D01*
X99407833Y-108607761D01*
X99503071Y-108655380D01*
X99645928Y-108655380D01*
X98884023Y-108655380D02*
X98884023Y-107988714D01*
X98884023Y-108179190D02*
X98836404Y-108083952D01*
X98788785Y-108036333D01*
X98693547Y-107988714D01*
X98598309Y-107988714D01*
X98407833Y-107988714D02*
X98026880Y-107988714D01*
X98264976Y-107655380D02*
X98264976Y-108512523D01*
X98217357Y-108607761D01*
X98122119Y-108655380D01*
X98026880Y-108655380D01*
X97693547Y-108655380D02*
X97693547Y-107655380D01*
X97264976Y-108655380D02*
X97264976Y-108131571D01*
X97312595Y-108036333D01*
X97407833Y-107988714D01*
X97550690Y-107988714D01*
X97645928Y-108036333D01*
X97693547Y-108083952D01*
D11*
X88299936Y-107294000D02*
X89754064Y-107294000D01*
X88299936Y-109114000D02*
X89754064Y-109114000D01*
X88299936Y-104246000D02*
X89754064Y-104246000D01*
X88299936Y-106066000D02*
X89754064Y-106066000D01*
X91220936Y-93578000D02*
X92675064Y-93578000D01*
X91220936Y-95398000D02*
X92675064Y-95398000D01*
X91028436Y-87482000D02*
X92482564Y-87482000D01*
X91028436Y-89302000D02*
X92482564Y-89302000D01*
X80999000Y-99560748D02*
X80999000Y-100083252D01*
X79529000Y-99560748D02*
X79529000Y-100083252D01*
X108939000Y-99560748D02*
X108939000Y-100083252D01*
X107469000Y-99560748D02*
X107469000Y-100083252D01*
X98779000Y-99560748D02*
X98779000Y-100083252D01*
X97309000Y-99560748D02*
X97309000Y-100083252D01*
X91159000Y-99560748D02*
X91159000Y-100083252D01*
X89689000Y-99560748D02*
X89689000Y-100083252D01*
D10*
X89669857Y-108656380D02*
X90003190Y-108180190D01*
X90241285Y-108656380D02*
X90241285Y-107656380D01*
X89860333Y-107656380D01*
X89765095Y-107704000D01*
X89717476Y-107751619D01*
X89669857Y-107846857D01*
X89669857Y-107989714D01*
X89717476Y-108084952D01*
X89765095Y-108132571D01*
X89860333Y-108180190D01*
X90241285Y-108180190D01*
X88717476Y-108656380D02*
X89288904Y-108656380D01*
X89003190Y-108656380D02*
X89003190Y-107656380D01*
X89098428Y-107799238D01*
X89193666Y-107894476D01*
X89288904Y-107942095D01*
X88098428Y-107656380D02*
X88003190Y-107656380D01*
X87907952Y-107704000D01*
X87860333Y-107751619D01*
X87812714Y-107846857D01*
X87765095Y-108037333D01*
X87765095Y-108275428D01*
X87812714Y-108465904D01*
X87860333Y-108561142D01*
X87907952Y-108608761D01*
X88003190Y-108656380D01*
X88098428Y-108656380D01*
X88193666Y-108608761D01*
X88241285Y-108561142D01*
X88288904Y-108465904D01*
X88336523Y-108275428D01*
X88336523Y-108037333D01*
X88288904Y-107846857D01*
X88241285Y-107751619D01*
X88193666Y-107704000D01*
X88098428Y-107656380D01*
X89193666Y-105608380D02*
X89527000Y-105132190D01*
X89765095Y-105608380D02*
X89765095Y-104608380D01*
X89384142Y-104608380D01*
X89288904Y-104656000D01*
X89241285Y-104703619D01*
X89193666Y-104798857D01*
X89193666Y-104941714D01*
X89241285Y-105036952D01*
X89288904Y-105084571D01*
X89384142Y-105132190D01*
X89765095Y-105132190D01*
X88717476Y-105608380D02*
X88527000Y-105608380D01*
X88431761Y-105560761D01*
X88384142Y-105513142D01*
X88288904Y-105370285D01*
X88241285Y-105179809D01*
X88241285Y-104798857D01*
X88288904Y-104703619D01*
X88336523Y-104656000D01*
X88431761Y-104608380D01*
X88622238Y-104608380D01*
X88717476Y-104656000D01*
X88765095Y-104703619D01*
X88812714Y-104798857D01*
X88812714Y-105036952D01*
X88765095Y-105132190D01*
X88717476Y-105179809D01*
X88622238Y-105227428D01*
X88431761Y-105227428D01*
X88336523Y-105179809D01*
X88288904Y-105132190D01*
X88241285Y-105036952D01*
X92114666Y-94940380D02*
X92448000Y-94464190D01*
X92686095Y-94940380D02*
X92686095Y-93940380D01*
X92305142Y-93940380D01*
X92209904Y-93988000D01*
X92162285Y-94035619D01*
X92114666Y-94130857D01*
X92114666Y-94273714D01*
X92162285Y-94368952D01*
X92209904Y-94416571D01*
X92305142Y-94464190D01*
X92686095Y-94464190D01*
X91257523Y-93940380D02*
X91448000Y-93940380D01*
X91543238Y-93988000D01*
X91590857Y-94035619D01*
X91686095Y-94178476D01*
X91733714Y-94368952D01*
X91733714Y-94749904D01*
X91686095Y-94845142D01*
X91638476Y-94892761D01*
X91543238Y-94940380D01*
X91352761Y-94940380D01*
X91257523Y-94892761D01*
X91209904Y-94845142D01*
X91162285Y-94749904D01*
X91162285Y-94511809D01*
X91209904Y-94416571D01*
X91257523Y-94368952D01*
X91352761Y-94321333D01*
X91543238Y-94321333D01*
X91638476Y-94368952D01*
X91686095Y-94416571D01*
X91733714Y-94511809D01*
X91922166Y-88844380D02*
X92255500Y-88368190D01*
X92493595Y-88844380D02*
X92493595Y-87844380D01*
X92112642Y-87844380D01*
X92017404Y-87892000D01*
X91969785Y-87939619D01*
X91922166Y-88034857D01*
X91922166Y-88177714D01*
X91969785Y-88272952D01*
X92017404Y-88320571D01*
X92112642Y-88368190D01*
X92493595Y-88368190D01*
X91017404Y-87844380D02*
X91493595Y-87844380D01*
X91541214Y-88320571D01*
X91493595Y-88272952D01*
X91398357Y-88225333D01*
X91160261Y-88225333D01*
X91065023Y-88272952D01*
X91017404Y-88320571D01*
X90969785Y-88415809D01*
X90969785Y-88653904D01*
X91017404Y-88749142D01*
X91065023Y-88796761D01*
X91160261Y-88844380D01*
X91398357Y-88844380D01*
X91493595Y-88796761D01*
X91541214Y-88749142D01*
M02*
